<svg width="13" height="16" viewBox="0 0 13 16" fill="none" xmlns="http://www.w3.org/2000/svg">
<path d="M8.65799 0H4.08657C3.77097 0 3.51514 0.255837 3.51514 0.571429V1.71429C3.51514 2.02988 3.77097 2.28571 4.08657 2.28571H8.65799C8.97358 2.28571 9.22942 2.02988 9.22942 1.71429V0.571429C9.22942 0.255837 8.97358 0 8.65799 0Z" fill="#636D7D"/>
<path d="M10.9436 1.14288H10.6579C10.5821 1.14288 10.5094 1.17299 10.4558 1.22657C10.4022 1.28015 10.3721 1.35282 10.3721 1.4286V1.71431C10.3721 2.16897 10.1915 2.605 9.87004 2.92649C9.54855 3.24799 9.11251 3.4286 8.65785 3.4286H4.08643C3.63177 3.4286 3.19573 3.24799 2.87424 2.92649C2.55275 2.605 2.37214 2.16897 2.37214 1.71431V1.4286C2.37214 1.35282 2.34204 1.28015 2.28846 1.22657C2.23487 1.17299 2.1622 1.14288 2.08643 1.14288H1.80071C1.34605 1.14288 0.910019 1.3235 0.588528 1.64499C0.267038 1.96648 0.0864258 2.40251 0.0864258 2.85717V14.2857C0.0864258 14.7404 0.267038 15.1764 0.588528 15.4979C0.910019 15.8194 1.34605 16 1.80071 16H10.9436C11.3982 16 11.8343 15.8194 12.1558 15.4979C12.4772 15.1764 12.6579 14.7404 12.6579 14.2857V2.85717C12.6579 2.40251 12.4772 1.96648 12.1558 1.64499C11.8343 1.3235 11.3982 1.14288 10.9436 1.14288ZM10.1207 8.00003L6.12071 12C5.96 12.1605 5.74214 12.2507 5.515 12.2507C5.28785 12.2507 5.07 12.1605 4.90928 12L2.94357 10.0343C2.83912 9.87322 2.79178 9.68172 2.80914 9.49052C2.8265 9.29931 2.90755 9.11947 3.03929 8.97982C3.17104 8.84017 3.34586 8.74879 3.53573 8.72033C3.7256 8.69188 3.91953 8.72799 4.08643 8.82288L5.22928 9.96574C5.25594 9.99339 5.28789 10.0154 5.32323 10.0304C5.35858 10.0454 5.39659 10.0532 5.435 10.0532C5.4734 10.0532 5.51141 10.0454 5.54676 10.0304C5.5821 10.0154 5.61406 9.99339 5.64071 9.96574L8.90928 6.85717C9.07038 6.75272 9.26187 6.70538 9.45308 6.72274C9.64428 6.7401 9.82412 6.82115 9.96377 6.95289C10.1034 7.08464 10.1948 7.25946 10.2233 7.44933C10.2517 7.6392 10.2156 7.83313 10.1207 8.00003Z" fill="#636D7D"/>
</svg>
