<svg width="17" height="16" viewBox="0 0 17 16" fill="none" xmlns="http://www.w3.org/2000/svg">
<path d="M16.1208 8.60567C16.2814 8.44495 16.3715 8.2271 16.3715 7.99995C16.3715 7.77281 16.2814 7.55495 16.1208 7.39424L13.8351 5.10852C13.6744 4.94801 13.4566 4.85785 13.2294 4.85785C13.0023 4.85785 12.7844 4.94801 12.6237 5.10852C12.4632 5.26924 12.373 5.48709 12.373 5.71424C12.373 5.94138 12.4632 6.15924 12.6237 6.31995L12.9551 6.65138C12.9966 6.69215 13.0253 6.74421 13.0374 6.80109C13.0496 6.85797 13.0449 6.91719 13.0237 6.97138C13.0014 7.02249 12.9646 7.06595 12.9179 7.09641C12.8712 7.12688 12.8166 7.143 12.7609 7.14281H6.37228C6.14495 7.14281 5.92693 7.23312 5.76619 7.39386C5.60544 7.55461 5.51514 7.77262 5.51514 7.99995C5.51514 8.22728 5.60544 8.4453 5.76619 8.60604C5.92693 8.76679 6.14495 8.8571 6.37228 8.8571H12.7609C12.8166 8.8569 12.8712 8.87303 12.9179 8.90349C12.9646 8.93395 13.0014 8.97742 13.0237 9.02852C13.0449 9.08272 13.0496 9.14193 13.0374 9.19882C13.0253 9.2557 12.9966 9.30776 12.9551 9.34853L12.6237 9.67995C12.4632 9.84067 12.373 10.0585 12.373 10.2857C12.373 10.5128 12.4632 10.7307 12.6237 10.8914C12.7844 11.0519 13.0023 11.1421 13.2294 11.1421C13.4566 11.1421 13.6744 11.0519 13.8351 10.8914L16.1208 8.60567Z" fill="#5B6577"/>
<path d="M13.2292 12.8571C12.8913 12.8594 12.5563 12.7937 12.2442 12.6642C11.9321 12.5346 11.6491 12.3437 11.4121 12.1028C11.0363 11.7535 10.7736 11.2998 10.6578 10.8C10.6469 10.7354 10.6133 10.6769 10.5629 10.6349C10.5126 10.593 10.449 10.5705 10.3835 10.5714H6.3721C5.69011 10.5714 5.03606 10.3005 4.55382 9.81824C4.07158 9.33601 3.80067 8.68196 3.80067 7.99997C3.80067 7.31799 4.07158 6.66393 4.55382 6.1817C5.03606 5.69946 5.69011 5.42854 6.3721 5.42854H10.4292C10.4866 5.41956 10.5397 5.39258 10.5808 5.3515C10.6219 5.31043 10.6488 5.25737 10.6578 5.19997C10.7609 4.70552 11.0074 4.25238 11.3664 3.89711C11.6034 3.65621 11.8864 3.46532 12.1985 3.33576C12.5106 3.20619 12.8456 3.14059 13.1835 3.14283C13.196 3.14889 13.2097 3.15204 13.2235 3.15204C13.2374 3.15204 13.2511 3.14889 13.2635 3.14283C13.2715 3.12893 13.2758 3.11316 13.2758 3.09711C13.2758 3.08106 13.2715 3.0653 13.2635 3.0514C12.2539 1.94431 10.933 1.16842 9.47443 0.8256C8.01584 0.482775 6.48766 0.589043 5.09055 1.13045C3.69344 1.67186 2.4927 2.6231 1.646 3.85927C0.79929 5.09544 0.346191 6.55877 0.346191 8.05711C0.346191 9.55546 0.79929 11.0188 1.646 12.255C2.4927 13.4911 3.69344 14.4424 5.09055 14.9838C6.48766 15.5252 8.01584 15.6315 9.47443 15.2886C10.933 14.9458 12.2539 14.1699 13.2635 13.0628C13.2715 13.0489 13.2758 13.0332 13.2758 13.0171C13.2758 13.0011 13.2715 12.9853 13.2635 12.9714C13.2724 12.9514 13.2739 12.9289 13.2676 12.9079C13.2613 12.8869 13.2477 12.8689 13.2292 12.8571Z" fill="#5B6577"/>
</svg>
