<svg width="1380" height="761" viewBox="0 0 1380 761" fill="none" xmlns="http://www.w3.org/2000/svg">
    <g opacity="0.5">
        <rect width="1379" height="760.174" transform="matrix(1 0 0 -1 0 760.174)" fill="white"/>
        <rect width="197" height="126.696" transform="matrix(1 0 0 -1 0 760.174)" fill="#E8EDF4"/>
        <rect opacity="0.1" width="197" height="126.696" transform="matrix(1 0 0 -1 0 633.478)" fill="#EDEFF5"/>
        <path opacity="0.2" d="M172.745 443.433C164.248 479.863 134.286 506.782 98.6234 506.782C62.9611 506.782 32.9989 479.863 24.5021 443.433C32.9989 407.006 62.9611 380.087 98.6234 380.087C134.286 380.087 164.248 407.006 172.745 443.433" stroke="#D9DDE2" stroke-width="0.861875"/>
        <rect width="197" height="126.696" transform="matrix(1 0 0 -1 0 380.087)" fill="#EDEFF5"/>
        <rect width="197" height="126.696" transform="matrix(1 0 0 -1 0 253.391)" fill="#E8EDF4"/>
        <rect width="197" height="126.696" transform="matrix(1 0 0 -1 0 126.696)" fill="#E8EDF4"/>
        <rect width="197" height="126.696" transform="matrix(1 0 0 -1 197 760.174)" fill="#EDEFF5"/>
        <rect width="197" height="126.696" transform="matrix(1 0 0 -1 197 633.478)" fill="#EDEFF5"/>
        <rect width="197" height="126.696" transform="matrix(1 0 0 -1 197 506.782)" fill="#EDEFF5"/>
        <rect width="197" height="126.696" transform="matrix(1 0 0 -1 197 380.087)" fill="#EDEFF5"/>
        <rect width="197" height="126.696" transform="matrix(1 0 0 -1 197 253.391)" fill="#EDEFF5"/>
        <rect width="197.369" height="126.696" transform="matrix(1 0 0 -1 197 126.696)" fill="#EDEFF5"/>
        <rect width="197" height="126.696" transform="matrix(1 0 0 -1 394 760.174)" fill="#EDEFF5"/>
        <rect width="197" height="126.696" transform="matrix(1 0 0 -1 394 633.478)" fill="#EDEFF5"/>
        <rect width="197" height="126.696" transform="matrix(1 0 0 -1 394 506.782)" fill="#EDEFF5"/>
        <rect width="197" height="126.696" transform="matrix(1 0 0 -1 394 380.087)" fill="#EDEFF5"/>
        <path d="M591.369 253.391C591.369 183.419 534.646 126.696 464.674 126.696H394V253.391H591.369Z" fill="#EDEFF5"/>
        <rect width="197.369" height="126.696" transform="matrix(1 0 0 -1 394 126.696)" fill="#EDEFF5"/>
        <path d="M428.967 54.2979L428.967 54.2968C436.229 23.119 461.836 0.0788231 492.315 0.0788231C522.793 0.0788231 548.401 23.119 555.662 54.2968L555.662 54.2979L428.967 54.2979Z" fill="#EDEFF5"/>
        <rect width="197.369" height="126.696" transform="matrix(1 0 0 -1 591 760.174)" fill="#EDEFF5"/>
        <rect opacity="0.2" width="197" height="126.696" transform="matrix(1 0 0 -1 591 633.478)" fill="#EDEFF5"/>
        <rect width="197" height="126.696" transform="matrix(1 0 0 -1 591 506.782)" fill="#EDEFF5"/>
        <rect width="197" height="126.696" transform="matrix(1 0 0 -1 591 380.087)" fill="#EDEFF5"/>
        <rect width="197" height="126.696" transform="matrix(1 0 0 -1 591 253.391)" fill="#EDEFF5"/>
        <path d="M591 126.696H788C788 56.7235 731.276 -6.86646e-05 661.304 -6.86646e-05H591V126.696Z" fill="#EDEFF5"/>
        <path d="M985 760.174H788C788 690.202 844.724 633.478 914.696 633.478H985V760.174Z" fill="#EDEFF5"/>
        <rect width="197" height="126.696" transform="matrix(1 0 0 -1 788 633.478)" fill="#EDEFF5"/>
        <rect width="197" height="126.696" transform="matrix(1 0 0 -1 788 506.782)" fill="#EDEFF5"/>
        <rect width="197.369" height="126.696" transform="matrix(1 0 0 -1 788 380.087)" fill="#EDEFF5"/>
        <rect width="197" height="126.696" transform="matrix(1 0 0 -1 788 253.391)" fill="#EDEFF5"/>
        <path d="M789.293 125.403H858.304C927.131 125.403 983.007 69.9553 983.701 1.29275H789.293V125.403Z" stroke="#D9DDE2" stroke-width="2.58562"/>
        <rect width="197" height="126.696" transform="matrix(1 0 0 -1 985 760.174)" fill="#EDEFF5"/>
        <rect width="197" height="126.696" transform="matrix(1 0 0 -1 985 633.478)" fill="#EDEFF5"/>
        <rect width="197" height="126.696" transform="matrix(1 0 0 -1 985 506.782)" fill="#EDEFF5"/>
        <rect width="197" height="126.696" transform="matrix(1 0 0 -1 985 380.087)" fill="#EDEFF5"/>
        <rect width="197" height="126.696" transform="matrix(1 0 0 -1 985 253.391)" fill="#EDEFF5"/>
        <rect width="197" height="126.696" transform="matrix(1 0 0 -1 985 126.696)" fill="#E8EDF4"/>
        <rect opacity="0.2" width="197" height="126.696" transform="matrix(1 0 0 -1 1182 760.174)" fill="white"/>
        <rect opacity="0.2" width="197" height="126.696" transform="matrix(1 0 0 -1 1182 633.478)" fill="#EDEFF5"/>
        <rect width="197" height="126.696" transform="matrix(1 0 0 -1 1182 506.782)" fill="#EDEFF5"/>
        <rect width="197" height="126.696" transform="matrix(1 0 0 -1 1182 380.087)" fill="#EDEFF5"/>
        <path d="M1216.97 180.994L1216.97 180.993C1224.23 149.815 1249.84 126.775 1280.32 126.775C1310.79 126.775 1336.4 149.815 1343.66 180.993L1343.66 180.994L1216.97 180.994Z" fill="#EDEFF5"/>
        <rect width="197" height="126.696" transform="matrix(1 0 0 -1 1182 126.696)" fill="#E8EDF4"/>
    </g>
</svg>
