<svg fill="none" viewBox="0 0 24 24" stroke="currentColor" aria-hidden="true">
  <g stroke-linecap="round" stroke-linejoin="round" stroke-width="2" clip-path="url(#a)">
    <path d="M5.5 19.751h-3a2 2 0 0 1-2-2v-15a2 2 0 0 1 2-2h7a2 2 0 0 1 2 2v4M.5 3.751h11M.5 16.751h5"/>
    <path d="M15.5 11.251s1.716-2.58 7.481-2.727a.51.51 0 0 1 .519.5v11a.5.5 0 0 1-.5.5c-5.783.141-7.5 2.728-7.5 2.728v-12s-1.716-2.58-7.481-2.727a.51.51 0 0 0-.519.5v11a.5.5 0 0 0 .5.5c5.783.141 7.5 2.728 7.5 2.728"/>
  </g>
  <defs>
    <clipPath id="a">
      <path fill="#fff" d="M0 0h24v24H0z"/>
    </clipPath>
  </defs>
</svg>
