<svg xmlns="http://www.w3.org/2000/svg" fill="none" viewBox="0 0 24 24" stroke="currentColor" aria-hidden="true">
  <g stroke-linecap="round" stroke-linejoin="round" stroke-width="1.5" clip-path="url(#a)">
    <path d="M10.5 23.5V20a1.5 1.5 0 1 1 3 0v3.5M8.5 16.5h-3v-3a1.5 1.5 0 0 1 3 0v3ZM8.5 10h-3V7a1.5 1.5 0 0 1 3 0v3ZM13.5 16.5h-3v-3a1.5 1.5 0 1 1 3 0v3ZM13.5 10h-3V7a1.5 1.5 0 1 1 3 0v3ZM18.5 16.5h-3v-3a1.5 1.5 0 1 1 3 0v3ZM18.5 10h-3V7a1.5 1.5 0 1 1 3 0v3Z"/>
    <path d="M20.5 3.8a1 1 0 0 0-.168-.555L18.8.945A1 1 0 0 0 17.965.5H6.035A1 1 0 0 0 5.2.945l-1.535 2.3A1 1 0 0 0 3.5 3.8v18.7a1 1 0 0 0 1 1h15a1 1 0 0 0 1-1V3.8ZM3.547 3.5h16.906"/>
  </g>
  <defs>
    <clipPath id="a">
      <path fill="#fff" d="M0 0h24v24H0z"/>
    </clipPath>
  </defs>
</svg>
