<svg fill="none" viewBox="0 0 24 24" stroke="currentColor" aria-hidden="true">
  <g stroke-linecap="round" stroke-linejoin="round" stroke-width="2" clip-path="url(#a)">
    <path d="M6.5 12.434a.5.5 0 0 0-.777-.416l-5 3.334a.5.5 0 0 0-.223.416V23a.5.5 0 0 0 .5.5h5a.5.5 0 0 0 .5-.5V12.434ZM16.5 7.707a.5.5 0 0 0-.146-.353L12.5 3.5 8.646 7.354a.5.5 0 0 0-.146.353V23a.5.5 0 0 0 .5.5h7a.5.5 0 0 0 .5-.5V7.707ZM12.5 3.5v-3M18.5 13.5l2.146-2.146a.5.5 0 0 1 .708 0L23.5 13.5V23a.5.5 0 0 1-.5.5h-4a.5.5 0 0 1-.5-.5v-9.5ZM18.5 13.5h5M18.5 15.5h5M18.5 17.5h5M18.5 19.5h5M18.5 21.5h5M2.5 23.5V17M4.5 23.5V17"/>
    <path d="m16.443 7.476-7.819.001L16.5 11.5l-8 4 8 4-7.8 3.9"/>
  </g>
  <defs>
    <clipPath id="a">
      <path fill="#fff" d="M0 0h24v24H0z"/>
    </clipPath>
  </defs>
</svg>
