<svg fill="none" viewBox="0 0 24 24" stroke="currentColor" aria-hidden="true">
  <g stroke-linecap="round" stroke-linejoin="round" stroke-width="2" clip-path="url(#a)">
    <path d="M2.259 3.75a3 3 0 1 0 6 0 3 3 0 0 0-6 0v0ZM5.259 8.25v6M7.509 23.25l.75-7.5h1.5v-3a4.5 4.5 0 1 0-9 0v3h1.5l.75 7.5h4.5ZM12.009 10.5a2.25 2.25 0 1 0 4.5 0 2.25 2.25 0 0 0-4.5 0v0ZM13.057 14.447A3.753 3.753 0 0 1 18.009 18v.75h-1.5l-.75 4.5h-3l-.376-2.256M22.69 1.34a1.9 1.9 0 0 0-2.752 0l-1.179 1.218-1.178-1.219a1.9 1.9 0 0 0-2.752 0 2.06 2.06 0 0 0 0 2.845l3.512 3.631a.578.578 0 0 0 .837 0l3.512-3.63a2.062 2.062 0 0 0 0-2.846v0Z"/>
  </g>
  <defs>
    <clipPath id="a">
      <path fill="#fff" d="M0 0h24v24H0z"/>
    </clipPath>
  </defs>
</svg>
