<svg fill="none" viewBox="0 0 24 24" stroke="currentColor" aria-hidden="true">
  <path stroke-linecap="round" stroke-linejoin="round" stroke-width="2" d="M16.5 5.25a3 3 0 1 0 6 0 3 3 0 0 0-6 0v0ZM17.812 20.25l.188 1.5h3l.75-6h1.5V13.5a3.75 3.75 0 0 0-6-3M1.5 5.25a3 3 0 1 0 6 0 3 3 0 0 0-6 0v0ZM6.188 20.25 6 21.75H3l-.75-6H.75V13.5a3.75 3.75 0 0 1 6-3M9.75 9a2.25 2.25 0 1 0 4.5 0 2.25 2.25 0 0 0-4.5 0v0ZM12 12.75a3.75 3.75 0 0 0-3.75 3.75v.75h1.5l.75 4.5H12M12 12.75a3.75 3.75 0 0 1 3.75 3.75v.75h-1.5l-.75 4.5H12"/>
</svg>
