<svg fill="none" viewBox="0 0 24 24" stroke="currentColor" aria-hidden="true">
  <g stroke-linecap="round" stroke-linejoin="round" stroke-width="2" clip-path="url(#a)">
    <path d="M8.25 23.25h-6a1.5 1.5 0 0 1-1.5-1.5V2.25a1.5 1.5 0 0 1 1.5-1.5h10.629a1.5 1.5 0 0 1 1.06.439l5.872 5.872a1.5 1.5 0 0 1 .439 1.06v4.629"/>
    <path d="M20.25 8.25h-6a1.5 1.5 0 0 1-1.5-1.5v-6M11.25 23.25v-6a1.5 1.5 0 1 1 3 0v6M11.25 20.25h3M17.25 15.75v2.55c0 1.763.522 3.487 1.5 4.954a8.932 8.932 0 0 0 1.5-4.954v-2.55M23.25 23.25v-7.5"/>
  </g>
  <defs>
    <clipPath id="a">
      <path fill="#fff" d="M0 0h24v24H0z"/>
    </clipPath>
  </defs>
</svg>
