<svg fill="none" viewBox="0 0 24 24" stroke="currentColor" aria-hidden="true">
  <path stroke-linecap="round" stroke-linejoin="round" stroke-width="2" d="M5.247 23.248h-3a1.5 1.5 0 0 1-1.5-1.5v-19.5a1.5 1.5 0 0 1 1.5-1.5h10.629a1.5 1.5 0 0 1 1.061.439l5.871 5.872a1.5 1.5 0 0 1 .439 1.06v4.629"/>
  <path stroke-linecap="round" stroke-linejoin="round" stroke-width="2" d="M20.247 8.248h-6a1.5 1.5 0 0 1-1.5-1.5v-6M8.247 23.248a3 3 0 0 0 3-3v-1.5a3 3 0 0 0-3-3v7.5ZM15.747 15.748a1.5 1.5 0 0 0-1.5 1.5v4.5a1.5 1.5 0 1 0 3 0v-4.5a1.5 1.5 0 0 0-1.5-1.5v0ZM23.247 15.748a3 3 0 0 0-3 3v1.5a3 3 0 0 0 3 3"/>
</svg>
