<svg fill="none" viewBox="0 0 24 24" stroke="currentColor" aria-hidden="true">
  <path stroke-linecap="round" stroke-linejoin="round" stroke-width="2" d="M5.25 23.25h-3a1.5 1.5 0 0 1-1.5-1.5V2.25a1.5 1.5 0 0 1 1.5-1.5h10.629a1.5 1.5 0 0 1 1.06.439l5.872 5.872a1.5 1.5 0 0 1 .439 1.06v4.629"/>
  <path stroke-linecap="round" stroke-linejoin="round" stroke-width="2" d="M20.25 8.25h-6a1.5 1.5 0 0 1-1.5-1.5v-6M8.25 23.25v-7.5M8.25 15.75H9a2.25 2.25 0 0 1 0 4.5h-.75M14.25 23.25v-7.5l3 7.5v-7.5M22.5 20.25h.75v1.5a1.5 1.5 0 1 1-3 0v-4.5a1.5 1.5 0 0 1 1.5-1.5h1.5"/>
</svg>
