<svg fill="none" viewBox="0 0 24 24" stroke="currentColor" aria-hidden="true">
  <path stroke-linecap="round" stroke-linejoin="round" stroke-width="2" d="M3.751 23.254h-1.5a1.5 1.5 0 0 1-1.5-1.5v-19.5a1.5 1.5 0 0 1 1.5-1.5H12.88a1.5 1.5 0 0 1 1.061.439l5.871 5.87a1.5 1.5 0 0 1 .439 1.062v4.629"/>
  <path stroke-linecap="round" stroke-linejoin="round" stroke-width="2" d="M20.251 8.254h-6a1.5 1.5 0 0 1-1.5-1.5v-6M6.751 15.754l3 7.5M9.751 15.754l-3 7.5M20.251 15.754v6a1.5 1.5 0 0 0 1.5 1.5h1.5M17.251 23.254v-7.5l-2.25 3.75-2.25-3.75v7.5"/>
</svg>
