<svg xmlns="http://www.w3.org/2000/svg" fill="none" viewBox="0 0 24 24" stroke="currentColor" aria-hidden="true">
  <g stroke-linecap="round" stroke-linejoin="round" stroke-width="1.5" clip-path="url(#a)">
    <path d="M8.248 23.248v-7.5M8.248 15.748h1.125a1.875 1.875 0 0 1 0 3.75H8.248M11.248 23.248l-2.25-3.75M20.248 23.248v-7.5M20.248 15.748h1.125a1.875 1.875 0 0 1 0 3.75h-1.125M23.248 23.248l-2.25-3.75M14.248 23.248v-6a1.5 1.5 0 1 1 3 0v6M14.248 20.248h3"/>
    <path d="M5.248 23.248h-3a1.5 1.5 0 0 1-1.5-1.5v-19.5a1.5 1.5 0 0 1 1.5-1.5h10.629a1.5 1.5 0 0 1 1.06.439l5.872 5.872a1.5 1.5 0 0 1 .439 1.06v4.629"/>
    <path d="M20.248 8.248h-6a1.5 1.5 0 0 1-1.5-1.5v-6"/>
  </g>
  <defs>
    <clipPath id="a">
      <path fill="#fff" d="M0 0h24v24H0z"/>
    </clipPath>
  </defs>
</svg>
