<svg fill="none" viewBox="0 0 24 24" stroke="currentColor" aria-hidden="true">
  <path stroke-linecap="round" stroke-linejoin="round" stroke-width="2" d="M8.25 23.25v-7.5M8.25 15.75H9a2.25 2.25 0 0 1 0 4.5h-.75M17.25 15.75h-1.5a1.5 1.5 0 0 0-1.5 1.5c0 2.25 3 2.25 3 4.5a1.5 1.5 0 0 1-1.5 1.5h-1.5M20.25 23.25a3 3 0 0 0 3-3v-1.5a3 3 0 0 0-3-3v7.5Z"/>
  <path stroke-linecap="round" stroke-linejoin="round" stroke-width="2" d="M5.25 23.25h-3a1.5 1.5 0 0 1-1.5-1.5V2.25a1.5 1.5 0 0 1 1.5-1.5h10.629a1.5 1.5 0 0 1 1.06.439l5.872 5.872a1.5 1.5 0 0 1 .439 1.06v4.629"/>
  <path stroke-linecap="round" stroke-linejoin="round" stroke-width="2" d="M20.25 8.25h-6a1.5 1.5 0 0 1-1.5-1.5v-6"/>
</svg>
