<svg fill="none" viewBox="0 0 24 24" stroke="currentColor" aria-hidden="true">
  <g stroke-linecap="round" stroke-linejoin="round" stroke-width="2" clip-path="url(#a)">
    <path d="M3.75 23.25h-1.5a1.5 1.5 0 0 1-1.5-1.5V2.25a1.5 1.5 0 0 1 1.5-1.5h10.629a1.5 1.5 0 0 1 1.06.439l5.872 5.872a1.5 1.5 0 0 1 .439 1.06v4.629"/>
    <path d="M20.25 8.25h-6a1.5 1.5 0 0 1-1.5-1.5v-6M11.25 23.25v-7.5L9 19.5l-2.25-3.75v7.5M15.75 15.75a1.5 1.5 0 0 0-1.5 1.5v4.5a1.5 1.5 0 1 0 3 0v-4.5a1.5 1.5 0 0 0-1.5-1.5ZM20.25 15.75v2.55c0 1.763.522 3.487 1.5 4.954a8.932 8.932 0 0 0 1.5-4.954v-2.55"/>
  </g>
  <defs>
    <clipPath id="a">
      <path fill="#fff" d="M0 0h24v24H0z"/>
    </clipPath>
  </defs>
</svg>
