<svg xmlns="http://www.w3.org/2000/svg" fill="none" viewBox="0 0 24 24" stroke="currentColor" aria-hidden="true">
  <g stroke-linecap="round" stroke-linejoin="round" stroke-width="1.5" clip-path="url(#a)">
    <path d="m13.964 19.367 3.822-3.821a1.423 1.423 0 1 1 2.014 2.011L15.358 22a2.844 2.844 0 1 1-4.023-4.023L16.2 13.1a4.267 4.267 0 1 1 6.035 6.035l-4.248 4.255"/>
    <path d="M8.51 23.5h-7a1 1 0 0 1-1-1v-21a1 1 0 0 1 1-1H14.8a1 1 0 0 1 .707.293l3.71 3.707a1 1 0 0 1 .293.707V9"/>
    <path d="M9.01 17h-4a1 1 0 0 1-1-1v-6a1 1 0 0 1 1-1h2l.723-1.447A1 1 0 0 1 8.627 7h2.764a1 1 0 0 1 .895.553L13.01 9h2a1 1 0 0 1 1 1v.5"/>
    <path d="M10.01 14.5a2 2 0 1 0 0-4 2 2 0 0 0 0 4Z"/>
  </g>
  <defs>
    <clipPath id="a">
      <path fill="#fff" d="M0 0h24v24H0z"/>
    </clipPath>
  </defs>
</svg>
