<svg xmlns="http://www.w3.org/2000/svg" fill="none" viewBox="0 0 24 24" stroke="currentColor" aria-hidden="true">
  <g stroke-linecap="round" stroke-linejoin="round" stroke-width="1.5" clip-path="url(#a)">
    <path d="M8.24 18.5H3.506a3 3 0 0 1-3-3v-12a3 3 0 0 1 3-3h12a3 3 0 0 1 3 3v5.75M13.968 19.477l3.822-3.822a1.422 1.422 0 0 1 2.01 2.012l-4.44 4.439a2.845 2.845 0 0 1-4.023-4.023l4.871-4.87a4.267 4.267 0 0 1 6.034 6.034L17.991 23.5"/>
    <path d="M11.511 15.5h-7a5 5 0 0 1 9.33-2.5M13.148 9.144a3.94 3.94 0 0 1-.573-2.181V6.07a3.07 3.07 0 0 0-6.138 0v.892a3.939 3.939 0 0 1-.573 2.181"/>
    <path d="M6.437 6.578A4.066 4.066 0 0 0 9.506 5.17a4.065 4.065 0 0 0 3.069 1.407"/>
    <path d="M12.211 6.561a2.708 2.708 0 0 1-5.41 0"/>
  </g>
  <defs>
    <clipPath id="a">
      <path fill="#fff" d="M0 0h24v24H0z"/>
    </clipPath>
  </defs>
</svg>
