<svg fill="none" viewBox="0 0 24 24" stroke="currentColor" aria-hidden="true">
  <g stroke-linecap="round" stroke-linejoin="round" stroke-width="2" clip-path="url(#a)">
    <path d="M8.24 18.5H3.506a3 3 0 0 1-3-3v-12a3 3 0 0 1 3-3h12a3 3 0 0 1 3 3v5.75M13.968 19.477l3.822-3.822a1.422 1.422 0 0 1 2.01 2.012l-4.44 4.439a2.845 2.845 0 0 1-4.023-4.023l4.871-4.87a4.267 4.267 0 0 1 6.034 6.034L17.991 23.5"/>
    <path d="M13.534 12.537A5 5 0 0 0 4.506 15.5h6.025M6.921 4.477a4.977 4.977 0 0 0 5.558 1.117"/>
    <path d="M9.506 9a3 3 0 1 0 0-6 3 3 0 0 0 0 6Z"/>
  </g>
  <defs>
    <clipPath id="a">
      <path fill="#fff" d="M0 0h24v24H0z"/>
    </clipPath>
  </defs>
</svg>
