<svg fill="none" viewBox="0 0 24 24" stroke="currentColor" aria-hidden="true">
  <g stroke-linecap="round" stroke-linejoin="round" stroke-width="2" clip-path="url(#a)">
    <path d="m1.5 9.744 10.5-9 10.5 9"/>
    <path d="M12 5.244 3.377 12.61c-.224.208-.36.495-.377.8v8.855a.981.981 0 0 0 .978.978H9.75v-7.01a.49.49 0 0 1 .489-.49h3.522a.49.49 0 0 1 .489.49v7.01h5.772a.98.98 0 0 0 .978-.977V13.41a1.186 1.186 0 0 0-.377-.8L12 5.244Z"/>
  </g>
  <defs>
    <clipPath id="a">
      <path fill="#fff" d="M0 0h24v24H0z"/>
    </clipPath>
  </defs>
</svg>
