<svg fill="none" viewBox="0 0 24 24" stroke="currentColor" aria-hidden="true">
  <path stroke-linecap="round" stroke-linejoin="round" stroke-width="2" d="M22.5 7.5V18L12 22.5 1.5 18V7.5L12 12l10.5-4.5ZM12 22.5V12M7.5 4.929 1.5 7.5M16.5 4.929l6 2.571M7.5 3c0 .398.474.78 1.318 1.06.844.282 1.989.44 3.182.44 1.194 0 2.338-.158 3.182-.44.844-.28 1.318-.662 1.318-1.06s-.474-.78-1.318-1.06c-.844-.282-1.989-.44-3.182-.44-1.194 0-2.338.158-3.182.44C7.974 2.22 7.5 2.601 7.5 3v0Z"/>
  <path stroke-linecap="round" stroke-linejoin="round" stroke-width="2" d="M7.5 3v3c0 .828 2.015 1.5 4.5 1.5s4.5-.672 4.5-1.5V3"/>
</svg>
