<svg fill="none" viewBox="0 0 24 24" stroke="currentColor" aria-hidden="true">
  <g stroke-linecap="round" stroke-linejoin="round" stroke-width="2" clip-path="url(#a)">
    <path d="m7.899 19.111 4.063 4.374 4.081-4.393M11.829 4.455c.113.02.229.02.342 0l9.913-1.724a.25.25 0 0 0 0-.492L12.171.515a.982.982 0 0 0-.342 0L1.916 2.239a.25.25 0 0 0 0 .492l9.913 1.724ZM2 8.485a10.93 10.93 0 0 0-1.482 4.5.47.47 0 0 0 .468.5h2a.501.501 0 0 0 .5-.538A10.95 10.95 0 0 0 2 8.485v0ZM2 2.746v5.74M6 10.485V3.442M18 3.442v7.043M6 7.485a18.977 18.977 0 0 0 12 0M10.48 14.885a2.175 2.175 0 0 0 3 0M11 10.985a1.089 1.089 0 0 0-1-.5 1.09 1.09 0 0 0-1 .5M15 10.985a1.089 1.089 0 0 0-1-.5 1.09 1.09 0 0 0-1 .5"/>
    <path d="M5.98 10.485c-.874.437-.6 2.4.479 2.89a1 1 0 0 1 .574.745c.443 2.644 3.555 4.365 4.947 4.365s4.5-1.72 4.947-4.365a1 1 0 0 1 .574-.746c1.081-.49 1.352-2.452.479-2.889M16.043 19.092 21 20.737l.018.006a4.007 4.007 0 0 1 2.482 2.742M7.9 19.111 3 20.737l-.018.006A4.007 4.007 0 0 0 .5 23.485"/>
  </g>
  <defs>
    <clipPath id="a">
      <path fill="#fff" d="M0 0h24v24H0z"/>
    </clipPath>
  </defs>
</svg>
