<svg fill="none" viewBox="0 0 24 24" stroke="currentColor" aria-hidden="true">
  <path stroke-linecap="round" stroke-linejoin="round" stroke-width="2" d="M14.25 14.25v6.268a2.73 2.73 0 0 1-2.733 2.732H4.983a2.731 2.731 0 0 1-2.733-2.732V4.983A2.732 2.732 0 0 1 4.983 2.25H9M2.25 18.75h12"/>
  <path stroke-linecap="round" stroke-linejoin="round" stroke-width="2" d="M11.25 3.948v5.8a1.5 1.5 0 0 0 1.5 1.5h6a1.5 1.5 0 0 0 1.5-1.5v-5.8"/>
  <path stroke-linecap="round" stroke-linejoin="round" stroke-width="2" d="m9.75 5.26 4.518-3.953a2.249 2.249 0 0 1 2.964 0L21.75 5.26M17.25 11.25h-3v-3a1.5 1.5 0 1 1 3 0v3Z"/>
</svg>
