<svg fill="none" viewBox="0 0 24 25" stroke="currentColor" aria-hidden="true">
  <path stroke-linecap="round" stroke-linejoin="round" stroke-width="2" d="M4.5 8.75v-3a1.5 1.5 0 0 1 3 0v3M4.5 7.25h3M16.5 11v1.5M13.5 12.5h6M18 12.5S16.5 17 13.5 17"/>
  <path stroke-linecap="round" stroke-linejoin="round" stroke-width="2" d="M16.5 15.267a3.932 3.932 0 0 0 3 1.733"/>
  <path stroke-linecap="round" stroke-linejoin="round" stroke-width="2" d="M11.25 19.25a1.5 1.5 0 0 1-1.5-1.5v-7.5a1.5 1.5 0 0 1 1.5-1.5h10.5a1.5 1.5 0 0 1 1.5 1.5v7.5a1.5 1.5 0 0 1-1.5 1.5h-1.5v4.5l-4.5-4.5h-4.5Z"/>
  <path stroke-linecap="round" stroke-linejoin="round" stroke-width="2" d="m6.75 13.25-3 3v-4.5h-1.5a1.5 1.5 0 0 1-1.5-1.5v-7.5a1.5 1.5 0 0 1 1.5-1.5h10.5a1.5 1.5 0 0 1 1.5 1.5v3"/>
</svg>
