<svg xmlns="http://www.w3.org/2000/svg" fill="none" viewBox="0 0 25 25" stroke="currentColor" aria-hidden="true">
  <g stroke-linecap="round" stroke-linejoin="round" stroke-width="1.5" clip-path="url(#a)">
    <path d="m24.009 9.5-11.25-8.25L1.509 9.5M3.759 13.25a3 3 0 1 0 6 0 3 3 0 0 0-6 0ZM8.259 18.006a4.5 4.5 0 0 0-6 4.244M23.259 22.25a4.5 4.5 0 0 0-6-4.244M15.759 13.25a3 3 0 1 0 6 0 3 3 0 0 0-6 0ZM10.509 18.5a2.25 2.25 0 1 0 4.5 0 2.25 2.25 0 0 0-4.5 0Z"/>
    <path d="M16.656 23.75a4.5 4.5 0 0 0-7.793 0"/>
  </g>
  <defs>
    <clipPath id="a">
      <path fill="#fff" d="M0 0h24v24H0z" transform="translate(.75 .5)"/>
    </clipPath>
  </defs>
</svg>
