<svg xmlns="http://www.w3.org/2000/svg" fill="none" viewBox="0 0 25 25" stroke="currentColor" aria-hidden="true">
  <g stroke-linecap="round" stroke-linejoin="round" stroke-width="1.5" clip-path="url(#a)">
    <path d="M5.75 2.749h-3a1.5 1.5 0 0 0-1.5 1.5v18a1.5 1.5 0 0 0 1.5 1.5h19.5a1.5 1.5 0 0 0 1.5-1.5v-18a1.5 1.5 0 0 0-1.5-1.5h-10.5"/>
    <path d="m11.75 11.749-3-2.249-3 2.25V2a.75.75 0 0 1 .75-.751H11a.75.75 0 0 1 .75.75v9.75ZM5.75 19.249h10.5M5.75 14.749h13.5M19.25 10.249h-4.5"/>
  </g>
  <defs>
    <clipPath id="a">
      <path fill="#fff" d="M0 0h24v24H0z" transform="translate(.5 .5)"/>
    </clipPath>
  </defs>
</svg>
