<svg fill="none" viewBox="0 0 25 25" stroke="currentColor" aria-hidden="true">
  <path stroke-linecap="round" stroke-linejoin="round" stroke-width="2" d="M4.538 5.75a1.5 1.5 0 1 0 3 0 1.5 1.5 0 0 0-3 0ZM4.538 11.75a1.5 1.5 0 1 0 3 0 1.5 1.5 0 0 0-3 0v0ZM4.538 17.75a1.5 1.5 0 1 0 3 0 1.5 1.5 0 0 0-3 0v0Z"/>
  <path stroke-linecap="round" stroke-linejoin="round" stroke-width="2" d="M9.95 19.837a3.913 3.913 0 1 1-7.826 0V3.207A1.957 1.957 0 0 1 4.081 1.25h3.913A1.957 1.957 0 0 1 9.95 3.207v16.63Z"/>
  <path stroke-linecap="round" stroke-linejoin="round" stroke-width="2" d="M9.393 21.852 17.742 7.39a1.957 1.957 0 0 0-.716-2.673l-3.389-1.956A1.95 1.95 0 0 0 12.62 2.5"/>
  <path stroke-linecap="round" stroke-linejoin="round" stroke-width="2" d="m8.043 23.2 14.354-8.29a1.957 1.957 0 0 0 .716-2.672L21.156 8.85a1.943 1.943 0 0 0-.5-.57"/>
</svg>
