<svg fill="none" viewBox="0 0 23 23" stroke="currentColor" aria-hidden="true">
  <path stroke-linecap="round" stroke-linejoin="round" stroke-width="1.3" d="M12.34 1a9.901 9.901 0 0 0-8.672 5.095 9.924 9.924 0 0 0 .245 10.062L1 22.281l6.118-2.917a9.918 9.918 0 0 0 14.784-5.714 9.94 9.94 0 0 0-1.63-8.71A9.925 9.925 0 0 0 12.34 1Z"/>
  <path stroke-width="1.3" d="M12.35 11.286a.355.355 0 1 1 0-.71M12.35 11.286a.355.355 0 1 0 0-.71M8.094 11.286a.355.355 0 0 1 0-.71M8.094 11.286a.355.355 0 0 0 0-.71M16.606 11.286a.355.355 0 0 1 0-.71M16.606 11.286a.355.355 0 1 0 0-.71"/>
</svg>
