<svg fill="none" viewBox="0 0 24 25" stroke="currentColor" aria-hidden="true">
  <path stroke-linecap="round" stroke-linejoin="round" stroke-width="2" d="M20.25 1.246H.75v19.5h19.5v-19.5Z"/>
  <path stroke-linecap="round" stroke-linejoin="round" stroke-width="2" d="M3.75 23.746h18a1.5 1.5 0 0 0 1.5-1.5v-18"/>
  <path stroke-linecap="round" stroke-linejoin="round" stroke-width="2" d="M5.25 8.746v6a1.5 1.5 0 0 0 1.5 1.5h7.5a1.5 1.5 0 0 0 1.5-1.5v-6"/>
  <path stroke-linecap="round" stroke-linejoin="round" stroke-width="2" d="M5.25 8.746a1.5 1.5 0 0 1 1.5-1.5h7.5a1.5 1.5 0 0 1 1.5 1.5l-4.455 2.773a1.5 1.5 0 0 1-1.59 0L5.25 8.746Z"/>
</svg>
