<svg fill="none" viewBox="0 0 25 25" stroke="currentColor" aria-hidden="true">
  <path stroke-linecap="round" stroke-linejoin="round" stroke-width="2" d="M18.75 3.373a9.539 9.539 0 0 0-12 0M9.25 6.988a5.566 5.566 0 0 1 7 0M1.5 14.375a2.625 2.625 0 1 0 5.25 0 2.625 2.625 0 0 0-5.25 0v0ZM8.264 20.483A4.5 4.5 0 0 0 1.5 18.6M18.75 14.375a2.625 2.625 0 1 0 5.25 0 2.625 2.625 0 0 0-5.25 0v0ZM17.236 20.483A4.5 4.5 0 0 1 24 18.6M9.375 13.625a3.375 3.375 0 1 0 6.75 0 3.375 3.375 0 0 0-6.75 0v0Z"/>
  <path stroke-linecap="round" stroke-linejoin="round" stroke-width="2" d="M18.75 23.75a6.055 6.055 0 0 0-12 0"/>
</svg>
