<svg xmlns="http://www.w3.org/2000/svg" fill="none" viewBox="0 0 24 24" stroke="currentColor" aria-hidden="true">
  <g clip-path="url(#a)">
    <path stroke-linecap="round" stroke-linejoin="round" stroke-width="1.5" d="m12.729 1.2 3.346 6.629 6.44.638a.805.805 0 0 1 .5 1.374l-5.3 5.253 1.965 7.138a.813.813 0 0 1-1.151.935L12 19.934l-6.52 3.229a.813.813 0 0 1-1.151-.935l1.965-7.138L.99 9.837a.805.805 0 0 1 .5-1.374l6.44-.638L11.271 1.2a.819.819 0 0 1 1.458 0v0Z"/>
  </g>
  <defs>
    <clipPath id="a">
      <path fill="#fff" d="M0 0h24v24H0z"/>
    </clipPath>
  </defs>
</svg>
