<svg fill="none" viewBox="0 0 24 24" stroke="currentColor" aria-hidden="true">
  <g stroke-linecap="round" stroke-linejoin="round" stroke-width="2" clip-path="url(#a)">
    <path d="M14.75 16.5h7a1.5 1.5 0 0 0 1.5-1.5V2.25a1.5 1.5 0 0 0-1.5-1.5h-10.5M8.75 23.25l.75-4.5h3L10.25 12C9.5 9.75 8.571 8.25 6.5 8.25c-2.071 0-3 1.5-3.75 3.75L.5 18.75h3l.75 4.5h4.5ZM3.5 3.75a3 3 0 1 0 6 0 3 3 0 0 0-6 0v0Z"/>
  </g>
  <defs>
    <clipPath id="a">
      <path fill="#fff" d="M0 0h24v24H0z"/>
    </clipPath>
  </defs>
</svg>
