<svg xmlns="http://www.w3.org/2000/svg" fill="none" viewBox="0 0 24 24" stroke="currentColor" aria-hidden="true">
  <g stroke-linecap="round" stroke-linejoin="round" stroke-width="1.5" clip-path="url(#a)">
    <path d="m16.343 14.7-6.631 2.637 6.667 2.353a1 1 0 0 0 .666 0l6.038-2.131a.25.25 0 0 0 .009-.468L17.081 14.7a1 1 0 0 0-.738 0ZM9.712 17.337V21"/>
    <path d="M12.712 18.4v3.15a.749.749 0 0 0 .472.7l3.25 1.2a.745.745 0 0 0 .557 0l3.25-1.2a.75.75 0 0 0 .471-.7V18.4M3.462 4.75a4.25 4.25 0 1 0 8.5 0 4.25 4.25 0 0 0-8.5 0v0ZM.712 17.5A7 7 0 0 1 13.074 13"/>
  </g>
  <defs>
    <clipPath id="a">
      <path fill="#fff" d="M0 0h24v24H0z"/>
    </clipPath>
  </defs>
</svg>
