<svg xmlns="http://www.w3.org/2000/svg" fill="none" viewBox="0 0 24 24" stroke="currentColor" aria-hidden="true">
  <g stroke-linecap="round" stroke-linejoin="round" stroke-width="1.5" clip-path="url(#a)">
    <path d="m15 8.574 1 4a8.5 8.5 0 0 1-8 0l1-4M19 8.574H5M6 8.574v3"/>
    <path d="M12 .574a11.38 11.38 0 0 1 6.112 1.77c4.75 3.011 5.1 9.23 1.315 13.777-2.16 2.594-4.537 5-7.106 7.189a.5.5 0 0 1-.642 0 59.296 59.296 0 0 1-7.106-7.188C.789 11.574 1.138 5.355 5.888 2.344A11.38 11.38 0 0 1 12 .574v0Z"/>
  </g>
  <defs>
    <clipPath id="a">
      <path fill="#fff" d="M0 0h24v24H0z"/>
    </clipPath>
  </defs>
</svg>
