<svg xmlns="http://www.w3.org/2000/svg" fill="none" viewBox="0 0 24 24" stroke="currentColor" aria-hidden="true">
  <g stroke-linecap="round" stroke-linejoin="round" stroke-width="1.5" clip-path="url(#a)">
    <path d="m2.783 21 18.75-18M8.964 19.05A9.985 9.985 0 0 0 12 19.5c4.1.069 8.258-2.813 10.824-5.637a1.663 1.663 0 0 0 0-2.226A20.571 20.571 0 0 0 19.75 8.88M14.413 6.282A9.549 9.549 0 0 0 12 6c-4.031-.067-8.2 2.752-10.821 5.635a1.663 1.663 0 0 0 0 2.226 20.808 20.808 0 0 0 2.6 2.4"/>
    <path d="M8.25 12.75A3.749 3.749 0 0 1 12 9M15.75 12.749A3.75 3.75 0 0 1 12 16.5"/>
  </g>
  <defs>
    <clipPath id="a">
      <path fill="#fff" d="M0 0h24v24H0z"/>
    </clipPath>
  </defs>
</svg>
