<svg xmlns="http://www.w3.org/2000/svg" width="12" height="12" viewBox="0 0 12 12" fill="none">
  <g clip-path="url(#clip0_118_152)">
    <path fill-rule="evenodd" clip-rule="evenodd"
          d="M5.89646 0.00540027C5.58984 0.0260691 5.29922 0.141149 5.04952 0.340781C4.9928 0.386136 4.89472 0.483072 4.84686 0.54109C4.68771 0.734016 4.57658 0.966187 4.52896 1.20521C4.4996 1.35264 4.50079 1.31885 4.49872 2.06201C4.49671 2.78622 4.49735 2.81213 4.51927 2.88776C4.5728 3.07248 4.72543 3.21002 4.91321 3.24277C4.97499 3.25354 7.02382 3.25373 7.08526 3.24297C7.19013 3.2246 7.28682 3.17316 7.35937 3.09714C7.44103 3.01157 7.4854 2.9147 7.4977 2.79519C7.5014 2.75914 7.50241 2.53994 7.50103 2.06681C7.49892 1.33824 7.49943 1.35414 7.47329 1.21961C7.32847 0.474514 6.65303 -0.0455997 5.89646 0.00540027ZM5.95909 1.00387C5.8567 1.01441 5.75623 1.07369 5.69477 1.15981C5.56039 1.34813 5.63169 1.61211 5.84389 1.71194C5.89838 1.73757 5.94335 1.74761 6.00367 1.74761C6.06452 1.74761 6.11299 1.73563 6.17269 1.70582C6.25274 1.66586 6.32224 1.5861 6.35252 1.49944C6.39265 1.38457 6.37492 1.25777 6.30501 1.15981C6.22662 1.04996 6.09366 0.990024 5.95909 1.00387ZM2.19829 1.50129C1.95144 1.51316 1.71481 1.6195 1.53829 1.79789C1.37027 1.9677 1.27044 2.18828 1.25259 2.42921C1.24895 2.4783 1.24787 3.76536 1.24892 6.79721C1.25034 10.8999 1.2508 11.0979 1.25899 11.146C1.27754 11.2549 1.30998 11.3566 1.3546 11.4457C1.50875 11.7535 1.80335 11.9577 2.14789 11.9956C2.2074 12.0021 9.79238 12.0021 9.85189 11.9956C10.0915 11.9692 10.3079 11.8632 10.4717 11.6919C10.6167 11.5403 10.7076 11.3542 10.7409 11.1412C10.7491 11.0884 10.7495 10.8981 10.7495 6.74921C10.7495 2.59913 10.7491 2.4101 10.7409 2.35883C10.7179 2.21643 10.6743 2.09545 10.6045 1.9808C10.4602 1.74384 10.2201 1.5748 9.95029 1.52024C9.85161 1.50028 9.85723 1.50041 9.08629 1.50041C8.40686 1.50041 8.34323 1.50108 8.32722 1.50835C8.30019 1.52062 8.27248 1.54849 8.26119 1.57473C8.25095 1.59853 8.25093 1.59911 8.25221 2.00843L8.25349 2.4183L8.26974 2.44211C8.28749 2.46812 8.30807 2.4843 8.33614 2.49432C8.35098 2.49961 8.46112 2.50084 8.93989 2.50107C9.58292 2.50138 9.55517 2.50017 9.61538 2.53056C9.67574 2.56103 9.72983 2.63237 9.74373 2.69984C9.74727 2.71697 9.74842 3.70511 9.74754 5.96201L9.74629 9.19961L9.73535 9.22841C9.72934 9.24425 9.7167 9.26909 9.70727 9.28361C9.69658 9.30007 9.38066 9.61945 8.86861 10.1315L8.04709 10.9529L8.00629 10.9728C7.97318 10.989 7.95735 10.9936 7.92229 10.9974C7.89424 11.0005 6.92925 11.0017 5.16949 11.0009C2.55017 10.9997 2.45901 10.9993 2.43349 10.9908C2.34017 10.9594 2.27455 10.8893 2.25636 10.8014C2.25256 10.783 2.25109 9.65191 2.25109 6.74759C2.25109 3.19543 2.25194 2.71598 2.25824 2.69179C2.28197 2.60068 2.35395 2.52973 2.44424 2.50844C2.46984 2.5024 2.56107 2.50131 3.05989 2.50107C3.53866 2.50084 3.6488 2.49961 3.66364 2.49432C3.69171 2.4843 3.71229 2.46812 3.73004 2.44211L3.74629 2.4183L3.7476 2.00849C3.7489 1.59888 3.7489 1.59867 3.73862 1.57478C3.72731 1.54849 3.69961 1.52063 3.67256 1.50835C3.65657 1.50109 3.59452 1.50038 2.94229 1.5001C2.55025 1.49993 2.21545 1.50046 2.19829 1.50129ZM3.71749 4.50114C3.55298 4.52093 3.42841 4.6262 3.38573 4.78149C3.3725 4.82965 3.37352 4.92593 3.38779 4.9754C3.40651 5.04032 3.44752 5.10801 3.49356 5.15001C3.52177 5.17573 3.57733 5.21085 3.61144 5.2245C3.684 5.25355 3.51326 5.25161 5.99989 5.25161C8.48653 5.25161 8.31578 5.25355 8.38834 5.2245C8.42246 5.21085 8.47802 5.17573 8.50622 5.15001C8.55236 5.10792 8.59342 5.04007 8.61188 4.9754C8.62611 4.92555 8.6272 4.82909 8.61408 4.78149C8.59514 4.7128 8.55883 4.65229 8.50695 4.60292C8.45932 4.55761 8.40534 4.52785 8.33632 4.50885C8.30812 4.50109 8.16733 4.50055 6.01909 4.5C4.76113 4.49967 3.72541 4.50019 3.71749 4.50114ZM3.67669 6.25728C3.55906 6.28137 3.46384 6.35563 3.41213 6.46361C3.38868 6.51257 3.37926 6.5487 3.37584 6.60281C3.36441 6.7833 3.48223 6.94378 3.65946 6.9891C3.69731 6.99879 3.70447 6.99881 5.99611 6.99881C8.55883 6.99881 8.3242 7.00208 8.40229 6.96533C8.45101 6.9424 8.47564 6.92544 8.5111 6.89042C8.62701 6.77591 8.65713 6.60557 8.5864 6.46443C8.53625 6.36436 8.45643 6.2976 8.34579 6.2632L8.31109 6.25241L6.00949 6.25165C4.10983 6.25102 3.70244 6.252 3.67669 6.25728ZM3.65759 8.01194C3.48138 8.05807 3.36446 8.21829 3.37584 8.39801C3.37941 8.45449 3.38884 8.48929 3.41487 8.54201C3.45252 8.61831 3.50675 8.67254 3.58309 8.71026C3.66772 8.75207 3.56183 8.74841 4.68709 8.74841C5.80682 8.74841 5.70564 8.75167 5.78629 8.713C5.9122 8.65263 5.99211 8.53315 5.99872 8.39539C6.00632 8.23728 5.92209 8.09951 5.77728 8.03316C5.70451 7.99983 5.78102 8.00199 4.68375 8.00228C3.71644 8.00254 3.69266 8.00276 3.65759 8.01194Z"
          fill="white"/>
  </g>
  <defs>
    <clipPath id="clip0_118_152">
      <rect width="12" height="12" fill="white"/>
    </clipPath>
  </defs>
</svg>
