<svg width="18" height="19" viewBox="0 0 18 19" fill="none" xmlns="http://www.w3.org/2000/svg">
  <g clip-path="url(#clip0_1441_1139)">
    <path fill-rule="evenodd" clip-rule="evenodd"
          d="M1.38617 0.526587C0.684802 0.667311 0.127432 1.24353 0.0192341 1.93973C0.00350206 2.04098 -0.000385944 3.53014 0.00371806 7.89773L0.00917206 13.7207L0.0597521 13.8827C0.0875801 13.9718 0.14689 14.1136 0.191566 14.1977C0.46504 14.713 0.96823 15.0584 1.52758 15.1149C1.63011 15.1253 2.08545 15.1337 2.53947 15.1337H3.36497L3.37006 16.5962L3.37517 18.0587L3.42199 18.1586C3.5216 18.3709 3.67266 18.4777 3.89741 18.4947C4.00069 18.5025 4.05123 18.4975 4.11733 18.473C4.1745 18.4517 4.94042 17.8885 6.40972 16.7874L8.61627 15.1337H12.4513C14.99 15.1337 16.3494 15.1274 16.4728 15.1149C16.8333 15.0785 17.173 14.9229 17.4421 14.6709C17.6155 14.5086 17.7053 14.3926 17.8088 14.1977C17.8911 14.0427 17.9822 13.7679 17.9822 13.6748C17.9822 13.6468 17.9903 13.6189 18.0002 13.6127C18.0121 13.6054 18.0182 11.6442 18.0182 7.78761C18.0182 4.47653 18.0114 1.97778 18.0024 1.98333C17.9938 1.98867 17.9813 1.95239 17.9747 1.9027C17.9681 1.85301 17.9394 1.74367 17.9108 1.65974C17.7134 1.0794 17.2072 0.641445 16.5991 0.525021C16.4094 0.488697 1.56736 0.490227 1.38617 0.526587ZM1.46255 1.68838C1.3343 1.75248 1.23702 1.85331 1.17703 1.98437L1.13401 2.07833L1.13858 7.82753L1.14317 13.5767L1.18346 13.6585C1.23924 13.7717 1.35865 13.8881 1.47617 13.9438L1.57517 13.9907L2.83517 13.9997L4.09517 14.0087L4.18517 14.0567C4.30309 14.1195 4.39719 14.2193 4.45393 14.3417L4.49981 14.4407L4.49999 15.6242L4.50017 16.8077L6.33205 15.4339C7.33958 14.6783 8.1921 14.0486 8.22655 14.0344C8.27994 14.0125 8.88872 14.0074 12.3572 13.9997L16.4252 13.9907L16.5242 13.9438C16.6417 13.8881 16.7611 13.7717 16.8169 13.6585L16.8572 13.5767L16.8618 7.82753L16.8663 2.07833L16.8233 1.98437C16.7633 1.85331 16.666 1.75248 16.5378 1.68838L16.4284 1.63373H9.00017H1.57191L1.46255 1.68838ZM0.00906406 7.80773C0.00906406 11.0104 0.0111341 12.3206 0.0136721 10.7192C0.0162101 9.11792 0.0162101 6.49757 0.0136721 4.89623C0.0111341 3.29492 0.00906406 4.60508 0.00906406 7.80773ZM8.7558 4.58586C8.63871 4.63206 8.50575 4.75963 8.45011 4.87911L8.40653 4.97273L8.40635 6.11084L8.40617 7.24894L7.29467 7.25384L6.18317 7.25873L6.09805 7.30065C5.69278 7.50026 5.66738 8.07334 6.05375 8.29978C6.18695 8.37785 6.27965 8.38373 7.37448 8.38373H8.40617V9.44285V10.502L8.46154 10.6128C8.51738 10.7245 8.6063 10.8127 8.73017 10.879C8.82581 10.9302 9.10821 10.927 9.20809 10.8736C9.30144 10.8237 9.42411 10.7011 9.47413 10.6076C9.51276 10.5355 9.51323 10.5235 9.51821 9.45923L9.52325 8.38373L10.5442 8.38359C11.1507 8.38352 11.611 8.37601 11.6782 8.36512C12.0443 8.3057 12.2561 7.91134 12.0983 7.58273C12.0352 7.45124 11.9398 7.35696 11.8082 7.29597L11.7092 7.25009L10.6161 7.24991L9.52295 7.24973L9.51807 6.10223L9.51317 4.95473L9.4722 4.87157C9.4204 4.76643 9.3045 4.65098 9.19889 4.59929C9.08384 4.54298 8.88009 4.53681 8.7558 4.58586Z"
          fill="#0C1F22"/>
  </g>
  <defs>
    <clipPath id="clip0_1441_1139">
      <rect width="18" height="18" fill="white" transform="translate(0 0.5)"/>
    </clipPath>
  </defs>
</svg>
