<svg width="19" height="18" viewBox="0 0 19 18" fill="none" xmlns="http://www.w3.org/2000/svg">
<path fill-rule="evenodd" clip-rule="evenodd" d="M9.17565 0.00429563C8.82691 0.019826 8.56179 0.0427796 8.26125 0.0834596C7.03057 0.250046 5.81422 0.690096 4.74405 1.35593C3.89522 1.88405 3.12055 2.57153 2.47895 3.36607C1.8209 4.18097 1.29769 5.13947 0.960583 6.14763C0.733812 6.8258 0.593938 7.50242 0.532392 8.21887C0.507919 8.50374 0.503455 8.62398 0.503391 9.00007C0.503311 9.42797 0.513996 9.64009 0.553956 10.0045C0.698799 11.325 1.14711 12.6171 1.85551 13.7557C2.46013 14.7274 3.27151 15.5992 4.20765 16.2829C4.93411 16.8134 5.77463 17.2464 6.64485 17.5382C7.32108 17.765 8.00079 17.9057 8.71845 17.9673C9.00435 17.9919 9.12323 17.9963 9.49965 17.9963C9.9281 17.9963 10.1409 17.9856 10.5041 17.9458C11.8244 17.8009 13.1168 17.3525 14.2553 16.6442C14.693 16.3719 15.0996 16.0658 15.5189 15.6932C15.6445 15.5816 16.0812 15.1449 16.1928 15.0193C16.7688 14.3712 17.195 13.7432 17.5636 12.9997C18.0648 11.9885 18.3617 10.9401 18.4638 9.82151C18.4772 9.67498 18.4924 9.42313 18.4924 9.34747C18.4924 9.30309 18.4953 9.27367 18.4997 9.27367C18.5043 9.27367 18.5069 9.17632 18.5069 8.99604C18.5069 8.8128 18.5044 8.71993 18.4997 8.72287C18.495 8.72573 18.4924 8.70074 18.4924 8.65309C18.4924 8.53138 18.4705 8.22586 18.4453 7.99567C18.3011 6.67697 17.8521 5.38286 17.1438 4.24447C16.8179 3.72068 16.441 3.23625 16.0094 2.78647C15.2575 2.00286 14.4489 1.40687 13.4993 0.936141C12.4132 0.397826 11.3204 0.103958 10.0833 0.017486C9.93937 0.00743483 9.31047 -0.00170917 9.17565 0.00429563ZM9.08925 0.994418C7.60149 1.067 6.15074 1.56316 4.91685 2.42138C4.30968 2.84369 3.71964 3.39609 3.24389 3.9876C2.51678 4.89164 1.99167 5.95522 1.71291 7.08847C1.49229 7.98541 1.43015 8.95635 1.53322 9.89647C1.68663 11.2959 2.22808 12.666 3.07249 13.7917C3.5371 14.411 4.08871 14.9626 4.70805 15.4272C5.46814 15.9974 6.36244 16.441 7.28925 16.7075C8.28754 16.9945 9.3665 17.0825 10.425 16.9631C11.3365 16.8603 12.2129 16.6005 13.0601 16.1821C13.8468 15.7935 14.535 15.2984 15.1665 14.667C15.798 14.0355 16.2931 13.3472 16.6817 12.5605C17.2404 11.4293 17.5132 10.261 17.5132 9.00007C17.5132 7.73967 17.2401 6.57034 16.6817 5.43967C16.2927 4.6522 15.7986 3.96527 15.1665 3.33319C14.5344 2.7011 13.8475 2.20701 13.0601 1.81807C12.0479 1.31812 11.0056 1.04753 9.88485 0.993748C9.71201 0.985454 9.26533 0.985828 9.08925 0.994418ZM9.39525 5.11503C9.22437 5.15442 9.08596 5.27868 9.02967 5.44327L9.01365 5.49007L9.01005 6.99847L9.00645 8.50687L7.49805 8.51047L5.98965 8.51407L5.94285 8.53008C5.79857 8.57943 5.67537 8.7028 5.62804 8.84527C5.61113 8.89621 5.60891 8.91411 5.60891 9.00007C5.60891 9.08603 5.61113 9.10393 5.62804 9.15487C5.67537 9.29734 5.79857 9.42071 5.94285 9.47006L5.98965 9.48607L7.49805 9.48967L9.00645 9.49327L9.01005 11.0017L9.01365 12.5101L9.02967 12.5569C9.07902 12.7011 9.20238 12.8244 9.34485 12.8717C9.39579 12.8886 9.41369 12.8908 9.49965 12.8908C9.58561 12.8908 9.60351 12.8886 9.65445 12.8717C9.79693 12.8244 9.92029 12.7011 9.96964 12.5569L9.98565 12.5101L9.98925 11.0017L9.99285 9.49327L11.5013 9.48967L13.0097 9.48607L13.0565 9.47006C13.2007 9.42071 13.3239 9.29734 13.3713 9.15487C13.3882 9.10393 13.3904 9.08603 13.3904 9.00007C13.3904 8.91411 13.3882 8.89621 13.3713 8.84527C13.3239 8.7028 13.2007 8.57943 13.0565 8.53008L13.0097 8.51407L11.5013 8.51047L9.99285 8.50687L9.98925 6.99847L9.98565 5.49007L9.96964 5.44327C9.92011 5.29847 9.79573 5.17449 9.65445 5.12908C9.5831 5.10614 9.46224 5.09959 9.39525 5.11503ZM0.50293 9.00367C0.50293 9.15811 0.50388 9.22027 0.505047 9.14179C0.506213 9.06332 0.506206 8.93696 0.505039 8.86099C0.50388 8.78503 0.502923 8.84923 0.50293 9.00367Z" fill="#0C1F22"/>
</svg>
