<svg width="16" height="16" viewBox="0 0 16 16" fill="none" xmlns="http://www.w3.org/2000/svg">

<path d="M15.8195 13.5189L9.53374 0.947479C9.39145 0.66251 9.17257 0.42282 8.90167 0.255292C8.63076 0.087764 8.31854 -0.000976562 8.00002 -0.000976562C7.68151 -0.000976562 7.36928 0.087764 7.09838 0.255292C6.82748 0.42282 6.6086 0.66251 6.46631 0.947479L0.180597 13.5189C0.0498526 13.7803 -0.0118871 14.0708 0.0012426 14.3628C0.0143723 14.6548 0.101935 14.9385 0.255614 15.1871C0.409292 15.4357 0.623982 15.6409 0.879287 15.7832C1.13459 15.9255 1.42204 16.0001 1.71431 16H14.2857C14.578 16.0001 14.8655 15.9255 15.1208 15.7832C15.3761 15.6409 15.5908 15.4357 15.7444 15.1871C15.8981 14.9385 15.9857 14.6548 15.9988 14.3628C16.0119 14.0708 15.9502 13.7803 15.8195 13.5189ZM7.14288 5.71434C7.14288 5.48701 7.23319 5.26899 7.39393 5.10824C7.55468 4.9475 7.7727 4.85719 8.00002 4.85719C8.22735 4.85719 8.44537 4.9475 8.60612 5.10824C8.76686 5.26899 8.85717 5.48701 8.85717 5.71434V9.14291C8.85717 9.37024 8.76686 9.58825 8.60612 9.749C8.44537 9.90974 8.22735 10 8.00002 10C7.7727 10 7.55468 9.90974 7.39393 9.749C7.23319 9.58825 7.14288 9.37024 7.14288 9.14291V5.71434ZM8.00002 13.7143C7.77399 13.7143 7.55303 13.6473 7.36509 13.5217C7.17715 13.3961 7.03066 13.2177 6.94416 13.0088C6.85766 12.8 6.83503 12.5702 6.87913 12.3485C6.92322 12.1268 7.03207 11.9232 7.1919 11.7634C7.35173 11.6035 7.55537 11.4947 7.77706 11.4506C7.99876 11.4065 8.22855 11.4291 8.43738 11.5156C8.64621 11.6021 8.8247 11.7486 8.95028 11.9365C9.07585 12.1245 9.14288 12.3454 9.14288 12.5715C9.14288 12.8746 9.02247 13.1653 8.80815 13.3796C8.59382 13.5939 8.30313 13.7143 8.00002 13.7143Z" fill="#212B3D"/>

</svg>
