<svg width="16" height="16" viewBox="0 0 16 16" fill="none" xmlns="http://www.w3.org/2000/svg">
<g clip-path="url(#clip0_402_545)">
<path d="M8 0C6.41775 0 4.87104 0.469192 3.55544 1.34824C2.23985 2.22729 1.21447 3.47672 0.608967 4.93853C0.00346633 6.40034 -0.15496 8.00887 0.153721 9.56072C0.462403 11.1126 1.22433 12.538 2.34315 13.6569C3.46197 14.7757 4.88743 15.5376 6.43928 15.8463C7.99113 16.155 9.59966 15.9965 11.0615 15.391C12.5233 14.7855 13.7727 13.7602 14.6518 12.4446C15.5308 11.129 16 9.58225 16 8C15.9976 5.87901 15.154 3.84559 13.6542 2.34582C12.1544 0.846052 10.121 0.00241984 8 0V0ZM8.85715 12C8.85715 12.2273 8.76684 12.4453 8.6061 12.6061C8.44535 12.7668 8.22733 12.8571 8 12.8571C7.77268 12.8571 7.55466 12.7668 7.39391 12.6061C7.23317 12.4453 7.14286 12.2273 7.14286 12V8C7.14286 7.77267 7.23317 7.55465 7.39391 7.39391C7.55466 7.23316 7.77268 7.14286 8 7.14286C8.22733 7.14286 8.44535 7.23316 8.6061 7.39391C8.76684 7.55465 8.85715 7.77267 8.85715 8V12ZM8 5.71429C7.77397 5.71429 7.55301 5.64726 7.36507 5.52168C7.17712 5.3961 7.03064 5.21761 6.94414 5.00878C6.85764 4.79995 6.83501 4.57016 6.87911 4.34847C6.9232 4.12678 7.03205 3.92314 7.19188 3.76331C7.35171 3.60348 7.55535 3.49463 7.77704 3.45053C7.99874 3.40643 8.22853 3.42907 8.43736 3.51557C8.64619 3.60207 8.82468 3.74855 8.95026 3.93649C9.07583 4.12443 9.14286 4.34539 9.14286 4.57143C9.14286 4.87453 9.02245 5.16522 8.80813 5.37955C8.5938 5.59388 8.30311 5.71429 8 5.71429Z" fill="#212B3D"/>
</g>
<defs>
<clipPath id="clip0_402_545">
<rect width="16" height="16" fill="white"/>
</clipPath>
</defs>
</svg>
