<svg width="18" height="18" viewBox="0 0 18 18" fill="none" xmlns="http://www.w3.org/2000/svg">
<path fill-rule="evenodd" clip-rule="evenodd" d="M1.46516 0.612801C0.977362 0.663302 0.510585 0.960468 0.244063 1.39019C0.134789 1.56637 0.0625871 1.75297 0.0199415 1.96936L0.00433911 2.04856L0.00196311 3.48993C-0.000686488 5.09653 -0.00399129 4.9854 0.0497567 5.09416C0.117048 5.23032 0.249226 5.3334 0.391397 5.3606C0.441084 5.37011 1.44248 5.37136 8.99996 5.37136C16.5252 5.37136 17.5591 5.37008 17.6087 5.36069C17.783 5.32774 17.952 5.1656 17.9856 4.99912C17.9902 4.97615 17.997 4.95174 18.0006 4.94486C18.0045 4.93743 18.0072 4.36604 18.0072 3.53818C18.0072 2.04099 18.0068 2.02264 17.9702 1.83976C17.8749 1.36239 17.5805 0.9754 17.154 0.766917C17.0135 0.698272 16.8869 0.65716 16.7148 0.624321L16.6356 0.609216L9.07916 0.608028C4.92314 0.607372 1.49684 0.609525 1.46516 0.612801ZM1.50836 1.60318C1.41201 1.62357 1.30167 1.67951 1.22376 1.74746C1.1341 1.82566 1.07795 1.90198 1.03307 2.00666C0.983957 2.12121 0.986362 2.05572 0.986362 3.27946V4.38496H9.00011H17.0139L17.0118 3.20956L17.0098 2.03416L16.9935 1.98132C16.9361 1.79565 16.8096 1.66908 16.6236 1.61136L16.5708 1.59496L9.06476 1.59374C2.45827 1.59266 1.55272 1.59379 1.50836 1.60318ZM0.00348951 3.53176C0.00348951 4.31188 0.00433191 4.63209 0.00536151 4.24334C0.00639111 3.85458 0.00639111 3.2163 0.00536151 2.82494C0.00433191 2.43357 0.00348951 2.75164 0.00348951 3.53176ZM1.17022 6.96291C1.06134 6.97994 0.984065 7.02079 0.899818 7.10583C0.852154 7.15395 0.831641 7.18141 0.807823 7.22896C0.75072 7.34299 0.755566 6.96436 0.757819 11.1331C0.759713 14.6528 0.760577 14.8772 0.772485 14.9654C0.823764 15.3447 0.90125 15.6037 1.0547 15.9086C1.19313 16.1836 1.3294 16.3711 1.55483 16.5965C1.78027 16.8219 1.96771 16.9582 2.24276 17.0966C2.55868 17.2556 2.84581 17.3391 3.22556 17.3823C3.34822 17.3963 14.6517 17.3963 14.7744 17.3823C15.1541 17.3391 15.4412 17.2556 15.7572 17.0966C16.0322 16.9582 16.2197 16.8219 16.4451 16.5965C16.6705 16.3711 16.8067 16.1837 16.9452 15.9086C17.0966 15.6078 17.178 15.3358 17.2276 14.9654C17.2393 14.8777 17.2402 14.6362 17.2421 11.1331C17.2444 6.9648 17.2492 7.34316 17.1922 7.22896C17.1678 7.18002 17.1486 7.15474 17.0966 7.10277C17.0251 7.03129 16.963 6.99444 16.8768 6.97211C16.8132 6.95566 16.6871 6.95601 16.6248 6.97281C16.4619 7.01665 16.3253 7.1517 16.2745 7.31896C16.262 7.36042 16.2613 7.51318 16.2573 11.1026C16.2528 15.1645 16.2559 14.8535 16.2175 15.0338C16.0588 15.7794 15.4589 16.3172 14.6952 16.3985C14.5487 16.414 3.45122 16.414 3.30476 16.3985C2.54082 16.3172 1.94119 15.7797 1.7824 15.0338C1.74402 14.8535 1.74717 15.1645 1.74265 11.1026C1.73865 7.51318 1.73796 7.36042 1.72538 7.31896C1.67525 7.15364 1.53538 7.01468 1.37827 6.97412C1.32197 6.95959 1.2249 6.95436 1.17022 6.96291ZM8.91356 7.80536C8.74723 7.84848 8.60677 7.98553 8.55955 8.15076C8.55221 8.17646 8.54959 8.64239 8.54656 10.4593L8.54276 12.7357L7.74004 11.9077C7.1027 11.2503 6.9265 11.0725 6.88479 11.0446C6.75889 10.9604 6.58112 10.9426 6.43676 10.9997C6.3723 11.0252 6.31916 11.0615 6.26396 11.1176C6.17349 11.2095 6.13435 11.3013 6.12907 11.4338C6.12674 11.492 6.12904 11.5319 6.13681 11.5684C6.14958 11.6284 6.18889 11.7111 6.22682 11.7578C6.25749 11.7955 8.51598 14.1278 8.65679 14.2672C8.73449 14.3441 8.76194 14.3663 8.80916 14.3907C8.88867 14.4318 8.94446 14.4453 9.03596 14.4455C9.15151 14.4457 9.24369 14.4163 9.32848 14.3523C9.38875 14.3068 11.8329 11.7825 11.8685 11.729C11.9534 11.6014 11.9731 11.4409 11.9223 11.2906C11.8865 11.1846 11.7831 11.0696 11.6764 11.0172C11.5011 10.9311 11.2844 10.9567 11.1436 11.0802C11.1228 11.0984 10.7527 11.4775 10.3211 11.9225L9.53636 12.7316L9.53261 10.4645C9.52904 8.30946 9.52821 8.19522 9.51591 8.15416C9.48888 8.06395 9.45463 8.00709 9.38544 7.93757C9.33262 7.88449 9.30883 7.8665 9.25916 7.84204C9.2255 7.82547 9.17528 7.80716 9.14756 7.80135C9.07721 7.78664 8.9793 7.78831 8.91356 7.80536Z" fill="#2F463F"/>
</svg>
