<svg width="20" height="20" viewBox="0 0 20 20" fill="none" xmlns="http://www.w3.org/2000/svg">
<path d="M17.9166 2.0835H2.08329C1.64127 2.0835 1.21734 2.25909 0.904781 2.57165C0.592221 2.88421 0.416626 3.30814 0.416626 3.75016V6.25016C0.416626 6.47118 0.504423 6.68314 0.660704 6.83942C0.816984 6.9957 1.02895 7.0835 1.24996 7.0835H18.75C18.971 7.0835 19.1829 6.9957 19.3392 6.83942C19.4955 6.68314 19.5833 6.47118 19.5833 6.25016V3.75016C19.5833 3.30814 19.4077 2.88421 19.0951 2.57165C18.7826 2.25909 18.3587 2.0835 17.9166 2.0835Z" fill="#212B3D"/>
<path d="M17.9167 8.3335H2.08333C1.86232 8.3335 1.65036 8.42129 1.49408 8.57757C1.3378 8.73385 1.25 8.94582 1.25 9.16683V16.2502C1.25 16.6922 1.42559 17.1161 1.73816 17.4287C2.05072 17.7412 2.47464 17.9168 2.91667 17.9168H17.0833C17.5254 17.9168 17.9493 17.7412 18.2618 17.4287C18.5744 17.1161 18.75 16.6922 18.75 16.2502V9.16683C18.75 8.94582 18.6622 8.73385 18.5059 8.57757C18.3496 8.42129 18.1377 8.3335 17.9167 8.3335ZM12.7083 11.2502C12.7083 11.5264 12.5986 11.7914 12.4032 11.9867C12.2079 12.1821 11.9429 12.2918 11.6667 12.2918H8.33333C8.05707 12.2918 7.79211 12.1821 7.59676 11.9867C7.40141 11.7914 7.29167 11.5264 7.29167 11.2502C7.29167 10.9739 7.40141 10.7089 7.59676 10.5136C7.79211 10.3182 8.05707 10.2085 8.33333 10.2085H11.6667C11.9429 10.2085 12.2079 10.3182 12.4032 10.5136C12.5986 10.7089 12.7083 10.9739 12.7083 11.2502V11.2502Z" fill="#212B3D"/>
</svg>
