<svg width="18" height="18" viewBox="0 0 18 18" fill="none" xmlns="http://www.w3.org/2000/svg">
<path fill-rule="evenodd" clip-rule="evenodd" d="M1.46516 0.612313C0.977362 0.662814 0.510585 0.959979 0.244063 1.3897C0.134789 1.56588 0.0625871 1.75248 0.0199415 1.96887L0.00433911 2.04807L0.00196311 3.48944C-0.000686488 5.09604 -0.00399129 4.98492 0.0497567 5.09367C0.117048 5.22983 0.249226 5.33291 0.391397 5.36012C0.441084 5.36962 1.44248 5.37087 8.99996 5.37087C16.5252 5.37087 17.5591 5.36959 17.6087 5.3602C17.783 5.32725 17.952 5.16511 17.9856 4.99863C17.9902 4.97566 17.997 4.95125 18.0006 4.94437C18.0045 4.93694 18.0072 4.36555 18.0072 3.53769C18.0072 2.0405 18.0068 2.02215 17.9702 1.83927C17.8749 1.3619 17.5805 0.974912 17.154 0.766429C17.0135 0.697784 16.8869 0.656672 16.7148 0.623833L16.6356 0.608727L9.07916 0.607539C4.92314 0.606884 1.49684 0.609037 1.46516 0.612313ZM1.50836 1.60269C1.41201 1.62309 1.30167 1.67902 1.22376 1.74698C1.1341 1.82517 1.07795 1.90149 1.03307 2.00618C0.983957 2.12072 0.986362 2.05523 0.986362 3.27897V4.38447H9.00011H17.0139L17.0118 3.20907L17.0098 2.03367L16.9935 1.98083C16.9361 1.79517 16.8096 1.6686 16.6236 1.61087L16.5708 1.59447L9.06476 1.59325C2.45827 1.59217 1.55272 1.5933 1.50836 1.60269ZM0.00348951 3.53127C0.00348951 4.31139 0.00433191 4.6316 0.00536151 4.24285C0.00639111 3.85409 0.00639111 3.21581 0.00536151 2.82445C0.00433191 2.43308 0.00348951 2.75115 0.00348951 3.53127ZM1.17022 6.96243C1.06134 6.97945 0.984065 7.0203 0.899818 7.10535C0.852154 7.15346 0.831641 7.18092 0.807823 7.22847C0.75072 7.3425 0.755566 6.96387 0.757819 11.1326C0.759713 14.6523 0.760577 14.8768 0.772485 14.9649C0.823764 15.3442 0.90125 15.6032 1.0547 15.9081C1.19313 16.1831 1.3294 16.3706 1.55483 16.596C1.78027 16.8214 1.96771 16.9577 2.24276 17.0961C2.55868 17.2551 2.84581 17.3386 3.22556 17.3818C3.34822 17.3958 14.6517 17.3958 14.7744 17.3818C15.1541 17.3386 15.4412 17.2551 15.7572 17.0961C16.0322 16.9577 16.2197 16.8214 16.4451 16.596C16.6705 16.3706 16.8067 16.1832 16.9452 15.9081C17.0966 15.6073 17.178 15.3354 17.2276 14.9649C17.2393 14.8772 17.2402 14.6357 17.2421 11.1326C17.2444 6.96431 17.2492 7.34267 17.1922 7.22847C17.1678 7.17953 17.1486 7.15425 17.0966 7.10229C17.0251 7.0308 16.963 6.99395 16.8768 6.97162C16.8132 6.95517 16.6871 6.95552 16.6248 6.97232C16.4619 7.01617 16.3253 7.15121 16.2745 7.31847C16.262 7.35993 16.2613 7.51269 16.2573 11.1021C16.2528 15.164 16.2559 14.853 16.2175 15.0333C16.0588 15.7789 15.4589 16.3167 14.6952 16.398C14.5487 16.4136 3.45122 16.4136 3.30476 16.398C2.54082 16.3167 1.94119 15.7792 1.7824 15.0333C1.74402 14.853 1.74717 15.164 1.74265 11.1021C1.73865 7.51269 1.73796 7.35993 1.72538 7.31847C1.67525 7.15315 1.53538 7.01419 1.37827 6.97364C1.32197 6.9591 1.2249 6.95387 1.17022 6.96243ZM8.91356 7.80487C8.74723 7.84799 8.60677 7.98504 8.55955 8.15027C8.55221 8.17597 8.54959 8.6419 8.54656 10.4588L8.54276 12.7352L7.74004 11.9072C7.1027 11.2498 6.9265 11.072 6.88479 11.0441C6.75889 10.9599 6.58112 10.9421 6.43676 10.9992C6.3723 11.0247 6.31916 11.061 6.26396 11.1171C6.17349 11.209 6.13435 11.3008 6.12907 11.4333C6.12674 11.4915 6.12904 11.5314 6.13681 11.5679C6.14958 11.6279 6.18889 11.7106 6.22682 11.7573C6.25749 11.795 8.51598 14.1273 8.65679 14.2667C8.73449 14.3436 8.76194 14.3658 8.80916 14.3902C8.88867 14.4314 8.94446 14.4448 9.03596 14.445C9.15151 14.4452 9.24369 14.4158 9.32848 14.3518C9.38875 14.3063 11.8329 11.782 11.8685 11.7285C11.9534 11.6009 11.9731 11.4404 11.9223 11.2901C11.8865 11.1841 11.7831 11.0691 11.6764 11.0167C11.5011 10.9306 11.2844 10.9562 11.1436 11.0797C11.1228 11.0979 10.7527 11.477 10.3211 11.922L9.53636 12.7311L9.53261 10.464C9.52904 8.30897 9.52821 8.19473 9.51591 8.15367C9.48888 8.06346 9.45463 8.00661 9.38544 7.93708C9.33262 7.884 9.30883 7.86601 9.25916 7.84155C9.2255 7.82498 9.17528 7.80667 9.14756 7.80087C9.07721 7.78615 8.9793 7.78782 8.91356 7.80487Z" fill="black"/>
</svg>
