<svg width="16" height="16" viewBox="0 0 16 16" fill="none" xmlns="http://www.w3.org/2000/svg">
<path d="M8.96262 4.4392C8.94398 4.41579 8.92394 4.39353 8.90262 4.37253C8.66386 4.13397 8.34014 3.99996 8.00262 3.99996C7.6651 3.99996 7.34139 4.13397 7.10262 4.37253C7.0813 4.39353 7.06127 4.41579 7.04262 4.4392L2.40329 10.6639C2.33298 10.7585 2.29035 10.8708 2.28016 10.9882C2.26997 11.1057 2.29263 11.2237 2.3456 11.329C2.39857 11.4343 2.47977 11.5228 2.58013 11.5847C2.68049 11.6465 2.79607 11.6792 2.91396 11.6792H13.0893C13.2072 11.6792 13.3228 11.6465 13.4231 11.5847C13.5235 11.5228 13.6047 11.4343 13.6576 11.329C13.7106 11.2237 13.7333 11.1057 13.7231 10.9882C13.7129 10.8708 13.6703 10.7585 13.6 10.6639L8.96262 4.4392Z" fill="#212B3D"/>
</svg>
