<svg width="16" height="16" viewBox="0 0 16 16" fill="none" xmlns="http://www.w3.org/2000/svg">
<path d="M7.04067 11.24C7.05932 11.2634 7.07935 11.2857 7.10067 11.3067C7.33944 11.5452 7.66315 11.6792 8.00067 11.6792C8.3382 11.6792 8.66191 11.5452 8.90067 11.3067C8.92199 11.2857 8.94203 11.2634 8.96067 11.24L13.6 5.01533C13.6703 4.92071 13.7129 4.80841 13.7231 4.69096C13.7333 4.57351 13.7107 4.45555 13.6577 4.35023C13.6047 4.24491 13.5235 4.15639 13.4232 4.09455C13.3228 4.0327 13.2072 3.99997 13.0893 4H2.91401C2.79612 3.99997 2.68054 4.0327 2.58018 4.09455C2.47982 4.15639 2.39862 4.24491 2.34565 4.35023C2.29268 4.45555 2.27002 4.57351 2.28021 4.69096C2.2904 4.80841 2.33303 4.92071 2.40334 5.01533L7.04067 11.24Z" fill="#212B3D"/>
</svg>
