<svg height="13" width="13" viewBox="0 0 13 13" xmlns="http://www.w3.org/2000/svg">
<path d="M8.01438 0.817838C7.40221 0.812854 6.80191 1.00624 6.3953 1.36099C6.23328 1.50235 6.00464 1.69189 5.75377 1.93433C5.72361 1.9635 4.91879 2.75775 4.86786 2.80941C4.54503 3.13691 4.56686 3.66736 4.89841 3.98625C5.22997 4.30514 5.76697 4.28358 6.08981 3.95608C6.13799 3.9072 6.91633 3.13906 6.94517 3.11117C7.17733 2.88681 7.35785 2.71542 7.49505 2.59818C7.71521 2.41007 8.26937 2.39875 8.47261 2.59818C8.96751 3.08383 10.1809 4.28478 10.6721 4.80099C10.9167 5.05795 10.8805 5.56674 10.6416 5.79677C10.4997 5.9334 9.31715 7.10482 9.26687 7.15467C8.94027 7.4785 8.93903 8.00889 9.26687 8.3315C9.59471 8.65412 10.1317 8.65534 10.4583 8.3315C10.508 8.2822 11.6645 7.10749 11.8024 6.97361C12.6115 6.1882 12.746 4.57155 11.9246 3.6845C11.4133 3.13229 10.1653 1.89148 9.63345 1.39117C9.24399 1.02477 8.62654 0.822822 8.01438 0.817838Z" fill="#969696" fill-rule="evenodd" opacity="1" stroke="none"/>
<path d="M4.70855 12.8444C5.32072 12.8474 5.92038 12.6521 6.32583 12.2961C6.48738 12.1542 6.7154 11.9639 6.96547 11.7207C6.99553 11.6914 7.79774 10.8946 7.8485 10.8428C8.17025 10.5142 8.14668 9.98385 7.81408 9.66602C7.48148 9.3482 6.94454 9.37148 6.62279 9.70002C6.57477 9.74905 5.79895 10.5197 5.77021 10.5477C5.53879 10.7728 5.35535 10.9408 5.22202 11.0624C4.97282 11.2897 4.4707 11.2756 4.24447 11.0655C3.73631 10.5937 2.54302 9.37233 2.03773 8.86981C1.78901 8.62246 1.81656 8.1139 2.06501 7.87393C2.20668 7.73709 3.38511 6.56165 3.43523 6.51164C3.76076 6.18676 3.76026 5.65636 3.43136 5.3348C3.10246 5.01324 2.5655 5.01374 2.23997 5.33863C2.1904 5.38809 1.03776 6.56651 0.900296 6.70082C0.093824 7.48882-0.0354185 9.1059 0.788915 9.99031C1.30208 10.5409 2.55415 11.7777 3.08759 12.2763C3.47826 12.6414 4.09637 12.8414 4.70855 12.8444Z" fill="#969696" fill-rule="evenodd" opacity="1" stroke="none"/>
<path d="M7.55615 4.86134C7.34172 4.85878 7.11075 4.94309 6.94517 5.10274L4.62347 7.36589C4.29232 7.68519 4.26968 8.21563 4.59293 8.54273C4.91617 8.86984 5.45317 8.86203 5.78432 8.54273L8.13657 6.27958C8.46772 5.96028 8.45982 5.46002 8.13657 5.13292C7.97495 4.96936 7.77057 4.8639 7.55615 4.86134Z" fill="#969696" fill-rule="evenodd" opacity="1" stroke="none"/>
</svg>
