<svg width="13" height="10" viewBox="0 0 13 10" fill="none" xmlns="http://www.w3.org/2000/svg">
<path d="M12.3722 2.42856C12.3722 1.86024 12.1464 1.3152 11.7446 0.913334C11.3427 0.51147 10.7977 0.285706 10.2293 0.285706H2.51505C1.94673 0.285706 1.40168 0.51147 0.999821 0.913334C0.597957 1.3152 0.372192 1.86024 0.372192 2.42856L0.372192 7.57142C0.372192 8.13974 0.597957 8.68478 0.999821 9.08665C1.40168 9.48851 1.94673 9.71428 2.51505 9.71428H10.2293C10.7977 9.71428 11.3427 9.48851 11.7446 9.08665C12.1464 8.68478 12.3722 8.13974 12.3722 7.57142V2.42856ZM8.57505 5.53142L5.82362 7.06571C5.73083 7.11829 5.62599 7.14594 5.51934 7.14594C5.41268 7.14594 5.30784 7.11829 5.21505 7.06571C5.12276 7.01346 5.04622 6.93735 4.99344 6.84537C4.94066 6.75338 4.91358 6.64889 4.91505 6.54285V3.46571C4.91358 3.35966 4.94066 3.25517 4.99344 3.16319C5.04622 3.0712 5.12276 2.9951 5.21505 2.94285C5.30784 2.89026 5.41268 2.86262 5.51934 2.86262C5.62599 2.86262 5.73083 2.89026 5.82362 2.94285L8.57505 4.46856C8.67202 4.51939 8.75323 4.59577 8.80989 4.68945C8.86656 4.78312 8.89651 4.89051 8.89651 4.99999C8.89651 5.10947 8.86656 5.21686 8.80989 5.31054C8.75323 5.40421 8.67202 5.4806 8.57505 5.53142Z" fill="#636D7D"/>
</svg>
