<svg width="11" height="11" viewBox="0 0 11 11" fill="none" xmlns="http://www.w3.org/2000/svg">
<path d="M5.39319 1.14549L2.43019 4.10899C2.40667 4.13237 2.37486 4.1455 2.34169 4.14549H1.24719C0.981976 4.14549 0.727622 4.25085 0.540086 4.43839C0.352549 4.62592 0.247192 4.88028 0.247192 5.14549V6.85249C0.247192 7.11771 0.352549 7.37206 0.540086 7.5596C0.727622 7.74714 0.981976 7.85249 1.24719 7.85249H2.34169C2.37492 7.85268 2.40672 7.86597 2.43019 7.88949L5.39319 10.8525C5.46303 10.9225 5.55207 10.9702 5.64903 10.9897C5.746 11.0091 5.84655 10.9993 5.93796 10.9616C6.02937 10.9238 6.10754 10.8598 6.16259 10.7777C6.21763 10.6955 6.24707 10.5989 6.24719 10.5V1.49999C6.24747 1.40093 6.21831 1.30402 6.16342 1.22155C6.10853 1.13908 6.03038 1.07478 5.93889 1.0368C5.84739 0.998823 5.74668 0.988878 5.64952 1.00823C5.55237 1.02758 5.46315 1.07535 5.39319 1.14549V1.14549Z" fill="#636D7D"/>
<path d="M9.03974 2.48301C8.94544 2.39193 8.81914 2.34153 8.68804 2.34267C8.55694 2.34381 8.43153 2.39639 8.33883 2.4891C8.24613 2.5818 8.19354 2.70721 8.1924 2.83831C8.19126 2.96941 8.24166 3.09571 8.33274 3.19001C8.70191 3.55888 8.99477 3.99689 9.19458 4.47901C9.39439 4.96112 9.49723 5.47788 9.49723 5.99976C9.49723 6.52163 9.39439 7.0384 9.19458 7.52051C8.99477 8.00262 8.70191 8.44063 8.33274 8.80951C8.24166 8.90381 8.19126 9.03011 8.1924 9.16121C8.19354 9.29231 8.24613 9.41771 8.33883 9.51042C8.43153 9.60312 8.55694 9.65571 8.68804 9.65684C8.81914 9.65798 8.94544 9.60759 9.03974 9.51651C9.5018 9.05481 9.86834 8.50658 10.1184 7.90316C10.3685 7.29974 10.4972 6.65295 10.4972 5.99976C10.4972 5.34656 10.3685 4.69977 10.1184 4.09635C9.86834 3.49293 9.5018 2.9447 9.03974 2.48301V2.48301Z" fill="#636D7D"/>
<path d="M7.81518 3.75001C7.76983 3.69971 7.71472 3.65915 7.65322 3.63079C7.59171 3.60242 7.52508 3.58685 7.45738 3.58502C7.38967 3.58319 7.3223 3.59513 7.25935 3.62012C7.1964 3.64512 7.13918 3.68264 7.09117 3.73041C7.04316 3.77818 7.00536 3.83521 6.98005 3.89804C6.95475 3.96087 6.94247 4.02818 6.94397 4.09589C6.94547 4.16361 6.96071 4.23031 6.98876 4.29195C7.01682 4.3536 7.05711 4.4089 7.10718 4.45451C7.51568 4.86484 7.74502 5.42026 7.74502 5.99926C7.74502 6.57826 7.51568 7.13368 7.10718 7.54401C7.05838 7.58991 7.01929 7.64515 6.99225 7.70644C6.96521 7.76774 6.95077 7.83385 6.94978 7.90084C6.94878 7.96783 6.96126 8.03433 6.98648 8.09641C7.01169 8.15848 7.04912 8.21485 7.09654 8.26217C7.14397 8.3095 7.20042 8.34681 7.26254 8.37189C7.32467 8.39697 7.3912 8.40931 7.45819 8.40817C7.52518 8.40704 7.59125 8.39245 7.65249 8.36528C7.71373 8.33811 7.76889 8.29891 7.81468 8.25001C8.40953 7.6523 8.74351 6.84338 8.7436 6.00011C8.7437 5.15685 8.40989 4.34785 7.81518 3.75001V3.75001Z" fill="#636D7D"/>
</svg>
