<svg width="11" height="12" viewBox="0 0 11 12" fill="none" xmlns="http://www.w3.org/2000/svg">
<path d="M10.2665 3.67716L6.83794 0.248586C6.75785 0.169145 6.66286 0.106294 6.55843 0.063639C6.454 0.0209836 6.34218 -0.000637868 6.22937 1.43265e-05H1.94366C1.489 1.43265e-05 1.05296 0.180626 0.731473 0.502117C0.409982 0.823608 0.22937 1.25964 0.22937 1.7143V10.2857C0.22937 10.7404 0.409982 11.1764 0.731473 11.4979C1.05296 11.8194 1.489 12 1.94366 12H8.8008C9.25546 12 9.69149 11.8194 10.013 11.4979C10.3345 11.1764 10.5151 10.7404 10.5151 10.2857V4.28573C10.5157 4.17292 10.4941 4.0611 10.4515 3.95667C10.4088 3.85223 10.346 3.75725 10.2665 3.67716V3.67716ZM2.15794 10.2857C2.10111 10.2857 2.04661 10.2632 2.00642 10.223C1.96623 10.1828 1.94366 10.1283 1.94366 10.0714V1.92859C1.94366 1.87175 1.96623 1.81725 2.00642 1.77706C2.04661 1.73688 2.10111 1.7143 2.15794 1.7143H5.15794C5.21477 1.7143 5.26928 1.73688 5.30946 1.77706C5.34965 1.81725 5.37223 1.87175 5.37223 1.92859V4.28573C5.37223 4.51306 5.46253 4.73107 5.62328 4.89182C5.78402 5.05257 6.00204 5.14287 6.22937 5.14287H8.58651C8.64335 5.14287 8.69785 5.16545 8.73804 5.20563C8.77822 5.24582 8.8008 5.30032 8.8008 5.35716V10.0714C8.8008 10.1283 8.77822 10.1828 8.73804 10.223C8.69785 10.2632 8.64335 10.2857 8.58651 10.2857H2.15794Z" fill="#636D7D"/>
</svg>
