<svg width="13" height="12" viewBox="0 0 13 12" fill="none" xmlns="http://www.w3.org/2000/svg">
<path d="M8.08648 5.99998C9.03325 5.99998 9.80076 5.23247 9.80076 4.2857C9.80076 3.33892 9.03325 2.57141 8.08648 2.57141C7.1397 2.57141 6.37219 3.33892 6.37219 4.2857C6.37219 5.23247 7.1397 5.99998 8.08648 5.99998Z" fill="#636D7D"/>
<path d="M12.3722 1.07143C12.3722 0.787268 12.2593 0.514746 12.0584 0.313814C11.8574 0.112882 11.5849 0 11.3008 0L1.44362 0C1.15946 0 0.886938 0.112882 0.686007 0.313814C0.485075 0.514746 0.372192 0.787268 0.372192 1.07143L0.372192 10.9286C0.372192 11.2127 0.485075 11.4853 0.686007 11.6862C0.886938 11.8871 1.15946 12 1.44362 12H11.3008C11.5849 12 11.8574 11.8871 12.0584 11.6862C12.2593 11.4853 12.3722 11.2127 12.3722 10.9286V1.07143ZM10.8722 1.28571C10.929 1.28571 10.9835 1.30829 11.0237 1.34848C11.0639 1.38866 11.0865 1.44317 11.0865 1.5V7.95429C11.0872 7.98348 11.0814 8.01246 11.0695 8.03914C11.0577 8.06582 11.04 8.08954 11.0179 8.10857C10.9962 8.12896 10.9705 8.14477 10.9426 8.15508C10.9146 8.16538 10.8848 8.16997 10.855 8.16857C10.6493 8.16857 10.4436 8.16857 10.2293 8.16857C9.50661 8.15513 8.7855 8.24166 8.08648 8.42571C8.05315 8.43273 8.02222 8.44827 7.99668 8.4708C7.97114 8.49333 7.95188 8.52209 7.94076 8.55429C7.92564 8.58494 7.91778 8.61867 7.91778 8.65286C7.91778 8.68704 7.92564 8.72077 7.94076 8.75143C8.28826 9.27466 8.57578 9.83533 8.79791 10.4229C8.82319 10.4861 8.82319 10.5567 8.79791 10.62C8.77753 10.6489 8.75058 10.6725 8.71928 10.6889C8.68798 10.7052 8.65324 10.714 8.61791 10.7143H7.72648C7.68466 10.7144 7.64371 10.7023 7.60867 10.6795C7.57364 10.6566 7.54606 10.624 7.52934 10.5857C7.04345 9.44976 6.25968 8.46618 5.26087 7.73895C4.26206 7.01172 3.08533 6.56786 1.85505 6.45429C1.80124 6.44997 1.75104 6.4255 1.71449 6.38577C1.67794 6.34604 1.65773 6.29398 1.65791 6.24V1.5C1.65791 1.44317 1.68048 1.38866 1.72067 1.34848C1.76086 1.30829 1.81536 1.28571 1.87219 1.28571H10.8722Z" fill="#636D7D"/>
</svg>
