<svg width="13" height="12" viewBox="0 0 13 12" fill="none" xmlns="http://www.w3.org/2000/svg">
<path d="M11.0865 0H1.65791C1.31691 0 0.989888 0.135459 0.748769 0.376577C0.507651 0.617695 0.372192 0.944722 0.372192 1.28571L0.372192 10.7143C0.372192 11.0553 0.507651 11.3823 0.748769 11.6234C0.989888 11.8645 1.31691 12 1.65791 12H7.44362C7.49983 12.0007 7.55556 11.9896 7.60722 11.9675C7.65889 11.9453 7.70535 11.9126 7.74362 11.8714L12.2436 7.37143C12.2848 7.33316 12.3175 7.2867 12.3396 7.23503C12.3618 7.18337 12.3729 7.12764 12.3722 7.07143V1.28571C12.3722 0.944722 12.2367 0.617695 11.9956 0.376577C11.7545 0.135459 11.4275 0 11.0865 0V0ZM10.2893 7.01143L7.38362 9.91714C7.35304 9.94827 7.314 9.96973 7.27134 9.97888C7.22868 9.98802 7.18427 9.98443 7.14362 9.96857C7.10529 9.95184 7.07269 9.92426 7.04985 9.88923C7.027 9.8542 7.0149 9.81325 7.01505 9.77143V7.07143C7.01505 6.95776 7.0602 6.84876 7.14058 6.76838C7.22095 6.68801 7.32996 6.64286 7.44362 6.64286H10.1436C10.1854 6.64271 10.2264 6.65481 10.2614 6.67765C10.2965 6.7005 10.324 6.7331 10.3408 6.77143C10.3566 6.81207 10.3602 6.85648 10.3511 6.89915C10.3419 6.94181 10.3205 6.98085 10.2893 7.01143V7.01143Z" fill="#636D7D"/>
</svg>