<svg width="16" height="16" viewBox="0 0 16 16" fill="none" xmlns="http://www.w3.org/2000/svg">
<g clip-path="url(#clip0_539_2972)">
<path d="M11.7143 0C11.4869 0.000344286 11.2644 0.0658811 11.0732 0.188838C10.882 0.311795 10.7301 0.487014 10.6354 0.693714L8.78512 4.57143L4.73712 5.18743C4.51764 5.22159 4.31194 5.31594 4.14287 5.46C3.9738 5.60405 3.84798 5.79216 3.7794 6.00343C3.70557 6.22066 3.69339 6.45412 3.74423 6.67786C3.79507 6.90159 3.90694 7.10686 4.0674 7.27086L7.02169 10.3474L6.33026 14.5691C6.29063 14.7982 6.31672 15.0338 6.40552 15.2486C6.49432 15.4634 6.64218 15.6487 6.83197 15.7829C7.01202 15.911 7.22467 15.9856 7.44533 15.9979C7.66598 16.0103 7.88562 15.9599 8.07883 15.8526L11.7143 13.856C11.8658 13.856 12.0112 13.7958 12.1183 13.6886C12.2255 13.5815 12.2857 13.4361 12.2857 13.2846V0.571429C12.2857 0.419876 12.2255 0.274531 12.1183 0.167368C12.0112 0.0602039 11.8658 0 11.7143 0V0Z" fill="#212B3D"/>
</g>
<defs>
<clipPath id="clip0_539_2972">
<rect width="16" height="16" fill="white"/>
</clipPath>
</defs>
</svg>
