<svg width="16" height="16" viewBox="0 0 16 16" fill="none" xmlns="http://www.w3.org/2000/svg">
<g clip-path="url(#clip0_589_4754)">
<path d="M8 0C6.41775 0 4.87103 0.469192 3.55544 1.34824C2.23985 2.22729 1.21447 3.47672 0.608967 4.93853C0.00346627 6.40034 -0.15496 8.00887 0.153721 9.56072C0.462403 11.1126 1.22433 12.538 2.34315 13.6569C3.46197 14.7757 4.88743 15.5376 6.43928 15.8463C7.99113 16.155 9.59966 15.9965 11.0615 15.391C12.5233 14.7855 13.7727 13.7602 14.6518 12.4446C15.5308 11.129 16 9.58225 16 8C15.9975 5.87905 15.1538 3.84569 13.6541 2.34595C12.1543 0.846211 10.121 0.00254057 8 0V0ZM8 2.4C9.06819 2.40197 10.1131 2.71196 11.0096 3.2928L3.2928 11.0096C2.74735 10.1655 2.43998 9.18971 2.40313 8.18537C2.36628 7.18103 2.60134 6.18537 3.08346 5.30354C3.56559 4.42172 4.2769 3.68645 5.14228 3.17538C6.00766 2.66432 6.99499 2.39643 8 2.4V2.4ZM8 13.6C6.93182 13.598 5.88687 13.288 4.9904 12.7072L12.7072 4.9904C13.2527 5.83453 13.56 6.81028 13.5969 7.81463C13.6337 8.81897 13.3987 9.81463 12.9165 10.6965C12.4344 11.5783 11.7231 12.3136 10.8577 12.8246C9.99235 13.3357 9.00502 13.6036 8 13.6Z" fill="#212B3D"/>
</g>
<defs>
<clipPath id="clip0_589_4754">
<rect width="16" height="16" fill="white"/>
</clipPath>
</defs>
</svg>
