<svg width="16" height="16" viewBox="0 0 16 16" fill="none" xmlns="http://www.w3.org/2000/svg">
  <path d="M13.3333 4.33333C13.5101 4.33333 13.6797 4.2631 13.8047 4.13807C13.9298 4.01305 14 3.84348 14 3.66667V2.66667C14 1.95942 13.7191 1.28115 13.219 0.781049C12.7189 0.280952 12.0406 0 11.3333 0L4.66667 0C3.95942 0 3.28115 0.280952 2.78105 0.781049C2.28095 1.28115 2 1.95942 2 2.66667V14.9893C1.98086 15.185 2.02366 15.3816 2.12235 15.5516C2.22104 15.7216 2.37063 15.8563 2.55 15.9367C2.73371 16.0068 2.93483 16.0175 3.12492 15.9671C3.31501 15.9168 3.48447 15.8079 3.60934 15.656L5.764 13.502C5.79497 13.471 5.83175 13.4463 5.87225 13.4295C5.91274 13.4127 5.95616 13.4041 6 13.4041C6.04385 13.4041 6.08726 13.4127 6.12776 13.4295C6.16825 13.4463 6.20504 13.471 6.236 13.502L8.39067 15.656C8.48395 15.7604 8.59747 15.8447 8.72433 15.9038C8.8512 15.9629 8.98876 15.9957 9.12867 16C9.23887 15.9999 9.34802 15.9784 9.45 15.9367C9.62937 15.8563 9.77897 15.7216 9.87766 15.5516C9.97634 15.3816 10.0191 15.185 10 14.9893V2.74C9.99264 2.4153 10.0995 2.09832 10.302 1.8444C10.5046 1.59047 10.7898 1.41573 11.108 1.35067C11.2995 1.31783 11.4959 1.32725 11.6834 1.37827C11.8709 1.42929 12.045 1.52069 12.1935 1.64605C12.342 1.77141 12.4613 1.92771 12.543 2.10401C12.6247 2.28031 12.6669 2.47234 12.6667 2.66667V3.66667C12.6667 3.84348 12.7369 4.01305 12.8619 4.13807C12.987 4.2631 13.1565 4.33333 13.3333 4.33333Z" fill="#212B3D"/>
</svg>
