<svg width="16" height="16" viewBox="0 0 16 16" fill="none" xmlns="http://www.w3.org/2000/svg">
<path d="M3.66663 3.66663C4.06511 3.6654 4.44683 3.50614 4.72804 3.22381C5.00925 2.94147 5.16698 2.55912 5.16663 2.16063C5.04606 1.47881 4.75427 0.838798 4.31863 0.300632C4.23814 0.206368 4.13817 0.130678 4.02561 0.0787773C3.91305 0.0268766 3.79058 0 3.66663 0C3.54268 0 3.4202 0.0268766 3.30764 0.0787773C3.19508 0.130678 3.09511 0.206368 3.01463 0.300632C2.57876 0.838659 2.28694 1.47874 2.16663 2.16063C2.16627 2.55912 2.324 2.94147 2.60521 3.22381C2.88642 3.50614 3.26814 3.6654 3.66663 3.66663V3.66663Z" fill="#212B3D"/>
<path d="M12.3333 3.66663C12.7317 3.6654 13.1135 3.50614 13.3947 3.22381C13.6759 2.94147 13.8336 2.55912 13.8333 2.16063C13.7127 1.47881 13.4209 0.838798 12.9853 0.300632C12.9048 0.206368 12.8048 0.130678 12.6922 0.0787773C12.5797 0.0268766 12.4572 0 12.3333 0C12.2093 0 12.0868 0.0268766 11.9743 0.0787773C11.8617 0.130678 11.7617 0.206368 11.6813 0.300632C11.2454 0.838659 10.9536 1.47874 10.8333 2.16063C10.8329 2.55912 10.9906 2.94147 11.2718 3.22381C11.553 3.50614 11.9348 3.6654 12.3333 3.66663V3.66663Z" fill="#212B3D"/>
<path d="M8 3.66663C8.39848 3.6654 8.78021 3.50614 9.06142 3.22381C9.34262 2.94147 9.50036 2.55912 9.5 2.16063C9.37944 1.47881 9.08765 0.838798 8.652 0.300632C8.57151 0.206368 8.47155 0.130678 8.35899 0.0787773C8.24643 0.0268766 8.12395 0 8 0C7.87605 0 7.75357 0.0268766 7.64101 0.0787773C7.52845 0.130678 7.42849 0.206368 7.348 0.300632C6.91213 0.838659 6.62031 1.47874 6.5 2.16063C6.49965 2.55912 6.65738 2.94147 6.93859 3.22381C7.21979 3.50614 7.60152 3.6654 8 3.66663V3.66663Z" fill="#212B3D"/>
<path d="M13.6666 7.3335C13.5782 7.3335 13.4934 7.29838 13.4309 7.23587C13.3684 7.17335 13.3333 7.08857 13.3333 7.00016V5.00016C13.3333 4.82335 13.2631 4.65378 13.138 4.52876C13.013 4.40373 12.8434 4.3335 12.6666 4.3335H12C11.8231 4.3335 11.6536 4.40373 11.5286 4.52876C11.4035 4.65378 11.3333 4.82335 11.3333 5.00016V7.00016C11.3333 7.08857 11.2982 7.17335 11.2357 7.23587C11.1731 7.29838 11.0884 7.3335 11 7.3335H9.33329C9.24489 7.3335 9.1601 7.29838 9.09759 7.23587C9.03508 7.17335 8.99996 7.08857 8.99996 7.00016V5.00016C8.99996 4.82335 8.92972 4.65378 8.8047 4.52876C8.67967 4.40373 8.5101 4.3335 8.33329 4.3335H7.66663C7.48981 4.3335 7.32025 4.40373 7.19522 4.52876C7.0702 4.65378 6.99996 4.82335 6.99996 5.00016V7.00016C6.99996 7.08857 6.96484 7.17335 6.90233 7.23587C6.83982 7.29838 6.75503 7.3335 6.66663 7.3335H4.99996C4.91155 7.3335 4.82677 7.29838 4.76426 7.23587C4.70174 7.17335 4.66663 7.08857 4.66663 7.00016V5.00016C4.66663 4.82335 4.59639 4.65378 4.47136 4.52876C4.34634 4.40373 4.17677 4.3335 3.99996 4.3335H3.33329C3.15648 4.3335 2.98691 4.40373 2.86189 4.52876C2.73686 4.65378 2.66663 4.82335 2.66663 5.00016V7.00016C2.66663 7.08857 2.63151 7.17335 2.56899 7.23587C2.50648 7.29838 2.4217 7.3335 2.33329 7.3335C1.89127 7.3335 1.46734 7.50909 1.15478 7.82165C0.842221 8.13421 0.666626 8.55814 0.666626 9.00016V9.2395C0.666681 9.56202 0.786567 9.87303 1.00301 10.1121C1.21946 10.3513 1.51703 10.5014 1.83796 10.5335C2.11015 10.5619 2.38496 10.5159 2.63306 10.4004C2.88115 10.2849 3.09322 10.1041 3.24663 9.8775C3.3268 9.75636 3.43575 9.65697 3.56371 9.58822C3.69168 9.51946 3.83469 9.48348 3.97996 9.4835C4.13493 9.48161 4.28794 9.51835 4.42516 9.5904C4.56239 9.66244 4.67951 9.76753 4.76596 9.89616C4.90427 10.0952 5.08868 10.2577 5.30345 10.37C5.51821 10.4823 5.75695 10.5409 5.99929 10.5409C6.24163 10.5409 6.48037 10.4823 6.69514 10.37C6.9099 10.2577 7.09431 10.0952 7.23263 9.89616C7.32185 9.77708 7.43759 9.68042 7.57066 9.61384C7.70374 9.54727 7.85049 9.51261 7.99929 9.51261C8.14809 9.51261 8.29485 9.54727 8.42792 9.61384C8.561 9.68042 8.67673 9.77708 8.76596 9.89616C8.90427 10.0952 9.08868 10.2577 9.30345 10.37C9.51821 10.4823 9.75695 10.5409 9.99929 10.5409C10.2416 10.5409 10.4804 10.4823 10.6951 10.37C10.9099 10.2577 11.0943 10.0952 11.2326 9.89616C11.3183 9.76679 11.4353 9.66114 11.5727 9.589C11.7101 9.51687 11.8635 9.48058 12.0186 9.4835C12.1639 9.48348 12.3069 9.51946 12.4349 9.58822C12.5628 9.65697 12.6718 9.75636 12.752 9.8775C12.9054 10.1041 13.1174 10.2849 13.3655 10.4004C13.6136 10.5159 13.8884 10.5619 14.1606 10.5335C14.4818 10.5017 14.7797 10.3517 14.9964 10.1126C15.2131 9.87341 15.3332 9.56223 15.3333 9.2395V9.00016C15.3333 8.55814 15.1577 8.13421 14.8451 7.82165C14.5326 7.50909 14.1087 7.3335 13.6666 7.3335V7.3335Z" fill="#212B3D"/>
<path d="M14.878 11.3795C14.6807 11.4574 14.4736 11.5076 14.2626 11.5288C13.8912 11.5666 13.5161 11.5213 13.1643 11.3963C12.8125 11.2714 12.4929 11.0698 12.2286 10.8061C12.1973 10.7748 12.16 10.75 12.119 10.7333C12.0779 10.7165 12.034 10.7081 11.9896 10.7085C11.9453 10.7089 11.9015 10.7182 11.8608 10.7358C11.8201 10.7533 11.7833 10.7788 11.7526 10.8108C11.5237 11.0442 11.2503 11.2294 10.9485 11.3553C10.6468 11.4813 10.3229 11.5455 9.99596 11.5441C9.33583 11.5435 8.70281 11.2815 8.23529 10.8155C8.17281 10.7532 8.08818 10.7182 7.99996 10.7182C7.91173 10.7182 7.82711 10.7532 7.76463 10.8155C7.29601 11.2826 6.66131 11.5449 5.99963 11.5449C5.33794 11.5449 4.70324 11.2826 4.23463 10.8155C4.17232 10.7544 4.08854 10.7202 4.00129 10.7202C3.91404 10.7202 3.83027 10.7544 3.76796 10.8155C3.50353 11.0769 3.18464 11.2766 2.83407 11.4005C2.48351 11.5244 2.10991 11.5693 1.73996 11.5321C1.52895 11.5109 1.32188 11.4607 1.12463 11.3828C1.07423 11.3625 1.01962 11.3548 0.965567 11.3604C0.911513 11.366 0.859649 11.3847 0.814492 11.415C0.769336 11.4452 0.732257 11.486 0.706485 11.5339C0.680713 11.5817 0.667029 11.6351 0.666626 11.6895V14.3335C0.666626 14.5523 0.709736 14.7691 0.793493 14.9713C0.877251 15.1735 1.00002 15.3572 1.15478 15.512C1.30955 15.6667 1.49328 15.7895 1.69549 15.8733C1.8977 15.957 2.11442 16.0001 2.33329 16.0001H13.6666C13.8855 16.0001 14.1022 15.957 14.3044 15.8733C14.5066 15.7895 14.6904 15.6667 14.8451 15.512C14.9999 15.3572 15.1227 15.1735 15.2064 14.9713C15.2902 14.7691 15.3333 14.5523 15.3333 14.3335V11.6895C15.3333 11.6352 15.32 11.5817 15.2946 11.5337C15.2692 11.4857 15.2324 11.4447 15.1875 11.4141C15.1427 11.3836 15.091 11.3645 15.0371 11.3584C14.9831 11.3524 14.9285 11.3596 14.878 11.3795Z" fill="#212B3D"/>
</svg>
