<svg width="18" height="18" viewBox="0 0 18 18" fill="none" xmlns="http://www.w3.org/2000/svg">
<path fill-rule="evenodd" clip-rule="evenodd" d="M3.7649 5.9734V17.01H14.3066V5.97326C14.3027 5.97335 14.2988 5.9734 14.2949 5.9734H3.7649ZM2.7749 5.4784V17.2174C2.7749 17.6496 3.12528 18 3.55751 18H14.514C14.9463 18 15.2966 17.6496 15.2966 17.2174V0.782609C15.2966 0.350386 14.9463 0 14.514 0H3.55751C3.12528 0 2.7749 0.350386 2.7749 0.782609V5.4784ZM3.7649 4.9834H14.2949C14.2988 4.9834 14.3027 4.98344 14.3066 4.98353V0.99H3.7649V4.9834ZM5.98891 9.03775C6.37215 9.03775 6.68283 8.72707 6.68283 8.34383C6.68283 7.96058 6.37215 7.6499 5.98891 7.6499C5.60566 7.6499 5.29498 7.96058 5.29498 8.34383C5.29498 8.72707 5.60566 9.03775 5.98891 9.03775ZM12.7894 11.4112C12.7894 11.7945 12.4787 12.1051 12.0955 12.1051C11.7122 12.1051 11.4016 11.7945 11.4016 11.4112C11.4016 11.028 11.7122 10.7173 12.0955 10.7173C12.4787 10.7173 12.7894 11.028 12.7894 11.4112ZM8.29304 13.9795C8.02678 13.9795 7.81094 14.1953 7.81094 14.4616C7.81094 14.7278 8.02678 14.9437 8.29304 14.9437H12.4852C12.7514 14.9437 12.9673 14.7278 12.9673 14.4616C12.9673 14.1953 12.7514 13.9795 12.4852 13.9795H8.29304ZM5.98891 15.1732C6.37215 15.1732 6.68283 14.8626 6.68283 14.4793C6.68283 14.0961 6.37215 13.7854 5.98891 13.7854C5.60566 13.7854 5.29498 14.0961 5.29498 14.4793C5.29498 14.8626 5.60566 15.1732 5.98891 15.1732ZM6.68283 11.4112C6.68283 11.7945 6.37215 12.1051 5.98891 12.1051C5.60566 12.1051 5.29498 11.7945 5.29498 11.4112C5.29498 11.028 5.60566 10.7173 5.98891 10.7173C6.37215 10.7173 6.68283 11.028 6.68283 11.4112ZM9.75067 8.34383C9.75067 8.72707 9.43999 9.03775 9.05675 9.03775C8.6735 9.03775 8.36282 8.72707 8.36282 8.34383C8.36282 7.96058 8.6735 7.6499 9.05675 7.6499C9.43999 7.6499 9.75067 7.96058 9.75067 8.34383ZM12.0955 9.03775C12.4787 9.03775 12.7894 8.72707 12.7894 8.34383C12.7894 7.96058 12.4787 7.6499 12.0955 7.6499C11.7122 7.6499 11.4016 7.96058 11.4016 8.34383C11.4016 8.72707 11.7122 9.03775 12.0955 9.03775ZM9.75067 11.4112C9.75067 11.7945 9.43999 12.1051 9.05675 12.1051C8.6735 12.1051 8.36282 11.7945 8.36282 11.4112C8.36282 11.028 8.6735 10.7173 9.05675 10.7173C9.43999 10.7173 9.75067 11.028 9.75067 11.4112Z" fill="currentColor"/>
<path d="M12.3171 2.28662C12.5833 2.28662 12.7991 2.50246 12.7991 2.76872V3.53092C12.7991 3.79717 12.5833 4.01301 12.3171 4.01301C12.0508 4.01301 11.835 3.79717 11.835 3.53092V2.76872C11.835 2.50246 12.0508 2.28662 12.3171 2.28662Z" fill="currentColor"/>
</svg>
