<svg width="24" height="24" viewBox="0 0 24 24" fill="none" xmlns="http://www.w3.org/2000/svg">
<path d="M6.5 4.25C6.30189 4.25259 6.11263 4.33244 5.97253 4.47253C5.83244 4.61263 5.75259 4.80189 5.75 5V5.5C5.75 5.5663 5.77634 5.62989 5.82322 5.67678C5.87011 5.72366 5.9337 5.75 6 5.75H7C7.0663 5.75 7.12989 5.72366 7.17678 5.67678C7.22366 5.62989 7.25 5.5663 7.25 5.5V5C7.24741 4.80189 7.16756 4.61263 7.02747 4.47253C6.88737 4.33244 6.69811 4.25259 6.5 4.25Z" fill="#212B3D"/>
<path d="M17.22 17.25C17.18 17.2494 17.1405 17.2592 17.1054 17.2785C17.0703 17.2978 17.0409 17.3259 17.02 17.36C17.0008 17.3953 16.9907 17.4348 16.9907 17.475C16.9907 17.5152 17.0008 17.5548 17.02 17.59C17.0995 17.8028 17.2 18.0072 17.32 18.2C17.339 18.2394 17.3689 18.2726 17.4061 18.2956C17.4433 18.3186 17.4863 18.3306 17.53 18.33C17.5748 18.3291 17.6185 18.3167 17.6571 18.2939C17.6956 18.2711 17.7276 18.2388 17.75 18.2C17.863 18.0049 17.96 17.8009 18.04 17.59C18.0593 17.5548 18.0694 17.5152 18.0694 17.475C18.0694 17.4348 18.0593 17.3953 18.04 17.36C18.0191 17.3259 17.9897 17.2978 17.9546 17.2785C17.9195 17.2592 17.88 17.2494 17.84 17.25H17.22Z" fill="#212B3D"/>
<path d="M22.5 11H14.75C14.6837 11 14.6201 11.0263 14.5732 11.0732C14.5263 11.1201 14.5 11.1837 14.5 11.25V13.75C14.4974 13.9481 14.4176 14.1374 14.2775 14.2775C14.1374 14.4176 13.9481 14.4974 13.75 14.5H10.75C10.6837 14.5 10.6201 14.5263 10.5732 14.5732C10.5263 14.6201 10.5 14.6837 10.5 14.75V22.5C10.5 22.8978 10.658 23.2794 10.9393 23.5607C11.2206 23.842 11.6022 24 12 24H22.5C22.8978 24 23.2794 23.842 23.5607 23.5607C23.842 23.2794 24 22.8978 24 22.5V12.5C24 12.1022 23.842 11.7206 23.5607 11.4393C23.2794 11.158 22.8978 11 22.5 11ZM14.5 15.75H16.5C16.5663 15.75 16.6299 15.7237 16.6768 15.6768C16.7237 15.6299 16.75 15.5663 16.75 15.5V15C16.75 14.8011 16.829 14.6103 16.9697 14.4697C17.1103 14.329 17.3011 14.25 17.5 14.25C17.6989 14.25 17.8897 14.329 18.0303 14.4697C18.171 14.6103 18.25 14.8011 18.25 15V15.5C18.25 15.5663 18.2763 15.6299 18.3232 15.6768C18.3701 15.7237 18.4337 15.75 18.5 15.75H20.5C20.6989 15.75 20.8897 15.829 21.0303 15.9697C21.171 16.1103 21.25 16.3011 21.25 16.5C21.25 16.6989 21.171 16.8897 21.0303 17.0303C20.8897 17.171 20.6989 17.25 20.5 17.25H19.87C19.815 17.2522 19.7622 17.2718 19.7191 17.3059C19.676 17.3401 19.6448 17.387 19.63 17.44C19.4649 18.1283 19.1659 18.7773 18.75 19.35C18.726 19.4111 18.726 19.4789 18.75 19.54C18.7684 19.6092 18.811 19.6695 18.87 19.71C19.3013 19.956 19.7615 20.1474 20.24 20.28C20.3421 20.2992 20.4391 20.3393 20.5249 20.3979C20.6107 20.4566 20.6833 20.5324 20.7383 20.6205C20.7932 20.7087 20.8292 20.8073 20.844 20.9102C20.8588 21.013 20.8521 21.1178 20.8243 21.2179C20.7965 21.318 20.7482 21.4112 20.6825 21.4917C20.6168 21.5721 20.535 21.638 20.4425 21.6852C20.35 21.7324 20.2486 21.7599 20.1449 21.7659C20.0412 21.7719 19.9374 21.7562 19.84 21.72C19.0682 21.5124 18.3376 21.1742 17.68 20.72C17.6392 20.6907 17.5902 20.6749 17.54 20.6749C17.4898 20.6749 17.4408 20.6907 17.4 20.72C16.7437 21.1765 16.0127 21.5149 15.24 21.72C15.1426 21.7562 15.0388 21.7719 14.9351 21.7659C14.8314 21.7599 14.73 21.7324 14.6375 21.6852C14.545 21.638 14.4632 21.5721 14.3975 21.4917C14.3318 21.4112 14.2835 21.318 14.2557 21.2179C14.2279 21.1178 14.2212 21.013 14.236 20.9102C14.2508 20.8073 14.2868 20.7087 14.3417 20.6205C14.3967 20.5324 14.4693 20.4566 14.5551 20.3979C14.6409 20.3393 14.7379 20.2992 14.84 20.28C15.3185 20.1474 15.7787 19.956 16.21 19.71C16.269 19.6695 16.3116 19.6092 16.33 19.54C16.354 19.4789 16.354 19.4111 16.33 19.35C15.9141 18.7773 15.6151 18.1283 15.45 17.44C15.4352 17.387 15.404 17.3401 15.3609 17.3059C15.3178 17.2718 15.265 17.2522 15.21 17.25H14.5C14.3011 17.25 14.1103 17.171 13.9697 17.0303C13.829 16.8897 13.75 16.6989 13.75 16.5C13.75 16.3011 13.829 16.1103 13.9697 15.9697C14.1103 15.829 14.3011 15.75 14.5 15.75Z" fill="#212B3D"/>
<path d="M12.75 13C12.8163 13 12.8799 12.9737 12.9268 12.9268C12.9737 12.8799 13 12.8163 13 12.75V1.5C13 1.10218 12.842 0.720644 12.5607 0.43934C12.2794 0.158035 11.8978 0 11.5 0L1.5 0C1.10218 0 0.720644 0.158035 0.43934 0.43934C0.158035 0.720644 0 1.10218 0 1.5L0 11.5C0 11.8978 0.158035 12.2794 0.43934 12.5607C0.720644 12.842 1.10218 13 1.5 13H12.75ZM6 7.25C5.9337 7.25 5.87011 7.27634 5.82322 7.32322C5.77634 7.37011 5.75 7.4337 5.75 7.5V9.5C5.75 9.69891 5.67098 9.88968 5.53033 10.0303C5.38968 10.171 5.19891 10.25 5 10.25C4.80109 10.25 4.61032 10.171 4.46967 10.0303C4.32902 9.88968 4.25 9.69891 4.25 9.5V5C4.25 4.40326 4.48705 3.83097 4.90901 3.40901C5.33097 2.98705 5.90326 2.75 6.5 2.75C7.09674 2.75 7.66903 2.98705 8.09099 3.40901C8.51295 3.83097 8.75 4.40326 8.75 5V9.5C8.75 9.69891 8.67098 9.88968 8.53033 10.0303C8.38968 10.171 8.19891 10.25 8 10.25C7.80109 10.25 7.61032 10.171 7.46967 10.0303C7.32902 9.88968 7.25 9.69891 7.25 9.5V7.5C7.25 7.4337 7.22366 7.37011 7.17678 7.32322C7.12989 7.27634 7.0663 7.25 7 7.25H6Z" fill="#212B3D"/>
</svg>
