<svg width="12" height="10" viewBox="0 0 12 10" fill="none" xmlns="http://www.w3.org/2000/svg">
<path fill-rule="evenodd" clip-rule="evenodd" d="M11.4903 1.37106C11.7043 1.08796 11.6583 0.677067 11.3875 0.453308C11.1167 0.229548 10.7237 0.277655 10.5096 0.560755L3.97386 8.26792L3.96652 8.27782C3.94251 8.31086 3.91131 8.33742 3.87551 8.3553C3.8397 8.37318 3.80033 8.38186 3.76067 8.38062C3.721 8.37938 3.6822 8.36826 3.64748 8.34818C3.61276 8.32809 3.58313 8.29963 3.56106 8.26516L3.5526 8.25229L1.51095 5.22322C1.31213 4.92824 0.922214 4.85761 0.64005 5.06546C0.357886 5.27331 0.290324 5.68094 0.489145 5.97591L2.52708 8.99947C2.65938 9.20357 2.8359 9.37219 3.04233 9.49159C3.25123 9.61242 3.48471 9.67935 3.72334 9.6868C3.96197 9.69425 4.19886 9.64202 4.41429 9.53444C4.62767 9.42788 4.81388 9.27008 4.95774 9.07396L11.4903 1.37106Z" fill="#2F463F"/>
</svg>
