<svg width="16" height="16" viewBox="0 0 16 16" fill="none" xmlns="http://www.w3.org/2000/svg">
<path d="M15.4306 3.60009L13.5693 1.73343C13.5383 1.70239 13.5015 1.67776 13.461 1.66095C13.4205 1.64415 13.3771 1.6355 13.3333 1.6355C13.2894 1.6355 13.246 1.64415 13.2055 1.66095C13.165 1.67776 13.1282 1.70239 13.0973 1.73343L5.23594 9.60009C5.20498 9.63114 5.16819 9.65576 5.1277 9.67257C5.0872 9.68937 5.04379 9.69802 4.99994 9.69802C4.9561 9.69802 4.91268 9.68937 4.87219 9.67257C4.83169 9.65576 4.79491 9.63114 4.76394 9.60009L2.90261 7.73343C2.87164 7.70239 2.83486 7.67776 2.79436 7.66095C2.75387 7.64415 2.71045 7.6355 2.66661 7.6355C2.62276 7.6355 2.57935 7.64415 2.53885 7.66095C2.49836 7.67776 2.46157 7.70239 2.43061 7.73343L0.569275 9.60009C0.506785 9.6626 0.47168 9.74737 0.47168 9.83576C0.47168 9.92415 0.506785 10.0089 0.569275 10.0714L4.76394 14.2668C4.79491 14.2978 4.83169 14.3224 4.87219 14.3392C4.91268 14.356 4.9561 14.3647 4.99994 14.3647C5.04379 14.3647 5.0872 14.356 5.1277 14.3392C5.16819 14.3224 5.20498 14.2978 5.23594 14.2668L15.4306 4.06676C15.4917 4.00445 15.5259 3.92068 15.5259 3.83343C15.5259 3.74618 15.4917 3.6624 15.4306 3.60009Z" fill="#212B3D"/>
</svg>
