<svg width="13" height="12" viewBox="0 0 13 12" fill="none" xmlns="http://www.w3.org/2000/svg">
  <g clip-path="url(#clip0_537_26)">
    <path
      d="M12.424 2.20748L10.9403 0.594392C10.9157 0.567566 10.8863 0.546284 10.8541 0.531762C10.8218 0.51724 10.7872 0.509766 10.7522 0.509766C10.7173 0.509766 10.6827 0.51724 10.6504 0.531762C10.6181 0.546284 10.5888 0.567566 10.5641 0.594392L4.29768 7.39241C4.273 7.41924 4.24368 7.44052 4.2114 7.45504C4.17912 7.46957 4.14451 7.47704 4.10956 7.47704C4.07461 7.47704 4.04001 7.46957 4.00773 7.45504C3.97545 7.44052 3.94613 7.41924 3.92144 7.39241L2.43774 5.77932C2.41306 5.7525 2.38374 5.73122 2.35146 5.71669C2.31918 5.70217 2.28457 5.6947 2.24962 5.6947C2.21467 5.6947 2.18006 5.70217 2.14778 5.71669C2.1155 5.73122 2.08618 5.7525 2.0615 5.77932L0.577795 7.39241C0.527983 7.44643 0.5 7.51969 0.5 7.59607C0.5 7.67245 0.527983 7.7457 0.577795 7.79972L3.92144 11.4251C3.94613 11.452 3.97545 11.4732 4.00773 11.4878C4.04001 11.5023 4.07461 11.5098 4.10956 11.5098C4.14451 11.5098 4.17912 11.5023 4.2114 11.4878C4.24368 11.4732 4.273 11.452 4.29768 11.4251L12.424 2.61075C12.4727 2.55691 12.5 2.48452 12.5 2.40912C12.5 2.33372 12.4727 2.26133 12.424 2.20748Z"
      fill="#5CBC6A"/>
  </g>
  <defs>
    <clipPath id="clip0_537_26">
      <rect width="12" height="12" fill="white" transform="translate(0.5 0.00976562)"/>
    </clipPath>
  </defs>
</svg>
