<svg xmlns="http://www.w3.org/2000/svg" width="12" height="12" viewBox="0 0 12 12" fill="none">
  <g clip-path="url(#clip0_118_190)">
    <path fill-rule="evenodd" clip-rule="evenodd"
          d="M5.40888 0.00791291C5.28142 0.0320665 5.15929 0.111737 5.08738 0.21763C5.06078 0.256793 5.02868 0.325831 5.01526 0.372718L5.00427 0.411118L5.00172 0.907918C4.99936 1.36721 4.99853 1.40606 4.99079 1.42254C4.97895 1.44775 4.9554 1.47312 4.93246 1.4854L4.9128 1.49592L3.4056 1.4986C1.76836 1.50151 1.87663 1.49967 1.74354 1.52686C1.38089 1.60095 1.06178 1.84414 0.889781 2.17752C0.822706 2.30753 0.787939 2.41442 0.76177 2.57112L0.751349 2.63352L0.748872 5.02152L0.7464 7.40952L0.735226 7.43221C0.722654 7.45773 0.702754 7.47643 0.6744 7.48936C0.658291 7.4967 0.642226 7.49813 0.574613 7.49821C0.476976 7.49834 0.415262 7.50473 0.361632 7.52027C0.147317 7.58238 0 7.77777 0 7.99992C0 8.24593 0.175037 8.4522 0.419429 8.49419C0.457051 8.50066 0.646042 8.50152 2.02855 8.50152H3.59505L3.60959 8.48832C3.62373 8.47548 3.62426 8.4734 3.62901 8.41272C3.64844 8.16442 3.73357 7.93925 3.88273 7.74166C3.92273 7.68869 3.9264 7.68 3.9264 7.63841C3.92639 7.57899 3.88878 7.5237 3.83618 7.50578C3.81667 7.49913 3.70742 7.49831 2.82995 7.49821C1.88772 7.49811 1.84478 7.49773 1.8264 7.48936C1.79752 7.47619 1.77812 7.45764 1.76437 7.43006L1.752 7.40523L1.75206 5.06018C1.75211 3.0428 1.75307 2.71152 1.75897 2.68935C1.76947 2.64992 1.78862 2.61464 1.81548 2.58525C1.84559 2.55231 1.86942 2.5358 1.9128 2.51783L1.9464 2.50392L5.48557 2.5027C8.60648 2.50162 9.02838 2.50232 9.05557 2.50863C9.14927 2.53036 9.2248 2.60779 9.24433 2.70215C9.2481 2.72035 9.2496 3.24125 9.2496 4.53155C9.2496 6.13315 9.25042 6.33783 9.2569 6.35619C9.26629 6.38281 9.28415 6.40603 9.30672 6.42097C9.31658 6.4275 9.49623 6.4936 9.70593 6.56786C9.91563 6.64212 10.0948 6.70572 10.104 6.70919C10.1558 6.72863 10.2127 6.70355 10.2393 6.64961L10.2504 6.62712V4.65192C10.2504 2.52778 10.2516 2.63629 10.2258 2.50632C10.1569 2.1597 9.94924 1.86459 9.64389 1.67926C9.47115 1.57442 9.28122 1.51603 9.07081 1.50307C9.02807 1.50044 8.3952 1.4985 7.5504 1.49842C6.53736 1.49831 6.09765 1.49672 6.0847 1.49313C6.06225 1.48689 6.02696 1.45539 6.0128 1.42893L6.0024 1.40952L5.99991 0.915118L5.99741 0.420718L5.98477 0.375118C5.93526 0.19651 5.80129 0.0627769 5.6256 0.0165961C5.56761 0.00135131 5.46514 -0.00275269 5.40888 0.00791291ZM8.2176 7.00193C8.211 7.00309 8.19696 7.00636 8.1864 7.00918C8.17584 7.01202 7.37448 7.29733 6.4056 7.64323C5.21935 8.06672 4.63511 8.27748 4.61677 8.28854C4.55682 8.3247 4.5113 8.395 4.50217 8.46552C4.49883 8.49129 4.49766 8.86364 4.4986 9.59832L4.5 10.6927L4.51048 10.7294C4.56831 10.9321 4.76663 11.0491 4.96778 10.9993C5.09736 10.9672 5.2008 10.8643 5.23971 10.7287C5.24828 10.6989 5.24873 10.6607 5.25002 9.85098C5.25131 9.05097 5.25184 9.00457 5.25969 9.00676C5.26426 9.00803 5.91708 9.28776 6.7104 9.62838C7.50372 9.96899 8.16453 10.2512 8.17887 10.2554C8.20857 10.2642 8.28037 10.2656 8.31332 10.258C8.34217 10.2513 11.8813 8.73465 11.9094 8.71689C11.9377 8.69906 11.9767 8.65788 11.9899 8.63215C11.9993 8.61373 12 8.60468 12 8.50619C12 8.43531 11.9982 8.3966 11.9945 8.3896C11.9914 8.38384 11.9793 8.36656 11.9676 8.35122C11.923 8.29309 12.0581 8.3442 10.1184 7.65155C9.1482 7.3051 8.34159 7.01759 8.32594 7.01265C8.29745 7.00364 8.24015 6.99797 8.2176 7.00193ZM2.22599 9.00757C2.20408 9.01539 2.17833 9.0345 2.1657 9.05231C2.15124 9.0727 1.01301 11.3565 1.0028 11.3856C0.968021 11.4847 0.97176 11.6205 1.01213 11.7247C1.05374 11.8321 1.14048 11.9303 1.23893 11.9815L1.27586 12.0007H1.47809H1.68032L1.70536 11.9881C1.79018 11.9453 1.8747 11.862 1.91891 11.7775C1.92443 11.767 2.07732 11.4613 2.25865 11.0983C2.43999 10.7353 2.59001 10.4362 2.59202 10.4335C2.59404 10.4309 2.73892 10.1425 2.91399 9.79272C3.22402 9.17325 3.23234 9.15591 3.23408 9.12552C3.23563 9.09866 3.23399 9.09065 3.22234 9.06795C3.20727 9.03861 3.17812 9.01358 3.14988 9.00574C3.13813 9.00248 2.9797 9.00083 2.688 9.00095C2.32959 9.0011 2.24053 9.00238 2.22599 9.00757ZM6.08637 9.92175C6.04865 9.93402 6.0211 9.95966 6.00757 9.99508C6.00026 10.0142 5.99972 10.0531 6.00135 10.4408C6.00332 10.9071 6.00161 10.8788 6.03352 10.9741C6.08576 11.13 6.19734 11.257 6.34858 11.3328C6.39359 11.3553 8.03805 11.9673 8.0832 11.9783C8.19218 12.0049 8.30763 12.0004 8.41444 11.9656C8.49184 11.9404 10.1212 11.3328 10.1536 11.3171C10.2978 11.2472 10.4167 11.1107 10.4688 10.9551C10.5002 10.8614 10.5 10.8647 10.5 10.4143V10.0063L10.4851 9.97992C10.468 9.94959 10.4428 9.93002 10.4098 9.92142C10.3904 9.91636 10.3825 9.91662 10.3594 9.92309C10.3443 9.9273 10.0685 10.0435 9.7464 10.1813C8.74674 10.6091 8.51407 10.7079 8.47553 10.7208C8.3277 10.7701 8.14459 10.7668 7.99956 10.7122C7.9815 10.7054 7.55617 10.5246 7.05437 10.3103C6.12285 9.91254 6.11919 9.91107 6.08637 9.92175Z"
          fill="white"/>
  </g>
  <defs>
    <clipPath id="clip0_118_190">
      <rect width="12" height="12" fill="white"/>
    </clipPath>
  </defs>
</svg>
