<svg width="18" height="18" viewBox="0 0 18 18" fill="none" xmlns="http://www.w3.org/2000/svg">
<path fill-rule="evenodd" clip-rule="evenodd" d="M8.64721 0.57294C8.48248 0.581767 8.32533 0.592351 8.22241 0.60156C6.59814 0.746842 5.03252 1.37614 3.74797 2.40008C3.33514 2.72915 2.92566 3.12609 2.5698 3.54218C1.87703 4.35222 1.33543 5.31509 0.992375 6.34658C0.790818 6.95261 0.658331 7.58886 0.601811 8.22218C0.576086 8.51051 0.572464 8.60645 0.572464 8.99978C0.572464 9.39312 0.576086 9.48906 0.601811 9.77738C0.746661 11.4005 1.37647 12.9674 2.40031 14.2518C2.72792 14.6628 3.1282 15.0758 3.54241 15.43C4.35204 16.1224 5.31494 16.664 6.34681 17.0074C6.95211 17.2088 7.58902 17.3415 8.22241 17.398C8.51074 17.4237 8.60668 17.4273 9.00001 17.4273C9.39335 17.4273 9.48929 17.4237 9.77761 17.398C11.4007 17.2531 12.9677 16.6233 14.2521 15.5995C14.6631 15.2719 15.076 14.8716 15.4302 14.4574C16.1226 13.6478 16.6642 12.6849 17.0076 11.653C17.209 11.0477 17.3417 10.4108 17.3982 9.77738C17.4239 9.48906 17.4276 9.39312 17.4276 8.99978C17.4276 8.60645 17.4239 8.51051 17.3982 8.22218C17.2534 6.59914 16.6235 5.03212 15.5997 3.74774C15.2721 3.33672 14.8718 2.9238 14.4576 2.56957C13.6479 1.87707 12.6852 1.33561 11.6532 0.992175C10.9847 0.769723 10.3424 0.643392 9.58699 0.585821C9.45257 0.575575 8.77204 0.566244 8.64721 0.57294ZM8.87041 1.5529C7.04762 1.57766 5.26959 2.29354 3.93462 3.54018C3.09978 4.31978 2.48284 5.222 2.06977 6.26738C1.77333 7.01761 1.61004 7.76706 1.56231 8.59658C1.55243 8.76814 1.55243 9.23142 1.56231 9.40298C1.61004 10.2325 1.77333 10.982 2.06977 11.7322C2.48284 12.7776 3.09978 13.6798 3.93462 14.4594C4.61176 15.0917 5.39507 15.5855 6.26761 15.93C7.0178 16.2262 7.77537 16.3913 8.59542 16.4374C8.77431 16.4475 9.22572 16.4475 9.40461 16.4374C10.432 16.3796 11.384 16.1299 12.3012 15.6776C12.8924 15.386 13.3993 15.0464 13.9168 14.595C14.0709 14.4606 14.4608 14.0706 14.5952 13.9166C15.0466 13.3991 15.3863 12.8922 15.6778 12.301C16.1302 11.3838 16.3799 10.4318 16.4376 9.40438C16.4477 9.22549 16.4477 8.77408 16.4376 8.59519C16.3797 7.5647 16.1291 6.61153 15.6742 5.69138C15.2746 4.88309 14.7446 4.17444 14.0654 3.54018C13.3883 2.90784 12.605 2.41408 11.7324 2.06959C10.8178 1.70849 9.88004 1.53919 8.87041 1.5529ZM8.87158 5.68801C8.78748 5.71005 8.724 5.74782 8.65421 5.81738C8.58385 5.88751 8.54706 5.95 8.52472 6.03735C8.51096 6.09114 8.51062 6.12754 8.51029 7.5856C8.50999 8.89821 8.51128 9.08385 8.52089 9.12093C8.53646 9.18102 8.55804 9.22734 8.59359 9.27698C8.61061 9.30074 9.44206 10.1371 10.4413 11.1355C12.417 13.1098 12.2825 12.9807 12.401 13.0168C12.6253 13.0851 12.8726 12.9814 12.9804 12.774C13.0215 12.6949 13.0344 12.6404 13.0344 12.5458C13.0344 12.4367 13.0087 12.3499 12.9519 12.2662C12.9433 12.2537 12.1608 11.4674 11.213 10.5189L9.48961 8.79448V7.44388C9.48961 6.12011 9.48933 6.09218 9.47531 6.03739C9.45314 5.95068 9.41612 5.88789 9.34561 5.81738C9.2751 5.74687 9.21231 5.70986 9.12561 5.68768C9.05188 5.66883 8.9443 5.66897 8.87158 5.68801Z" fill="#4D5358"/>
</svg>
