<svg width="16" height="16" viewBox="0 0 16 16" fill="none" xmlns="http://www.w3.org/2000/svg">
<path fill-rule="evenodd" clip-rule="evenodd" d="M7.94106 0.854934C7.88658 0.86742 7.84276 0.886836 7.79926 0.917772C7.77257 0.936744 7.24851 1.45727 6.31189 2.3951C5.20618 3.50224 4.86103 3.85122 4.84576 3.87746C4.7986 3.95857 4.78092 4.03328 4.78731 4.12447C4.79868 4.28683 4.91279 4.43311 5.06706 4.48309C5.12745 4.50266 5.23598 4.50531 5.30123 4.48881C5.41286 4.46058 5.32222 4.5454 6.53253 3.33653L7.62299 2.24734L7.62453 5.57724L7.62606 8.90714L7.6394 8.94614C7.65983 9.00589 7.69355 9.05855 7.7431 9.1081C7.82358 9.18857 7.89814 9.22156 8.01097 9.22661C8.13928 9.23235 8.23064 9.19734 8.31984 9.10826C8.36348 9.06468 8.37589 9.04765 8.39884 8.99984C8.41381 8.96866 8.42955 8.92964 8.43382 8.91314C8.44012 8.88881 8.44193 8.2569 8.44339 5.56826L8.44518 2.25338L9.52062 3.32778C10.1121 3.9187 10.6069 4.41036 10.6201 4.42036C10.694 4.47635 10.7681 4.50014 10.8688 4.50014C10.9454 4.50014 10.9864 4.49066 11.055 4.45708C11.0952 4.43736 11.116 4.42199 11.154 4.38364C11.2363 4.30054 11.2697 4.22705 11.2754 4.11614C11.2806 4.01294 11.2583 3.93319 11.2025 3.85591C11.1879 3.83569 10.5217 3.16546 9.72201 2.36651L8.26806 0.91389L8.21667 0.888936C8.18841 0.875208 8.14656 0.86001 8.12367 0.855162C8.0738 0.844596 7.98662 0.844488 7.94106 0.854934ZM0.82913 11.4247C0.69686 11.4624 0.588872 11.5682 0.547994 11.7001L0.534056 11.7451V12.3391C0.534056 12.9796 0.534332 12.9864 0.56786 13.1761C0.694466 13.8926 1.17337 14.5204 1.83606 14.8387C2.07225 14.9521 2.30093 15.0181 2.57706 15.0523C2.66023 15.0627 2.89994 15.0631 8.03106 15.0631C13.1641 15.0631 13.4018 15.0627 13.4851 15.0523C13.7649 15.0176 13.9895 14.9527 14.2282 14.8378C14.6709 14.6246 15.0255 14.2853 15.2595 13.8511C15.4036 13.5837 15.489 13.301 15.5234 12.9781C15.5317 12.9003 15.5336 12.7939 15.5353 12.3271C15.5365 11.9958 15.5351 11.7643 15.5318 11.7571C15.5288 11.7505 15.5218 11.7275 15.5163 11.7059C15.5006 11.6437 15.4641 11.5838 15.408 11.5281C15.3674 11.4878 15.3486 11.4744 15.3023 11.4522C15.2714 11.4373 15.2317 11.4222 15.2143 11.4186C15.1619 11.4079 15.0651 11.4106 15.0121 11.4241C14.8817 11.4575 14.767 11.5707 14.7263 11.7061C14.7129 11.751 14.7128 11.7524 14.7086 12.3451C14.7059 12.731 14.7021 12.9522 14.6979 12.9765C14.6472 13.2633 14.5482 13.4892 14.3842 13.6921C14.3414 13.7451 14.2399 13.8493 14.1841 13.8975C14.0271 14.0329 13.8067 14.146 13.5963 14.1989C13.5533 14.2098 13.4857 14.2237 13.4461 14.2299C13.3761 14.2408 13.226 14.2411 8.03106 14.2411C2.92804 14.2411 2.68495 14.2407 2.61906 14.2304C2.5299 14.2165 2.40011 14.1839 2.32631 14.1567C2.23683 14.1238 2.09586 14.0522 2.01606 13.9992C1.70905 13.7953 1.48489 13.4796 1.3977 13.1283C1.35603 12.9604 1.35724 12.9821 1.35307 12.3331C1.34893 11.689 1.35115 11.7266 1.31244 11.6445C1.26208 11.5378 1.16029 11.4523 1.04999 11.4241C0.987013 11.408 0.886646 11.4083 0.82913 11.4247ZM0.533936 12.3271C0.533936 12.6373 0.534662 12.7634 0.535556 12.6072C0.536444 12.451 0.536444 12.1972 0.535556 12.0432C0.534662 11.8892 0.533936 12.0169 0.533936 12.3271Z" fill="#0C1F22"/>
</svg>
