<svg width="32" height="29" viewBox="0 0 32 29" fill="none" xmlns="http://www.w3.org/2000/svg">
  <path
    d="M15.9996 0C13.1557 0.00028767 10.3632 0.687477 7.90975 1.99081C5.45629 3.29415 3.4305 5.16653 2.04093 7.41517C0.65137 9.66381 -0.0517378 12.2074 0.00400318 14.7842C0.0597441 17.3609 0.872319 19.8776 2.35806 22.0752L0.0722884 27.6017C0.00771995 27.7584 -0.0140554 27.9268 0.00882266 28.0927C0.0317007 28.2586 0.0985522 28.417 0.203666 28.5544C0.308779 28.6918 0.44903 28.8041 0.612437 28.8816C0.775845 28.9592 0.95755 28.9998 1.14203 29C1.21104 29.0005 1.27994 28.995 1.34775 28.9834L9.33197 27.666C11.4203 28.5465 13.6962 29.0018 15.9996 29C20.2431 29 24.3129 27.4723 27.3136 24.753C30.3142 22.0337 32 18.3456 32 14.5C32 10.6543 30.3142 6.96622 27.3136 4.24695C24.3129 1.52767 20.2431 0 15.9996 0ZM10.2851 14.6077C10.2547 15.1382 10.0004 15.6378 9.57503 16.0033C9.14962 16.3687 8.58554 16.5721 7.99936 16.5714H7.87821C7.42716 16.5492 6.99348 16.4064 6.63194 16.1609C6.2704 15.9155 5.9972 15.5785 5.84684 15.1925C5.69649 14.8065 5.67571 14.3888 5.78713 13.9921C5.89856 13.5954 6.1372 13.2375 6.47291 12.9636C6.80862 12.6897 7.22636 12.5121 7.67337 12.4532C8.12039 12.3943 8.57664 12.4567 8.98453 12.6326C9.39241 12.8085 9.73363 13.09 9.96512 13.4415C10.1966 13.7931 10.308 14.1989 10.2851 14.6077ZM18.2853 14.6077C18.2549 15.1382 18.0007 15.6378 17.5752 16.0033C17.1498 16.3687 16.5858 16.5721 15.9996 16.5714H15.8784C15.5779 16.5574 15.2834 16.4897 15.0118 16.3723C14.7402 16.2549 14.4969 16.09 14.2958 15.8871C14.0947 15.6843 13.9397 15.4475 13.8399 15.1902C13.74 14.933 13.6971 14.6604 13.7138 14.3881C13.7381 13.9792 13.8956 13.586 14.1664 13.2582C14.4372 12.9303 14.8092 12.6826 15.2353 12.5463C15.6614 12.41 16.1226 12.3911 16.5605 12.4922C16.9984 12.5933 17.3934 12.8097 17.6956 13.1142C17.8984 13.3152 18.055 13.5508 18.1563 13.8072C18.2575 14.0636 18.3014 14.3357 18.2853 14.6077ZM26.2856 14.6077C26.2551 15.1382 26.0009 15.6378 25.5755 16.0033C25.1501 16.3687 24.586 16.5721 23.9998 16.5714H23.8764C23.576 16.5571 23.2818 16.4892 23.0105 16.3717C22.7391 16.2542 22.4961 16.0893 22.2952 15.8864C22.0943 15.6836 21.9396 15.4469 21.8398 15.1898C21.7401 14.9327 21.6974 14.6602 21.714 14.3881C21.7512 13.8406 22.0244 13.3283 22.4747 12.9617C22.925 12.5951 23.5162 12.4036 24.1209 12.4286C24.421 12.4426 24.7152 12.5101 24.9864 12.6273C25.2577 12.7445 25.5008 12.9089 25.7019 13.1114C25.9029 13.3138 26.058 13.5501 26.1581 13.8069C26.2583 14.0636 26.3016 14.3358 26.2856 14.6077Z"
    fill="white"/>
</svg>
