<svg width="30" height="30" viewBox="0 0 30 30" fill="none" xmlns="http://www.w3.org/2000/svg">
<path fill-rule="evenodd" clip-rule="evenodd" d="M15.2584 0.0131434C12.4135 0.150915 9.73081 1.11966 7.45237 2.832C6.38598 3.63342 5.36097 4.67537 4.57229 5.75969C2.32121 8.85455 1.42558 12.7094 2.08396 16.4697C2.35187 17.9999 2.88203 19.5019 3.62726 20.8421L3.72314 21.0146L3.68138 21.1061C3.6584 21.1565 2.83889 22.8798 1.86023 24.9357C0.881567 26.9916 0.0641632 28.7196 0.0437872 28.7757C0.00854319 28.8727 0.00674319 28.8864 0.00683919 29.0577C0.00693519 29.2298 0.00867519 29.2427 0.0462712 29.3517C0.148127 29.6469 0.353519 29.8528 0.646007 29.9529C0.755567 29.9904 0.772199 29.9927 0.930371 29.9932C1.10527 29.9937 1.16537 29.9828 1.30237 29.9255C1.35764 29.9024 8.83257 26.3406 8.92917 26.2913L8.97198 26.2694L9.12117 26.3541C9.20323 26.4007 9.42157 26.5154 9.60637 26.6092C11.2256 27.4304 13.0006 27.9319 14.8084 28.0788C15.5464 28.1388 16.4265 28.1367 17.1544 28.0732C19.2415 27.8909 21.2437 27.255 23.0404 26.2037C23.7364 25.7964 24.4136 25.3175 25.0264 24.7991C25.5953 24.3178 26.2473 23.6611 26.7316 23.0817C28.328 21.1717 29.3864 18.8715 29.8023 16.4087C30.033 15.0423 30.0617 13.6159 29.8856 12.2637C29.5194 9.45118 28.3351 6.84833 26.4541 4.72169C26.179 4.41075 25.7003 3.92585 25.3984 3.65249C23.6742 2.09126 21.6011 0.981387 19.3624 0.421047C18.4343 0.188763 17.5507 0.0604834 16.5424 0.0116434C16.2624 -0.0019166 15.5522 -0.0010886 15.2584 0.0131434ZM15.5155 1.88463C12.2044 1.98314 9.04209 3.4626 6.83509 5.94569C5.3729 7.59081 4.40109 9.55317 3.97369 11.7237C3.74731 12.8733 3.69285 14.1185 3.81702 15.3057C4.00278 17.082 4.56785 18.7722 5.49303 20.3191C5.69184 20.6515 5.71837 20.7288 5.71837 20.9757C5.71837 21.1122 5.71393 21.1518 5.69017 21.2277C5.67465 21.2772 5.04698 22.6106 4.29533 24.1909C3.54368 25.7711 2.92998 27.0653 2.93154 27.0668C2.9331 27.0683 4.21957 26.4566 5.79037 25.7076C7.36117 24.9585 8.68469 24.3328 8.73151 24.317C8.84904 24.2774 9.00893 24.2608 9.12765 24.2758C9.3072 24.2985 9.39191 24.3331 9.65001 24.489C10.7028 25.125 11.8601 25.6039 13.0479 25.8951C13.7207 26.0601 14.3466 26.1582 15.1204 26.2202C15.3808 26.241 16.2319 26.2486 16.5304 26.2328C18.2372 26.142 19.7879 25.7436 21.2944 25.0086C22.9286 24.2113 24.3701 23.0495 25.5019 21.6177C26.936 19.8033 27.8276 17.5944 28.0617 15.2757C28.1345 14.5536 28.139 13.6947 28.0736 12.9717C27.6931 8.76276 25.1643 5.04977 21.3965 3.16751C19.9527 2.44627 18.4264 2.0269 16.8124 1.90799C16.6361 1.895 15.9756 1.87094 15.8764 1.87389C15.8467 1.87478 15.6843 1.8796 15.5155 1.88463ZM10.0624 12.6769C9.49395 12.7876 9.05071 13.2203 8.93581 13.7766C8.89131 13.992 8.9 14.2372 8.95955 14.4464C9.00321 14.5998 9.11688 14.8186 9.21763 14.9432C9.48839 15.278 9.88634 15.4677 10.3181 15.4677C11.138 15.4677 11.7889 14.7517 11.7116 13.9348C11.6546 13.3338 11.2458 12.8545 10.6573 12.6988C10.5615 12.6735 10.5094 12.6678 10.3444 12.6645C10.2108 12.6618 10.119 12.6658 10.0624 12.6769ZM15.6801 12.6781C15.1845 12.7715 14.7647 13.1375 14.6056 13.6146C14.4898 13.962 14.5153 14.3647 14.6732 14.6817C14.9117 15.1606 15.4052 15.4676 15.9364 15.4676C16.6193 15.4676 17.2063 14.9746 17.3234 14.3027C17.3498 14.1511 17.341 13.8725 17.3054 13.7301C17.1772 13.2181 16.7828 12.8236 16.2699 12.6946C16.1368 12.661 15.8179 12.6522 15.6801 12.6781ZM21.3082 12.6789C20.7355 12.7823 20.279 13.2424 20.1788 13.817C20.1412 14.0329 20.1612 14.311 20.2284 14.507C20.4254 15.0813 20.9604 15.4677 21.5584 15.4676C21.7686 15.4676 22.0085 15.4135 22.1824 15.3269C22.586 15.1259 22.8786 14.7311 22.9498 14.2917C23.0604 13.6092 22.6653 12.9533 22.0077 12.7277C21.8137 12.6612 21.5198 12.6406 21.3082 12.6789Z" fill="currentColor"/>
</svg>
