<svg width="18" height="19" viewBox="0 0 18 19" fill="none" xmlns="http://www.w3.org/2000/svg">
  <g clip-path="url(#clip0_1441_1046)">
    <path fill-rule="evenodd" clip-rule="evenodd"
          d="M1.37699 0.529936C1.08919 0.591586 0.871153 0.694672 0.639943 0.878416C0.314107 1.13735 0.082159 1.53394 0.019051 1.94002C0.00331895 2.04127 -0.00056905 3.53043 0.00353495 7.89802L0.00898895 13.721L0.0595689 13.883C0.0873969 13.9721 0.146707 14.1139 0.191383 14.198C0.464857 14.7133 0.968047 15.0587 1.5274 15.1152C1.62993 15.1255 2.08527 15.134 2.53928 15.134H3.36478L3.36988 16.5965L3.37499 18.059L3.42181 18.1588C3.52142 18.3712 3.67247 18.478 3.89722 18.495C4.00051 18.5028 4.05105 18.4978 4.11715 18.4733C4.17431 18.452 4.94023 17.8888 6.40954 16.7877L8.61609 15.134H12.4511C14.9898 15.134 16.3492 15.1276 16.4726 15.1152C16.8331 15.0788 17.1728 14.9232 17.4419 14.6712C17.6153 14.5088 17.7051 14.3929 17.8086 14.198C17.8909 14.043 17.982 13.7682 17.982 13.6751C17.982 13.6471 17.9901 13.6191 18 13.613C18.0119 13.6056 18.018 11.6445 18.018 7.7879C18.018 4.47681 18.0112 1.97807 18.0023 1.98362C17.9936 1.98896 17.9811 1.95267 17.9746 1.90299C17.9576 1.77521 17.8702 1.52795 17.7936 1.39095C17.5938 1.03358 17.2377 0.727468 16.8747 0.600946C16.5622 0.492028 17.1847 0.499876 8.98725 0.501496C2.40763 0.502774 1.48776 0.506212 1.37699 0.529936ZM1.46236 1.68867C1.33411 1.75277 1.23684 1.8536 1.17685 1.98466L1.13383 2.07862L1.1384 7.82782L1.14299 13.577L1.18327 13.6587C1.23905 13.772 1.35847 13.8883 1.47599 13.9441L1.57499 13.991L2.83499 14L4.09499 14.009L4.18499 14.057C4.30291 14.1198 4.39701 14.2196 4.45375 14.342L4.49963 14.441L4.49981 15.6245L4.49999 16.808L6.33187 15.4342C7.3394 14.6786 8.19192 14.0489 8.22637 14.0347C8.27976 14.0128 8.88853 14.0077 12.357 14L16.425 13.991L16.524 13.9441C16.6415 13.8883 16.7609 13.772 16.8167 13.6587L16.857 13.577L16.8616 7.82782L16.8661 2.07862L16.8231 1.98466C16.7631 1.8536 16.6659 1.75277 16.5376 1.68867L16.4282 1.63402H8.99999H1.57173L1.46236 1.68867ZM0.00888095 7.80802C0.00888095 11.0107 0.0109509 12.3209 0.0134889 10.7195C0.0160269 9.1182 0.0160269 6.49785 0.0134889 4.89652C0.0109509 3.2952 0.00888095 4.60537 0.00888095 7.80802ZM2.96099 9.14634C2.80005 9.19281 2.66804 9.30683 2.5964 9.46127C2.557 9.54623 2.55264 9.57593 2.55926 9.71453C2.5654 9.84315 2.57528 9.88594 2.61389 9.95128C2.67875 10.061 2.78192 10.1564 2.88899 10.2056L2.97899 10.247L5.85899 10.2524C7.96205 10.2563 8.76799 10.2522 8.84649 10.2372C9.31825 10.147 9.45949 9.53084 9.07561 9.23771C8.91418 9.11444 9.1185 9.12184 5.92321 9.12378C3.7963 9.12508 3.01398 9.13104 2.96099 9.14634ZM10.683 9.14704C10.5626 9.18536 10.5024 9.2244 10.417 9.31937C10.3184 9.42903 10.278 9.53877 10.278 9.69672C10.278 9.91625 10.4268 10.1343 10.6301 10.2127C10.7157 10.2458 10.7969 10.247 12.834 10.247H14.949L15.0332 10.2081C15.1591 10.1499 15.2698 10.0382 15.3264 9.91217C15.3691 9.81686 15.3748 9.78424 15.3692 9.6647C15.3646 9.56518 15.3512 9.50457 15.3209 9.44602C15.262 9.33212 15.1484 9.22131 15.0408 9.17256L14.949 9.13102L12.852 9.12758C11.1958 9.12485 10.7399 9.12895 10.683 9.14704ZM2.99418 11.4625C2.83929 11.4936 2.68253 11.6155 2.59802 11.7705C2.54735 11.8634 2.55079 12.1646 2.60363 12.263C2.65569 12.36 2.77282 12.4728 2.87615 12.5257L2.96099 12.569H5.08499C7.13087 12.569 7.21227 12.5678 7.29793 12.5347C7.4109 12.4912 7.53168 12.3802 7.59293 12.2637C7.63429 12.1851 7.64067 12.1514 7.6407 12.011C7.64072 11.8768 7.63368 11.8358 7.59959 11.7717C7.53623 11.6527 7.44087 11.5581 7.32889 11.5031L7.22699 11.453L5.14799 11.4503C4.00454 11.4488 3.03533 11.4543 2.99418 11.4625ZM8.91618 11.4628C8.74435 11.4968 8.6028 11.6149 8.52207 11.7917C8.48073 11.8822 8.47516 11.915 8.48074 12.0347C8.48542 12.1349 8.49876 12.1954 8.52911 12.254C8.58802 12.3679 8.70153 12.4787 8.80921 12.5275L8.90099 12.569H10.053C11.1917 12.569 11.2059 12.5686 11.2882 12.5306C11.6196 12.3773 11.7293 11.9587 11.5126 11.6748C11.4341 11.572 11.3046 11.4894 11.1816 11.4639C11.0688 11.4404 9.03417 11.4394 8.91618 11.4628ZM12.7262 11.4655C12.609 11.4921 12.4682 11.593 12.3957 11.7021C12.2309 11.9504 12.287 12.2811 12.5247 12.4626C12.6786 12.5801 12.6732 12.5797 13.871 12.5741L14.949 12.569L15.0408 12.5275C15.1484 12.4787 15.262 12.3679 15.3209 12.254C15.3512 12.1955 15.3646 12.1349 15.3692 12.0353C15.3748 11.9164 15.3691 11.883 15.3274 11.7902C15.2697 11.6615 15.1617 11.5508 15.039 11.4944L14.949 11.453L13.878 11.4501C13.2025 11.4482 12.7771 11.4539 12.7262 11.4655Z"
          fill="#878D96"/>
  </g>
  <defs>
    <clipPath id="clip0_1441_1046">
      <rect width="18" height="18" fill="white" transform="translate(0 0.5)"/>
    </clipPath>
  </defs>
</svg>
