<svg width="24" height="24" viewBox="0 0 24 24" fill="none" xmlns="http://www.w3.org/2000/svg">
<g clip-path="url(#clip0_967_5212)">
<path d="M20.4 7.64872H7.5V6.44872C7.49937 6.33036 7.52221 6.21304 7.56722 6.10356C7.61222 5.99408 7.67849 5.89461 7.76219 5.81091C7.84589 5.72721 7.94536 5.66094 8.05484 5.61594C8.16432 5.57093 8.28164 5.54809 8.4 5.54872H15.6C16.6337 5.54809 17.625 5.13732 18.3562 4.40659C19.0874 3.67585 19.4987 2.68486 19.5 1.65112C19.5 1.2533 19.342 0.871767 19.0607 0.590463C18.7794 0.309158 18.3978 0.151123 18 0.151123C17.6022 0.151123 17.2206 0.309158 16.9393 0.590463C16.658 0.871767 16.5 1.2533 16.5 1.65112C16.5 1.88877 16.4058 2.11671 16.238 2.28498C16.0701 2.45324 15.8424 2.54809 15.6048 2.54872H8.4048C7.89265 2.54809 7.38538 2.64834 6.91197 2.84376C6.43856 3.03917 6.00827 3.32591 5.64568 3.68761C5.28309 4.04931 4.99528 4.47889 4.79871 4.95182C4.60213 5.42475 4.50063 5.93177 4.5 6.44392V7.64392H3.6C3.12684 7.64392 2.65832 7.7372 2.22123 7.91842C1.78415 8.09963 1.38707 8.36524 1.05272 8.70004C0.718367 9.03484 0.453292 9.43226 0.272658 9.86959C0.0920235 10.3069 -0.000627684 10.7756 3.20029e-06 11.2487V20.2487C3.20029e-06 21.2035 0.379288 22.1192 1.05442 22.7943C1.72955 23.4694 2.64522 23.8487 3.6 23.8487H20.4C21.3548 23.8487 22.2705 23.4694 22.9456 22.7943C23.6207 22.1192 24 21.2035 24 20.2487V11.2487C24 10.776 23.9069 10.3078 23.726 9.87106C23.5451 9.43429 23.2799 9.03743 22.9456 8.70314C22.6113 8.36885 22.2144 8.10367 21.7777 7.92276C21.3409 7.74184 20.8728 7.64872 20.4 7.64872V7.64872ZM3.9 20.2487C3.60333 20.2487 3.31332 20.1608 3.06665 19.9959C2.81997 19.8311 2.62772 19.5968 2.51418 19.3227C2.40065 19.0487 2.37095 18.7471 2.42882 18.4561C2.4867 18.1651 2.62956 17.8978 2.83934 17.6881C3.04912 17.4783 3.3164 17.3354 3.60737 17.2775C3.89834 17.2197 4.19994 17.2494 4.47403 17.3629C4.74812 17.4764 4.98239 17.6687 5.14721 17.9154C5.31203 18.162 5.4 18.4521 5.4 18.7487C5.4 19.1465 5.24197 19.5281 4.96066 19.8094C4.67936 20.0907 4.29783 20.2487 3.9 20.2487ZM3.9 14.2487C3.60333 14.2487 3.31332 14.1607 3.06665 13.9959C2.81997 13.8311 2.62772 13.5968 2.51418 13.3227C2.40065 13.0487 2.37095 12.7471 2.42882 12.4561C2.4867 12.1651 2.62956 11.8978 2.83934 11.6881C3.04912 11.4783 3.3164 11.3354 3.60737 11.2775C3.89834 11.2197 4.19994 11.2494 4.47403 11.3629C4.74812 11.4764 4.98239 11.6687 5.14721 11.9154C5.31203 12.162 5.4 12.4521 5.4 12.7487C5.4 13.1465 5.24197 13.5281 4.96066 13.8094C4.67936 14.0907 4.29783 14.2487 3.9 14.2487V14.2487ZM14.7 11.2487C14.9967 11.2487 15.2867 11.3367 15.5334 11.5015C15.78 11.6663 15.9723 11.9006 16.0858 12.1747C16.1994 12.4488 16.2291 12.7504 16.1712 13.0414C16.1133 13.3323 15.9704 13.5996 15.7607 13.8094C15.5509 14.0192 15.2836 14.162 14.9926 14.2199C14.7017 14.2778 14.4001 14.2481 14.126 14.1345C13.8519 14.021 13.6176 13.8288 13.4528 13.5821C13.288 13.3354 13.2 13.0454 13.2 12.7487C13.2 12.3509 13.358 11.9694 13.6393 11.6881C13.9206 11.4068 14.3022 11.2487 14.7 11.2487V11.2487ZM9.3 11.2487C9.59667 11.2487 9.88668 11.3367 10.1334 11.5015C10.38 11.6663 10.5723 11.9006 10.6858 12.1747C10.7994 12.4488 10.8291 12.7504 10.7712 13.0414C10.7133 13.3323 10.5704 13.5996 10.3607 13.8094C10.1509 14.0192 9.88361 14.162 9.59264 14.2199C9.30167 14.2778 9.00007 14.2481 8.72598 14.1345C8.45189 14.021 8.21762 13.8288 8.0528 13.5821C7.88798 13.3354 7.8 13.0454 7.8 12.7487C7.8 12.3509 7.95804 11.9694 8.23934 11.6881C8.52065 11.4068 8.90218 11.2487 9.3 11.2487V11.2487ZM15.3 20.2487H8.7C8.30218 20.2487 7.92065 20.0907 7.63934 19.8094C7.35804 19.5281 7.2 19.1465 7.2 18.7487C7.2 18.3509 7.35804 17.9694 7.63934 17.6881C7.92065 17.4068 8.30218 17.2487 8.7 17.2487H15.3C15.6978 17.2487 16.0794 17.4068 16.3607 17.6881C16.642 17.9694 16.8 18.3509 16.8 18.7487C16.8 19.1465 16.642 19.5281 16.3607 19.8094C16.0794 20.0907 15.6978 20.2487 15.3 20.2487V20.2487ZM20.1 20.2487C19.8033 20.2487 19.5133 20.1608 19.2666 19.9959C19.02 19.8311 18.8277 19.5968 18.7142 19.3227C18.6007 19.0487 18.5709 18.7471 18.6288 18.4561C18.6867 18.1651 18.8296 17.8978 19.0393 17.6881C19.2491 17.4783 19.5164 17.3354 19.8074 17.2775C20.0983 17.2197 20.3999 17.2494 20.674 17.3629C20.9481 17.4764 21.1824 17.6687 21.3472 17.9154C21.512 18.162 21.6 18.4521 21.6 18.7487C21.6 19.1465 21.442 19.5281 21.1607 19.8094C20.8794 20.0907 20.4978 20.2487 20.1 20.2487V20.2487ZM20.1 14.2487C19.8033 14.2487 19.5133 14.1607 19.2666 13.9959C19.02 13.8311 18.8277 13.5968 18.7142 13.3227C18.6007 13.0487 18.5709 12.7471 18.6288 12.4561C18.6867 12.1651 18.8296 11.8978 19.0393 11.6881C19.2491 11.4783 19.5164 11.3354 19.8074 11.2775C20.0983 11.2197 20.3999 11.2494 20.674 11.3629C20.9481 11.4764 21.1824 11.6687 21.3472 11.9154C21.512 12.162 21.6 12.4521 21.6 12.7487C21.6 13.1465 21.442 13.5281 21.1607 13.8094C20.8794 14.0907 20.4978 14.2487 20.1 14.2487V14.2487Z" fill="#212B3D"/>
</g>
<defs>
<clipPath id="clip0_967_5212">
<rect width="24" height="24" fill="white"/>
</clipPath>
</defs>
</svg>
