<svg width="18" height="18" viewBox="0 0 18 18" fill="none" xmlns="http://www.w3.org/2000/svg">
<path fill-rule="evenodd" clip-rule="evenodd" d="M16.4465 9.07589C16.4293 9.18379 16.3896 9.25782 16.3022 9.34521C16.233 9.41438 16.1974 9.43711 16.104 9.47203C16.069 9.48511 15.9452 9.48553 11.6905 9.48732L7.3131 9.48915L8.24631 10.4233L9.17952 11.3575L9.21295 11.4259C9.28692 11.5773 9.28396 11.7419 9.20467 11.8867C9.16489 11.9593 9.0702 12.049 8.99399 12.0863C8.85305 12.1552 8.6975 12.1554 8.55479 12.0868L8.49359 12.0574L7.10337 10.667C5.74668 9.3102 5.71253 9.27538 5.6868 9.22268C5.64889 9.14503 5.63601 9.08839 5.63601 8.99948C5.63601 8.91057 5.6489 8.85392 5.68681 8.77628C5.71254 8.72359 5.74688 8.68857 7.09978 7.33531C8.61196 5.82273 8.5103 5.91912 8.63399 5.88067C8.6779 5.86702 8.70413 5.86388 8.77439 5.86388C8.87369 5.86388 8.93541 5.87906 9.01559 5.92324C9.07689 5.957 9.17093 6.05107 9.20458 6.11228C9.28395 6.25665 9.28695 6.42162 9.21295 6.57308L9.17952 6.64148L8.24631 7.57564L7.3131 8.50981L11.6905 8.51164C15.9452 8.51343 16.069 8.51385 16.104 8.52693C16.1974 8.56185 16.233 8.58458 16.3022 8.65375C16.376 8.72759 16.405 8.77353 16.4308 8.85765C16.4476 8.91283 16.4554 9.02004 16.4465 9.07589ZM2.52777 16.6525C2.50987 16.7436 2.47118 16.8209 2.40941 16.8891C2.21504 17.1034 1.89959 17.1116 1.6954 16.9075C1.64651 16.8586 1.6309 16.837 1.60429 16.7814C1.58663 16.7445 1.56781 16.6965 1.56248 16.6747C1.54801 16.6155 1.54801 1.38342 1.56248 1.32428C1.56781 1.3025 1.58663 1.25447 1.60429 1.21757C1.6621 1.09677 1.78563 0.994282 1.91279 0.96163C2.16953 0.8957 2.42764 1.03454 2.51226 1.28412L2.53199 1.34228L2.53301 8.98148C2.53358 13.2858 2.53129 16.6346 2.52777 16.6525Z" fill="#343A3F"/>
</svg>
