<svg width="16" height="16" viewBox="0 0 16 16" fill="none" xmlns="http://www.w3.org/2000/svg">
<g clip-path="url(#clip0_539_3067)">
<path d="M8.66668 7.24183L1.66668 0.923167C1.52204 0.793769 1.34287 0.709256 1.15102 0.679936C0.95917 0.650615 0.762935 0.677754 0.586246 0.758041C0.409556 0.838329 0.260048 0.968296 0.155952 1.13209C0.0518573 1.29589 -0.00232559 1.48644 1.15023e-05 1.6805V14.3192C-0.00232559 14.5132 0.0518573 14.7038 0.155952 14.8676C0.260048 15.0314 0.409556 15.1613 0.586246 15.2416C0.762935 15.3219 0.95917 15.3491 1.15102 15.3197C1.34287 15.2904 1.52204 15.2059 1.66668 15.0765L8.66668 8.75783C8.77217 8.66174 8.85644 8.54469 8.9141 8.41417C8.97176 8.28365 9.00154 8.14253 9.00154 7.99983C9.00154 7.85714 8.97176 7.71602 8.9141 7.5855C8.85644 7.45497 8.77217 7.33792 8.66668 7.24183V7.24183Z" fill="#212B3D"/>
<path d="M11.3333 0H16V16H11.3333V0Z" fill="#212B3D"/>
</g>
<defs>
<clipPath id="clip0_539_3067">
<rect width="16" height="16" fill="white"/>
</clipPath>
</defs>
</svg>
