<svg width="16" height="16" viewBox="0 0 16 16" fill="none" xmlns="http://www.w3.org/2000/svg">

<path d="M14.3334 0.923167L7.33335 7.24183C7.22824 7.33808 7.14431 7.45515 7.08689 7.58558C7.02947 7.71602 6.99982 7.85698 6.99982 7.9995C6.99982 8.14202 7.02947 8.28298 7.08689 8.41342C7.14431 8.54385 7.22824 8.66092 7.33335 8.75717L14.3334 15.0765C14.478 15.2059 14.6572 15.2904 14.849 15.3197C15.0409 15.3491 15.2371 15.3219 15.4138 15.2416C15.5905 15.1613 15.74 15.0314 15.8441 14.8676C15.9482 14.7038 16.0024 14.5132 16 14.3192V1.6805C16.0024 1.48644 15.9482 1.29589 15.8441 1.13209C15.74 0.968296 15.5905 0.838329 15.4138 0.758041C15.2371 0.677754 15.0409 0.650615 14.849 0.679936C14.6572 0.709256 14.478 0.793769 14.3334 0.923167V0.923167Z" fill="#212B3D"/>
<path d="M0 0H4.66667V16H0V0Z" fill="#212B3D"/>






</svg>
