<svg width="16" height="16" viewBox="0 0 16 16" fill="none" xmlns="http://www.w3.org/2000/svg">
<path d="M2.10998 4.28826C2.08602 4.2645 2.05544 4.24854 2.02224 4.24247C1.98905 4.23641 1.9548 4.24052 1.92398 4.25426C1.74799 4.33322 1.59859 4.46139 1.49379 4.62332C1.38899 4.78525 1.33326 4.97404 1.33331 5.16693V11.1669C1.33331 11.4321 1.43867 11.6865 1.62621 11.874C1.81374 12.0616 2.0681 12.1669 2.33331 12.1669H9.58598C9.61899 12.167 9.65127 12.1572 9.67873 12.1389C9.70619 12.1206 9.7276 12.0946 9.74024 12.0641C9.75288 12.0336 9.75618 12 9.74973 11.9677C9.74327 11.9353 9.72735 11.9056 9.70398 11.8823L2.10998 4.28826Z" fill="#212B3D"/>
<path d="M14.4913 4.96739L12.4913 6.10806C12.3433 6.19141 12.2199 6.31236 12.1337 6.45869C12.0474 6.60501 12.0013 6.77153 12 6.94139V9.39206C12.0014 9.5619 12.0476 9.72836 12.1338 9.87466C12.2201 10.021 12.3434 10.1419 12.4913 10.2254L14.4913 11.3661C14.6411 11.4547 14.8115 11.5026 14.9855 11.5052C15.1595 11.5078 15.3312 11.4649 15.4836 11.3808C15.636 11.2967 15.7638 11.1743 15.8543 11.0257C15.9449 10.8771 15.9951 10.7074 16 10.5334V5.80006C15.9951 5.62608 15.9449 5.45639 15.8543 5.30776C15.7638 5.15914 15.636 5.03672 15.4836 4.95262C15.3312 4.86852 15.1595 4.82564 14.9855 4.82824C14.8115 4.83083 14.6411 4.87879 14.4913 4.96739V4.96739Z" fill="#212B3D"/>
<path d="M11.382 10.4396C11.3665 10.4241 11.3543 10.4057 11.3459 10.3854C11.3376 10.3652 11.3333 10.3435 11.3334 10.3216V5.1669C11.3334 4.90169 11.228 4.64733 11.0405 4.4598C10.8529 4.27226 10.5986 4.1669 10.3334 4.1669H5.17871C5.1568 4.16698 5.13509 4.16272 5.11484 4.15436C5.09459 4.14601 5.07619 4.13373 5.06071 4.11824L1.13804 0.195569C1.02852 0.0861327 0.884323 0.018228 0.730198 0.00350884C0.576072 -0.0112103 0.421629 0.028174 0.293374 0.114903C0.258177 0.138561 0.225356 0.165576 0.195374 0.195569C0.0703934 0.320588 0.000183105 0.490127 0.000183105 0.666903C0.000183105 0.843679 0.0703934 1.01322 0.195374 1.13824L14.862 15.8049C14.9878 15.9263 15.1562 15.9935 15.331 15.992C15.5058 15.9905 15.673 15.9204 15.7966 15.7968C15.9202 15.6732 15.9903 15.506 15.9918 15.3312C15.9933 15.1564 15.9261 14.988 15.8047 14.8622L11.382 10.4396Z" fill="#212B3D"/>
</svg>
