<svg width="16" height="16" viewBox="0 0 16 16" fill="none" xmlns="http://www.w3.org/2000/svg">
<g clip-path="url(#clip0_539_3065)">
<path d="M14.3333 0.923167L9.27865 5.48783C9.25475 5.50952 9.22508 5.5238 9.19322 5.52894C9.16137 5.53409 9.1287 5.52987 9.0992 5.51682C9.06969 5.50376 9.04461 5.48241 9.027 5.45537C9.00938 5.42834 9 5.39677 8.99998 5.3645V1.6805C9.00232 1.48644 8.94814 1.29589 8.84404 1.13209C8.73995 0.968296 8.59044 0.838329 8.41375 0.758041C8.23706 0.677754 8.04082 0.650615 7.84898 0.679936C7.65713 0.709256 7.47796 0.793769 7.33332 0.923167L0.336649 7.24183C0.23154 7.33808 0.147608 7.45515 0.0901868 7.58558C0.0327659 7.71602 0.00311279 7.85698 0.00311279 7.9995C0.00311279 8.14202 0.0327659 8.28298 0.0901868 8.41342C0.147608 8.54385 0.23154 8.66092 0.336649 8.75717L7.33332 15.0758C7.47796 15.2052 7.65713 15.2897 7.84898 15.3191C8.04082 15.3484 8.23706 15.3212 8.41375 15.241C8.59044 15.1607 8.73995 15.0307 8.84404 14.8669C8.94814 14.7031 9.00232 14.5126 8.99998 14.3185V10.6352C9 10.6029 9.00938 10.5713 9.027 10.5443C9.04461 10.5173 9.06969 10.4959 9.0992 10.4829C9.1287 10.4698 9.16137 10.4656 9.19322 10.4707C9.22508 10.4759 9.25475 10.4901 9.27865 10.5118L14.3333 15.0758C14.478 15.2052 14.6571 15.2897 14.849 15.3191C15.0408 15.3484 15.2371 15.3212 15.4137 15.241C15.5904 15.1607 15.7399 15.0307 15.844 14.8669C15.9481 14.7031 16.0023 14.5126 16 14.3185V1.6805C16.0023 1.48644 15.9481 1.29589 15.844 1.13209C15.7399 0.968296 15.5904 0.838329 15.4137 0.758041C15.2371 0.677754 15.0408 0.650615 14.849 0.679936C14.6571 0.709256 14.478 0.793769 14.3333 0.923167V0.923167Z" fill="#212B3D"/>
</g>
<defs>
<clipPath id="clip0_539_3065">
<rect width="16" height="16" fill="white"/>
</clipPath>
</defs>
</svg>
