<svg width="16" height="16" viewBox="0 0 16 16" fill="none" xmlns="http://www.w3.org/2000/svg">

<path d="M15.4267 7.0723L1.502 0.109637C1.34369 0.0309381 1.16793 -0.00607939 0.991329 0.00208585C0.814728 0.0102511 0.643129 0.0633291 0.49276 0.1563C0.342391 0.249271 0.218223 0.379062 0.131998 0.533399C0.0457726 0.687735 0.000341212 0.861515 0 1.0383L0 14.963C0.000271744 15.1398 0.04567 15.3136 0.131895 15.4679C0.218121 15.6223 0.342319 15.7521 0.492728 15.845C0.643138 15.9379 0.814779 15.9909 0.991397 15.999C1.16802 16.007 1.34376 15.9698 1.502 15.891L15.4267 8.92897C15.599 8.84275 15.744 8.71023 15.8453 8.54627C15.9466 8.38231 16.0003 8.19338 16.0003 8.00064C16.0003 7.8079 15.9466 7.61897 15.8453 7.45501C15.744 7.29104 15.599 7.15853 15.4267 7.0723V7.0723Z" fill="#212B3D"/>






</svg>
