<svg width="16" height="16" viewBox="0 0 16 16" fill="none" xmlns="http://www.w3.org/2000/svg">
<g clip-path="url(#clip0_539_3064)">
<path d="M15.6667 7.24336L8.6667 0.922694C8.52197 0.793215 8.34267 0.708676 8.1507 0.679399C7.95873 0.650122 7.76239 0.677374 7.58564 0.757827C7.4089 0.838281 7.25941 0.968454 7.15541 1.13245C7.05142 1.29645 6.99743 1.48719 7.00003 1.68136V5.36469C7.00014 5.39702 6.99085 5.42868 6.97329 5.45582C6.95573 5.48295 6.93065 5.5044 6.90112 5.51754C6.87159 5.53068 6.83887 5.53495 6.80695 5.52983C6.77504 5.52471 6.7453 5.51042 6.72136 5.48869L1.6667 0.922694C1.52197 0.793215 1.34267 0.708676 1.1507 0.679399C0.958729 0.650122 0.762385 0.677374 0.585642 0.757827C0.4089 0.838281 0.259406 0.968454 0.155413 1.13245C0.0514205 1.29645 -0.00257174 1.48719 2.86603e-05 1.68136V14.3194C-0.00230844 14.5134 0.0518745 14.704 0.15597 14.8678C0.260065 15.0316 0.409574 15.1615 0.586263 15.2418C0.762952 15.3221 0.959187 15.3492 1.15103 15.3199C1.34288 15.2906 1.52205 15.2061 1.6667 15.0767L6.72203 10.512C6.74597 10.4903 6.7757 10.476 6.80762 10.4709C6.83954 10.4658 6.87225 10.47 6.90179 10.4832C6.93132 10.4963 6.95639 10.5178 6.97396 10.5449C6.99152 10.572 7.00081 10.6037 7.0007 10.636V14.3194C6.99848 14.5133 7.0527 14.7037 7.15676 14.8674C7.26083 15.031 7.41024 15.1609 7.5868 15.2412C7.76336 15.3214 7.95945 15.3486 8.15119 15.3194C8.34292 15.2902 8.52203 15.2059 8.6667 15.0767L15.6667 8.75736C15.7718 8.66123 15.8557 8.54428 15.9131 8.41395C15.9705 8.28362 16.0001 8.14277 16.0001 8.00036C16.0001 7.85795 15.9705 7.7171 15.9131 7.58677C15.8557 7.45644 15.7718 7.33949 15.6667 7.24336V7.24336Z" fill="#212B3D"/>
</g>
<defs>
<clipPath id="clip0_539_3064">
<rect width="16" height="16" fill="white"/>
</clipPath>
</defs>
</svg>
