<svg width="13" height="12" viewBox="0 0 13 12" fill="none" xmlns="http://www.w3.org/2000/svg">
  <g>
    <mask id="path-1-inside-1_2875_32254" fill="white">
      <path
        d="M7.625 3L7.02806 0.487333C6.97455 0.344214 6.8786 0.220854 6.75306 0.133761C6.62751 0.0466691 6.47836 0 6.32556 0C6.17277 0 6.02362 0.0466691 5.89807 0.133761C5.77253 0.220854 5.67658 0.344214 5.62306 0.487333L5.62056 0.495333L4.53056 3.58383C4.5134 3.6326 4.48153 3.67485 4.43936 3.70476C4.39718 3.73467 4.34677 3.75077 4.29506 3.75083H1.25056C1.09647 3.75072 0.946086 3.79807 0.819856 3.88644C0.693626 3.97482 0.597681 4.09993 0.54507 4.24476C0.492458 4.38959 0.485734 4.54711 0.525812 4.6959C0.56589 4.84469 0.650825 4.97752 0.769064 5.07633L3.36106 7.22633L7.625 3Z"/>
    </mask>
    <path
      d="M7.625 3L7.02806 0.487333C6.97455 0.344214 6.8786 0.220854 6.75306 0.133761C6.62751 0.0466691 6.47836 0 6.32556 0C6.17277 0 6.02362 0.0466691 5.89807 0.133761C5.77253 0.220854 5.67658 0.344214 5.62306 0.487333L5.62056 0.495333L4.53056 3.58383C4.5134 3.6326 4.48153 3.67485 4.43936 3.70476C4.39718 3.73467 4.34677 3.75077 4.29506 3.75083H1.25056C1.09647 3.75072 0.946086 3.79807 0.819856 3.88644C0.693626 3.97482 0.597681 4.09993 0.54507 4.24476C0.492458 4.38959 0.485734 4.54711 0.525812 4.6959C0.56589 4.84469 0.650825 4.97752 0.769064 5.07633L3.36106 7.22633L7.625 3Z"
      fill="#636D7D"/>
    <path
      d="M7.625 3L8.09431 3.47349L8.36012 3.21003L8.27361 2.84591L7.625 3ZM7.02806 0.487333L7.67668 0.333242L7.66707 0.292793L7.65251 0.253852L7.02806 0.487333ZM5.62306 0.487333L4.99862 0.253852L4.99221 0.270998L4.98675 0.288471L5.62306 0.487333ZM5.62056 0.495333L6.24923 0.717203L6.25326 0.705769L6.25688 0.694196L5.62056 0.495333ZM4.53056 3.58383L3.9019 3.36196L3.90171 3.3625L4.53056 3.58383ZM4.29506 3.75083V4.4175L4.29592 4.4175L4.29506 3.75083ZM1.25056 3.75083L1.25006 4.4175H1.25056V3.75083ZM0.769064 5.07633L0.341562 5.58789L0.343444 5.58945L0.769064 5.07633ZM3.36106 7.22633L2.93544 7.73945L3.40088 8.12552L3.83038 7.69982L3.36106 7.22633ZM8.27361 2.84591L7.67668 0.333242L6.37945 0.641425L6.97639 3.15409L8.27361 2.84591ZM7.65251 0.253852C7.55143 -0.0164841 7.37019 -0.249498 7.13305 -0.414006L6.37306 0.681529C6.38701 0.691206 6.39767 0.704913 6.40362 0.720815L7.65251 0.253852ZM7.13305 -0.414006C6.89591 -0.578514 6.61418 -0.666667 6.32556 -0.666667V0.666667C6.34254 0.666667 6.35911 0.671852 6.37306 0.681529L7.13305 -0.414006ZM6.32556 -0.666667C6.03695 -0.666667 5.75522 -0.578514 5.51808 -0.414006L6.27807 0.681529C6.29201 0.671852 6.30859 0.666667 6.32556 0.666667V-0.666667ZM5.51808 -0.414006C5.28094 -0.249498 5.0997 -0.0164841 4.99862 0.253852L6.24751 0.720815C6.25345 0.704913 6.26412 0.691206 6.27807 0.681529L5.51808 -0.414006ZM4.98675 0.288471L4.98425 0.296471L6.25688 0.694196L6.25938 0.686196L4.98675 0.288471ZM4.9919 0.273464L3.9019 3.36196L5.15923 3.8057L6.24923 0.717203L4.9919 0.273464ZM3.90171 3.3625C3.93032 3.28121 3.98343 3.2108 4.05372 3.16095L4.82499 4.24858C4.97963 4.13891 5.09648 3.984 5.15942 3.80517L3.90171 3.3625ZM4.05372 3.16095C4.12402 3.1111 4.20804 3.08428 4.29421 3.08417L4.29592 4.4175C4.4855 4.41726 4.67034 4.35824 4.82499 4.24858L4.05372 3.16095ZM4.29506 3.08417H1.25056V4.4175H4.29506V3.08417ZM1.25107 3.08417C0.960005 3.08395 0.67594 3.17339 0.437505 3.34032L1.20221 4.43257C1.21623 4.42275 1.23294 4.41749 1.25006 4.4175L1.25107 3.08417ZM0.437505 3.34032C0.199072 3.50725 0.017842 3.74357 -0.0815352 4.01714L1.17167 4.47238C1.17752 4.45629 1.18818 4.44239 1.20221 4.43257L0.437505 3.34032ZM-0.0815352 4.01714C-0.180912 4.29071 -0.193613 4.58825 -0.11791 4.8693L1.16953 4.52251C1.16508 4.50598 1.16583 4.48847 1.17167 4.47238L-0.0815352 4.01714ZM-0.11791 4.8693C-0.0422075 5.15034 0.118225 5.40125 0.341565 5.58789L1.19656 4.56478C1.18342 4.5538 1.17399 4.53904 1.16953 4.52251L-0.11791 4.8693ZM0.343444 5.58945L2.93544 7.73945L3.78668 6.71321L1.19468 4.56321L0.343444 5.58945ZM3.83038 7.69982L8.09431 3.47349L7.15569 2.52651L2.89175 6.75284L3.83038 7.69982Z"
      fill="#636D7D" mask="url(#path-1-inside-1_2875_32254)"/>
    <path
      d="M12.103 4.24098C12.0496 4.09748 11.9537 3.97369 11.8281 3.88614C11.7025 3.79858 11.5531 3.75143 11.4 3.75098H8.35652L4.19079 8.25024L2.34952 10.7635C2.29919 10.9145 2.2982 11.0775 2.34668 11.2291C2.39517 11.3807 2.49062 11.5129 2.61922 11.6067C2.74783 11.7005 2.90292 11.7509 3.06207 11.7506C3.22122 11.7504 3.37618 11.6996 3.50452 11.6055L6.17752 9.64548C6.22039 9.61407 6.27214 9.59714 6.32527 9.59714C6.37841 9.59714 6.43016 9.61407 6.47302 9.64548L9.14502 11.605C9.27331 11.6994 9.42834 11.7505 9.58763 11.751C9.74693 11.7514 9.90222 11.7011 10.031 11.6073C10.1598 11.5136 10.2554 11.3812 10.3039 11.2295C10.3525 11.0778 10.3515 10.9146 10.301 10.7635L9.21202 7.49598C9.19608 7.44818 9.19495 7.39669 9.20878 7.34824C9.22261 7.29979 9.25075 7.25665 9.28952 7.22448L11.8865 5.07148C12.0032 4.97183 12.0866 4.83877 12.1253 4.69026C12.164 4.54174 12.1562 4.38493 12.103 4.24098Z"
      fill="#636D7D"/>
    <path
      d="M12.3534 0.854288C12.4471 0.760524 12.4998 0.63337 12.4998 0.500788C12.4998 0.368205 12.4471 0.241051 12.3534 0.147288C12.259 0.054758 12.1321 0.00292969 11.9999 0.00292969C11.8677 0.00292969 11.7408 0.054758 11.6464 0.147288L0.646393 11.1473C0.552658 11.2411 0.5 11.3682 0.5 11.5008C0.5 11.6334 0.552658 11.7605 0.646393 11.8543C0.668815 11.8767 0.693251 11.8969 0.719393 11.9148C0.81563 11.98 0.931567 12.0096 1.04727 11.9985C1.16298 11.9875 1.27122 11.9365 1.35339 11.8543L4.41139 8.79629C6.13441 7.08263 5.77461 7.44555 7.91139 5.29629L12.3534 0.854288Z"
      fill="#636D7D"/>
  </g>
  <defs>
    <clipPath id="clip0_2875_32254">
      <rect width="12" height="12" fill="white" transform="translate(0.5)"/>
    </clipPath>
  </defs>
</svg>
