<svg width="16" height="16" viewBox="0 0 16 16" fill="none" xmlns="http://www.w3.org/2000/svg">

<path d="M13.6567 2.34077C12.3472 1.03044 10.6238 0.214739 8.78027 0.032672C6.93673 -0.149395 5.08709 0.313438 3.54656 1.3423C2.00602 2.37116 0.869925 3.90239 0.331863 5.67504C-0.2062 7.44769 -0.112929 9.35207 0.59578 11.0637C1.30449 12.7752 2.58478 14.1881 4.21848 15.0615C5.85218 15.9349 7.73819 16.2148 9.55512 15.8534C11.372 15.4921 13.0075 14.5119 14.1827 13.0799C15.3579 11.6478 16.0001 9.85262 16 8.00011C16 5.87762 15.1571 3.84201 13.6567 2.34077V2.34077ZM12.4787 12.4808C11.4419 13.5186 10.0774 14.1648 8.61758 14.3092C7.15777 14.4536 5.69305 14.0874 4.47303 13.2728C3.25301 12.4583 2.3532 11.2459 1.92693 9.84228C1.50067 8.43865 1.57433 6.93062 2.13537 5.57522C2.69641 4.21981 3.71011 3.10089 5.0037 2.40915C6.2973 1.71741 7.79075 1.49565 9.22953 1.78167C10.6683 2.0677 11.9634 2.84379 12.8941 3.97771C13.8247 5.11162 14.3334 6.53317 14.3334 8.00011C14.3335 9.68045 13.6664 11.2921 12.4787 12.4808Z" fill="#212B3D"/>
<path d="M11.3247 4.67346C11.1654 4.51469 10.9497 4.42554 10.7247 4.42554C10.4998 4.42554 10.2841 4.51469 10.1247 4.67346L8.00675 6.79146L5.88608 4.67346C5.72524 4.51973 5.5106 4.43508 5.28812 4.43762C5.06564 4.44017 4.853 4.52971 4.69572 4.68708C4.53843 4.84445 4.44901 5.05715 4.44658 5.27963C4.44416 5.50211 4.52893 5.7167 4.68275 5.87746L6.80008 7.99546L4.68275 10.1141C4.52893 10.2749 4.44416 10.4895 4.44658 10.712C4.44901 10.9344 4.53843 11.1471 4.69572 11.3045C4.853 11.4619 5.06564 11.5514 5.28812 11.554C5.5106 11.5565 5.72524 11.4719 5.88608 11.3181L8.00342 9.20012L10.1214 11.3188C10.2839 11.4632 10.4954 11.54 10.7127 11.5334C10.93 11.5268 11.1365 11.4374 11.29 11.2834C11.4434 11.1295 11.5322 10.9227 11.538 10.7054C11.5438 10.4881 11.4664 10.2768 11.3214 10.1148L9.20408 7.99612L11.3214 5.87812C11.4816 5.7188 11.5719 5.50239 11.5725 5.27648C11.5731 5.05058 11.484 4.83367 11.3247 4.67346V4.67346Z" fill="#212B3D"/>






</svg>
