<svg width="16" height="16" viewBox="0 0 16 16" fill="none" xmlns="http://www.w3.org/2000/svg">
<path d="M16 4.85714C16 4.62981 15.9097 4.4118 15.7489 4.25105C15.5882 4.09031 15.3702 4 15.1429 4H12C11.9242 4 11.8516 3.9699 11.798 3.91632C11.7444 3.86273 11.7143 3.79006 11.7143 3.71429C11.7143 2.7292 11.323 1.78445 10.6264 1.08789C9.92983 0.391325 8.98509 0 8 0C7.01491 0 6.07017 0.391325 5.3736 1.08789C4.67704 1.78445 4.28571 2.7292 4.28571 3.71429C4.28571 3.79006 4.25561 3.86273 4.20203 3.91632C4.14845 3.9699 4.07578 4 4 4H0.857143C0.629814 4 0.411797 4.09031 0.251051 4.25105C0.0903059 4.4118 0 4.62981 0 4.85714C0 5.08447 0.0903059 5.30249 0.251051 5.46323C0.411797 5.62398 0.629814 5.71429 0.857143 5.71429H2C2.07578 5.71429 2.14845 5.74439 2.20203 5.79797C2.25561 5.85155 2.28571 5.92422 2.28571 6V14.2857C2.28571 14.7404 2.46633 15.1764 2.78782 15.4979C3.10931 15.8194 3.54534 16 4 16H12C12.4547 16 12.8907 15.8194 13.2122 15.4979C13.5337 15.1764 13.7143 14.7404 13.7143 14.2857V6C13.7143 5.92422 13.7444 5.85155 13.798 5.79797C13.8516 5.74439 13.9242 5.71429 14 5.71429H15.1429C15.3702 5.71429 15.5882 5.62398 15.7489 5.46323C15.9097 5.30249 16 5.08447 16 4.85714V4.85714ZM6 3.71429C6 3.18385 6.21071 2.67515 6.58579 2.30007C6.96086 1.925 7.46957 1.71429 8 1.71429C8.53043 1.71429 9.03914 1.925 9.41421 2.30007C9.78929 2.67515 10 3.18385 10 3.71429C10 3.79006 9.9699 3.86273 9.91632 3.91632C9.86274 3.9699 9.79006 4 9.71429 4H6.28571C6.20994 4 6.13727 3.9699 6.08368 3.91632C6.0301 3.86273 6 3.79006 6 3.71429ZM6.57143 12.5714C6.57143 12.7988 6.48112 13.0168 6.32038 13.1775C6.15963 13.3383 5.94161 13.4286 5.71429 13.4286C5.48696 13.4286 5.26894 13.3383 5.10819 13.1775C4.94745 13.0168 4.85714 12.7988 4.85714 12.5714V8C4.85714 7.77267 4.94745 7.55465 5.10819 7.39391C5.26894 7.23316 5.48696 7.14286 5.71429 7.14286C5.94161 7.14286 6.15963 7.23316 6.32038 7.39391C6.48112 7.55465 6.57143 7.77267 6.57143 8V12.5714ZM11.4286 12.5714C11.4286 12.7988 11.3383 13.0168 11.1775 13.1775C11.0168 13.3383 10.7988 13.4286 10.5714 13.4286C10.3441 13.4286 10.1261 13.3383 9.96534 13.1775C9.80459 13.0168 9.71429 12.7988 9.71429 12.5714V8C9.71429 7.77267 9.80459 7.55465 9.96534 7.39391C10.1261 7.23316 10.3441 7.14286 10.5714 7.14286C10.7988 7.14286 11.0168 7.23316 11.1775 7.39391C11.3383 7.55465 11.4286 7.77267 11.4286 8V12.5714Z" fill="#212B3D"/>
</svg>
