<svg width="19" height="18" viewBox="0 0 19 18" fill="none" xmlns="http://www.w3.org/2000/svg">
<path fill-rule="evenodd" clip-rule="evenodd" d="M7.36066 0.00583441C7.1042 0.0318469 6.79494 0.14613 6.57465 0.296304C6.34642 0.451884 6.13954 0.674549 5.99801 0.916947C5.90211 1.08118 5.81258 1.30952 5.76988 1.49876C5.72532 1.69624 5.72407 1.71615 5.72082 2.28474L5.71782 2.81076L3.31683 2.81291L0.91583 2.81506L0.854597 2.83749C0.701482 2.89355 0.568284 3.03769 0.520698 3.19881C0.498654 3.27348 0.493219 3.41395 0.509247 3.49514C0.547243 3.68759 0.69382 3.85418 0.877559 3.91374C0.920721 3.92772 0.989173 3.92877 2.01612 3.93117L3.10876 3.93373V10.0391C3.10876 14.3597 3.11118 16.1708 3.11705 16.2346C3.13364 16.4151 3.18022 16.6173 3.24231 16.7786C3.49284 17.4291 4.02067 17.8751 4.67021 17.9851C4.75438 17.9993 4.96574 18 9.49618 18C14.0751 18 14.2372 17.9995 14.326 17.9847C14.6428 17.9318 14.9216 17.8053 15.1769 17.5986C15.2651 17.5271 15.4248 17.3591 15.4933 17.2655C15.7134 16.9651 15.8483 16.6072 15.8833 16.231C15.8887 16.1727 15.8913 14.2025 15.8913 10.0396V3.93373L16.9839 3.93117C18.0093 3.92878 18.0793 3.92771 18.122 3.91379C18.3056 3.85389 18.4536 3.68616 18.4908 3.49591C18.5068 3.4138 18.5014 3.27351 18.4793 3.19881C18.4317 3.03769 18.2985 2.89355 18.1454 2.83749L18.0842 2.81506L15.6827 2.81291L13.2812 2.81076V2.33307C13.2812 1.86175 13.2771 1.75581 13.2536 1.6143C13.2019 1.30275 13.0706 0.991172 12.8832 0.735388C12.8147 0.641827 12.655 0.47377 12.5668 0.402343C12.3632 0.237438 12.1417 0.122024 11.9072 0.0585524C11.6778 -0.00355727 11.8843 0.00153469 9.53445 0.00011523C8.37675 -0.000586248 7.39855 0.00198866 7.36066 0.00583441ZM7.41342 1.12812C7.35361 1.1389 7.25182 1.17562 7.19227 1.20789C7.01442 1.30425 6.87493 1.47088 6.80809 1.66683C6.76317 1.79854 6.76483 1.77532 6.76182 2.31371L6.75903 2.81094H9.49962H12.2402L12.2401 2.3426C12.2401 2.07168 12.2369 1.85293 12.2325 1.82367C12.1872 1.523 11.9814 1.26368 11.7082 1.16309C11.5825 1.1168 11.6987 1.11906 9.48943 1.1201C8.36913 1.12063 7.43492 1.12424 7.41342 1.12812ZM4.14973 10.0324C4.14973 15.5639 4.15085 16.1374 4.16184 16.1951C4.19592 16.3739 4.26281 16.5093 4.37898 16.6346C4.48404 16.7479 4.57701 16.8054 4.74293 16.8598L4.7965 16.8774L9.45791 16.8799C12.892 16.8818 14.1354 16.88 14.1804 16.8731C14.315 16.8526 14.4506 16.7885 14.5598 16.6939C14.6921 16.5793 14.7777 16.4374 14.8292 16.2473L14.8462 16.1844L14.8483 10.0589L14.8503 3.9333H9.50004H4.14973V10.0324ZM7.41806 7.04914C7.3202 7.07177 7.21168 7.1468 7.1382 7.24263C7.09403 7.30022 7.04703 7.40445 7.03398 7.4737C7.01885 7.55399 7.01902 13.2624 7.03415 13.3414C7.05587 13.4547 7.12755 13.5799 7.21381 13.6551C7.311 13.7399 7.4124 13.7788 7.53652 13.7788C7.63573 13.7788 7.68703 13.7666 7.76978 13.7236C7.90791 13.6518 8.02017 13.4994 8.04982 13.3436C8.05974 13.2914 8.06092 12.9198 8.05918 10.3809L8.05719 7.47783L8.04095 7.42688C7.99831 7.29308 7.89595 7.16089 7.78776 7.09991C7.68085 7.03966 7.54166 7.02054 7.41806 7.04914ZM11.3234 7.05297C11.2328 7.07855 11.1658 7.12145 11.0918 7.20113C11.0405 7.25644 11.0196 7.28654 10.9941 7.34166C10.9344 7.47039 10.9393 7.19963 10.9393 10.4075C10.9393 13.6144 10.9344 13.3437 10.9937 13.4734C11.0193 13.5293 11.0392 13.5581 11.0918 13.6148C11.1473 13.6746 11.1695 13.692 11.2302 13.7236C11.313 13.7666 11.3643 13.7788 11.4635 13.7788C11.5876 13.7788 11.689 13.7399 11.7862 13.6551C11.8725 13.5799 11.9441 13.4547 11.9659 13.3414C11.981 13.2624 11.9812 7.55399 11.966 7.4737C11.9287 7.27547 11.7594 7.08999 11.5781 7.04878C11.5034 7.03178 11.3919 7.03361 11.3234 7.05297Z" fill="#2F463F"/>
</svg>
