<svg width="16" height="16" viewBox="0 0 16 16" fill="none" xmlns="http://www.w3.org/2000/svg">
<path d="M13.6586 2.34324C12.5401 1.22573 11.1153 0.464927 9.56442 0.157005C8.01356 -0.150917 6.40621 0.0078663 4.94557 0.613284C3.48493 1.2187 2.23656 2.24357 1.35828 3.55835C0.479999 4.87312 0.0112305 6.41877 0.0112305 7.99991C0.0112305 9.58105 0.479999 11.1267 1.35828 12.4415C2.23656 13.7562 3.48493 14.7811 4.94557 15.3865C6.40621 15.992 8.01356 16.1507 9.56442 15.8428C11.1153 15.5349 12.5401 14.7741 13.6586 13.6566C15.1565 12.1551 15.9977 10.1208 15.9977 7.99991C15.9977 5.87903 15.1565 3.84473 13.6586 2.34324V2.34324ZM11.1393 10.1859C11.2531 10.3127 11.3141 10.4782 11.3097 10.6485C11.3053 10.8188 11.2358 10.981 11.1156 11.1017C10.9954 11.2224 10.8335 11.2925 10.6633 11.2977C10.493 11.3028 10.3272 11.2425 10.1999 11.1292L8.12661 9.05591C8.09517 9.02489 8.05278 9.00749 8.00861 9.00749C7.96445 9.00749 7.92205 9.02489 7.89061 9.05591L5.81795 11.1292C5.69132 11.2514 5.52223 11.3197 5.34628 11.3197C5.17033 11.3197 5.00124 11.2514 4.87461 11.1292C4.81263 11.0673 4.76346 10.9938 4.72991 10.9129C4.69636 10.8319 4.67909 10.7452 4.67909 10.6576C4.67909 10.57 4.69636 10.4832 4.72991 10.4023C4.76346 10.3214 4.81263 10.2478 4.87461 10.1859L6.94795 8.11324C6.96345 8.09782 6.97575 8.07948 6.98414 8.05929C6.99253 8.0391 6.99686 8.01744 6.99686 7.99558C6.99686 7.97371 6.99253 7.95206 6.98414 7.93186C6.97575 7.91167 6.96345 7.89334 6.94795 7.87791L4.87461 5.80458C4.75948 5.67796 4.69744 5.51192 4.70135 5.34083C4.70525 5.16974 4.77481 5.00671 4.8956 4.88548C5.0164 4.76426 5.17919 4.69413 5.35026 4.68962C5.52134 4.68511 5.6876 4.74655 5.81461 4.86124L7.88728 6.93458C7.90276 6.9501 7.92115 6.96241 7.9414 6.97081C7.96165 6.97922 7.98336 6.98354 8.00528 6.98354C8.0272 6.98354 8.04891 6.97922 8.06916 6.97081C8.08941 6.96241 8.1078 6.9501 8.12328 6.93458L10.1966 4.86124C10.3217 4.73624 10.4913 4.66605 10.6682 4.66611C10.845 4.66617 11.0146 4.73648 11.1396 4.86158C11.2646 4.98667 11.3348 5.1563 11.3348 5.33315C11.3347 5.50999 11.2644 5.67957 11.1393 5.80458L9.06595 7.87791C9.0348 7.90915 9.01732 7.95146 9.01732 7.99558C9.01732 8.03969 9.0348 8.082 9.06595 8.11324L11.1393 10.1859Z" fill="#212B3D"/>
</svg>
