<svg width="24" height="24" viewBox="0 0 24 24" fill="none" xmlns="http://www.w3.org/2000/svg">
<g clip-path="url(#clip0_967_5211)">
<path d="M24 1.5C24 1.10218 23.842 0.720644 23.5607 0.43934C23.2794 0.158035 22.8978 0 22.5 0L1.5 0C1.10218 0 0.720644 0.158035 0.43934 0.43934C0.158035 0.720644 0 1.10218 0 1.5L0 17.5C0 17.8978 0.158035 18.2794 0.43934 18.5607C0.720644 18.842 1.10218 19 1.5 19H22.5C22.8978 19 23.2794 18.842 23.5607 18.5607C23.842 18.2794 24 17.8978 24 17.5V1.5ZM22 14.5C22 14.6326 21.9473 14.7598 21.8536 14.8536C21.7598 14.9473 21.6326 15 21.5 15H2.5C2.36739 15 2.24021 14.9473 2.14645 14.8536C2.05268 14.7598 2 14.6326 2 14.5V2.5C2 2.36739 2.05268 2.24021 2.14645 2.14645C2.24021 2.05268 2.36739 2 2.5 2H21.5C21.6326 2 21.7598 2.05268 21.8536 2.14645C21.9473 2.24021 22 2.36739 22 2.5V14.5Z" fill="#212B3D"/>
<path d="M14.35 20.68C14.3065 20.6283 14.2531 20.5858 14.193 20.5549C14.133 20.524 14.0673 20.5053 14 20.5H9.99998C9.92771 20.5025 9.85672 20.5197 9.79137 20.5507C9.72601 20.5817 9.66769 20.6257 9.61998 20.68L7.51998 23.21C7.46138 23.2898 7.42778 23.3852 7.42345 23.4841C7.41912 23.583 7.44426 23.681 7.49567 23.7656C7.54708 23.8502 7.62245 23.9177 7.71223 23.9594C7.80201 24.0011 7.90216 24.0152 7.99998 24H16C16.092 24.0005 16.1824 23.9756 16.2612 23.928C16.34 23.8804 16.4041 23.812 16.4465 23.7303C16.4889 23.6486 16.5079 23.5568 16.5015 23.465C16.495 23.3732 16.4634 23.285 16.41 23.21L14.35 20.68Z" fill="#212B3D"/>
<path d="M13 9.90003C13 9.18406 12.7877 8.48417 12.3899 7.88887C11.9922 7.29356 11.4268 6.82958 10.7653 6.55559C10.1039 6.2816 9.376 6.20991 8.67378 6.34959C7.97157 6.48927 7.32655 6.83404 6.82028 7.3403C6.31402 7.84657 5.96925 8.49159 5.82957 9.1938C5.68989 9.89602 5.76158 10.6239 6.03557 11.2853C6.30956 11.9468 6.77354 12.5122 7.36885 12.91C7.96415 13.3077 8.66404 13.52 9.38001 13.52C10.3393 13.5174 11.2585 13.1352 11.9368 12.4568C12.6151 11.7785 12.9974 10.8593 13 9.90003V9.90003ZM9.44001 7.78003C9.85798 7.78595 10.2649 7.91529 10.6095 8.15181C10.9542 8.38832 11.2212 8.72145 11.3771 9.10931C11.533 9.49718 11.5707 9.92246 11.4856 10.3317C11.4004 10.741 11.1962 11.1159 10.8985 11.4094C10.6009 11.7029 10.2231 11.9018 9.81269 11.9812C9.40229 12.0606 8.97758 12.0169 8.59195 11.8556C8.20631 11.6943 7.87697 11.4226 7.64532 11.0747C7.41367 10.7267 7.29005 10.318 7.29001 9.90003C7.29132 9.61947 7.34804 9.34193 7.45692 9.08335C7.5658 8.82477 7.72469 8.59025 7.92447 8.39325C8.12425 8.19626 8.36098 8.04068 8.62106 7.93545C8.88115 7.83021 9.15946 7.77739 9.44001 7.78003V7.78003Z" fill="#212B3D"/>
<path d="M17 3.24988H11C10.8373 3.24588 10.6754 3.27448 10.5239 3.33399C10.3724 3.39351 10.2344 3.48274 10.1179 3.59643C10.0014 3.71012 9.90883 3.84596 9.84565 3.99597C9.78247 4.14598 9.74995 4.30711 9.75 4.46988V4.92988C9.75 5.12879 9.82902 5.31956 9.96967 5.46021C10.1103 5.60086 10.3011 5.67988 10.5 5.67988C10.6989 5.67988 10.8897 5.60086 11.0303 5.46021C11.171 5.31956 11.25 5.12879 11.25 4.92988C11.25 4.88214 11.269 4.83636 11.3027 4.8026C11.3365 4.76884 11.3823 4.74988 11.43 4.74988H16.25C16.3826 4.74988 16.5098 4.80256 16.6036 4.89633C16.6973 4.9901 16.75 5.11727 16.75 5.24988V9.74988C16.75 9.88249 16.6973 10.0097 16.6036 10.1034C16.5098 10.1972 16.3826 10.2499 16.25 10.2499H14.7C14.5011 10.2499 14.3103 10.3289 14.1697 10.4696C14.029 10.6102 13.95 10.801 13.95 10.9999C13.95 11.1988 14.029 11.3896 14.1697 11.5302C14.3103 11.6709 14.5011 11.7499 14.7 11.7499H17C17.3236 11.7499 17.6339 11.6213 17.8627 11.3926C18.0915 11.1638 18.22 10.8534 18.22 10.5299V4.46988C18.22 4.14632 18.0915 3.836 17.8627 3.60721C17.6339 3.37842 17.3236 3.24988 17 3.24988V3.24988Z" fill="#212B3D"/>
</g>
<defs>
<clipPath id="clip0_967_5211">
<rect width="24" height="24" fill="white"/>
</clipPath>
</defs>
</svg>
