<svg width="16" height="16" viewBox="0 0 16 16" fill="none" xmlns="http://www.w3.org/2000/svg">

<path d="M17.8374 7.88378C17.9209 8.15777 17.9391 8.44752 17.8904 8.7298C17.8418 9.01208 17.7276 9.27902 17.5571 9.5092C17.3867 9.73939 17.1646 9.92641 16.9088 10.0553C16.6529 10.1841 16.3705 10.2512 16.084 10.2511H12.364C12.2233 10.2511 12.0849 10.2867 11.9617 10.3547C11.8384 10.4227 11.7345 10.5207 11.6594 10.6398C11.5844 10.7588 11.5407 10.8949 11.5326 11.0354C11.5244 11.1759 11.552 11.3162 11.6127 11.4431L12.5647 13.4385C12.652 13.6977 12.6721 13.9748 12.6231 14.2439C12.5742 14.513 12.4577 14.7653 12.2847 14.9771C12.1248 15.1741 11.9215 15.3313 11.6906 15.4365C11.4598 15.5418 11.2077 15.5921 10.9542 15.5835C10.7006 15.575 10.4525 15.5079 10.2292 15.3874C10.006 15.2669 9.81366 15.0964 9.66736 14.8891L6.40736 10.2705C6.3303 10.1616 6.22829 10.0728 6.10987 10.0114C5.99145 9.95007 5.86006 9.91796 5.72669 9.91778C5.64465 9.91778 5.56597 9.88519 5.50796 9.82718C5.44995 9.76917 5.41736 9.69049 5.41736 9.60845V2.06645C5.41736 2.00384 5.43499 1.94249 5.46824 1.88943C5.50149 1.83637 5.54901 1.79375 5.60536 1.76645C8.07202 0.571783 8.89136 0.413784 10.9 0.413784C11.1314 0.413784 12.4467 0.427117 12.9274 0.427117C14.714 0.427117 15.9027 1.46378 16.5647 3.61312L17.8314 7.85912L17.8374 7.88378Z" fill="#212B3D"/>
<path d="M4.41732 9.91764H4.39998C4.36069 10.1501 4.24055 10.3612 4.06075 10.5137C3.88095 10.6661 3.65306 10.7502 3.41732 10.751H2.41732C2.32891 10.751 2.24413 10.7159 2.18162 10.6533C2.1191 10.5908 2.08398 10.506 2.08398 10.4176V1.08431C2.08398 0.995906 2.1191 0.911121 2.18162 0.848609C2.24413 0.786096 2.32891 0.750978 2.41732 0.750978H3.41732C3.68253 0.750978 3.93689 0.856334 4.12442 1.04387C4.31196 1.23141 4.41732 1.48576 4.41732 1.75098V9.91764Z" fill="#212B3D"/>






</svg>
