<svg width="16" height="16" viewBox="0 0 16 16" fill="none" xmlns="http://www.w3.org/2000/svg">
<path d="M16 2.4C16 1.76348 15.7471 1.15303 15.2971 0.702944C14.847 0.252856 14.2365 0 13.6 0L2.4 0C1.76348 0 1.15303 0.252856 0.702944 0.702944C0.252856 1.15303 0 1.76348 0 2.4L0 13.6C0 14.2365 0.252856 14.847 0.702944 15.2971C1.15303 15.7471 1.76348 16 2.4 16H13.6C14.2365 16 14.847 15.7471 15.2971 15.2971C15.7471 14.847 16 14.2365 16 13.6V2.4ZM12.28 3.8112C12.4099 3.90049 12.5209 4.01449 12.6066 4.14669C12.6924 4.27888 12.7514 4.42668 12.78 4.58164C12.8087 4.73661 12.8066 4.8957 12.7738 5.04984C12.741 5.20398 12.6781 5.35015 12.5888 5.48L8.1888 11.88C8.0933 12.0187 7.96976 12.1357 7.82616 12.2237C7.68257 12.3116 7.52213 12.3684 7.3552 12.3904C7.30212 12.397 7.24868 12.4002 7.1952 12.4C6.90858 12.4005 6.63138 12.2977 6.4144 12.1104L3.6144 9.7104C3.38467 9.50003 3.24575 9.20856 3.227 8.89763C3.20825 8.58669 3.31115 8.28065 3.51394 8.04419C3.71673 7.80774 4.00352 7.65942 4.31369 7.63057C4.62385 7.60172 4.93308 7.69461 5.176 7.8896L6.616 9.1312C6.65965 9.16858 6.71078 9.19619 6.76597 9.2122C6.82116 9.2282 6.87913 9.23223 6.936 9.224C6.99193 9.21697 7.04571 9.19806 7.09373 9.16853C7.14174 9.139 7.18289 9.09954 7.2144 9.0528L10.6064 4.12C10.6957 3.98948 10.81 3.8779 10.9425 3.79168C11.0751 3.70546 11.2235 3.6463 11.379 3.6176C11.5345 3.5889 11.6942 3.59123 11.8488 3.62446C12.0034 3.65768 12.15 3.72115 12.28 3.8112V3.8112Z" fill="#212B3D"/>
</svg>
