<svg width="20" height="20" viewBox="0 0 20 20" fill="none" xmlns="http://www.w3.org/2000/svg">
<g clip-path="url(#clip0_8377_93575)">
<path fill-rule="evenodd" clip-rule="evenodd" d="M14.8013 0H19.0001C19.5524 0 20.0001 0.447715 20.0001 1C20.0001 1.55228 19.5524 2 19.0001 2H15.4005L6.86708 18H9.39998C9.95226 18 10.4 18.4477 10.4 19C10.4 19.5523 9.95226 20 9.39998 20H5.22104C5.20672 20.0003 5.19237 20.0003 5.17802 20H1C0.447715 20 0 19.5523 0 19C0 18.4477 0.447715 18 1 18H4.60041L13.1338 2H10.6001C10.0478 2 9.6001 1.55228 9.6001 1C9.6001 0.447715 10.0478 0 10.6001 0H14.8012C14.8012 0 14.8012 0 14.8013 0Z" fill="#212B3D"/>
</g>
<defs>
<clipPath id="clip0_8377_93575">
<rect width="20" height="20" fill="white"/>
</clipPath>
</defs>
</svg>
