<svg width="20" height="20" viewBox="0 0 20 20" fill="none" xmlns="http://www.w3.org/2000/svg">
<path fill-rule="evenodd" clip-rule="evenodd" d="M17.3716 2.71967C17.1933 2.67115 16.9976 2.65486 16.8036 2.67484C16.6094 2.69484 16.4348 2.74926 16.2936 2.82427C16.1522 2.89937 16.0593 2.98664 16.0048 3.063C15.9519 3.13715 15.9356 3.19917 15.9331 3.24447C15.9021 3.79589 15.4299 4.21778 14.8785 4.18679C14.3271 4.1558 13.9052 3.68367 13.9362 3.13226C13.9615 2.68198 14.1206 2.26036 14.3767 1.9014C14.6313 1.54465 14.9725 1.26132 15.3555 1.0579C15.7387 0.854387 16.1646 0.730067 16.5987 0.685362C17.0331 0.640635 17.4764 0.675476 17.8967 0.789825C18.3166 0.904062 18.7145 1.09812 19.0526 1.37046C19.3911 1.64326 19.6674 1.99356 19.8334 2.40563C20.0008 2.82081 20.0446 3.27152 19.9537 3.71322C19.8638 4.14981 19.6501 4.54092 19.3564 4.86148L17.1454 7.33317H18.9816C19.5339 7.33317 19.9816 7.78088 19.9816 8.33317C19.9816 8.88545 19.5339 9.33317 18.9816 9.33317H14.9092C14.5148 9.33317 14.1573 9.1014 13.9963 8.74139C13.8353 8.38138 13.901 7.96038 14.1639 7.66646L17.8702 3.52312L17.8804 3.51197C17.9546 3.43144 17.9844 3.36025 17.9948 3.30991C18.0047 3.26186 18.0018 3.21115 17.9784 3.15325C17.9538 3.09223 17.9008 3.01087 17.7977 2.92785C17.6941 2.84438 17.5504 2.76831 17.3716 2.71967ZM0.299407 4.28644C0.693496 3.89951 1.32663 3.90532 1.71356 4.29941L6.31823 8.98931L10.9229 4.29941C11.3098 3.90532 11.943 3.89951 12.3371 4.28644C12.7311 4.67337 12.7369 5.3065 12.35 5.70059L7.71965 10.4167L12.35 15.1327C12.7369 15.5268 12.7311 16.16 12.3371 16.5469C11.943 16.9338 11.3098 16.928 10.9229 16.5339L6.31823 11.844L1.71356 16.5339C1.32663 16.928 0.693496 16.9338 0.299407 16.5469C-0.0946817 16.16 -0.100488 15.5268 0.286439 15.1327L4.91681 10.4167L0.286439 5.70059C-0.100488 5.3065 -0.0946817 4.67337 0.299407 4.28644Z" fill="#212B3D"/>
</svg>
