<svg width="20" height="20" viewBox="0 0 20 20" fill="none" xmlns="http://www.w3.org/2000/svg">
<path fill-rule="evenodd" clip-rule="evenodd" d="M10.0047 0.45847C11.219 0.452894 12.4093 0.793728 13.4409 1.44072C14.2981 1.97837 15.0165 2.7091 15.5436 3.57153C15.9776 3.6078 16.4057 3.70326 16.8162 3.85602C17.4306 4.08468 17.9923 4.43674 18.4679 4.89018C18.9436 5.34357 19.3236 5.88897 19.5861 6.49322C19.8475 7.09492 19.9874 7.74325 19.998 8.3999C20.0241 9.29405 19.7923 10.1777 19.3294 10.9415C18.865 11.7079 18.1876 12.3209 17.3795 12.7015C16.8798 12.9368 16.284 12.7226 16.0487 12.2229C16.0291 12.1814 16.0127 12.1392 15.9993 12.0966L16 16.6199C16 16.969 15.8581 17.3012 15.6094 17.5438C15.3701 17.7772 15.051 17.9097 14.7179 17.9174C13.3242 17.9493 12.2764 18.2101 11.5198 18.6114C11.3116 18.7219 11.142 18.8347 11.0072 18.9442L10.8758 19.06L10.8199 19.1143L10.7727 19.1767L10.6925 19.2634L10.6167 19.3291L10.5361 19.3861L10.4652 19.4271L10.3373 19.4835L10.2318 19.5146L10.1221 19.5344L9.99154 19.5419L9.88232 19.5351L9.76622 19.5141L9.65407 19.4802L9.51436 19.416L9.42751 19.3617L9.36513 19.3145L9.28134 19.2374L9.21969 19.1672L9.16993 19.1049L9.08735 19.0256C8.94037 18.8912 8.74046 18.7495 8.4802 18.6114C7.72364 18.2101 6.67581 17.9493 5.28171 17.9174C4.94901 17.9097 4.62978 17.7772 4.39054 17.5438C4.17737 17.3358 4.04271 17.062 4.00858 16.7682L4 16.6199L4 12.427L3.99259 12.4552C3.82792 12.9281 3.33134 13.2128 2.8308 13.1012C1.99092 12.9138 1.24793 12.4293 0.732022 11.7392C0.219761 11.0541 -0.0366586 10.2096 0.00423138 9.35464C0.0176014 8.77647 0.155471 8.20761 0.408901 7.68818C0.664781 7.16375 1.03245 6.70208 1.48665 6.33734C1.94091 5.97254 2.47024 5.71398 3.03681 5.58153C3.25312 5.53096 3.47263 5.4993 3.69298 5.48656C3.98327 4.22058 4.64287 3.06207 5.59913 2.17042C6.79794 1.05261 8.3729 0.438727 10.0047 0.45847ZM13.9995 11.247L13.7978 11.2667C12.9456 11.3592 12.252 11.5508 11.6992 11.8125L11.5201 11.9023C11.308 12.0149 11.1359 12.1299 11 12.2414L10.999 16.6429C11.7243 16.3226 12.5832 16.0967 13.5836 15.9879L13.9995 15.95V11.247ZM5.9995 11.247V15.95L6.03439 15.9526C7.19984 16.0417 8.18484 16.2826 9.00087 16.6428L8.9995 12.241C8.85776 12.1257 8.68816 12.0128 8.47994 11.9023C7.90014 11.5946 7.14912 11.3694 6.20199 11.2667L5.9995 11.247ZM10.0071 2.45849L9.9873 2.45841C8.8725 2.44318 7.7908 2.86142 6.96306 3.63319C6.13481 4.40548 5.62336 5.47417 5.53855 6.62297C5.51715 6.9129 5.37063 7.17917 5.13715 7.35241C4.90368 7.52565 4.60638 7.58871 4.32268 7.52516C4.04889 7.46383 3.76534 7.46514 3.49207 7.52902C3.21876 7.59292 2.96142 7.71808 2.73893 7.89675C2.51637 8.07548 2.33406 8.30347 2.20636 8.56519C2.07864 8.82696 2.00911 9.11526 2.00352 9.40917C2.00331 9.42028 2.00291 9.43138 2.00233 9.44247C1.98154 9.83962 2.10027 10.2293 2.33382 10.5416C2.56706 10.8536 2.89845 11.0671 3.26627 11.1492C3.62587 11.2294 3.89667 11.494 4.0014 11.8212L4 10.5064C4 10.3272 4.03749 10.1503 4.11021 9.98564C4.18147 9.82473 4.28475 9.68039 4.41466 9.55953C4.54058 9.44283 4.68823 9.35206 4.84895 9.29209C5.00763 9.23289 5.1762 9.20472 5.34475 9.20889C7.03453 9.24965 8.38232 9.58634 9.41749 10.1357C9.63593 10.2516 9.82969 10.3704 10.0001 10.4888C10.1703 10.3704 10.3641 10.2516 10.5825 10.1357C11.6177 9.58634 12.9655 9.24965 14.6547 9.2089C14.8237 9.20473 14.9922 9.23287 15.1516 9.29227C15.312 9.35223 15.4594 9.44291 15.5865 9.56064C15.7148 9.67992 15.8177 9.82376 15.8903 9.98677C15.9445 10.1096 15.9791 10.2397 15.993 10.3727L16 10.5064L15.9994 11.497C16.0803 11.2399 16.2642 11.016 16.5273 10.8921C16.9757 10.681 17.3562 10.3386 17.619 9.90497C17.8819 9.47113 18.0146 8.96629 17.9987 8.4536L17.9984 8.4372C17.9926 8.0413 17.9086 7.65114 17.7517 7.29019C17.5949 6.92928 17.3689 6.60557 17.088 6.33785C16.8072 6.07016 16.4773 5.86391 16.1187 5.73043C15.76 5.59697 15.3793 5.53873 14.9989 5.55879C14.598 5.57993 14.2233 5.35931 14.0474 4.9985C13.6716 4.22798 13.0925 3.58305 12.3782 3.13503C11.6641 2.68713 10.8426 2.45336 10.0071 2.45849Z" fill="#212B3D"/>
</svg>
