<svg width="21" height="20" viewBox="0 0 21 20" fill="none" xmlns="http://www.w3.org/2000/svg">
<path fill-rule="evenodd" clip-rule="evenodd" d="M10.6664 16.6668C10.6664 16.2526 11.0021 15.9168 11.4164 15.9168C13.5381 15.9168 15.5729 15.074 17.0732 13.5737C18.1279 12.519 18.8577 11.2 19.1982 9.77247C18.2994 10.4103 17.1609 10.7502 15.9997 10.7502C14.7432 10.7502 13.5133 10.3522 12.5849 9.6095C11.6521 8.8633 11.083 7.81069 11.083 6.66683C11.083 5.52297 11.6521 4.47036 12.5849 3.72416C13.5133 2.98142 14.7432 2.5835 15.9997 2.5835C17.2562 2.5835 18.4861 2.98142 19.4145 3.72416C20.3473 4.47036 20.9164 5.52297 20.9164 6.66683V7.91683C20.9164 10.4364 19.9155 12.8527 18.1339 14.6343C16.3523 16.4159 13.9359 17.4168 11.4164 17.4168C11.0021 17.4168 10.6664 17.081 10.6664 16.6668ZM9.36485 9.77249C8.46604 10.4103 7.32755 10.7502 6.16634 10.7502C4.90985 10.7502 3.67996 10.3522 2.75154 9.6095C1.81878 8.8633 1.24967 7.81069 1.24967 6.66683C1.24967 5.52297 1.81878 4.47036 2.75154 3.72416C3.67996 2.98142 4.90985 2.5835 6.16634 2.5835C7.42283 2.5835 8.65272 2.98142 9.58114 3.72416C10.5139 4.47036 11.083 5.52297 11.083 6.66683V7.91683C11.083 10.4364 10.0821 12.8527 8.30052 14.6343C6.51892 16.4159 4.10256 17.4168 1.58301 17.4168C1.16879 17.4168 0.833008 17.081 0.833008 16.6668C0.833008 16.2526 1.16879 15.9168 1.58301 15.9168C3.70474 15.9168 5.73957 15.074 7.23986 13.5737C8.29459 12.519 9.02439 11.2001 9.36485 9.77249Z" fill="black"/>
</svg>
