<svg width="20" height="20" viewBox="0 0 20 20" fill="none" xmlns="http://www.w3.org/2000/svg">
<path fill-rule="evenodd" clip-rule="evenodd" d="M0.295197 4.2906C0.68699 3.90134 1.32015 3.9034 1.7094 4.2952L6.31823 8.93411L10.9271 4.2952C11.3163 3.9034 11.9495 3.90134 12.3413 4.2906C12.7331 4.67985 12.7351 5.31301 12.3459 5.7048L7.72786 10.3529L12.3459 15.0011C12.7351 15.3929 12.7331 16.026 12.3413 16.4153C11.9495 16.8045 11.3163 16.8025 10.9271 16.4107L6.31823 11.7718L1.7094 16.4107C1.32015 16.8025 0.68699 16.8045 0.295197 16.4153C-0.0965954 16.026 -0.0986551 15.3929 0.290597 15.0011L4.90859 10.3529L0.290597 5.7048C-0.0986551 5.31301 -0.0965954 4.67985 0.295197 4.2906ZM17.3745 13.4645C17.1949 13.4163 16.9978 13.4 16.8024 13.4199C16.6067 13.4398 16.4311 13.494 16.2893 13.5684C16.1472 13.643 16.055 13.7291 16.0016 13.8031C15.9499 13.8747 15.9353 13.9325 15.933 13.9724C15.9017 14.5237 15.4293 14.9453 14.8779 14.914C14.3265 14.8826 13.9049 14.4102 13.9363 13.8588C13.9618 13.4089 14.1227 12.9888 14.38 12.6324C14.6356 12.2783 14.9775 11.9982 15.3598 11.7975C15.7425 11.5967 16.1672 11.4742 16.5999 11.4302C17.0328 11.3861 17.4747 11.4204 17.8938 11.5331C18.3124 11.6457 18.7099 11.837 19.048 12.1063C19.3867 12.376 19.6645 12.7234 19.8319 13.1338C20.0007 13.5477 20.0451 13.9978 19.9532 14.4389C19.8624 14.8747 19.6469 15.2637 19.3525 15.5813L17.1632 17.9999H18.9816C19.5339 17.9999 19.9816 18.4476 19.9816 18.9999C19.9816 19.5521 19.5339 19.9999 18.9816 19.9999H14.9092C14.5138 19.9999 14.1555 19.7668 13.9951 19.4054C13.8348 19.0439 13.9025 18.6219 14.1678 18.3288L17.8742 14.2342L17.8844 14.2231C17.9579 14.1443 17.9858 14.0764 17.9953 14.031C18.0042 13.9882 18.0019 13.9428 17.98 13.8891C17.9567 13.832 17.9052 13.7529 17.8023 13.6709C17.6988 13.5885 17.5545 13.5129 17.3745 13.4645Z" fill="#212B3D"/>
</svg>
