<svg width="20" height="20" viewBox="0 0 20 20" fill="none" xmlns="http://www.w3.org/2000/svg">
<path fill-rule="evenodd" clip-rule="evenodd" d="M2.5 0C1.94772 0 1.5 0.447715 1.5 1C1.5 1.55228 1.94772 2 2.5 2H4V10V19C4 19.5523 4.44772 20 5 20C5.55228 20 6 19.5523 6 19V11H10.4167C11.8916 11 13.3097 10.4249 14.3582 9.39555C15.4072 8.36557 16 6.96467 16 5.5C16 4.03533 15.4072 2.63443 14.3582 1.60446C13.3097 0.575089 11.8916 0 10.4167 0H5H2.5ZM6 2V9H10.4167C11.3729 9 12.2863 8.62688 12.957 7.96842C13.627 7.31057 14 6.42228 14 5.5C14 4.57772 13.627 3.68943 12.957 3.03158C12.2863 2.37312 11.3729 2 10.4167 2H6Z" fill="#212B3D"/>
</svg>
