<svg width="20" height="20" viewBox="0 0 20 20" fill="none" xmlns="http://www.w3.org/2000/svg">
<path fill-rule="evenodd" clip-rule="evenodd" d="M1 1.6665C1 0.838077 1.67157 0.166504 2.5 0.166504H5H10.4167C11.9864 0.166504 13.5172 0.732065 14.6666 1.77698C15.8207 2.82622 16.5 4.28164 16.5 5.83317C16.5 7.14868 16.0117 8.39509 15.1596 9.38341C15.5148 9.58005 15.8511 9.80857 16.1625 10.0681C17.4017 11.1007 18.1667 12.5663 18.1667 14.1667C18.1667 15.767 17.4017 17.2326 16.1625 18.2653C14.9312 19.2913 13.3111 19.8333 11.6667 19.8333H2.5C1.67157 19.8333 1 19.1618 1 18.3333C1 17.5049 1.67157 16.8333 2.5 16.8333H3.5V9.99984V3.1665H2.5C1.67157 3.1665 1 2.49493 1 1.6665ZM6.5 16.8333H11.6667C12.6744 16.8333 13.5978 16.4974 14.2419 15.9606C14.8781 15.4305 15.1667 14.7765 15.1667 14.1667C15.1667 13.5569 14.8781 12.9028 14.2419 12.3727C13.5978 11.836 12.6744 11.5 11.6667 11.5H10.4167C10.4092 11.5 10.4018 11.4999 10.3943 11.4998H6.5V16.8333ZM6.5 8.49984V3.1665H10.4167C11.2781 3.1665 12.0789 3.47892 12.6486 3.9968C13.2135 4.51036 13.5 5.17456 13.5 5.83317C13.5 6.49178 13.2135 7.15598 12.6486 7.66954C12.0789 8.18742 11.2781 8.49984 10.4167 8.49984H6.5Z" fill="#212B3D"/>
</svg>
