<svg width="22" height="20" viewBox="0 0 22 20" fill="none" xmlns="http://www.w3.org/2000/svg">
<path fill-rule="evenodd" clip-rule="evenodd" d="M20.5832 1.33154C20.9974 1.33154 21.3332 1.66733 21.3332 2.08154C21.3332 2.46124 21.051 2.77503 20.6849 2.8247L20.5832 2.83154H1.4165C1.00229 2.83154 0.666504 2.49576 0.666504 2.08154C0.666504 1.70185 0.948658 1.38805 1.31473 1.33839L1.4165 1.33154H20.5832ZM15.5832 17.9985C15.9974 17.9985 16.3332 18.3343 16.3332 18.7485C16.3332 19.1282 16.051 19.442 15.6849 19.4917L15.5832 19.4985H1.4165C1.00229 19.4985 0.666504 19.1627 0.666504 18.7485C0.666504 18.3688 0.948658 18.055 1.31473 18.0054L1.4165 17.9985H15.5832ZM21.3332 6.24854C21.3332 5.83432 20.9974 5.49854 20.5832 5.49854H1.4165L1.31473 5.50538C0.948658 5.55504 0.666504 5.86884 0.666504 6.24854C0.666504 6.66275 1.00229 6.99854 1.4165 6.99854H20.5832L20.6849 6.99169C21.051 6.94203 21.3332 6.62823 21.3332 6.24854ZM20.5832 9.66504C20.9974 9.66504 21.3332 10.0008 21.3332 10.415C21.3332 10.7947 21.051 11.1085 20.6849 11.1582L20.5832 11.165H1.4165C1.00229 11.165 0.666504 10.8293 0.666504 10.415C0.666504 10.0353 0.948658 9.72155 1.31473 9.67189L1.4165 9.66504H20.5832ZM21.3332 14.5815C21.3332 14.1673 20.9974 13.8315 20.5832 13.8315H1.4165L1.31473 13.8384C0.948658 13.8881 0.666504 14.2018 0.666504 14.5815C0.666504 14.9958 1.00229 15.3315 1.4165 15.3315H20.5832L20.6849 15.3247C21.051 15.275 21.3332 14.9612 21.3332 14.5815Z" fill="black"/>
</svg>
