<svg width="22" height="20" viewBox="0 0 22 20" fill="none" xmlns="http://www.w3.org/2000/svg">
<path fill-rule="evenodd" clip-rule="evenodd" d="M6.62644 5.91699C7.25685 5.91821 7.87989 6.05262 8.45477 6.31141C9.02963 6.5702 9.54332 6.94752 9.96219 7.41867C10.2374 7.72824 10.2096 8.2023 9.89999 8.47751C9.59042 8.75272 9.11637 8.72488 8.84115 8.41531C8.56269 8.10209 8.22119 7.85125 7.83902 7.6792C7.52053 7.53583 7.17981 7.44988 6.8334 7.42475L6.625 7.41699H5.375C4.57935 7.41699 3.81629 7.73306 3.25367 8.29568C2.69107 8.85826 2.375 9.62132 2.375 10.417C2.375 11.2126 2.69106 11.9757 3.25366 12.5383C3.7694 13.054 4.45358 13.3626 5.17687 13.4104L5.375 13.417L6.62328 13.417C7.04255 13.416 7.45672 13.3266 7.83889 13.1545C8.22109 12.9824 8.56271 12.7316 8.84137 12.4184C9.11671 12.109 9.59078 12.0813 9.90023 12.3567C10.2097 12.632 10.2373 13.1061 9.96197 13.4155C9.543 13.8864 9.02935 14.2635 8.45476 14.5222C7.96216 14.7441 7.43415 14.8746 6.89524 14.9082L6.625 14.917H5.375C4.18156 14.917 3.03697 14.4429 2.193 13.599C1.34909 12.755 0.875 11.6105 0.875 10.417C0.875 9.22348 1.34911 8.07888 2.19302 7.23501C2.98067 6.44736 4.03025 5.98185 5.13703 5.92328L5.375 5.91699H6.62644ZM16.6251 5.91699C17.8185 5.91699 18.9631 6.39111 19.8069 7.23495C20.6509 8.07881 21.1251 9.22342 21.1251 10.417C21.1251 11.6105 20.6509 12.7551 19.8069 13.599C19.0193 14.3866 17.9698 14.8521 16.8631 14.9107L16.6251 14.917H15.3735C14.7432 14.9156 14.1202 14.7812 13.5455 14.5224C12.9707 14.2638 12.4569 13.8865 12.038 13.4154C11.7627 13.1058 11.7905 12.6318 12.1 12.3565C12.4095 12.0813 12.8836 12.109 13.1588 12.4186C13.4374 12.7318 13.7789 12.9826 14.1611 13.1546C14.4797 13.298 14.8204 13.384 15.1668 13.4092L15.3751 13.417H16.6251C17.4207 13.417 18.1837 13.1009 18.7463 12.5383C19.309 11.9757 19.6251 11.2127 19.6251 10.417C19.6251 9.6213 19.309 8.85827 18.7462 8.29565C18.2306 7.77994 17.5465 7.47138 16.8232 7.42354L16.6251 7.41699H15.3765C14.9573 7.41776 14.5431 7.50708 14.161 7.67913C13.7788 7.85116 13.4374 8.10202 13.159 8.41523C12.8838 8.72483 12.4098 8.75275 12.1002 8.47758C11.7906 8.20242 11.7626 7.72836 12.0378 7.41876C12.4566 6.94754 12.9703 6.57014 13.5452 6.31134C14.038 6.0895 14.5661 5.95908 15.1049 5.92562L15.3751 5.91699H16.6251ZM16.125 10.416C16.125 10.0018 15.7892 9.66602 15.375 9.66602H6.625L6.52323 9.67286C6.15715 9.72252 5.875 10.0363 5.875 10.416C5.875 10.8302 6.21079 11.166 6.625 11.166H15.375L15.4768 11.1592C15.8428 11.1095 16.125 10.7957 16.125 10.416Z" fill="black"/>
</svg>
