<svg width="20" height="20" viewBox="0 0 20 20" fill="none" xmlns="http://www.w3.org/2000/svg">
<path fill-rule="evenodd" clip-rule="evenodd" d="M16.7498 0.933906C17.1596 0.892478 17.5761 0.925198 17.9691 1.03016C18.3706 1.1374 18.7391 1.31784 19.0464 1.56094C19.3694 1.81644 19.6171 2.13525 19.7647 2.49463C19.9184 2.86923 19.9568 3.27266 19.8744 3.66565C19.8074 3.98494 19.6633 4.28494 19.4591 4.54435L19.3295 4.69495L16.6971 7.583L19.1479 7.58317C19.5276 7.58317 19.8414 7.86533 19.8911 8.2314L19.8979 8.33317C19.8979 8.71287 19.6158 9.02666 19.2497 9.07633L19.1479 9.08317H15.0001C14.3848 9.08317 14.0459 8.39321 14.3798 7.91084L14.4457 7.82806L18.2283 3.67651C18.3253 3.57325 18.3841 3.46408 18.4064 3.35779C18.4267 3.26064 18.4174 3.16265 18.377 3.06426C18.3303 2.95056 18.2426 2.83769 18.1158 2.73737C17.9733 2.6246 17.7902 2.53496 17.582 2.47935C17.3651 2.42143 17.1309 2.40303 16.9007 2.4263C16.6739 2.44922 16.4604 2.51165 16.2792 2.60613C16.112 2.6933 15.9807 2.80337 15.8936 2.92315C15.8378 2.99997 15.8021 3.07789 15.7854 3.15479L15.7748 3.23128C15.7511 3.64482 15.3967 3.96084 14.9831 3.93714C14.5696 3.91345 14.2536 3.559 14.2773 3.14546C14.2999 2.7511 14.44 2.37186 14.6803 2.04124C14.908 1.72786 15.2188 1.46736 15.5857 1.27606C15.9387 1.09199 16.3366 0.975678 16.7498 0.933906ZM0.303165 4.46967C0.569432 4.2034 0.986095 4.1792 1.27971 4.39705L1.36383 4.46967L6.25016 9.35599L11.1365 4.46967C11.4294 4.17678 11.9043 4.17678 12.1972 4.46967C12.4634 4.73594 12.4876 5.1526 12.2698 5.44621L12.1972 5.53033L7.31082 10.4166L12.1972 15.303C12.49 15.5959 12.49 16.0707 12.1972 16.3636C11.9309 16.6299 11.5142 16.6541 11.2206 16.4362L11.1365 16.3636L6.25016 11.4773L1.36383 16.3636C1.07093 16.6565 0.596058 16.6565 0.303165 16.3636C0.0368991 16.0974 0.0126936 15.6807 0.230548 15.3871L0.303167 15.303L5.1895 10.4166L0.303167 5.53033C0.0102731 5.23744 0.0102725 4.76256 0.303165 4.46967Z" fill="black"/>
</svg>
