<svg width="20" height="20" viewBox="0 0 20 20" fill="none" xmlns="http://www.w3.org/2000/svg">
<g clip-path="url(#clip0_8377_93564)">
<path fill-rule="evenodd" clip-rule="evenodd" d="M3.46647 2.08154C3.46647 1.52926 3.91419 1.08154 4.46647 1.08154H18.9999C19.5522 1.08154 19.9999 1.52926 19.9999 2.08154C19.9999 2.63383 19.5522 3.08154 18.9999 3.08154H4.46647C3.91419 3.08154 3.46647 2.63383 3.46647 2.08154ZM3.46647 18.748C3.46647 18.1958 3.91419 17.748 4.46647 17.748H18.9999C19.5522 17.748 19.9999 18.1958 19.9999 18.748C19.9999 19.3003 19.5522 19.748 18.9999 19.748H4.46647C3.91419 19.748 3.46647 19.3003 3.46647 18.748ZM8.09977 14.415C7.54749 14.415 7.09977 14.8628 7.09977 15.415C7.09977 15.9673 7.54749 16.415 8.09977 16.415H18.9999C19.5522 16.415 19.9999 15.9673 19.9999 15.415C19.9999 14.8628 19.5522 14.415 18.9999 14.415H8.09977ZM7.09977 12.0815C7.09977 11.5293 7.54749 11.0815 8.09977 11.0815H18.9999C19.5522 11.0815 19.9999 11.5293 19.9999 12.0815C19.9999 12.6338 19.5522 13.0815 18.9999 13.0815H8.09977C7.54749 13.0815 7.09977 12.6338 7.09977 12.0815ZM8.09977 7.74805C7.54749 7.74805 7.09977 8.19576 7.09977 8.74805C7.09977 9.30033 7.54749 9.74805 8.09977 9.74805H18.9999C19.5522 9.74805 19.9999 9.30033 19.9999 8.74805C19.9999 8.19576 19.5522 7.74805 18.9999 7.74805H8.09977ZM7.09977 5.41504C7.09977 4.86275 7.54749 4.41504 8.09977 4.41504H18.9999C19.5522 4.41504 19.9999 4.86275 19.9999 5.41504C19.9999 5.96732 19.5522 6.41504 18.9999 6.41504H8.09977C7.54749 6.41504 7.09977 5.96732 7.09977 5.41504ZM1.82617 6.30242C1.6699 6.15133 1.47218 6.05022 1.25719 6.01438L1.12576 6.00085C0.950502 5.99382 0.775834 6.03055 0.616984 6.10829C0.425624 6.20197 0.267112 6.35021 0.158633 6.53289C0.0544251 6.70832 0 6.90924 0 7.11318V13.8868C0 14.0907 0.054402 14.2916 0.158499 14.4669C0.267037 14.6498 0.425596 14.798 0.616939 14.8917C0.815572 14.9889 1.03898 15.022 1.2573 14.9856C1.47225 14.9497 1.67003 14.8486 1.8264 14.6973L5.32594 11.3107C5.43581 11.2044 5.52223 11.0764 5.58055 10.9352C5.63751 10.7973 5.66667 10.6492 5.66667 10.5C5.66667 10.3508 5.63751 10.2027 5.58055 10.0648C5.52223 9.92358 5.43581 9.79555 5.3261 9.68944L1.82617 6.30242Z" fill="#212B3D"/>
</g>
<defs>
<clipPath id="clip0_8377_93564">
<rect width="20" height="20" fill="white"/>
</clipPath>
</defs>
</svg>
