<svg width="20" height="20" viewBox="0 0 20 20" fill="none" xmlns="http://www.w3.org/2000/svg">
<path fill-rule="evenodd" clip-rule="evenodd" d="M2 6.93779V2H6.94462C7.20578 2.01756 7.45426 2.1188 7.6532 2.28854L17.916 12.5703L12.5675 17.9163L2.29162 7.6528C2.12215 7.4507 2.02018 7.20066 2 6.93779ZM1.79749 0C1.32091 0 0.863758 0.189233 0.526629 0.526213C0.189486 0.863207 0 1.32036 0 1.79714V6.97056C0 6.98964 0.000546098 7.00872 0.00163764 7.02777C0.0432692 7.75431 0.326589 8.44605 0.806503 8.99313C0.820991 9.00964 0.83602 9.02567 0.851564 9.0412L11.3005 19.4776C11.6373 19.8122 12.0929 20 12.5676 20C13.0423 20 13.4979 19.8122 13.8347 19.4776L13.8368 19.4755L19.475 13.8397L19.4771 13.8376C19.812 13.5009 20 13.0454 20 12.5705C20 12.0955 19.812 11.64 19.4771 11.3033L9.04467 0.851543C9.03073 0.837569 9.01637 0.824011 9.00162 0.810887C8.45364 0.323355 7.7555 0.037717 7.02294 0.00123757C7.00638 0.000412643 6.98979 0 6.97321 0H1.79749ZM4.04492 4.85365C4.04492 4.50219 4.32983 4.21729 4.68129 4.21729C5.03274 4.21729 5.31765 4.50219 5.31765 4.85365C5.31765 5.2051 5.03274 5.49001 4.68129 5.49001C4.32983 5.49001 4.04492 5.2051 4.04492 4.85365ZM4.68129 2.21729C3.22526 2.21729 2.04492 3.39763 2.04492 4.85365C2.04492 6.30967 3.22526 7.49001 4.68129 7.49001C6.13731 7.49001 7.31765 6.30967 7.31765 4.85365C7.31765 3.39763 6.13731 2.21729 4.68129 2.21729Z" fill="#212B3D"/>
</svg>
