<svg width="20" height="20" viewBox="0 0 20 20" fill="none" xmlns="http://www.w3.org/2000/svg">
<path fill-rule="evenodd" clip-rule="evenodd" d="M1.23205 1.5835C1.47511 1.5835 1.70674 1.6838 1.87517 1.85991C2.01209 2.00304 2.09819 2.18661 2.12309 2.38184L2.1306 2.50016V4.91504H2.4277C2.70384 4.91504 2.9277 5.1389 2.9277 5.41504C2.9277 5.6605 2.75083 5.86465 2.51758 5.90698L2.4277 5.91504H1.67318C1.65914 5.91622 1.64494 5.91683 1.6306 5.91683C1.61626 5.91683 1.60206 5.91622 1.58803 5.91504H0.833496C0.557354 5.91504 0.333496 5.69118 0.333496 5.41504C0.333496 5.16958 0.510371 4.96543 0.74362 4.92309L0.833496 4.91504H1.13052L1.13012 2.583L0.833496 2.5835C0.588036 2.5835 0.383888 2.40662 0.341552 2.17337L0.333496 2.0835C0.333496 1.83804 0.510371 1.63389 0.74362 1.59155L0.833496 1.5835H1.23205ZM19.1664 2.99854C19.5806 2.99854 19.9164 3.33432 19.9164 3.74854C19.9164 4.12823 19.6343 4.44203 19.2682 4.49169L19.1664 4.49854H5.61572C5.20151 4.49854 4.86572 4.16275 4.86572 3.74854C4.86572 3.36884 5.14788 3.05504 5.51395 3.00538L5.61572 2.99854H19.1664ZM19.1664 9.66504C19.5806 9.66504 19.9164 10.0008 19.9164 10.415C19.9164 10.7947 19.6343 11.1085 19.2682 11.1582L19.1664 11.165H5.61572C5.20151 11.165 4.86572 10.8293 4.86572 10.415C4.86572 10.0353 5.14788 9.72155 5.51395 9.67189L5.61572 9.66504H19.1664ZM19.9164 17.0815C19.9164 16.6673 19.5806 16.3315 19.1664 16.3315H5.61572L5.51395 16.3384C5.14788 16.3881 4.86572 16.7018 4.86572 17.0815C4.86572 17.4958 5.20151 17.8315 5.61572 17.8315H19.1664L19.2682 17.8247C19.6343 17.775 19.9164 17.4612 19.9164 17.0815ZM1.34761 14.9426C1.58896 14.8928 1.83899 14.9146 2.06819 15.0052C2.29559 15.095 2.49319 15.2485 2.63908 15.4476C2.78312 15.6442 2.87118 15.8776 2.89408 16.1218C2.91694 16.3655 2.87412 16.6112 2.77004 16.8318L2.70008 16.9613L2.61412 17.083C2.64542 17.1233 2.67315 17.1633 2.6987 17.2049L2.7686 17.3342C2.87252 17.5544 2.91545 17.7995 2.89294 18.0427C2.87038 18.2867 2.78288 18.5198 2.63942 18.7166C2.49427 18.9154 2.29753 19.0692 2.07097 19.1595C1.84233 19.2507 1.59306 19.2734 1.3518 19.2249C1.11212 19.1766 0.891126 19.0597 0.713605 18.8885C0.538616 18.7195 0.413053 18.5043 0.350187 18.2671C0.279436 18.0002 0.438467 17.7264 0.705392 17.6557C0.942659 17.5928 1.18531 17.7115 1.28599 17.9261L1.31681 18.0109C1.33319 18.0727 1.36517 18.1275 1.40809 18.169C1.44892 18.2083 1.49791 18.2342 1.54925 18.2446C1.59987 18.2548 1.65195 18.25 1.70053 18.2307C1.7512 18.2105 1.79677 18.1748 1.83154 18.1272C1.86818 18.077 1.89117 18.0157 1.89719 17.9506C1.90326 17.8851 1.89172 17.8192 1.8643 17.7611C1.83793 17.7053 1.7982 17.6594 1.75021 17.6282C1.71997 17.6085 1.68725 17.5951 1.65355 17.5883L1.60248 17.5832C0.973702 17.5819 0.93937 16.6915 1.49835 16.5922L1.60316 16.5832C1.65479 16.5832 1.70597 16.5679 1.75148 16.5382C1.79941 16.5071 1.83923 16.4611 1.86565 16.4051C1.8931 16.347 1.90461 16.2809 1.89845 16.2152C1.89235 16.1501 1.86923 16.0889 1.83243 16.0386C1.79744 15.9909 1.75179 15.9554 1.70074 15.9353C1.65223 15.9161 1.60025 15.9115 1.54971 15.922C1.49785 15.9327 1.44889 15.9589 1.40842 15.9983C1.37973 16.0263 1.35604 16.0602 1.33869 16.098L1.31756 16.1575C1.2484 16.4249 0.975611 16.5855 0.70827 16.5164C0.440929 16.4472 0.280272 16.1744 0.349433 15.9071C0.410985 15.6691 0.535558 15.4529 0.710104 15.2825C0.886851 15.1102 1.1077 14.9921 1.34761 14.9426ZM2.55549 8.64846C2.31229 8.3942 1.9793 8.25 1.63054 8.25C1.28179 8.25 0.948806 8.3942 0.705588 8.64846C0.466548 8.89837 0.333438 9.23433 0.333438 9.58333C0.333438 9.85947 0.557295 10.0833 0.833438 10.0833C1.10958 10.0833 1.33344 9.85947 1.33344 9.58333L1.33982 9.51483C1.35243 9.44791 1.38327 9.38669 1.42822 9.33969C1.48399 9.2814 1.55649 9.25 1.63054 9.25C1.70459 9.25 1.77709 9.2814 1.83285 9.33969C1.89279 9.40236 1.92764 9.49031 1.92764 9.58333C1.92764 9.74401 1.8757 9.8991 1.7816 10.0223L0.436426 11.7794L0.389791 11.8519C0.219 12.1738 0.448725 12.5833 0.833438 12.5833H2.42764L2.51752 12.5752C2.75077 12.5329 2.92764 12.3288 2.92764 12.0833L2.91959 11.9934C2.87725 11.7602 2.6731 11.5833 2.42764 11.5833L1.84506 11.583L2.57596 10.6297L2.6673 10.4976C2.83694 10.2254 2.92764 9.90821 2.92764 9.58333C2.92764 9.23432 2.79453 8.89836 2.55549 8.64846Z" fill="black"/>
</svg>
