<svg width="20" height="20" viewBox="0 0 20 20" fill="none" xmlns="http://www.w3.org/2000/svg">
<path fill-rule="evenodd" clip-rule="evenodd" d="M16.1197 0.546718C15.8228 0.249794 15.4201 0.0830078 15.0001 0.0830078H8.3335H1.66683L1.51034 0.0907554C1.14788 0.126744 0.807064 0.286935 0.547247 0.546747C0.25031 0.843685 0.0834961 1.24642 0.0834961 1.66634V3.33301L0.0903427 3.43478C0.140005 3.80085 0.4538 4.08301 0.833496 4.08301C1.24771 4.08301 1.5835 3.74722 1.5835 3.33301V1.66634L1.58984 1.63445L1.6079 1.60741C1.62353 1.59179 1.64472 1.58301 1.66683 1.58301H7.5835V18.416H5.41675L5.31498 18.4229C4.9489 18.4725 4.66675 18.7863 4.66675 19.166C4.66675 19.5802 5.00253 19.916 5.41675 19.916H8.31223L8.3335 19.9163L8.35476 19.916H11.2501L11.3519 19.9092C11.718 19.8595 12.0001 19.5457 12.0001 19.166C12.0001 18.7518 11.6643 18.416 11.2501 18.416H9.0835V1.58301H15.0001L15.0321 1.58935L15.0591 1.60745C15.0747 1.62306 15.0835 1.64425 15.0835 1.66634V3.33301L15.0904 3.43478C15.14 3.80085 15.4538 4.08301 15.8335 4.08301C16.2477 4.08301 16.5835 3.74722 16.5835 3.33301V1.66634L16.5758 1.50984C16.5398 1.14736 16.3796 0.806533 16.1197 0.546718ZM18.0094 11.8886C17.5323 11.747 17.0184 11.7132 16.5213 11.7904C16.0171 11.8686 15.5453 12.0584 15.1567 12.3434C14.7481 12.6431 14.4455 13.0382 14.2908 13.4878C14.1561 13.8795 14.3645 14.3063 14.7562 14.441C15.1479 14.5757 15.5746 14.3673 15.7093 13.9756L15.7477 13.8858C15.8086 13.7669 15.9082 13.6525 16.0439 13.5529C16.2337 13.4137 16.4795 13.3148 16.7513 13.2727C17.0298 13.2294 17.3193 13.2484 17.5824 13.3265C17.8329 13.4009 18.0443 13.5245 18.1925 13.6765C18.3218 13.8092 18.3946 13.9543 18.4123 14.0966C18.4292 14.2322 18.3971 14.3709 18.3127 14.5054C18.2147 14.6615 18.0513 14.8033 17.8372 14.908C17.6055 15.0214 17.3307 15.0832 17.0477 15.0833L16.9281 15.091C16.0506 15.206 16.0894 16.5814 17.0466 16.5833C17.3292 16.5839 17.6034 16.6458 17.8346 16.7591C18.0482 16.8637 18.2112 17.0052 18.3091 17.1611C18.3934 17.2954 18.4256 17.4338 18.409 17.5689C18.3915 17.7111 18.3192 17.8559 18.1907 17.9884C18.0434 18.1403 17.833 18.264 17.5833 18.3388C17.3212 18.4174 17.0324 18.4372 16.7541 18.395C16.4824 18.3538 16.2361 18.2559 16.0456 18.1176C15.8749 17.9937 15.7605 17.8463 15.7074 17.6958L15.6672 17.602C15.4987 17.2733 15.1089 17.1115 14.7508 17.2377C14.3601 17.3753 14.1551 17.8036 14.2927 18.1943C14.4504 18.6419 14.755 19.0343 15.1644 19.3315C15.5538 19.6141 16.0256 19.8016 16.5291 19.878C17.0258 19.9534 17.5386 19.9182 18.0142 19.7756C18.5022 19.6293 18.9362 19.3743 19.2675 19.0327C19.6177 18.6716 19.8393 18.2276 19.8978 17.7521C19.9571 17.2694 19.8445 16.7856 19.5794 16.3635L19.4641 16.1964C19.3823 16.0881 19.2907 15.9861 19.1905 15.8912L19.1251 15.834L19.1937 15.7757C19.3442 15.6332 19.4753 15.4747 19.5833 15.3026C19.8488 14.8794 19.9611 14.3946 19.9008 13.9112C19.8416 13.4351 19.6186 12.9907 19.2668 12.6297C18.9342 12.2883 18.4987 12.034 18.0094 11.8886Z" fill="black"/>
</svg>
