<svg width="17" height="16" viewBox="0 0 17 16" fill="none" xmlns="http://www.w3.org/2000/svg">
<g clip-path="url(#clip0_402_512)">
<path d="M13.4286 14.269H0.857143C0.629814 14.269 0.411797 14.3593 0.251051 14.5201C0.0903059 14.6808 0 14.8989 0 15.1262C0 15.3535 0.0903059 15.5715 0.251051 15.7323C0.411797 15.893 0.629814 15.9833 0.857143 15.9833H13.4286C13.6559 15.9833 13.8739 15.893 14.0347 15.7323C14.1954 15.5715 14.2857 15.3535 14.2857 15.1262C14.2857 14.8989 14.1954 14.6808 14.0347 14.5201C13.8739 14.3593 13.6559 14.269 13.4286 14.269Z" fill="#212B3D"/>
<path d="M15.4983 1.69769L14.2857 0.485116C13.959 0.173714 13.525 0 13.0737 0C12.6224 0 12.1884 0.173714 11.8617 0.485116L4.19543 8.15026C4.11281 8.23339 4.05775 8.33992 4.03772 8.4554L3.42857 11.8897C3.41353 11.9728 3.41709 12.0582 3.43899 12.1397C3.46089 12.2212 3.50059 12.2969 3.55523 12.3613C3.60987 12.4256 3.6781 12.4771 3.755 12.512C3.83191 12.5468 3.91558 12.5642 4 12.5628C4.03337 12.5631 4.06668 12.5601 4.09943 12.5537L7.53372 11.948C7.64933 11.9276 7.75588 11.8722 7.83886 11.7891L15.504 4.12397C15.8254 3.8025 16.0059 3.36654 16.0059 2.91197C16.0059 2.45741 15.8254 2.02145 15.504 1.69997L15.4983 1.69769Z" fill="#212B3D"/>
</g>
<defs>
<clipPath id="clip0_402_512">
<rect width="16.0059" height="15.9834" fill="white"/>
</clipPath>
</defs>
</svg>
