<svg width="22" height="20" viewBox="0 0 22 20" fill="none" xmlns="http://www.w3.org/2000/svg">
<path fill-rule="evenodd" clip-rule="evenodd" d="M20.5832 1.33154C20.9974 1.33154 21.3332 1.66733 21.3332 2.08154C21.3332 2.46124 21.051 2.77503 20.6849 2.8247L20.5832 2.83154H4.74988C4.33566 2.83154 3.99988 2.49576 3.99988 2.08154C3.99988 1.70185 4.28203 1.38805 4.64811 1.33839L4.74988 1.33154H20.5832ZM20.5832 17.9985C20.9974 17.9985 21.3332 18.3343 21.3332 18.7485C21.3332 19.1282 21.051 19.442 20.6849 19.4917L20.5832 19.4985H1.4165C1.00229 19.4985 0.666504 19.1627 0.666504 18.7485C0.666504 18.3688 0.948658 18.055 1.31473 18.0054L1.4165 17.9985H20.5832ZM21.3332 6.24854C21.3332 5.83432 20.9974 5.49854 20.5832 5.49854H7.24988L7.14811 5.50538C6.78203 5.55504 6.49988 5.86884 6.49988 6.24854C6.49988 6.66275 6.83566 6.99854 7.24988 6.99854H20.5832L20.6849 6.99169C21.051 6.94203 21.3332 6.62823 21.3332 6.24854ZM20.5832 9.66504C20.9974 9.66504 21.3332 10.0008 21.3332 10.415C21.3332 10.7947 21.051 11.1085 20.6849 11.1582L20.5832 11.165H1.4165C1.00229 11.165 0.666504 10.8293 0.666504 10.415C0.666504 10.0353 0.948658 9.72155 1.31473 9.67189L1.4165 9.66504H20.5832ZM21.3332 14.5815C21.3332 14.1673 20.9974 13.8315 20.5832 13.8315H4.74988L4.64811 13.8384C4.28203 13.8881 3.99988 14.2018 3.99988 14.5815C3.99988 14.9958 4.33566 15.3315 4.74988 15.3315H20.5832L20.6849 15.3247C21.051 15.275 21.3332 14.9612 21.3332 14.5815Z" fill="black"/>
</svg>
