<svg width="20" height="20" viewBox="0 0 20 20" fill="none" xmlns="http://www.w3.org/2000/svg">
<path fill-rule="evenodd" clip-rule="evenodd" d="M12.399 3.45169C12.5127 2.91124 12.1668 2.38094 11.6263 2.26723C11.0859 2.15353 10.5556 2.49947 10.4419 3.03993L7.59975 16.5487C7.48605 17.0892 7.83199 17.6195 8.37245 17.7332C8.9129 17.8469 9.4432 17.5009 9.5569 16.9605L12.399 3.45169ZM5.86614 5.20185C6.21501 5.63 6.15073 6.2599 5.72258 6.60876L2.5831 9.16686L5.72258 11.725C6.15073 12.0738 6.21501 12.7037 5.86614 13.1319C5.51728 13.56 4.88739 13.6243 4.45924 13.2754L0.368327 9.9421C0.13526 9.75219 0 9.4675 0 9.16686C0 8.86622 0.13526 8.58153 0.368327 8.39163L4.45924 5.05829C4.88739 4.70943 5.51728 4.7737 5.86614 5.20185ZM14.1335 5.20185C14.4824 4.7737 15.1122 4.70943 15.5404 5.05829L19.6313 8.39163C19.8644 8.58153 19.9996 8.86622 19.9996 9.16686C19.9996 9.4675 19.8644 9.75219 19.6313 9.9421L15.5404 13.2754C15.1122 13.6243 14.4824 13.56 14.1335 13.1319C13.7846 12.7037 13.8489 12.0738 14.2771 11.725L17.4165 9.16686L14.2771 6.60876C13.8489 6.2599 13.7846 5.63 14.1335 5.20185Z" fill="#212B3D"/>
</svg>
