<svg width="22" height="22" viewBox="0 0 22 22" fill="none" xmlns="http://www.w3.org/2000/svg">
<path fill-rule="evenodd" clip-rule="evenodd" d="M7.08337 0.5C7.49759 0.5 7.83337 0.835786 7.83337 1.25C7.83337 1.6297 7.55122 1.94349 7.18514 1.99315L7.08337 2H5.33337V10.8343C5.33337 12.293 5.91283 13.6919 6.94428 14.7234C7.97574 15.7548 9.3747 16.3343 10.8334 16.3343C12.292 16.3343 13.691 15.7548 14.7224 14.7234C15.6894 13.7564 16.2592 12.4664 16.3266 11.107L16.3334 10.8343V2H14.5834C14.1692 2 13.8334 1.66421 13.8334 1.25C13.8334 0.870304 14.1155 0.556509 14.4816 0.506847L14.5834 0.5H19.5834C19.9976 0.5 20.3334 0.835786 20.3334 1.25C20.3334 1.6297 20.0512 1.94349 19.6851 1.99315L19.5834 2H17.8334V10.8343C17.8334 12.6908 17.0959 14.4713 15.7831 15.784C14.4703 17.0968 12.6899 17.8343 10.8334 17.8343C8.97687 17.8343 7.19638 17.0968 5.88362 15.784C4.6438 14.5442 3.91709 12.8872 3.84017 11.143L3.83337 10.8343V2H2.08337C1.66916 2 1.33337 1.66421 1.33337 1.25C1.33337 0.870304 1.61553 0.556509 1.9816 0.506847L2.08337 0.5H7.08337ZM21.1667 20.416C21.1667 20.0018 20.8309 19.666 20.4167 19.666H1.25L1.14823 19.6729C0.782154 19.7225 0.5 20.0363 0.5 20.416C0.5 20.8302 0.835786 21.166 1.25 21.166H20.4167L20.5184 21.1592C20.8845 21.1095 21.1667 20.7957 21.1667 20.416Z" fill="black"/>
</svg>
