<svg width="20" height="20" viewBox="0 0 20 20" fill="none" xmlns="http://www.w3.org/2000/svg">
<path fill-rule="evenodd" clip-rule="evenodd" d="M12.1972 4.46967C11.9043 4.17678 11.4294 4.17678 11.1365 4.46967L6.25016 9.35599L1.36383 4.46967L1.27971 4.39705C0.986095 4.1792 0.569432 4.2034 0.303165 4.46967C0.0102725 4.76256 0.0102731 5.23744 0.303167 5.53033L5.1895 10.4166L0.303167 15.303L0.230548 15.3871C0.0126936 15.6807 0.0368991 16.0974 0.303165 16.3636C0.596058 16.6565 1.07093 16.6565 1.36383 16.3636L6.25016 11.4773L11.1365 16.3636L11.2206 16.4362C11.5142 16.6541 11.9309 16.6299 12.1972 16.3636C12.49 16.0707 12.49 15.5959 12.1972 15.303L7.31082 10.4166L12.1972 5.53033L12.2698 5.44621C12.4876 5.1526 12.4634 4.73594 12.1972 4.46967ZM16.7497 11.7674C17.1594 11.726 17.576 11.7587 17.9692 11.8637C18.3708 11.971 18.7393 12.1515 19.0464 12.3945C19.3694 12.65 19.6171 12.9687 19.7647 13.3282C19.9184 13.7028 19.9568 14.1062 19.8744 14.4992C19.8074 14.8185 19.6633 15.1185 19.4591 15.3779L19.3295 15.5284L16.6981 18.416L19.1479 18.4167C19.5276 18.4167 19.8414 18.6989 19.8911 19.065L19.8979 19.1667C19.8979 19.5464 19.6158 19.8602 19.2497 19.9099L19.1479 19.9167H15.0001C14.3848 19.9167 14.0459 19.2268 14.3797 18.7444L14.4457 18.6616L18.2283 14.51C18.3253 14.4068 18.3841 14.2976 18.4064 14.1914C18.4267 14.0942 18.4174 13.9962 18.377 13.8978C18.3304 13.7841 18.2427 13.6713 18.1157 13.5708C17.9733 13.4581 17.7902 13.3685 17.5821 13.3128C17.3651 13.2549 17.1308 13.2365 16.9008 13.2598C16.6738 13.2828 16.4603 13.3452 16.2791 13.4397C16.1119 13.5268 15.9807 13.6368 15.8937 13.7566C15.8378 13.8335 15.8021 13.9114 15.7854 13.9883L15.7748 14.0648C15.7511 14.4784 15.3967 14.7944 14.9831 14.7707C14.5696 14.747 14.2536 14.3925 14.2773 13.979C14.2999 13.5847 14.4399 13.2055 14.6802 12.8748C14.908 12.5613 15.2188 12.3008 15.5856 12.1096C15.9386 11.9256 16.3364 11.8093 16.7497 11.7674Z" fill="black"/>
</svg>
