<svg width="20" height="20" viewBox="0 0 20 20" fill="none" xmlns="http://www.w3.org/2000/svg">
<path fill-rule="evenodd" clip-rule="evenodd" d="M6.72745 2H5.27295V10.3383C5.27295 11.7074 5.785 13.0091 6.67891 13.9596C7.57085 14.9081 8.76699 15.4284 10.0002 15.4284C11.2335 15.4284 12.4296 14.9081 13.3215 13.9596C14.2154 13.0091 14.7275 11.7074 14.7275 10.3383V2H13.2725C12.7202 2 12.2725 1.55228 12.2725 1C12.2725 0.447715 12.7202 0 13.2725 0H15.7275H18.1816C18.7338 0 19.1816 0.447715 19.1816 1C19.1816 1.55228 18.7338 2 18.1816 2H16.7275V10.3383C16.7275 12.1995 16.0327 13.996 14.7785 15.3297C13.5223 16.6655 11.8049 17.4284 10.0002 17.4284C8.19552 17.4284 6.47815 16.6655 5.22195 15.3297C3.96771 13.996 3.27295 12.1995 3.27295 10.3383V2H1.81836C1.26607 2 0.818359 1.55228 0.818359 1C0.818359 0.447715 1.26607 0 1.81836 0H4.27295H6.72745C7.27974 0 7.72745 0.447715 7.72745 1C7.72745 1.55228 7.27974 2 6.72745 2ZM1 18C0.447715 18 0 18.4477 0 19C0 19.5523 0.447715 20 1 20H19C19.5523 20 20 19.5523 20 19C20 18.4477 19.5523 18 19 18H1Z" fill="#212B3D"/>
</svg>
