<svg width="20" height="20" viewBox="0 0 20 20" fill="none" xmlns="http://www.w3.org/2000/svg">
<path fill-rule="evenodd" clip-rule="evenodd" d="M3.2666 2.08154C3.2666 1.52926 3.71432 1.08154 4.2666 1.08154H18.0001C18.5524 1.08154 19.0001 1.52926 19.0001 2.08154C19.0001 2.63383 18.5524 3.08154 18.0001 3.08154H4.2666C3.71432 3.08154 3.2666 2.63383 3.2666 2.08154ZM3.2666 18.748C3.2666 18.1958 3.71432 17.748 4.2666 17.748H18.0001C18.5524 17.748 19.0001 18.1958 19.0001 18.748C19.0001 19.3003 18.5524 19.748 18.0001 19.748H4.2666C3.71432 19.748 3.2666 19.3003 3.2666 18.748ZM7.69971 14.415C7.14742 14.415 6.69971 14.8628 6.69971 15.415C6.69971 15.9673 7.14742 16.415 7.69971 16.415H17.9999C18.5521 16.415 18.9999 15.9673 18.9999 15.415C18.9999 14.8628 18.5521 14.415 17.9999 14.415H7.69971ZM6.69971 12.0815C6.69971 11.5293 7.14742 11.0815 7.69971 11.0815H17.9999C18.5521 11.0815 18.9999 11.5293 18.9999 12.0815C18.9999 12.6338 18.5521 13.0815 17.9999 13.0815H7.69971C7.14742 13.0815 6.69971 12.6338 6.69971 12.0815ZM7.69971 7.74805C7.14742 7.74805 6.69971 8.19576 6.69971 8.74805C6.69971 9.30033 7.14742 9.74805 7.69971 9.74805H17.9999C18.5521 9.74805 18.9999 9.30033 18.9999 8.74805C18.9999 8.19576 18.5521 7.74805 17.9999 7.74805H7.69971ZM6.69971 5.41504C6.69971 4.86275 7.14742 4.41504 7.69971 4.41504H17.9999C18.5521 4.41504 18.9999 4.86275 18.9999 5.41504C18.9999 5.96732 18.5521 6.41504 17.9999 6.41504H7.69971C7.14742 6.41504 6.69971 5.96732 6.69971 5.41504ZM3.8405 6.30242C3.99677 6.15133 4.19449 6.05022 4.40948 6.01439L4.54091 6.00085C4.71617 5.99382 4.89083 6.03055 5.04968 6.10829C5.24104 6.20197 5.39956 6.35021 5.50804 6.53289C5.61224 6.70832 5.66667 6.90924 5.66667 7.11318V13.8868C5.66667 14.0907 5.61227 14.2916 5.50817 14.4669C5.39963 14.6498 5.24107 14.798 5.04973 14.8917C4.8511 14.9889 4.62769 15.022 4.40937 14.9856C4.19441 14.9497 3.99664 14.8486 3.84027 14.6973L0.340731 11.3107C0.230858 11.2044 0.14444 11.0764 0.0861194 10.9352C0.0291573 10.7973 0 10.6492 0 10.5C0 10.3508 0.0291574 10.2027 0.0861142 10.0648C0.14444 9.92358 0.230858 9.79555 0.340569 9.68945L3.8405 6.30242Z" fill="#212B3D"/>
</svg>
