<svg width="20" height="20" viewBox="0 0 20 20" fill="none" xmlns="http://www.w3.org/2000/svg">
<path fill-rule="evenodd" clip-rule="evenodd" d="M0 2.08154C0 1.52926 0.447715 1.08154 1 1.08154H18.6172C19.1695 1.08154 19.6172 1.52926 19.6172 2.08154C19.6172 2.63383 19.1695 3.08154 18.6172 3.08154H1C0.447715 3.08154 0 2.63383 0 2.08154ZM0 18C0 17.4477 0.447715 17 1 17H14.0214C14.5737 17 15.0214 17.4477 15.0214 18C15.0214 18.5523 14.5737 19 14.0214 19H1C0.447715 19 0 18.5523 0 18ZM1 5C0.447715 5 0 5.44772 0 6C0 6.55228 0.447715 7 1 7H18.6172C19.1695 7 19.6172 6.55228 19.6172 6C19.6172 5.44772 19.1695 5 18.6172 5H1ZM0 10C0 9.44771 0.447715 9 1 9H18.6172C19.1695 9 19.6172 9.44771 19.6172 10C19.6172 10.5523 19.1695 11 18.6172 11H1C0.447715 11 0 10.5523 0 10ZM1 13C0.447715 13 0 13.4477 0 14C0 14.5523 0.447715 15 1 15H18.6172C19.1695 15 19.6172 14.5523 19.6172 14C19.6172 13.4477 19.1695 13 18.6172 13H1Z" fill="#212B3D"/>
</svg>
