<svg width="20" height="20" viewBox="0 0 20 20" fill="none" xmlns="http://www.w3.org/2000/svg">
<path fill-rule="evenodd" clip-rule="evenodd" d="M3.13037 2.08154C3.13037 1.52926 3.57809 1.08154 4.13037 1.08154H18.9998C19.5521 1.08154 19.9998 1.52926 19.9998 2.08154C19.9998 2.63383 19.5521 3.08154 18.9998 3.08154H4.13037C3.57809 3.08154 3.13037 2.63383 3.13037 2.08154ZM0 18.748C0 18.1958 0.447715 17.748 1 17.748H18.9998C19.5521 17.748 19.9998 18.1958 19.9998 18.748C19.9998 19.3003 19.5521 19.748 18.9998 19.748H1C0.447715 19.748 0 19.3003 0 18.748ZM6.47803 5.24805C5.92574 5.24805 5.47803 5.69576 5.47803 6.24805C5.47803 6.80033 5.92574 7.24805 6.47803 7.24805H18.9997C19.5519 7.24805 19.9997 6.80033 19.9997 6.24805C19.9997 5.69576 19.5519 5.24805 18.9997 5.24805H6.47803ZM0 10.415C0 9.86275 0.447715 9.41504 1 9.41504H18.9998C19.5521 9.41504 19.9998 9.86275 19.9998 10.415C19.9998 10.9673 19.5521 11.415 18.9998 11.415H1C0.447715 11.415 0 10.9673 0 10.415ZM4.13037 13.5815C3.57809 13.5815 3.13037 14.0293 3.13037 14.5815C3.13037 15.1338 3.57809 15.5815 4.13037 15.5815H18.9998C19.5521 15.5815 19.9998 15.1338 19.9998 14.5815C19.9998 14.0293 19.5521 13.5815 18.9998 13.5815H4.13037Z" fill="#212B3D"/>
</svg>
