<svg width="20" height="22" viewBox="0 0 20 22" fill="none" xmlns="http://www.w3.org/2000/svg">
<path fill-rule="evenodd" clip-rule="evenodd" d="M10.4167 0.833496C11.8974 0.833496 13.3176 1.42173 14.3647 2.46883C15.4118 3.51591 16 4.93606 16 6.41683C16 7.89759 15.4118 9.31773 14.3647 10.3649C14.3111 10.4185 14.2565 10.4709 14.201 10.522C14.8164 10.7887 15.3846 11.1531 15.8779 11.6053C17.0196 12.6519 17.6667 14.0838 17.6667 15.5833C17.6667 17.0829 17.0196 18.5149 15.8779 19.5613C14.8239 20.5276 13.4278 21.0931 11.9609 21.16L11.6667 21.1667H5.01395C5.00931 21.1668 5.00466 21.1668 5 21.1668C4.99534 21.1668 4.99069 21.1668 4.98605 21.1667H2.5C1.94772 21.1667 1.5 20.719 1.5 20.1667C1.5 19.6539 1.88604 19.2312 2.38338 19.1734L2.5 19.1667H4V11.0002V2.8335H2.5C1.94772 2.8335 1.5 2.38578 1.5 1.8335C1.5 1.32066 1.88604 0.897989 2.38338 0.840224L2.5 0.833496H5H10.4167ZM6 19.1667H11.6667C12.7454 19.1667 13.7754 18.7756 14.5265 18.087C15.2602 17.4145 15.6667 16.5149 15.6667 15.5833C15.6667 14.6518 15.2602 13.7521 14.5265 13.0796C13.8332 12.4441 12.9022 12.0619 11.9146 12.0069L11.6667 12H10.4246L10.4167 12.0002H6V19.1667ZM10.4542 10H10.4167L10.4133 10.0002H6V2.8335H10.4167L10.6352 2.84016C11.5058 2.89332 12.3302 3.26272 12.9505 3.88305C13.6225 4.55503 14 5.46648 14 6.41683C14 7.36716 13.6225 8.27862 12.9505 8.95065C12.2873 9.61379 11.391 9.9902 10.4542 10Z" fill="black"/>
</svg>
