<svg height="100%" width="100%" viewBox="0 0 14 17" fill="none" xmlns="http://www.w3.org/2000/svg">
  <path d="M1.31137 0.178538C0.759084 0.178538 0.311368 0.626253 0.311368 1.17854C0.311368 1.73082 0.759084 2.17854 1.31137 2.17854L2.31137 2.17854L2.31137 14.8348L1.31137 14.8348C0.759084 14.8348 0.311368 15.2825 0.311368 15.8348C0.311368 16.3871 0.759084 16.8348 1.31137 16.8348L3.31137 16.8348L8.65512 16.8348C9.96328 16.8348 11.2183 16.3809 12.1551 15.5223C13.1093 14.6476 13.6551 13.435 13.6551 12.1785C13.6551 10.922 13.1092 9.74066 12.1551 8.86604C11.8038 8.54402 11.3632 8.32709 10.9364 8.11604C11.8002 7.2425 12.3114 6.06378 12.3114 4.83479C12.3114 3.5971 11.8115 2.4287 10.9364 1.55354C10.0612 0.678371 8.8928 0.178538 7.65512 0.178538L1.31137 0.178538ZM4.31137 2.17854L7.65512 2.17854C8.36236 2.17854 9.03003 2.45969 9.53012 2.95979C10.0302 3.45988 10.3114 4.12754 10.3114 4.83479C10.3114 5.54204 10.0302 6.24094 9.53012 6.74104C9.03003 7.24113 8.36237 7.52229 7.65512 7.52229L4.31137 7.52229L4.31137 2.17854ZM4.31137 9.52229L7.65512 9.52229L8.65512 9.52229C9.46862 9.52229 10.2478 9.81816 10.8114 10.3348C11.3574 10.8354 11.6551 11.49 11.6551 12.1785C11.6551 12.867 11.3574 13.553 10.8114 14.0535C10.2477 14.5701 9.46854 14.8348 8.65512 14.8348L4.31137 14.8348L4.31137 9.52229Z" fill="#212b3d" fill-rule="evenodd" opacity="1" stroke="none"/>
</svg>
