<svg width="20" height="20" viewBox="0 0 20 20" fill="none" xmlns="http://www.w3.org/2000/svg">
<path d="M8.1321 2.89835e-07C8.91475 -0.00023691 9.69013 0.145121 10.4134 0.428002C11.1401 0.712239 11.8002 1.12993 12.3543 1.65737C12.9129 2.18871 13.353 2.82104 13.6477 3.51742C13.9439 4.21765 14.0867 4.96766 14.0669 5.72203C14.0523 6.27412 13.593 6.7099 13.0409 6.69535C12.5282 6.68185 12.1159 6.28482 12.0712 5.78613L12.0675 5.66937C12.0799 5.20119 11.9911 4.7348 11.8057 4.29678C11.6187 3.85478 11.337 3.44995 10.9757 3.10628C10.6105 2.75872 10.1716 2.48099 9.68484 2.2906C9.19455 2.09883 8.66651 1.99984 8.13326 2C7.31722 2.00071 6.53185 2.27349 5.9239 2.76364C5.32862 3.2435 4.94449 3.89794 4.83523 4.60684C4.72675 5.3106 4.8952 6.02819 5.3141 6.63306C5.70323 7.19494 6.28548 7.62601 6.96984 7.85826L7.17812 7.9219L10.5278 8.8295C11.029 8.96467 11.5059 9.15912 11.9484 9.40601L19 9.4072C19.5523 9.4072 20 9.85491 20 10.4072C20 10.92 19.614 11.3427 19.1166 11.4005L19 11.4072L14.071 11.407L14.0808 11.4217C14.7735 12.5325 15.0478 13.8359 14.8508 15.1187C14.6407 16.4882 13.9089 17.7353 12.7965 18.6312C11.697 19.5165 10.2981 20.0008 8.8544 20C7.04025 20 5.29644 19.3291 4.00344 18.1282C2.6958 16.9136 1.9565 15.2558 1.9565 13.5217C1.9565 12.9694 2.40422 12.5217 2.9565 12.5217C3.50879 12.5217 3.9565 12.9694 3.9565 13.5217C3.9565 14.6936 4.45998 15.8226 5.36452 16.6628C6.28384 17.5166 7.54027 18 8.85498 18C9.84623 18.0006 10.8014 17.6699 11.5421 17.0735C12.2699 16.4873 12.7405 15.6854 12.874 14.8154C13.0068 13.9505 12.7987 13.0692 12.2837 12.3282C12.0373 11.9737 11.7282 11.6624 11.3717 11.4055L1 11.4072C0.447715 11.4072 0 10.9595 0 10.4072C0 9.89436 0.386042 9.47169 0.883381 9.41393L1 9.4072L5.52854 9.40858C4.78405 9.01558 4.14416 8.45656 3.6699 7.77174C2.96124 6.74846 2.67164 5.51486 2.85857 4.30217C3.04469 3.0946 3.68966 1.99579 4.66866 1.2066C5.63468 0.427763 6.86309 0.00109659 8.1321 2.89835e-07Z" fill="#212B3D"/>
</svg>
