<svg width="20" height="20" viewBox="0 0 20 20" fill="none" xmlns="http://www.w3.org/2000/svg">
<path fill-rule="evenodd" clip-rule="evenodd" d="M2 3.31072V1.8335H6.5V18H4.97266C4.42037 18 3.97266 18.4477 3.97266 19C3.97266 19.5523 4.42037 20 4.97266 20H10.0282C10.5805 20 11.0282 19.5523 11.0282 19C11.0282 18.4477 10.5805 18 10.0282 18H8.5V1.8335H13V3.31072C13 3.86301 13.4477 4.31072 14 4.31072C14.5523 4.31072 15 3.86301 15 3.31072V1.65924C15 1.21506 14.8469 0.766514 14.5412 0.417002C14.2317 0.0632161 13.7811 -0.166504 13.2778 -0.166504H7.5H1.72222C1.21894 -0.166504 0.768253 0.0632168 0.45882 0.417002C0.153127 0.766513 0 1.21506 0 1.65924V3.31072C0 3.86301 0.447715 4.31072 1 4.31072C1.55228 4.31072 2 3.86301 2 3.31072ZM15.4011 9.03439C15.7549 8.96864 16.1208 8.99773 16.4556 9.11681C16.7901 9.23581 17.0745 9.43769 17.2813 9.69201C17.4877 9.94572 17.6097 10.2422 17.6414 10.5468C17.6731 10.8513 17.6144 11.1605 17.4673 11.4412C17.3199 11.7227 17.0873 11.9682 16.7882 12.1435C16.4886 12.3191 16.1379 12.4148 15.7762 12.415C15.2245 12.4153 14.7773 12.8625 14.7769 13.4142C14.7764 13.966 15.2229 14.4138 15.7747 14.415C16.1357 14.4158 16.4856 14.5117 16.7845 14.6871C17.083 14.8623 17.3151 15.1074 17.4624 15.3883C17.6092 15.6685 17.6681 15.9771 17.6369 16.281C17.6057 16.5851 17.4845 16.8812 17.2791 17.1349C17.0733 17.3891 16.7902 17.5913 16.4567 17.7111C16.123 17.831 15.7579 17.8613 15.4044 17.7971C15.0511 17.7329 14.7303 17.5781 14.4762 17.3572C14.2226 17.1366 14.0465 16.8603 13.9591 16.5632C13.8033 16.0333 13.2474 15.7302 12.7175 15.8861C12.1877 16.0419 11.8846 16.5978 12.0404 17.1276C12.2389 17.8022 12.6309 18.403 13.1639 18.8664C13.6963 19.3293 14.3492 19.6381 15.0469 19.7649C15.7446 19.8916 16.4664 19.8328 17.1329 19.5933C17.7997 19.3538 18.3904 18.9408 18.8336 18.3933C19.2773 17.8452 19.5546 17.1848 19.6265 16.4854C19.6983 15.7857 19.5608 15.0836 19.2338 14.4598C19.0269 14.065 18.7502 13.7131 18.4202 13.4171C18.7526 13.12 19.0311 12.7662 19.2391 12.3691C19.5664 11.744 19.7036 11.0405 19.6307 10.3397C19.5577 9.63919 19.2787 8.97806 18.8329 8.42998C18.3876 7.88251 17.7946 7.47037 17.1259 7.23248C16.4574 6.99469 15.7341 6.93827 15.0357 7.06805C14.3372 7.19786 13.6845 7.51017 13.1536 7.97671C12.6222 8.4437 12.233 9.04788 12.0386 9.72491C11.8862 10.2558 12.193 10.8096 12.7238 10.962C13.2547 11.1144 13.8086 10.8076 13.9609 10.2768C14.0465 9.9788 14.2211 9.70113 14.4738 9.47907C14.727 9.25658 15.0475 9.10011 15.4011 9.03439Z" fill="#212B3D"/>
</svg>
