<svg width="18" height="18" viewBox="0 0 18 18" fill="none" xmlns="http://www.w3.org/2000/svg">
<path fill-rule="evenodd" clip-rule="evenodd" d="M15.3468 1.70675C15.0606 1.73549 14.7943 1.81505 14.5373 1.9485C14.3538 2.04385 14.2116 2.14575 14.043 2.30282C13.9879 2.3542 12.321 4.019 10.3388 6.00234C7.29016 9.05283 6.73073 9.61565 6.70799 9.65524C6.69321 9.68098 6.67318 9.72796 6.66348 9.75964C6.63827 9.84197 6.24106 12.6339 6.24144 12.726C6.24223 12.9152 6.3452 13.0765 6.51897 13.1607C6.58675 13.1936 6.62099 13.2026 6.69975 13.2086C6.75043 13.2124 6.92767 13.1885 8.21162 13.0047C9.77741 12.7805 9.69773 12.794 9.79757 12.736C9.85517 12.7026 17.1678 5.39204 17.2616 5.27404C17.4069 5.09141 17.5471 4.84267 17.6213 4.63573C17.7661 4.23178 17.7886 3.76869 17.6833 3.35524C17.6062 3.05209 17.4694 2.7752 17.2745 2.52744C17.2448 2.48972 17.165 2.4036 17.0972 2.33609C16.9256 2.16522 16.7756 2.05434 16.5723 1.94808C16.3553 1.83464 16.1191 1.75787 15.8724 1.72055C15.7576 1.7032 15.4599 1.69538 15.3468 1.70675ZM15.3756 2.69646C15.1412 2.73375 14.9234 2.83647 14.7522 2.99046C14.7149 3.02402 13.0895 4.64667 11.1403 6.59636L7.5963 10.1412L7.45573 11.1284C7.37842 11.6713 7.31516 12.1203 7.31516 12.1261C7.31516 12.1348 7.49391 12.1111 8.31 11.9945L9.30484 11.8524L12.8918 8.26443C15.2896 5.86599 16.4931 4.65735 16.5218 4.61884C16.6804 4.40605 16.7613 4.1605 16.7613 3.89164C16.7613 3.70831 16.7311 3.56542 16.6572 3.39844C16.5099 3.06584 16.2088 2.81165 15.8559 2.72213C15.7125 2.68575 15.5106 2.67497 15.3756 2.69646ZM1.44716 10.7863C1.1432 10.8202 0.846382 10.9435 0.608364 11.1346C0.270159 11.4062 0.0508106 11.8094 0.00748096 12.239C-0.00272144 12.3402 -0.00286544 14.7299 0.00732976 14.8331C0.0429338 15.1934 0.195689 15.5268 0.446616 15.792C0.576922 15.9296 0.720922 16.0362 0.896364 16.1248C1.05692 16.2059 1.21168 16.2552 1.39676 16.2842C1.47621 16.2967 1.78461 16.2972 8.99996 16.2972C16.2153 16.2972 16.5237 16.2967 16.6032 16.2842C16.9754 16.2258 17.3037 16.0557 17.5533 15.792C17.7006 15.6364 17.8206 15.446 17.8959 15.2486C17.9434 15.1243 17.9815 14.9627 17.9903 14.8489C17.9928 14.8156 17.9977 14.7867 18.001 14.7846C18.0044 14.7825 18.0072 14.217 18.0072 13.528C18.0072 12.8372 18.0044 12.2769 18.001 12.279C17.9976 12.2811 17.9929 12.2571 17.9905 12.2258C17.9785 12.07 17.9158 11.8545 17.8342 11.6886C17.586 11.1833 17.1043 10.8468 16.542 10.7856C16.5023 10.7813 16.0057 10.7786 15.2604 10.7786C13.9023 10.7787 13.9914 10.7754 13.8816 10.8302C13.8014 10.8703 13.7106 10.9586 13.6706 11.0355C13.62 11.1326 13.6022 11.258 13.6228 11.3729C13.6471 11.5087 13.7717 11.6614 13.9068 11.721C14.0013 11.7628 13.9193 11.7602 15.264 11.7646L16.4988 11.7687L16.5514 11.7849C16.7821 11.8559 16.9594 12.0497 17.0027 12.2781C17.0121 12.3275 17.0136 12.4967 17.0135 13.535C17.0135 14.316 17.0109 14.7506 17.0061 14.7801C16.9858 14.905 16.9313 15.0137 16.842 15.1072C16.7526 15.2009 16.6693 15.2528 16.5477 15.291L16.4844 15.3108H8.99996H1.51556L1.45223 15.291C1.33058 15.2528 1.24736 15.2009 1.15794 15.1072C1.09738 15.0438 1.04494 14.9611 1.02244 14.8935C0.985082 14.7812 0.986616 14.8389 0.986544 13.5432C0.986494 12.7434 0.988992 12.3217 0.993953 12.2912C1.03156 12.0594 1.21287 11.8574 1.4484 11.785L1.50116 11.7687L2.73596 11.7646C4.08058 11.7602 3.99858 11.7628 4.09316 11.721C4.19399 11.6765 4.28835 11.5839 4.33807 11.4808C4.3742 11.4058 4.38476 11.3568 4.38476 11.2643C4.38476 11.1277 4.34032 11.0221 4.24076 10.9222C4.19253 10.8738 4.1666 10.8543 4.11836 10.8302C4.00834 10.7753 4.09926 10.7786 2.72876 10.7795C2.05358 10.7799 1.47686 10.783 1.44716 10.7863ZM0.00348496 13.536C0.00348496 14.2271 0.00432736 14.5098 0.00536416 14.1642C0.00640096 13.8187 0.00640096 13.2534 0.00536416 12.9078C0.00432736 12.5623 0.00348496 12.845 0.00348496 13.536Z" fill="#2F463F"/>
</svg>
