<svg width="20" height="20" viewBox="0 0 20 20" fill="none" xmlns="http://www.w3.org/2000/svg">
<path fill-rule="evenodd" clip-rule="evenodd" d="M0 2.08154C0 1.52926 0.447715 1.08154 1 1.08154H16.6522C17.2045 1.08154 17.6522 1.52926 17.6522 2.08154C17.6522 2.63383 17.2045 3.08154 16.6522 3.08154H1C0.447715 3.08154 0 2.63383 0 2.08154ZM0 18.748C0 18.1958 0.447715 17.748 1 17.748H19C19.5523 17.748 20 18.1958 20 18.748C20 19.3003 19.5523 19.748 19 19.748H1C0.447715 19.748 0 19.3003 0 18.748ZM1 5.24805C0.447715 5.24805 0 5.69576 0 6.24805C0 6.80033 0.447715 7.24805 1 7.24805H13.5217C14.074 7.24805 14.5217 6.80033 14.5217 6.24805C14.5217 5.69576 14.074 5.24805 13.5217 5.24805H1ZM0 10.415C0 9.86275 0.447715 9.41504 1 9.41504H19C19.5523 9.41504 20 9.86275 20 10.415C20 10.9673 19.5523 11.415 19 11.415H1C0.447715 11.415 0 10.9673 0 10.415ZM1 13.5815C0.447715 13.5815 0 14.0293 0 14.5815C0 15.1338 0.447715 15.5815 1 15.5815H15.8696C16.4218 15.5815 16.8696 15.1338 16.8696 14.5815C16.8696 14.0293 16.4218 13.5815 15.8696 13.5815H1Z" fill="#212B3D"/>
</svg>
