<svg width="20" height="20" viewBox="0 0 20 20" fill="none" xmlns="http://www.w3.org/2000/svg">
<path fill-rule="evenodd" clip-rule="evenodd" d="M15.0001 0.0830078C15.4201 0.0830078 15.8228 0.249794 16.1197 0.546718C16.3796 0.806533 16.5398 1.14736 16.5758 1.50984L16.5835 1.66634V3.33301C16.5835 3.74722 16.2477 4.08301 15.8335 4.08301C15.4538 4.08301 15.14 3.80085 15.0904 3.43478L15.0835 3.33301V1.66634C15.0835 1.64425 15.0747 1.62306 15.0591 1.60745L15.0321 1.58935L15.0001 1.58301H9.0835V18.416H11.2501C11.6643 18.416 12.0001 18.7518 12.0001 19.166C12.0001 19.5457 11.718 19.8595 11.3519 19.9092L11.2501 19.916H8.35476L8.3335 19.9163L8.31223 19.916H5.41675C5.00253 19.916 4.66675 19.5802 4.66675 19.166C4.66675 18.7863 4.9489 18.4725 5.31498 18.4229L5.41675 18.416H7.5835V1.58301H1.66683C1.64472 1.58301 1.62353 1.59179 1.6079 1.60741L1.58984 1.63445L1.5835 1.66634V3.33301C1.5835 3.74722 1.24771 4.08301 0.833496 4.08301C0.4538 4.08301 0.140005 3.80085 0.0903427 3.43478L0.0834961 3.33301V1.66634C0.0834961 1.24642 0.25031 0.843685 0.547247 0.546747C0.807064 0.286935 1.14788 0.126744 1.51034 0.0907554L1.66683 0.0830078H8.3335H15.0001ZM19.1668 18.415C19.581 18.415 19.9168 18.7508 19.9168 19.165C19.9168 19.5447 19.6347 19.8585 19.2686 19.9082L19.1668 19.915H17.1235C17.1102 19.9157 17.0969 19.9161 17.0835 19.9161C17.07 19.9161 17.0567 19.9157 17.0434 19.915H15.0001C14.5859 19.915 14.2501 19.5793 14.2501 19.165C14.2501 18.7853 14.5323 18.4715 14.8984 18.4219L15.0001 18.415H16.3334L16.3332 13.609L15.4681 14.3005C15.1739 14.5354 14.7571 14.5131 14.4896 14.2639L14.4141 14.1824C14.1791 13.8881 14.2014 13.4714 14.4506 13.2038L14.5322 13.1283L15.9381 12.0056C16.1099 11.8681 16.3171 11.7821 16.5347 11.7575C16.7532 11.7326 16.9741 11.7699 17.1719 11.865C17.3698 11.96 17.537 12.1091 17.6538 12.2946C17.7475 12.4432 17.8061 12.6107 17.8259 12.7846L17.8335 12.9161V18.415H19.1668Z" fill="black"/>
</svg>
