<svg width="20" height="20" viewBox="0 0 20 20" fill="none" xmlns="http://www.w3.org/2000/svg">
<path fill-rule="evenodd" clip-rule="evenodd" d="M2.5 1C1.83696 1 1.20107 1.26339 0.732233 1.73223C0.263392 2.20107 0 2.83696 0 3.5C0 4.16304 0.263392 4.79893 0.732233 5.26777C1.20107 5.73661 1.83696 6 2.5 6C3.16304 6 3.79893 5.73661 4.26777 5.26777C4.73661 4.79893 5 4.16304 5 3.5C5 2.83696 4.73661 2.20107 4.26777 1.73223C3.79893 1.26339 3.16304 1 2.5 1ZM2.14645 3.14645C2.24022 3.05268 2.36739 3 2.5 3C2.63261 3 2.75979 3.05268 2.85355 3.14645C2.94732 3.24021 3 3.36739 3 3.5C3 3.63261 2.94732 3.75979 2.85355 3.85355C2.75979 3.94732 2.63261 4 2.5 4C2.36739 4 2.24022 3.94732 2.14645 3.85355C2.05268 3.75978 2 3.63261 2 3.5C2 3.36739 2.05268 3.24021 2.14645 3.14645ZM7 2.5C6.44772 2.5 6 2.94772 6 3.5C6 4.05228 6.44772 4.5 7 4.5H19C19.5523 4.5 20 4.05228 20 3.5C20 2.94772 19.5523 2.5 19 2.5H7ZM0.732233 8.73223C1.20107 8.26339 1.83696 8 2.5 8C3.16304 8 3.79893 8.26339 4.26777 8.73223C4.73661 9.20107 5 9.83696 5 10.5C5 11.163 4.73661 11.7989 4.26777 12.2678C3.79893 12.7366 3.16304 13 2.5 13C1.83696 13 1.20107 12.7366 0.732233 12.2678C0.263392 11.7989 0 11.163 0 10.5C0 9.83696 0.263392 9.20107 0.732233 8.73223ZM2.5 10C2.36739 10 2.24021 10.0527 2.14645 10.1464C2.05268 10.2402 2 10.3674 2 10.5C2 10.6326 2.05268 10.7598 2.14645 10.8536C2.24022 10.9473 2.36739 11 2.5 11C2.63261 11 2.75978 10.9473 2.85355 10.8536C2.94732 10.7598 3 10.6326 3 10.5C3 10.3674 2.94732 10.2402 2.85355 10.1464C2.75979 10.0527 2.63261 10 2.5 10ZM7 9.5C6.44772 9.5 6 9.94771 6 10.5C6 11.0523 6.44772 11.5 7 11.5H19C19.5523 11.5 20 11.0523 20 10.5C20 9.94771 19.5523 9.5 19 9.5H7ZM0.732233 15.7322C1.20107 15.2634 1.83696 15 2.5 15C3.16304 15 3.79893 15.2634 4.26777 15.7322C4.73661 16.2011 5 16.837 5 17.5C5 18.163 4.73661 18.7989 4.26777 19.2678C3.79892 19.7366 3.16304 20 2.5 20C1.83696 20 1.20108 19.7366 0.732233 19.2678C0.263392 18.7989 0 18.163 0 17.5C0 16.837 0.263392 16.2011 0.732233 15.7322ZM2.5 17C2.36739 17 2.24022 17.0527 2.14645 17.1464C2.05268 17.2402 2 17.3674 2 17.5C2 17.6326 2.05268 17.7598 2.14645 17.8536C2.24021 17.9473 2.36739 18 2.5 18C2.63261 18 2.75979 17.9473 2.85355 17.8536C2.94732 17.7598 3 17.6326 3 17.5C3 17.3674 2.94732 17.2402 2.85355 17.1464C2.75978 17.0527 2.63261 17 2.5 17ZM7 16.5C6.44772 16.5 6 16.9477 6 17.5C6 18.0523 6.44772 18.5 7 18.5H19C19.5523 18.5 20 18.0523 20 17.5C20 16.9477 19.5523 16.5 19 16.5H7Z" fill="#212B3D"/>
</svg>
