<svg width="20" height="20" viewBox="0 0 20 20" fill="none" xmlns="http://www.w3.org/2000/svg">
<g clip-path="url(#clip0_8377_93574)">
<path fill-rule="evenodd" clip-rule="evenodd" d="M0.333496 2.0835C0.333496 1.80735 0.557354 1.5835 0.833496 1.5835H1.23205C1.47771 1.5835 1.70856 1.68573 1.87519 1.85992C2.04109 2.03336 2.1306 2.26404 2.1306 2.50016V4.91504H2.4277C2.70384 4.91504 2.9277 5.1389 2.9277 5.41504C2.9277 5.69118 2.70384 5.91504 2.4277 5.91504H1.67322C1.65917 5.91622 1.64495 5.91683 1.6306 5.91683C1.61624 5.91683 1.60203 5.91622 1.58798 5.91504H0.833496C0.557354 5.91504 0.333496 5.69118 0.333496 5.41504C0.333496 5.1389 0.557354 4.91504 0.833496 4.91504H1.1306V2.5835H0.833496C0.557354 2.5835 0.333496 2.35964 0.333496 2.0835ZM4.61572 3.74854C4.61572 3.19625 5.06344 2.74854 5.61572 2.74854H19.1664C19.7187 2.74854 20.1664 3.19625 20.1664 3.74854C20.1664 4.30082 19.7187 4.74854 19.1664 4.74854H5.61572C5.06344 4.74854 4.61572 4.30082 4.61572 3.74854ZM4.61572 10.415C4.61572 9.86275 5.06344 9.41504 5.61572 9.41504H19.1664C19.7187 9.41504 20.1664 9.86275 20.1664 10.415C20.1664 10.9673 19.7187 11.415 19.1664 11.415H5.61572C5.06344 11.415 4.61572 10.9673 4.61572 10.415ZM5.61572 16.0815C5.06344 16.0815 4.61572 16.5293 4.61572 17.0815C4.61572 17.6338 5.06344 18.0815 5.61572 18.0815H19.1664C19.7187 18.0815 20.1664 17.6338 20.1664 17.0815C20.1664 16.5293 19.7187 16.0815 19.1664 16.0815H5.61572ZM1.70061 15.9353C1.65161 15.916 1.5995 15.9116 1.54931 15.922C1.49897 15.9323 1.44967 15.9578 1.40795 15.9985C1.36604 16.0393 1.33363 16.094 1.31721 16.1575C1.24806 16.4249 0.975288 16.5856 0.707942 16.5164C0.440595 16.4473 0.279917 16.1745 0.349057 15.9071C0.41024 15.6706 0.534174 15.4538 0.709679 15.2826C0.885375 15.1112 1.10588 14.9924 1.34727 14.9426C1.58881 14.8928 1.83872 14.9147 2.06789 15.0052C2.29683 15.0956 2.49386 15.2499 2.63869 15.4475C2.78339 15.645 2.87091 15.8787 2.89372 16.1218C2.91652 16.365 2.87399 16.6107 2.76968 16.8318C2.7273 16.9216 2.67525 17.0062 2.61459 17.084C2.6746 17.1612 2.72614 17.2451 2.76819 17.3342C2.87239 17.5548 2.91503 17.8001 2.89257 18.0428C2.8701 18.2856 2.78314 18.5189 2.63915 18.7164C2.49504 18.914 2.29881 19.0685 2.07059 19.1595C1.84215 19.2506 1.59279 19.2736 1.35147 19.2249C1.11029 19.1762 0.889603 19.0587 0.713315 18.8885C0.53722 18.7185 0.412304 18.5029 0.349815 18.2671C0.279076 18.0002 0.438117 17.7264 0.705045 17.6557C0.971973 17.5849 1.24571 17.744 1.31645 18.0109C1.33321 18.0742 1.36583 18.1285 1.40782 18.169C1.44961 18.2094 1.49889 18.2345 1.54916 18.2446C1.59929 18.2547 1.65128 18.2502 1.70017 18.2307C1.74928 18.2111 1.79534 18.1763 1.83119 18.1271C1.86717 18.0778 1.8907 18.0168 1.89682 17.9507C1.90294 17.8845 1.89111 17.8187 1.86392 17.7611C1.8368 17.7037 1.79638 17.6585 1.74993 17.6282C1.70372 17.5981 1.65252 17.5833 1.60193 17.5832C1.32609 17.5825 1.10289 17.3586 1.10313 17.0827C1.10337 16.8069 1.32695 16.5834 1.60279 16.5832C1.65347 16.5831 1.70477 16.5684 1.75108 16.5383C1.79762 16.508 1.83812 16.4627 1.86528 16.4051C1.8925 16.3474 1.9043 16.2815 1.89809 16.2152C1.89188 16.149 1.86819 16.0879 1.83206 16.0386C1.79606 15.9895 1.74984 15.9548 1.70061 15.9353ZM1.42829 9.33969C1.48589 9.27946 1.55916 9.25 1.6306 9.25C1.70204 9.25 1.77531 9.27946 1.83292 9.33969C1.89124 9.40067 1.9277 9.48796 1.9277 9.58336C1.92771 9.74542 1.87476 9.90031 1.78162 10.0224L0.436488 11.7794C0.320821 11.9305 0.300933 12.1341 0.385185 12.3047C0.469436 12.4753 0.643222 12.5833 0.833499 12.5833H2.4277C2.70384 12.5833 2.9277 12.3595 2.9277 12.0833C2.9277 11.8072 2.70384 11.5833 2.4277 11.5833H1.84599L2.5764 10.6293C2.80518 10.3297 2.92772 9.9608 2.9277 9.58333C2.9277 9.23671 2.7962 8.90005 2.55556 8.64847C2.31419 8.39613 1.98197 8.25 1.6306 8.25C1.27924 8.25 0.947009 8.39613 0.705644 8.64847C0.465002 8.90005 0.333499 9.23671 0.333499 9.58333C0.333499 9.85948 0.557357 10.0833 0.833499 10.0833C1.10964 10.0833 1.3335 9.85948 1.3335 9.58333C1.3335 9.48793 1.36996 9.40067 1.42829 9.33969Z" fill="#212B3D"/>
</g>
<defs>
<clipPath id="clip0_8377_93574">
<rect width="20" height="20" fill="white"/>
</clipPath>
</defs>
</svg>
