<svg width="20" height="20" viewBox="0 0 20 20" fill="none" xmlns="http://www.w3.org/2000/svg">
<path fill-rule="evenodd" clip-rule="evenodd" d="M1.56494 2.08154C1.56494 1.52926 2.01266 1.08154 2.56494 1.08154H17.4345C17.9868 1.08154 18.4345 1.52926 18.4345 2.08154C18.4345 2.63383 17.9868 3.08154 17.4345 3.08154H2.56494C2.01266 3.08154 1.56494 2.63383 1.56494 2.08154ZM0 18.748C0 18.1958 0.447715 17.748 1 17.748H19C19.5523 17.748 20 18.1958 20 18.748C20 19.3003 19.5523 19.748 19 19.748H1C0.447715 19.748 0 19.3003 0 18.748ZM3.34766 5.24805C2.79537 5.24805 2.34766 5.69576 2.34766 6.24805C2.34766 6.80033 2.79537 7.24805 3.34766 7.24805H16.652C17.2043 7.24805 17.652 6.80033 17.652 6.24805C17.652 5.69576 17.2043 5.24805 16.652 5.24805H3.34766ZM0 10.415C0 9.86275 0.447715 9.41504 1 9.41504H19C19.5523 9.41504 20 9.86275 20 10.415C20 10.9673 19.5523 11.415 19 11.415H1C0.447715 11.415 0 10.9673 0 10.415ZM4.13037 13.5815C3.57809 13.5815 3.13037 14.0293 3.13037 14.5815C3.13037 15.1338 3.57809 15.5815 4.13037 15.5815H15.8695C16.4218 15.5815 16.8695 15.1338 16.8695 14.5815C16.8695 14.0293 16.4218 13.5815 15.8695 13.5815H4.13037Z" fill="#212B3D"/>
</svg>
