<svg width="19" height="18" viewBox="0 0 19 18" fill="none" xmlns="http://www.w3.org/2000/svg">
<path fill-rule="evenodd" clip-rule="evenodd" d="M14.6584 0.540123C14.3994 0.565273 14.1917 0.607033 13.9708 0.678385C13.5659 0.809209 13.2018 1.01501 12.88 1.29493C12.8602 1.31217 10.4922 3.67737 7.61784 6.55093C4.2704 9.8974 2.38196 11.7903 2.36467 11.8165C2.34983 11.839 2.3309 11.8747 2.3226 11.8957C2.3143 11.9168 2.02147 13.0486 1.67188 14.4108L1.03624 16.8876L1.03614 16.9848C1.03604 17.0741 1.0377 17.0865 1.05672 17.1382C1.14334 17.3737 1.38045 17.5077 1.62056 17.4568C1.74857 17.4297 6.58456 16.1846 6.61603 16.1707C6.63583 16.1619 6.66985 16.1425 6.69163 16.1275C6.72714 16.1031 17.1156 5.71968 17.2011 5.62319C17.5971 5.17589 17.8608 4.59819 17.9407 4.00319C17.9813 3.7008 17.9738 3.34441 17.9207 3.04919C17.8469 2.63953 17.6865 2.24305 17.4518 1.88999C17.0056 1.21892 16.305 0.750687 15.508 0.590876C15.3076 0.550671 15.1848 0.538799 14.9428 0.536192C14.8221 0.534896 14.6941 0.53666 14.6584 0.540123ZM14.7772 1.51265C14.4332 1.53332 14.0904 1.64373 13.7918 1.83002C13.7031 1.88538 13.577 1.98083 13.5114 2.04227L13.4588 2.09159L14.9341 3.56653L16.4095 5.04146L16.4686 4.97463C16.8306 4.56483 17.0176 4.02704 16.9876 3.48119C16.9644 3.05776 16.8234 2.67288 16.5641 2.32559C16.4384 2.15713 16.209 1.94748 16.0228 1.83082C15.6491 1.59669 15.2168 1.48624 14.7772 1.51265ZM8.11723 7.43399L3.46964 12.0816L4.94383 13.5558L6.41803 15.03L11.0674 10.3806L15.7168 5.7312L14.2444 4.25879C13.4346 3.44897 12.7704 2.78639 12.7684 2.78639C12.7664 2.78639 10.6734 4.87781 8.11723 7.43399ZM3.03403 13.0334C3.03403 13.0361 2.84614 13.7714 2.61649 14.6673C2.38685 15.5631 2.19995 16.2971 2.20117 16.2983C2.20306 16.3002 5.35103 15.4951 5.43716 15.4707L5.46789 15.462L4.25096 14.2452C3.58165 13.576 3.03403 13.0307 3.03403 13.0334Z" fill="#2F463F"/>
</svg>
