<svg width="20" height="20" viewBox="0 0 20 20" fill="none" xmlns="http://www.w3.org/2000/svg">
<g clip-path="url(#clip0_8377_93565)">
<path fill-rule="evenodd" clip-rule="evenodd" d="M1.33304 7.07232C2.19228 6.17729 3.36656 5.6665 4.60004 5.6665H5.80005H5.80207C6.45299 5.66782 7.09501 5.81245 7.68565 6.08942C8.27616 6.36633 8.80064 6.76858 9.2263 7.26732C9.58484 7.6874 9.53495 8.3186 9.11486 8.67713C8.69478 9.03567 8.06358 8.98578 7.70505 8.56569C7.46127 8.28007 7.16476 8.05414 6.83651 7.90022C6.50869 7.74649 6.15527 7.66736 5.79895 7.66651H4.60004C3.92394 7.66651 3.26685 7.94589 2.77581 8.45739C2.28344 8.97028 2 9.67429 2 10.4165C2 11.1587 2.28344 11.8627 2.77581 12.3756C3.26685 12.8871 3.92394 13.1665 4.60004 13.1665H5.79885C6.15517 13.1655 6.50857 13.0862 6.83639 12.9325C7.16473 12.7785 7.46135 12.5526 7.70531 12.267C8.06401 11.8471 8.69522 11.7974 9.11517 12.1561C9.53511 12.5148 9.58475 13.1461 9.22605 13.566C8.80029 14.0644 8.27588 14.4665 7.68553 14.7433C7.09504 15.0202 6.45323 15.1649 5.80249 15.1665L5.80005 15.1665H4.60004C3.36656 15.1665 2.19228 14.6557 1.33304 13.7607C0.475142 12.8671 0 11.6634 0 10.4165C0 9.1696 0.475142 7.96596 1.33304 7.07232ZM14.1984 5.66651L14.2003 5.6665H15.4003C16.6338 5.6665 17.8081 6.17729 18.6673 7.07232C19.5252 7.96596 20.0003 9.1696 20.0003 10.4165C20.0003 11.6634 19.5252 12.8671 18.6673 13.7607C17.8081 14.6557 16.6338 15.1665 15.4003 15.1665H14.2003L14.1981 15.1665C13.5472 15.1651 12.9053 15.0204 12.3148 14.7434C11.7243 14.4666 11.1999 14.0644 10.7742 13.5658C10.4155 13.1458 10.4653 12.5146 10.8853 12.156C11.3053 11.7974 11.9365 11.8472 12.2952 12.2672C12.539 12.5528 12.8356 12.7787 13.1639 12.9327C13.4917 13.0864 13.8451 13.1655 14.2014 13.1665H15.4003C16.0764 13.1665 16.7335 12.8871 17.2245 12.3756C17.7169 11.8627 18.0003 11.1587 18.0003 10.4165C18.0003 9.67429 17.7169 8.97028 17.2245 8.45739C16.7335 7.94589 16.0764 7.66651 15.4003 7.66651H14.2013C13.845 7.66732 13.4916 7.74642 13.1638 7.90014C12.8356 8.05405 12.5391 8.27998 12.2954 8.56562C11.9369 8.98574 11.3057 9.03569 10.8856 8.6772C10.4654 8.3187 10.4155 7.68751 10.774 7.26739C11.1996 6.76858 11.7241 6.36628 12.3147 6.08935C12.9053 5.81236 13.5474 5.66775 14.1984 5.66651ZM5.7998 9.41553C5.24752 9.41553 4.7998 9.86324 4.7998 10.4155C4.7998 10.9678 5.24752 11.4155 5.7998 11.4155H14.1999C14.7522 11.4155 15.1999 10.9678 15.1999 10.4155C15.1999 9.86324 14.7522 9.41553 14.1999 9.41553H5.7998Z" fill="#212B3D"/>
</g>
<defs>
<clipPath id="clip0_8377_93565">
<rect width="20" height="20" fill="white"/>
</clipPath>
</defs>
</svg>
