<svg height="100%" viewBox="0 0 16 16" width="100%" xmlns="http://www.w3.org/2000/svg">
<path d="M8.00572 0.911843C7.73497 0.911843 7.47181 0.963176 7.24556 1.11188C7.01927 1.26064 6.83282 1.50345 6.72545 1.75202L1.80443 13.0744L1.1643 13.0744C0.633998 13.0744 0.204103 13.5043 0.204103 14.0346C0.204103 14.5649 0.633998 14.9948 1.1643 14.9948L3.72483 14.9948C4.25513 14.9948 4.68503 14.5649 4.68503 14.0346C4.68503 13.5705 4.2824 13.2839 3.84486 13.1944L4.92508 10.7139L11.0864 10.7139L12.1666 13.1944C11.729 13.2839 11.3264 13.5705 11.3264 14.0346C11.3264 14.5649 11.7563 14.9948 12.2866 14.9948L14.8471 14.9948C15.3774 14.9948 15.8073 14.5649 15.8073 14.0346C15.8073 13.5043 15.3774 13.0744 14.8471 13.0744L14.207 13.0744L9.28598 1.75202C9.17898 1.50437 8.99213 1.2606 8.76587 1.11188C8.5397 0.963196 8.27648 0.911843 8.00572 0.911843ZM8.00572 3.63241L10.2462 8.79347L5.76525 8.79347L8.00572 3.63241Z" fill="#212b3d" fill-rule="evenodd" opacity="1" stroke="none"/>
</svg>
