<svg width="22" height="20" viewBox="0 0 22 20" fill="none" xmlns="http://www.w3.org/2000/svg">
<path fill-rule="evenodd" clip-rule="evenodd" d="M20.4167 1.33154C20.8309 1.33154 21.1667 1.66733 21.1667 2.08154C21.1667 2.46124 20.8845 2.77503 20.5184 2.8247L20.4167 2.83154H5.41663C5.00241 2.83154 4.66663 2.49576 4.66663 2.08154C4.66663 1.70185 4.94878 1.38805 5.31486 1.33839L5.41663 1.33154H20.4167ZM20.4167 17.9985C20.8309 17.9985 21.1667 18.3343 21.1667 18.7485C21.1667 19.1282 20.8845 19.442 20.5184 19.4917L20.4167 19.4985H5.41663C5.00241 19.4985 4.66663 19.1627 4.66663 18.7485C4.66663 18.3688 4.94878 18.055 5.31486 18.0054L5.41663 17.9985H20.4167ZM21.1667 15.415C21.1667 15.0008 20.8309 14.665 20.4167 14.665H9.16663L9.06486 14.6719C8.69878 14.7215 8.41663 15.0353 8.41663 15.415C8.41663 15.8293 8.75241 16.165 9.16663 16.165H20.4167L20.5184 16.1582C20.8845 16.1085 21.1667 15.7947 21.1667 15.415ZM20.4167 11.3315C20.8309 11.3315 21.1667 11.6673 21.1667 12.0815C21.1667 12.4612 20.8845 12.775 20.5184 12.8247L20.4167 12.8315H9.16663C8.75241 12.8315 8.41663 12.4958 8.41663 12.0815C8.41663 11.7018 8.69878 11.3881 9.06486 11.3384L9.16663 11.3315H20.4167ZM21.1667 8.74854C21.1667 8.33432 20.8309 7.99854 20.4167 7.99854H9.16663L9.06486 8.00538C8.69878 8.05504 8.41663 8.36884 8.41663 8.74854C8.41663 9.16275 8.75241 9.49854 9.16663 9.49854H20.4167L20.5184 9.49169C20.8845 9.44203 21.1667 9.12823 21.1667 8.74854ZM20.4167 4.66504C20.8309 4.66504 21.1667 5.00083 21.1667 5.41504C21.1667 5.79473 20.8845 6.10853 20.5184 6.15819L20.4167 6.16504H9.16663C8.75241 6.16504 8.41663 5.82925 8.41663 5.41504C8.41663 5.03534 8.69878 4.72155 9.06486 4.67189L9.16663 4.66504H20.4167ZM1.53353 6.02477C1.73205 5.92761 1.95533 5.89452 2.17369 5.93088C2.38868 5.96672 2.5864 6.06782 2.7429 6.21914L6.24242 9.60577C6.35229 9.71203 6.43872 9.84005 6.4971 9.98141C6.55402 10.1193 6.58317 10.2673 6.58317 10.4165C6.58317 10.5656 6.55402 10.7137 6.49705 10.8517C6.43872 10.9929 6.35229 11.121 6.2426 11.227L2.74284 14.6139C2.58653 14.7651 2.38876 14.8662 2.1738 14.9021C1.95548 14.9385 1.73208 14.9054 1.53347 14.8082C1.3421 14.7145 1.18355 14.5663 1.07501 14.3834C0.970896 14.208 0.916504 14.0072 0.916504 13.8033V7.02967C0.916504 6.82575 0.970919 6.62486 1.07509 6.44945C1.18362 6.2667 1.34213 6.11847 1.53353 6.02477Z" fill="black"/>
</svg>
