<svg width="20" height="20" viewBox="0 0 20 20" fill="none" xmlns="http://www.w3.org/2000/svg">
<path fill-rule="evenodd" clip-rule="evenodd" d="M13.3567 1.44075C12.3465 0.818833 11.182 0.492916 9.99572 0.500073C8.41848 0.478765 6.8784 1.06527 5.704 2.14009L5.5015 2.33393C4.64467 3.1917 4.05844 4.27732 3.80844 5.45569L3.79525 5.52305L3.66649 5.52409C3.43237 5.53253 3.19888 5.56312 2.96918 5.61582C2.43322 5.73879 1.93119 5.97915 1.49931 6.31956C1.06741 6.65999 0.716436 7.09197 0.471664 7.58438C0.226882 8.0768 0.0943932 8.61739 0.0837486 9.1672C0.0416424 9.94832 0.286726 10.7439 0.776161 11.3864C1.26562 12.029 1.96755 12.4767 2.75654 12.6494C3.16117 12.738 3.561 12.4818 3.64959 12.0772C3.73818 11.6725 3.48198 11.2727 3.07735 11.1841L2.91426 11.1407C2.53966 11.0231 2.20904 10.7921 1.96941 10.4775C1.69558 10.118 1.55847 9.67292 1.58254 9.22167C1.58982 8.86828 1.66885 8.54581 1.81486 8.25208C1.96087 7.95835 2.17023 7.70068 2.42785 7.49761C2.68547 7.29456 2.98493 7.15118 3.30462 7.07784C3.62435 7.00447 3.95635 7.00296 4.27673 7.07339C4.72233 7.17136 5.15144 6.8521 5.18566 6.39714C5.27643 5.19038 5.82399 4.06365 6.71671 3.24663C7.60944 2.42959 8.78015 1.98375 9.99018 1.99999C10.9103 1.99458 11.7992 2.24337 12.5704 2.71811C13.3416 3.19286 13.9641 3.8745 14.367 4.68544C14.4999 4.95302 14.779 5.11616 15.0774 5.10072C15.5037 5.07865 15.9301 5.14277 16.3311 5.28925C16.7322 5.43574 17.0995 5.66153 17.4112 5.95318C17.723 6.24488 17.9727 6.59643 18.1457 6.98694C18.3184 7.37719 18.4107 7.79842 18.417 8.2253C18.4349 8.7955 18.288 9.34603 17.9949 9.82076C17.7017 10.2955 17.2754 10.6735 16.769 10.9075C16.393 11.0813 16.2291 11.527 16.4028 11.903C16.5766 12.279 17.0223 12.4429 17.3983 12.2691C18.172 11.9116 18.8234 11.3341 19.2712 10.6088C19.719 9.88352 19.9434 9.04252 19.9166 8.19061C19.9076 7.57463 19.7717 6.95446 19.5173 6.3797C19.2627 5.80478 18.895 5.28725 18.436 4.85787C17.9771 4.42846 17.4363 4.09596 16.8457 3.88029L16.5905 3.79531C16.2475 3.69194 15.894 3.62842 15.537 3.60582L15.4822 3.60305L15.4228 3.5014C14.9052 2.66551 14.1986 1.95902 13.3567 1.44075ZM9.60102 18.9719C9.71492 19.0445 9.84235 19.0806 9.96976 19.0844H10.0126L10.1261 19.0754C10.2527 19.0552 10.3759 19.0016 10.4821 18.9105L10.5434 18.8546C10.5777 18.8196 10.6086 18.7809 10.6355 18.7388L10.6469 18.7222C10.7486 18.6035 10.9884 18.402 11.4029 18.1821C12.1947 17.7621 13.2807 17.4918 14.7124 17.459C14.9827 17.4527 15.2414 17.3453 15.435 17.1564C15.6358 16.9605 15.7502 16.6927 15.7502 16.4114V10.2979L15.7403 10.1546C15.727 10.0598 15.7007 9.96721 15.6619 9.87923C15.6033 9.7478 15.5202 9.63163 15.4165 9.53523C15.3137 9.44 15.1943 9.36655 15.0643 9.31796C14.9781 9.28584 14.8886 9.26498 14.7979 9.25565L14.6616 9.25032L14.2864 9.26458C12.81 9.34171 11.623 9.65817 10.7 10.148C10.4257 10.2936 10.1935 10.4428 10.0012 10.5894C9.80778 10.4434 9.57526 10.2938 9.30053 10.148L9.06425 10.0292C8.17761 9.60709 7.06746 9.33528 5.7141 9.26458L5.33824 9.25L5.20255 9.25565C5.11181 9.26497 5.02241 9.2858 4.93659 9.31782C4.80635 9.36642 4.68676 9.43994 4.58483 9.5344C4.47993 9.63199 4.39653 9.74855 4.33903 9.87838C4.28044 10.011 4.25024 10.1535 4.25024 10.2979V16.4114L4.25716 16.5309C4.28468 16.7677 4.39328 16.9884 4.56536 17.1563C4.75904 17.3453 5.01786 17.4527 5.28778 17.459C6.71973 17.4918 7.80573 17.7621 8.59757 18.1821C9.03156 18.4123 9.27403 18.6224 9.36498 18.7388C9.40533 18.802 9.45477 18.8574 9.51077 18.9044L9.60102 18.9719ZM14.0645 10.7822L14.2502 10.769V15.976L13.9363 15.9972L13.5452 16.0352C12.5221 16.1526 11.6562 16.3958 10.9371 16.7378L10.7502 16.83V11.908L10.8216 11.8483L10.9077 11.7812C11.0322 11.6885 11.1958 11.583 11.4031 11.473C12.0707 11.1188 12.9475 10.8709 14.0645 10.7822ZM5.74924 15.976V10.769L5.93604 10.7822L6.26396 10.8135C7.22628 10.9215 7.99657 11.1542 8.59737 11.473L8.74471 11.5545L8.87611 11.6336C8.99967 11.7111 9.09995 11.7838 9.17887 11.8483L9.24924 11.908V16.83L9.06332 16.7378L8.78678 16.6142C8.03087 16.2973 7.12677 16.0826 6.06399 15.9972L5.74924 15.976Z" fill="black"/>
</svg>
