<svg width="20" height="20" viewBox="0 0 20 20" fill="none" xmlns="http://www.w3.org/2000/svg">
<path d="M13.4526 0C13.9365 0 14.391 0.213237 14.7132 0.578094C14.975 0.874898 15.1321 1.25201 15.1672 1.64767L15.1748 1.8182V3.4545C15.1748 4.00678 14.7271 4.4545 14.1748 4.4545C13.662 4.4545 13.2393 4.06846 13.1815 3.57112L13.1748 3.4545L13.1743 1.99951L8.6748 1.999V18H10.203C10.7553 18 11.203 18.4477 11.203 19C11.203 19.5128 10.817 19.9355 10.3196 19.9933L10.203 20H5.1475C4.59522 20 4.1475 19.5523 4.1475 19C4.1475 18.4872 4.53355 18.0645 5.03088 18.0067L5.1475 18H6.6748V1.999L2.1743 1.99951L2.1748 3.4545C2.1748 3.96733 1.78876 4.39 1.29143 4.44777L1.1748 4.4545C0.661969 4.4545 0.239298 4.06846 0.181533 3.57112L0.174805 3.4545V1.8182C0.174805 1.3614 0.33716 0.917297 0.636824 0.577576C0.922892 0.253717 1.31377 0.0492509 1.73694 0.0078125L1.89701 0H13.4526ZM15.9998 7C17.0054 7 17.9722 7.38383 18.6894 8.07106C19.4147 8.76632 19.8248 9.71514 19.8248 10.7074C19.8249 11.7335 19.4897 12.7301 18.8714 13.5576L18.711 13.7609L15.3123 17.8295L18.8248 17.83C19.3376 17.83 19.7603 18.216 19.8181 18.7134L19.8248 18.83C19.8248 19.3428 19.4388 19.7655 18.9414 19.8233L18.8248 19.83H13.1748C12.365 19.83 11.9064 18.9281 12.3393 18.2798L12.4073 18.189L17.1751 12.4799C17.5967 11.9737 17.8249 11.3492 17.8248 10.7075C17.8248 10.2637 17.6397 9.83528 17.3055 9.51501C16.9629 9.18672 16.4926 9 15.9998 9C15.507 9 15.0367 9.18672 14.6942 9.51494C14.4017 9.79524 14.2234 10.1583 14.1834 10.542L14.1748 10.7075C14.1748 11.2598 13.7271 11.7075 13.1748 11.7075C12.6225 11.7075 12.1748 11.2598 12.1748 10.7075C12.1748 9.71514 12.5849 8.76632 13.3103 8.07099C14.0274 7.38383 14.9943 7 15.9998 7Z" fill="#212B3D"/>
</svg>
