<svg width="22" height="20" viewBox="0 0 22 20" fill="none" xmlns="http://www.w3.org/2000/svg">
<path fill-rule="evenodd" clip-rule="evenodd" d="M20.4167 1.33154C20.8309 1.33154 21.1667 1.66733 21.1667 2.08154C21.1667 2.46124 20.8845 2.77503 20.5184 2.8247L20.4167 2.83154H5.41663C5.00241 2.83154 4.66663 2.49576 4.66663 2.08154C4.66663 1.70185 4.94878 1.38805 5.31486 1.33839L5.41663 1.33154H20.4167ZM20.4167 17.9985C20.8309 17.9985 21.1667 18.3343 21.1667 18.7485C21.1667 19.1282 20.8845 19.442 20.5184 19.4917L20.4167 19.4985H5.41663C5.00241 19.4985 4.66663 19.1627 4.66663 18.7485C4.66663 18.3688 4.94878 18.055 5.31486 18.0054L5.41663 17.9985H20.4167ZM21.1667 15.415C21.1667 15.0008 20.8309 14.665 20.4167 14.665H9.16663L9.06486 14.6719C8.69878 14.7215 8.41663 15.0353 8.41663 15.415C8.41663 15.8293 8.75241 16.165 9.16663 16.165H20.4167L20.5184 16.1582C20.8845 16.1085 21.1667 15.7947 21.1667 15.415ZM20.4167 11.3315C20.8309 11.3315 21.1667 11.6673 21.1667 12.0815C21.1667 12.4612 20.8845 12.775 20.5184 12.8247L20.4167 12.8315H9.16663C8.75241 12.8315 8.41663 12.4958 8.41663 12.0815C8.41663 11.7018 8.69878 11.3881 9.06486 11.3384L9.16663 11.3315H20.4167ZM21.1667 8.74854C21.1667 8.33432 20.8309 7.99854 20.4167 7.99854H9.16663L9.06486 8.00538C8.69878 8.05504 8.41663 8.36884 8.41663 8.74854C8.41663 9.16275 8.75241 9.49854 9.16663 9.49854H20.4167L20.5184 9.49169C20.8845 9.44203 21.1667 9.12823 21.1667 8.74854ZM20.4167 4.66504C20.8309 4.66504 21.1667 5.00083 21.1667 5.41504C21.1667 5.79473 20.8845 6.10853 20.5184 6.15819L20.4167 6.16504H9.16663C8.75241 6.16504 8.41663 5.82925 8.41663 5.41504C8.41663 5.03534 8.69878 4.72155 9.06486 4.67189L9.16663 4.66504H20.4167ZM4.75701 6.21893C4.91327 6.06783 5.11099 5.96673 5.32598 5.93089L5.45741 5.91735C5.63267 5.91032 5.80734 5.94705 5.96619 6.0248C6.15755 6.11847 6.31606 6.26672 6.42454 6.44939C6.52875 6.62482 6.58317 6.82574 6.58317 7.02968V13.8033C6.58317 14.0072 6.52877 14.2081 6.42467 14.3834C6.31613 14.5663 6.15758 14.7145 5.96623 14.8082C5.7676 14.9055 5.54419 14.9385 5.32587 14.9021C5.11092 14.8662 4.91315 14.7651 4.75678 14.6139L1.25723 11.2272C1.14736 11.1209 1.06094 10.9929 1.00262 10.8517C0.945661 10.7138 0.916504 10.5657 0.916504 10.4165C0.916504 10.2673 0.945661 10.1192 1.00262 9.98131C1.06094 9.84009 1.14736 9.71206 1.25707 9.60595L4.75701 6.21893Z" fill="black"/>
</svg>
