<svg width="20" height="20" viewBox="0 0 20 20" fill="none" xmlns="http://www.w3.org/2000/svg">
<path fill-rule="evenodd" clip-rule="evenodd" d="M2.1958 0.194824H7.4108C8.27263 0.194824 9.09921 0.537436 9.70862 1.14699L19.4003 10.8387C19.5764 11.0147 19.7014 11.2351 19.7617 11.4759C19.8225 11.7173 19.8164 11.9707 19.7443 12.2095C19.6722 12.4475 19.5369 12.6616 19.3522 12.8295C19.168 12.9965 18.9419 13.1106 18.6979 13.1594L14.083 14.082L13.1604 18.6969C13.1214 18.8922 13.0405 19.0761 12.924 19.2362L12.8301 19.3516C12.6628 19.5358 12.4486 19.6712 12.2099 19.7435C11.9719 19.8154 11.7187 19.8215 11.4771 19.7609C11.2357 19.7002 11.0156 19.5752 10.8397 19.3993L1.14808 9.70774C0.538434 9.09835 0.195801 8.27171 0.195801 7.40982V2.19482C0.195801 1.6644 0.406514 1.1557 0.781578 0.780621C1.15664 0.405542 1.66536 0.194824 2.1958 0.194824ZM7.58367 1.70339L7.4108 1.69482H2.1958C2.06319 1.69482 1.93601 1.7475 1.84226 1.84126C1.74848 1.93504 1.6958 2.06222 1.6958 2.19482V7.40982C1.6958 7.8737 1.88026 8.31874 2.20863 8.64697L11.735 18.173L12.7104 13.2977C12.7623 13.0379 12.9465 12.8278 13.1906 12.7395L13.2987 12.7094L18.174 11.734L8.6479 2.20759C8.3607 1.92032 7.98408 1.74319 7.58367 1.70339ZM4.55547 3.47205C4.79811 3.37156 5.05818 3.31982 5.3208 3.31982C5.58343 3.31982 5.8435 3.37156 6.0862 3.47208C6.32884 3.5726 6.54931 3.71991 6.73501 3.90561C6.92073 4.09133 7.06804 4.3118 7.16856 4.55446C7.26907 4.79711 7.3208 5.05718 7.3208 5.31982C7.3208 5.58248 7.26907 5.84254 7.16856 6.0852C7.06804 6.32787 6.92072 6.54835 6.73501 6.73404C6.54928 6.91977 6.32879 7.0671 6.08618 7.16758C5.84353 7.26809 5.58345 7.31982 5.3208 7.31982C5.05816 7.31982 4.79808 7.26809 4.55545 7.16759C4.3128 7.06709 4.09231 6.91977 3.90661 6.73407C3.72088 6.54835 3.57356 6.32787 3.47304 6.0852C3.37253 5.84254 3.3208 5.58248 3.3208 5.31982C3.3208 5.05718 3.37253 4.79711 3.47305 4.55444C3.57356 4.3118 3.72088 4.09133 3.90659 3.90561C4.09229 3.71992 4.31274 3.57261 4.55547 3.47205ZM5.51216 4.85789C5.45148 4.83276 5.38645 4.81982 5.3208 4.81982C5.25515 4.81982 5.19011 4.83276 5.12951 4.85786C5.06881 4.88301 5.01368 4.91985 4.96725 4.96627C4.92082 5.01271 4.88399 5.06783 4.85886 5.12849C4.83373 5.18915 4.8208 5.25416 4.8208 5.31982C4.8208 5.38549 4.83373 5.45051 4.85886 5.51117C4.88399 5.57184 4.92081 5.62695 4.96725 5.67338C5.01368 5.71981 5.0688 5.75664 5.12945 5.78177C5.19011 5.80689 5.25514 5.81982 5.3208 5.81982C5.38646 5.81982 5.45148 5.80689 5.51218 5.78175C5.57281 5.75664 5.62792 5.71981 5.67437 5.67336C5.72079 5.62695 5.75761 5.57184 5.78274 5.51117C5.80787 5.45051 5.8208 5.38549 5.8208 5.31982C5.8208 5.25416 5.80787 5.18915 5.78275 5.1285C5.75761 5.06783 5.72078 5.01271 5.67435 4.96627C5.62793 4.91985 5.5728 4.88301 5.51216 4.85789Z" fill="black"/>
</svg>
