<svg width="20" height="20" viewBox="0 0 20 20" fill="none" xmlns="http://www.w3.org/2000/svg">
<path fill-rule="evenodd" clip-rule="evenodd" d="M16.1197 0.546718C15.8228 0.249794 15.4201 0.0830078 15.0001 0.0830078H8.3335H1.66683L1.51034 0.0907554C1.14788 0.126744 0.807064 0.286935 0.547247 0.546747C0.25031 0.843685 0.0834961 1.24642 0.0834961 1.66634V3.33301L0.0903427 3.43478C0.140005 3.80085 0.4538 4.08301 0.833496 4.08301C1.24771 4.08301 1.5835 3.74722 1.5835 3.33301V1.66634L1.58984 1.63445L1.6079 1.60741C1.62353 1.59179 1.64472 1.58301 1.66683 1.58301H7.5835V18.416H5.41675L5.31498 18.4229C4.9489 18.4725 4.66675 18.7863 4.66675 19.166C4.66675 19.5802 5.00253 19.916 5.41675 19.916H8.31223L8.3335 19.9163L8.35476 19.916H11.2501L11.3519 19.9092C11.718 19.8595 12.0001 19.5457 12.0001 19.166C12.0001 18.7518 11.6643 18.416 11.2501 18.416H9.0835V1.58301H15.0001L15.0321 1.58935L15.0591 1.60745C15.0747 1.62306 15.0835 1.64425 15.0835 1.66634V3.33301L15.0904 3.43478C15.14 3.80085 15.4538 4.08301 15.8335 4.08301C16.2477 4.08301 16.5835 3.74722 16.5835 3.33301V1.66634L16.5758 1.50984C16.5398 1.14736 16.3796 0.806533 16.1197 0.546718ZM19.0251 12.4025C18.4978 11.9806 17.802 11.75 17.0835 11.75C16.365 11.75 15.6692 11.9806 15.1418 12.4026C14.5792 12.8526 14.2502 13.4881 14.2502 14.1667C14.2502 14.5809 14.5859 14.9167 15.0002 14.9167C15.4144 14.9167 15.7502 14.5809 15.7502 14.1667L15.7593 14.0636C15.7898 13.8914 15.8965 13.7197 16.0788 13.5739C16.3329 13.3706 16.6969 13.25 17.0835 13.25C17.4701 13.25 17.8342 13.3706 18.0881 13.5738C18.3069 13.7489 18.4169 13.9612 18.4169 14.1667C18.4169 14.5019 18.2701 14.8371 17.9859 15.122L14.47 18.6362L14.402 18.7135C14.0335 19.1915 14.3671 19.9167 15.0002 19.9167H19.1669L19.2686 19.9099C19.6347 19.8602 19.9169 19.5464 19.9169 19.1667L19.91 19.0649C19.8604 18.6989 19.5466 18.4167 19.1669 18.4167L16.8112 18.416L19.0471 16.1822L19.1931 16.0259C19.6593 15.493 19.9169 14.843 19.9169 14.1667C19.9169 13.4881 19.5878 12.8526 19.0251 12.4025Z" fill="black"/>
</svg>
