<svg width="20" height="20" viewBox="0 0 20 20" fill="none" xmlns="http://www.w3.org/2000/svg">
<path fill-rule="evenodd" clip-rule="evenodd" d="M0.75845 2.05129C1.19801 1.59174 1.79887 1.33154 2.4277 1.33154C3.05653 1.33154 3.65739 1.59174 4.09695 2.05129C4.53025 2.50428 4.7719 3.1142 4.7719 3.74821C4.7719 4.38223 4.53025 4.99215 4.09695 5.44514C3.65739 5.90468 3.05653 6.16488 2.4277 6.16488C1.79887 6.16488 1.19801 5.90468 0.758459 5.44515C0.325152 4.99216 0.0834961 4.38224 0.0834961 3.74821C0.0834961 3.11419 0.325152 2.50427 0.75845 2.05129ZM3.01299 3.08812C2.85461 2.92254 2.64448 2.83154 2.4277 2.83154C2.21092 2.83154 2.0008 2.92254 1.84241 3.08813C1.67776 3.26025 1.5835 3.49817 1.5835 3.74821C1.5835 3.99826 1.67776 4.23617 1.84241 4.40831C2.0008 4.57389 2.21092 4.66488 2.4277 4.66488C2.64448 4.66488 2.85461 4.57389 3.01299 4.40831C3.17764 4.23617 3.2719 3.99826 3.2719 3.74821C3.2719 3.49817 3.17764 3.26025 3.01299 3.08812ZM19.9168 3.74854C19.9168 3.33432 19.581 2.99854 19.1668 2.99854H7.21033L7.10856 3.00538C6.74248 3.05504 6.46033 3.36884 6.46033 3.74854C6.46033 4.16275 6.79611 4.49854 7.21033 4.49854H19.1668L19.2686 4.49169C19.6347 4.44203 19.9168 4.12823 19.9168 3.74854ZM2.4277 7.99854C1.79887 7.99854 1.19801 8.25873 0.75845 8.71827C0.325152 9.17125 0.0834961 9.78117 0.0834961 10.4152C0.0834961 11.0492 0.325179 11.6592 0.758509 12.1122C1.19797 12.5717 1.79884 12.8319 2.4277 12.8319C3.05656 12.8319 3.65743 12.5717 4.09699 12.1121C4.53022 11.6592 4.7719 11.0492 4.7719 10.4152C4.7719 9.78118 4.53025 9.17126 4.09695 8.71827C3.65739 8.25873 3.05654 7.99854 2.4277 7.99854ZM2.4277 9.49854C2.64449 9.49854 2.85461 9.58953 3.01299 9.7551C3.17764 9.92723 3.2719 10.1652 3.2719 10.4152C3.2719 10.6652 3.17762 10.9032 3.01304 11.0752C2.85459 11.2409 2.64448 11.3319 2.4277 11.3319C2.21092 11.3319 2.00082 11.2409 1.84245 11.0753C1.67777 10.9032 1.5835 10.6652 1.5835 10.4152C1.5835 10.1651 1.67776 9.92724 1.84241 9.75511C2.00079 9.58953 2.21091 9.49854 2.4277 9.49854ZM19.9168 10.415C19.9168 10.0008 19.581 9.66504 19.1668 9.66504H7.21033L7.10856 9.67189C6.74248 9.72155 6.46033 10.0353 6.46033 10.415C6.46033 10.8293 6.79611 11.165 7.21033 11.165H19.1668L19.2686 11.1582C19.6347 11.1085 19.9168 10.7947 19.9168 10.415ZM2.4277 14.665C1.79884 14.665 1.19797 14.9253 0.758417 15.3849C0.325142 15.8379 0.0834961 16.4478 0.0834961 17.0817C0.0834961 17.7158 0.325179 18.3258 0.758509 18.7787C1.19797 19.2382 1.79884 19.4984 2.4277 19.4984C3.05656 19.4984 3.65743 19.2382 4.09699 18.7786C4.53022 18.3258 4.7719 17.7158 4.7719 17.0817C4.7719 16.4478 4.53026 15.8379 4.09699 15.3849C3.65743 14.9253 3.05656 14.665 2.4277 14.665ZM2.4277 16.165C2.64448 16.165 2.85459 16.256 3.01296 16.4216C3.17764 16.5938 3.2719 16.8317 3.2719 17.0817C3.2719 17.3318 3.17762 17.5697 3.01304 17.7418C2.85459 17.9074 2.64448 17.9984 2.4277 17.9984C2.21092 17.9984 2.00082 17.9074 1.84245 17.7419C1.67777 17.5697 1.5835 17.3318 1.5835 17.0817C1.5835 16.8317 1.67776 16.5938 1.84244 16.4216C2.00082 16.256 2.21092 16.165 2.4277 16.165ZM19.9168 17.0815C19.9168 16.6673 19.581 16.3315 19.1668 16.3315H7.21033L7.10856 16.3384C6.74248 16.3881 6.46033 16.7018 6.46033 17.0815C6.46033 17.4958 6.79611 17.8315 7.21033 17.8315H19.1668L19.2686 17.8247C19.6347 17.775 19.9168 17.4612 19.9168 17.0815Z" fill="black"/>
</svg>
