<svg width="20" height="20" viewBox="0 0 20 20" fill="none" xmlns="http://www.w3.org/2000/svg">
<path fill-rule="evenodd" clip-rule="evenodd" d="M5.43946 2C4.14624 2 2.88227 2.44425 1.9305 3.26965C0.974238 4.09893 0.403587 5.25682 0.403587 6.5C0.403587 7.74318 0.974238 8.90107 1.9305 9.73036C2.88227 10.5558 4.14624 11 5.43946 11C6.38481 11 7.31452 10.7626 8.11808 10.3125C7.75304 11.5581 7.11797 12.6987 6.25795 13.631C4.84867 15.1587 2.95535 16 1 16C0.447715 16 0 16.4477 0 17C0 17.5523 0.447715 18 1 18C3.54024 18 5.9584 16.9054 7.72799 14.9871C9.34245 13.237 10.3001 10.9306 10.4535 8.50365C10.707 8.96005 11.0458 9.37532 11.4552 9.73036C12.4069 10.5558 13.6709 11 14.9641 11C15.9095 11 16.8392 10.7626 17.6427 10.3125C17.2777 11.5581 16.6426 12.6987 15.7826 13.631C14.3733 15.1587 12.48 16 10.5247 16C9.97238 16 9.52466 16.4477 9.52466 17C9.52466 17.5523 9.97238 18 10.5247 18C13.0649 18 15.4831 16.9054 17.2527 14.9871C19.0197 13.0715 20 10.4895 20 7.8125V6.5C20 5.25682 19.4293 4.09893 18.4731 3.26965C17.5213 2.44425 16.2574 2 14.9641 2C13.6709 2 12.4069 2.44425 11.4552 3.26965C10.8899 3.75987 10.4594 4.36492 10.2018 5.03453C9.94424 4.36492 9.5137 3.75987 8.94843 3.26965C7.99666 2.44425 6.73269 2 5.43946 2Z" fill="#212B3D"/>
</svg>
