<svg width="20" height="20" viewBox="0 0 20 20" fill="none" xmlns="http://www.w3.org/2000/svg">
<path fill-rule="evenodd" clip-rule="evenodd" d="M2 1.8335V3.3335C2 3.88578 1.55228 4.3335 1 4.3335C0.447715 4.3335 0 3.88578 0 3.3335V1.66683C0 1.23704 0.138716 0.794616 0.428267 0.442463C0.722358 0.08479 1.16803 -0.166504 1.68519 -0.166504H7.16699H12.6483C13.1655 -0.166504 13.6111 0.0847893 13.9052 0.442463C14.1948 0.794617 14.3335 1.23704 14.3335 1.66683V3.3335C14.3335 3.88578 13.8858 4.3335 13.3335 4.3335C12.7812 4.3335 12.3335 3.88578 12.3335 3.3335V1.8335H8.16699V18.167H9.56491C10.1172 18.167 10.5649 18.6147 10.5649 19.167C10.5649 19.7193 10.1172 20.167 9.56491 20.167H4.76855C4.21627 20.167 3.76855 19.7193 3.76855 19.167C3.76855 18.6147 4.21627 18.167 4.76855 18.167H6.16699V1.8335H2Z" fill="#212B3D"/>
<path fill-rule="evenodd" clip-rule="evenodd" d="M15.3978 7.48305C15.1107 7.35833 14.7964 7.31144 14.4886 7.34305C14.1808 7.37466 13.8801 7.48481 13.6226 7.67083L13.6226 7.67084L11.0952 9.49632C10.6475 9.8197 10.5467 10.4448 10.8701 10.8925C11.1935 11.3402 11.8186 11.441 12.2663 11.1176L14.4238 9.55922V18.167H12.5001C11.9478 18.167 11.5001 18.6147 11.5001 19.167C11.5001 19.7193 11.9478 20.167 12.5001 20.167H18.3334C18.8857 20.167 19.3334 19.7193 19.3334 19.167C19.3334 18.6147 18.8857 18.167 18.3334 18.167H16.4238L16.4238 9.00964L16.4238 9.00806C16.4233 8.67014 16.3169 8.34759 16.1291 8.07806C15.9423 7.80983 15.6852 7.60791 15.3978 7.48305Z" fill="#212B3D"/>
</svg>
