<svg width="22" height="20" viewBox="0 0 22 20" fill="none" xmlns="http://www.w3.org/2000/svg">
<path fill-rule="evenodd" clip-rule="evenodd" d="M18.0832 1.33154C18.4974 1.33154 18.8332 1.66733 18.8332 2.08154C18.8332 2.46124 18.551 2.77503 18.1849 2.8247L18.0832 2.83154H1.4165C1.00229 2.83154 0.666504 2.49576 0.666504 2.08154C0.666504 1.70185 0.948658 1.38805 1.31473 1.33839L1.4165 1.33154H18.0832ZM20.5832 17.9985C20.9974 17.9985 21.3332 18.3343 21.3332 18.7485C21.3332 19.1282 21.051 19.442 20.6849 19.4917L20.5832 19.4985H1.4165C1.00229 19.4985 0.666504 19.1627 0.666504 18.7485C0.666504 18.3688 0.948658 18.055 1.31473 18.0054L1.4165 17.9985H20.5832ZM15.4999 6.24854C15.4999 5.83432 15.1641 5.49854 14.7499 5.49854H1.4165L1.31473 5.50538C0.948658 5.55504 0.666504 5.86884 0.666504 6.24854C0.666504 6.66275 1.00229 6.99854 1.4165 6.99854H14.7499L14.8516 6.99169C15.2177 6.94203 15.4999 6.62823 15.4999 6.24854ZM20.5832 9.66504C20.9974 9.66504 21.3332 10.0008 21.3332 10.415C21.3332 10.7947 21.051 11.1085 20.6849 11.1582L20.5832 11.165H1.4165C1.00229 11.165 0.666504 10.8293 0.666504 10.415C0.666504 10.0353 0.948658 9.72155 1.31473 9.67189L1.4165 9.66504H20.5832ZM17.9999 14.5815C17.9999 14.1673 17.6641 13.8315 17.2499 13.8315H1.4165L1.31473 13.8384C0.948658 13.8881 0.666504 14.2018 0.666504 14.5815C0.666504 14.9958 1.00229 15.3315 1.4165 15.3315H17.2499L17.3516 15.3247C17.7177 15.275 17.9999 14.9612 17.9999 14.5815Z" fill="black"/>
</svg>
