<svg width="22" height="20" viewBox="0 0 22 20" fill="none" xmlns="http://www.w3.org/2000/svg">
<path fill-rule="evenodd" clip-rule="evenodd" d="M11.315 0.496533C10.5844 0.2232 9.8014 0.0827999 9.01098 0.0830078C7.73745 0.0840711 6.50415 0.49382 5.53328 1.2424C4.54685 2.003 3.89576 3.06408 3.70751 4.23211C3.51822 5.4067 3.81136 6.6011 4.52737 7.59008C5.23182 8.5631 6.29739 9.27134 7.5274 9.59194L7.80946 9.66504H1.4165L1.31473 9.67189C0.948658 9.72155 0.666504 10.0353 0.666504 10.415C0.666504 10.8293 1.00229 11.165 1.4165 11.165H12.5721C13.0156 11.4564 13.3983 11.8166 13.6991 12.2305C14.2864 13.0386 14.5232 13.9984 14.3722 14.94C14.2199 15.8881 13.6831 16.763 12.852 17.4031C12.0053 18.0554 10.9135 18.417 9.78051 18.4163C8.29529 18.4163 6.87573 17.8939 5.83744 16.9714C4.81712 16.0649 4.24988 14.8482 4.24988 13.5866C4.24988 13.1724 3.91409 12.8366 3.49988 12.8366C3.08566 12.8366 2.74988 13.1724 2.74988 13.5866C2.74988 15.2847 3.50599 16.9065 4.84116 18.0928C6.15833 19.2631 7.93353 19.9163 9.78005 19.9163C11.2399 19.9172 12.6546 19.4486 13.7674 18.5915C14.8957 17.7224 15.6392 16.5106 15.8532 15.1777C16.0681 13.8382 15.732 12.4764 14.9126 11.3488C14.8674 11.2866 14.8209 11.2253 14.7731 11.165H20.5832L20.6849 11.1582C21.051 11.1085 21.3332 10.7947 21.3332 10.415C21.3332 10.0008 20.9974 9.66504 20.5832 9.66504H12.9873C12.5178 9.40579 12.0085 9.20305 11.472 9.06462L7.90471 8.14017L7.68287 8.07593C6.88007 7.81971 6.19721 7.33868 5.74237 6.71043C5.25772 6.04102 5.06313 5.24814 5.18841 4.47077C5.31474 3.68688 5.75945 2.96213 6.4492 2.4303C7.15452 1.88647 8.06552 1.5838 9.0118 1.58301C9.62291 1.58285 10.2277 1.69129 10.7894 1.90142C11.347 2.11005 11.8498 2.41437 12.268 2.7951C12.6814 3.17127 13.0037 3.61423 13.2175 4.09748C13.429 4.57548 13.5302 5.08421 13.5162 5.59502C13.5048 6.00908 13.8312 6.35396 14.2453 6.36533C14.6593 6.3767 15.0042 6.05026 15.0156 5.6362C15.0358 4.90162 14.8905 4.17162 14.5893 3.49059C14.29 2.81425 13.8436 2.20083 13.2777 1.68578C12.7169 1.17529 12.0495 0.77134 11.315 0.496533Z" fill="black"/>
</svg>
