<svg width="20" height="20" viewBox="0 0 20 20" fill="none" xmlns="http://www.w3.org/2000/svg">
<path fill-rule="evenodd" clip-rule="evenodd" d="M11.604 2.51241C11.199 2.42562 10.8003 2.6836 10.7135 3.08862L7.8188 16.5974L7.80418 16.6984C7.77603 17.0667 8.02374 17.4083 8.39501 17.4879C8.80003 17.5747 9.19872 17.3167 9.28551 16.9117L12.1802 3.40291L12.1948 3.30196C12.223 2.9336 11.9753 2.59196 11.604 2.51241ZM4.53164 5.24787C4.85509 4.98911 5.32706 5.04156 5.58581 5.365C5.82105 5.65904 5.79909 6.07583 5.55015 6.34359L5.46868 6.41918L2.03312 9.16702L5.46869 11.9146C5.76273 12.1498 5.8328 12.5613 5.6487 12.8771L5.58581 12.9687C5.35058 13.2628 4.93913 13.3329 4.62326 13.1488L4.53164 13.0859L0.364972 9.7525C0.0185389 9.47535 -0.00810836 8.96766 0.285029 8.65505L0.364975 8.5812L4.53164 5.24787ZM14.4145 5.365C14.6497 5.07096 15.0612 5.00089 15.377 5.18499L15.4687 5.24787L19.6354 8.5812C19.9818 8.85835 20.0085 9.36604 19.7153 9.67866L19.6354 9.7525L15.4687 13.0859C15.1452 13.3446 14.6733 13.2922 14.4145 12.9687C14.1793 12.6747 14.2012 12.2579 14.4502 11.9902L14.5316 11.9146L17.9661 9.16702L14.5316 6.41918C14.2376 6.18394 14.1675 5.7725 14.3516 5.45663L14.4145 5.365Z" fill="black"/>
</svg>
