<svg width="21" height="21" viewBox="0 0 21 21" fill="none" xmlns="http://www.w3.org/2000/svg">
<path fill-rule="evenodd" clip-rule="evenodd" d="M19.5 0C19.9142 0 20.25 0.335786 20.25 0.75C20.25 1.1297 19.9678 1.44349 19.6018 1.49315L19.5 1.5H15.5751L6.37508 18.75H9.5C9.91421 18.75 10.25 19.0858 10.25 19.5C10.25 19.8797 9.96785 20.1935 9.60177 20.2432L9.5 20.25H5.14395C5.13093 20.2503 5.11787 20.2503 5.10481 20.25H0.75C0.335786 20.25 0 19.9142 0 19.5C0 19.1203 0.282154 18.8065 0.648229 18.7568L0.75 18.75H4.67508L13.8751 1.5H10.75C10.3358 1.5 10 1.16421 10 0.75C10 0.370304 10.2822 0.056509 10.6482 0.00684661L10.75 0H15.1257H19.5Z" fill="black"/>
</svg>
