<svg width="24" height="24" viewBox="0 0 24 24" fill="none" xmlns="http://www.w3.org/2000/svg">
<g clip-path="url(#clip0_967_5216)">
<path d="M10 19H1C0.734784 19 0.48043 19.1054 0.292893 19.2929C0.105357 19.4804 0 19.7348 0 20C0 20.2652 0.105357 20.5196 0.292893 20.7071C0.48043 20.8946 0.734784 21 1 21H1.15L1.51 23.18C1.54833 23.4166 1.67039 23.6316 1.85394 23.7858C2.03749 23.94 2.27031 24.0231 2.51 24.02H8.51C8.74969 24.0231 8.98251 23.94 9.16606 23.7858C9.34961 23.6316 9.47167 23.4166 9.51 23.18L9.85 21H10C10.2652 21 10.5196 20.8946 10.7071 20.7071C10.8946 20.5196 11 20.2652 11 20C11 19.7348 10.8946 19.4804 10.7071 19.2929C10.5196 19.1054 10.2652 19 10 19Z" fill="#212B3D"/>
<path d="M23 19H14C13.7348 19 13.4804 19.1054 13.2929 19.2929C13.1054 19.4804 13 19.7348 13 20C13 20.2652 13.1054 20.5196 13.2929 20.7071C13.4804 20.8946 13.7348 21 14 21H14.15L14.51 23.18C14.5483 23.4166 14.6704 23.6316 14.8539 23.7858C15.0375 23.94 15.2703 24.0231 15.51 24.02H21.51C21.7497 24.0231 21.9825 23.94 22.1661 23.7858C22.3496 23.6316 22.4717 23.4166 22.51 23.18L22.85 21H23C23.2652 21 23.5196 20.8946 23.7071 20.7071C23.8946 20.5196 24 20.2652 24 20C24 19.7348 23.8946 19.4804 23.7071 19.2929C23.5196 19.1054 23.2652 19 23 19Z" fill="#212B3D"/>
<path d="M5.49999 14.37C5.95675 14.3681 6.4016 14.2241 6.77282 13.958C7.14403 13.6918 7.4232 13.3167 7.5716 12.8848C7.71999 12.4528 7.73024 11.9853 7.60094 11.5472C7.47163 11.1091 7.20918 10.7222 6.84999 10.44V10.44H6.77999L6.70999 10.39L6.63999 10.34C6.5383 10.28 6.43115 10.2298 6.31999 10.19V10.19H6.25999H5.22999H5.12999L4.99999 10C4.47654 10.1248 4.01698 10.4371 3.70826 10.8779C3.39953 11.3186 3.26305 11.8572 3.32464 12.3918C3.38623 12.9264 3.64161 13.4199 4.04248 13.7789C4.44334 14.1379 4.96188 14.3375 5.49999 14.34V14.37Z" fill="#212B3D"/>
<path d="M2.33001 17.9999H8.67001C8.70882 17.9999 8.7471 17.9909 8.78181 17.9735C8.81652 17.9561 8.84672 17.9309 8.87001 17.8999C8.88694 17.8639 8.89572 17.8247 8.89572 17.7849C8.89572 17.7451 8.88694 17.7059 8.87001 17.6699C8.6337 16.952 8.17685 16.327 7.56457 15.884C6.95228 15.4409 6.21578 15.2024 5.46001 15.2024C4.70423 15.2024 3.96774 15.4409 3.35545 15.884C2.74316 16.327 2.28632 16.952 2.05001 17.6699C2.03307 17.7059 2.02429 17.7451 2.02429 17.7849C2.02429 17.8247 2.03307 17.8639 2.05001 17.8999C2.08258 17.9412 2.12612 17.9724 2.17564 17.9901C2.22516 18.0078 2.27865 18.0112 2.33001 17.9999Z" fill="#212B3D"/>
<path d="M19.0001 10H18.8801H18.7701H17.9301H17.8701H17.8101H17.7501C17.2431 10.1502 16.8072 10.478 16.5221 10.9234C16.2371 11.3687 16.1219 11.9018 16.1978 12.4251C16.2737 12.9484 16.5356 13.4269 16.9354 13.7729C17.3352 14.1189 17.8463 14.3094 18.3751 14.3094C18.9038 14.3094 19.4149 14.1189 19.8147 13.7729C20.2146 13.4269 20.4764 12.9484 20.5523 12.4251C20.6282 11.9018 20.5131 11.3687 20.228 10.9234C19.9429 10.478 19.507 10.1502 19.0001 10V10Z" fill="#212B3D"/>
<path d="M8.8 10.5H9.8L13.16 13.38C13.2478 13.4587 13.3621 13.5016 13.48 13.5C13.5527 13.4976 13.6241 13.4806 13.69 13.45C13.7813 13.4154 13.8599 13.3538 13.9153 13.2734C13.9707 13.193 14.0002 13.0976 14 13V10.5H15.2C15.5119 9.89456 15.9853 9.38726 16.5677 9.03427C17.1502 8.68127 17.8189 8.49636 18.5 8.5C18.6665 8.48975 18.8335 8.48975 19 8.5V1.69C19 1.24178 18.8219 0.811926 18.505 0.49499C18.1881 0.178053 17.7582 0 17.31 0L6.69 0C6.24178 0 5.81193 0.178053 5.49499 0.49499C5.17805 0.811926 5 1.24178 5 1.69V8.51C5.16651 8.49975 5.33349 8.49975 5.5 8.51C6.17956 8.50766 6.8467 8.69201 7.42864 9.04293C8.01058 9.39386 8.48495 9.89788 8.8 10.5V10.5Z" fill="#212B3D"/>
<path d="M15.09 17.6401C15.0731 17.6761 15.0643 17.7154 15.0643 17.7551C15.0643 17.7949 15.0731 17.8341 15.09 17.8701C15.1158 17.9009 15.1479 17.9257 15.1841 17.9429C15.2204 17.9602 15.2599 17.9695 15.3 17.9701H21.64C21.6788 17.9701 21.7171 17.9611 21.7518 17.9437C21.7865 17.9264 21.8167 17.9012 21.84 17.8701C21.857 17.8341 21.8657 17.7949 21.8657 17.7551C21.8657 17.7154 21.857 17.6761 21.84 17.6401C21.6037 16.9222 21.1469 16.2972 20.5346 15.8542C19.9223 15.4111 19.1858 15.1726 18.43 15.1726C17.6742 15.1726 16.9377 15.4111 16.3255 15.8542C15.7132 16.2972 15.2563 16.9222 15.02 17.6401H15.09Z" fill="#212B3D"/>
</g>
<defs>
<clipPath id="clip0_967_5216">
<rect width="24" height="24" fill="white"/>
</clipPath>
</defs>
</svg>
