<svg width="18" height="18" viewBox="0 0 18 18" fill="none" xmlns="http://www.w3.org/2000/svg">
<path id="Vector" fill-rule="evenodd" clip-rule="evenodd" d="M8.6688 0.537106C8.64306 0.538474 8.56044 0.543068 8.4852 0.547316C6.85541 0.639274 5.26044 1.22185 3.94177 2.20685C3.59994 2.46218 3.32574 2.70015 3.01294 3.01294C2.35772 3.66816 1.84952 4.36929 1.43667 5.1876C0.953199 6.1459 0.660936 7.16674 0.56576 8.2296C0.54102 8.50593 0.536621 8.62213 0.536621 9C0.536621 9.37787 0.54102 9.49407 0.56576 9.7704C0.679124 11.0363 1.07731 12.2572 1.73528 13.3561C2.20008 14.1325 2.8062 14.8468 3.5136 15.4518C4.596 16.3776 5.92615 17.0234 7.3296 17.3045C7.70561 17.3799 8.04301 17.4237 8.4816 17.4541C8.65997 17.4665 9.34003 17.4665 9.5184 17.4541C9.96503 17.4231 10.2971 17.3796 10.688 17.3009C11.886 17.0596 13.0474 16.5428 14.0328 15.8125C14.5457 15.4323 15.0292 14.9805 15.4518 14.4864C16.5315 13.2241 17.2232 11.6356 17.4129 9.9828C17.4528 9.63509 17.4634 9.42852 17.4634 9C17.4634 8.57148 17.4528 8.36492 17.4129 8.0172C17.2456 6.55981 16.6878 5.14823 15.8125 3.9672C15.4323 3.45427 14.9805 2.97081 14.4864 2.54817C13.404 1.62237 12.0739 0.976566 10.6704 0.695463C10.2992 0.621102 9.96272 0.57716 9.5328 0.54687C9.42613 0.539353 8.76657 0.531901 8.6688 0.537106ZM8.7804 1.51281C7.42925 1.5469 6.10993 1.95367 4.95298 2.69288C4.28979 3.11661 3.66257 3.68258 3.14578 4.3236C2.31371 5.35568 1.753 6.66075 1.57744 7.974C1.52804 8.34348 1.51112 8.60662 1.51122 9.0036C1.51134 9.44769 1.53947 9.80807 1.60585 10.2158C1.76829 11.2136 2.13998 12.1817 2.69288 13.047C3.11709 13.711 3.68503 14.3401 4.32564 14.8557C5.36029 15.6884 6.661 16.247 7.974 16.4226C8.33788 16.4712 8.61056 16.4888 9 16.4888C9.32725 16.4888 9.52749 16.4788 9.8172 16.4478C11.2928 16.29 12.7132 15.6792 13.842 14.7171C14.1446 14.4592 14.4592 14.1446 14.7171 13.842C15.6791 12.7133 16.29 11.2927 16.4478 9.8172C16.4968 9.35853 16.5036 8.82419 16.4661 8.3736C16.3641 7.15018 15.967 5.98114 15.3006 4.94297C14.916 4.34387 14.3981 3.75429 13.842 3.28263C13.1108 2.66238 12.2843 2.19762 11.3652 1.88971C10.539 1.61293 9.69424 1.48975 8.7804 1.51281ZM5.65795 5.60139C5.25719 5.68591 4.99557 6.0688 5.06532 6.46874C5.10833 6.7154 5.27946 6.93298 5.50705 7.03039C5.61872 7.07819 5.6693 7.08792 5.8068 7.08806C5.91858 7.08816 5.93544 7.08644 6.0012 7.06825C6.28402 6.98997 6.49411 6.76392 6.54799 6.47992C6.56341 6.39863 6.56233 6.26922 6.54556 6.1884C6.50197 5.97825 6.37344 5.79957 6.1856 5.68798C6.03617 5.5992 5.82928 5.56525 5.65795 5.60139ZM12.0406 5.60213C11.7425 5.66476 11.5161 5.89227 11.4536 6.192C11.4331 6.2903 11.4384 6.44867 11.4652 6.5412C11.5414 6.80408 11.7411 6.99857 12.0098 7.07165C12.0625 7.086 12.0875 7.08824 12.1932 7.0881C12.2967 7.08796 12.3246 7.08548 12.3743 7.07199C12.8525 6.94213 13.0847 6.42476 12.8593 5.9915C12.7047 5.69437 12.3667 5.53362 12.0406 5.60213ZM4.3272 10.1199C4.00094 10.1715 3.71821 10.3788 3.57151 10.674C3.52996 10.7576 3.50512 10.8292 3.48345 10.9277C3.46087 11.0304 3.46103 11.2262 3.48378 11.3319C3.50103 11.4121 3.57 11.6057 3.64568 11.7864C4.18322 13.0696 5.17475 14.1235 6.426 14.7417C7.23342 15.1405 8.10064 15.3432 9 15.3432C10.4146 15.3432 11.7673 14.833 12.8376 13.8958C13.4942 13.3208 14.0376 12.5604 14.3673 11.7552C14.4421 11.5724 14.4998 11.4084 14.5159 11.3324C14.5376 11.2304 14.5394 11.0525 14.5197 10.9476C14.4468 10.559 14.1661 10.2513 13.7873 10.1449C13.6508 10.1065 13.9659 10.1088 8.9928 10.1095C5.17513 10.1101 4.37794 10.1118 4.3272 10.1199ZM4.45371 11.0993C4.43685 11.1162 4.43948 11.1336 4.47213 11.2209C4.7185 11.8797 5.09234 12.4599 5.59033 12.9565C5.90079 13.2661 6.22296 13.5123 6.60387 13.7313C6.77336 13.8287 7.09213 13.981 7.2432 14.0367C7.82138 14.25 8.2899 14.3461 8.83171 14.3625C9.65729 14.3876 10.4158 14.2238 11.1463 13.8628C12.2463 13.3193 13.0939 12.3791 13.5278 11.2209C13.5605 11.1336 13.5632 11.1162 13.5463 11.0993C13.536 11.0891 13.1131 11.088 9 11.088C4.8869 11.088 4.46398 11.0891 4.45371 11.0993Z" fill="#0C1F22"/>
</svg>
