<svg width="24" height="24" viewBox="0 0 24 24" fill="none" xmlns="http://www.w3.org/2000/svg">
  <path fill-rule="evenodd" clip-rule="evenodd"
        d="M13.629 23.25H2.25C1.85218 23.25 1.47064 23.092 1.18934 22.8107C0.908035 22.5294 0.75 22.1478 0.75 21.75V2.25C0.75 1.85218 0.908035 1.47064 1.18934 1.18934C1.47064 0.908035 1.85218 0.75 2.25 0.75H21.75C22.1478 0.75 22.5294 0.908035 22.8107 1.18934C23.092 1.47064 23.25 1.85218 23.25 2.25V13.629C23.2499 14.0265 23.092 14.4078 22.811 14.689L14.689 22.811C14.4078 23.092 14.0265 23.2499 13.629 23.25ZM15.45 4.65006C15.7814 4.89861 15.8485 5.36871 15.6 5.70007L10.291 12.7781C10.1028 13.029 9.86416 13.2378 9.59047 13.3911C9.31679 13.5444 9.01409 13.6387 8.70179 13.6681C8.38949 13.6975 8.07449 13.6612 7.77703 13.5617C7.47956 13.4621 7.2062 13.3015 6.97448 13.0901L4.74431 11.0539C4.43842 10.7746 4.41684 10.3003 4.69613 9.99435C4.97542 9.68846 5.4498 9.66688 5.7557 9.94617L7.98553 11.982C8.06273 12.0524 8.15396 12.1061 8.25304 12.1392C8.3522 12.1724 8.45719 12.1845 8.56129 12.1747C8.66539 12.1649 8.7663 12.1334 8.85752 12.0824C8.94875 12.0313 9.02829 11.9617 9.09103 11.878L14.4 4.80002C14.6486 4.46866 15.1187 4.40152 15.45 4.65006ZM14 15.0998V20.5L20.5 14H15.0998C14.8081 14 14.5284 14.1159 14.3221 14.3221C14.1159 14.5284 14 14.8081 14 15.0998Z"
        fill="#212B3D"/>
</svg>
