<svg width="16" height="16" viewBox="0 0 16 16" fill="none" xmlns="http://www.w3.org/2000/svg">
<path d="M15.833 1.63341C15.8312 1.24497 15.6761 0.872937 15.4014 0.598262C15.1268 0.323588 14.7547 0.168502 14.3663 0.166748H10.5463C10.3253 0.166748 10.1133 0.254545 9.95703 0.410826C9.80075 0.567106 9.71295 0.779068 9.71295 1.00008C9.71295 1.2211 9.80075 1.43306 9.95703 1.58934C10.1133 1.74562 10.3253 1.83341 10.5463 1.83341H13.9996C14.0438 1.83341 14.0862 1.85097 14.1175 1.88223C14.1487 1.91349 14.1663 1.95588 14.1663 2.00008V4.18008C14.1663 4.4011 14.2541 4.61306 14.4104 4.76934C14.5666 4.92562 14.7786 5.01341 14.9996 5.01341C15.2206 5.01341 15.4326 4.92562 15.5889 4.76934C15.7452 4.61306 15.833 4.4011 15.833 4.18008V1.63341Z" fill="#212B3D"/>
<path d="M0.166687 4.18008C0.166687 4.4011 0.254484 4.61306 0.410765 4.76934C0.567045 4.92562 0.779007 5.01341 1.00002 5.01341C1.22103 5.01341 1.433 4.92562 1.58928 4.76934C1.74556 4.61306 1.83335 4.4011 1.83335 4.18008V2.00008C1.83335 1.95588 1.85091 1.91349 1.88217 1.88223C1.91343 1.85097 1.95582 1.83341 2.00002 1.83341H5.45335C5.67437 1.83341 5.88633 1.74562 6.04261 1.58934C6.19889 1.43306 6.28669 1.2211 6.28669 1.00008C6.28669 0.779068 6.19889 0.567106 6.04261 0.410826C5.88633 0.254545 5.67437 0.166748 5.45335 0.166748H1.63335C1.24491 0.168502 0.872875 0.323588 0.598201 0.598262C0.323527 0.872937 0.168441 1.24497 0.166687 1.63341V4.18008Z" fill="#212B3D"/>
<path d="M15.833 14.3594V11.8194C15.833 11.5984 15.7452 11.3864 15.5889 11.2302C15.4326 11.0739 15.2206 10.9861 14.9996 10.9861C14.7786 10.9861 14.5666 11.0739 14.4104 11.2302C14.2541 11.3864 14.1663 11.5984 14.1663 11.8194V13.9994C14.1663 14.0436 14.1487 14.086 14.1175 14.1173C14.0862 14.1485 14.0438 14.1661 13.9996 14.1661H10.5463C10.3253 14.1661 10.1133 14.2539 9.95703 14.4102C9.80075 14.5664 9.71295 14.7784 9.71295 14.9994C9.71295 15.2204 9.80075 15.4324 9.95703 15.5887C10.1133 15.745 10.3253 15.8328 10.5463 15.8328H14.3663C14.7559 15.831 15.1289 15.675 15.4038 15.3989C15.6786 15.1228 15.833 14.749 15.833 14.3594V14.3594Z" fill="#212B3D"/>
<path d="M0.166687 14.3594C0.166683 14.749 0.320993 15.1228 0.595857 15.3989C0.87072 15.675 1.24376 15.831 1.63335 15.8328H5.45335C5.67437 15.8328 5.88633 15.745 6.04261 15.5887C6.19889 15.4324 6.28669 15.2204 6.28669 14.9994C6.28669 14.7784 6.19889 14.5664 6.04261 14.4102C5.88633 14.2539 5.67437 14.1661 5.45335 14.1661H2.00002C1.95582 14.1661 1.91343 14.1485 1.88217 14.1173C1.85091 14.086 1.83335 14.0436 1.83335 13.9994V11.8194C1.83335 11.5984 1.74556 11.3864 1.58928 11.2302C1.433 11.0739 1.22103 10.9861 1.00002 10.9861C0.779007 10.9861 0.567045 11.0739 0.410765 11.2302C0.254484 11.3864 0.166687 11.5984 0.166687 11.8194V14.3594Z" fill="#212B3D"/>
<path d="M11.1806 5.42725H4.81398C4.09601 5.42725 3.51398 6.00928 3.51398 6.72725V9.28058C3.51398 9.99855 4.09601 10.5806 4.81398 10.5806H11.1806C11.8986 10.5806 12.4806 9.99855 12.4806 9.28058V6.72725C12.4806 6.00928 11.8986 5.42725 11.1806 5.42725Z" fill="#212B3D"/>
</svg>
