<svg width="16" height="16" viewBox="0 0 16 16" fill="none" xmlns="http://www.w3.org/2000/svg">

<path d="M13.7024 1.70537C12.7898 1.22974 11.7384 1.09236 10.7343 1.31755C9.73011 1.54275 8.83805 2.11598 8.21599 2.93577L7.99999 3.18377L7.81279 2.97097C7.19244 2.14131 6.29778 1.55874 5.2881 1.32698C4.27842 1.09522 3.21926 1.22931 2.29919 1.70537C1.66963 2.05564 1.13383 2.55257 0.737232 3.15403C0.340635 3.75548 0.0949386 4.44371 0.0209826 5.16035C-0.0529734 5.87698 0.046992 6.60088 0.312401 7.27065C0.577809 7.94043 1.00083 8.53631 1.54559 9.00777L7.03199 14.3918C7.15728 14.5202 7.3069 14.6225 7.47212 14.6926C7.63734 14.7626 7.81486 14.7991 7.99431 14.7998C8.17377 14.8006 8.35158 14.7656 8.51738 14.6969C8.68317 14.6282 8.83363 14.5272 8.95999 14.3998L14.4112 9.04777C14.9094 8.62685 15.3097 8.10223 15.5841 7.51054C15.8586 6.91886 16.0005 6.27439 16 5.62217C16.0059 4.82278 15.7954 4.03669 15.3909 3.34716C14.9865 2.65763 14.403 2.09033 13.7024 1.70537V1.70537Z" fill="#212B3D"/>






</svg>
