<svg width="16" height="16" viewBox="0 0 16 16" fill="none" xmlns="http://www.w3.org/2000/svg">
<g clip-path="url(#clip0_539_3002)">
<path d="M15.592 1.78733C15.4646 1.69451 15.3166 1.6339 15.1607 1.61068C15.0048 1.58746 14.8456 1.60232 14.6967 1.654C11.63 2.71467 10.43 2.29 8.09 1.654C6.022 1.08533 4.58667 0.580667 1.33333 1.42933V0.666667C1.33333 0.489856 1.2631 0.320286 1.13807 0.195262C1.01305 0.0702379 0.843478 0 0.666667 0C0.489856 0 0.320286 0.0702379 0.195262 0.195262C0.0702379 0.320286 0 0.489856 0 0.666667L0 15.3333C0 15.5101 0.0702379 15.6797 0.195262 15.8047C0.320286 15.9298 0.489856 16 0.666667 16C0.843478 16 1.01305 15.9298 1.13807 15.8047C1.2631 15.6797 1.33333 15.5101 1.33333 15.3333V13.4833C4.54333 12.6107 5.88467 13.102 7.914 13.6547C10.684 14.4093 11.9933 14.7607 15.3607 13.482C15.5487 13.4087 15.7103 13.2804 15.8243 13.114C15.9384 12.9475 15.9996 12.7505 16 12.5487V2.6C16.0006 2.44202 15.9639 2.28612 15.8931 2.14494C15.8222 2.00375 15.719 1.88124 15.592 1.78733Z" fill="#212B3D"/>
</g>
<defs>
<clipPath id="clip0_539_3002">
<rect width="16" height="16" fill="white"/>
</clipPath>
</defs>
</svg>
