<svg width="20" height="14" viewBox="0 0 20 14" fill="none" xmlns="http://www.w3.org/2000/svg">
<g id="Union">
<path d="M7.72909 5.67536C7.81152 5.79526 7.87615 5.93108 7.92299 6.08282H8.98518C8.94209 5.79994 8.85123 5.54142 8.71261 5.30725C8.57398 5.07308 8.39694 4.87076 8.18151 4.70028C7.96795 4.52981 7.72347 4.39867 7.44809 4.30688C7.17271 4.21321 6.87578 4.16638 6.55731 4.16638C6.18077 4.16638 5.83232 4.23382 5.51198 4.3687C5.19164 4.50171 4.91251 4.69654 4.67459 4.95319C4.43668 5.20796 4.25121 5.518 4.11821 5.88331C3.98707 6.24861 3.9215 6.66356 3.9215 7.12815C3.9215 7.73512 4.03297 8.25965 4.2559 8.70177C4.4807 9.142 4.79261 9.48202 5.19164 9.72181C5.59254 9.95972 6.05806 10.0787 6.58822 10.0787C7.06405 10.0787 7.48556 9.9822 7.85274 9.78925C8.21991 9.59442 8.50841 9.31716 8.71823 8.95748C8.92804 8.5978 9.03295 8.17161 9.03295 7.67892V6.98765H6.69781V7.80256H8.02381C8.01894 8.06645 7.96098 8.29781 7.84993 8.49663C7.73378 8.7027 7.56799 8.86194 7.35255 8.97434C7.13899 9.08674 6.88609 9.14294 6.59384 9.14294C6.27163 9.14294 5.98875 9.0652 5.74521 8.90971C5.50168 8.75235 5.31153 8.52286 5.17478 8.22125C5.03802 7.91964 4.96965 7.55153 4.96965 7.11691C4.96965 6.68604 5.03802 6.32073 5.17478 6.021C5.31341 5.71939 5.50355 5.49084 5.74521 5.33535C5.98688 5.17986 6.26226 5.10212 6.57136 5.10212C6.74371 5.10212 6.90295 5.1246 7.04907 5.16956C7.19519 5.21265 7.32445 5.27728 7.43685 5.36345C7.55113 5.44963 7.64854 5.5536 7.72909 5.67536Z" fill="black"/>
<path d="M11.0836 10V4.24506H10.041V10H11.0836Z" fill="black"/>
<path d="M12.2125 4.24506V10H13.255V7.55527H15.6464V6.68135H13.255V5.11898H15.8993V4.24506H12.2125Z" fill="black"/>
<path fill-rule="evenodd" clip-rule="evenodd" d="M0.5 2V12C0.5 13.1046 1.39543 14 2.5 14H17.5C18.6046 14 19.5 13.1046 19.5 12V2C19.5 0.89543 18.6046 0 17.5 0H2.5C1.39543 0 0.5 0.895431 0.5 2ZM1.5 12V2C1.5 1.44772 1.94772 1 2.5 1H17.5C18.0523 1 18.5 1.44772 18.5 2V12C18.5 12.5523 18.0523 13 17.5 13H2.5C1.94772 13 1.5 12.5523 1.5 12Z" fill="black"/>
</g>
</svg>
