<svg width="20" height="20" viewBox="0 0 20 20" fill="none" xmlns="http://www.w3.org/2000/svg">
<path d="M10.0001 2C5.60598 2 2 5.60598 2 10.0001C2 13.7497 4.63112 17.1559 8.12505 18.0001V15.3534C7.77885 15.4292 7.46025 15.4314 7.10783 15.3275C6.63505 15.188 6.25089 14.873 5.96573 14.3928C5.78396 14.0862 5.46182 13.7536 5.12576 13.778L5.04336 12.8442C5.77005 12.7819 6.39872 13.287 6.77189 13.9139C6.93766 14.1927 7.12846 14.3562 7.37333 14.4284C7.61003 14.4981 7.86418 14.4647 8.16033 14.3601C8.23467 13.7672 8.50628 13.5453 8.71148 13.2328V13.2323C6.62772 12.9215 5.79727 11.816 5.46768 10.9434C5.03091 9.78485 5.26528 8.33745 6.03763 7.42277C6.05264 7.40495 6.07974 7.35832 6.06924 7.32572C5.71512 6.25601 6.14664 5.37112 6.16251 5.27725C6.5712 5.3981 6.63761 5.15566 7.93779 5.94559L8.16252 6.0806C8.25652 6.13663 8.22698 6.10465 8.32097 6.09757C8.86382 5.9501 9.43609 5.86868 9.99994 5.86136C10.5681 5.86868 11.1367 5.9501 11.702 6.10355L11.7747 6.11087C11.7684 6.10989 11.7945 6.10623 11.8383 6.08011C13.4625 5.09634 13.4041 5.41787 13.8397 5.27627C13.8554 5.37026 14.2812 6.26956 13.9309 7.32572C13.8836 7.47123 15.339 8.80388 14.5323 10.9431C14.2027 11.816 13.3724 12.9215 11.2886 13.2323V13.2328C11.5557 13.6399 11.8767 13.8564 11.875 14.6963V18.0001C15.369 17.1559 18 13.7497 18 10.0001C18.0001 5.60598 14.3941 2 10.0001 2V2Z" fill="#212B3D"/>
</svg>
