<svg width="16" height="16" viewBox="0 0 16 16" fill="none" xmlns="http://www.w3.org/2000/svg">
<path d="M11.5493 0.166016C11.3437 0.167259 11.1434 0.231342 10.9753 0.349669C10.8072 0.467995 10.6792 0.634907 10.6087 0.828016L9.07534 5.16602H4.78267C4.57722 5.16586 4.3767 5.22899 4.2084 5.34683C4.04009 5.46466 3.91216 5.63148 3.84201 5.82459C3.77187 6.01769 3.7629 6.22772 3.81634 6.42611C3.86977 6.62449 3.98302 6.8016 4.14067 6.93335L7.77201 9.94268L6.24867 14.5153C6.18153 14.7166 6.18014 14.934 6.2447 15.1361C6.30926 15.3382 6.43642 15.5145 6.6078 15.6396C6.77918 15.7647 6.98589 15.832 7.19805 15.8318C7.41021 15.8316 7.61682 15.764 7.78801 15.6387L11.9433 12.592C12.0278 12.53 12.0964 12.449 12.1436 12.3555C12.1909 12.262 12.2155 12.1588 12.2153 12.054V0.832682C12.2153 0.655987 12.1452 0.486518 12.0203 0.361513C11.8954 0.236508 11.726 0.166192 11.5493 0.166016V0.166016ZM10.8827 11.6327C10.8826 11.6585 10.8765 11.684 10.8649 11.7071C10.8534 11.7303 10.8366 11.7504 10.816 11.766L8.26801 13.6327C8.23947 13.6536 8.205 13.665 8.1696 13.665C8.1342 13.6651 8.0997 13.6538 8.0711 13.633C8.0425 13.6121 8.02129 13.5827 8.01055 13.5489C7.9998 13.5152 8.00008 13.4789 8.01134 13.4453L9.18134 9.93335C9.22386 9.8059 9.22688 9.66858 9.19 9.53938C9.15312 9.41019 9.07806 9.29515 8.97467 9.20935L6.06667 6.79468C6.04016 6.77286 6.02104 6.74337 6.01192 6.71026C6.00281 6.67715 6.00414 6.64204 6.01574 6.60971C6.02734 6.57739 6.04865 6.54944 6.07674 6.52969C6.10483 6.50993 6.13833 6.49934 6.17267 6.49935H9.55267C9.69067 6.49931 9.82525 6.45645 9.93785 6.37669C10.0505 6.29692 10.1355 6.18418 10.1813 6.05402L10.886 4.05802L10.8827 11.6327Z" fill="#212B3D"/>
</svg>
