<svg width="15" height="16" viewBox="0 0 15 16" fill="none" xmlns="http://www.w3.org/2000/svg">
  <g clip-path="url(#clip0_267_7142)">
    <path fill-rule="evenodd" clip-rule="evenodd"
          d="M7.22411 0.946515C7.20266 0.947655 7.13381 0.951483 7.07111 0.955023C5.87492 1.02252 4.69672 1.40798 3.67643 2.06562C3.10488 2.43404 2.57711 2.8967 2.12359 3.42693C1.35215 4.32885 0.813894 5.43748 0.579666 6.60693C0.5169 6.92027 0.480396 7.20144 0.45501 7.56693C0.444684 7.71557 0.444684 8.28228 0.45501 8.43093C0.480396 8.79642 0.5169 9.07758 0.579666 9.39093C0.813894 10.5604 1.35215 11.669 2.12359 12.5709C2.36657 12.855 2.64404 13.1325 2.92811 13.3754C3.98085 14.2759 5.3027 14.8515 6.68111 15.0096C6.97088 15.0429 7.14301 15.0517 7.50011 15.0517C7.85722 15.0517 8.02935 15.0429 8.31911 15.0096C9.45579 14.8792 10.563 14.4627 11.5051 13.8111C13.1359 12.6832 14.219 10.9303 14.4902 8.97993C14.5381 8.63538 14.5529 8.40359 14.5529 7.99893C14.5529 7.64183 14.5441 7.46969 14.5108 7.17993C14.3804 6.04297 13.9659 4.94106 13.3124 3.99393C12.9679 3.49457 12.5447 3.02663 12.0721 2.62241C11.1702 1.85096 10.0616 1.31271 8.89211 1.07848C8.58275 1.01651 8.30238 0.979893 7.94411 0.954651C7.85522 0.948387 7.30559 0.942177 7.22411 0.946515ZM7.31711 1.75952C6.33449 1.78482 5.37387 2.04477 4.50226 2.52123C3.97425 2.80986 3.52078 3.15108 3.08387 3.58851C2.57767 4.09532 2.19865 4.62621 1.88723 5.26467C1.5455 5.96527 1.34344 6.69846 1.27836 7.47393C1.24954 7.81741 1.25324 8.29026 1.28736 8.62293C1.37407 9.46836 1.6186 10.2581 2.02242 10.9968C2.38618 11.6622 2.87355 12.2589 3.46511 12.7632C4.40544 13.5646 5.58984 14.0739 6.81911 14.2054C7.06054 14.2312 7.2274 14.2396 7.50011 14.2396C7.77283 14.2396 7.93969 14.2312 8.18111 14.2054C9.41039 14.0739 10.5948 13.5646 11.5351 12.7632C11.7873 12.5482 12.0494 12.2861 12.2643 12.0339C13.0658 11.0936 13.5751 9.9092 13.7066 8.67993C13.749 8.28336 13.7534 7.83949 13.7187 7.44393C13.6317 6.44979 13.308 5.49649 12.7693 4.64793C12.375 4.02687 11.8486 3.45828 11.2479 3.00478C10.4286 2.3862 9.42685 1.96777 8.41672 1.82216C8.05216 1.76961 7.70135 1.74963 7.31711 1.75952ZM7.16763 4.49858C6.97267 4.53378 6.80416 4.66138 6.71683 4.83993C6.6789 4.91747 6.66257 4.97361 6.65411 5.05564C6.6275 5.31359 6.76673 5.56401 7.00121 5.67989C7.10036 5.72889 7.18147 5.74548 7.30148 5.74133C7.39799 5.73798 7.44603 5.72777 7.52788 5.69319C7.66813 5.63394 7.80163 5.49858 7.8584 5.35806C7.91275 5.22355 7.92066 5.0786 7.88107 4.94258C7.8334 4.77876 7.72183 4.64132 7.57211 4.56198C7.45127 4.49795 7.30131 4.47444 7.16763 4.49858ZM6.56111 6.70859C6.46853 6.72053 6.39568 6.75697 6.32692 6.82573C6.24481 6.90784 6.2088 6.99463 6.2086 7.11093C6.20848 7.18635 6.22383 7.24999 6.25637 7.30893C6.28634 7.36321 6.36863 7.44366 6.42311 7.47196C6.50701 7.51553 6.50138 7.51484 6.80311 7.51857C7.06334 7.52178 7.07546 7.52243 7.08361 7.53357C7.09088 7.54353 7.09211 7.71027 7.09212 8.68257C7.09212 9.40304 7.09435 9.84412 7.0982 9.88593C7.1273 10.2019 7.2665 10.4903 7.49513 10.7083C7.70198 10.9055 7.96433 11.0268 8.25311 11.0588C8.28281 11.0621 8.43536 11.0648 8.59211 11.0648C8.91472 11.0647 8.92805 11.0634 9.01211 11.0221C9.05289 11.0021 9.07345 10.9868 9.11466 10.9455C9.20631 10.8538 9.23743 10.7739 9.23267 10.6427C9.23078 10.5903 9.22645 10.559 9.21724 10.5309C9.17916 10.4149 9.07478 10.3105 8.95811 10.2716C8.92095 10.2592 8.90512 10.2584 8.62211 10.2548C8.28177 10.2504 8.27608 10.2497 8.17226 10.1997C8.11601 10.1726 8.10341 10.1633 8.05226 10.1117C7.97315 10.0317 7.93771 9.96805 7.91758 9.86968C7.90915 9.82851 7.90811 9.69788 7.90811 8.68082C7.90811 7.92899 7.90597 7.51695 7.90184 7.47606C7.86703 7.13149 7.64036 6.85052 7.31263 6.74569C7.2025 6.71046 7.17048 6.70757 6.87011 6.70567C6.71996 6.70472 6.58091 6.70603 6.56111 6.70859Z"
          fill="#0C1F22"/>
  </g>
  <defs>
    <clipPath id="clip0_267_7142">
      <rect width="15" height="15" fill="white" transform="translate(0 0.499756)"/>
    </clipPath>
  </defs>
</svg>
