<svg width="20" height="20" viewBox="0 0 20 20" fill="none" xmlns="http://www.w3.org/2000/svg">
<path d="M15.6562 2H4.34375C3.05151 2 2 3.05151 2 4.34375V15.6562C2 16.9485 3.05151 18 4.34375 18H15.6562C16.9485 18 18 16.9485 18 15.6562V4.34375C18 3.05151 16.9485 2 15.6562 2ZM10.0312 14.1875C7.70496 14.1875 5.8125 12.295 5.8125 9.96875C5.8125 7.64246 7.70496 5.75 10.0312 5.75C12.3575 5.75 14.25 7.64246 14.25 9.96875C14.25 12.295 12.3575 14.1875 10.0312 14.1875ZM14.7188 6.6875C13.9434 6.6875 13.3125 6.05664 13.3125 5.28125C13.3125 4.50586 13.9434 3.875 14.7188 3.875C15.4941 3.875 16.125 4.50586 16.125 5.28125C16.125 6.05664 15.4941 6.6875 14.7188 6.6875Z" fill="#212B3D"/>
</svg>
