<svg width="24" height="24" viewBox="0 0 24 24" fill="none" xmlns="http://www.w3.org/2000/svg">
<path d="M14 5C15.3807 5 16.5 3.88071 16.5 2.5C16.5 1.11929 15.3807 0 14 0C12.6193 0 11.5 1.11929 11.5 2.5C11.5 3.88071 12.6193 5 14 5Z" fill="#212B3D"/>
<path d="M22.56 5.94011C22.4214 5.79982 22.2564 5.68844 22.0744 5.61242C21.8924 5.5364 21.6972 5.49725 21.5 5.49725C21.3028 5.49725 21.1076 5.5364 20.9256 5.61242C20.7436 5.68844 20.5786 5.79982 20.44 5.94011L18.73 7.65011C18.5331 7.84223 18.2872 7.97649 18.0191 8.03822C17.751 8.09995 17.4711 8.08677 17.21 8.00011L9.55 5.58011C8.81881 5.34425 8.03925 5.30039 7.28622 5.45274C6.53319 5.6051 5.83199 5.94856 5.25 6.45011L3 8.36011C2.85029 8.49143 2.72792 8.65096 2.63986 8.82957C2.5518 9.00819 2.49979 9.2024 2.48679 9.40112C2.47379 9.59984 2.50006 9.79917 2.56409 9.98773C2.62813 10.1763 2.72868 10.3504 2.86 10.5001C2.99132 10.6498 3.15084 10.7722 3.32946 10.8603C3.50808 10.9483 3.70229 11.0003 3.90101 11.0133C4.09972 11.0263 4.29905 11.0001 4.48762 10.936C4.67619 10.872 4.85029 10.7714 5 10.6401L7.21 8.73011C7.40198 8.5606 7.63517 8.44457 7.88617 8.39366C8.13717 8.34276 8.39715 8.35878 8.64 8.44011L10.36 9.00011C10.3932 9.01205 10.4236 9.03062 10.4494 9.05469C10.4752 9.07876 10.4958 9.10782 10.51 9.14011C10.5251 9.1713 10.5329 9.20548 10.5329 9.24011C10.5329 9.27474 10.5251 9.30893 10.51 9.34011L8.09 14.8501C8.07048 14.8948 8.03831 14.9329 7.99744 14.9595C7.95657 14.9862 7.90879 15.0003 7.86 15.0001H2.5C2.10218 15.0001 1.72064 15.1581 1.43934 15.4395C1.15804 15.7208 1 16.1023 1 16.5001C1 16.8979 1.15804 17.2795 1.43934 17.5608C1.72064 17.8421 2.10218 18.0001 2.5 18.0001H9C9.29134 18.0005 9.57639 17.9154 9.81988 17.7554C10.0634 17.5955 10.2546 17.3676 10.37 17.1001L11.1 15.4501L14.59 15.1301C14.8294 15.1079 15.0707 15.1435 15.2934 15.234C15.5162 15.3245 15.7139 15.4672 15.87 15.6501L17.87 17.9801C18.0013 18.1298 18.1608 18.2522 18.3395 18.3403C18.5181 18.4283 18.7123 18.4803 18.911 18.4933C19.1097 18.5063 19.3091 18.4801 19.4976 18.416C19.6862 18.352 19.8603 18.2514 20.01 18.1201C20.1597 17.9888 20.2821 17.8293 20.3701 17.6507C20.4582 17.472 20.5102 17.2778 20.5232 17.0791C20.5362 16.8804 20.5099 16.6811 20.4459 16.4925C20.3819 16.3039 20.2813 16.1298 20.15 15.9801L18.15 13.6601C17.6834 13.1127 17.0916 12.6859 16.4248 12.416C15.7581 12.1462 15.036 12.0412 14.32 12.1101L12.48 12.2701L13.41 10.1501C13.4325 10.0927 13.4761 10.0462 13.532 10.0201C13.5878 9.99404 13.6516 9.99047 13.71 10.0101L16.31 10.8401C16.7534 10.9789 17.2153 11.0497 17.68 11.0501C18.2692 11.0494 18.8525 10.9324 19.3965 10.7059C19.9404 10.4794 20.4344 10.1478 20.85 9.73011L22.56 8.02011C22.8312 7.74186 22.983 7.36867 22.983 6.98011C22.983 6.59155 22.8312 6.21836 22.56 5.94011V5.94011Z" fill="#212B3D"/>
</svg>
