<svg width="16" height="16" viewBox="0 0 16 16" fill="none" xmlns="http://www.w3.org/2000/svg">
<path d="M13 0.333252H3.00004C2.29345 0.335362 1.61639 0.616991 1.11675 1.11663C0.617114 1.61627 0.335484 2.29332 0.333374 2.99992V12.9999C0.335309 13.7066 0.616882 14.3837 1.11656 14.8834C1.61624 15.3831 2.29339 15.6646 3.00004 15.6666H13C13.7067 15.6646 14.3838 15.3831 14.8835 14.8834C15.3832 14.3837 15.6648 13.7066 15.6667 12.9999V2.99992C15.6646 2.29332 15.383 1.61627 14.8833 1.11663C14.3837 0.616991 13.7066 0.335362 13 0.333252V0.333252ZM12.3334 7.66658C12.3334 8.02021 12.1929 8.35935 11.9428 8.60939C11.6928 8.85944 11.3537 8.99992 11 8.99992H7.16671C7.1225 8.99992 7.08011 9.01748 7.04886 9.04873C7.0176 9.07999 7.00004 9.12238 7.00004 9.16658V10.3333C7.00007 10.4651 6.96101 10.594 6.8878 10.7036C6.81458 10.8133 6.7105 10.8988 6.58871 10.9493C6.46686 10.9997 6.33278 11.0129 6.20343 10.9872C6.07408 10.9614 5.95527 10.8979 5.86204 10.8046L3.86204 8.80458C3.73706 8.67957 3.66685 8.51003 3.66685 8.33325C3.66685 8.15648 3.73706 7.98694 3.86204 7.86192L5.86204 5.86192C5.95527 5.76871 6.07405 5.70524 6.20335 5.67953C6.33265 5.65382 6.46668 5.66702 6.58848 5.71747C6.71028 5.76791 6.81439 5.85334 6.88764 5.96295C6.9609 6.07255 7.00001 6.20142 7.00004 6.33325V7.49992C6.99995 7.52183 7.0042 7.54354 7.01255 7.5638C7.02089 7.58406 7.03317 7.60247 7.04866 7.61797C7.06415 7.63346 7.08256 7.64573 7.10282 7.65408C7.12308 7.66242 7.1448 7.66667 7.16671 7.66658H10.8334C10.8553 7.66667 10.877 7.66242 10.8973 7.65408C10.9175 7.64573 10.9359 7.63346 10.9514 7.61797C10.9669 7.60247 10.9792 7.58406 10.9875 7.5638C10.9959 7.54354 11.0001 7.52183 11 7.49992V5.66658C11 5.48977 11.0703 5.3202 11.1953 5.19518C11.3203 5.07016 11.4899 4.99992 11.6667 4.99992C11.8435 4.99992 12.0131 5.07016 12.1381 5.19518C12.2631 5.3202 12.3334 5.48977 12.3334 5.66658V7.66658Z" fill="#212B3D"/>
</svg>
