<svg width="24" height="24" viewBox="0 0 24 24" fill="none" xmlns="http://www.w3.org/2000/svg">

<path d="M22.82 15.5499L21.92 15.2499C21.9718 14.8352 21.9986 14.4178 22 13.9999C22.001 13.4199 21.9508 12.841 21.85 12.2699L22.85 11.9499C22.9747 11.9079 23.09 11.8417 23.1892 11.7551C23.2884 11.6686 23.3695 11.5633 23.428 11.4454C23.4865 11.3275 23.5212 11.1992 23.5301 11.0678C23.539 10.9365 23.522 10.8047 23.48 10.6799C23.438 10.5551 23.3718 10.4399 23.2852 10.3407C23.1986 10.2415 23.0934 10.1604 22.9755 10.1019C22.8575 10.0434 22.7292 10.0087 22.5979 9.99976C22.4666 9.99084 22.3347 10.0079 22.21 10.0499L21.34 10.3399C20.9361 9.344 20.3757 8.41901 19.68 7.59991C19.8588 7.27183 20.1215 6.99712 20.4413 6.80385C20.761 6.61059 21.1264 6.5057 21.5 6.49991C21.7652 6.49991 22.0196 6.39455 22.2071 6.20701C22.3946 6.01948 22.5 5.76512 22.5 5.49991C22.5 5.23469 22.3946 4.98033 22.2071 4.7928C22.0196 4.60526 21.7652 4.49991 21.5 4.49991C20.8594 4.49919 20.2281 4.65233 19.659 4.94642C19.09 5.24051 18.5999 5.66697 18.23 6.18991C17.6957 5.75488 17.1156 5.37933 16.5 5.06991C16.5144 4.19568 16.2709 3.33659 15.8 2.5999C16.0279 2.23344 16.2253 1.8488 16.39 1.4499C16.4609 1.33208 16.5067 1.20089 16.5246 1.06455C16.5425 0.928209 16.5321 0.789638 16.4941 0.657499C16.456 0.52536 16.3911 0.402492 16.3034 0.296573C16.2157 0.190655 16.1071 0.103962 15.9844 0.0419135C15.8616 -0.0201353 15.7274 -0.0562069 15.5902 -0.0640471C15.4529 -0.0718873 15.3154 -0.0513277 15.1865 -0.00365289C15.0575 0.0440219 14.9397 0.117787 14.8405 0.213033C14.7413 0.308279 14.6628 0.422958 14.61 0.549905L14.31 1.1399C13.6122 0.721249 12.8137 0.5001 12 0.5001C11.1862 0.5001 10.3878 0.721249 9.68999 1.1399L9.38999 0.549905C9.33712 0.422958 9.25865 0.308279 9.15946 0.213033C9.06027 0.117787 8.94251 0.0440219 8.81352 -0.00365289C8.68454 -0.0513277 8.54711 -0.0718873 8.40982 -0.0640471C8.27253 -0.0562069 8.13833 -0.0201353 8.01561 0.0419135C7.89289 0.103962 7.78429 0.190655 7.69659 0.296573C7.60889 0.402492 7.54398 0.52536 7.50591 0.657499C7.46784 0.789638 7.45744 0.928209 7.47535 1.06455C7.49325 1.20089 7.53909 1.33208 7.60999 1.4499C7.78212 1.84534 7.97918 2.22944 8.19999 2.5999C7.72907 3.33659 7.4856 4.19568 7.49999 5.06991C6.88437 5.37933 6.30429 5.75488 5.76999 6.18991C5.40007 5.66697 4.90998 5.24051 4.34093 4.94642C3.77189 4.65233 3.14054 4.49919 2.49999 4.49991C2.23477 4.49991 1.98042 4.60526 1.79288 4.7928C1.60534 4.98033 1.49999 5.23469 1.49999 5.49991C1.49999 5.76512 1.60534 6.01948 1.79288 6.20701C1.98042 6.39455 2.23477 6.49991 2.49999 6.49991C2.87313 6.50773 3.23767 6.61347 3.55709 6.80652C3.87651 6.99958 4.13959 7.27317 4.31999 7.59991C3.63488 8.42108 3.08468 9.34596 2.68999 10.3399L1.81999 10.0499C1.5614 9.96504 1.27969 9.98637 1.03683 10.1092C0.793972 10.232 0.609856 10.4463 0.524987 10.7049C0.440118 10.9635 0.461447 11.2452 0.584284 11.4881C0.70712 11.7309 0.921401 11.915 1.17999 11.9999L2.17999 12.3199C2.07198 12.8737 2.01176 13.4358 1.99999 13.9999C2.00142 14.4178 2.02813 14.8352 2.07999 15.2499L1.17999 15.5499C0.953411 15.6244 0.760902 15.7773 0.637193 15.9812C0.513484 16.1851 0.466721 16.4265 0.505342 16.6619C0.543963 16.8972 0.665424 17.111 0.847811 17.2647C1.0302 17.4184 1.2615 17.5018 1.49999 17.4999C1.84604 17.4542 2.18319 17.3565 2.49999 17.2099C3.1713 19.1889 4.44577 20.908 6.14433 22.1254C7.84289 23.3429 9.88018 23.9976 11.97 23.9976C14.0598 23.9976 16.0971 23.3429 17.7956 22.1254C19.4942 20.908 20.7687 19.1889 21.44 17.2099C21.7568 17.3565 22.0939 17.4542 22.44 17.4999C22.6785 17.5018 22.9098 17.4184 23.0922 17.2647C23.2746 17.111 23.396 16.8972 23.4346 16.6619C23.4733 16.4265 23.4265 16.1851 23.3028 15.9812C23.1791 15.7773 22.9866 15.6244 22.76 15.5499H22.82ZM16.27 20.7599C15.2797 21.3882 14.1633 21.791 13 21.9399V17.0999C13.6544 16.887 14.2247 16.4724 14.629 15.9155C15.0334 15.3586 15.2512 14.6881 15.2512 13.9999C15.2512 13.3117 15.0334 12.6412 14.629 12.0843C14.2247 11.5275 13.6544 11.1129 13 10.8999V6.05991C14.1662 6.20991 15.2855 6.61261 16.28 7.2399C16.0488 7.74158 15.9606 8.29735 16.0251 8.84596C16.0896 9.39457 16.3043 9.91472 16.6456 10.3491C16.9869 10.7834 17.4414 11.1151 17.9592 11.3076C18.477 11.5001 19.0379 11.5459 19.58 11.4399C20.1409 13.1005 20.1409 14.8993 19.58 16.5599C19.0371 16.4517 18.4749 16.4958 17.9555 16.6873C17.4362 16.8788 16.9799 17.2103 16.6373 17.6451C16.2947 18.0799 16.079 18.6009 16.0142 19.1507C15.9494 19.7004 16.0379 20.2574 16.27 20.7599ZM7.71999 20.7599C7.9512 20.2582 8.03941 19.7025 7.9749 19.1538C7.91039 18.6052 7.69567 18.0851 7.35439 17.6507C7.01311 17.2164 6.55853 16.8847 6.04076 16.6922C5.52298 16.4997 4.96212 16.4539 4.41999 16.5599C3.85911 14.8993 3.85911 13.1005 4.41999 11.4399C4.96212 11.5459 5.52298 11.5001 6.04076 11.3076C6.55853 11.1151 7.01311 10.7834 7.35439 10.3491C7.69567 9.91472 7.91039 9.39457 7.9749 8.84596C8.03941 8.29735 7.9512 7.74158 7.71999 7.2399C8.71227 6.60817 9.83267 6.2051 11 6.05991V10.8999C10.3456 11.1129 9.77532 11.5275 9.37093 12.0843C8.96654 12.6412 8.74875 13.3117 8.74875 13.9999C8.74875 14.6881 8.96654 15.3586 9.37093 15.9155C9.77532 16.4724 10.3456 16.887 11 17.0999V21.9399C9.8342 21.7883 8.71515 21.3858 7.71999 20.7599Z" fill="#212B3D"/>






</svg>
