<svg width="16" height="16" viewBox="0 0 16 16" fill="none" xmlns="http://www.w3.org/2000/svg">
<path d="M14.6667 12H5.33333C4.97971 12 4.64057 11.8595 4.39052 11.6095C4.14048 11.3594 4 11.0203 4 10.6667V1.33333C4 0.979711 4.14048 0.640573 4.39052 0.390524C4.64057 0.140476 4.97971 0 5.33333 0L14.6667 0C15.0203 0 15.3594 0.140476 15.6095 0.390524C15.8595 0.640573 16 0.979711 16 1.33333V10.6667C16 11.0203 15.8595 11.3594 15.6095 11.6095C15.3594 11.8595 15.0203 12 14.6667 12ZM5.33333 10.3333C5.33333 10.4217 5.36845 10.5065 5.43096 10.569C5.49348 10.6315 5.57826 10.6667 5.66667 10.6667H14.3333C14.4212 10.665 14.505 10.6293 14.5671 10.5671C14.6293 10.505 14.665 10.4212 14.6667 10.3333V1.66667C14.6667 1.57826 14.6315 1.49348 14.569 1.43096C14.5065 1.36845 14.4217 1.33333 14.3333 1.33333H5.66667C5.57826 1.33333 5.49348 1.36845 5.43096 1.43096C5.36845 1.49348 5.33333 1.57826 5.33333 1.66667V10.3333Z" fill="#212B3D"/>
<path d="M2 15.9999H1.33333C0.979711 15.9999 0.640573 15.8594 0.390524 15.6094C0.140476 15.3593 0 15.0202 0 14.6666V13.9999C0 13.8231 0.0702379 13.6535 0.195262 13.5285C0.320286 13.4035 0.489856 13.3333 0.666667 13.3333C0.843478 13.3333 1.01305 13.4035 1.13807 13.5285C1.2631 13.6535 1.33333 13.8231 1.33333 13.9999V14.3333C1.33333 14.4217 1.36845 14.5064 1.43096 14.569C1.49348 14.6315 1.57826 14.6666 1.66667 14.6666H2C2.17681 14.6666 2.34638 14.7368 2.4714 14.8618C2.59643 14.9869 2.66667 15.1564 2.66667 15.3333C2.66667 15.5101 2.59643 15.6796 2.4714 15.8047C2.34638 15.9297 2.17681 15.9999 2 15.9999Z" fill="#212B3D"/>
<path d="M0.666667 11.3334C0.489856 11.3334 0.320286 11.2632 0.195262 11.1382C0.0702379 11.0131 0 10.8436 0 10.6667V9.33341C0 9.1566 0.0702379 8.98703 0.195262 8.86201C0.320286 8.73699 0.489856 8.66675 0.666667 8.66675C0.843478 8.66675 1.01305 8.73699 1.13807 8.86201C1.2631 8.98703 1.33333 9.1566 1.33333 9.33341V10.6667C1.33333 10.8436 1.2631 11.0131 1.13807 11.1382C1.01305 11.2632 0.843478 11.3334 0.666667 11.3334V11.3334Z" fill="#212B3D"/>
<path d="M0.666667 6.66667C0.489856 6.66667 0.320286 6.59643 0.195262 6.4714C0.0702379 6.34638 0 6.17681 0 6V4.66667C0 4.48986 0.0702379 4.32029 0.195262 4.19526C0.320286 4.07024 0.489856 4 0.666667 4C0.843478 4 1.01305 4.07024 1.13807 4.19526C1.2631 4.32029 1.33333 4.48986 1.33333 4.66667V6C1.33333 6.17681 1.2631 6.34638 1.13807 6.4714C1.01305 6.59643 0.843478 6.66667 0.666667 6.66667V6.66667Z" fill="#212B3D"/>
<path d="M6.66663 16.0001H5.33329C5.15648 16.0001 4.98691 15.9298 4.86189 15.8048C4.73686 15.6798 4.66663 15.5102 4.66663 15.3334C4.66663 15.1566 4.73686 14.987 4.86189 14.862C4.98691 14.737 5.15648 14.6667 5.33329 14.6667H6.66663C6.84344 14.6667 7.01301 14.737 7.13803 14.862C7.26305 14.987 7.33329 15.1566 7.33329 15.3334C7.33329 15.5102 7.26305 15.6798 7.13803 15.8048C7.01301 15.9298 6.84344 16.0001 6.66663 16.0001Z" fill="#212B3D"/>
<path d="M11.3334 16.0001H10C9.82323 16.0001 9.65366 15.9298 9.52864 15.8048C9.40361 15.6798 9.33337 15.5102 9.33337 15.3334C9.33337 15.1566 9.40361 14.987 9.52864 14.862C9.65366 14.737 9.82323 14.6667 10 14.6667H11.3334C11.5102 14.6667 11.6798 14.737 11.8048 14.862C11.9298 14.987 12 15.1566 12 15.3334C12 15.5102 11.9298 15.6798 11.8048 15.8048C11.6798 15.9298 11.5102 16.0001 11.3334 16.0001Z" fill="#212B3D"/>
</svg>
