<svg width="24" height="24" viewBox="0 0 24 24" fill="none" xmlns="http://www.w3.org/2000/svg">
<path d="M6.5 5H1.5C1.10218 5 0.720644 5.15804 0.43934 5.43934C0.158035 5.72064 0 6.10218 0 6.5L0 22.5C0 22.8978 0.158035 23.2794 0.43934 23.5607C0.720644 23.842 1.10218 24 1.5 24H13.5C13.8978 24 14.2794 23.842 14.5607 23.5607C14.842 23.2794 15 22.8978 15 22.5V15.25H2C1.80109 15.25 1.61032 15.171 1.46967 15.0303C1.32902 14.8897 1.25 14.6989 1.25 14.5C1.25 14.3011 1.32902 14.1103 1.46967 13.9697C1.61032 13.829 1.80109 13.75 2 13.75H3.25C3.38261 13.75 3.50979 13.6973 3.60355 13.6036C3.69732 13.5098 3.75 13.3826 3.75 13.25V8.5C3.75 8.36739 3.80268 8.24021 3.89645 8.14645C3.99021 8.05268 4.11739 8 4.25 8H5.75C5.88261 8 6.00979 8.05268 6.10355 8.14645C6.19732 8.24021 6.25 8.36739 6.25 8.5V13.25C6.25 13.3826 6.30268 13.5098 6.39645 13.6036C6.49021 13.6973 6.61739 13.75 6.75 13.75H15V12.5C15 12.5 8.59 10.72 6.5 5ZM5 22C5 22.1326 4.94732 22.2598 4.85355 22.3536C4.75979 22.4473 4.63261 22.5 4.5 22.5H3C2.86739 22.5 2.74021 22.4473 2.64645 22.3536C2.55268 22.2598 2.5 22.1326 2.5 22V18C2.5 17.8674 2.55268 17.7402 2.64645 17.6464C2.74021 17.5527 2.86739 17.5 3 17.5H4.5C4.63261 17.5 4.75979 17.5527 4.85355 17.6464C4.94732 17.7402 5 17.8674 5 18V22ZM9.83 22.28L8.4 22.74C8.27532 22.7815 8.13933 22.7722 8.02143 22.7142C7.90354 22.6562 7.81321 22.5541 7.77 22.43L6.53 18.62C6.49153 18.4966 6.50233 18.3631 6.56012 18.2476C6.61792 18.132 6.71822 18.0433 6.84 18L8.27 17.54C8.39468 17.4985 8.53067 17.5078 8.64857 17.5658C8.76646 17.6238 8.85679 17.7259 8.9 17.85L10.15 21.66C10.1854 21.7847 10.172 21.9181 10.1126 22.0333C10.0532 22.1484 9.95213 22.2367 9.83 22.28Z" fill="#212B3D"/>
<path d="M23 9.29004H16.4C16.1347 9.29004 15.8804 9.3954 15.6929 9.58293C15.5053 9.77047 15.4 10.0248 15.4 10.29C15.4 10.5553 15.5053 10.8096 15.6929 10.9971C15.8804 11.1847 16.1347 11.29 16.4 11.29H23C23.2652 11.29 23.5195 11.1847 23.7071 10.9971C23.8946 10.8096 24 10.5553 24 10.29C24 10.0248 23.8946 9.77047 23.7071 9.58293C23.5195 9.3954 23.2652 9.29004 23 9.29004Z" fill="#212B3D"/>
<path d="M19.7 8.29991C20.429 8.29991 21.02 7.70893 21.02 6.97991C21.02 6.2509 20.429 5.65991 19.7 5.65991C18.971 5.65991 18.38 6.2509 18.38 6.97991C18.38 7.70893 18.971 8.29991 19.7 8.29991Z" fill="#212B3D"/>
<path d="M19.7 14.91C20.429 14.91 21.02 14.319 21.02 13.59C21.02 12.861 20.429 12.27 19.7 12.27C18.971 12.27 18.38 12.861 18.38 13.59C18.38 14.319 18.971 14.91 19.7 14.91Z" fill="#212B3D"/>
<path d="M16.4 4.3C16.4 4.03478 16.2946 3.78043 16.1071 3.59289C15.9195 3.40536 15.6652 3.3 15.4 3.3H13.75C13.6625 3.30001 13.5758 3.28261 13.4951 3.24882C13.4143 3.21503 13.3411 3.16552 13.2797 3.10317C13.2183 3.04082 13.1699 2.96688 13.1373 2.88564C13.1047 2.80441 13.0887 2.71751 13.09 2.63V1C13.09 0.734784 12.9846 0.48043 12.7971 0.292893C12.6095 0.105357 12.3552 0 12.09 0C11.8248 0 11.5704 0.105357 11.3829 0.292893C11.1953 0.48043 11.09 0.734784 11.09 1V2.64C11.0913 2.72751 11.0752 2.81441 11.0426 2.89564C11.0101 2.97688 10.9617 3.05082 10.9002 3.11317C10.8388 3.17552 10.7656 3.22503 10.6849 3.25882C10.6041 3.29261 10.5175 3.31001 10.43 3.31H8.78998C8.52476 3.31 8.27041 3.41536 8.08287 3.60289C7.89534 3.79043 7.78998 4.04478 7.78998 4.31C7.78998 4.57522 7.89534 4.82957 8.08287 5.01711C8.27041 5.20464 8.52476 5.31 8.78998 5.31H10.44C10.5292 5.30991 10.6176 5.32792 10.6997 5.36295C10.7818 5.39798 10.8559 5.44929 10.9176 5.51379C10.9793 5.57829 11.0273 5.65464 11.0586 5.73821C11.09 5.82178 11.104 5.91084 11.1 6V7.6C11.1 7.86522 11.2053 8.11957 11.3929 8.30711C11.5804 8.49464 11.8348 8.6 12.1 8.6C12.3652 8.6 12.6195 8.49464 12.8071 8.30711C12.9946 8.11957 13.1 7.86522 13.1 7.6V6C13.1 5.82496 13.1695 5.65708 13.2933 5.53331C13.4171 5.40954 13.5849 5.34 13.76 5.34H15.4C15.5347 5.34011 15.6681 5.31298 15.7921 5.26024C15.9161 5.2075 16.0282 5.13025 16.1216 5.03311C16.215 4.93597 16.2878 4.82096 16.3357 4.69498C16.3835 4.569 16.4054 4.43465 16.4 4.3V4.3Z" fill="#212B3D"/>
</svg>
