<svg width="16" height="16" viewBox="0 0 16 16" fill="none" xmlns="http://www.w3.org/2000/svg">
<g clip-path="url(#clip0_576_3429)">
<path d="M17.8374 8.11622C17.9209 7.84223 17.9391 7.55248 17.8904 7.2702C17.8418 6.98792 17.7276 6.72098 17.5571 6.4908C17.3867 6.26061 17.1646 6.07359 16.9088 5.94475C16.6529 5.8159 16.3705 5.74882 16.084 5.74888H12.364C12.2233 5.74892 12.0849 5.71328 11.9617 5.64532C11.8384 5.57735 11.7345 5.47926 11.6594 5.36022C11.5844 5.24117 11.5407 5.10505 11.5326 4.96457C11.5244 4.82409 11.552 4.68382 11.6127 4.55688L12.5647 2.56155C12.652 2.30233 12.6721 2.02521 12.6231 1.7561C12.5742 1.487 12.4577 1.23472 12.2847 1.02288C12.1248 0.825923 11.9215 0.668673 11.6906 0.56346C11.4598 0.458247 11.2077 0.40793 10.9542 0.416455C10.7006 0.42498 10.4525 0.492114 10.2292 0.612595C10.006 0.733075 9.81366 0.903628 9.66736 1.11088L6.40736 5.72955C6.3303 5.8384 6.22829 5.92722 6.10987 5.98858C5.99145 6.04993 5.86006 6.08204 5.72669 6.08222C5.64465 6.08222 5.56597 6.11481 5.50796 6.17282C5.44995 6.23083 5.41736 6.30951 5.41736 6.39155V13.9335C5.41736 13.9962 5.43499 14.0575 5.46824 14.1106C5.50149 14.1636 5.54901 14.2063 5.60536 14.2336C8.07202 15.4282 8.89136 15.5862 10.9 15.5862C11.1314 15.5862 12.4467 15.5729 12.9274 15.5729C14.714 15.5729 15.9027 14.5362 16.5647 12.3869L17.8314 8.14088L17.8374 8.11622Z" fill="#212B3D"/>
<path d="M4.41732 6.08236H4.39998C4.36069 5.84991 4.24055 5.63881 4.06075 5.48634C3.88095 5.33386 3.65306 5.24981 3.41732 5.24902H2.41732C2.32891 5.24902 2.24413 5.28414 2.18162 5.34665C2.1191 5.40917 2.08398 5.49395 2.08398 5.58236V14.9157C2.08398 15.0041 2.1191 15.0889 2.18162 15.1514C2.24413 15.2139 2.32891 15.249 2.41732 15.249H3.41732C3.68253 15.249 3.93689 15.1437 4.12442 14.9561C4.31196 14.7686 4.41732 14.5142 4.41732 14.249V6.08236Z" fill="#212B3D"/>
</g>
<defs>
<clipPath id="clip0_576_3429">
<rect width="16" height="16" fill="white"/>
</clipPath>
</defs>
</svg>
