<svg width="20" height="20" viewBox="0 0 20 20" fill="none" xmlns="http://www.w3.org/2000/svg">
<path d="M15.6562 2H4.34375C3.05151 2 2 3.05151 2 4.34375V15.6562C2 16.9485 3.05151 18 4.34375 18H15.6562C16.9485 18 18 16.9485 18 15.6562V4.34375C18 3.05151 16.9485 2 15.6562 2ZM7.65625 14.6875H5.78125V8.125H7.65625V14.6875ZM7.65625 7.1875H5.78125V5.3125H7.65625V7.1875ZM14.2188 14.6875H12.3438V10.9375C12.3438 10.4207 11.9231 10 11.4062 10C10.8894 10 10.4688 10.4207 10.4688 10.9375V14.6875H8.59375V8.125H10.4688V8.47839C10.96 8.32568 11.2791 8.125 11.875 8.125C13.1466 8.12634 14.2188 9.26709 14.2188 10.6152V14.6875Z" fill="#212B3D"/>
</svg>
