<svg width="16" height="16" viewBox="0 0 16 16" fill="none" xmlns="http://www.w3.org/2000/svg">
<path d="M13 6.33333H12.5V4.5C12.5 3.30653 12.0259 2.16193 11.1819 1.31802C10.338 0.474106 9.19343 0 7.99996 0C6.80649 0 5.66189 0.474106 4.81798 1.31802C3.97407 2.16193 3.49996 3.30653 3.49996 4.5V6.33333H2.99996C2.64634 6.33333 2.3072 6.47381 2.05715 6.72386C1.8071 6.97391 1.66663 7.31304 1.66663 7.66667V14.6667C1.66663 15.0203 1.8071 15.3594 2.05715 15.6095C2.3072 15.8595 2.64634 16 2.99996 16H13C13.3536 16 13.6927 15.8595 13.9428 15.6095C14.1928 15.3594 14.3333 15.0203 14.3333 14.6667V7.66667C14.3333 7.31304 14.1928 6.97391 13.9428 6.72386C13.6927 6.47381 13.3536 6.33333 13 6.33333ZM7.99996 12.3333C7.73625 12.3333 7.47846 12.2551 7.2592 12.1086C7.03993 11.9621 6.86904 11.7539 6.76812 11.5102C6.6672 11.2666 6.6408 10.9985 6.69225 10.7399C6.74369 10.4812 6.87068 10.2437 7.05715 10.0572C7.24362 9.87072 7.4812 9.74373 7.73984 9.69229C7.99848 9.64084 8.26657 9.66724 8.5102 9.76816C8.75384 9.86908 8.96208 10.04 9.10859 10.2592C9.25509 10.4785 9.33329 10.7363 9.33329 11C9.33329 11.3536 9.19282 11.6928 8.94277 11.9428C8.69272 12.1929 8.35358 12.3333 7.99996 12.3333ZM10.8333 6C10.8333 6.08841 10.7982 6.17319 10.7357 6.2357C10.6731 6.29821 10.5884 6.33333 10.5 6.33333H5.49996C5.41155 6.33333 5.32677 6.29821 5.26426 6.2357C5.20175 6.17319 5.16663 6.08841 5.16663 6V4.5C5.16663 3.74855 5.46514 3.02788 5.99649 2.49653C6.52784 1.96518 7.24851 1.66667 7.99996 1.66667C8.75141 1.66667 9.47208 1.96518 10.0034 2.49653C10.5348 3.02788 10.8333 3.74855 10.8333 4.5V6Z" fill="#212B3D"/>
</svg>
