<svg width="16" height="16" viewBox="0 0 16 16" fill="none" xmlns="http://www.w3.org/2000/svg">
<g clip-path="url(#clip0_539_3006)">
<path d="M10.9817 4.46857C10.9391 4.41714 10.9159 4.35247 10.9159 4.28571C10.9159 4.21896 10.9391 4.15429 10.9817 4.10286L13.2297 1.40571C13.3339 1.28057 13.4004 1.12832 13.4212 0.966786C13.442 0.805255 13.4164 0.641131 13.3473 0.493633C13.2783 0.346136 13.1686 0.221371 13.0312 0.133947C12.8938 0.0465237 12.7343 6.10516e-05 12.5714 0L3.42855 0C3.20123 0 2.98321 0.0903059 2.82246 0.251051C2.66172 0.411797 2.57141 0.629814 2.57141 0.857143V15.1429C2.57141 15.3702 2.66172 15.5882 2.82246 15.7489C2.98321 15.9097 3.20123 16 3.42855 16C3.65588 16 3.8739 15.9097 4.03465 15.7489C4.19539 15.5882 4.2857 15.3702 4.2857 15.1429V8.85714C4.2857 8.78137 4.3158 8.70869 4.36938 8.65511C4.42296 8.60153 4.49563 8.57143 4.57141 8.57143H12.5714C12.7343 8.57137 12.8938 8.52491 13.0312 8.43748C13.1686 8.35006 13.2783 8.22529 13.3473 8.0778C13.4164 7.9303 13.442 7.76617 13.4212 7.60464C13.4004 7.44311 13.3339 7.29086 13.2297 7.16571L10.9817 4.46857Z" fill="#212B3D"/>
</g>
<defs>
<clipPath id="clip0_539_3006">
<rect width="16" height="16" fill="white"/>
</clipPath>
</defs>
</svg>
