<svg width="16" height="16" viewBox="0 0 16 16" fill="none" xmlns="http://www.w3.org/2000/svg">
<path d="M0.166687 3.66602H10.1667V12.3327H0.166687V3.66602Z" fill="#212B3D"/>
<path d="M15.6754 4.04943C15.627 4.01949 15.5718 4.00242 15.5149 3.99985C15.4581 3.99728 15.4016 4.0093 15.3507 4.03477L11.3507 6.03477C11.2953 6.06253 11.2487 6.10518 11.2162 6.15794C11.1837 6.21069 11.1666 6.27147 11.1667 6.33343V9.66677C11.1667 9.72862 11.1839 9.78925 11.2164 9.84188C11.2489 9.89451 11.2954 9.93706 11.3507 9.96477L15.3507 11.9648C15.4015 11.9902 15.458 12.0023 15.5148 11.9998C15.5716 11.9972 15.6268 11.9802 15.6751 11.9504C15.7235 11.9205 15.7634 11.8788 15.7911 11.8291C15.8188 11.7795 15.8334 11.7236 15.8334 11.6668V4.33343C15.8334 4.27655 15.819 4.22058 15.7913 4.17087C15.7637 4.12116 15.7237 4.07936 15.6754 4.04943Z" fill="#212B3D"/>
</svg>
