<svg width="18" height="18" viewBox="0 0 18 18" fill="none" xmlns="http://www.w3.org/2000/svg">
<path fill-rule="evenodd" clip-rule="evenodd" d="M1.37693 0.0301801C1.08913 0.0918301 0.871092 0.194916 0.639882 0.37866C0.314046 0.63759 0.0820979 1.03418 0.0189899 1.44026C0.00325791 1.54151 -0.000630085 3.03067 0.00347391 7.39826L0.00892791 13.2213L0.0595079 13.3833C0.0873359 13.4724 0.146646 13.6141 0.191322 13.6983C0.464796 14.2135 0.967986 14.5589 1.52734 14.6154C1.62986 14.6258 2.08521 14.6343 2.53922 14.6343H3.36472L3.36982 16.0968L3.37493 17.5593L3.42175 17.6591C3.52136 17.8714 3.67241 17.9783 3.89716 17.9953C4.00045 18.0031 4.05099 17.9981 4.11709 17.9735C4.17425 17.9522 4.94017 17.3891 6.40948 16.2879L8.61602 14.6343H12.4511C14.9897 14.6343 16.3491 14.6279 16.4725 14.6154C16.8331 14.579 17.1728 14.4234 17.4419 14.1714C17.6152 14.0091 17.7051 13.8932 17.8085 13.6983C17.8908 13.5433 17.9819 13.2685 17.9819 13.1753C17.9819 13.1473 17.99 13.1194 17.9999 13.1133C18.0119 13.1059 18.0179 11.1447 18.0179 7.28814C18.0179 3.97706 18.0112 1.47832 18.0022 1.48386C17.9936 1.48921 17.9811 1.45292 17.9745 1.40324C17.9575 1.27546 17.8702 1.02819 17.7936 0.891192C17.5937 0.53382 17.2376 0.227712 16.8746 0.10119C16.5621 -0.00772785 17.1846 0.000120143 8.98718 0.00174014C2.40757 0.00301814 1.4877 0.00645614 1.37693 0.0301801ZM1.4623 1.18891C1.33405 1.25301 1.23678 1.35385 1.17679 1.4849L1.13377 1.57886L1.13834 7.32806L1.14293 13.0773L1.18321 13.159C1.23899 13.2722 1.35841 13.3886 1.47593 13.4443L1.57493 13.4913L2.83493 13.5003L4.09493 13.5093L4.18493 13.5572C4.30285 13.62 4.39695 13.7198 4.45369 13.8423L4.49957 13.9413L4.49975 15.1247L4.49993 16.3082L6.33181 14.9345C7.33934 14.1789 8.19185 13.5491 8.22631 13.535C8.27969 13.513 8.88847 13.5079 12.3569 13.5003L16.4249 13.4913L16.5239 13.4443C16.6414 13.3886 16.7609 13.2722 16.8166 13.159L16.8569 13.0773L16.8615 7.32806L16.8661 1.57886L16.8231 1.4849C16.7631 1.35385 16.6658 1.25301 16.5376 1.18891L16.4282 1.13426H8.99993H1.57167L1.4623 1.18891ZM0.00881991 7.30826C0.00881991 10.5109 0.0108899 11.8211 0.0134279 10.2198C0.0159659 8.61845 0.0159659 5.9981 0.0134279 4.39676C0.0108899 2.79545 0.00881991 4.10561 0.00881991 7.30826ZM2.96093 8.64658C2.79999 8.69306 2.66798 8.80707 2.59634 8.96151C2.55694 9.04647 2.55258 9.07617 2.5592 9.21477C2.56534 9.3434 2.57522 9.38618 2.61383 9.45152C2.67869 9.56123 2.78186 9.65665 2.88893 9.70588L2.97893 9.74726L5.85893 9.75261C7.96199 9.75652 8.76793 9.75243 8.84642 9.73742C9.31819 9.64726 9.45943 9.03108 9.07555 8.73795C8.91412 8.61469 9.11844 8.62208 5.92315 8.62403C3.79624 8.62532 3.01392 8.63128 2.96093 8.64658ZM10.6829 8.64728C10.5626 8.68561 10.5023 8.72465 10.4169 8.81962C10.3183 8.92927 10.2779 9.03902 10.2779 9.19697C10.278 9.4165 10.4268 9.63458 10.63 9.71296C10.7157 9.746 10.7969 9.74726 12.8339 9.74726H14.9489L15.0331 9.70837C15.1591 9.65015 15.2698 9.53841 15.3263 9.41241C15.3691 9.3171 15.3747 9.28448 15.3691 9.16495C15.3645 9.06542 15.3511 9.00482 15.3208 8.94626C15.2619 8.83236 15.1484 8.72155 15.0407 8.67281L14.9489 8.63126L12.8519 8.62783C11.1957 8.62509 10.7398 8.62919 10.6829 8.64728ZM2.99412 10.9628C2.83923 10.9939 2.68247 11.1157 2.59796 11.2707C2.54729 11.3636 2.55073 11.6648 2.60357 11.7633C2.65563 11.8602 2.77276 11.9731 2.87609 12.0259L2.96093 12.0693H5.08493C7.13081 12.0693 7.2122 12.068 7.29787 12.035C7.41083 11.9914 7.53161 11.8804 7.59287 11.764C7.63423 11.6854 7.6406 11.6517 7.64064 11.5113C7.64066 11.377 7.63362 11.336 7.59953 11.272C7.53617 11.1529 7.4408 11.0583 7.32883 11.0033L7.22693 10.9533L5.14793 10.9505C4.00448 10.949 3.03527 10.9545 2.99412 10.9628ZM8.91612 10.963C8.74429 10.997 8.60274 11.1151 8.52201 11.2919C8.48066 11.3825 8.4751 11.4153 8.48068 11.5349C8.48536 11.6351 8.4987 11.6956 8.52905 11.7543C8.58796 11.8682 8.70147 11.979 8.80915 12.0277L8.90093 12.0693H10.0529C11.1916 12.0693 11.2059 12.0688 11.2881 12.0308C11.6195 11.8776 11.7293 11.4589 11.5125 11.175C11.434 11.0722 11.3045 10.9897 11.1815 10.9641C11.0688 10.9406 9.03411 10.9397 8.91612 10.963ZM12.7261 10.9657C12.6089 10.9924 12.4681 11.0932 12.3957 11.2023C12.2308 11.4507 12.2869 11.7813 12.5247 11.9629C12.6786 12.0804 12.6731 12.0799 13.8709 12.0743L14.9489 12.0693L15.0407 12.0277C15.1484 11.979 15.2619 11.8682 15.3208 11.7543C15.3511 11.6957 15.3645 11.6351 15.3691 11.5356C15.3747 11.4167 15.369 11.3832 15.3274 11.2905C15.2696 11.1618 15.1616 11.051 15.0389 10.9946L14.9489 10.9533L13.8779 10.9503C13.2025 10.9484 12.7771 10.9541 12.7261 10.9657Z" fill="#7E8795"/>
</svg>
