<svg width="16" height="16" viewBox="0 0 16 16" fill="none" xmlns="http://www.w3.org/2000/svg">
<path d="M8 10.6667C8.79538 10.6658 9.55793 10.3494 10.1203 9.78701C10.6828 9.2246 10.9991 8.46205 11 7.66667V3C11 2.20435 10.6839 1.44129 10.1213 0.87868C9.55871 0.316071 8.79565 0 8 0C7.20435 0 6.44129 0.316071 5.87868 0.87868C5.31607 1.44129 5 2.20435 5 3V7.66667C5.00088 8.46205 5.31724 9.2246 5.87965 9.78701C6.44207 10.3494 7.20462 10.6658 8 10.6667Z" fill="#212B3D"/>
<path d="M12.6666 5.3335C12.4898 5.3335 12.3202 5.40373 12.1952 5.52876C12.0702 5.65378 12 5.82335 12 6.00016V7.66683C12 8.7277 11.5785 9.74511 10.8284 10.4953C10.0782 11.2454 9.06083 11.6668 7.99996 11.6668C6.93909 11.6668 5.92168 11.2454 5.17153 10.4953C4.42139 9.74511 3.99996 8.7277 3.99996 7.66683V6.00016C3.99996 5.82335 3.92972 5.65378 3.8047 5.52876C3.67967 5.40373 3.5101 5.3335 3.33329 5.3335C3.15648 5.3335 2.98691 5.40373 2.86189 5.52876C2.73686 5.65378 2.66663 5.82335 2.66663 6.00016V7.66683C2.66834 8.94085 3.12533 10.1723 3.95513 11.139C4.78494 12.1057 5.93292 12.7441 7.19196 12.9388C7.2313 12.9449 7.26717 12.9648 7.2931 12.995C7.31902 13.0252 7.33328 13.0637 7.33329 13.1035V15.3335C7.33329 15.5103 7.40353 15.6799 7.52856 15.8049C7.65358 15.9299 7.82315 16.0002 7.99996 16.0002C8.17677 16.0002 8.34634 15.9299 8.47136 15.8049C8.59639 15.6799 8.66663 15.5103 8.66663 15.3335V13.1035C8.66664 13.0637 8.6809 13.0252 8.70682 12.995C8.73274 12.9648 8.76862 12.9449 8.80796 12.9388C10.067 12.7441 11.215 12.1057 12.0448 11.139C12.8746 10.1723 13.3316 8.94085 13.3333 7.66683V6.00016C13.3333 5.82335 13.2631 5.65378 13.138 5.52876C13.013 5.40373 12.8434 5.3335 12.6666 5.3335Z" fill="#212B3D"/>
</svg>
