<svg width="16" height="16" viewBox="0 0 16 16" fill="none" xmlns="http://www.w3.org/2000/svg">
<path d="M8.00008 13.3333C6.67443 13.3319 5.40348 12.8047 4.46611 11.8673C3.52873 10.9299 3.00149 9.65898 3.00008 8.33333V6.66667C3.00008 6.48986 2.92984 6.32029 2.80482 6.19526C2.67979 6.07024 2.51023 6 2.33341 6C2.1566 6 1.98703 6.07024 1.86201 6.19526C1.73699 6.32029 1.66675 6.48986 1.66675 6.66667V8.33333C1.66867 9.87189 2.22977 11.3573 3.24554 12.5129C4.2613 13.6685 5.66248 14.4154 7.18808 14.6147C7.22832 14.6197 7.26532 14.6393 7.29209 14.6698C7.31887 14.7002 7.33357 14.7394 7.33341 14.78V15.3333C7.33341 15.5101 7.40365 15.6797 7.52868 15.8047C7.6537 15.9298 7.82327 16 8.00008 16C8.17689 16 8.34646 15.9298 8.47149 15.8047C8.59651 15.6797 8.66675 15.5101 8.66675 15.3333V14.78C8.6666 14.7394 8.68129 14.7002 8.70807 14.6698C8.73484 14.6393 8.77184 14.6197 8.81208 14.6147C9.72775 14.4962 10.6061 14.1775 11.3847 13.6813C11.4059 13.668 11.4237 13.65 11.4369 13.6288C11.4502 13.6076 11.4585 13.5837 11.4612 13.5589C11.464 13.5341 11.4611 13.5089 11.4528 13.4853C11.4446 13.4618 11.4311 13.4403 11.4134 13.4227L10.6861 12.6953C10.6602 12.6696 10.6267 12.6531 10.5906 12.6483C10.5545 12.6435 10.5177 12.6506 10.4861 12.6687C9.73022 13.1048 8.87276 13.3341 8.00008 13.3333V13.3333Z" fill="#212B3D"/>
<path d="M4.28467 6.29799C4.2614 6.27466 4.23173 6.25875 4.19943 6.25227C4.16712 6.2458 4.13362 6.24904 4.10315 6.2616C4.07269 6.27416 4.04663 6.29546 4.02827 6.32282C4.00991 6.35018 4.00007 6.38237 4 6.41532V8.33332C4.00006 9.00185 4.16768 9.65969 4.48753 10.2467C4.80739 10.8338 5.26927 11.3313 5.83098 11.6938C6.39268 12.0563 7.03629 12.2723 7.70296 12.3219C8.36964 12.3716 9.03813 12.2533 9.64733 11.978C9.67136 11.9667 9.69235 11.9499 9.70857 11.929C9.72479 11.908 9.73577 11.8834 9.74059 11.8573C9.74542 11.8313 9.74395 11.8044 9.73631 11.779C9.72867 11.7536 9.71508 11.7304 9.69667 11.7113L4.28467 6.29799Z" fill="#212B3D"/>
<path d="M15.8048 14.8673L13.1701 12.2327C13.142 12.2049 13.1249 12.1679 13.1217 12.1286C13.1185 12.0892 13.1295 12.05 13.1528 12.018C13.9228 10.9442 14.3358 9.65543 14.3334 8.33402V6.66735C14.3334 6.49054 14.2632 6.32097 14.1382 6.19594C14.0131 6.07092 13.8436 6.00068 13.6668 6.00068C13.49 6.00068 13.3204 6.07092 13.1954 6.19594C13.0703 6.32097 13.0001 6.49054 13.0001 6.66735V8.33402C13.0013 9.2781 12.7338 10.203 12.2288 11.0007C12.2154 11.0218 12.1974 11.0395 12.1761 11.0527C12.1549 11.0659 12.1309 11.0741 12.1061 11.0767C12.0818 11.0792 12.0571 11.0763 12.0341 11.0681C12.011 11.0599 11.99 11.0467 11.9728 11.0293L11.4874 10.5447C11.4619 10.5187 11.4456 10.4851 11.4409 10.449C11.4362 10.4129 11.4434 10.3763 11.4614 10.3447C11.8164 9.7342 12.0023 9.04019 12.0001 8.33402V4.00068C11.9997 3.03879 11.6526 2.10926 11.0226 1.38243C10.3926 0.655603 9.5217 0.180151 8.56961 0.0432004C7.61751 -0.0937501 6.64795 0.116974 5.83859 0.636758C5.02924 1.15654 4.43429 1.95057 4.16277 2.87335C4.15445 2.901 4.13912 2.92603 4.11826 2.946C4.09741 2.96596 4.07174 2.9802 4.04376 2.98731C4.01577 2.99443 3.98642 2.99418 3.95856 2.98659C3.9307 2.979 3.90528 2.96434 3.88477 2.94402L1.1381 0.200683C1.01199 0.077783 0.842861 0.00900233 0.666768 0.00900233C0.490676 0.00900233 0.321547 0.077783 0.195435 0.200683C0.0704544 0.325701 0.000244141 0.49524 0.000244141 0.672016C0.000244141 0.848792 0.0704544 1.01833 0.195435 1.14335L14.8621 15.81L14.8668 15.8147C14.9946 15.9286 15.1613 15.989 15.3324 15.9834C15.5036 15.9777 15.666 15.9064 15.786 15.7843C15.906 15.6621 15.9744 15.4985 15.977 15.3273C15.9796 15.1561 15.9163 14.9905 15.8001 14.8647L15.8048 14.8673Z" fill="#212B3D"/>
</svg>
