<svg width="16" height="16" viewBox="0 0 16 16" fill="none" xmlns="http://www.w3.org/2000/svg">
<path d="M14.6662 3.33308C14.7348 3.27156 14.7854 3.19249 14.8124 3.10439C14.8394 3.01629 14.8419 2.92248 14.8195 2.83308C14.7995 2.74239 14.7535 2.65948 14.6872 2.5944C14.621 2.52931 14.5372 2.48485 14.4462 2.46641L10.0729 1.49308C9.99729 1.4766 9.91894 1.47764 9.84383 1.49613C9.76871 1.51462 9.69883 1.55006 9.63954 1.59974C9.58153 1.64835 9.53567 1.70981 9.50558 1.77925C9.47549 1.84869 9.46201 1.92418 9.4662 1.99974L9.75954 6.45308C9.76676 6.54544 9.79917 6.63404 9.85324 6.70927C9.90731 6.7845 9.98097 6.84346 10.0662 6.87974C10.1272 6.90633 10.193 6.91995 10.2595 6.91974C10.3792 6.91957 10.4949 6.87706 10.5862 6.79974L11.4062 6.09308C11.4276 6.07631 11.4525 6.0646 11.479 6.05882C11.5056 6.05305 11.5331 6.05336 11.5595 6.05974C11.5857 6.06696 11.6097 6.08045 11.6294 6.09904C11.6492 6.11762 11.6641 6.14075 11.6729 6.16641C12.1218 7.41357 12.2349 8.75683 12.0009 10.0615C11.7668 11.3662 11.1939 12.5864 10.3395 13.5997C10.168 13.8022 10.084 14.0645 10.1058 14.3289C10.1277 14.5933 10.2538 14.8382 10.4562 15.0097C10.6587 15.1812 10.9209 15.2653 11.1854 15.2434C11.4498 15.2216 11.6947 15.0955 11.8662 14.8931C13.0354 13.4957 13.7819 11.7939 14.018 9.98722C14.2542 8.18057 13.9703 6.34405 13.1995 4.69308C13.1842 4.65979 13.1798 4.6225 13.187 4.58657C13.1942 4.55064 13.2126 4.5179 13.2395 4.49308L14.6662 3.33308Z" fill="#212B3D"/>
<path d="M4.88698 11.3333H2.13365C1.88019 11.3332 1.63701 11.4335 1.45717 11.6121C1.27732 11.7907 1.17541 12.0331 1.17365 12.2866V15.0399C1.17365 15.2945 1.27479 15.5387 1.45482 15.7187C1.63486 15.8988 1.87904 15.9999 2.13365 15.9999H4.88698C5.01273 15.9999 5.13725 15.975 5.25335 15.9267C5.36945 15.8784 5.47484 15.8076 5.56345 15.7183C5.65207 15.6291 5.72215 15.5232 5.76967 15.4068C5.81718 15.2904 5.84119 15.1657 5.84031 15.0399V12.2866C5.84031 12.0337 5.73987 11.7913 5.56109 11.6125C5.3823 11.4337 5.13982 11.3333 4.88698 11.3333V11.3333ZM4.50698 14.4999C4.50698 14.5441 4.48942 14.5865 4.45816 14.6178C4.42691 14.649 4.38451 14.6666 4.34031 14.6666H2.66698C2.62278 14.6666 2.58038 14.649 2.54913 14.6178C2.51787 14.5865 2.50031 14.5441 2.50031 14.4999V12.8333C2.50031 12.789 2.51787 12.7467 2.54913 12.7154C2.58038 12.6841 2.62278 12.6666 2.66698 12.6666H4.33364C4.37785 12.6666 4.42024 12.6841 4.4515 12.7154C4.48275 12.7467 4.50031 12.789 4.50031 12.8333L4.50698 14.4999Z" fill="#212B3D"/>
<path d="M5.84031 6.62008C5.84031 6.36724 5.73987 6.12476 5.56109 5.94597C5.3823 5.76719 5.13982 5.66675 4.88698 5.66675H2.13365C1.88019 5.66674 1.63701 5.76697 1.45717 5.94556C1.27732 6.12416 1.17541 6.36663 1.17365 6.62008V9.37341C1.17365 9.49948 1.19848 9.62432 1.24672 9.74079C1.29497 9.85726 1.36568 9.96309 1.45482 10.0522C1.54397 10.1414 1.6498 10.2121 1.76627 10.2603C1.88274 10.3086 2.00758 10.3334 2.13365 10.3334H4.88698C5.01273 10.3334 5.13725 10.3085 5.25335 10.2602C5.36945 10.2119 5.47484 10.1411 5.56345 10.0518C5.65207 9.9626 5.72215 9.85672 5.76967 9.74029C5.81718 9.62385 5.84119 9.49917 5.84031 9.37341V6.62008ZM4.50698 8.83341C4.50698 8.87762 4.48942 8.92001 4.45816 8.95127C4.42691 8.98252 4.38451 9.00008 4.34031 9.00008H2.66698C2.62278 9.00008 2.58038 8.98252 2.54913 8.95127C2.51787 8.92001 2.50031 8.87762 2.50031 8.83341V7.16675C2.50031 7.12255 2.51787 7.08015 2.54913 7.0489C2.58038 7.01764 2.62278 7.00008 2.66698 7.00008H4.33364C4.37785 7.00008 4.42024 7.01764 4.4515 7.0489C4.48275 7.08015 4.50031 7.12255 4.50031 7.16675L4.50698 8.83341Z" fill="#212B3D"/>
<path d="M4.88698 0H2.12698C1.60047 0 1.17365 0.426822 1.17365 0.953333V3.71333C1.17365 4.23984 1.60047 4.66667 2.12698 4.66667H4.88698C5.41349 4.66667 5.84031 4.23984 5.84031 3.71333V0.953333C5.84031 0.426822 5.41349 0 4.88698 0Z" fill="#212B3D"/>
</svg>
