<svg width="24" height="24" viewBox="0 0 24 24" fill="none" xmlns="http://www.w3.org/2000/svg">

<path d="M19.4228 3.56583L12.5657 0.137256C12.3701 0.0414324 12.1534 -0.00314709 11.9359 0.00769939C11.7184 0.0185459 11.5072 0.0844628 11.3222 0.199267C11.1371 0.314072 10.9843 0.474001 10.8779 0.664054C10.7716 0.854106 10.7153 1.06805 10.7143 1.28583V14.4344C10.7136 14.5051 10.6962 14.5745 10.6634 14.6371C10.6306 14.6997 10.5834 14.7536 10.5257 14.7944C10.4661 14.8199 10.4019 14.833 10.3371 14.833C10.2723 14.833 10.2082 14.8199 10.1485 14.7944C9.63877 14.6334 9.10582 14.5581 8.5714 14.5715C7.63901 14.5715 6.72755 14.848 5.95229 15.366C5.17703 15.8841 4.57279 16.6203 4.21597 17.4817C3.85916 18.3432 3.7658 19.2911 3.9477 20.2055C4.1296 21.12 4.5786 21.96 5.2379 22.6193C5.89721 23.2786 6.73721 23.7276 7.65169 23.9095C8.56617 24.0914 9.51406 23.9981 10.3755 23.6413C11.2369 23.2844 11.9732 22.6802 12.4912 21.9049C13.0092 21.1297 13.2857 20.2182 13.2857 19.2858V7.49154C13.2838 7.41614 13.3018 7.34155 13.3379 7.27533C13.374 7.20911 13.427 7.1536 13.4914 7.1144C13.556 7.08503 13.6262 7.06984 13.6971 7.06984C13.7681 7.06984 13.8382 7.08503 13.9028 7.1144L18.2914 9.30868C18.4796 9.41536 18.6922 9.47144 18.9085 9.47144C19.1249 9.47144 19.3375 9.41536 19.5257 9.30868C19.7151 9.19532 19.8717 9.03448 19.9799 8.84206C20.0882 8.64964 20.1443 8.43231 20.1428 8.21154V4.78297C20.1549 4.53192 20.0932 4.28284 19.9652 4.06652C19.8372 3.8502 19.6487 3.67612 19.4228 3.56583V3.56583Z" fill="#212B3D"/>






</svg>
