<svg width="16" height="16" viewBox="0 0 16 16" fill="none" xmlns="http://www.w3.org/2000/svg">
<g clip-path="url(#clip0_1030_5529)">
<path d="M8 0C6.41775 0 4.87103 0.469192 3.55544 1.34824C2.23985 2.22729 1.21447 3.47672 0.608967 4.93853C0.00346629 6.40034 -0.15496 8.00887 0.153721 9.56072C0.462403 11.1126 1.22433 12.538 2.34315 13.6569C3.46197 14.7757 4.88743 15.5376 6.43928 15.8463C7.99113 16.155 9.59966 15.9965 11.0615 15.391C12.5233 14.7855 13.7727 13.7602 14.6518 12.4446C15.5308 11.129 16 9.58225 16 8C16 5.87827 15.1571 3.84344 13.6569 2.34315C12.1566 0.842855 10.1217 0 8 0V0ZM5 10H11C11.1768 10 11.3464 10.0702 11.4714 10.1953C11.5964 10.3203 11.6667 10.4899 11.6667 10.6667C11.6667 10.8435 11.5964 11.013 11.4714 11.1381C11.3464 11.2631 11.1768 11.3333 11 11.3333H5C4.82319 11.3333 4.65362 11.2631 4.5286 11.1381C4.40357 11.013 4.33334 10.8435 4.33334 10.6667C4.33334 10.4899 4.40357 10.3203 4.5286 10.1953C4.65362 10.0702 4.82319 10 5 10ZM4.33334 8C4.33334 7.82319 4.40357 7.65362 4.5286 7.5286C4.65362 7.40357 4.82319 7.33333 5 7.33333H11C11.1768 7.33333 11.3464 7.40357 11.4714 7.5286C11.5964 7.65362 11.6667 7.82319 11.6667 8C11.6667 8.17681 11.5964 8.34638 11.4714 8.4714C11.3464 8.59643 11.1768 8.66667 11 8.66667H5C4.82319 8.66667 4.65362 8.59643 4.5286 8.4714C4.40357 8.34638 4.33334 8.17681 4.33334 8ZM11 6H5C4.82319 6 4.65362 5.92976 4.5286 5.80474C4.40357 5.67971 4.33334 5.51014 4.33334 5.33333C4.33334 5.15652 4.40357 4.98695 4.5286 4.86193C4.65362 4.7369 4.82319 4.66667 5 4.66667H11C11.1768 4.66667 11.3464 4.7369 11.4714 4.86193C11.5964 4.98695 11.6667 5.15652 11.6667 5.33333C11.6667 5.51014 11.5964 5.67971 11.4714 5.80474C11.3464 5.92976 11.1768 6 11 6Z" fill="#212B3D"/>
</g>
<defs>
<clipPath id="clip0_1030_5529">
<rect width="16" height="16" fill="white"/>
</clipPath>
</defs>
</svg>
