<svg width="19" height="18" viewBox="0 0 19 18" fill="none" xmlns="http://www.w3.org/2000/svg">
  <path fill-rule="evenodd" clip-rule="evenodd"
        d="M5.84259 2.45069C5.14762 2.49374 4.65302 2.94723 4.52084 3.66259C4.51321 3.70392 4.50383 3.76957 4.5 3.80848C4.49264 3.88328 4.49096 9.34217 4.49497 11.8774C4.4953 12.0892 4.49568 12.2805 4.49609 12.4467C4.49714 12.867 4.49844 13.1257 4.5 13.1444C4.52992 13.5042 4.65323 13.7938 4.87462 14.0241C4.91755 14.0688 4.96303 14.1101 5.01127 14.1482L5.78793 14.4643C5.84554 14.4737 5.94091 14.4758 6.39608 14.4782C7.09028 14.4819 7.21679 14.475 7.41346 14.4226C7.97799 14.2724 8.35775 13.8033 8.43957 13.155C8.44175 13.1376 8.44361 12.928 8.44515 12.5819C8.44614 12.3596 8.44875 12.1546 8.44947 11.8345C8.44947 11.8345 8.44902 11.092 8.44947 10.7117C8.44997 10.2974 8.45031 9.85234 8.45051 9.39476C8.45064 9.0931 8.4507 8.78599 8.4507 8.47867C8.4507 8.28291 8.45067 8.08705 8.45061 7.89246C8.45001 5.76366 8.44624 3.7855 8.43934 3.72408C8.40648 3.43168 8.31694 3.20389 8.15202 2.99313C7.91446 2.68952 7.51584 2.48913 7.07256 2.4505C6.97676 2.44214 5.978 2.4423 5.84259 2.45069ZM11.9035 2.45041C11.3663 2.48413 10.9426 2.76182 10.721 3.22539C10.6376 3.39981 10.5826 3.5924 10.5611 3.78556C10.5578 3.81437 10.5557 4.62413 10.5548 6.18463C10.5546 6.51922 10.5544 6.88832 10.5543 7.29164C10.5542 7.659 10.5542 8.05475 10.5542 8.47867L11.4847 7.67666L11.4868 8.81453L10.5543 9.74189C10.5543 13.7422 10.555 13.1895 10.5808 13.3221C10.6612 13.7359 10.8793 14.0495 11.2306 14.2562C11.4279 14.3722 11.6829 14.4511 11.931 14.4727C12.0392 14.4821 12.9828 14.4821 13.1414 14.4727C13.5194 14.4503 13.8154 14.3281 14.0585 14.0941C14.3056 13.8563 14.4651 13.5053 14.5035 13.1147C14.5103 13.0459 14.5107 8.51471 14.5079 5.80061C14.5075 5.39277 14.5086 4.95303 14.5079 4.65243C14.5068 4.13396 14.5054 3.80746 14.5036 3.78484C14.4934 3.65224 14.4702 3.52893 14.434 3.41447C14.3714 3.21701 14.2701 3.04592 14.1289 2.89905C13.9038 2.6649 13.6093 2.52293 13.2156 2.4588C13.1568 2.44922 13.0663 2.44746 12.5699 2.44625C12.2523 2.44547 11.9524 2.44734 11.9035 2.45041ZM5.87334 3.37678C5.81426 3.38317 5.74239 3.40305 5.68958 3.4276C5.55819 3.4887 5.46843 3.62956 5.43323 3.82996C5.42264 3.89021 5.42197 4.2259 5.42379 8.51624L5.42499 11.3081L5.42518 11.7609L5.42547 12.4492L5.42577 13.1376L5.44094 13.1909C5.46669 13.2812 5.49396 13.3296 5.55152 13.387C5.59293 13.4283 5.61656 13.4452 5.66835 13.4707L5.01127 14.1482L5.78793 14.4643L6.65463 13.5852C7.21878 13.5828 7.10055 13.5467 7.1573 13.5317C7.24979 13.5072 7.29797 13.4806 7.35657 13.4218C7.4145 13.3636 7.447 13.3101 7.47808 13.2217C7.49846 13.1638 7.47808 12.8097 7.47808 12.8097C7.47808 12.8097 8.36468 11.951 8.44947 11.8345V10.7117L7.51975 11.6412C7.52009 11.2905 7.52017 10.8583 7.52016 10.3248C7.52016 9.94671 7.52011 9.51777 7.52008 9.03101C7.52006 8.84133 7.52005 8.64287 7.52005 8.43522C7.51996 3.89916 7.51973 3.81861 7.50674 3.75569C7.48689 3.65951 7.45549 3.59962 7.39191 3.53669C7.32032 3.46584 7.24541 3.42725 7.11015 3.39155C7.05232 3.37629 7.04958 3.37622 6.47466 3.37521C6.15709 3.37466 5.8865 3.37536 5.87334 3.37678ZM11.911 3.37983C11.7887 3.39766 11.7179 3.43026 11.6468 3.50141C11.5886 3.55969 11.5563 3.61288 11.5252 3.7017C11.4915 3.79825 11.4846 3.58607 11.4841 5.51594C11.484 5.76162 11.484 6.04202 11.4841 6.36219C11.4843 6.74167 11.4845 7.17702 11.4847 7.67666C11.4848 7.93747 11.4867 8.5175 11.4868 8.81453V13.1513L11.5023 13.2013C11.5282 13.2846 11.5557 13.3311 11.6124 13.3873C11.6857 13.4599 11.7721 13.5027 11.9105 13.5348C11.9615 13.5466 12.0045 13.5475 12.5562 13.5475C13.2214 13.5475 13.199 13.549 13.3139 13.4956C13.4453 13.4345 13.5351 13.2936 13.5703 13.0932C13.5809 13.033 13.5815 12.6973 13.5797 8.40694V6.70479L14.5079 5.80061V4.65243L13.5785 5.58238L13.578 4.26959L13.5778 3.78556L13.5626 3.7323C13.5367 3.64157 13.5096 3.59358 13.4519 3.53646C13.3931 3.47825 13.3376 3.44576 13.2429 3.41402C13.1186 3.37238 13.115 3.37218 12.5058 3.3731C12.2009 3.37356 11.9333 3.37658 11.911 3.37983Z"
        fill="#878D96"/>
  <path fill-rule="evenodd" clip-rule="evenodd"
        d="M16.984 1.00275C16.9238 1.00854 16.8825 1.0214 16.8167 1.05479C16.787 1.06985 16.5941 1.25717 14.434 3.41447C14.1774 3.67071 13.8931 3.95475 13.578 4.26959C12.9927 4.8544 12.3012 5.5455 11.4841 6.36219C11.1907 6.65551 10.8811 6.96503 10.5543 7.29164C10.1241 7.72168 9.6643 8.18135 9.1728 8.6727L8.45051 9.39476L7.52016 10.3248L4.54845 13.2956L1.57673 16.2663L1.54855 16.3244C1.43304 16.5624 1.53057 16.8437 1.7676 16.9563C1.9109 17.0243 2.0909 17.0121 2.21907 16.9257C2.24351 16.9092 2.97136 16.1858 5.01127 14.1482C5.69321 13.467 6.52179 12.6389 7.51975 11.6412C7.81467 11.3464 8.12438 11.0368 8.44947 10.7117C8.88603 10.2753 9.35032 9.81101 9.84377 9.31758C10.4342 8.72717 10.9801 8.18127 11.4847 7.67666C12.2814 6.87985 12.9752 6.18599 13.5785 5.58238L14.5079 4.65243C16.8916 2.26689 17.4294 1.72431 17.4442 1.69858C17.4884 1.62155 17.5 1.57266 17.5 1.4629C17.5 1.38735 17.4973 1.35937 17.4872 1.32969C17.4653 1.26536 17.4284 1.20201 17.3857 1.15539C17.2775 1.03737 17.1455 0.987222 16.984 1.00275Z"
        fill="#878D96"/>
</svg>
