<svg width="18" height="18" viewBox="0 0 18 18" fill="none" xmlns="http://www.w3.org/2000/svg">
<path fill-rule="evenodd" clip-rule="evenodd" d="M11.3113 0.993016C11.2198 0.974876 11.1255 0.978079 11.0354 1.00234L4.59139 3.14314H11.8171V1.62327C11.8172 1.52439 11.795 1.42684 11.7523 1.33824C11.7096 1.24964 11.6476 1.17238 11.5711 1.11249C11.4946 1.05261 11.4057 1.01172 11.3113 0.993016ZM12.7712 3.14314V1.62348C12.7712 1.3734 12.7151 1.12659 12.6072 0.902512C12.4992 0.678401 12.3424 0.482983 12.1489 0.331512C11.9554 0.18004 11.7305 0.0766125 11.4918 0.0293024C11.253 -0.0180079 11.0069 -0.00792104 10.7726 0.0587757C10.7661 0.0606272 10.7596 0.0626209 10.7532 0.0647547L3.05606 2.62186C2.72791 2.71781 2.43872 2.92061 2.23196 3.20001C2.02297 3.48241 1.90973 3.8275 1.90958 4.18242V15.9869C1.90954 16.237 1.96568 16.4838 2.07361 16.7079C2.18156 16.932 3.11454 16.5017 3.11454 16.5017H3.40861H3.8539H4.2667C3.61836 16.5017 3.61836 17.4832 4.2667 17.4832H13.6192C14.0376 17.4832 14.439 17.3122 14.7349 17.0078C15.0308 16.7034 15.197 16.2905 15.197 15.86L15.197 4.76628C15.197 4.33579 15.0307 3.92294 14.7348 3.61855C14.5785 3.45769 14.3256 3.33407 14.0602 3.25327C13.8234 3.18117 13.5765 3.14314 13.3792 3.14314H12.7712ZM3.11454 16.5017H13.6192C13.7846 16.5017 13.9433 16.4341 14.0603 16.3138C14.1772 16.1935 14.243 16.0302 14.243 15.86L14.3106 6.50522C14.3106 5.82772 15.197 5.82772 15.197 6.50522L15.197 4.76628C15.197 4.59609 15.197 3.49663 14.0602 4.31252C13.9432 4.19218 13.7846 4.12457 13.6191 4.12457H2.86624C2.86452 4.14389 2.86365 4.16334 2.86364 4.18287V15.9871C2.86362 16.086 2.88581 16.1835 2.92849 16.2721C2.97116 16.3607 3.03317 16.438 3.10966 16.4979C3.1113 16.4992 3.11293 16.5004 3.11454 16.5017Z" fill="#878D96"/>
<path fill-rule="evenodd" clip-rule="evenodd" d="M6.99748 7.57659C7.18394 7.57659 7.35319 7.68869 7.43035 7.86331L9.40362 12.329C9.51228 12.5749 9.40658 12.8649 9.16751 12.9767C8.92845 13.0885 8.64655 12.9797 8.53789 12.7338L8.35862 12.4417L9.11249 11.6701L8.69201 10.7186L8.1113 11.3135L6.99748 9.24772L5.45708 12.7338C5.34842 12.9797 5.06653 13.0885 4.82746 12.9767C4.5884 12.8649 4.48269 12.5749 4.59136 12.329L6.56462 7.86331C6.64178 7.68869 6.81103 7.57659 6.99748 7.57659Z" fill="#878D96"/>
<path fill-rule="evenodd" clip-rule="evenodd" d="M5.08699 11.3135C5.08699 11.0434 5.29987 10.8244 5.56248 10.8244H8.43238L7.8891 11.3641L7.62813 11.8026C7.36553 11.8026 5.56248 11.8027 5.56248 11.8027C5.29987 11.8027 5.08699 11.5837 5.08699 11.3135Z" fill="#878D96"/>
<path fill-rule="evenodd" clip-rule="evenodd" d="M10.6791 10.0665L11.1286 9.60638H12.4864C12.749 9.60638 12.9619 9.82537 12.9619 10.0955C12.9619 10.3656 12.749 10.5846 12.4864 10.5846H10.173L10.6791 10.0665Z" fill="#878D96"/>
<path fill-rule="evenodd" clip-rule="evenodd" d="M11.7778 8.94185V9.60638V9.27412V8.94185V11.3134C11.7778 11.5836 11.5649 11.8026 11.3023 11.8026C11.0397 11.8026 10.8268 11.5836 10.8268 11.3134V9.91534L11.7778 8.94185Z" fill="#878D96"/>
<path fill-rule="evenodd" clip-rule="evenodd" d="M16.484 1.62348C16.4238 1.6294 16.3825 1.64257 16.3167 1.67675C16.2715 1.70023 15.848 2.13273 8.6728 9.47528L1.07674 17.2489L1.04856 17.3084C0.933038 17.552 1.03056 17.84 1.2676 17.9552C1.41091 18.0249 1.59089 18.0124 1.71907 17.924C1.75735 17.8976 3.51978 16.0969 9.34377 10.1354C15.7777 3.54959 16.9225 2.37441 16.9442 2.33581C16.9884 2.25695 17 2.2069 17 2.09454C17 2.01719 16.9973 1.98855 16.9872 1.95817C16.9653 1.89231 16.9284 1.82746 16.8857 1.77973C16.7775 1.65892 16.6455 1.60758 16.484 1.62348Z" fill="#878D96"/>
</svg>
