<svg width="16" height="16" viewBox="0 0 16 16" fill="none" xmlns="http://www.w3.org/2000/svg">
<path fill-rule="evenodd" clip-rule="evenodd" d="M9.9561 0.937788C9.84784 0.961092 9.73794 1.04667 9.68401 1.14968C9.64924 1.2161 9.64137 1.25134 9.64163 1.33948C9.64183 1.4076 9.64389 1.42361 9.65791 1.46594C9.70033 1.59396 9.80648 1.69531 9.9411 1.73628C9.97557 1.74677 10.0643 1.74737 12.0299 1.75036L14.0826 1.75348L10.0296 5.74048C7.80044 7.93333 5.96362 9.74291 5.94777 9.76177C5.88323 9.8386 5.85487 9.92826 5.85994 10.0395C5.86513 10.1534 5.89809 10.2268 5.98117 10.3095C6.06307 10.391 6.15064 10.4266 6.26856 10.4263C6.35929 10.4261 6.41508 10.4102 6.48746 10.364C6.51541 10.3461 7.63067 9.25259 10.6005 6.33114L14.6751 2.32281L14.6781 4.34514C14.681 6.25751 14.6817 6.36943 14.6917 6.40348C14.724 6.51278 14.7978 6.60531 14.8977 6.66181C15.0022 6.72089 15.1695 6.72187 15.278 6.66404C15.3852 6.60691 15.4691 6.49907 15.4893 6.39228C15.4957 6.35823 15.4976 7.10497 15.5001 10.6973L15.5031 15.0435L15.5038 10.2375C15.5041 7.59418 15.5028 4.49053 15.5007 3.34048L15.4971 1.24948L15.481 1.20547C15.4574 1.14089 15.4307 1.09934 15.3799 1.04863C15.3292 0.99792 15.2877 0.971136 15.2231 0.94755L15.1791 0.931476L12.5871 0.930438C10.3861 0.92955 9.98922 0.93066 9.9561 0.937788ZM1.3611 4.08506C1.02326 4.12043 0.723956 4.3369 0.585806 4.64577C0.5594 4.70481 0.543434 4.75108 0.52277 4.82848L0.509156 4.87948L0.507326 9.97647C0.505994 13.7067 0.507302 15.0855 0.512204 15.1185C0.54119 15.3132 0.637628 15.5017 0.782264 15.6463C0.92165 15.7857 1.08221 15.8704 1.29181 15.9152C1.33322 15.924 1.76957 15.925 6.3831 15.9269C10.012 15.9284 11.4459 15.9271 11.4891 15.9224C11.8139 15.8868 12.0918 15.6962 12.2414 15.4065C12.302 15.289 12.3322 15.1838 12.3442 15.0488C12.3486 14.9995 12.35 13.9408 12.3488 11.6235L12.3471 8.26948L12.3336 8.23048C12.2854 8.09138 12.1831 7.99194 12.0501 7.95476C11.9878 7.93736 11.8904 7.93736 11.8281 7.95476C11.6919 7.99282 11.5839 8.10068 11.5415 8.24104C11.5317 8.27349 11.5309 8.4695 11.5281 11.6415L11.5251 15.0075L11.5118 15.0324C11.4956 15.0626 11.4605 15.0927 11.4321 15.1006C11.4186 15.1043 9.63978 15.1064 6.42041 15.1064C1.92528 15.1065 1.4275 15.1056 1.40741 15.0972C1.37791 15.0849 1.34726 15.0551 1.3335 15.0255C1.32268 15.0022 1.32236 14.8594 1.32223 10.0048C1.32213 5.82617 1.32343 5.00493 1.33019 4.98878C1.34331 4.95748 1.37052 4.92974 1.40286 4.91468L1.4331 4.9006L4.77307 4.90054C8.48639 4.90047 8.16243 4.90433 8.2551 4.85905C8.40389 4.78635 8.48637 4.65455 8.48637 4.48948C8.48637 4.30431 8.37931 4.1578 8.1981 4.09499L8.1591 4.08148L4.7841 4.08076C2.92785 4.08036 1.3875 4.0823 1.3611 4.08506Z" fill="#0C1F22"/>
</svg>
