<svg width="16" height="16" viewBox="0 0 16 16" fill="none" xmlns="http://www.w3.org/2000/svg">
<path d="M4.66672 3.25379C4.79947 3.25445 4.9294 3.21547 5.03986 3.14183C5.15032 3.06819 5.23627 2.96325 5.28672 2.84045C5.33694 2.71841 5.34981 2.58421 5.3237 2.45485C5.29759 2.32549 5.23368 2.20679 5.14005 2.11379L3.21339 0.200454C3.08848 0.0762863 2.91951 0.0065918 2.74339 0.0065918C2.56726 0.0065918 2.39829 0.0762863 2.27339 0.200454L0.360052 2.11379C0.266033 2.20703 0.201912 2.32617 0.175866 2.456C0.14982 2.58583 0.163027 2.72048 0.213805 2.84277C0.264583 2.96507 0.35063 3.06947 0.460977 3.14267C0.571323 3.21588 0.700969 3.25456 0.833386 3.25379H1.91339C1.95759 3.25379 1.99998 3.27135 2.03124 3.3026C2.06249 3.33386 2.08005 3.37625 2.08005 3.42045V12.5805C2.08005 12.6247 2.06249 12.667 2.03124 12.6983C1.99998 12.7296 1.95759 12.7471 1.91339 12.7471H0.833386C0.701769 12.7478 0.573291 12.7874 0.464144 12.8609C0.354998 12.9345 0.270066 13.0387 0.220052 13.1605C0.168999 13.2819 0.155051 13.4157 0.179967 13.545C0.204883 13.6743 0.267547 13.7934 0.360052 13.8871L2.27339 15.7938C2.39829 15.918 2.56726 15.9876 2.74339 15.9876C2.91951 15.9876 3.08848 15.918 3.21339 15.7938L5.12672 13.8871C5.21995 13.7947 5.28381 13.6768 5.31029 13.5482C5.33677 13.4196 5.32468 13.286 5.27555 13.1643C5.22642 13.0425 5.14243 12.938 5.03412 12.8638C4.92581 12.7895 4.798 12.749 4.66672 12.7471H3.58005C3.53585 12.7471 3.49346 12.7296 3.4622 12.6983C3.43095 12.667 3.41339 12.6247 3.41339 12.5805V3.42045C3.41339 3.37625 3.43095 3.33386 3.4622 3.3026C3.49346 3.27135 3.53585 3.25379 3.58005 3.25379H4.66672Z" fill="#212B3D"/>
<path d="M10.0741 2.29403H15.1675C15.3443 2.29403 15.5139 2.22379 15.6389 2.09876C15.7639 1.97374 15.8341 1.80417 15.8341 1.62736C15.8341 1.45055 15.7639 1.28098 15.6389 1.15596C15.5139 1.03093 15.3443 0.960693 15.1675 0.960693H10.0741C9.89733 0.960693 9.72776 1.03093 9.60273 1.15596C9.47771 1.28098 9.40747 1.45055 9.40747 1.62736C9.40747 1.80417 9.47771 1.97374 9.60273 2.09876C9.72776 2.22379 9.89733 2.29403 10.0741 2.29403V2.29403Z" fill="#212B3D"/>
<path d="M15.1659 4.14697H7.20591C7.11836 4.14697 7.03167 4.16422 6.95079 4.19772C6.86991 4.23122 6.79641 4.28033 6.73451 4.34224C6.6726 4.40414 6.6235 4.47763 6.58999 4.55852C6.55649 4.6394 6.53925 4.72609 6.53925 4.81364C6.53925 4.90119 6.55649 4.98788 6.58999 5.06876C6.6235 5.14965 6.6726 5.22314 6.73451 5.28504C6.79641 5.34695 6.86991 5.39606 6.95079 5.42956C7.03167 5.46306 7.11836 5.48031 7.20591 5.48031H15.1659C15.3427 5.48031 15.5123 5.41007 15.6373 5.28504C15.7623 5.16002 15.8326 4.99045 15.8326 4.81364C15.8326 4.63683 15.7623 4.46726 15.6373 4.34224C15.5123 4.21721 15.3427 4.14697 15.1659 4.14697V4.14697Z" fill="#212B3D"/>
<path d="M15.1659 7.33325H7.20591C7.0291 7.33325 6.85953 7.40349 6.73451 7.52851C6.60948 7.65354 6.53925 7.82311 6.53925 7.99992C6.53925 8.17673 6.60948 8.3463 6.73451 8.47132C6.85953 8.59635 7.0291 8.66659 7.20591 8.66659H15.1659C15.3427 8.66659 15.5123 8.59635 15.6373 8.47132C15.7623 8.3463 15.8326 8.17673 15.8326 7.99992C15.8326 7.82311 15.7623 7.65354 15.6373 7.52851C15.5123 7.40349 15.3427 7.33325 15.1659 7.33325Z" fill="#212B3D"/>
<path d="M15.1675 10.5208H10.0741C9.89733 10.5208 9.72776 10.591 9.60273 10.716C9.47771 10.841 9.40747 11.0106 9.40747 11.1874C9.40747 11.3642 9.47771 11.5338 9.60273 11.6588C9.72776 11.7838 9.89733 11.8541 10.0741 11.8541H15.1675C15.3443 11.8541 15.5139 11.7838 15.6389 11.6588C15.7639 11.5338 15.8341 11.3642 15.8341 11.1874C15.8341 11.0106 15.7639 10.841 15.6389 10.716C15.5139 10.591 15.3443 10.5208 15.1675 10.5208V10.5208Z" fill="#212B3D"/>
<path d="M15.1659 13.7002H7.20591C7.0291 13.7002 6.85953 13.7704 6.73451 13.8955C6.60948 14.0205 6.53925 14.1901 6.53925 14.3669C6.53925 14.5437 6.60948 14.7132 6.73451 14.8383C6.85953 14.9633 7.0291 15.0335 7.20591 15.0335H15.1659C15.3427 15.0335 15.5123 14.9633 15.6373 14.8383C15.7623 14.7132 15.8326 14.5437 15.8326 14.3669C15.8326 14.1901 15.7623 14.0205 15.6373 13.8955C15.5123 13.7704 15.3427 13.7002 15.1659 13.7002Z" fill="#212B3D"/>
</svg>
