<svg width="24" height="24" viewBox="0 0 24 24" fill="none" xmlns="http://www.w3.org/2000/svg">

<path d="M8.29997 13.5C8.36601 13.5014 8.43164 13.4894 8.49291 13.4648C8.55419 13.4401 8.60986 13.4033 8.65656 13.3566C8.70326 13.3099 8.74004 13.2543 8.76469 13.193C8.78933 13.1317 8.80134 13.0661 8.79997 13C8.85635 12.118 8.98342 11.2418 9.17997 10.38C9.20254 10.2882 9.1975 10.1918 9.16548 10.1029C9.13346 10.0139 9.07588 9.9364 8.99997 9.88004C8.91529 9.81975 8.81392 9.78735 8.70997 9.78735C8.60602 9.78735 8.50465 9.81975 8.41997 9.88004C7.43744 10.6291 6.73348 11.685 6.41997 12.88C6.39962 12.9553 6.39716 13.0343 6.41279 13.1107C6.42842 13.1871 6.4617 13.2588 6.50997 13.32C6.55603 13.3795 6.61517 13.4276 6.6828 13.4606C6.75043 13.4935 6.82474 13.5104 6.89997 13.51L8.29997 13.5Z" fill="#212B3D"/>
<path d="M14.7 13C14.7076 13.1273 14.7637 13.2469 14.8566 13.3343C14.9496 13.4217 15.0724 13.4702 15.2 13.47H16.59C16.6652 13.4704 16.7395 13.4535 16.8072 13.4205C16.8748 13.3876 16.9339 13.3395 16.98 13.28C17.0283 13.2188 17.0615 13.1471 17.0772 13.0707C17.0928 12.9943 17.0903 12.9153 17.07 12.84C16.7565 11.645 16.0525 10.589 15.07 9.84001C14.9853 9.77971 14.8839 9.74731 14.78 9.74731C14.676 9.74731 14.5747 9.77971 14.49 9.84001C14.4029 9.89431 14.3356 9.97507 14.2978 10.0705C14.26 10.1658 14.2538 10.2708 14.28 10.37C14.4906 11.2339 14.631 12.1135 14.7 13Z" fill="#212B3D"/>
<path d="M11.39 8.81001C10.7144 10.1068 10.3385 11.5386 10.29 13C10.2829 13.069 10.2909 13.1387 10.3133 13.2043C10.3358 13.2699 10.3721 13.3298 10.42 13.38C10.4675 13.4304 10.5249 13.4706 10.5885 13.4981C10.6521 13.5256 10.7207 13.5399 10.79 13.54H12.71C12.7793 13.5399 12.8478 13.5256 12.9114 13.4981C12.9751 13.4706 13.0324 13.4304 13.08 13.38C13.1278 13.3298 13.1642 13.2699 13.1866 13.2043C13.2091 13.1387 13.217 13.069 13.21 13C13.1555 11.5522 12.7798 10.1347 12.11 8.85001C12.1036 8.82525 12.0895 8.80316 12.0697 8.78697C12.0499 8.77078 12.0255 8.76134 12 8.76001H11.42C11.406 8.77396 11.3957 8.79113 11.39 8.81001V8.81001Z" fill="#212B3D"/>
<path d="M8.80998 15.47C8.80233 15.3427 8.74629 15.2231 8.65334 15.1357C8.56039 15.0483 8.43755 14.9998 8.30998 15H6.90998C6.83475 14.9996 6.76044 15.0165 6.69281 15.0495C6.62518 15.0824 6.56604 15.1305 6.51998 15.19C6.47171 15.2512 6.43843 15.3229 6.4228 15.3993C6.40717 15.4757 6.40963 15.5547 6.42998 15.63C6.74062 16.8263 7.44517 17.8831 8.42998 18.63C8.51466 18.6903 8.61603 18.7227 8.71998 18.7227C8.82393 18.7227 8.9253 18.6903 9.00998 18.63C9.09564 18.5719 9.1616 18.4892 9.19911 18.3927C9.23662 18.2963 9.2439 18.1907 9.21998 18.09C9.00412 17.2309 8.86689 16.354 8.80998 15.47Z" fill="#212B3D"/>
<path d="M12.1 19.71C12.7529 18.4117 13.1275 16.9914 13.2 15.54C13.2092 15.4709 13.2023 15.4006 13.1797 15.3347C13.1572 15.2688 13.1196 15.209 13.07 15.16C13.0247 15.1094 12.9692 15.069 12.9072 15.0414C12.8451 15.0138 12.7779 14.9997 12.71 15H10.79C10.7221 14.9997 10.6549 15.0138 10.5928 15.0414C10.5308 15.069 10.4753 15.1094 10.43 15.16C10.3804 15.209 10.3428 15.2688 10.3202 15.3347C10.2977 15.4006 10.2908 15.4709 10.3 15.54C10.3724 16.9914 10.7471 18.4117 11.4 19.71V19.71H11.71H12.02H12.1Z" fill="#212B3D"/>
<path d="M20.8 5.17C20.7106 5.13383 20.6341 5.07154 20.5806 4.99127C20.5271 4.911 20.499 4.81647 20.5 4.72V2C20.5 1.46957 20.2893 0.960859 19.9142 0.585786C19.5391 0.210714 19.0304 0 18.5 0L5.5 0C4.57174 0 3.6815 0.368749 3.02513 1.02513C2.36875 1.6815 2 2.57174 2 3.5V21C2 21.7956 2.31607 22.5587 2.87868 23.1213C3.44129 23.6839 4.20435 24 5 24H20C20.5304 24 21.0391 23.7893 21.4142 23.4142C21.7893 23.0391 22 22.5304 22 22V7C21.9994 6.61136 21.8856 6.23131 21.6725 5.90632C21.4594 5.58132 21.1562 5.32546 20.8 5.17V5.17ZM4 3.5C4 3.10218 4.15804 2.72064 4.43934 2.43934C4.72064 2.15804 5.10218 2 5.5 2H18C18.1326 2 18.2598 2.05268 18.3536 2.14645C18.4473 2.24021 18.5 2.36739 18.5 2.5V4.5C18.5 4.63261 18.4473 4.75979 18.3536 4.85355C18.2598 4.94732 18.1326 5 18 5H5.5C5.10218 5 4.72064 4.84196 4.43934 4.56066C4.15804 4.27936 4 3.89782 4 3.5ZM11.75 21.25C10.3655 21.25 9.01215 20.8395 7.86101 20.0703C6.70986 19.3011 5.81266 18.2079 5.28284 16.9288C4.75303 15.6497 4.61441 14.2422 4.8845 12.8844C5.1546 11.5265 5.82128 10.2792 6.80025 9.30025C7.77922 8.32129 9.0265 7.6546 10.3844 7.3845C11.7422 7.11441 13.1497 7.25303 14.4288 7.78284C15.7079 8.31266 16.8011 9.20986 17.5703 10.361C18.3395 11.5122 18.75 12.8655 18.75 14.25C18.75 16.1065 18.0125 17.887 16.6997 19.1997C15.387 20.5125 13.6065 21.25 11.75 21.25V21.25Z" fill="#212B3D"/>
<path d="M15.19 15C15.0624 14.9998 14.9396 15.0483 14.8466 15.1357C14.7537 15.2231 14.6976 15.3427 14.69 15.47C14.637 16.357 14.5031 17.2373 14.29 18.1C14.2661 18.2007 14.2734 18.3063 14.3109 18.4027C14.3484 18.4992 14.4143 18.5819 14.5 18.64C14.5847 18.7003 14.686 18.7327 14.79 18.7327C14.8939 18.7327 14.9953 18.7003 15.08 18.64C16.0648 17.8931 16.7694 16.8363 17.08 15.64C17.1003 15.5647 17.1028 15.4857 17.0872 15.4093C17.0715 15.3329 17.0383 15.2612 16.99 15.2C16.9439 15.1405 16.8848 15.0924 16.8172 15.0595C16.7495 15.0265 16.6752 15.0096 16.6 15.01L15.19 15Z" fill="#212B3D"/>






</svg>
