<svg width="24" height="24" viewBox="0 0 24 24" fill="none" xmlns="http://www.w3.org/2000/svg">
<g clip-path="url(#clip0_967_5208)">
<path d="M15.4201 6.37007C15.3276 6.45581 15.2062 6.50346 15.0801 6.50346C14.954 6.50346 14.8325 6.45581 14.7401 6.37007L11.8901 4.14007C11.4101 3.75502 10.8051 3.56049 10.1907 3.5937C9.57626 3.62691 8.99568 3.88553 8.56005 4.32007L1.69005 11.1901C1.54976 11.3287 1.43838 11.4937 1.36236 11.6757C1.28634 11.8576 1.24719 12.0529 1.24719 12.2501C1.24719 12.4473 1.28634 12.6425 1.36236 12.8245C1.43838 13.0064 1.54976 13.1715 1.69005 13.3101C1.9713 13.591 2.35255 13.7487 2.75005 13.7487C3.14755 13.7487 3.5288 13.591 3.81005 13.3101L10.0001 7.08007C10.0919 6.99715 10.2113 6.95125 10.3351 6.95125C10.4588 6.95125 10.5782 6.99715 10.6701 7.08007L13.5501 9.39007C14.0533 9.79158 14.6912 9.98525 15.3327 9.93132C15.9743 9.87739 16.5709 9.57996 17.0001 9.10007L20.4601 5.37007C20.4823 5.34423 20.5099 5.32366 20.5411 5.30982C20.5722 5.29599 20.606 5.28924 20.6401 5.29007C20.6734 5.28727 20.707 5.29213 20.7381 5.30426C20.7693 5.31639 20.7974 5.33548 20.8201 5.36007L22.2401 6.78007C22.3447 6.88623 22.479 6.95831 22.6253 6.98686C22.7716 7.01541 22.9232 6.9991 23.0601 6.94007C23.1969 6.88415 23.3138 6.78854 23.3958 6.66556C23.4778 6.54258 23.5211 6.39787 23.5201 6.25007V0.750067C23.5187 0.650259 23.4978 0.551687 23.4584 0.459978C23.419 0.368269 23.3619 0.285221 23.2904 0.215575C23.2189 0.145929 23.1344 0.0910509 23.0417 0.0540736C22.949 0.0170964 22.8499 -0.00125524 22.7501 6.66544e-05H17.2501C17.1023 -0.000934267 16.9575 0.0423467 16.8346 0.124332C16.7116 0.206318 16.616 0.323252 16.5601 0.460067C16.501 0.596959 16.4847 0.748488 16.5133 0.894806C16.5418 1.04112 16.6139 1.17541 16.7201 1.28007L18.3201 2.88007C18.3659 2.9268 18.3915 2.98963 18.3915 3.05507C18.3915 3.12051 18.3659 3.18333 18.3201 3.23007L15.4201 6.37007Z" fill="#212B3D"/>
<path d="M21 21H14C13.6022 21 13.2206 21.158 12.9393 21.4393C12.658 21.7206 12.5 22.1022 12.5 22.5C12.5 22.8978 12.658 23.2794 12.9393 23.5607C13.2206 23.842 13.6022 24 14 24H21C21.3978 24 21.7794 23.842 22.0607 23.5607C22.342 23.2794 22.5 22.8978 22.5 22.5C22.5 22.1022 22.342 21.7206 22.0607 21.4393C21.7794 21.158 21.3978 21 21 21Z" fill="#212B3D"/>
<path d="M3 24H10C10.3978 24 10.7794 23.842 11.0607 23.5607C11.342 23.2794 11.5 22.8978 11.5 22.5C11.5 22.1022 11.342 21.7206 11.0607 21.4393C10.7794 21.158 10.3978 21 10 21H3C2.60218 21 2.22064 21.158 1.93934 21.4393C1.65804 21.7206 1.5 22.1022 1.5 22.5C1.5 22.8978 1.65804 23.2794 1.93934 23.5607C2.22064 23.842 2.60218 24 3 24V24Z" fill="#212B3D"/>
<path d="M9 19.5C9.39782 19.5 9.77936 19.342 10.0607 19.0607C10.342 18.7794 10.5 18.3978 10.5 18C10.5 17.6022 10.342 17.2206 10.0607 16.9393C9.77936 16.658 9.39782 16.5 9 16.5H2C1.60218 16.5 1.22064 16.658 0.93934 16.9393C0.658035 17.2206 0.5 17.6022 0.5 18C0.5 18.3978 0.658035 18.7794 0.93934 19.0607C1.22064 19.342 1.60218 19.5 2 19.5H9Z" fill="#212B3D"/>
<path d="M23.5 18C23.5 17.6022 23.342 17.2206 23.0607 16.9393C22.7794 16.658 22.3978 16.5 22 16.5H15C14.6022 16.5 14.2206 16.658 13.9393 16.9393C13.658 17.2206 13.5 17.6022 13.5 18C13.5 18.3978 13.658 18.7794 13.9393 19.0607C14.2206 19.342 14.6022 19.5 15 19.5H22C22.3978 19.5 22.7794 19.342 23.0607 19.0607C23.342 18.7794 23.5 18.3978 23.5 18Z" fill="#212B3D"/>
<path d="M14 15H21C21.3978 15 21.7794 14.842 22.0607 14.5607C22.342 14.2794 22.5 13.8978 22.5 13.5C22.5 13.1022 22.342 12.7206 22.0607 12.4393C21.7794 12.158 21.3978 12 21 12H14C13.6022 12 13.2206 12.158 12.9393 12.4393C12.658 12.7206 12.5 13.1022 12.5 13.5C12.5 13.8978 12.658 14.2794 12.9393 14.5607C13.2206 14.842 13.6022 15 14 15V15Z" fill="#212B3D"/>
</g>
<defs>
<clipPath id="clip0_967_5208">
<rect width="24" height="24" fill="white"/>
</clipPath>
</defs>
</svg>
