<svg width="24" height="24" viewBox="0 0 24 24" fill="none" xmlns="http://www.w3.org/2000/svg">
<g clip-path="url(#clip0_967_5220)">
<path d="M21.408 17.34L17.7936 11.7144C17.7346 11.624 17.7013 11.5193 17.697 11.4114C17.6928 11.3036 17.7178 11.1966 17.7695 11.1018C17.8212 11.007 17.8976 10.9281 17.9906 10.8732C18.0836 10.8184 18.1896 10.7898 18.2976 10.7904H19.2C19.4292 10.7899 19.6534 10.7239 19.8463 10.6C20.0391 10.4761 20.1924 10.2996 20.2881 10.0913C20.3838 9.88305 20.4178 9.65174 20.3862 9.42474C20.3545 9.19774 20.2586 8.98455 20.1096 8.81038L12.9096 0.410377C12.7938 0.284551 12.6532 0.184111 12.4966 0.115407C12.3401 0.0467037 12.171 0.0112305 12 0.0112305C11.829 0.0112305 11.6599 0.0467037 11.5033 0.115407C11.3467 0.184111 11.2061 0.284551 11.0904 0.410377L3.89038 8.81038C3.73839 8.98431 3.63983 9.19841 3.60652 9.42698C3.57322 9.65554 3.60659 9.88887 3.70263 10.0989C3.79867 10.309 3.95329 10.4869 4.14794 10.6112C4.3426 10.7356 4.569 10.8011 4.79998 10.8H5.70238C5.81031 10.7994 5.9164 10.828 6.00938 10.8828C6.10235 10.9377 6.17874 11.0166 6.23043 11.1114C6.28211 11.2062 6.30717 11.3132 6.30293 11.421C6.2987 11.5289 6.26533 11.6336 6.20638 11.724L2.59198 17.34C2.47256 17.5213 2.40457 17.7316 2.39527 17.9486C2.38596 18.1655 2.43568 18.3809 2.53913 18.5718C2.64258 18.7626 2.79589 18.9219 2.98271 19.0325C3.16952 19.1432 3.38286 19.201 3.59998 19.2H9.59998C9.75911 19.2 9.91172 19.2632 10.0242 19.3757C10.1368 19.4882 10.2 19.6408 10.2 19.8V22.2C10.2 22.6774 10.3896 23.1352 10.7272 23.4728C11.0648 23.8103 11.5226 24 12 24C12.4774 24 12.9352 23.8103 13.2728 23.4728C13.6103 23.1352 13.8 22.6774 13.8 22.2V19.8C13.8 19.6408 13.8632 19.4882 13.9757 19.3757C14.0882 19.2632 14.2408 19.2 14.4 19.2H20.4C20.6156 19.1999 20.8272 19.1417 21.0126 19.0316C21.1979 18.9214 21.3502 18.7634 21.4533 18.574C21.5565 18.3847 21.6067 18.171 21.5987 17.9556C21.5907 17.7401 21.5248 17.5308 21.408 17.3496V17.34Z" fill="#212B3D"/>
</g>
<defs>
<clipPath id="clip0_967_5220">
<rect width="24" height="24" fill="white"/>
</clipPath>
</defs>
</svg>
