<svg width="24" height="25" viewBox="0 0 24 25" fill="none" xmlns="http://www.w3.org/2000/svg">
<path fill-rule="evenodd" clip-rule="evenodd" d="M9.02955 2.22439C9.12935 2.29525 9.20464 2.39538 9.245 2.51093L13.4099 9.68349C12.6753 10.0248 12.0055 10.4928 11.4317 11.0666C10.7888 11.7095 10.2789 12.4727 9.93097 13.3126C9.58319 14.1522 9.40412 15.0521 9.40399 15.9609H1.439C0.825002 15.9609 0.574001 15.5279 0.881002 14.9999L8.131 2.51093C8.17136 2.39538 8.24665 2.29525 8.34645 2.22439C8.44625 2.15354 8.56561 2.11548 8.688 2.11548C8.81039 2.11548 8.92976 2.15354 9.02955 2.22439ZM9.40399 15.9609C9.40399 15.9613 9.40399 15.9616 9.40399 15.9619C9.40399 16.8711 9.58306 17.7713 9.93097 18.6112C10.2789 19.4512 10.7888 20.2143 11.4317 20.8572C12.0746 21.5001 12.8377 22.01 13.6777 22.3579C14.5176 22.7058 15.4178 22.8849 16.327 22.8849C17.2361 22.8849 18.1364 22.7058 18.9763 22.3579C19.8162 22.01 20.5794 21.5001 21.2223 20.8572C21.8652 20.2143 22.3751 19.4512 22.723 18.6112C23.0709 17.7713 23.25 16.8711 23.25 15.9619C23.25 15.0528 23.0709 14.1525 22.723 13.3126C22.3751 12.4727 21.8652 11.7095 21.2223 11.0666C20.5794 10.4237 19.8162 9.91381 18.9763 9.56589C18.1364 9.21798 17.2361 9.03891 16.327 9.03891C15.4178 9.03891 14.5176 9.21798 13.6777 9.56589C13.5875 9.60324 13.4982 9.64245 13.4099 9.68349L16.497 14.9999C16.804 15.5279 16.553 15.9609 15.939 15.9609H9.40399Z" fill="white"/>
<path d="M9.245 2.51093L8.53695 2.75824C8.55263 2.80313 8.57254 2.84642 8.59642 2.88754L9.245 2.51093ZM9.93097 13.3126L9.23806 13.0256L9.23806 13.0256L9.93097 13.3126ZM0.881002 14.9999L1.52937 15.3769L1.52963 15.3765L0.881002 14.9999ZM8.131 2.51093L8.77963 2.88746C8.80349 2.84637 8.82338 2.8031 8.83905 2.75824L8.131 2.51093ZM18.9763 22.3579L19.2633 23.0508L19.2633 23.0508L18.9763 22.3579ZM21.2223 20.8572L20.692 20.3269L20.692 20.3269L21.2223 20.8572ZM22.723 18.6112L23.4159 18.8982L23.4159 18.8982L22.723 18.6112ZM22.723 13.3126L23.4159 13.0256L23.4159 13.0256L22.723 13.3126ZM21.2223 11.0666L20.692 11.5969L20.692 11.5969L21.2223 11.0666ZM18.9763 9.56589L19.2633 8.87298L19.2633 8.87298L18.9763 9.56589ZM13.6777 9.56589L13.3907 8.87298L13.3907 8.87298L13.6777 9.56589ZM16.497 14.9999L15.8484 15.3765L15.8486 15.3769L16.497 14.9999ZM9.95305 2.26361C9.86139 2.00119 9.69038 1.77376 9.46373 1.61284L8.59538 2.83594C8.56831 2.81673 8.5479 2.78957 8.53695 2.75824L9.95305 2.26361ZM14.0585 9.30688L9.89359 2.13431L8.59642 2.88754L12.7613 10.0601L14.0585 9.30688ZM13.0939 9.00332C12.2797 9.38162 11.5374 9.90026 10.9014 10.5363L11.962 11.5969C12.4737 11.0853 13.0709 10.668 13.7259 10.3637L13.0939 9.00332ZM10.9014 10.5363C10.1889 11.2488 9.62367 12.0946 9.23806 13.0256L10.6239 13.5996C10.9341 12.8507 11.3888 12.1702 11.962 11.5969L10.9014 10.5363ZM9.23806 13.0256C8.8526 13.9562 8.65413 14.9536 8.65399 15.9608L10.154 15.961C10.1541 15.1507 10.3138 14.3483 10.6239 13.5996L9.23806 13.0256ZM1.439 16.7109H9.40399V15.2109H1.439V16.7109ZM0.232634 14.6229C-0.00207033 15.0266 -0.116969 15.5674 0.16595 16.0549C0.447967 16.5408 0.972972 16.7109 1.439 16.7109V15.2109C1.3709 15.2109 1.35226 15.1986 1.36575 15.2049C1.38312 15.213 1.42789 15.241 1.4633 15.302C1.49882 15.3632 1.50133 15.417 1.49948 15.4382C1.49801 15.4549 1.49595 15.4344 1.52937 15.3769L0.232634 14.6229ZM7.48237 2.13439L0.232372 14.6234L1.52963 15.3765L8.77963 2.88746L7.48237 2.13439ZM7.91228 1.61284C7.68562 1.77376 7.51461 2.00118 7.42295 2.26361L8.83905 2.75824C8.82811 2.78958 8.80769 2.81673 8.78063 2.83594L7.91228 1.61284ZM8.688 1.36548C8.41003 1.36548 8.13894 1.45193 7.91228 1.61284L8.78063 2.83594C8.75356 2.85516 8.72119 2.86548 8.688 2.86548V1.36548ZM9.46373 1.61284C9.23707 1.45192 8.96597 1.36548 8.688 1.36548V2.86548C8.65481 2.86548 8.62244 2.85516 8.59538 2.83594L9.46373 1.61284ZM8.65399 15.9609C8.65399 15.9609 8.65399 15.9609 8.65399 15.9609C8.65399 15.9609 8.65399 15.9609 8.65399 15.9609C8.65399 15.9609 8.65399 15.9609 8.65399 15.9609C8.65399 15.9609 8.65399 15.9609 8.65399 15.9609C8.65399 15.9609 8.65399 15.9609 8.65399 15.9609C8.65399 15.9609 8.65399 15.9609 8.65399 15.9609C8.65399 15.9609 8.65399 15.9609 8.65399 15.9609C8.65399 15.9609 8.65399 15.9609 8.65399 15.9609C8.65399 15.9609 8.65399 15.9609 8.65399 15.9609C8.65399 15.9609 8.65399 15.9609 8.65399 15.9609C8.65399 15.9609 8.65399 15.9609 8.65399 15.9609C8.65399 15.9609 8.65399 15.9609 8.65399 15.9609C8.65399 15.9609 8.65399 15.961 8.65399 15.961C8.65399 15.961 8.65399 15.961 8.65399 15.961C8.65399 15.961 8.65399 15.961 8.65399 15.961C8.65399 15.961 8.65399 15.961 8.65399 15.961C8.65399 15.961 8.65399 15.961 8.65399 15.961C8.65399 15.961 8.65399 15.961 8.65399 15.961C8.65399 15.961 8.65399 15.961 8.65399 15.961C8.65399 15.961 8.65399 15.961 8.65399 15.961C8.65399 15.961 8.65399 15.961 8.65399 15.961C8.65399 15.961 8.65399 15.961 8.65399 15.961C8.65399 15.961 8.65399 15.961 8.65399 15.961C8.65399 15.961 8.65399 15.961 8.65399 15.961C8.65399 15.961 8.65399 15.961 8.65399 15.961C8.65399 15.961 8.65399 15.961 8.65399 15.961C8.65399 15.961 8.65399 15.961 8.65399 15.961C8.65399 15.961 8.65399 15.961 8.65399 15.961C8.65399 15.961 8.65399 15.961 8.65399 15.961C8.65399 15.961 8.65399 15.961 8.65399 15.961C8.65399 15.961 8.65399 15.961 8.65399 15.961C8.65399 15.961 8.65399 15.961 8.65399 15.961C8.65399 15.961 8.65399 15.961 8.65399 15.961C8.65399 15.961 8.65399 15.961 8.65399 15.961C8.65399 15.961 8.65399 15.961 8.65399 15.961C8.65399 15.961 8.65399 15.961 8.65399 15.961C8.65399 15.961 8.65399 15.961 8.65399 15.961C8.65399 15.961 8.65399 15.961 8.65399 15.961C8.65399 15.961 8.65399 15.961 8.65399 15.961C8.65399 15.961 8.65399 15.961 8.65399 15.961C8.65399 15.961 8.65399 15.961 8.65399 15.961C8.65399 15.961 8.65399 15.961 8.65399 15.961C8.65399 15.961 8.65399 15.961 8.65399 15.961C8.65399 15.961 8.65399 15.961 8.65399 15.961C8.65399 15.961 8.65399 15.961 8.65399 15.961C8.65399 15.961 8.65399 15.961 8.65399 15.961C8.65399 15.961 8.65399 15.961 8.65399 15.961C8.65399 15.961 8.65399 15.961 8.65399 15.961C8.65399 15.961 8.65399 15.961 8.65399 15.961C8.65399 15.961 8.65399 15.961 8.65399 15.961C8.65399 15.961 8.65399 15.961 8.65399 15.961C8.65399 15.961 8.65399 15.961 8.65399 15.961C8.65399 15.961 8.65399 15.961 8.65399 15.961C8.65399 15.961 8.65399 15.961 8.65399 15.961C8.65399 15.961 8.65399 15.961 8.65399 15.961C8.65399 15.961 8.65399 15.961 8.65399 15.961C8.65399 15.961 8.65399 15.961 8.65399 15.961C8.65399 15.961 8.65399 15.961 8.65399 15.961C8.65399 15.961 8.65399 15.961 8.65399 15.961C8.65399 15.961 8.65399 15.961 8.65399 15.961C8.65399 15.961 8.65399 15.961 8.65399 15.961C8.65399 15.961 8.65399 15.961 8.65399 15.961C8.65399 15.961 8.65399 15.961 8.65399 15.961C8.65399 15.961 8.65399 15.961 8.65399 15.961C8.65399 15.961 8.65399 15.9611 8.65399 15.9611C8.65399 15.9611 8.65399 15.9611 8.65399 15.9611C8.65399 15.9611 8.65399 15.9611 8.65399 15.9611C8.65399 15.9611 8.65399 15.9611 8.65399 15.9611C8.65399 15.9611 8.65399 15.9611 8.65399 15.9611C8.65399 15.9611 8.65399 15.9611 8.65399 15.9611C8.65399 15.9611 8.65399 15.9611 8.65399 15.9611C8.65399 15.9611 8.65399 15.9611 8.65399 15.9611C8.65399 15.9611 8.65399 15.9611 8.65399 15.9611C8.65399 15.9611 8.65399 15.9611 8.65399 15.9611C8.65399 15.9611 8.65399 15.9611 8.65399 15.9611C8.65399 15.9611 8.65399 15.9611 8.65399 15.9611C8.65399 15.9611 8.65399 15.9611 8.65399 15.9611C8.65399 15.9611 8.65399 15.9611 8.65399 15.9611C8.65399 15.9611 8.65399 15.9611 8.65399 15.9611C8.65399 15.9611 8.65399 15.9611 8.65399 15.9611C8.65399 15.9611 8.65399 15.9611 8.65399 15.9611C8.65399 15.9611 8.65399 15.9611 8.65399 15.9611C8.65399 15.9611 8.65399 15.9611 8.65399 15.9611C8.65399 15.9611 8.65399 15.9611 8.65399 15.9611C8.65399 15.9611 8.65399 15.9611 8.65399 15.9611C8.65399 15.9611 8.65399 15.9611 8.65399 15.9611C8.65399 15.9611 8.65399 15.9611 8.65399 15.9611C8.65399 15.9611 8.65399 15.9611 8.65399 15.9611C8.65399 15.9611 8.65399 15.9611 8.65399 15.9611C8.65399 15.9611 8.65399 15.9611 8.65399 15.9611C8.65399 15.9611 8.65399 15.9611 8.65399 15.9611C8.65399 15.9611 8.65399 15.9611 8.65399 15.9611C8.65399 15.9611 8.65399 15.9611 8.65399 15.9611C8.65399 15.9611 8.65399 15.9611 8.65399 15.9611C8.65399 15.9611 8.65399 15.9611 8.65399 15.9611C8.65399 15.9611 8.65399 15.9611 8.65399 15.9611C8.65399 15.9611 8.65399 15.9611 8.65399 15.9611C8.65399 15.9611 8.65399 15.9611 8.65399 15.9611C8.65399 15.9611 8.65399 15.9611 8.65399 15.9611C8.65399 15.9611 8.65399 15.9611 8.65399 15.9611C8.65399 15.9611 8.65399 15.9611 8.65399 15.9611C8.65399 15.9611 8.65399 15.9611 8.65399 15.9611C8.65399 15.9611 8.65399 15.9611 8.65399 15.9611C8.65399 15.9611 8.65399 15.9611 8.65399 15.9611C8.65399 15.9611 8.65399 15.9611 8.65399 15.9611C8.65399 15.9611 8.65399 15.9611 8.65399 15.9611C8.65399 15.9611 8.65399 15.9611 8.65399 15.9611C8.65399 15.9611 8.65399 15.9611 8.65399 15.9611C8.65399 15.9611 8.65399 15.9611 8.65399 15.9611C8.65399 15.9611 8.65399 15.9611 8.65399 15.9611C8.65399 15.9611 8.65399 15.9611 8.65399 15.9611C8.65399 15.9611 8.65399 15.9611 8.65399 15.9611C8.65399 15.9611 8.65399 15.9611 8.65399 15.9611C8.65399 15.9611 8.65399 15.9611 8.65399 15.9611C8.65399 15.9611 8.65399 15.9611 8.65399 15.9611C8.65399 15.9611 8.65399 15.9611 8.65399 15.9611C8.65399 15.9611 8.65399 15.9612 8.65399 15.9612C8.65399 15.9612 8.65399 15.9612 8.65399 15.9612C8.65399 15.9612 8.65399 15.9612 8.65399 15.9612C8.65399 15.9612 8.65399 15.9612 8.65399 15.9612C8.65399 15.9612 8.65399 15.9612 8.65399 15.9612C8.65399 15.9612 8.65399 15.9612 8.65399 15.9612C8.65399 15.9612 8.65399 15.9612 8.65399 15.9612C8.65399 15.9612 8.65399 15.9612 8.65399 15.9612C8.65399 15.9612 8.65399 15.9612 8.65399 15.9612C8.65399 15.9612 8.65399 15.9612 8.65399 15.9612C8.65399 15.9612 8.65399 15.9612 8.65399 15.9612C8.65399 15.9612 8.65399 15.9612 8.65399 15.9612C8.65399 15.9612 8.65399 15.9612 8.65399 15.9612C8.65399 15.9612 8.65399 15.9612 8.65399 15.9612C8.65399 15.9612 8.65399 15.9612 8.65399 15.9612C8.65399 15.9612 8.65399 15.9612 8.65399 15.9612C8.65399 15.9612 8.65399 15.9612 8.65399 15.9612C8.65399 15.9612 8.65399 15.9612 8.65399 15.9612C8.65399 15.9612 8.65399 15.9612 8.65399 15.9612C8.65399 15.9612 8.65399 15.9612 8.65399 15.9612C8.65399 15.9612 8.65399 15.9612 8.65399 15.9612C8.65399 15.9612 8.65399 15.9612 8.65399 15.9612C8.65399 15.9612 8.65399 15.9612 8.65399 15.9612C8.65399 15.9612 8.65399 15.9612 8.65399 15.9612C8.65399 15.9612 8.65399 15.9612 8.65399 15.9612C8.65399 15.9612 8.65399 15.9612 8.65399 15.9612C8.65399 15.9612 8.65399 15.9612 8.65399 15.9612C8.65399 15.9612 8.65399 15.9612 8.65399 15.9612C8.65399 15.9612 8.65399 15.9612 8.65399 15.9612C8.65399 15.9612 8.65399 15.9612 8.65399 15.9612C8.65399 15.9612 8.65399 15.9612 8.65399 15.9612C8.65399 15.9612 8.65399 15.9612 8.65399 15.9612C8.65399 15.9612 8.65399 15.9612 8.65399 15.9612C8.65399 15.9612 8.65399 15.9612 8.65399 15.9612C8.65399 15.9612 8.65399 15.9612 8.65399 15.9612C8.65399 15.9612 8.65399 15.9612 8.65399 15.9612C8.65399 15.9612 8.65399 15.9612 8.65399 15.9612C8.65399 15.9612 8.65399 15.9612 8.65399 15.9612C8.65399 15.9612 8.65399 15.9612 8.65399 15.9612C8.65399 15.9612 8.65399 15.9612 8.65399 15.9612C8.65399 15.9612 8.65399 15.9612 8.65399 15.9612C8.65399 15.9612 8.65399 15.9612 8.65399 15.9612C8.65399 15.9612 8.65399 15.9612 8.65399 15.9612C8.65399 15.9612 8.65399 15.9612 8.65399 15.9612C8.65399 15.9612 8.65399 15.9612 8.65399 15.9612C8.65399 15.9612 8.65399 15.9612 8.65399 15.9612C8.65399 15.9612 8.65399 15.9612 8.65399 15.9612C8.65399 15.9612 8.65399 15.9612 8.65399 15.9612C8.65399 15.9612 8.65399 15.9612 8.65399 15.9612C8.65399 15.9612 8.65399 15.9612 8.65399 15.9612C8.65399 15.9612 8.65399 15.9612 8.65399 15.9612C8.65399 15.9612 8.65399 15.9612 8.65399 15.9612C8.65399 15.9612 8.65399 15.9613 8.65399 15.9613C8.65399 15.9613 8.65399 15.9613 8.65399 15.9613C8.65399 15.9613 8.65399 15.9613 8.65399 15.9613C8.65399 15.9613 8.65399 15.9613 8.65399 15.9613C8.65399 15.9613 8.65399 15.9613 8.65399 15.9613C8.65399 15.9613 8.65399 15.9613 8.65399 15.9613C8.65399 15.9613 8.65399 15.9613 8.65399 15.9613C8.65399 15.9613 8.65399 15.9613 8.65399 15.9613C8.65399 15.9613 8.65399 15.9613 8.65399 15.9613C8.65399 15.9613 8.65399 15.9613 8.65399 15.9613C8.65399 15.9613 8.65399 15.9613 8.65399 15.9613C8.65399 15.9613 8.65399 15.9613 8.65399 15.9613C8.65399 15.9613 8.65399 15.9613 8.65399 15.9613C8.65399 15.9613 8.65399 15.9613 8.65399 15.9613C8.65399 15.9613 8.65399 15.9613 8.65399 15.9613C8.65399 15.9613 8.65399 15.9613 8.65399 15.9613C8.65399 15.9613 8.65399 15.9613 8.65399 15.9613C8.65399 15.9613 8.65399 15.9613 8.65399 15.9613C8.65399 15.9613 8.65399 15.9613 8.65399 15.9613C8.65399 15.9613 8.65399 15.9613 8.65399 15.9613C8.65399 15.9613 8.65399 15.9613 8.65399 15.9613C8.65399 15.9613 8.65399 15.9613 8.65399 15.9613C8.65399 15.9613 8.65399 15.9613 8.65399 15.9613C8.65399 15.9613 8.65399 15.9613 8.65399 15.9613C8.65399 15.9613 8.65399 15.9613 8.65399 15.9613C8.65399 15.9613 8.65399 15.9613 8.65399 15.9613C8.65399 15.9613 8.65399 15.9613 8.65399 15.9613C8.65399 15.9613 8.65399 15.9613 8.65399 15.9613C8.65399 15.9613 8.65399 15.9613 8.65399 15.9613C8.65399 15.9613 8.65399 15.9613 8.65399 15.9613C8.65399 15.9613 8.65399 15.9613 8.65399 15.9613C8.65399 15.9613 8.65399 15.9613 8.65399 15.9613C8.65399 15.9613 8.65399 15.9613 8.65399 15.9613C8.65399 15.9613 8.65399 15.9613 8.65399 15.9613C8.65399 15.9613 8.65399 15.9613 8.65399 15.9613C8.65399 15.9613 8.65399 15.9613 8.65399 15.9613C8.65399 15.9613 8.65399 15.9613 8.65399 15.9613C8.65399 15.9613 8.65399 15.9613 8.65399 15.9613C8.65399 15.9613 8.65399 15.9613 8.65399 15.9613C8.65399 15.9613 8.65399 15.9613 8.65399 15.9613C8.65399 15.9613 8.65399 15.9613 8.65399 15.9613C8.65399 15.9613 8.65399 15.9613 8.65399 15.9613C8.65399 15.9613 8.65399 15.9613 8.65399 15.9613C8.65399 15.9613 8.65399 15.9613 8.65399 15.9613C8.65399 15.9613 8.65399 15.9613 8.65399 15.9613C8.65399 15.9613 8.65399 15.9613 8.65399 15.9613C8.65399 15.9613 8.65399 15.9613 8.65399 15.9613C8.65399 15.9613 8.65399 15.9613 8.65399 15.9613C8.65399 15.9613 8.65399 15.9613 8.65399 15.9613C8.65399 15.9613 8.65399 15.9613 8.65399 15.9613C8.65399 15.9613 8.65399 15.9613 8.65399 15.9613C8.65399 15.9613 8.65399 15.9613 8.65399 15.9613C8.65399 15.9613 8.65399 15.9614 8.65399 15.9614C8.65399 15.9614 8.65399 15.9614 8.65399 15.9614C8.65399 15.9614 8.65399 15.9614 8.65399 15.9614C8.65399 15.9614 8.65399 15.9614 8.65399 15.9614C8.65399 15.9614 8.65399 15.9614 8.65399 15.9614C8.65399 15.9614 8.65399 15.9614 8.65399 15.9614C8.65399 15.9614 8.65399 15.9614 8.65399 15.9614C8.65399 15.9614 8.65399 15.9614 8.65399 15.9614C8.65399 15.9614 8.65399 15.9614 8.65399 15.9614C8.65399 15.9614 8.65399 15.9614 8.65399 15.9614C8.65399 15.9614 8.65399 15.9614 8.65399 15.9614C8.65399 15.9614 8.65399 15.9614 8.65399 15.9614C8.65399 15.9614 8.65399 15.9614 8.65399 15.9614C8.65399 15.9614 8.65399 15.9614 8.65399 15.9614C8.65399 15.9614 8.65399 15.9614 8.65399 15.9614C8.65399 15.9614 8.65399 15.9614 8.65399 15.9614C8.65399 15.9614 8.65399 15.9614 8.65399 15.9614C8.65399 15.9614 8.65399 15.9614 8.65399 15.9614C8.65399 15.9614 8.65399 15.9614 8.65399 15.9614C8.65399 15.9614 8.65399 15.9614 8.65399 15.9614C8.65399 15.9614 8.65399 15.9614 8.65399 15.9614C8.65399 15.9614 8.65399 15.9614 8.65399 15.9614C8.65399 15.9614 8.65399 15.9614 8.65399 15.9614C8.65399 15.9614 8.65399 15.9614 8.65399 15.9614C8.65399 15.9614 8.65399 15.9614 8.65399 15.9614C8.65399 15.9614 8.65399 15.9614 8.65399 15.9614C8.65399 15.9614 8.65399 15.9614 8.65399 15.9614C8.65399 15.9614 8.65399 15.9614 8.65399 15.9614C8.65399 15.9614 8.65399 15.9614 8.65399 15.9614C8.65399 15.9614 8.65399 15.9614 8.65399 15.9614C8.65399 15.9614 8.65399 15.9614 8.65399 15.9614C8.65399 15.9614 8.65399 15.9614 8.65399 15.9614C8.65399 15.9614 8.65399 15.9614 8.65399 15.9614C8.65399 15.9614 8.65399 15.9614 8.65399 15.9614C8.65399 15.9614 8.65399 15.9614 8.65399 15.9614C8.65399 15.9614 8.65399 15.9614 8.65399 15.9614C8.65399 15.9614 8.65399 15.9614 8.65399 15.9614C8.65399 15.9614 8.65399 15.9614 8.65399 15.9614C8.65399 15.9614 8.65399 15.9614 8.65399 15.9614C8.65399 15.9614 8.65399 15.9614 8.65399 15.9614C8.65399 15.9614 8.65399 15.9614 8.65399 15.9614C8.65399 15.9614 8.65399 15.9614 8.65399 15.9614C8.65399 15.9614 8.65399 15.9614 8.65399 15.9614C8.65399 15.9614 8.65399 15.9614 8.65399 15.9614C8.65399 15.9614 8.65399 15.9614 8.65399 15.9614C8.65399 15.9614 8.65399 15.9614 8.65399 15.9614C8.65399 15.9614 8.65399 15.9614 8.65399 15.9614C8.65399 15.9614 8.65399 15.9614 8.65399 15.9614C8.65399 15.9614 8.65399 15.9614 8.65399 15.9614C8.65399 15.9614 8.65399 15.9614 8.65399 15.9614C8.65399 15.9614 8.65399 15.9614 8.65399 15.9614C8.65399 15.9614 8.65399 15.9614 8.65399 15.9614C8.65399 15.9614 8.65399 15.9615 8.65399 15.9615C8.65399 15.9615 8.65399 15.9615 8.65399 15.9615C8.65399 15.9615 8.65399 15.9615 8.65399 15.9615C8.65399 15.9615 8.65399 15.9615 8.65399 15.9615C8.65399 15.9615 8.65399 15.9615 8.65399 15.9615C8.65399 15.9615 8.65399 15.9615 8.65399 15.9615C8.65399 15.9615 8.65399 15.9615 8.65399 15.9615C8.65399 15.9615 8.65399 15.9615 8.65399 15.9615C8.65399 15.9615 8.65399 15.9615 8.65399 15.9615C8.65399 15.9615 8.65399 15.9615 8.65399 15.9615C8.65399 15.9615 8.65399 15.9615 8.65399 15.9615C8.65399 15.9615 8.65399 15.9615 8.65399 15.9615C8.65399 15.9615 8.65399 15.9615 8.65399 15.9615C8.65399 15.9615 8.65399 15.9615 8.65399 15.9615C8.65399 15.9615 8.65399 15.9615 8.65399 15.9615C8.65399 15.9615 8.65399 15.9615 8.65399 15.9615C8.65399 15.9615 8.65399 15.9615 8.65399 15.9615C8.65399 15.9615 8.65399 15.9615 8.65399 15.9615C8.65399 15.9615 8.65399 15.9615 8.65399 15.9615C8.65399 15.9615 8.65399 15.9615 8.65399 15.9615C8.65399 15.9615 8.65399 15.9615 8.65399 15.9615C8.65399 15.9615 8.65399 15.9615 8.65399 15.9615C8.65399 15.9615 8.65399 15.9615 8.65399 15.9615C8.65399 15.9615 8.65399 15.9615 8.65399 15.9615C8.65399 15.9615 8.65399 15.9615 8.65399 15.9615C8.65399 15.9615 8.65399 15.9615 8.65399 15.9615C8.65399 15.9615 8.65399 15.9615 8.65399 15.9615C8.65399 15.9615 8.65399 15.9615 8.65399 15.9615C8.65399 15.9615 8.65399 15.9615 8.65399 15.9615C8.65399 15.9615 8.65399 15.9615 8.65399 15.9615C8.65399 15.9615 8.65399 15.9615 8.65399 15.9615C8.65399 15.9615 8.65399 15.9615 8.65399 15.9615C8.65399 15.9615 8.65399 15.9615 8.65399 15.9615C8.65399 15.9615 8.65399 15.9615 8.65399 15.9615C8.65399 15.9615 8.65399 15.9615 8.65399 15.9615C8.65399 15.9615 8.65399 15.9615 8.65399 15.9615C8.65399 15.9615 8.65399 15.9615 8.65399 15.9615C8.65399 15.9615 8.65399 15.9615 8.65399 15.9615C8.65399 15.9615 8.65399 15.9615 8.65399 15.9615C8.65399 15.9615 8.65399 15.9615 8.65399 15.9615C8.65399 15.9615 8.65399 15.9615 8.65399 15.9615C8.65399 15.9615 8.65399 15.9615 8.65399 15.9615C8.65399 15.9615 8.65399 15.9615 8.65399 15.9615C8.65399 15.9615 8.65399 15.9615 8.65399 15.9615C8.65399 15.9615 8.65399 15.9615 8.65399 15.9615C8.65399 15.9615 8.65399 15.9615 8.65399 15.9615C8.65399 15.9615 8.65399 15.9615 8.65399 15.9615C8.65399 15.9615 8.65399 15.9615 8.65399 15.9615C8.65399 15.9615 8.65399 15.9615 8.65399 15.9615C8.65399 15.9615 8.65399 15.9615 8.65399 15.9615C8.65399 15.9615 8.65399 15.9615 8.65399 15.9615C8.65399 15.9615 8.65399 15.9615 8.65399 15.9615C8.65399 15.9615 8.65399 15.9616 8.65399 15.9616C8.65399 15.9616 8.65399 15.9616 8.65399 15.9616C8.65399 15.9616 8.65399 15.9616 8.65399 15.9616C8.65399 15.9616 8.65399 15.9616 8.65399 15.9616C8.65399 15.9616 8.65399 15.9616 8.65399 15.9616C8.65399 15.9616 8.65399 15.9616 8.65399 15.9616C8.65399 15.9616 8.65399 15.9616 8.65399 15.9616C8.65399 15.9616 8.65399 15.9616 8.65399 15.9616C8.65399 15.9616 8.65399 15.9616 8.65399 15.9616C8.65399 15.9616 8.65399 15.9616 8.65399 15.9616C8.65399 15.9616 8.65399 15.9616 8.65399 15.9616C8.65399 15.9616 8.65399 15.9616 8.65399 15.9616C8.65399 15.9616 8.65399 15.9616 8.65399 15.9616C8.65399 15.9616 8.65399 15.9616 8.65399 15.9616C8.65399 15.9616 8.65399 15.9616 8.65399 15.9616C8.65399 15.9616 8.65399 15.9616 8.65399 15.9616C8.65399 15.9616 8.65399 15.9616 8.65399 15.9616C8.65399 15.9616 8.65399 15.9616 8.65399 15.9616C8.65399 15.9616 8.65399 15.9616 8.65399 15.9616C8.65399 15.9616 8.65399 15.9616 8.65399 15.9616C8.65399 15.9616 8.65399 15.9616 8.65399 15.9616C8.65399 15.9616 8.65399 15.9616 8.65399 15.9616C8.65399 15.9616 8.65399 15.9616 8.65399 15.9616C8.65399 15.9616 8.65399 15.9616 8.65399 15.9616C8.65399 15.9616 8.65399 15.9616 8.65399 15.9616C8.65399 15.9616 8.65399 15.9616 8.65399 15.9616C8.65399 15.9616 8.65399 15.9616 8.65399 15.9616C8.65399 15.9616 8.65399 15.9616 8.65399 15.9616C8.65399 15.9616 8.65399 15.9616 8.65399 15.9616C8.65399 15.9616 8.65399 15.9616 8.65399 15.9616C8.65399 15.9616 8.65399 15.9616 8.65399 15.9616C8.65399 15.9616 8.65399 15.9616 8.65399 15.9616C8.65399 15.9616 8.65399 15.9616 8.65399 15.9616C8.65399 15.9616 8.65399 15.9616 8.65399 15.9616C8.65399 15.9616 8.65399 15.9616 8.65399 15.9616C8.65399 15.9616 8.65399 15.9616 8.65399 15.9616C8.65399 15.9616 8.65399 15.9616 8.65399 15.9616C8.65399 15.9616 8.65399 15.9616 8.65399 15.9616C8.65399 15.9616 8.65399 15.9616 8.65399 15.9616C8.65399 15.9616 8.65399 15.9616 8.65399 15.9616C8.65399 15.9616 8.65399 15.9616 8.65399 15.9616C8.65399 15.9616 8.65399 15.9616 8.65399 15.9616C8.65399 15.9616 8.65399 15.9616 8.65399 15.9616C8.65399 15.9616 8.65399 15.9616 8.65399 15.9616C8.65399 15.9616 8.65399 15.9616 8.65399 15.9616C8.65399 15.9616 8.65399 15.9616 8.65399 15.9616C8.65399 15.9616 8.65399 15.9616 8.65399 15.9616C8.65399 15.9616 8.65399 15.9616 8.65399 15.9616C8.65399 15.9616 8.65399 15.9616 8.65399 15.9616C8.65399 15.9616 8.65399 15.9616 8.65399 15.9616C8.65399 15.9616 8.65399 15.9616 8.65399 15.9616C8.65399 15.9616 8.65399 15.9616 8.65399 15.9616C8.65399 15.9616 8.65399 15.9617 8.65399 15.9617C8.65399 15.9617 8.65399 15.9617 8.65399 15.9617C8.65399 15.9617 8.65399 15.9617 8.65399 15.9617C8.65399 15.9617 8.65399 15.9617 8.65399 15.9617C8.65399 15.9617 8.65399 15.9617 8.65399 15.9617C8.65399 15.9617 8.65399 15.9617 8.65399 15.9617C8.65399 15.9617 8.65399 15.9617 8.65399 15.9617C8.65399 15.9617 8.65399 15.9617 8.65399 15.9617C8.65399 15.9617 8.65399 15.9617 8.65399 15.9617C8.65399 15.9617 8.65399 15.9617 8.65399 15.9617C8.65399 15.9617 8.65399 15.9617 8.65399 15.9617C8.65399 15.9617 8.65399 15.9617 8.65399 15.9617C8.65399 15.9617 8.65399 15.9617 8.65399 15.9617C8.65399 15.9617 8.65399 15.9617 8.65399 15.9617C8.65399 15.9617 8.65399 15.9617 8.65399 15.9617C8.65399 15.9617 8.65399 15.9617 8.65399 15.9617C8.65399 15.9617 8.65399 15.9617 8.65399 15.9617C8.65399 15.9617 8.65399 15.9617 8.65399 15.9617C8.65399 15.9617 8.65399 15.9617 8.65399 15.9617C8.65399 15.9617 8.65399 15.9617 8.65399 15.9617C8.65399 15.9617 8.65399 15.9617 8.65399 15.9617C8.65399 15.9617 8.65399 15.9617 8.65399 15.9617C8.65399 15.9617 8.65399 15.9617 8.65399 15.9617C8.65399 15.9617 8.65399 15.9617 8.65399 15.9617C8.65399 15.9617 8.65399 15.9617 8.65399 15.9617C8.65399 15.9617 8.65399 15.9617 8.65399 15.9617C8.65399 15.9617 8.65399 15.9617 8.65399 15.9617C8.65399 15.9617 8.65399 15.9617 8.65399 15.9617C8.65399 15.9617 8.65399 15.9617 8.65399 15.9617C8.65399 15.9617 8.65399 15.9617 8.65399 15.9617C8.65399 15.9617 8.65399 15.9617 8.65399 15.9617C8.65399 15.9617 8.65399 15.9617 8.65399 15.9617C8.65399 15.9617 8.65399 15.9617 8.65399 15.9617C8.65399 15.9617 8.65399 15.9617 8.65399 15.9617C8.65399 15.9617 8.65399 15.9617 8.65399 15.9617C8.65399 15.9617 8.65399 15.9617 8.65399 15.9617C8.65399 15.9617 8.65399 15.9617 8.65399 15.9617C8.65399 15.9617 8.65399 15.9617 8.65399 15.9617C8.65399 15.9617 8.65399 15.9617 8.65399 15.9617C8.65399 15.9617 8.65399 15.9617 8.65399 15.9617C8.65399 15.9617 8.65399 15.9617 8.65399 15.9617C8.65399 15.9617 8.65399 15.9617 8.65399 15.9617C8.65399 15.9617 8.65399 15.9617 8.65399 15.9617C8.65399 15.9617 8.65399 15.9617 8.65399 15.9617C8.65399 15.9617 8.65399 15.9617 8.65399 15.9617C8.65399 15.9617 8.65399 15.9617 8.65399 15.9617C8.65399 15.9617 8.65399 15.9617 8.65399 15.9617C8.65399 15.9617 8.65399 15.9617 8.65399 15.9617C8.65399 15.9617 8.65399 15.9617 8.65399 15.9617C8.65399 15.9617 8.65399 15.9617 8.65399 15.9617C8.65399 15.9617 8.65399 15.9617 8.65399 15.9617C8.65399 15.9617 8.65399 15.9617 8.65399 15.9617C8.65399 15.9617 8.65399 15.9618 8.65399 15.9618C8.65399 15.9618 8.65399 15.9618 8.65399 15.9618C8.65399 15.9618 8.65399 15.9618 8.65399 15.9618C8.65399 15.9618 8.65399 15.9618 8.65399 15.9618C8.65399 15.9618 8.65399 15.9618 8.65399 15.9618C8.65399 15.9618 8.65399 15.9618 8.65399 15.9618C8.65399 15.9618 8.65399 15.9618 8.65399 15.9618C8.65399 15.9618 8.65399 15.9618 8.65399 15.9618C8.65399 15.9618 8.65399 15.9618 8.65399 15.9618C8.65399 15.9618 8.65399 15.9618 8.65399 15.9618C8.65399 15.9618 8.65399 15.9618 8.65399 15.9618C8.65399 15.9618 8.65399 15.9618 8.65399 15.9618C8.65399 15.9618 8.65399 15.9618 8.65399 15.9618C8.65399 15.9618 8.65399 15.9618 8.65399 15.9618C8.65399 15.9618 8.65399 15.9618 8.65399 15.9618C8.65399 15.9618 8.65399 15.9618 8.65399 15.9618C8.65399 15.9618 8.65399 15.9618 8.65399 15.9618C8.65399 15.9618 8.65399 15.9618 8.65399 15.9618C8.65399 15.9618 8.65399 15.9618 8.65399 15.9618C8.65399 15.9618 8.65399 15.9618 8.65399 15.9618C8.65399 15.9618 8.65399 15.9618 8.65399 15.9618C8.65399 15.9618 8.65399 15.9618 8.65399 15.9618C8.65399 15.9618 8.65399 15.9618 8.65399 15.9618C8.65399 15.9618 8.65399 15.9618 8.65399 15.9618C8.65399 15.9618 8.65399 15.9618 8.65399 15.9618C8.65399 15.9618 8.65399 15.9618 8.65399 15.9618C8.65399 15.9618 8.65399 15.9618 8.65399 15.9618C8.65399 15.9618 8.65399 15.9618 8.65399 15.9618C8.65399 15.9618 8.65399 15.9618 8.65399 15.9618C8.65399 15.9618 8.65399 15.9618 8.65399 15.9618C8.65399 15.9618 8.65399 15.9618 8.65399 15.9618C8.65399 15.9618 8.65399 15.9618 8.65399 15.9618C8.65399 15.9618 8.65399 15.9618 8.65399 15.9618C8.65399 15.9618 8.65399 15.9618 8.65399 15.9618C8.65399 15.9618 8.65399 15.9618 8.65399 15.9618C8.65399 15.9618 8.65399 15.9618 8.65399 15.9618C8.65399 15.9618 8.65399 15.9618 8.65399 15.9618C8.65399 15.9618 8.65399 15.9618 8.65399 15.9618C8.65399 15.9618 8.65399 15.9618 8.65399 15.9618C8.65399 15.9618 8.65399 15.9618 8.65399 15.9618C8.65399 15.9618 8.65399 15.9618 8.65399 15.9618C8.65399 15.9618 8.65399 15.9618 8.65399 15.9618C8.65399 15.9618 8.65399 15.9618 8.65399 15.9618C8.65399 15.9618 8.65399 15.9618 8.65399 15.9618C8.65399 15.9618 8.65399 15.9618 8.65399 15.9618C8.65399 15.9618 8.65399 15.9618 8.65399 15.9618C8.65399 15.9618 8.65399 15.9618 8.65399 15.9618C8.65399 15.9618 8.65399 15.9618 8.65399 15.9618C8.65399 15.9618 8.65399 15.9618 8.65399 15.9618C8.65399 15.9618 8.65399 15.9618 8.65399 15.9618C8.65399 15.9618 8.65399 15.9618 8.65399 15.9618C8.65399 15.9618 8.65399 15.9618 8.65399 15.9618C8.65399 15.9618 8.65399 15.9619 8.65399 15.9619C8.65399 15.9619 8.65399 15.9619 8.65399 15.9619C8.65399 15.9619 8.65399 15.9619 8.65399 15.9619C8.65399 15.9619 8.65399 15.9619 8.65399 15.9619C8.65399 15.9619 8.65399 15.9619 8.65399 15.9619C8.65399 15.9619 8.65399 15.9619 8.65399 15.9619C8.65399 15.9619 8.65399 15.9619 8.65399 15.9619C8.65399 15.9619 8.65399 15.9619 8.65399 15.9619C8.65399 15.9619 8.65399 15.9619 8.65399 15.9619C8.65399 15.9619 8.65399 15.9619 8.65399 15.9619C8.65399 15.9619 8.65399 15.9619 8.65399 15.9619C8.65399 15.9619 8.65399 15.9619 8.65399 15.9619C8.65399 15.9619 8.65399 15.9619 8.65399 15.9619C8.65399 15.9619 8.65399 15.9619 8.65399 15.9619C8.65399 15.9619 8.65399 15.9619 8.65399 15.9619C8.65399 15.9619 8.65399 15.9619 8.65399 15.9619C8.65399 15.9619 8.65399 15.9619 8.65399 15.9619C8.65399 15.9619 8.65399 15.9619 8.65399 15.9619C8.65399 15.9619 8.65399 15.9619 8.65399 15.9619C8.65399 15.9619 8.65399 15.9619 8.65399 15.9619C8.65399 15.9619 8.65399 15.9619 8.65399 15.9619C8.65399 15.9619 8.65399 15.9619 8.65399 15.9619C8.65399 15.9619 8.65399 15.9619 8.65399 15.9619C8.65399 15.9619 8.65399 15.9619 8.65399 15.9619C8.65399 15.9619 8.65399 15.9619 8.65399 15.9619C8.65399 15.9619 8.65399 15.9619 8.65399 15.9619C8.65399 15.9619 8.65399 15.9619 8.65399 15.9619C8.65399 15.9619 8.65399 15.9619 8.65399 15.9619C8.65399 15.9619 8.65399 15.9619 8.65399 15.9619C8.65399 15.9619 8.65399 15.9619 8.65399 15.9619C8.65399 15.9619 8.65399 15.9619 8.65399 15.9619C8.65399 15.9619 8.65399 15.9619 8.65399 15.9619H10.154C10.154 15.9619 10.154 15.9619 10.154 15.9619C10.154 15.9619 10.154 15.9619 10.154 15.9619C10.154 15.9619 10.154 15.9619 10.154 15.9619C10.154 15.9619 10.154 15.9619 10.154 15.9619C10.154 15.9619 10.154 15.9619 10.154 15.9619C10.154 15.9619 10.154 15.9619 10.154 15.9619C10.154 15.9619 10.154 15.9619 10.154 15.9619C10.154 15.9619 10.154 15.9619 10.154 15.9619C10.154 15.9619 10.154 15.9619 10.154 15.9619C10.154 15.9619 10.154 15.9619 10.154 15.9619C10.154 15.9619 10.154 15.9619 10.154 15.9619C10.154 15.9619 10.154 15.9619 10.154 15.9619C10.154 15.9619 10.154 15.9619 10.154 15.9619C10.154 15.9619 10.154 15.9619 10.154 15.9619C10.154 15.9619 10.154 15.9619 10.154 15.9619C10.154 15.9619 10.154 15.9619 10.154 15.9619C10.154 15.9619 10.154 15.9619 10.154 15.9619C10.154 15.9619 10.154 15.9619 10.154 15.9619C10.154 15.9619 10.154 15.9619 10.154 15.9619C10.154 15.9619 10.154 15.9619 10.154 15.9619C10.154 15.9619 10.154 15.9619 10.154 15.9619C10.154 15.9619 10.154 15.9619 10.154 15.9619C10.154 15.9619 10.154 15.9619 10.154 15.9619C10.154 15.9619 10.154 15.9619 10.154 15.9619C10.154 15.9619 10.154 15.9619 10.154 15.9619C10.154 15.9619 10.154 15.9619 10.154 15.9619C10.154 15.9619 10.154 15.9619 10.154 15.9619C10.154 15.9619 10.154 15.9619 10.154 15.9619C10.154 15.9619 10.154 15.9619 10.154 15.9619C10.154 15.9619 10.154 15.9619 10.154 15.9619C10.154 15.9619 10.154 15.9619 10.154 15.9619C10.154 15.9619 10.154 15.9618 10.154 15.9618C10.154 15.9618 10.154 15.9618 10.154 15.9618C10.154 15.9618 10.154 15.9618 10.154 15.9618C10.154 15.9618 10.154 15.9618 10.154 15.9618C10.154 15.9618 10.154 15.9618 10.154 15.9618C10.154 15.9618 10.154 15.9618 10.154 15.9618C10.154 15.9618 10.154 15.9618 10.154 15.9618C10.154 15.9618 10.154 15.9618 10.154 15.9618C10.154 15.9618 10.154 15.9618 10.154 15.9618C10.154 15.9618 10.154 15.9618 10.154 15.9618C10.154 15.9618 10.154 15.9618 10.154 15.9618C10.154 15.9618 10.154 15.9618 10.154 15.9618C10.154 15.9618 10.154 15.9618 10.154 15.9618C10.154 15.9618 10.154 15.9618 10.154 15.9618C10.154 15.9618 10.154 15.9618 10.154 15.9618C10.154 15.9618 10.154 15.9618 10.154 15.9618C10.154 15.9618 10.154 15.9618 10.154 15.9618C10.154 15.9618 10.154 15.9618 10.154 15.9618C10.154 15.9618 10.154 15.9618 10.154 15.9618C10.154 15.9618 10.154 15.9618 10.154 15.9618C10.154 15.9618 10.154 15.9618 10.154 15.9618C10.154 15.9618 10.154 15.9618 10.154 15.9618C10.154 15.9618 10.154 15.9618 10.154 15.9618C10.154 15.9618 10.154 15.9618 10.154 15.9618C10.154 15.9618 10.154 15.9618 10.154 15.9618C10.154 15.9618 10.154 15.9618 10.154 15.9618C10.154 15.9618 10.154 15.9618 10.154 15.9618C10.154 15.9618 10.154 15.9618 10.154 15.9618C10.154 15.9618 10.154 15.9618 10.154 15.9618C10.154 15.9618 10.154 15.9618 10.154 15.9618C10.154 15.9618 10.154 15.9618 10.154 15.9618C10.154 15.9618 10.154 15.9618 10.154 15.9618C10.154 15.9618 10.154 15.9618 10.154 15.9618C10.154 15.9618 10.154 15.9618 10.154 15.9618C10.154 15.9618 10.154 15.9618 10.154 15.9618C10.154 15.9618 10.154 15.9618 10.154 15.9618C10.154 15.9618 10.154 15.9618 10.154 15.9618C10.154 15.9618 10.154 15.9618 10.154 15.9618C10.154 15.9618 10.154 15.9618 10.154 15.9618C10.154 15.9618 10.154 15.9618 10.154 15.9618C10.154 15.9618 10.154 15.9618 10.154 15.9618C10.154 15.9618 10.154 15.9618 10.154 15.9618C10.154 15.9618 10.154 15.9618 10.154 15.9618C10.154 15.9618 10.154 15.9618 10.154 15.9618C10.154 15.9618 10.154 15.9618 10.154 15.9618C10.154 15.9618 10.154 15.9618 10.154 15.9618C10.154 15.9618 10.154 15.9618 10.154 15.9618C10.154 15.9618 10.154 15.9618 10.154 15.9618C10.154 15.9618 10.154 15.9618 10.154 15.9618C10.154 15.9618 10.154 15.9618 10.154 15.9618C10.154 15.9618 10.154 15.9618 10.154 15.9618C10.154 15.9618 10.154 15.9618 10.154 15.9618C10.154 15.9618 10.154 15.9617 10.154 15.9617C10.154 15.9617 10.154 15.9617 10.154 15.9617C10.154 15.9617 10.154 15.9617 10.154 15.9617C10.154 15.9617 10.154 15.9617 10.154 15.9617C10.154 15.9617 10.154 15.9617 10.154 15.9617C10.154 15.9617 10.154 15.9617 10.154 15.9617C10.154 15.9617 10.154 15.9617 10.154 15.9617C10.154 15.9617 10.154 15.9617 10.154 15.9617C10.154 15.9617 10.154 15.9617 10.154 15.9617C10.154 15.9617 10.154 15.9617 10.154 15.9617C10.154 15.9617 10.154 15.9617 10.154 15.9617C10.154 15.9617 10.154 15.9617 10.154 15.9617C10.154 15.9617 10.154 15.9617 10.154 15.9617C10.154 15.9617 10.154 15.9617 10.154 15.9617C10.154 15.9617 10.154 15.9617 10.154 15.9617C10.154 15.9617 10.154 15.9617 10.154 15.9617C10.154 15.9617 10.154 15.9617 10.154 15.9617C10.154 15.9617 10.154 15.9617 10.154 15.9617C10.154 15.9617 10.154 15.9617 10.154 15.9617C10.154 15.9617 10.154 15.9617 10.154 15.9617C10.154 15.9617 10.154 15.9617 10.154 15.9617C10.154 15.9617 10.154 15.9617 10.154 15.9617C10.154 15.9617 10.154 15.9617 10.154 15.9617C10.154 15.9617 10.154 15.9617 10.154 15.9617C10.154 15.9617 10.154 15.9617 10.154 15.9617C10.154 15.9617 10.154 15.9617 10.154 15.9617C10.154 15.9617 10.154 15.9617 10.154 15.9617C10.154 15.9617 10.154 15.9617 10.154 15.9617C10.154 15.9617 10.154 15.9617 10.154 15.9617C10.154 15.9617 10.154 15.9617 10.154 15.9617C10.154 15.9617 10.154 15.9617 10.154 15.9617C10.154 15.9617 10.154 15.9617 10.154 15.9617C10.154 15.9617 10.154 15.9617 10.154 15.9617C10.154 15.9617 10.154 15.9617 10.154 15.9617C10.154 15.9617 10.154 15.9617 10.154 15.9617C10.154 15.9617 10.154 15.9617 10.154 15.9617C10.154 15.9617 10.154 15.9617 10.154 15.9617C10.154 15.9617 10.154 15.9617 10.154 15.9617C10.154 15.9617 10.154 15.9617 10.154 15.9617C10.154 15.9617 10.154 15.9617 10.154 15.9617C10.154 15.9617 10.154 15.9617 10.154 15.9617C10.154 15.9617 10.154 15.9617 10.154 15.9617C10.154 15.9617 10.154 15.9617 10.154 15.9617C10.154 15.9617 10.154 15.9617 10.154 15.9617C10.154 15.9617 10.154 15.9617 10.154 15.9617C10.154 15.9617 10.154 15.9617 10.154 15.9617C10.154 15.9617 10.154 15.9617 10.154 15.9617C10.154 15.9617 10.154 15.9617 10.154 15.9617C10.154 15.9617 10.154 15.9617 10.154 15.9617C10.154 15.9617 10.154 15.9617 10.154 15.9617C10.154 15.9617 10.154 15.9617 10.154 15.9617C10.154 15.9617 10.154 15.9617 10.154 15.9617C10.154 15.9617 10.154 15.9616 10.154 15.9616C10.154 15.9616 10.154 15.9616 10.154 15.9616C10.154 15.9616 10.154 15.9616 10.154 15.9616C10.154 15.9616 10.154 15.9616 10.154 15.9616C10.154 15.9616 10.154 15.9616 10.154 15.9616C10.154 15.9616 10.154 15.9616 10.154 15.9616C10.154 15.9616 10.154 15.9616 10.154 15.9616C10.154 15.9616 10.154 15.9616 10.154 15.9616C10.154 15.9616 10.154 15.9616 10.154 15.9616C10.154 15.9616 10.154 15.9616 10.154 15.9616C10.154 15.9616 10.154 15.9616 10.154 15.9616C10.154 15.9616 10.154 15.9616 10.154 15.9616C10.154 15.9616 10.154 15.9616 10.154 15.9616C10.154 15.9616 10.154 15.9616 10.154 15.9616C10.154 15.9616 10.154 15.9616 10.154 15.9616C10.154 15.9616 10.154 15.9616 10.154 15.9616C10.154 15.9616 10.154 15.9616 10.154 15.9616C10.154 15.9616 10.154 15.9616 10.154 15.9616C10.154 15.9616 10.154 15.9616 10.154 15.9616C10.154 15.9616 10.154 15.9616 10.154 15.9616C10.154 15.9616 10.154 15.9616 10.154 15.9616C10.154 15.9616 10.154 15.9616 10.154 15.9616C10.154 15.9616 10.154 15.9616 10.154 15.9616C10.154 15.9616 10.154 15.9616 10.154 15.9616C10.154 15.9616 10.154 15.9616 10.154 15.9616C10.154 15.9616 10.154 15.9616 10.154 15.9616C10.154 15.9616 10.154 15.9616 10.154 15.9616C10.154 15.9616 10.154 15.9616 10.154 15.9616C10.154 15.9616 10.154 15.9616 10.154 15.9616C10.154 15.9616 10.154 15.9616 10.154 15.9616C10.154 15.9616 10.154 15.9616 10.154 15.9616C10.154 15.9616 10.154 15.9616 10.154 15.9616C10.154 15.9616 10.154 15.9616 10.154 15.9616C10.154 15.9616 10.154 15.9616 10.154 15.9616C10.154 15.9616 10.154 15.9616 10.154 15.9616C10.154 15.9616 10.154 15.9616 10.154 15.9616C10.154 15.9616 10.154 15.9616 10.154 15.9616C10.154 15.9616 10.154 15.9616 10.154 15.9616C10.154 15.9616 10.154 15.9616 10.154 15.9616C10.154 15.9616 10.154 15.9616 10.154 15.9616C10.154 15.9616 10.154 15.9616 10.154 15.9616C10.154 15.9616 10.154 15.9616 10.154 15.9616C10.154 15.9616 10.154 15.9616 10.154 15.9616C10.154 15.9616 10.154 15.9616 10.154 15.9616C10.154 15.9616 10.154 15.9616 10.154 15.9616C10.154 15.9616 10.154 15.9616 10.154 15.9616C10.154 15.9616 10.154 15.9616 10.154 15.9616C10.154 15.9616 10.154 15.9616 10.154 15.9616C10.154 15.9616 10.154 15.9616 10.154 15.9616C10.154 15.9616 10.154 15.9616 10.154 15.9616C10.154 15.9616 10.154 15.9616 10.154 15.9616C10.154 15.9616 10.154 15.9616 10.154 15.9616C10.154 15.9616 10.154 15.9615 10.154 15.9615C10.154 15.9615 10.154 15.9615 10.154 15.9615C10.154 15.9615 10.154 15.9615 10.154 15.9615C10.154 15.9615 10.154 15.9615 10.154 15.9615C10.154 15.9615 10.154 15.9615 10.154 15.9615C10.154 15.9615 10.154 15.9615 10.154 15.9615C10.154 15.9615 10.154 15.9615 10.154 15.9615C10.154 15.9615 10.154 15.9615 10.154 15.9615C10.154 15.9615 10.154 15.9615 10.154 15.9615C10.154 15.9615 10.154 15.9615 10.154 15.9615C10.154 15.9615 10.154 15.9615 10.154 15.9615C10.154 15.9615 10.154 15.9615 10.154 15.9615C10.154 15.9615 10.154 15.9615 10.154 15.9615C10.154 15.9615 10.154 15.9615 10.154 15.9615C10.154 15.9615 10.154 15.9615 10.154 15.9615C10.154 15.9615 10.154 15.9615 10.154 15.9615C10.154 15.9615 10.154 15.9615 10.154 15.9615C10.154 15.9615 10.154 15.9615 10.154 15.9615C10.154 15.9615 10.154 15.9615 10.154 15.9615C10.154 15.9615 10.154 15.9615 10.154 15.9615C10.154 15.9615 10.154 15.9615 10.154 15.9615C10.154 15.9615 10.154 15.9615 10.154 15.9615C10.154 15.9615 10.154 15.9615 10.154 15.9615C10.154 15.9615 10.154 15.9615 10.154 15.9615C10.154 15.9615 10.154 15.9615 10.154 15.9615C10.154 15.9615 10.154 15.9615 10.154 15.9615C10.154 15.9615 10.154 15.9615 10.154 15.9615C10.154 15.9615 10.154 15.9615 10.154 15.9615C10.154 15.9615 10.154 15.9615 10.154 15.9615C10.154 15.9615 10.154 15.9615 10.154 15.9615C10.154 15.9615 10.154 15.9615 10.154 15.9615C10.154 15.9615 10.154 15.9615 10.154 15.9615C10.154 15.9615 10.154 15.9615 10.154 15.9615C10.154 15.9615 10.154 15.9615 10.154 15.9615C10.154 15.9615 10.154 15.9615 10.154 15.9615C10.154 15.9615 10.154 15.9615 10.154 15.9615C10.154 15.9615 10.154 15.9615 10.154 15.9615C10.154 15.9615 10.154 15.9615 10.154 15.9615C10.154 15.9615 10.154 15.9615 10.154 15.9615C10.154 15.9615 10.154 15.9615 10.154 15.9615C10.154 15.9615 10.154 15.9615 10.154 15.9615C10.154 15.9615 10.154 15.9615 10.154 15.9615C10.154 15.9615 10.154 15.9615 10.154 15.9615C10.154 15.9615 10.154 15.9615 10.154 15.9615C10.154 15.9615 10.154 15.9615 10.154 15.9615C10.154 15.9615 10.154 15.9615 10.154 15.9615C10.154 15.9615 10.154 15.9615 10.154 15.9615C10.154 15.9615 10.154 15.9615 10.154 15.9615C10.154 15.9615 10.154 15.9615 10.154 15.9615C10.154 15.9615 10.154 15.9615 10.154 15.9615C10.154 15.9615 10.154 15.9615 10.154 15.9615C10.154 15.9615 10.154 15.9615 10.154 15.9615C10.154 15.9615 10.154 15.9614 10.154 15.9614C10.154 15.9614 10.154 15.9614 10.154 15.9614C10.154 15.9614 10.154 15.9614 10.154 15.9614C10.154 15.9614 10.154 15.9614 10.154 15.9614C10.154 15.9614 10.154 15.9614 10.154 15.9614C10.154 15.9614 10.154 15.9614 10.154 15.9614C10.154 15.9614 10.154 15.9614 10.154 15.9614C10.154 15.9614 10.154 15.9614 10.154 15.9614C10.154 15.9614 10.154 15.9614 10.154 15.9614C10.154 15.9614 10.154 15.9614 10.154 15.9614C10.154 15.9614 10.154 15.9614 10.154 15.9614C10.154 15.9614 10.154 15.9614 10.154 15.9614C10.154 15.9614 10.154 15.9614 10.154 15.9614C10.154 15.9614 10.154 15.9614 10.154 15.9614C10.154 15.9614 10.154 15.9614 10.154 15.9614C10.154 15.9614 10.154 15.9614 10.154 15.9614C10.154 15.9614 10.154 15.9614 10.154 15.9614C10.154 15.9614 10.154 15.9614 10.154 15.9614C10.154 15.9614 10.154 15.9614 10.154 15.9614C10.154 15.9614 10.154 15.9614 10.154 15.9614C10.154 15.9614 10.154 15.9614 10.154 15.9614C10.154 15.9614 10.154 15.9614 10.154 15.9614C10.154 15.9614 10.154 15.9614 10.154 15.9614C10.154 15.9614 10.154 15.9614 10.154 15.9614C10.154 15.9614 10.154 15.9614 10.154 15.9614C10.154 15.9614 10.154 15.9614 10.154 15.9614C10.154 15.9614 10.154 15.9614 10.154 15.9614C10.154 15.9614 10.154 15.9614 10.154 15.9614C10.154 15.9614 10.154 15.9614 10.154 15.9614C10.154 15.9614 10.154 15.9614 10.154 15.9614C10.154 15.9614 10.154 15.9614 10.154 15.9614C10.154 15.9614 10.154 15.9614 10.154 15.9614C10.154 15.9614 10.154 15.9614 10.154 15.9614C10.154 15.9614 10.154 15.9614 10.154 15.9614C10.154 15.9614 10.154 15.9614 10.154 15.9614C10.154 15.9614 10.154 15.9614 10.154 15.9614C10.154 15.9614 10.154 15.9614 10.154 15.9614C10.154 15.9614 10.154 15.9614 10.154 15.9614C10.154 15.9614 10.154 15.9614 10.154 15.9614C10.154 15.9614 10.154 15.9614 10.154 15.9614C10.154 15.9614 10.154 15.9614 10.154 15.9614C10.154 15.9614 10.154 15.9614 10.154 15.9614C10.154 15.9614 10.154 15.9614 10.154 15.9614C10.154 15.9614 10.154 15.9614 10.154 15.9614C10.154 15.9614 10.154 15.9614 10.154 15.9614C10.154 15.9614 10.154 15.9614 10.154 15.9614C10.154 15.9614 10.154 15.9614 10.154 15.9614C10.154 15.9614 10.154 15.9614 10.154 15.9614C10.154 15.9614 10.154 15.9614 10.154 15.9614C10.154 15.9614 10.154 15.9614 10.154 15.9614C10.154 15.9614 10.154 15.9614 10.154 15.9614C10.154 15.9614 10.154 15.9614 10.154 15.9614C10.154 15.9614 10.154 15.9613 10.154 15.9613C10.154 15.9613 10.154 15.9613 10.154 15.9613C10.154 15.9613 10.154 15.9613 10.154 15.9613C10.154 15.9613 10.154 15.9613 10.154 15.9613C10.154 15.9613 10.154 15.9613 10.154 15.9613C10.154 15.9613 10.154 15.9613 10.154 15.9613C10.154 15.9613 10.154 15.9613 10.154 15.9613C10.154 15.9613 10.154 15.9613 10.154 15.9613C10.154 15.9613 10.154 15.9613 10.154 15.9613C10.154 15.9613 10.154 15.9613 10.154 15.9613C10.154 15.9613 10.154 15.9613 10.154 15.9613C10.154 15.9613 10.154 15.9613 10.154 15.9613C10.154 15.9613 10.154 15.9613 10.154 15.9613C10.154 15.9613 10.154 15.9613 10.154 15.9613C10.154 15.9613 10.154 15.9613 10.154 15.9613C10.154 15.9613 10.154 15.9613 10.154 15.9613C10.154 15.9613 10.154 15.9613 10.154 15.9613C10.154 15.9613 10.154 15.9613 10.154 15.9613C10.154 15.9613 10.154 15.9613 10.154 15.9613C10.154 15.9613 10.154 15.9613 10.154 15.9613C10.154 15.9613 10.154 15.9613 10.154 15.9613C10.154 15.9613 10.154 15.9613 10.154 15.9613C10.154 15.9613 10.154 15.9613 10.154 15.9613C10.154 15.9613 10.154 15.9613 10.154 15.9613C10.154 15.9613 10.154 15.9613 10.154 15.9613C10.154 15.9613 10.154 15.9613 10.154 15.9613C10.154 15.9613 10.154 15.9613 10.154 15.9613C10.154 15.9613 10.154 15.9613 10.154 15.9613C10.154 15.9613 10.154 15.9613 10.154 15.9613C10.154 15.9613 10.154 15.9613 10.154 15.9613C10.154 15.9613 10.154 15.9613 10.154 15.9613C10.154 15.9613 10.154 15.9613 10.154 15.9613C10.154 15.9613 10.154 15.9613 10.154 15.9613C10.154 15.9613 10.154 15.9613 10.154 15.9613C10.154 15.9613 10.154 15.9613 10.154 15.9613C10.154 15.9613 10.154 15.9613 10.154 15.9613C10.154 15.9613 10.154 15.9613 10.154 15.9613C10.154 15.9613 10.154 15.9613 10.154 15.9613C10.154 15.9613 10.154 15.9613 10.154 15.9613C10.154 15.9613 10.154 15.9613 10.154 15.9613C10.154 15.9613 10.154 15.9613 10.154 15.9613C10.154 15.9613 10.154 15.9613 10.154 15.9613C10.154 15.9613 10.154 15.9613 10.154 15.9613C10.154 15.9613 10.154 15.9613 10.154 15.9613C10.154 15.9613 10.154 15.9613 10.154 15.9613C10.154 15.9613 10.154 15.9613 10.154 15.9613C10.154 15.9613 10.154 15.9613 10.154 15.9613C10.154 15.9613 10.154 15.9613 10.154 15.9613C10.154 15.9613 10.154 15.9613 10.154 15.9613C10.154 15.9613 10.154 15.9613 10.154 15.9613C10.154 15.9613 10.154 15.9613 10.154 15.9613C10.154 15.9613 10.154 15.9613 10.154 15.9613C10.154 15.9613 10.154 15.9612 10.154 15.9612C10.154 15.9612 10.154 15.9612 10.154 15.9612C10.154 15.9612 10.154 15.9612 10.154 15.9612C10.154 15.9612 10.154 15.9612 10.154 15.9612C10.154 15.9612 10.154 15.9612 10.154 15.9612C10.154 15.9612 10.154 15.9612 10.154 15.9612C10.154 15.9612 10.154 15.9612 10.154 15.9612C10.154 15.9612 10.154 15.9612 10.154 15.9612C10.154 15.9612 10.154 15.9612 10.154 15.9612C10.154 15.9612 10.154 15.9612 10.154 15.9612C10.154 15.9612 10.154 15.9612 10.154 15.9612C10.154 15.9612 10.154 15.9612 10.154 15.9612C10.154 15.9612 10.154 15.9612 10.154 15.9612C10.154 15.9612 10.154 15.9612 10.154 15.9612C10.154 15.9612 10.154 15.9612 10.154 15.9612C10.154 15.9612 10.154 15.9612 10.154 15.9612C10.154 15.9612 10.154 15.9612 10.154 15.9612C10.154 15.9612 10.154 15.9612 10.154 15.9612C10.154 15.9612 10.154 15.9612 10.154 15.9612C10.154 15.9612 10.154 15.9612 10.154 15.9612C10.154 15.9612 10.154 15.9612 10.154 15.9612C10.154 15.9612 10.154 15.9612 10.154 15.9612C10.154 15.9612 10.154 15.9612 10.154 15.9612C10.154 15.9612 10.154 15.9612 10.154 15.9612C10.154 15.9612 10.154 15.9612 10.154 15.9612C10.154 15.9612 10.154 15.9612 10.154 15.9612C10.154 15.9612 10.154 15.9612 10.154 15.9612C10.154 15.9612 10.154 15.9612 10.154 15.9612C10.154 15.9612 10.154 15.9612 10.154 15.9612C10.154 15.9612 10.154 15.9612 10.154 15.9612C10.154 15.9612 10.154 15.9612 10.154 15.9612C10.154 15.9612 10.154 15.9612 10.154 15.9612C10.154 15.9612 10.154 15.9612 10.154 15.9612C10.154 15.9612 10.154 15.9612 10.154 15.9612C10.154 15.9612 10.154 15.9612 10.154 15.9612C10.154 15.9612 10.154 15.9612 10.154 15.9612C10.154 15.9612 10.154 15.9612 10.154 15.9612C10.154 15.9612 10.154 15.9612 10.154 15.9612C10.154 15.9612 10.154 15.9612 10.154 15.9612C10.154 15.9612 10.154 15.9612 10.154 15.9612C10.154 15.9612 10.154 15.9612 10.154 15.9612C10.154 15.9612 10.154 15.9612 10.154 15.9612C10.154 15.9612 10.154 15.9612 10.154 15.9612C10.154 15.9612 10.154 15.9612 10.154 15.9612C10.154 15.9612 10.154 15.9612 10.154 15.9612C10.154 15.9612 10.154 15.9612 10.154 15.9612C10.154 15.9612 10.154 15.9612 10.154 15.9612C10.154 15.9612 10.154 15.9612 10.154 15.9612C10.154 15.9612 10.154 15.9612 10.154 15.9612C10.154 15.9612 10.154 15.9612 10.154 15.9612C10.154 15.9612 10.154 15.9612 10.154 15.9612C10.154 15.9612 10.154 15.9612 10.154 15.9612C10.154 15.9612 10.154 15.9611 10.154 15.9611C10.154 15.9611 10.154 15.9611 10.154 15.9611C10.154 15.9611 10.154 15.9611 10.154 15.9611C10.154 15.9611 10.154 15.9611 10.154 15.9611C10.154 15.9611 10.154 15.9611 10.154 15.9611C10.154 15.9611 10.154 15.9611 10.154 15.9611C10.154 15.9611 10.154 15.9611 10.154 15.9611C10.154 15.9611 10.154 15.9611 10.154 15.9611C10.154 15.9611 10.154 15.9611 10.154 15.9611C10.154 15.9611 10.154 15.9611 10.154 15.9611C10.154 15.9611 10.154 15.9611 10.154 15.9611C10.154 15.9611 10.154 15.9611 10.154 15.9611C10.154 15.9611 10.154 15.9611 10.154 15.9611C10.154 15.9611 10.154 15.9611 10.154 15.9611C10.154 15.9611 10.154 15.9611 10.154 15.9611C10.154 15.9611 10.154 15.9611 10.154 15.9611C10.154 15.9611 10.154 15.9611 10.154 15.9611C10.154 15.9611 10.154 15.9611 10.154 15.9611C10.154 15.9611 10.154 15.9611 10.154 15.9611C10.154 15.9611 10.154 15.9611 10.154 15.9611C10.154 15.9611 10.154 15.9611 10.154 15.9611C10.154 15.9611 10.154 15.9611 10.154 15.9611C10.154 15.9611 10.154 15.9611 10.154 15.9611C10.154 15.9611 10.154 15.9611 10.154 15.9611C10.154 15.9611 10.154 15.9611 10.154 15.9611C10.154 15.9611 10.154 15.9611 10.154 15.9611C10.154 15.9611 10.154 15.9611 10.154 15.9611C10.154 15.9611 10.154 15.9611 10.154 15.9611C10.154 15.9611 10.154 15.9611 10.154 15.9611C10.154 15.9611 10.154 15.9611 10.154 15.9611C10.154 15.9611 10.154 15.9611 10.154 15.9611C10.154 15.9611 10.154 15.9611 10.154 15.9611C10.154 15.9611 10.154 15.9611 10.154 15.9611C10.154 15.9611 10.154 15.9611 10.154 15.9611C10.154 15.9611 10.154 15.9611 10.154 15.9611C10.154 15.9611 10.154 15.9611 10.154 15.9611C10.154 15.9611 10.154 15.9611 10.154 15.9611C10.154 15.9611 10.154 15.9611 10.154 15.9611C10.154 15.9611 10.154 15.9611 10.154 15.9611C10.154 15.9611 10.154 15.9611 10.154 15.9611C10.154 15.9611 10.154 15.9611 10.154 15.9611C10.154 15.9611 10.154 15.9611 10.154 15.9611C10.154 15.9611 10.154 15.9611 10.154 15.9611C10.154 15.9611 10.154 15.9611 10.154 15.9611C10.154 15.9611 10.154 15.9611 10.154 15.9611C10.154 15.9611 10.154 15.9611 10.154 15.9611C10.154 15.9611 10.154 15.9611 10.154 15.9611C10.154 15.9611 10.154 15.9611 10.154 15.9611C10.154 15.9611 10.154 15.9611 10.154 15.9611C10.154 15.9611 10.154 15.9611 10.154 15.9611C10.154 15.9611 10.154 15.9611 10.154 15.9611C10.154 15.9611 10.154 15.9611 10.154 15.9611C10.154 15.9611 10.154 15.961 10.154 15.961C10.154 15.961 10.154 15.961 10.154 15.961C10.154 15.961 10.154 15.961 10.154 15.961C10.154 15.961 10.154 15.961 10.154 15.961C10.154 15.961 10.154 15.961 10.154 15.961C10.154 15.961 10.154 15.961 10.154 15.961C10.154 15.961 10.154 15.961 10.154 15.961C10.154 15.961 10.154 15.961 10.154 15.961C10.154 15.961 10.154 15.961 10.154 15.961C10.154 15.961 10.154 15.961 10.154 15.961C10.154 15.961 10.154 15.961 10.154 15.961C10.154 15.961 10.154 15.961 10.154 15.961C10.154 15.961 10.154 15.961 10.154 15.961C10.154 15.961 10.154 15.961 10.154 15.961C10.154 15.961 10.154 15.961 10.154 15.961C10.154 15.961 10.154 15.961 10.154 15.961C10.154 15.961 10.154 15.961 10.154 15.961C10.154 15.961 10.154 15.961 10.154 15.961C10.154 15.961 10.154 15.961 10.154 15.961C10.154 15.961 10.154 15.961 10.154 15.961C10.154 15.961 10.154 15.961 10.154 15.961C10.154 15.961 10.154 15.961 10.154 15.961C10.154 15.961 10.154 15.961 10.154 15.961C10.154 15.961 10.154 15.961 10.154 15.961C10.154 15.961 10.154 15.961 10.154 15.961C10.154 15.961 10.154 15.961 10.154 15.961C10.154 15.961 10.154 15.961 10.154 15.961C10.154 15.961 10.154 15.961 10.154 15.961C10.154 15.961 10.154 15.961 10.154 15.961C10.154 15.961 10.154 15.961 10.154 15.961C10.154 15.961 10.154 15.961 10.154 15.961C10.154 15.961 10.154 15.961 10.154 15.961C10.154 15.961 10.154 15.961 10.154 15.961C10.154 15.961 10.154 15.961 10.154 15.961C10.154 15.961 10.154 15.961 10.154 15.961C10.154 15.961 10.154 15.961 10.154 15.961C10.154 15.961 10.154 15.961 10.154 15.961C10.154 15.961 10.154 15.961 10.154 15.961C10.154 15.961 10.154 15.961 10.154 15.961C10.154 15.961 10.154 15.961 10.154 15.961C10.154 15.961 10.154 15.961 10.154 15.961C10.154 15.961 10.154 15.961 10.154 15.961C10.154 15.961 10.154 15.961 10.154 15.961C10.154 15.961 10.154 15.961 10.154 15.961C10.154 15.961 10.154 15.961 10.154 15.961C10.154 15.961 10.154 15.961 10.154 15.961C10.154 15.961 10.154 15.961 10.154 15.961C10.154 15.961 10.154 15.961 10.154 15.961C10.154 15.961 10.154 15.961 10.154 15.961C10.154 15.961 10.154 15.961 10.154 15.961C10.154 15.961 10.154 15.961 10.154 15.961C10.154 15.961 10.154 15.961 10.154 15.961C10.154 15.961 10.154 15.9609 10.154 15.9609C10.154 15.9609 10.154 15.9609 10.154 15.9609C10.154 15.9609 10.154 15.9609 10.154 15.9609C10.154 15.9609 10.154 15.9609 10.154 15.9609C10.154 15.9609 10.154 15.9609 10.154 15.9609C10.154 15.9609 10.154 15.9609 10.154 15.9609C10.154 15.9609 10.154 15.9609 10.154 15.9609C10.154 15.9609 10.154 15.9609 10.154 15.9609C10.154 15.9609 10.154 15.9609 10.154 15.9609C10.154 15.9609 10.154 15.9609 10.154 15.9609C10.154 15.9609 10.154 15.9609 10.154 15.9609C10.154 15.9609 10.154 15.9609 10.154 15.9609C10.154 15.9609 10.154 15.9609 10.154 15.9609H8.65399ZM8.65399 15.9619C8.65399 16.9695 8.85246 17.9673 9.23806 18.8982L10.6239 18.3242C10.3137 17.5753 10.154 16.7726 10.154 15.9619H8.65399ZM9.23806 18.8982C9.62367 19.8292 10.1889 20.675 10.9014 21.3875L11.962 20.3269C11.3888 19.7537 10.9341 19.0732 10.6239 18.3242L9.23806 18.8982ZM10.9014 21.3875C11.6139 22.1 12.4597 22.6652 13.3907 23.0508L13.9647 21.665C13.2157 21.3548 12.5352 20.9001 11.962 20.3269L10.9014 21.3875ZM13.3907 23.0508C14.3216 23.4364 15.3194 23.6349 16.327 23.6349V22.1349C15.5163 22.1349 14.7136 21.9752 13.9647 21.665L13.3907 23.0508ZM16.327 23.6349C17.3346 23.6349 18.3324 23.4364 19.2633 23.0508L18.6893 21.665C17.9404 21.9752 17.1376 22.1349 16.327 22.1349V23.6349ZM19.2633 23.0508C20.1943 22.6652 21.0401 22.1 21.7526 21.3875L20.692 20.3269C20.1187 20.9001 19.4382 21.3548 18.6893 21.665L19.2633 23.0508ZM21.7526 21.3875C22.4651 20.675 23.0303 19.8292 23.4159 18.8982L22.0301 18.3242C21.7199 19.0732 21.2652 19.7537 20.692 20.3269L21.7526 21.3875ZM23.4159 18.8982C23.8015 17.9673 24 16.9695 24 15.9619H22.5C22.5 16.7726 22.3403 17.5753 22.0301 18.3242L23.4159 18.8982ZM24 15.9619C24 14.9543 23.8015 13.9565 23.4159 13.0256L22.0301 13.5996C22.3403 14.3485 22.5 15.1513 22.5 15.9619H24ZM23.4159 13.0256C23.0303 12.0946 22.4651 11.2488 21.7526 10.5363L20.692 11.5969C21.2652 12.1702 21.7199 12.8507 22.0301 13.5996L23.4159 13.0256ZM21.7526 10.5363C21.0401 9.82378 20.1943 9.25859 19.2633 8.87298L18.6893 10.2588C19.4382 10.569 20.1187 11.0237 20.692 11.5969L21.7526 10.5363ZM19.2633 8.87298C18.3324 8.48738 17.3346 8.28891 16.327 8.28891V9.78891C17.1376 9.78891 17.9404 9.94858 18.6893 10.2588L19.2633 8.87298ZM16.327 8.28891C15.3194 8.28891 14.3216 8.48738 13.3907 8.87298L13.9647 10.2588C14.7136 9.94858 15.5163 9.78891 16.327 9.78891V8.28891ZM13.3907 8.87298C13.2907 8.91437 13.1918 8.95783 13.0939 9.00332L13.7259 10.3637C13.8047 10.3271 13.8843 10.2921 13.9647 10.2588L13.3907 8.87298ZM17.1456 14.6233L14.0585 9.30688L12.7613 10.0601L15.8484 15.3765L17.1456 14.6233ZM15.939 16.7109C16.405 16.7109 16.93 16.5408 17.2121 16.0549C17.495 15.5674 17.3801 15.0266 17.1454 14.6229L15.8486 15.3769C15.8821 15.4344 15.88 15.4549 15.8785 15.4382C15.8767 15.417 15.8792 15.3632 15.9147 15.302C15.9501 15.241 15.9949 15.213 16.0123 15.2049C16.0257 15.1986 16.0071 15.2109 15.939 15.2109V16.7109ZM9.40399 16.7109H15.939V15.2109H9.40399V16.7109Z" fill="white"/>
</svg>
