<svg width="25" height="25" viewBox="0 0 25 25" fill="none" xmlns="http://www.w3.org/2000/svg">

<path fill-rule="evenodd" clip-rule="evenodd" d="M17.5 4.5V14.5H23.5C23.7652 14.5 24.0196 14.6054 24.2071 14.7929C24.3946 14.9804 24.5 15.2348 24.5 15.5V20.5C24.5 20.7652 24.3946 21.0196 24.2071 21.2071C24.0196 21.3946 23.7652 21.5 23.5 21.5H2.5C2.23478 21.5 1.98043 21.3946 1.79289 21.2071C1.60536 21.0196 1.5 20.7652 1.5 20.5V11.5C1.5 11.2348 1.60536 10.9804 1.79289 10.7929C1.98043 10.6054 2.23478 10.5 2.5 10.5H8.5V4.5C8.5 4.23478 8.60536 3.98043 8.79289 3.79289C8.98043 3.60536 9.23478 3.5 9.5 3.5H16.5C16.7652 3.5 17.0196 3.60536 17.2071 3.79289C17.3946 3.98043 17.5 4.23478 17.5 4.5ZM11.25 6.5C11.25 6.08579 11.5858 5.75 12 5.75H12.5C12.8315 5.75 13.1495 5.8817 13.3839 6.11612C13.6183 6.35054 13.75 6.66848 13.75 7V9.75H14C14.4142 9.75 14.75 10.0858 14.75 10.5C14.75 10.9142 14.4142 11.25 14 11.25H13H12C11.5858 11.25 11.25 10.9142 11.25 10.5C11.25 10.0858 11.5858 9.75 12 9.75H12.25V7.25H12C11.5858 7.25 11.25 6.91421 11.25 6.5Z" fill="white"/>






</svg>
