<svg width="25" height="25" viewBox="0 0 25 25" fill="none" xmlns="http://www.w3.org/2000/svg">
<g clip-path="url(#clip0_3778_26937)">
<path d="M21.174 23.7601L18.214 22.0071C17.9535 21.8215 17.7505 21.5664 17.6282 21.2709C17.5058 20.9754 17.469 20.6515 17.522 20.3361V18.5121L16.416 17.4051C16.2772 17.2665 16.1708 17.0988 16.1046 16.9142C16.0383 16.7295 16.0139 16.5325 16.0331 16.3372C16.0522 16.142 16.1144 15.9535 16.2152 15.7852C16.316 15.6169 16.4529 15.4731 16.616 15.3641V15.3641C16.8711 15.1943 17.1772 15.1181 17.4821 15.1483C17.7871 15.1786 18.0722 15.3135 18.289 15.5301L19.849 17.0911" stroke="white" stroke-width="1.5" stroke-linecap="round" stroke-linejoin="round"/>
<path d="M17.772 9.8999L21.934 13.5829C22.4792 14.3462 22.7722 15.2609 22.772 16.1989V18.3799C22.7721 19.0063 23.021 19.607 23.464 20.0499L23.75 20.3359" stroke="white" stroke-width="1.5" stroke-linecap="round" stroke-linejoin="round"/>
<path d="M9.06401 23.76L11.49 20.778C11.6972 20.5214 11.7965 20.1943 11.7668 19.8658C11.7371 19.5373 11.5809 19.2333 11.331 19.018C11.2086 18.9126 11.0663 18.833 10.9124 18.784C10.7585 18.7349 10.5963 18.7174 10.4355 18.7326C10.2747 18.7477 10.1187 18.7951 9.97664 18.872C9.83462 18.9489 9.70958 19.0536 9.60901 19.18L8.77201 19.896V14.01C8.77201 13.6122 8.61397 13.2307 8.33267 12.9493C8.05136 12.668 7.66983 12.51 7.27201 12.51C6.87418 12.51 6.49265 12.668 6.21135 12.9493C5.93004 13.2307 5.77201 13.6122 5.77201 14.01V17.76H4.53301C3.659 17.7703 2.82477 18.1269 2.21341 18.7516C1.60204 19.3763 1.26347 20.218 1.27201 21.092V23.759" stroke="white" stroke-width="1.5" stroke-linecap="round" stroke-linejoin="round"/>
<path d="M17.772 15.213V5.01099C17.772 4.81207 17.693 4.62131 17.5523 4.48066C17.4117 4.34 17.2209 4.26099 17.022 4.26099H12.522C12.522 3.46534 12.2059 2.70228 11.6433 2.13967C11.0807 1.57706 10.3177 1.26099 9.522 1.26099C8.72635 1.26099 7.96329 1.57706 7.40068 2.13967C6.83807 2.70228 6.522 3.46534 6.522 4.26099H2.022C1.82309 4.26099 1.63233 4.34 1.49167 4.48066C1.35102 4.62131 1.272 4.81207 1.272 5.01099V14.76" stroke="white" stroke-width="1.5" stroke-linecap="round" stroke-linejoin="round"/>
<path fill-rule="evenodd" clip-rule="evenodd" d="M17.772 15.5V5.01099C17.772 4.81207 17.693 4.62131 17.5524 4.48066C17.4117 4.34 17.2209 4.26099 17.022 4.26099H12.522C12.522 3.46534 12.206 2.70228 11.6434 2.13967C11.0807 1.57706 10.3177 1.26099 9.52203 1.26099C8.72638 1.26099 7.96332 1.57706 7.40071 2.13967C6.8381 2.70228 6.52203 3.46534 6.52203 4.26099H2.02203C1.82312 4.26099 1.63236 4.34 1.4917 4.48066C1.35105 4.62131 1.27203 4.81207 1.27203 5.01099V15.5H5.77201V14.01C5.77201 13.6122 5.93004 13.2307 6.21135 12.9493C6.49265 12.668 6.87418 12.51 7.27201 12.51C7.66983 12.51 8.05136 12.668 8.33267 12.9493C8.61397 13.2307 8.77201 13.6122 8.77201 14.01V15.5H17.772ZM9.5 3.5C9.69778 3.5 9.89112 3.55865 10.0556 3.66853C10.22 3.77842 10.3482 3.93459 10.4239 4.11732C10.4996 4.30004 10.5194 4.50111 10.4808 4.69509C10.4422 4.88907 10.347 5.06725 10.2071 5.20711C10.0673 5.34696 9.88907 5.4422 9.69509 5.48078C9.50111 5.51937 9.30004 5.49957 9.11732 5.42388C8.93459 5.34819 8.77842 5.22002 8.66853 5.05557C8.55865 4.89112 8.5 4.69778 8.5 4.5C8.49965 4.36858 8.52528 4.23839 8.57541 4.1169C8.62554 3.99542 8.69918 3.88504 8.79211 3.79211C8.88504 3.69918 8.99542 3.62554 9.1169 3.57541C9.23839 3.52528 9.36858 3.49965 9.5 3.5Z" fill="white"/>
</g>
<defs>
<clipPath id="clip0_3778_26937">
<rect width="24" height="24" fill="white" transform="translate(0.5 0.5)"/>
</clipPath>
</defs>
</svg>
