<svg xmlns="http://www.w3.org/2000/svg" width="24" height="30" viewBox="0 0 24 30" fill="none">
    <path fill-rule="evenodd" clip-rule="evenodd" d="M16.8432 1.70395C16.6824 1.67282 16.5169 1.67832 16.3586 1.71995L5.0427 5.39343H17.7314V2.78543C17.7315 2.61575 17.6925 2.44837 17.6175 2.29633C17.5426 2.14429 17.4337 2.01172 17.2994 1.90897C17.1651 1.80621 17.0089 1.73605 16.8432 1.70395ZM19.4068 5.39343V2.78578C19.4069 2.35667 19.3083 1.93316 19.1187 1.54865C18.9292 1.16409 18.6538 0.828768 18.314 0.568853C17.9743 0.308937 17.5793 0.131462 17.1601 0.0502809C16.7408 -0.0309004 16.3086 -0.0135919 15.8971 0.100855C15.8857 0.104032 15.8743 0.107453 15.863 0.111114L2.34658 4.49895C1.77034 4.66358 1.2625 5.01158 0.89943 5.49101C0.532444 5.9756 0.333588 6.56774 0.333313 7.17676V27.4325C0.33325 27.8616 0.431828 28.2851 0.621362 28.6696C0.81092 29.0542 1.08632 29.3895 1.42608 29.6494C1.51781 29.7196 1.61932 29.7678 1.72436 29.795C1.87124 29.9227 2.06274 30 2.27222 30H20.8958C21.6307 30 22.3355 29.7066 22.8551 29.1842C23.3747 28.6619 23.6666 27.9535 23.6666 27.2148L23.6666 8.17862C23.6666 7.43994 23.3746 6.73152 22.855 6.20919C22.3354 5.68687 21.6306 5.39343 20.8958 5.39343H19.4068ZM2.44928 28.3159H20.8958C21.1864 28.3159 21.465 28.1999 21.6704 27.9934C21.8759 27.7869 21.9913 27.5068 21.9913 27.2148L21.9912 8.17862C21.9912 7.88659 21.8758 7.60651 21.6703 7.40001C21.4649 7.19351 21.1863 7.0775 20.8958 7.0775H2.01326C2.01024 7.11065 2.0087 7.14403 2.00869 7.17753V27.4328C2.00865 27.6025 2.04762 27.7699 2.12256 27.9219C2.19751 28.074 2.30639 28.2065 2.44071 28.3093C2.44359 28.3115 2.44644 28.3137 2.44928 28.3159Z" fill="#222B3C"/>
    <path fill-rule="evenodd" clip-rule="evenodd" d="M9.2679 13.0009C9.59533 13.0009 9.89254 13.1933 10.028 13.4929L13.4932 21.1558C13.684 21.5778 13.4984 22.0753 13.0786 22.2672C12.6587 22.459 12.1637 22.2724 11.9729 21.8504L9.2679 15.8685L6.56289 21.8504C6.37207 22.2724 5.87706 22.459 5.45725 22.2672C5.03744 22.0753 4.85181 21.5778 5.04263 21.1558L8.50777 13.4929C8.64326 13.1933 8.94047 13.0009 9.2679 13.0009Z" fill="#222B3C"/>
    <path fill-rule="evenodd" clip-rule="evenodd" d="M5.913 19.4133C5.913 18.9498 6.28682 18.574 6.74796 18.574H11.7876C12.2488 18.574 12.6226 18.9498 12.6226 19.4133C12.6226 19.8768 12.2488 20.2526 11.7876 20.2526H6.74796C6.28682 20.2526 5.913 19.8768 5.913 19.4133Z" fill="#222B3C"/>
    <path fill-rule="evenodd" clip-rule="evenodd" d="M13.9135 17.3232C13.9135 16.8597 14.2873 16.4839 14.7484 16.4839H18.9066C19.3678 16.4839 19.7416 16.8597 19.7416 17.3232C19.7416 17.7868 19.3678 18.1625 18.9066 18.1625H14.7484C14.2873 18.1625 13.9135 17.7868 13.9135 17.3232Z" fill="#222B3C"/>
    <path fill-rule="evenodd" clip-rule="evenodd" d="M16.8273 14.3941C17.2884 14.3941 17.6623 14.7699 17.6623 15.2334V19.4131C17.6623 19.8767 17.2884 20.2524 16.8273 20.2524C16.3662 20.2524 15.9923 19.8767 15.9923 19.4131V15.2334C15.9923 14.7699 16.3662 14.3941 16.8273 14.3941Z" fill="#222B3C"/>
</svg>