<svg width="24" height="25" viewBox="0 0 24 25" fill="none" xmlns="http://www.w3.org/2000/svg">

<path d="M20.25 1.24609H0.75V20.7461H20.25V1.24609Z" stroke="white" stroke-width="1.5" stroke-linecap="round" stroke-linejoin="round"/>
<path d="M3.75 23.7461H21.75C22.1478 23.7461 22.5294 23.5881 22.8107 23.3068C23.092 23.0254 23.25 22.6439 23.25 22.2461V4.24609" stroke="white" stroke-width="1.5" stroke-linecap="round" stroke-linejoin="round"/>
<path fill-rule="evenodd" clip-rule="evenodd" d="M1.125 1.5H20.25V20.746H1.125V1.5ZM16.5 8.746V14.746C16.5 15.3427 16.2629 15.915 15.841 16.337C15.419 16.7589 14.8467 16.996 14.25 16.996H6.75C6.15326 16.996 5.58097 16.7589 5.15901 16.337C4.73705 15.915 4.5 15.3427 4.5 14.746V8.746C4.5 8.14926 4.73705 7.57697 5.15901 7.15501C5.58097 6.73306 6.15326 6.496 6.75 6.496H14.25C14.8467 6.496 15.419 6.73306 15.841 7.15501C16.2629 7.57697 16.5 8.14927 16.5 8.746ZM6 10.0963V14.746C6 14.9449 6.07902 15.1357 6.21967 15.2763C6.36032 15.417 6.55109 15.496 6.75 15.496H14.25C14.4489 15.496 14.6397 15.417 14.7803 15.2763C14.921 15.1357 15 14.9449 15 14.746V10.0963L11.6925 12.155L11.6919 12.1554C11.3344 12.3786 10.9215 12.497 10.5 12.497C10.0785 12.497 9.66555 12.3786 9.30809 12.1554L9.3075 12.155L6 10.0963ZM14.7803 8.21567C14.6397 8.07502 14.4489 7.996 14.25 7.996H6.75C6.55109 7.996 6.36032 8.07502 6.21967 8.21567C6.16864 8.2667 6.12573 8.32432 6.09176 8.38653L10.1013 10.8823L10.1025 10.883C10.2217 10.9575 10.3594 10.997 10.5 10.997C10.6406 10.997 10.7783 10.9575 10.8975 10.883L10.8987 10.8823L14.9082 8.38653C14.8743 8.32432 14.8314 8.2667 14.7803 8.21567Z" fill="white"/>






</svg>
