<svg width="25" height="25" viewBox="0 0 25 25" fill="none" xmlns="http://www.w3.org/2000/svg">

<path fill-rule="evenodd" clip-rule="evenodd" d="M8.80393 22.6039C9.53776 21.8701 9.95002 20.8748 9.95002 19.837V3.207C9.95002 2.68814 9.74398 2.19053 9.37719 1.82355C9.01039 1.45657 8.51288 1.25027 7.99402 1.25H4.08102C3.56199 1.25 3.06422 1.45618 2.69722 1.82319C2.33021 2.1902 2.12402 2.68797 2.12402 3.207V19.837C2.12402 20.8748 2.53628 21.8701 3.27011 22.6039C4.00394 23.3377 4.99923 23.75 6.03702 23.75C7.07482 23.75 8.0701 23.3377 8.80393 22.6039ZM4.65221 6.32403C4.57682 6.14204 4.53802 5.94698 4.53802 5.75C4.53802 5.55302 4.57682 5.35796 4.65221 5.17597C4.72759 4.99399 4.83808 4.82863 4.97736 4.68934C5.11665 4.55005 5.28201 4.43956 5.464 4.36418C5.64599 4.2888 5.84104 4.25 6.03802 4.25C6.23501 4.25 6.43006 4.2888 6.61205 4.36418C6.79404 4.43956 6.9594 4.55005 7.09868 4.68934C7.23797 4.82863 7.34846 4.99399 7.42384 5.17597C7.49923 5.35796 7.53802 5.55302 7.53802 5.75C7.53802 5.94698 7.49923 6.14204 7.42384 6.32403C7.34846 6.50601 7.23797 6.67137 7.09868 6.81066C6.9594 6.94995 6.79404 7.06044 6.61205 7.13582C6.43006 7.2112 6.23501 7.25 6.03802 7.25C5.84104 7.25 5.64599 7.2112 5.464 7.13582C5.28201 7.06044 5.11665 6.94995 4.97736 6.81066C4.83808 6.67137 4.72759 6.50601 4.65221 6.32403ZM4.53802 11.75C4.53802 11.947 4.57682 12.142 4.65221 12.324C4.72759 12.506 4.83808 12.6714 4.97736 12.8107C5.11665 12.9499 5.28201 13.0604 5.464 13.1358C5.64599 13.2112 5.84104 13.25 6.03802 13.25C6.23501 13.25 6.43006 13.2112 6.61205 13.1358C6.79404 13.0604 6.9594 12.9499 7.09868 12.8107C7.23797 12.6714 7.34846 12.506 7.42384 12.324C7.49923 12.142 7.53802 11.947 7.53802 11.75C7.53802 11.553 7.49923 11.358 7.42384 11.176C7.34846 10.994 7.23797 10.8286 7.09868 10.6893C6.9594 10.5501 6.79404 10.4396 6.61205 10.3642C6.43006 10.2888 6.23501 10.25 6.03802 10.25C5.84104 10.25 5.64599 10.2888 5.464 10.3642C5.28201 10.4396 5.11665 10.5501 4.97736 10.6893C4.83808 10.8286 4.72759 10.994 4.65221 11.176C4.57682 11.358 4.53802 11.553 4.53802 11.75ZM4.65221 18.324C4.57682 18.142 4.53802 17.947 4.53802 17.75C4.53802 17.553 4.57682 17.358 4.65221 17.176C4.72759 16.994 4.83808 16.8286 4.97736 16.6893C5.11665 16.5501 5.28201 16.4396 5.464 16.3642C5.64599 16.2888 5.84104 16.25 6.03802 16.25C6.23501 16.25 6.43006 16.2888 6.61205 16.3642C6.79404 16.4396 6.9594 16.5501 7.09868 16.6893C7.23797 16.8286 7.34846 16.994 7.42384 17.176C7.49923 17.358 7.53802 17.553 7.53802 17.75C7.53802 17.947 7.49923 18.142 7.42384 18.324C7.34846 18.506 7.23797 18.6714 7.09868 18.8107C6.9594 18.9499 6.79404 19.0604 6.61205 19.1358C6.43006 19.2112 6.23501 19.25 6.03802 19.25C5.84104 19.25 5.64599 19.2112 5.464 19.1358C5.28201 19.0604 5.11665 18.9499 4.97736 18.8107C4.83808 18.6714 4.72759 18.506 4.65221 18.324Z" fill="white"/>
<path d="M9.95002 19.837C9.95002 20.8748 9.53776 21.8701 8.80393 22.6039C8.0701 23.3377 7.07482 23.75 6.03702 23.75C4.99923 23.75 4.00394 23.3377 3.27011 22.6039C2.53628 21.8701 2.12402 20.8748 2.12402 19.837V3.207C2.12402 2.68797 2.33021 2.1902 2.69722 1.82319C3.06422 1.45618 3.56199 1.25 4.08102 1.25H7.99402C8.51288 1.25027 9.01039 1.45657 9.37719 1.82355C9.74398 2.19053 9.95002 2.68814 9.95002 3.207V19.837Z" stroke="white" stroke-width="1.5" stroke-linecap="round" stroke-linejoin="round"/>
<path d="M9.39301 21.8519L17.742 7.39092C18.0014 6.94149 18.0718 6.40742 17.9375 5.90616C17.8032 5.40489 17.4754 4.97748 17.026 4.71792L13.637 2.76192C13.3283 2.58327 12.9766 2.49265 12.62 2.49992" stroke="white" stroke-width="1.5" stroke-linecap="round" stroke-linejoin="round"/>
<path d="M8.04303 23.2001L22.397 14.9101C22.8461 14.6505 23.1738 14.2233 23.308 13.7222C23.4423 13.2212 23.3722 12.6874 23.113 12.2381L21.156 8.84905C21.0284 8.62809 20.8585 8.43441 20.656 8.27905" stroke="white" stroke-width="1.5" stroke-linecap="round" stroke-linejoin="round"/>






</svg>
