<svg width="25" height="25" viewBox="0 0 25 25" fill="none" xmlns="http://www.w3.org/2000/svg">
<g clip-path="url(#clip0_3778_26952)">
<path d="M24.25 7C24.25 7.26522 24.1446 7.51957 23.9571 7.70711C23.7696 7.89464 23.5152 8 23.25 8H8.25C7.98478 8 7.73043 7.89464 7.54289 7.70711C7.35536 7.51957 7.25 7.26522 7.25 7V6C7.25 5.73478 7.35536 5.48043 7.54289 5.29289C7.73043 5.10536 7.98478 5 8.25 5H23.25C23.5152 5 23.7696 5.10536 23.9571 5.29289C24.1446 5.48043 24.25 5.73478 24.25 6V7Z" fill="white" stroke="white" stroke-width="1.5" stroke-linecap="round" stroke-linejoin="round"/>
<path d="M21.25 13C21.25 13.2652 21.1446 13.5196 20.9571 13.7071C20.7696 13.8946 20.5152 14 20.25 14H5.25C4.98478 14 4.73043 13.8946 4.54289 13.7071C4.35536 13.5196 4.25 13.2652 4.25 13V12C4.25 11.7348 4.35536 11.4804 4.54289 11.2929C4.73043 11.1054 4.98478 11 5.25 11H20.25C20.5152 11 20.7696 11.1054 20.9571 11.2929C21.1446 11.4804 21.25 11.7348 21.25 12V13Z" stroke="white" stroke-width="1.5" stroke-linecap="round" stroke-linejoin="round"/>
<path d="M18.25 19C18.25 19.2652 18.1446 19.5196 17.9571 19.7071C17.7696 19.8946 17.5152 20 17.25 20H2.25C1.98478 20 1.73043 19.8946 1.54289 19.7071C1.35536 19.5196 1.25 19.2652 1.25 19V18C1.25 17.7348 1.35536 17.4804 1.54289 17.2929C1.73043 17.1054 1.98478 17 2.25 17H17.25C17.5152 17 17.7696 17.1054 17.9571 17.2929C18.1446 17.4804 18.25 17.7348 18.25 18V19Z" stroke="white" stroke-width="1.5" stroke-linecap="round" stroke-linejoin="round"/>
</g>
<defs>
<clipPath id="clip0_3778_26952">
<rect width="24" height="24" fill="white" transform="translate(0.75 0.5)"/>
</clipPath>
</defs>
</svg>
