<svg width="25" height="25" viewBox="0 0 25 25" fill="none" xmlns="http://www.w3.org/2000/svg">
<path d="M9.53125 0.5C8.53669 0.5 7.57826 0.890488 6.875 1.59375C6.35564 2.11311 6.0857 2.79184 5.9375 3.5L2.03125 3.5C1.63342 3.5 1.25006 3.65619 0.96875 3.9375C0.687445 4.21881 0.53125 4.60217 0.53125 5L0.53125 14.75C0.53125 15.1642 0.867036 15.5 1.28125 15.5L5.03125 15.5L5.03125 17L4.53125 17C3.44975 17.0127 2.43779 17.4521 1.6875 18.2188C0.937191 18.9854 0.520769 20.0211 0.53125 21.0938L0.53125 23.75C0.53125 24.1642 0.867036 24.5 1.28125 24.5C1.69546 24.5 2.03125 24.1642 2.03125 23.75L2.03125 21.0938C2.02462 20.4111 2.27757 19.764 2.75 19.2812C3.2224 18.7985 3.85586 18.508 4.53125 18.5L5.78125 18.5C6.19546 18.5 6.53125 18.1642 6.53125 17.75L6.53125 14C6.53125 13.8011 6.60927 13.6095 6.75 13.4688C6.89054 13.3282 7.0823 13.25 7.28125 13.25C7.48019 13.25 7.67186 13.3281 7.8125 13.4688C7.95313 13.6094 8.03125 13.8011 8.03125 14L8.03125 19.9062C8.03125 20.5467 8.76335 20.885 9.25 20.4688L10.0938 19.75L10.1875 19.6562C10.2251 19.6089 10.2904 19.5601 10.3438 19.5312C10.397 19.5024 10.4398 19.4744 10.5 19.4688C10.5605 19.463 10.6299 19.4816 10.6875 19.5C10.7454 19.5184 10.7978 19.5542 10.8438 19.5938C10.9459 19.6817 11.0191 19.8029 11.0312 19.9375C11.0434 20.072 10.9911 20.2074 10.9062 20.3125L8.46875 23.2812C8.20735 23.6026 8.27244 24.0823 8.59375 24.3438C8.91506 24.6052 9.39485 24.5401 9.65625 24.2188L12.0625 21.25C12.3938 20.8397 12.5472 20.335 12.5 19.8125C12.4528 19.29 12.2099 18.7799 11.8125 18.4375C11.6134 18.266 11.3751 18.1421 11.125 18.0625C10.8752 17.9828 10.6365 17.9753 10.375 18C10.1141 18.0245 9.85586 18.0938 9.625 18.2188C9.58571 18.24 9.56888 18.2887 9.53125 18.3125L9.53125 15.5L15.5312 15.5C15.4037 15.7366 15.3078 15.9783 15.2812 16.25C15.2512 16.5555 15.3024 16.867 15.4062 17.1562C15.5098 17.445 15.6577 17.7205 15.875 17.9375L16.7812 18.8125L16.7812 20.3438C16.7334 20.7579 16.7774 21.1761 16.9375 21.5625C17.1135 21.9879 17.4061 22.3577 17.7812 22.625L20.7812 24.4062C21.1377 24.6173 21.6014 24.5126 21.8125 24.1562C22.0236 23.7998 21.9189 23.3361 21.5625 23.125L18.5938 21.375C18.5009 21.3056 18.381 21.1342 18.3125 20.9688C18.2439 20.803 18.2203 20.6454 18.25 20.4688L18.2812 20.3438L18.2812 18.5C18.2812 18.3012 18.203 18.1094 18.0625 17.9688L16.9375 16.875C16.8765 16.8141 16.8412 16.7364 16.8125 16.6562C16.7837 16.5759 16.7729 16.491 16.7812 16.4062C16.7896 16.3212 16.8 16.2294 16.8438 16.1562C16.8875 16.0832 16.9604 16.0474 17.0312 16C17.1409 15.927 17.2736 15.8931 17.4062 15.9062C17.5387 15.9194 17.6557 15.9683 17.75 16.0625L19.3125 17.625C19.6053 17.918 20.082 17.9178 20.375 17.625C20.668 17.3322 20.6678 16.8555 20.375 16.5625L18.8125 15C18.737 14.9246 18.6179 14.9312 18.5312 14.875L18.5312 11.5625L21.3125 14.0625C21.7555 14.6935 22.0314 15.416 22.0312 16.1875L22.0312 18.375C22.0314 19.2004 22.3538 20.0102 22.9375 20.5938L23.2188 20.875C23.5116 21.1679 23.9884 21.1679 24.2812 20.875C24.5741 20.5821 24.5742 20.1054 24.2812 19.8125L24 19.5312C23.6976 19.2289 23.5313 18.8025 23.5312 18.375L23.5312 16.1875C23.5315 15.0933 23.1673 14.0468 22.5312 13.1562L22.4375 13.0312L18.5312 9.5625L18.5312 5C18.5312 4.60212 18.3752 4.21881 18.0938 3.9375C17.8127 3.65632 17.4291 3.5 17.0312 3.5L13.125 3.5C12.9768 2.79184 12.7069 2.11312 12.1875 1.59375C11.4842 0.890472 10.5258 0.5 9.53125 0.5ZM9.5 3.5C9.69778 3.5 9.89802 3.54637 10.0625 3.65625C10.2269 3.76614 10.3618 3.94227 10.4375 4.125C10.5132 4.30772 10.5074 4.49352 10.4688 4.6875C10.4302 4.88148 10.3586 5.07889 10.2188 5.21875C10.0789 5.3586 9.88148 5.43017 9.6875 5.46875C9.49352 5.50734 9.30772 5.51319 9.125 5.4375C8.94227 5.36181 8.76614 5.22695 8.65625 5.0625C8.54637 4.89805 8.5 4.69778 8.5 4.5C8.49965 4.36858 8.51237 4.24649 8.5625 4.125C8.61263 4.00352 8.68832 3.87418 8.78125 3.78125C8.87418 3.68832 9.00352 3.61263 9.125 3.5625C9.24649 3.51237 9.36858 3.49965 9.5 3.5Z" fill="currentColor" fill-rule="evenodd" opacity="1" stroke="none"/>
</svg>
