<svg width="25" height="25" viewBox="0 0 25 25" fill="none" xmlns="http://www.w3.org/2000/svg">
  <path d="M6.5 0.5C6.30286 0.5 6.11961 0.549504 5.9375 0.625C5.75536 0.700508 5.57682 0.79798 5.4375 0.9375C5.29823 1.07695 5.20027 1.2553 5.125 1.4375C5.04972 1.61978 4.99974 1.80286 5 2L2.75 2C2.15327 2 1.5782 2.2343 1.15625 2.65625C0.734293 3.07822 0.5 3.65327 0.5 4.25L0.5 22.25C0.5 22.8467 0.734305 23.4218 1.15625 23.8438C1.5782 24.2657 2.15326 24.5 2.75 24.5L22.25 24.5C22.8467 24.5 23.4218 24.2657 23.8438 23.8438C24.2657 23.4218 24.5 22.8467 24.5 22.25L24.5 4.25C24.5 3.65326 24.2657 3.07821 23.8438 2.65625C23.4218 2.23429 22.8467 2 22.25 2L12.5 2C12.5 1.60213 12.3439 1.21881 12.0625 0.9375C11.7814 0.656302 11.3979 0.5 11 0.5L6.5 0.5ZM2.75 3.5L5 3.5L5 11.75C5 12.368 5.69307 12.7146 6.1875 12.3438L8.75 10.4375L11.3125 12.3438C11.8069 12.7144 12.5 12.368 12.5 11.75C12.5 10.7188 12.5 5.8737 12.5 3.5L22.25 3.5C22.4489 3.5 22.6406 3.57812 22.7812 3.71875C22.9219 3.85938 23 4.05106 23 4.25L23 22.25C23 22.4489 22.9219 22.6407 22.7812 22.7812C22.6406 22.9219 22.449 23 22.25 23L2.75 23C2.55106 23 2.35937 22.9219 2.21875 22.7812C2.07812 22.6406 2 22.4489 2 22.25L2 4.25C2 4.0511 2.07809 3.85941 2.21875 3.71875C2.35939 3.57811 2.55109 3.5 2.75 3.5Z" fill="currentColor" fill-rule="evenodd" opacity="1" stroke="none"/>
  <path d="M5.75 18.5C5.33579 18.5 5 18.8358 5 19.25C5 19.6642 5.33579 20 5.75 20L16.25 20C16.6642 20 17 19.6642 17 19.25C17 18.8358 16.6642 18.5 16.25 18.5L5.75 18.5Z" fill="currentColor" fill-rule="evenodd" opacity="1" stroke="none"/>
  <path d="M5.75 14C5.33579 14 5 14.3358 5 14.75C5 15.1642 5.33579 15.5 5.75 15.5L19.25 15.5C19.6642 15.5 20 15.1642 20 14.75C20 14.3358 19.6642 14 19.25 14L5.75 14Z" fill="currentColor" fill-rule="evenodd" opacity="1" stroke="none"/>
  <path d="M14.75 9.5C14.3358 9.5 14 9.83579 14 10.25C14 10.6642 14.3358 11 14.75 11L19.25 11C19.6642 11 20 10.6642 20 10.25C20 9.83579 19.6642 9.5 19.25 9.5L14.75 9.5Z" fill="currentColor" fill-rule="evenodd" opacity="1" stroke="none"/>
</svg>
