<svg width="17" height="16" viewBox="0 0 17 16" fill="none" xmlns="http://www.w3.org/2000/svg">
<path d="M15.5719 6.85712C15.7926 6.72012 15.9794 6.53473 16.118 6.31496C16.2566 6.09519 16.3434 5.8468 16.3719 5.58855C16.3993 5.33246 16.3694 5.07348 16.2844 4.83036C16.1994 4.58724 16.0615 4.36606 15.8805 4.18283L12.2119 0.525688C12.0316 0.346725 11.8139 0.21005 11.5744 0.125547C11.3348 0.0410433 11.0795 0.0108232 10.8269 0.0370714C10.5742 0.0633196 10.3306 0.14538 10.1135 0.277319C9.8965 0.409259 9.71149 0.58778 9.57189 0.799974L7.22903 4.35426L2.31474 5.49712C2.09511 5.5481 1.89304 5.65669 1.72932 5.81172C1.56561 5.96675 1.44617 6.16262 1.38331 6.37914C1.32045 6.59567 1.31643 6.82504 1.37167 7.04364C1.42691 7.26224 1.53942 7.46216 1.6976 7.62283L8.7376 14.6514C8.97322 14.89 9.29372 15.0256 9.62903 15.0285C9.74556 15.0271 9.86118 15.0078 9.97189 14.9714C10.1889 14.9094 10.3856 14.7911 10.5422 14.6285C10.6987 14.466 10.8095 14.2649 10.8633 14.0457L12.0062 9.1314L15.5719 6.85712Z" fill="#5B6577"/>
<path d="M3.48057 11.6571C3.45492 11.6298 3.42394 11.608 3.38954 11.5931C3.35514 11.5782 3.31805 11.5706 3.28057 11.5706C3.24309 11.5706 3.206 11.5782 3.1716 11.5931C3.1372 11.608 3.10622 11.6298 3.08057 11.6571L0.703428 14.0229C0.49057 14.237 0.371094 14.5266 0.371094 14.8286C0.371094 15.1305 0.49057 15.4202 0.703428 15.6343C0.809672 15.7414 0.936073 15.8264 1.07534 15.8844C1.21461 15.9425 1.36399 15.9723 1.51486 15.9723C1.66573 15.9723 1.81511 15.9425 1.95437 15.8844C2.09364 15.8264 2.22004 15.7414 2.32629 15.6343L4.692 13.2686C4.71933 13.2429 4.74112 13.2119 4.75601 13.1775C4.7709 13.1431 4.77858 13.1061 4.77858 13.0686C4.77858 13.0311 4.7709 12.994 4.75601 12.9596C4.74112 12.9252 4.71933 12.8942 4.692 12.8686L3.48057 11.6571Z" fill="#5B6577"/>
</svg>
