<svg width="25" height="25" viewBox="0 0 25 25" fill="none" xmlns="http://www.w3.org/2000/svg">

<path d="M23.75 6.5V20.75C23.75 21.3467 23.5129 21.919 23.091 22.341C22.669 22.7629 22.0967 23 21.5 23C20.9033 23 20.331 22.7629 19.909 22.341C19.4871 21.919 19.25 21.3467 19.25 20.75V3.5C19.25 3.10218 19.092 2.72064 18.8107 2.43934C18.5294 2.15804 18.1478 2 17.75 2H2.75C2.35218 2 1.97064 2.15804 1.68934 2.43934C1.40804 2.72064 1.25 3.10218 1.25 3.5V20.75C1.25 21.3467 1.48705 21.919 1.90901 22.341C2.33097 22.7629 2.90326 23 3.5 23H21.5" stroke="white" stroke-width="2" stroke-linecap="round" stroke-linejoin="round"/>
<path fill-rule="evenodd" clip-rule="evenodd" d="M19.5 2.5H1.5V22.5H19.5V2.5ZM5 14.75C4.58579 14.75 4.25 15.0858 4.25 15.5C4.25 15.9142 4.58579 16.25 5 16.25H15.5C15.9142 16.25 16.25 15.9142 16.25 15.5C16.25 15.0858 15.9142 14.75 15.5 14.75H5ZM4.25 18.5C4.25 18.0858 4.58579 17.75 5 17.75H11C11.4142 17.75 11.75 18.0858 11.75 18.5C11.75 18.9142 11.4142 19.25 11 19.25H5C4.58579 19.25 4.25 18.9142 4.25 18.5ZM5 5C4.58579 5 4.25 5.33579 4.25 5.75V11.75C4.25 12.1642 4.58579 12.5 5 12.5H15.5C15.9142 12.5 16.25 12.1642 16.25 11.75V5.75C16.25 5.33579 15.9142 5 15.5 5H5ZM5.75 11V6.5H14.75V11H5.75Z" fill="white"/>






</svg>
