<svg width="25" height="25" viewBox="0 0 25 25" fill="none" xmlns="http://www.w3.org/2000/svg">

<path d="M12.4994 0.5C10.3665 0.500238 8.2722 1.06895 6.43215 2.14757C4.59211 3.22619 3.0728 4.77575 2.03066 6.6367C0.988514 8.49765 0.461198 10.6027 0.503002 12.7352C0.544807 14.8677 1.15422 16.9505 2.2685 18.7691L0.554215 23.3429C0.50579 23.4725 0.489459 23.6119 0.506617 23.7492C0.523775 23.8864 0.573912 24.0175 0.652745 24.1312C0.731578 24.2449 0.836764 24.3379 0.959316 24.4021C1.08187 24.4663 1.21814 24.4999 1.3565 24.5C1.40825 24.5005 1.45993 24.4959 1.51079 24.4863L7.49879 23.396C9.06503 24.1247 10.7719 24.5016 12.4994 24.5C15.682 24.5 18.7342 23.2357 20.9846 20.9853C23.2351 18.7348 24.4994 15.6826 24.4994 12.5C24.4994 9.3174 23.2351 6.26516 20.9846 4.01472C18.7342 1.76428 15.682 0.5 12.4994 0.5V0.5ZM8.21364 12.5891C8.19078 13.0282 8.00013 13.4416 7.68108 13.7441C7.36203 14.0466 6.93898 14.2149 6.49936 14.2143H6.4085C6.07022 14.1959 5.74497 14.0777 5.47382 13.8746C5.20267 13.6715 4.99778 13.3926 4.88502 13.0731C4.77225 12.7537 4.75667 12.408 4.84023 12.0797C4.9238 11.7513 5.10277 11.4552 5.35455 11.2285C5.60633 11.0018 5.91962 10.8548 6.25487 10.8061C6.59013 10.7573 6.93231 10.809 7.23821 10.9546C7.54412 11.1002 7.80003 11.3331 7.97364 11.624C8.14724 11.915 8.23076 12.2508 8.21364 12.5891V12.5891ZM14.2136 12.5891C14.1908 13.0282 14.0001 13.4416 13.6811 13.7441C13.362 14.0466 12.939 14.2149 12.4994 14.2143H12.4085C12.1831 14.2027 11.9622 14.1467 11.7586 14.0495C11.5549 13.9523 11.3724 13.8159 11.2216 13.648C11.0707 13.4801 10.9545 13.2841 10.8796 13.0712C10.8047 12.8583 10.7726 12.6328 10.7851 12.4074C10.8033 12.069 10.9214 11.7436 11.1245 11.4723C11.3276 11.201 11.6066 10.996 11.9262 10.8831C12.2458 10.7703 12.5916 10.7548 12.92 10.8384C13.2484 10.9221 13.5447 11.1012 13.7714 11.3531C13.9235 11.5195 14.0409 11.7144 14.1168 11.9266C14.1928 12.1389 14.2257 12.3641 14.2136 12.5891ZM20.2136 12.5891C20.1908 13.0282 20.0001 13.4416 19.6811 13.7441C19.362 14.0466 18.939 14.2149 18.4994 14.2143H18.4068C18.1816 14.2025 17.9609 14.1463 17.7574 14.049C17.5539 13.9517 17.3716 13.8153 17.2209 13.6474C17.0703 13.4796 16.9542 13.2836 16.8794 13.0709C16.8047 12.8581 16.7726 12.6326 16.7851 12.4074C16.8129 11.9543 17.0178 11.5303 17.3556 11.2269C17.6933 10.9235 18.1367 10.7651 18.5902 10.7857C18.8153 10.7973 19.0359 10.8532 19.2393 10.9502C19.4428 11.0472 19.6251 11.1833 19.7759 11.3508C19.9267 11.5183 20.043 11.7139 20.1181 11.9264C20.1932 12.1389 20.2257 12.3641 20.2136 12.5891Z" fill="white"/>






</svg>
