<svg width="24" height="25" viewBox="0 0 24 25" fill="none" xmlns="http://www.w3.org/2000/svg">

<path d="M4.5 8.75V5.75C4.5 5.35218 4.65804 4.97064 4.93934 4.68934C5.22064 4.40804 5.60218 4.25 6 4.25C6.39782 4.25 6.77936 4.40804 7.06066 4.68934C7.34196 4.97064 7.5 5.35218 7.5 5.75V8.75" stroke="white" stroke-width="1.5" stroke-linecap="round" stroke-linejoin="round"/>
<path d="M4.5 7.25H7.5" stroke="white" stroke-width="1.5" stroke-linecap="round" stroke-linejoin="round"/>
<path fill-rule="evenodd" clip-rule="evenodd" d="M9.65901 8.65901C10.081 8.23705 10.6533 8 11.25 8H21.75C22.3467 8 22.919 8.23705 23.341 8.65901C23.7629 9.08097 24 9.65326 24 10.25V17.75C24 18.3467 23.7629 18.919 23.341 19.341C22.919 19.7629 22.3467 20 21.75 20H21V23.75C21 24.0533 20.8173 24.3268 20.537 24.4429C20.2568 24.559 19.9342 24.4948 19.7197 24.2803L15.4393 20H11.25C10.6533 20 10.081 19.7629 9.65901 19.341C9.23705 18.919 9 18.3467 9 17.75V10.25C9 9.65326 9.23705 9.08097 9.65901 8.65901ZM16.5 10.25C16.9142 10.25 17.25 10.5858 17.25 11V11.75H17.985C17.9951 11.7498 18.0051 11.7498 18.0152 11.75H19.5C19.9142 11.75 20.25 12.0858 20.25 12.5C20.25 12.9142 19.9142 13.25 19.5 13.25H18.515C18.4822 13.3289 18.4452 13.4152 18.4041 13.5077C18.2051 13.9554 17.9044 14.5581 17.499 15.166C17.4803 15.1941 17.4613 15.2224 17.4419 15.2507C17.6553 15.4789 17.9019 15.6751 18.174 15.8323C18.5949 16.0754 19.0658 16.2189 19.5507 16.2517C19.964 16.2797 20.2763 16.6374 20.2483 17.0507C20.2203 17.4639 19.8626 17.7763 19.4493 17.7483C18.7359 17.7 18.0429 17.4888 17.4237 17.1311C17.0789 16.932 16.7621 16.6903 16.4802 16.4127C15.7241 17.1524 14.7341 17.75 13.5 17.75C13.0858 17.75 12.75 17.4142 12.75 17C12.75 16.5858 13.0858 16.25 13.5 16.25C14.4251 16.25 15.2286 15.6605 15.8886 14.8323C15.9027 14.8124 15.9179 14.7932 15.934 14.7746C16.0438 14.6337 16.1495 14.4862 16.251 14.334C16.5012 13.9587 16.7076 13.5806 16.8694 13.25H16.5H13.5C13.0858 13.25 12.75 12.9142 12.75 12.5C12.75 12.0858 13.0858 11.75 13.5 11.75H15.75V11C15.75 10.5858 16.0858 10.25 16.5 10.25Z" fill="white"/>
<path d="M6.75 13.25L3.75 16.25V11.75H2.25C1.85218 11.75 1.47064 11.592 1.18934 11.3107C0.908035 11.0294 0.75 10.6478 0.75 10.25V2.75C0.75 2.35218 0.908035 1.97064 1.18934 1.68934C1.47064 1.40804 1.85218 1.25 2.25 1.25H12.75C13.1478 1.25 13.5294 1.40804 13.8107 1.68934C14.092 1.97064 14.25 2.35218 14.25 2.75V5.75" stroke="white" stroke-width="1.5" stroke-linecap="round" stroke-linejoin="round"/>






</svg>
