<svg width="25" height="25" viewBox="0 0 25 25" fill="none" xmlns="http://www.w3.org/2000/svg">
<g clip-path="url(#clip0_3778_26955)">
<path d="M22 3.5H3.5C2.39543 3.5 1.5 4.39543 1.5 5.5V20C1.5 21.1046 2.39543 22 3.5 22H22C23.1046 22 24 21.1046 24 20V5.5C24 4.39543 23.1046 3.5 22 3.5Z" stroke="white" stroke-width="1.5" stroke-linecap="round" stroke-linejoin="round"/>
<path d="M1.5 8H24" stroke="white" stroke-width="1.5" stroke-linecap="round" stroke-linejoin="round"/>
<path d="M1.5 15H24" stroke="white" stroke-width="1.5" stroke-linecap="round" stroke-linejoin="round"/>
<path d="M9 8V22" stroke="white" stroke-width="1.5" stroke-linecap="round" stroke-linejoin="round"/>
<path d="M16.5 8V22" stroke="white" stroke-width="1.5" stroke-linecap="round" stroke-linejoin="round"/>
<path fill-rule="evenodd" clip-rule="evenodd" d="M2 8.4375H9V21.7188H2V8.4375ZM3.5 11.5C3.5 11.0858 3.83579 10.75 4.25 10.75H6.25C6.66421 10.75 7 11.0858 7 11.5C7 11.9142 6.66421 12.25 6.25 12.25H4.25C3.83579 12.25 3.5 11.9142 3.5 11.5ZM4.25 17.75C3.83579 17.75 3.5 18.0858 3.5 18.5C3.5 18.9142 3.83579 19.25 4.25 19.25H6.25C6.66421 19.25 7 18.9142 7 18.5C7 18.0858 6.66421 17.75 6.25 17.75H4.25Z" fill="white"/>
</g>
<defs>
<clipPath id="clip0_3778_26955">
<rect width="24.5" height="24.5" fill="white" transform="translate(0.5 0.5)"/>
</clipPath>
</defs>
</svg>
