<svg width="25" height="25" viewBox="0 0 25 25" fill="none" xmlns="http://www.w3.org/2000/svg">
<g clip-path="url(#clip0_3778_26951)">
<path d="M12.5 12.736C12.5 12.736 14.217 10.154 19.987 10.008C20.0537 10.0062 20.1202 10.0179 20.1823 10.0422C20.2445 10.0666 20.3012 10.1031 20.349 10.1498C20.3968 10.1964 20.4348 10.2521 20.4607 10.3136C20.4867 10.3751 20.5 10.4412 20.5 10.508V20.773C20.5 20.9035 20.449 21.0289 20.3578 21.1224C20.2666 21.2158 20.1425 21.2698 20.012 21.273C14.222 21.412 12.5 24 12.5 24V12.736C12.5 12.736 10.783 10.154 5.013 10.008C4.94625 10.0062 4.87983 10.0179 4.81766 10.0422C4.75549 10.0666 4.69883 10.1031 4.65101 10.1498C4.6032 10.1964 4.5652 10.2521 4.53926 10.3136C4.51333 10.3751 4.49998 10.4412 4.5 10.508V20.773C4.49996 20.9035 4.55099 21.0289 4.64218 21.1224C4.73337 21.2158 4.85748 21.2698 4.988 21.273C10.778 21.412 12.5 24 12.5 24" fill="white"/>
<path d="M12.5 12.736C12.5 12.736 14.217 10.154 19.987 10.008C20.0537 10.0062 20.1202 10.0179 20.1823 10.0422C20.2445 10.0666 20.3012 10.1031 20.349 10.1498C20.3968 10.1964 20.4348 10.2521 20.4607 10.3136C20.4867 10.3751 20.5 10.4412 20.5 10.508V20.773C20.5 20.9035 20.449 21.0289 20.3578 21.1224C20.2666 21.2158 20.1425 21.2698 20.012 21.273C14.222 21.412 12.5 24 12.5 24V12.736ZM12.5 12.736C12.5 12.736 10.783 10.154 5.013 10.008C4.94625 10.0062 4.87983 10.0179 4.81766 10.0422C4.75549 10.0666 4.69883 10.1031 4.65101 10.1498C4.6032 10.1964 4.5652 10.2521 4.53926 10.3136C4.51333 10.3751 4.49998 10.4412 4.5 10.508V20.773C4.49996 20.9035 4.55099 21.0289 4.64218 21.1224C4.73337 21.2158 4.85748 21.2698 4.988 21.273C10.778 21.412 12.5 24 12.5 24" stroke="white" stroke-width="1.5" stroke-linecap="round" stroke-linejoin="round"/>
<path d="M1.5 8.00098L12.5 1.00098L23.5 8.00098" stroke="white" stroke-width="1.5" stroke-linecap="round" stroke-linejoin="round"/>
<path d="M17.5 2.00098H20.5V4.00098" stroke="white" stroke-width="1.5" stroke-linecap="round" stroke-linejoin="round"/>
</g>
<defs>
<clipPath id="clip0_3778_26951">
<rect width="24" height="24" fill="white" transform="translate(0.5 0.5)"/>
</clipPath>
</defs>
</svg>
