<svg width="25" height="25" viewBox="0 0 25 25" fill="none" xmlns="http://www.w3.org/2000/svg">

<path d="M5.03125 9.25C4.8655 9.24553 4.68671 9.28299 4.53125 9.34375C4.37486 9.40513 4.24456 9.50824 4.125 9.625C4.00604 9.74095 3.90859 9.87752 3.84375 10.0312C3.77886 10.1852 3.74995 10.3331 3.75 10.5L3.75 20.7812C3.7499 21.1073 3.86592 21.4226 4.09375 21.6562C4.32193 21.89 4.64268 22.0233 4.96875 22.0312C7.3231 22.0878 9.1412 22.5423 10.4688 23.2812C10.9488 23.5485 11.3057 23.8487 11.5938 24.125C11.7534 24.2782 11.8478 24.3654 11.875 24.4062C12.1045 24.7511 12.5614 24.8545 12.9062 24.625C13.1469 24.4649 13.2466 24.2782 13.4062 24.125C13.6943 23.8487 14.0512 23.5485 14.5312 23.2812C15.8588 22.5423 17.6773 22.0878 20.0312 22.0312C20.3577 22.0232 20.6784 21.8896 20.9062 21.6562C21.1343 21.4224 21.25 21.1074 21.25 20.7812L21.25 10.5C21.25 10.3329 21.2213 10.1852 21.1562 10.0312C21.0919 9.87834 20.9945 9.74153 20.875 9.625C20.756 9.5087 20.6243 9.40476 20.4688 9.34375C20.3127 9.28267 20.1358 9.24549 19.9688 9.25C17.3902 9.31525 15.352 9.8613 13.8125 10.7188C13.1114 11.1092 12.8458 11.4621 12.5 11.8125C12.1654 11.4607 11.8886 11.1092 11.1875 10.7188C9.64795 9.8613 7.61109 9.31528 5.03125 9.25Z" fill="#ffffff" fill-rule="evenodd" opacity="1" stroke="none"/>
<path d="M12.0938 0.375L1.09375 7.375C0.744294 7.59738 0.652619 8.05679 0.875 8.40625C1.09738 8.75571 1.55679 8.84738 1.90625 8.625L12.5 1.875L23.0938 8.625C23.4432 8.84738 23.9026 8.75571 24.125 8.40625C24.3474 8.05679 24.2557 7.59738 23.9062 7.375L12.9062 0.375C12.6606 0.218661 12.3394 0.218661 12.0938 0.375Z" fill="#ffffff" fill-rule="evenodd" opacity="1" stroke="none"/>
<path d="M17.5 1.25C17.0858 1.25 16.75 1.58579 16.75 2C16.75 2.41421 17.0858 2.75 17.5 2.75L19.75 2.75L19.75 4C19.75 4.41421 20.0858 4.75 20.5 4.75C20.9142 4.75 21.25 4.41421 21.25 4L21.25 2C21.25 1.58579 20.9142 1.25 20.5 1.25L17.5 1.25Z" fill="#ffffff" fill-rule="evenodd" opacity="1" stroke="none"/>

</svg>
