<svg width="25" height="25" viewBox="0 0 25 25" fill="none" xmlns="http://www.w3.org/2000/svg">

<path d="M18.381 3.9036C17.972 3.96932 17.6938 4.35414 17.7595 4.7631C17.8252 5.17207 18.21 5.45032 18.619 5.38459L18.381 3.9036ZM23.232 4.2501L23.2371 5.00011L23.2435 5.00001L23.232 4.2501ZM23.598 4.3941L24.12 3.85554L24.1174 3.85308L23.598 4.3941ZM23.75 4.7501L24.5 4.7501L24.5 4.74555L23.75 4.7501ZM23.75 20.5181L24.5 20.5255V20.5181H23.75ZM23.25 21.0181L23.2426 20.2681L23.2407 20.2682L23.25 21.0181ZM12.5 23.7501H11.75C11.75 24.0581 11.9383 24.3347 12.2247 24.4478C12.5112 24.5608 12.8377 24.4872 13.048 24.2622L12.5 23.7501ZM12.5 6.9821H13.25C13.25 6.79191 13.1777 6.60883 13.0479 6.4699L12.5 6.9821ZM1.768 4.2501L1.75363 4.99997L1.7584 5.00003L1.768 4.2501ZM1.4 4.3941L0.880495 3.8531L0.875002 3.85849L1.4 4.3941ZM1.25 4.7501L0.5 4.74849V4.7501H1.25ZM1.25 20.5181L0.499964 20.5181L0.500036 20.5255L1.25 20.5181ZM1.75 21.0181L1.75931 20.2682L1.75739 20.2681L1.75 21.0181ZM11.952 24.2622C12.2349 24.5648 12.7095 24.5809 13.0121 24.298C13.3147 24.0152 13.3308 23.5406 13.048 23.238L11.952 24.2622ZM18.619 5.38459C20.1463 5.13913 21.6902 5.01059 23.2371 5.00008L23.2269 3.50011C21.6037 3.51114 19.9837 3.64603 18.381 3.9036L18.619 5.38459ZM23.2435 5.00001C23.1821 5.00095 23.1229 4.97763 23.0786 4.93511L24.1174 3.85308C23.8766 3.62188 23.5543 3.49506 23.2205 3.50018L23.2435 5.00001ZM23.076 4.93264C23.0522 4.90951 23.0331 4.88186 23.0201 4.85129L24.3996 4.26229C24.3344 4.10947 24.2393 3.97119 24.12 3.85555L23.076 4.93264ZM23.0201 4.85129C23.007 4.82073 23.0002 4.78787 23 4.75464L24.5 4.74555C24.499 4.57939 24.4649 4.4151 24.3996 4.26229L23.0201 4.85129ZM23 4.7501V20.5181H24.5V4.7501H23ZM23 20.5107C23.0007 20.4466 23.0264 20.3852 23.0718 20.3399L24.1324 21.4005C24.3648 21.1682 24.4967 20.854 24.5 20.5255L23 20.5107ZM23.0718 20.3399C23.1171 20.2945 23.1785 20.2688 23.2426 20.2681L23.2574 21.7681C23.5859 21.7648 23.9001 21.6329 24.1324 21.4005L23.0718 20.3399ZM23.2407 20.2682C19.0157 20.3206 16.2336 21.0172 14.483 21.7278C13.608 22.083 12.9935 22.4406 12.5879 22.7202C12.3852 22.8599 12.2352 22.9797 12.1313 23.0696C12.0793 23.1145 12.039 23.1518 12.0094 23.1803C11.9946 23.1946 11.9825 23.2066 11.9729 23.2163C11.9682 23.2211 11.9641 23.2254 11.9606 23.229C11.9588 23.2308 11.9573 23.2325 11.9558 23.234C11.9551 23.2347 11.9545 23.2354 11.9538 23.2361C11.9535 23.2364 11.9531 23.2369 11.9529 23.2371C11.9525 23.2375 11.952 23.238 12.5 23.7501C13.048 24.2622 13.0475 24.2626 13.0471 24.2631C13.047 24.2632 13.0466 24.2636 13.0464 24.2639C13.0459 24.2644 13.0455 24.2648 13.0451 24.2653C13.0442 24.2661 13.0436 24.2668 13.043 24.2674C13.042 24.2685 13.0415 24.269 13.0417 24.2688C13.042 24.2685 13.0447 24.2658 13.0499 24.2608C13.0603 24.2507 13.0808 24.2315 13.1123 24.2043C13.1751 24.1499 13.2819 24.0636 13.4391 23.9552C13.7533 23.7387 14.2713 23.4326 15.0472 23.1176C16.5984 22.488 19.1913 21.8186 23.2593 21.768L23.2407 20.2682ZM13.25 23.7501V6.9821H11.75V23.7501H13.25ZM12.5 6.9821C13.0479 6.4699 13.0474 6.46945 13.047 6.46898C13.0469 6.46882 13.0464 6.46834 13.0461 6.46801C13.0455 6.46733 13.0448 6.46662 13.0441 6.46587C13.0427 6.46437 13.0411 6.46272 13.0393 6.46091C13.0359 6.45729 13.0318 6.45306 13.027 6.44823C13.0175 6.43858 13.0054 6.42655 12.9906 6.41232C12.961 6.38384 12.9207 6.34654 12.8689 6.30169C12.7651 6.21196 12.6152 6.09222 12.4128 5.95266C12.0076 5.67332 11.3939 5.316 10.5202 4.96101C8.77224 4.2508 5.99462 3.55416 1.7776 3.50016L1.7584 5.00003C5.81838 5.05203 8.40677 5.72139 9.95556 6.35068C10.7302 6.66544 11.2476 6.97125 11.5614 7.1876C11.7184 7.29588 11.825 7.38212 11.8878 7.43642C11.9193 7.46358 11.9398 7.4828 11.9502 7.49284C11.9554 7.49786 11.9581 7.5006 11.9584 7.50089C11.9585 7.50103 11.9581 7.50057 11.957 7.49947C11.9565 7.49893 11.9558 7.49822 11.955 7.49736C11.9546 7.49693 11.9542 7.49646 11.9537 7.49594C11.9534 7.49569 11.9531 7.49527 11.9529 7.49515C11.9525 7.49472 11.9521 7.49429 12.5 6.9821ZM1.78237 3.50023C1.44689 3.4938 1.12255 3.62072 0.880522 3.85313L1.91948 4.93506C1.87497 4.9778 1.81532 5.00114 1.75363 4.99996L1.78237 3.50023ZM0.875002 3.85849C0.756593 3.97455 0.662457 4.11301 0.598077 4.26581L1.98038 4.84824C1.96751 4.8788 1.94868 4.90649 1.925 4.9297L0.875002 3.85849ZM0.598077 4.26581C0.533696 4.4186 0.500357 4.58268 0.500002 4.74849L2 4.7517C1.99993 4.78486 1.99326 4.81768 1.98038 4.84824L0.598077 4.26581ZM0.5 4.7501V20.5181H2V4.7501H0.5ZM0.500036 20.5255C0.503274 20.854 0.635226 21.1682 0.867556 21.4005L1.92822 20.3399C1.97357 20.3852 1.99933 20.4466 1.99996 20.5107L0.500036 20.5255ZM0.867556 21.4005C1.09989 21.6329 1.41406 21.7648 1.74261 21.7681L1.75739 20.2681C1.82153 20.2688 1.88286 20.2945 1.92822 20.3399L0.867556 21.4005ZM1.74069 21.768C5.80871 21.8186 8.40157 22.488 9.95279 23.1176C10.7287 23.4326 11.2467 23.7387 11.5609 23.9552C11.7181 24.0636 11.8249 24.1499 11.8877 24.2043C11.9192 24.2315 11.9397 24.2507 11.9501 24.2608C11.9553 24.2658 11.958 24.2685 11.9583 24.2688C11.9585 24.269 11.958 24.2685 11.957 24.2674C11.9564 24.2668 11.9558 24.2661 11.9549 24.2653C11.9545 24.2648 11.9541 24.2644 11.9536 24.2639C11.9534 24.2636 11.953 24.2632 11.9529 24.2631C11.9525 24.2626 11.952 24.2622 12.5 23.7501C13.048 23.238 13.0475 23.2375 13.0471 23.2371C13.0469 23.2369 13.0465 23.2364 13.0462 23.2361C13.0455 23.2354 13.0449 23.2347 13.0442 23.234C13.0427 23.2325 13.0412 23.2308 13.0394 23.229C13.0359 23.2254 13.0318 23.2211 13.0271 23.2163C13.0175 23.2066 13.0054 23.1946 12.9906 23.1803C12.961 23.1518 12.9207 23.1145 12.8687 23.0696C12.7648 22.9797 12.6148 22.8599 12.4121 22.7202C12.0065 22.4406 11.392 22.083 10.517 21.7278C8.76643 21.0172 5.98429 20.3206 1.75931 20.2682L1.74069 21.768Z" fill="white"/>
<path d="M12.5 7.2321V24.0001C12.5 24.0001 10.043 21.3711 1.75 21.2681C1.6178 21.2668 1.49137 21.2137 1.39789 21.1202C1.3044 21.0267 1.2513 20.9003 1.25 20.7681V5.0001C1.25014 4.93377 1.26348 4.86814 1.28923 4.80702C1.31498 4.7459 1.35264 4.69052 1.4 4.6441C1.49876 4.54926 1.6311 4.49747 1.768 4.5001C10.045 4.6061 12.5 7.2321 12.5 7.2321Z" fill="white"/>
<path d="M12.5 23.257C12.658 21.9609 13.232 20.7511 14.136 19.809C15.2992 18.5542 16.8246 17.6933 18.5 17.346V1.74298C18.4985 1.66256 18.4768 1.58381 18.437 1.51393C18.3971 1.44405 18.3404 1.38527 18.272 1.34298C18.1992 1.29722 18.1174 1.26765 18.0322 1.25626C17.9469 1.24487 17.8603 1.25194 17.778 1.27698C16.3748 1.68018 15.113 2.46909 14.136 3.55398C13.2324 4.49555 12.5 6.99998 12.5 6.99998" fill="white"/>
<path fill-rule="evenodd" clip-rule="evenodd" d="M17.5662 0.557488C17.7493 0.50277 17.942 0.48755 18.1315 0.512866C18.3224 0.538369 18.5056 0.604415 18.6688 0.706557C18.8428 0.814681 18.9871 0.964528 19.0886 1.14253C19.1905 1.32136 19.246 1.52291 19.2499 1.72873L19.25 1.74298V17.346C19.25 17.7015 19.0004 18.0082 18.6522 18.0804C17.1296 18.396 15.7432 19.1785 14.686 20.3189L14.6773 20.3283C13.8856 21.1533 13.3829 22.2128 13.2445 23.3477C13.1965 23.7414 12.8504 24.0296 12.4545 24.0056C12.0587 23.9816 11.75 23.6535 11.75 23.257V6.99998C11.75 6.92873 11.7602 6.85784 11.7802 6.78946L12.5 6.99998C11.7802 6.78946 11.7801 6.78956 11.7802 6.78946L11.7811 6.78632L11.7831 6.77958L11.7902 6.75564C11.7964 6.73516 11.8053 6.70579 11.8168 6.66852C11.8399 6.59401 11.8736 6.48774 11.9167 6.35776C12.0028 6.09841 12.1275 5.74162 12.2823 5.35271C12.5753 4.61668 13.0257 3.63305 13.5862 3.04375C14.655 1.86004 16.0336 0.998827 17.5662 0.557488ZM13.25 7.11133V19.6778C13.3583 19.5461 13.4718 19.4182 13.5904 19.2944C14.7191 18.0785 16.1599 17.2021 17.75 16.757V2.06984C16.576 2.45198 15.5214 3.13629 14.6933 4.05587C14.688 4.06176 14.6826 4.06756 14.6771 4.07328C14.3381 4.42661 13.9736 5.15964 13.676 5.90743C13.5347 6.26232 13.4199 6.59049 13.3404 6.83014C13.301 6.94893 13.2705 7.04523 13.25 7.11133Z" fill="white"/>






</svg>
