<svg width="25" height="25" viewBox="0 0 25 25" fill="none" xmlns="http://www.w3.org/2000/svg">

<path d="M12.396 20.8672C12.7308 21.5713 13.2175 22.1925 13.821 22.6862" stroke="white" stroke-width="1.5" stroke-linecap="round" stroke-linejoin="round"/>
<path d="M16.655 23.84C17.4314 23.9097 18.2137 23.8073 18.946 23.54" stroke="white" stroke-width="1.5" stroke-linecap="round" stroke-linejoin="round"/>
<path d="M21.384 21.687C21.845 21.058 22.1556 20.3317 22.292 19.564" stroke="white" stroke-width="1.5" stroke-linecap="round" stroke-linejoin="round"/>
<path d="M11.32 4.25876C10.9553 3.52609 10.4212 2.89088 9.76201 2.40576" stroke="white" stroke-width="1.5" stroke-linecap="round" stroke-linejoin="round"/>
<path d="M6.729 1.36897C5.91119 1.35063 5.10079 1.52752 4.365 1.88497" stroke="white" stroke-width="1.5" stroke-linecap="round" stroke-linejoin="round"/>
<path d="M2.03299 4.08496C1.64172 4.80313 1.42328 5.60262 1.39499 6.41996" stroke="white" stroke-width="1.5" stroke-linecap="round" stroke-linejoin="round"/>
<path d="M16.383 11.8638L1.383 11.8638" stroke="white" stroke-width="1.5" stroke-linecap="round" stroke-linejoin="round"/>
<path d="M13.519 9.00098L16.383 11.864L13.519 14.728" stroke="white" stroke-width="1.5" stroke-linecap="round" stroke-linejoin="round"/>
<path d="M21.362 9.61719C21.0665 9.61719 20.7739 9.67539 20.501 9.78846C20.228 9.90153 19.9799 10.0673 19.771 10.2762C19.5621 10.4851 19.3963 10.7332 19.2833 11.0062C19.1702 11.2791 19.112 11.5717 19.112 11.8672C19.112 12.1627 19.1702 12.4552 19.2833 12.7282C19.3963 13.0012 19.5621 13.2492 19.771 13.4582C19.9799 13.6671 20.228 13.8328 20.501 13.9459C20.7739 14.059 21.0665 14.1172 21.362 14.1172C21.6575 14.1172 21.9501 14.059 22.223 13.9459C22.496 13.8328 22.7441 13.6671 22.953 13.4582C23.1619 13.2492 23.3277 13.0012 23.4407 12.7282C23.5538 12.4552 23.612 12.1627 23.612 11.8672C23.612 11.5717 23.5538 11.2791 23.4407 11.0062C23.3277 10.7332 23.1619 10.4851 22.953 10.2762C22.7441 10.0673 22.496 9.90153 22.223 9.78846C21.9501 9.67539 21.6575 9.61719 21.362 9.61719V9.61719Z" fill="white" stroke="white" stroke-width="1.5" stroke-linecap="round" stroke-linejoin="round"/>






</svg>
