<svg width="25" height="25" viewBox="0 0 25 25" fill="none" xmlns="http://www.w3.org/2000/svg">

<path d="M11.046 2.93804C11.2295 3.14173 11.4537 3.3046 11.7042 3.41609C11.9547 3.52757 12.2258 3.58518 12.5 3.58518C12.7741 3.58518 13.0453 3.52757 13.2957 3.41609C13.5462 3.3046 13.7705 3.14173 13.954 2.93804L14.9 1.90004C15.1711 1.59998 15.5284 1.39118 15.923 1.3023C16.3175 1.21341 16.7298 1.24881 17.1034 1.40362C17.477 1.55842 17.7936 1.82506 18.0096 2.16693C18.2256 2.5088 18.3305 2.90915 18.31 3.31304L18.239 4.71303C18.2252 4.98614 18.2689 5.2591 18.367 5.51432C18.4652 5.76954 18.6158 6.00137 18.809 6.19487C19.0022 6.38837 19.2338 6.53925 19.4889 6.6378C19.744 6.73634 20.0169 6.78037 20.29 6.76704L21.69 6.69604C22.0936 6.67614 22.4935 6.78155 22.8349 6.99782C23.1762 7.2141 23.4424 7.53065 23.5968 7.9041C23.7512 8.27755 23.7863 8.68961 23.6974 9.08382C23.6085 9.47802 23.3998 9.83507 23.1 10.106L22.058 11.046C21.8545 11.2298 21.6919 11.4542 21.5806 11.7047C21.4693 11.9553 21.4118 12.2264 21.4118 12.5005C21.4118 12.7747 21.4693 13.0458 21.5806 13.2963C21.6919 13.5469 21.8545 13.7713 22.058 13.955L23.1 14.895C23.4 15.1662 23.6088 15.5235 23.6977 15.918C23.7866 16.3125 23.7512 16.7249 23.5964 17.0985C23.4416 17.4721 23.175 17.7886 22.8331 18.0046C22.4912 18.2207 22.0909 18.3256 21.687 18.305L20.287 18.234C20.0133 18.22 19.7396 18.2635 19.4838 18.3618C19.228 18.4602 18.9957 18.6111 18.8019 18.8049C18.6081 18.9987 18.4571 19.2311 18.3588 19.4869C18.2604 19.7427 18.2169 20.0163 18.231 20.29L18.302 21.69C18.3199 22.0919 18.2136 22.4895 17.9977 22.8289C17.7818 23.1683 17.4666 23.4329 17.095 23.5869C16.7234 23.741 16.3134 23.7768 15.9207 23.6897C15.528 23.6026 15.1716 23.3967 14.9 23.1L13.959 22.059C13.7753 21.8556 13.551 21.693 13.3005 21.5817C13.0501 21.4704 12.7791 21.4129 12.505 21.4129C12.2309 21.4129 11.9599 21.4704 11.7094 21.5817C11.459 21.693 11.2347 21.8556 11.051 22.059L10.106 23.1C9.83479 23.3981 9.47827 23.6053 9.08503 23.6934C8.69178 23.7814 8.28094 23.7461 7.90852 23.5921C7.5361 23.4382 7.22023 23.1731 7.00395 22.8331C6.78767 22.4931 6.68153 22.0946 6.69998 21.692L6.77198 20.292C6.78606 20.0183 6.74252 19.7447 6.64418 19.4889C6.54583 19.2331 6.39488 19.0007 6.20108 18.8069C6.00728 18.6131 5.77495 18.4622 5.51913 18.3638C5.26331 18.2655 4.98969 18.222 4.71598 18.236L3.31598 18.307C2.91226 18.3281 2.51192 18.2237 2.16992 18.0081C1.82791 17.7926 1.56101 17.4765 1.40586 17.1032C1.25071 16.7298 1.21491 16.3177 1.30338 15.9232C1.39185 15.5287 1.60026 15.1713 1.89998 14.9L2.94098 13.96C3.14443 13.7763 3.30706 13.5519 3.41837 13.3013C3.52968 13.0508 3.5872 12.7797 3.5872 12.5055C3.5872 12.2314 3.52968 11.9603 3.41837 11.7097C3.30706 11.4592 3.14443 11.2348 2.94098 11.051L1.89998 10.106C1.60123 9.83504 1.39346 9.47839 1.30508 9.08484C1.2167 8.69129 1.25202 8.28005 1.4062 7.90733C1.56039 7.53461 1.82592 7.21861 2.1665 7.00251C2.50708 6.78642 2.90609 6.68078 3.30898 6.70004L4.70898 6.77104C4.98321 6.78545 5.2574 6.74203 5.51376 6.64357C5.77011 6.54512 6.00289 6.39385 6.19697 6.19958C6.39105 6.00531 6.5421 5.77238 6.6403 5.51594C6.7385 5.25949 6.78166 4.98525 6.76698 4.71104L6.69998 3.31003C6.68109 2.9073 6.78691 2.50854 7.00302 2.16818C7.21913 1.82781 7.535 1.56241 7.90752 1.4082C8.28004 1.25398 8.69107 1.21846 9.08452 1.30649C9.47797 1.39451 9.83468 1.60179 10.106 1.90004L11.046 2.93804Z" stroke="white" stroke-width="1.5" stroke-linecap="round" stroke-linejoin="round"/>
<path fill-rule="evenodd" clip-rule="evenodd" d="M11.7042 3.41609C11.4537 3.3046 11.2295 3.14173 11.046 2.93804L10.106 1.90004C9.83468 1.60179 9.47797 1.39451 9.08452 1.30649C8.69107 1.21846 8.28004 1.25398 7.90752 1.4082C7.535 1.56241 7.21913 1.82781 7.00302 2.16818C6.78691 2.50854 6.68109 2.9073 6.69998 3.31003L6.76698 4.71104C6.78166 4.98525 6.7385 5.25949 6.6403 5.51594C6.5421 5.77238 6.39105 6.00531 6.19697 6.19958C6.00289 6.39385 5.77011 6.54512 5.51376 6.64357C5.2574 6.74203 4.98321 6.78545 4.70898 6.77104L3.30898 6.70004C2.90609 6.68078 2.50708 6.78642 2.1665 7.00251C1.82592 7.21861 1.56039 7.53461 1.4062 7.90733C1.25202 8.28005 1.2167 8.69129 1.30508 9.08484C1.39346 9.47839 1.60123 9.83504 1.89998 10.106L2.94098 11.051C3.14443 11.2348 3.30706 11.4592 3.41837 11.7097C3.52968 11.9603 3.5872 12.2314 3.5872 12.5055C3.5872 12.7797 3.52968 13.0508 3.41837 13.3013C3.30706 13.5519 3.14443 13.7763 2.94098 13.96L1.89998 14.9C1.60026 15.1713 1.39185 15.5287 1.30338 15.9232C1.21491 16.3177 1.25071 16.7298 1.40586 17.1032C1.56101 17.4765 1.82791 17.7926 2.16992 18.0081C2.51192 18.2237 2.91226 18.3281 3.31598 18.307L4.71598 18.236C4.98969 18.222 5.26331 18.2655 5.51913 18.3638C5.77495 18.4622 6.00728 18.6131 6.20108 18.8069C6.39488 19.0007 6.54583 19.2331 6.64418 19.4889C6.74252 19.7447 6.78606 20.0183 6.77198 20.292L6.69998 21.692C6.68153 22.0946 6.78767 22.4931 7.00395 22.8331C7.22023 23.1731 7.5361 23.4382 7.90852 23.5921C8.28094 23.7461 8.69178 23.7814 9.08503 23.6934C9.47827 23.6053 9.83479 23.3981 10.106 23.1L11.051 22.059C11.2347 21.8556 11.459 21.693 11.7094 21.5817C11.9599 21.4704 12.2309 21.4129 12.505 21.4129C12.7791 21.4129 13.0501 21.4704 13.3005 21.5817C13.551 21.693 13.7753 21.8556 13.959 22.059L14.9 23.1C15.1716 23.3967 15.528 23.6026 15.9207 23.6897C16.3134 23.7768 16.7234 23.741 17.095 23.5869C17.4666 23.4329 17.7818 23.1683 17.9977 22.8289C18.2136 22.4895 18.3199 22.0919 18.302 21.69L18.231 20.29C18.2169 20.0163 18.2604 19.7427 18.3588 19.4869C18.4571 19.2311 18.6081 18.9987 18.8019 18.8049C18.9957 18.6111 19.228 18.4602 19.4838 18.3618C19.7396 18.2635 20.0133 18.22 20.287 18.234L21.687 18.305C22.0909 18.3256 22.4912 18.2207 22.8331 18.0046C23.175 17.7886 23.4416 17.4721 23.5964 17.0985C23.7512 16.7249 23.7866 16.3125 23.6977 15.918C23.6088 15.5235 23.4 15.1662 23.1 14.895L22.058 13.955C21.8545 13.7713 21.6919 13.5469 21.5806 13.2963C21.4693 13.0458 21.4118 12.7747 21.4118 12.5005C21.4118 12.2264 21.4693 11.9553 21.5806 11.7047C21.6919 11.4542 21.8545 11.2298 22.058 11.046L23.1 10.106C23.3998 9.83507 23.6085 9.47802 23.6974 9.08382C23.7863 8.68961 23.7512 8.27755 23.5968 7.9041C23.4424 7.53065 23.1762 7.2141 22.8349 6.99782C22.4935 6.78155 22.0936 6.67614 21.69 6.69604L20.29 6.76704C20.0169 6.78037 19.744 6.73634 19.4889 6.6378C19.2338 6.53925 19.0022 6.38837 18.809 6.19487C18.6158 6.00137 18.4652 5.76954 18.367 5.51432C18.2689 5.2591 18.2252 4.98614 18.239 4.71303L18.31 3.31304C18.3305 2.90915 18.2256 2.5088 18.0096 2.16693C17.7936 1.82506 17.477 1.55842 17.1034 1.40362C16.7298 1.24881 16.3175 1.21341 15.923 1.3023C15.5284 1.39118 15.1711 1.59998 14.9 1.90004L13.954 2.93804C13.7705 3.14173 13.5462 3.3046 13.2957 3.41609C13.0453 3.52757 12.7741 3.58518 12.5 3.58518C12.2258 3.58518 11.9547 3.52757 11.7042 3.41609ZM9.31802 15.683C8.47411 14.8391 8 13.6945 8 12.501C8 11.3076 8.47411 10.163 9.31802 9.31905C10.1619 8.47514 11.3065 8.00103 12.5 8.00103C13.6935 8.00103 14.8381 8.47514 15.682 9.31905C16.5259 10.163 17 11.3076 17 12.501C17 13.6945 16.5259 14.8391 15.682 15.683C14.8381 16.5269 13.6935 17.001 12.5 17.001C11.3065 17.001 10.1619 16.5269 9.31802 15.683Z" fill="white"/>






</svg>
