<svg xmlns="http://www.w3.org/2000/svg" width="24" height="24" viewBox="0 0 24 24" fill="none">
  <g clip-path="url(#clip0_118_301)">
    <path fill-rule="evenodd" clip-rule="evenodd"
          d="M19.8625 0.510186C19.0293 0.597411 18.465 0.674192 17.8266 0.787213C17.0353 0.927286 15.9549 1.17064 15.8184 1.23954C15.7436 1.27732 15.6428 1.37782 15.6066 1.45074C15.5483 1.5683 15.5524 1.31423 15.5522 4.83866C15.5521 7.709 15.5538 8.07574 15.5668 8.12588C15.6105 8.29354 15.7482 8.43228 15.9198 8.48155C16.0369 8.51516 16.1893 8.49576 16.2982 8.43339C16.3277 8.41647 16.5923 8.15971 17.0401 7.71331C17.4229 7.33172 17.7544 7.00826 17.7767 6.9945C17.7991 6.98073 17.8495 6.95867 17.8888 6.94547C17.9752 6.91646 18.1013 6.91274 18.1832 6.93679C18.3155 6.97567 18.3051 6.96642 19.0369 7.69513C19.5651 8.22105 19.7344 8.38415 19.7713 8.40259C19.9228 8.47818 20.0905 8.47635 20.2409 8.39748C20.3185 8.3568 20.4093 8.2643 20.4471 8.18734C20.5088 8.06161 20.5054 8.19073 20.5056 5.98409C20.5057 4.00864 20.506 3.97531 20.5248 3.9146C20.5618 3.7949 20.6562 3.68262 20.7672 3.62645C20.8682 3.57534 20.9051 3.57108 21.2465 3.57108C21.4382 3.57108 21.5806 3.57521 21.6117 3.58166C21.7953 3.61984 21.9579 3.78916 21.9934 3.97908C22.0013 4.02134 22.0034 5.8444 22.0013 10.8239C21.9986 17.392 21.9979 17.6128 21.9808 17.6639C21.9198 17.8458 21.7872 17.9723 21.6145 18.0133C21.5764 18.0224 21.4421 18.0307 21.2166 18.0379C18.9493 18.1105 16.7318 18.5085 14.5825 19.2285C14.2391 19.3436 13.8065 19.4994 13.6612 19.5603C13.5305 19.6151 13.4017 19.6133 13.2783 19.555C13.17 19.5037 13.0777 19.3951 13.0344 19.2678L13.0129 19.2047L13.0105 12.6003C13.0084 6.86962 13.0099 5.98876 13.0219 5.94182C13.0444 5.85382 13.0986 5.77372 13.2139 5.65784C13.3317 5.53933 13.4972 5.41272 13.6797 5.30141C13.8632 5.18951 13.9544 5.08324 13.9865 4.94388C13.9928 4.91642 13.9965 4.66617 13.9967 4.25709C13.9969 3.55529 13.9969 3.55475 13.9414 3.45242C13.9094 3.39352 13.8347 3.31029 13.7819 3.27473C13.7101 3.22646 13.6432 3.20463 13.5505 3.1993C13.4302 3.19237 13.3802 3.20754 13.1502 3.3208C12.8876 3.45008 12.6886 3.56475 12.4417 3.72904C12.3282 3.80457 12.2171 3.87557 12.1947 3.88681C12.1263 3.92127 12.0331 3.93852 11.9469 3.9327C11.8152 3.92382 11.7789 3.90561 11.4944 3.70573C11.0938 3.42428 10.5579 3.14166 9.97063 2.90204C8.35612 2.24331 6.1164 1.78517 3.60012 1.59893C2.62734 1.52693 1.87696 1.50369 1.66689 1.53907C1.2198 1.61435 0.84907 1.81727 0.531492 2.16053C0.238318 2.47743 0.0528935 2.88834 0.0097895 3.31668C0.0020903 3.39318 4.54964e-05 5.4628 0.0023687 10.8287L0.0055655 18.2351L0.0263207 18.3407C0.0559079 18.4913 0.106471 18.6601 0.158369 18.7815C0.43625 19.4315 1.03201 19.8865 1.72999 19.9817C1.78441 19.9891 1.911 19.9979 2.01132 20.0012C2.99479 20.0337 3.90396 20.1006 4.76172 20.2037C6.87449 20.4576 8.71681 20.9387 9.92652 21.5525C10.4794 21.833 10.836 22.1077 10.9546 22.3443C10.9909 22.4168 10.9938 22.4288 11.0019 22.5411C11.0164 22.7411 11.0656 22.8896 11.1686 23.0442C11.3078 23.2528 11.514 23.3976 11.7656 23.4634C11.8833 23.4941 12.1203 23.4948 12.2308 23.4647C12.4921 23.3934 12.6919 23.2536 12.8316 23.0442C12.9342 22.8903 12.9827 22.7443 12.9979 22.5437C13.005 22.4497 13.012 22.4139 13.0315 22.3713C13.1411 22.1319 13.5061 21.8485 14.0734 21.5623C15.8047 20.689 18.6621 20.1176 21.8545 20.0064C22.185 19.9948 22.282 19.9858 22.4339 19.9522C23.2253 19.7772 23.8347 19.1373 23.9718 18.3373C23.9821 18.2774 23.9905 18.2094 23.9905 18.1861C23.9905 18.1629 23.9948 18.1439 24.0001 18.1439C24.0065 18.1439 24.0097 15.6712 24.0096 10.7447C24.0095 6.67511 24.0058 3.35117 24.0014 3.35812C23.9965 3.36588 23.9909 3.34172 23.9871 3.29572C23.9709 3.10385 23.895 2.84125 23.7989 2.64468C23.6942 2.43044 23.5736 2.26407 23.3937 2.08546C23.0867 1.78067 22.7683 1.61581 22.3393 1.53947C22.2624 1.52578 22.1482 1.52232 21.6097 1.51734L20.9713 1.51144L20.9041 1.48503C20.8672 1.4705 20.8067 1.43605 20.7698 1.40845C20.6109 1.28968 20.5371 1.18129 20.5099 1.02695C20.502 0.982141 20.4914 0.921718 20.4863 0.892678C20.456 0.720118 20.2982 0.56217 20.1077 0.513651C20.0455 0.497811 19.9885 0.497005 19.8625 0.510186ZM0.0048935 10.7567C0.0048935 14.8276 0.0059879 16.4944 0.0073223 14.4607C0.0086567 12.427 0.0086567 9.09626 0.0073223 7.05907C0.0059879 5.02188 0.0048935 6.6858 0.0048935 10.7567ZM2.38092 3.51908C2.20447 3.56563 2.08039 3.68131 2.02476 3.85113L2.00172 3.92148V10.7471C2.00172 17.3453 2.00231 17.5746 2.01937 17.6299C2.06999 17.7939 2.17914 17.9108 2.33772 17.9708C2.39119 17.991 2.42144 17.9935 2.76012 18.0052C4.77803 18.0751 6.60202 18.3587 8.47692 18.894C9.06452 19.0618 10.0089 19.3767 10.3177 19.5078C10.3665 19.5286 10.4357 19.5497 10.4713 19.5547C10.7249 19.5907 10.9485 19.4168 10.9918 19.1498C10.9984 19.1092 11.0016 16.9453 11.0016 12.5361C11.0017 6.03632 11.0016 5.9822 10.9828 5.92169C10.8737 5.57101 10.1038 5.08523 9.00964 4.67683C7.48711 4.10852 5.47004 3.71326 3.24492 3.5472C2.64045 3.50209 2.46673 3.49643 2.38092 3.51908ZM3.91384 6.44202C3.60788 6.47757 3.35805 6.69294 3.27173 6.99555C3.24129 7.10223 3.24149 7.27897 3.27215 7.38653C3.34379 7.6379 3.53383 7.8351 3.77581 7.90916C3.84875 7.93149 3.89811 7.93796 4.26252 7.97287C5.6872 8.10935 7.14725 8.39918 8.56812 8.82753C8.85595 8.91429 8.88201 8.92046 8.98142 8.92527C9.36883 8.94398 9.6975 8.6811 9.76398 8.29936C9.78253 8.19282 9.77128 8.04681 9.73656 7.94341C9.66772 7.73844 9.53813 7.58943 9.34857 7.49729C9.30789 7.47751 9.26851 7.45524 9.26105 7.44777C9.23438 7.42111 8.57335 7.23414 8.01132 7.09429C6.87881 6.81249 5.78807 6.61813 4.64652 6.4947C4.40567 6.46866 4.00483 6.43116 3.98892 6.43318C3.98364 6.43386 3.94985 6.43783 3.91384 6.44202ZM19.8481 10.5663C18.6381 10.6572 17.2128 10.8954 15.9457 11.2184C15.4488 11.3451 14.7648 11.5427 14.655 11.5912C14.4736 11.6715 14.3204 11.8414 14.2534 12.0367C14.2293 12.1071 14.2241 12.1391 14.2201 12.2451C14.2143 12.3975 14.2329 12.4863 14.2986 12.6191C14.3917 12.8075 14.553 12.9444 14.7592 13.0099C14.8348 13.034 15.0292 13.0438 15.1109 13.0278C15.143 13.0215 15.2745 12.9844 15.4032 12.9454C16.916 12.4872 18.3653 12.2073 20.0065 12.0567C20.1404 12.0444 20.2624 12.013 20.3423 11.9704C20.569 11.8491 20.7154 11.6361 20.7477 11.3802C20.7985 10.9787 20.487 10.5977 20.0785 10.5616C20.036 10.5578 19.9331 10.56 19.8481 10.5663ZM3.83582 10.6326C3.69801 10.6636 3.53754 10.7543 3.45066 10.8503C3.23401 11.0897 3.18739 11.4033 3.32613 11.6879C3.39937 11.8381 3.5089 11.9504 3.65798 12.0282C3.77139 12.0873 3.84575 12.1033 4.10887 12.125C5.48619 12.2389 6.79416 12.4631 8.09151 12.8075C8.32592 12.8698 8.69628 12.9752 8.81772 13.0143C8.92959 13.0503 9.10172 13.0562 9.21896 13.0282C9.67209 12.9199 9.91784 12.435 9.73744 12.0052C9.66779 11.8392 9.52223 11.6905 9.35664 11.616C9.26412 11.5744 9.25452 11.5726 9.25452 11.5971C9.25452 11.6098 9.24984 11.6162 9.24252 11.6134C9.21039 11.6012 8.85063 11.4946 8.65452 11.4391C7.27615 11.0494 5.84213 10.7826 4.39212 10.6461C4.09438 10.6181 3.9195 10.6138 3.83582 10.6326ZM19.7809 14.7795C18.3985 14.912 17.3865 15.0778 16.1822 15.3692C15.6073 15.5082 14.7862 15.7422 14.6743 15.7988C14.4772 15.8984 14.342 16.0638 14.2796 16.2815C14.2525 16.3763 14.254 16.5689 14.2827 16.6683C14.3572 16.9262 14.5522 17.1224 14.805 17.1936C14.9015 17.2208 15.0477 17.2278 15.1393 17.2095C15.1789 17.2016 15.2148 17.1984 15.219 17.2024C15.2232 17.2064 15.288 17.1908 15.363 17.1677C16.7267 16.7477 18.2262 16.4449 19.6513 16.3016C19.8071 16.2859 19.9691 16.2703 20.0113 16.2669C20.1675 16.2543 20.3123 16.2076 20.4163 16.1364C20.5645 16.035 20.678 15.8758 20.7284 15.6987C20.7587 15.5924 20.7585 15.4244 20.728 15.3167C20.6848 15.1643 20.5844 15.0151 20.4645 14.925C20.2751 14.7825 20.1119 14.7478 19.7809 14.7795ZM3.87372 14.7941C3.59238 14.841 3.34997 15.0587 3.2739 15.3326C3.22079 15.5239 3.24955 15.7358 3.35253 15.9119C3.39965 15.9925 3.53417 16.1285 3.61213 16.1745C3.74951 16.2555 3.81953 16.2714 4.18572 16.3055C5.66809 16.4435 7.16328 16.7399 8.64245 17.1892C8.85587 17.254 8.91623 17.2645 9.03787 17.2583C9.30338 17.2447 9.54177 17.0877 9.66339 16.8462C9.8473 16.481 9.7016 16.0348 9.33621 15.8444C9.29993 15.8255 9.26563 15.8042 9.25998 15.7971C9.23958 15.7713 8.51636 15.564 7.96967 15.4272C6.74429 15.1206 5.5166 14.9151 4.24078 14.8031C4.00906 14.7827 3.95071 14.7813 3.87372 14.7941Z"
          fill="white"/>
  </g>
  <defs>
    <clipPath id="clip0_118_301">
      <rect width="24" height="24" fill="white"/>
    </clipPath>
  </defs>
</svg>
