<svg width="13" height="12" viewBox="0 0 13 12" fill="none" xmlns="http://www.w3.org/2000/svg">
<path d="M12.1497 4.36451C12.0963 4.22101 12.0004 4.09722 11.8748 4.00967C11.7491 3.92211 11.5998 3.87496 11.4467 3.87451H8.40319C8.35141 3.87454 8.30088 3.8585 8.25861 3.82858C8.21633 3.79866 8.18439 3.75636 8.16719 3.70751L7.07469 0.611006C7.02118 0.467887 6.92523 0.344526 6.79969 0.257434C6.67414 0.170342 6.52499 0.123672 6.37219 0.123672C6.2194 0.123672 6.07025 0.170342 5.9447 0.257434C5.81916 0.344526 5.72321 0.467887 5.66969 0.611006L5.66719 0.619006L4.57719 3.70751C4.56003 3.75628 4.52816 3.79853 4.48599 3.82844C4.44381 3.85834 4.3934 3.87444 4.34169 3.87451H1.29719C1.1431 3.87439 0.992716 3.92174 0.866487 4.01011C0.740257 4.09849 0.644312 4.2236 0.591701 4.36843C0.539089 4.51326 0.532365 4.67079 0.572443 4.81957C0.612521 4.96836 0.697455 5.10119 0.815695 5.20001L3.40769 7.35001C3.44647 7.38218 3.47461 7.42532 3.48844 7.47377C3.50227 7.52222 3.50114 7.57371 3.48519 7.62151L2.39619 10.887C2.34587 11.038 2.34487 11.2011 2.39336 11.3527C2.44184 11.5042 2.53729 11.6365 2.66589 11.7302C2.7945 11.824 2.94959 11.8744 3.10874 11.8742C3.26789 11.874 3.42285 11.8231 3.55119 11.729L6.2242 9.76901C6.26706 9.7376 6.31881 9.72067 6.37194 9.72067C6.42508 9.72067 6.47683 9.7376 6.51969 9.76901L9.1917 11.7285C9.31999 11.8229 9.47501 11.8741 9.63431 11.8745C9.7936 11.8749 9.94889 11.8246 10.0777 11.7308C10.2065 11.6371 10.3021 11.5048 10.3506 11.3531C10.3992 11.2013 10.3981 11.0381 10.3477 10.887L9.2587 7.61951C9.24275 7.57171 9.24162 7.52022 9.25545 7.47177C9.26928 7.42332 9.29742 7.38018 9.33619 7.34801L11.9332 5.19501C12.0499 5.09536 12.1333 4.9623 12.172 4.81378C12.2107 4.66527 12.2029 4.50846 12.1497 4.36451V4.36451Z" fill="#B9BEC4"/>
</svg>
