<svg width="18" height="18" viewBox="0 0 18 18" fill="none" xmlns="http://www.w3.org/2000/svg">
<path id="Icon" fill-rule="evenodd" clip-rule="evenodd" d="M11.3474 0.0110879C11.2175 0.0390527 11.0856 0.141746 11.0209 0.265356C10.9792 0.34506 10.9697 0.387345 10.9701 0.493113C10.9703 0.574862 10.9728 0.594079 10.9896 0.644875C11.0405 0.798494 11.1679 0.920109 11.3294 0.969278C11.3708 0.981864 11.4773 0.982584 13.8359 0.986169L16.2992 0.989913L11.4356 5.77431C8.76062 8.40573 6.55644 10.5772 6.53742 10.5999C6.45997 10.6921 6.42594 10.7997 6.43202 10.9331C6.43826 11.0698 6.4778 11.1579 6.5775 11.2571C6.67579 11.355 6.78086 11.3977 6.92237 11.3973C7.03124 11.3971 7.09819 11.378 7.18505 11.3225C7.21859 11.3011 8.55691 9.98885 12.1206 6.48311L17.0102 1.67311L17.0138 4.09991C17.0172 6.39475 17.0181 6.52906 17.0302 6.56991C17.0689 6.70108 17.1574 6.81211 17.2773 6.87992C17.4027 6.95081 17.6035 6.95199 17.7337 6.88259C17.8623 6.81403 17.963 6.68462 17.9872 6.55648C17.995 6.51562 17.9972 7.4117 18.0002 11.7225L18.0038 16.9379L18.0046 11.1707C18.005 7.99875 18.0034 4.27437 18.001 2.89431L17.9966 0.385113L17.9773 0.332301C17.949 0.254815 17.9169 0.204948 17.856 0.144101C17.7952 0.0832462 17.7453 0.0511055 17.6678 0.0228023L17.615 0.00351346L14.5046 0.00226786C11.8634 0.00120226 11.3872 0.00253426 11.3474 0.0110879ZM1.03342 3.78782C0.628009 3.83026 0.268844 4.09002 0.103064 4.46067C0.0713772 4.53151 0.052218 4.58703 0.0274212 4.67991L0.0110844 4.74111L0.0088884 10.8575C0.00729 15.3338 0.0088596 16.9884 0.014742 17.0279C0.0495252 17.2616 0.165251 17.4878 0.338814 17.6613C0.506077 17.8286 0.698749 17.9303 0.950274 17.984C0.999961 17.9946 1.52358 17.9958 7.05982 17.998C11.4145 17.9998 13.1352 17.9983 13.187 17.9926C13.5768 17.9499 13.9103 17.7212 14.0897 17.3735C14.1624 17.2326 14.1987 17.1063 14.2131 16.9443C14.2184 16.8852 14.2201 15.6147 14.2187 12.8339L14.2166 8.80911L14.2004 8.76231C14.1425 8.5954 14.0198 8.47607 13.8602 8.43146C13.7854 8.41058 13.6686 8.41058 13.5939 8.43146C13.4304 8.47713 13.3008 8.60656 13.2499 8.77499C13.2381 8.81393 13.2372 9.04915 13.2338 12.8555L13.2302 16.8947L13.2142 16.9246C13.1948 16.9609 13.1527 16.9969 13.1186 17.0064C13.1024 17.0109 10.9678 17.0134 7.10459 17.0135C1.71044 17.0135 1.1131 17.0124 1.08899 17.0023C1.05359 16.9876 1.01681 16.9519 1.0003 16.9163C0.987318 16.8883 0.986929 16.717 0.986778 10.8915C0.986648 5.87714 0.988211 4.89166 0.996325 4.87228C1.01207 4.83472 1.04472 4.80143 1.08352 4.78336L1.11982 4.76646L5.12779 4.76639C9.58377 4.76631 9.19501 4.77094 9.30622 4.7166C9.48477 4.62936 9.58374 4.4712 9.58374 4.27311C9.58374 4.05091 9.45527 3.8751 9.23782 3.79973L9.19102 3.78351L5.14102 3.78265C2.91352 3.78217 1.0651 3.7845 1.03342 3.78782Z" fill="#0C1F22"/>
</svg>
