<svg width="16" height="16" viewBox="0 0 16 16" fill="none" xmlns="http://www.w3.org/2000/svg">
<path fill-rule="evenodd" clip-rule="evenodd" d="M7.7625 2.87065C6.98575 2.90711 6.22603 3.11281 5.5425 3.47175C4.03258 4.26463 2.99624 5.74232 2.76493 7.4322C2.73117 7.67876 2.72075 7.84214 2.71555 8.20602L2.71154 8.48697L2.16502 7.94152C1.86443 7.64152 1.6077 7.38789 1.5945 7.37788C1.52145 7.3225 1.44608 7.29802 1.34904 7.29817C1.22415 7.29835 1.1357 7.33723 1.05029 7.42948C0.933869 7.55523 0.909761 7.73893 0.989351 7.89388C1.01015 7.93438 1.06878 7.99446 1.92702 8.85479C2.43053 9.35953 2.85787 9.78519 2.87665 9.80068C2.91428 9.83175 2.95566 9.85317 3.0105 9.86996C3.06533 9.88675 3.18822 9.8856 3.2445 9.86777C3.33889 9.83787 3.29401 9.87996 4.26943 8.90634C4.76713 8.40955 5.1908 7.98283 5.2109 7.95808C5.27572 7.87828 5.30003 7.8087 5.30003 7.70308C5.30003 7.60275 5.27687 7.53223 5.2186 7.45522C5.14252 7.35469 5.02798 7.29808 4.90064 7.29808C4.82306 7.29808 4.7828 7.30687 4.7175 7.33807L4.6605 7.3653L4.095 7.93008L3.5295 8.49487V8.26653C3.5295 7.96028 3.54077 7.7679 3.57219 7.53808C3.68039 6.7465 4.01101 5.97743 4.50976 5.35708C4.70834 5.11008 4.95414 4.86345 5.1932 4.67133C5.75857 4.21694 6.41202 3.91014 7.1175 3.76783C7.42736 3.70533 7.66037 3.68313 8.0055 3.68325C8.25034 3.68334 8.32066 3.68704 8.5215 3.71043C9.33734 3.80542 10.1311 4.13481 10.7742 4.64529C10.978 4.80705 11.2208 5.04032 11.3887 5.23578C11.4891 5.35267 11.5186 5.37918 11.5833 5.4109C11.6445 5.44086 11.7073 5.45243 11.7855 5.44819C11.8705 5.44358 11.9236 5.42551 11.9937 5.37724C12.1771 5.25104 12.2222 4.99336 12.0928 4.81108C12.0614 4.76691 11.9386 4.62602 11.8418 4.52313C11.0786 3.71202 10.0643 3.15898 8.9655 2.95486C8.56823 2.88106 8.15586 2.85219 7.7625 2.87065ZM12.8294 6.85517C12.7768 6.85995 12.7405 6.87117 12.6825 6.90065C12.6433 6.92056 12.5777 6.98484 11.7039 7.85854C10.7806 8.78183 10.767 8.79577 10.7425 8.84382C10.7099 8.90781 10.6982 8.95955 10.6985 9.03808C10.699 9.1554 10.7319 9.23208 10.8195 9.32027C10.8606 9.36159 10.8804 9.37646 10.9215 9.39649C11.0527 9.46053 11.2026 9.45261 11.3235 9.37524C11.3441 9.36205 11.5655 9.14552 11.913 8.79868C12.2191 8.49318 12.4695 8.24589 12.4695 8.24916C12.4695 8.28379 12.4554 8.49825 12.4482 8.57308C12.3771 9.31269 12.1213 10.0257 11.7059 10.6423C10.9876 11.7081 9.84971 12.4109 8.5725 12.5776C8.18086 12.6287 7.76317 12.6265 7.3785 12.5714C6.50482 12.4463 5.70405 12.0781 5.04455 11.4983C5.00497 11.4635 4.91182 11.3754 4.83755 11.3024C4.69634 11.1637 4.65235 11.1293 4.58964 11.1085C4.45324 11.0634 4.30983 11.0869 4.204 11.1717C4.09433 11.2596 4.03844 11.3836 4.04749 11.5189C4.05384 11.6139 4.08437 11.6866 4.15019 11.7635C4.23847 11.8666 4.50388 12.1134 4.6785 12.2548C5.74615 13.119 7.11929 13.5338 8.4885 13.4057C9.28903 13.3308 10.0507 13.0797 10.7355 12.6649C11.4655 12.2227 12.0685 11.6202 12.5158 10.8861C12.9776 10.1282 13.2491 9.22789 13.2774 8.36109L13.2814 8.2391L13.84 8.79706C14.2453 9.20202 14.4091 9.36178 14.437 9.37962C14.4582 9.39314 14.4974 9.41145 14.524 9.4203C14.5668 9.43449 14.5817 9.43636 14.6505 9.43621C14.7183 9.43607 14.7348 9.43399 14.7765 9.42027C14.8672 9.39043 14.9523 9.321 15.0032 9.23515C15.0366 9.17893 15.0502 9.12997 15.0537 9.05308C15.0588 8.94054 15.0341 8.8633 14.9658 8.7786C14.9466 8.75466 14.5235 8.32861 14.0256 7.83181C13.0536 6.86179 13.0945 6.90022 13.0035 6.87141C12.9549 6.85604 12.8883 6.84982 12.8294 6.85517Z" fill="#0C1F22"/>
</svg>
