<svg width="16" height="16" viewBox="0 0 16 16" fill="none" xmlns="http://www.w3.org/2000/svg">
<path d="M15.1094 3.71878C15.2968 3.53125 15.4021 3.27694 15.4021 3.01178C15.4021 2.74661 15.2968 2.4923 15.1094 2.30478L13.6954 0.890776C13.6025 0.79785 13.4922 0.724133 13.3709 0.673838C13.2495 0.623543 13.1194 0.597656 12.988 0.597656C12.8566 0.597656 12.7266 0.623543 12.6052 0.673838C12.4838 0.724133 12.3736 0.79785 12.2807 0.890776L8.11802 5.05411C8.08667 5.08529 8.04424 5.1028 8.00002 5.1028C7.9558 5.1028 7.91338 5.08529 7.88202 5.05411L3.71935 0.890776C3.62649 0.79785 3.51622 0.724133 3.39485 0.673838C3.27348 0.623543 3.1434 0.597656 3.01202 0.597656C2.88064 0.597656 2.75056 0.623543 2.62919 0.673838C2.50782 0.724133 2.39755 0.79785 2.30469 0.890776L0.890687 2.30478C0.703216 2.4923 0.5979 2.74661 0.5979 3.01178C0.5979 3.27694 0.703216 3.53125 0.890687 3.71878L5.05402 7.88211C5.08504 7.91355 5.10244 7.95594 5.10244 8.00011C5.10244 8.04428 5.08504 8.08667 5.05402 8.11811L0.890687 12.2814C0.703216 12.469 0.5979 12.7233 0.5979 12.9884C0.5979 13.2536 0.703216 13.5079 0.890687 13.6954L2.30469 15.1094C2.39755 15.2024 2.50782 15.2761 2.62919 15.3264C2.75056 15.3767 2.88064 15.4026 3.01202 15.4026C3.1434 15.4026 3.27348 15.3767 3.39485 15.3264C3.51622 15.2761 3.62649 15.2024 3.71935 15.1094L7.88202 10.9461C7.91338 10.9149 7.9558 10.8974 8.00002 10.8974C8.04424 10.8974 8.08667 10.9149 8.11802 10.9461L12.2807 15.1094C12.3736 15.2024 12.4838 15.2761 12.6052 15.3264C12.7266 15.3767 12.8566 15.4026 12.988 15.4026C13.1194 15.4026 13.2495 15.3767 13.3709 15.3264C13.4922 15.2761 13.6025 15.2024 13.6954 15.1094L15.1094 13.6954C15.2968 13.5079 15.4021 13.2536 15.4021 12.9884C15.4021 12.7233 15.2968 12.469 15.1094 12.2814L10.946 8.11811C10.915 8.08667 10.8976 8.04428 10.8976 8.00011C10.8976 7.95594 10.915 7.91355 10.946 7.88211L15.1094 3.71878Z" fill="#212B3D"/>
</svg>
