<svg width="16" height="16" viewBox="0 0 16 16" fill="none" xmlns="http://www.w3.org/2000/svg">
<path d="M14.8333 11.3333H13.8333C13.7891 11.3333 13.7467 11.3157 13.7154 11.2844C13.6842 11.2532 13.6666 11.2108 13.6666 11.1666V1.99992C13.6666 1.82311 13.5964 1.65354 13.4714 1.52851C13.3463 1.40349 13.1768 1.33325 13 1.33325C12.8231 1.33325 12.6536 1.40349 12.5286 1.52851C12.4035 1.65354 12.3333 1.82311 12.3333 1.99992V11.1666C12.3333 11.2108 12.3157 11.2532 12.2845 11.2844C12.2532 11.3157 12.2108 11.3333 12.1666 11.3333H11.1666C11.0738 11.3333 10.9827 11.3591 10.9038 11.4079C10.8248 11.4567 10.7609 11.5266 10.7194 11.6096C10.6779 11.6927 10.6603 11.7857 10.6686 11.8782C10.677 11.9706 10.7109 12.059 10.7666 12.1333L12.6 14.5799C12.6473 14.6408 12.708 14.6901 12.7773 14.7241C12.8466 14.758 12.9228 14.7756 13 14.7756C13.0771 14.7756 13.1533 14.758 13.2226 14.7241C13.2919 14.6901 13.3526 14.6408 13.4 14.5799L15.2333 12.1333C15.289 12.059 15.3229 11.9706 15.3313 11.8782C15.3396 11.7857 15.322 11.6927 15.2805 11.6096C15.239 11.5266 15.1751 11.4567 15.0962 11.4079C15.0172 11.3591 14.9261 11.3333 14.8333 11.3333V11.3333Z" fill="#212B3D"/>
<path d="M6.66663 0H1.99996C1.26358 0 0.666626 0.596954 0.666626 1.33333V6C0.666626 6.73638 1.26358 7.33333 1.99996 7.33333H6.66663C7.40301 7.33333 7.99996 6.73638 7.99996 6V1.33333C7.99996 0.596954 7.40301 0 6.66663 0Z" fill="#212B3D"/>
<path d="M6.66667 8.66675H5.66667C5.48986 8.66675 5.32029 8.73699 5.19526 8.86201C5.07024 8.98703 5 9.1566 5 9.33341C5 9.51023 5.07024 9.67979 5.19526 9.80482C5.32029 9.92984 5.48986 10.0001 5.66667 10.0001H6.33333C6.42174 10.0001 6.50652 10.0352 6.56904 10.0977C6.63155 10.1602 6.66667 10.245 6.66667 10.3334V11.0001C6.66667 11.1769 6.7369 11.3465 6.86193 11.4715C6.98695 11.5965 7.15652 11.6667 7.33333 11.6667C7.51014 11.6667 7.67971 11.5965 7.80474 11.4715C7.92976 11.3465 8 11.1769 8 11.0001V10.0001C8 9.64646 7.85952 9.30732 7.60948 9.05727C7.35943 8.80722 7.02029 8.66675 6.66667 8.66675Z" fill="#212B3D"/>
<path d="M7.33333 13C7.15652 13 6.98695 13.0702 6.86193 13.1953C6.7369 13.3203 6.66667 13.4899 6.66667 13.6667V14.3333C6.66667 14.4217 6.63155 14.5065 6.56904 14.569C6.50652 14.6315 6.42174 14.6667 6.33333 14.6667H5.66667C5.48986 14.6667 5.32029 14.7369 5.19526 14.8619C5.07024 14.987 5 15.1565 5 15.3333C5 15.5101 5.07024 15.6797 5.19526 15.8047C5.32029 15.9298 5.48986 16 5.66667 16H6.66667C7.02029 16 7.35943 15.8595 7.60948 15.6095C7.85952 15.3594 8 15.0203 8 14.6667V13.6667C8 13.4899 7.92976 13.3203 7.80474 13.1953C7.67971 13.0702 7.51014 13 7.33333 13Z" fill="#212B3D"/>
<path d="M2.99996 14.6667H2.33329C2.24489 14.6667 2.1601 14.6315 2.09759 14.569C2.03508 14.5065 1.99996 14.4217 1.99996 14.3333V13.6667C1.99996 13.4899 1.92972 13.3203 1.8047 13.1953C1.67967 13.0702 1.5101 13 1.33329 13C1.15648 13 0.986912 13.0702 0.861888 13.1953C0.736864 13.3203 0.666626 13.4899 0.666626 13.6667V14.6667C0.666626 15.0203 0.807102 15.3594 1.05715 15.6095C1.3072 15.8595 1.64634 16 1.99996 16H2.99996C3.17677 16 3.34634 15.9298 3.47136 15.8047C3.59639 15.6797 3.66663 15.5101 3.66663 15.3333C3.66663 15.1565 3.59639 14.987 3.47136 14.8619C3.34634 14.7369 3.17677 14.6667 2.99996 14.6667Z" fill="#212B3D"/>
<path d="M3.66663 9.33341C3.66663 9.1566 3.59639 8.98703 3.47136 8.86201C3.34634 8.73699 3.17677 8.66675 2.99996 8.66675H1.99996C1.64634 8.66675 1.3072 8.80722 1.05715 9.05727C0.807102 9.30732 0.666626 9.64646 0.666626 10.0001V11.0001C0.666626 11.1769 0.736864 11.3465 0.861888 11.4715C0.986912 11.5965 1.15648 11.6667 1.33329 11.6667C1.5101 11.6667 1.67967 11.5965 1.8047 11.4715C1.92972 11.3465 1.99996 11.1769 1.99996 11.0001V10.3334C1.99996 10.245 2.03508 10.1602 2.09759 10.0977C2.1601 10.0352 2.24489 10.0001 2.33329 10.0001H2.99996C3.17677 10.0001 3.34634 9.92984 3.47136 9.80482C3.59639 9.67979 3.66663 9.51023 3.66663 9.33341Z" fill="#212B3D"/>
</svg>
