<svg width="18" height="18" viewBox="0 0 18 18" fill="none" xmlns="http://www.w3.org/2000/svg">
<path fill-rule="evenodd" clip-rule="evenodd" d="M1.79132 1.12812C1.22949 1.24851 0.765123 1.67277 0.596337 2.2199C0.528981 2.4382 0.519477 2.67623 0.525417 3.99626C0.530961 5.23241 0.531483 5.24822 0.569643 5.32826C0.614877 5.42316 0.676041 5.49055 0.778497 5.55836L0.852405 5.60726H9.00003H17.1477L17.2216 5.55836C17.324 5.49055 17.3852 5.42316 17.4304 5.32826C17.4686 5.24814 17.4691 5.23338 17.4745 3.96026C17.4779 3.15887 17.4729 2.59426 17.4611 2.46387C17.4309 2.13038 17.3404 1.88907 17.1601 1.66188C16.9224 1.36229 16.6046 1.17467 16.2388 1.11792C16.1487 1.10393 14.061 1.09869 9.01458 1.09974C2.78494 1.10102 1.90166 1.10449 1.79132 1.12812ZM1.99659 2.08844C1.82563 2.11739 1.64633 2.25681 1.56332 2.4254L1.52103 2.51126L1.51612 3.57776L1.51121 4.64426H8.99962H16.488L16.4872 3.55976C16.4864 2.40074 16.4872 2.41203 16.3955 2.27638C16.3337 2.18512 16.231 2.12088 16.1043 2.09433C16.0142 2.07545 14.668 2.07134 9.03603 2.07275C5.20968 2.07372 2.04194 2.08077 1.99659 2.08844ZM1.58481 7.11271C1.46795 7.1711 1.38207 7.26614 1.3379 7.38595C1.30426 7.47721 1.30581 14.4594 1.33952 14.6793C1.43015 15.2703 1.67627 15.7578 2.08962 16.1649C2.49156 16.5607 3.04414 16.8198 3.62183 16.8831C3.86616 16.9099 14.2059 16.9099 14.4502 16.8831C15.6012 16.7569 16.5005 15.9196 16.7179 14.7717C16.7468 14.6193 16.749 14.3448 16.749 11.0073C16.749 7.55452 16.7477 7.40454 16.7161 7.34104C16.6337 7.17539 16.4479 7.05675 16.2704 7.05644C16.0792 7.0561 15.8749 7.1988 15.8112 7.37711C15.7921 7.43079 15.7874 8.09121 15.7867 10.8813C15.7861 13.1172 15.7792 14.3759 15.7672 14.4813C15.7402 14.7168 15.7054 14.8371 15.6053 15.0393C15.3807 15.4933 14.9648 15.803 14.454 15.8965C14.2503 15.9339 3.79535 15.9334 3.60903 15.896C2.97727 15.7694 2.51237 15.3396 2.34272 14.7254L2.29516 14.5533L2.28609 10.9803C2.27725 7.49199 2.27621 7.40559 2.24217 7.33701C2.16102 7.17344 1.97645 7.05675 1.79841 7.05644C1.72141 7.0563 1.67126 7.06951 1.58481 7.11271ZM8.8813 7.86207C8.83085 7.8801 8.75795 7.92023 8.71931 7.95122C8.68066 7.98222 8.1372 8.52051 7.51165 9.14743C6.2555 10.4063 6.28176 10.3754 6.28301 10.5933C6.28412 10.7897 6.3687 10.9334 6.5372 11.0254C6.61678 11.0688 6.6544 11.0778 6.75903 11.0781C6.98266 11.0788 6.97775 11.0827 7.80661 10.256L8.54946 9.51522L8.55424 11.6562L8.55903 13.7973L8.59824 13.8705C8.65018 13.9675 8.75919 14.0638 8.86132 14.1028C8.98862 14.1514 9.1683 14.1358 9.28056 14.0664C9.38251 14.0034 9.47683 13.8873 9.5032 13.7923C9.51555 13.7479 9.52187 13.0147 9.52192 11.6199L9.52203 9.51465L10.2652 10.2557C11.0947 11.0831 11.0896 11.0791 11.313 11.0777C11.4934 11.0767 11.6214 11.0049 11.7217 10.8486C11.7697 10.7737 11.7792 10.7399 11.785 10.6229C11.7907 10.5072 11.7852 10.4716 11.7504 10.3996C11.6918 10.2784 9.35127 7.93252 9.23718 7.88073C9.12439 7.82952 8.99182 7.82258 8.8813 7.86207Z" fill="#2F463F"/>
</svg>
