<svg width="19" height="19" viewBox="0 0 19 19" fill="none" xmlns="http://www.w3.org/2000/svg">
<path fill-rule="evenodd" clip-rule="evenodd" d="M7.79795 1.5C6.55241 1.49986 5.33481 1.86909 4.29912 2.56099C3.26344 3.25289 2.4562 4.23638 1.97949 5.38708C1.50278 6.53778 1.37801 7.804 1.62097 9.02561C1.86393 10.2472 2.4637 11.3694 3.34442 12.2501C4.22515 13.1308 5.34728 13.7306 6.56889 13.9735C7.7905 14.2165 9.05673 14.0917 10.2074 13.615C10.9683 13.2998 11.6561 12.8401 12.2348 12.2653C12.2399 12.2598 12.2451 12.2543 12.2505 12.2489C12.2558 12.2436 12.2612 12.2384 12.2667 12.2334C12.5505 11.9475 12.8076 11.6336 13.0335 11.2954C13.7254 10.2597 14.0946 9.04209 14.0945 7.79656C14.0943 6.12666 13.4309 4.52522 12.2501 3.34442C11.0693 2.16363 9.46784 1.50018 7.79795 1.5ZM13.2993 12.5907C13.5027 12.3573 13.6917 12.1103 13.865 11.8509C14.6668 10.6507 15.0947 9.23977 15.0945 7.79645C15.0943 5.86137 14.3255 4.00562 12.9572 2.63732C11.5889 1.26901 9.73313 0.500214 7.79806 0.5C6.35473 0.499841 4.94377 0.927702 3.74362 1.72947C2.54347 2.53124 1.60804 3.67091 1.05563 5.00434C0.503216 6.33777 0.358638 7.80507 0.640179 9.22068C0.921719 10.6363 1.61673 11.9366 2.63732 12.9572C3.65791 13.9778 4.95823 14.6728 6.37383 14.9543C7.78943 15.2359 9.25673 15.0913 10.5902 14.5389C11.3243 14.2347 11.9997 13.8145 12.5923 13.2979L17.5222 18.2285C17.7174 18.4238 18.034 18.4238 18.2293 18.2286C18.4246 18.0333 18.4246 17.7167 18.2293 17.5215L13.2993 12.5907ZM7.75075 3.875C8.0269 3.875 8.25075 4.09886 8.25075 4.375V7.25H11.1258C11.4019 7.25 11.6258 7.47386 11.6258 7.75C11.6258 8.02614 11.4019 8.25 11.1258 8.25H8.25075V11.125C8.25075 11.4011 8.0269 11.625 7.75075 11.625C7.47461 11.625 7.25075 11.4011 7.25075 11.125V8.25H4.37575C4.09961 8.25 3.87575 8.02614 3.87575 7.75C3.87575 7.47386 4.09961 7.25 4.37575 7.25H7.25075V4.375C7.25075 4.09886 7.47461 3.875 7.75075 3.875Z" fill="white"/>
</svg>