<svg width="24" height="24" viewBox="0 0 24 24" fill="none" xmlns="http://www.w3.org/2000/svg">
<g clip-path="url(#clip0_967_5209)">
<path d="M22.51 21.6801L13.32 1.00012C13.2369 0.71571 13.0638 0.465912 12.8267 0.28819C12.5896 0.110469 12.3013 0.0144043 12.005 0.0144043C11.7087 0.0144043 11.4203 0.110469 11.1833 0.28819C10.9462 0.465912 10.7731 0.71571 10.69 1.00012L1.48997 21.6801C1.36962 21.933 1.31479 22.212 1.33052 22.4916C1.34624 22.7712 1.43203 23.0424 1.57997 23.2801C1.73671 23.5102 1.9491 23.6968 2.19739 23.8227C2.44567 23.9486 2.72176 24.0096 2.99997 24.0001H21C21.2782 24.0096 21.5543 23.9486 21.8026 23.8227C22.0508 23.6968 22.2632 23.5102 22.42 23.2801C22.5679 23.0424 22.6537 22.7712 22.6694 22.4916C22.6852 22.212 22.6303 21.933 22.51 21.6801ZM19.67 20.2001C19.6881 20.25 19.6911 20.3041 19.6787 20.3557C19.6662 20.4072 19.6388 20.454 19.6 20.4901C19.5583 20.5218 19.5073 20.5389 19.455 20.5389C19.4026 20.5389 19.3517 20.5218 19.31 20.4901L12.87 16.6301C12.8324 16.6073 12.8015 16.5749 12.7804 16.5362C12.7593 16.4976 12.7488 16.4541 12.75 16.4101V5.81012C12.7506 5.75211 12.7707 5.69599 12.8069 5.65068C12.8432 5.60538 12.8935 5.5735 12.95 5.56012C13.0055 5.54988 13.0629 5.558 13.1134 5.58326C13.1639 5.60852 13.2048 5.64954 13.23 5.70012L19.67 20.2001ZM11.87 18.0001C11.9072 17.976 11.9506 17.9632 11.995 17.9632C12.0393 17.9632 12.0827 17.976 12.12 18.0001L18.12 21.5901C18.1662 21.6185 18.202 21.6612 18.2218 21.7117C18.2416 21.7622 18.2445 21.8178 18.23 21.8701C18.2076 21.9111 18.1742 21.945 18.1335 21.968C18.0929 21.991 18.0466 22.0021 18 22.0001H5.99997C5.94588 22.0001 5.89325 21.9826 5.84997 21.9501C5.8067 21.9177 5.77512 21.872 5.75997 21.8201C5.74365 21.7679 5.74565 21.7117 5.76566 21.6607C5.78566 21.6098 5.82247 21.5673 5.86997 21.5401L11.87 18.0001ZM10.77 5.72012C10.7935 5.66769 10.8337 5.62453 10.8844 5.59739C10.9351 5.57025 10.9933 5.56066 11.05 5.57012C11.1064 5.5835 11.1568 5.61538 11.193 5.66068C11.2293 5.70599 11.2493 5.76211 11.25 5.82012V16.4301C11.2491 16.4749 11.2366 16.5187 11.2139 16.5572C11.1911 16.5957 11.1587 16.6277 11.12 16.6501L4.69997 20.5101C4.65609 20.5411 4.60369 20.5578 4.54997 20.5578C4.49625 20.5578 4.44385 20.5411 4.39997 20.5101C4.35898 20.4755 4.33079 20.428 4.31991 20.3755C4.30903 20.3229 4.3161 20.2682 4.33997 20.2201L10.77 5.72012Z" fill="#212B3D"/>
</g>
<defs>
<clipPath id="clip0_967_5209">
<rect width="24" height="24" fill="white"/>
</clipPath>
</defs>
</svg>
