<svg width="16" height="16" viewBox="0 0 16 16" fill="none" xmlns="http://www.w3.org/2000/svg">
<path d="M15.2106 5.95678C15.1413 5.76955 15.0165 5.60798 14.8527 5.49371C14.689 5.37944 14.4943 5.31794 14.2946 5.31745H10.3333L8.91465 1.30012C8.84458 1.11273 8.71865 0.951381 8.5539 0.837889C8.38914 0.724398 8.19351 0.664239 7.99346 0.665548C7.7934 0.666857 7.59857 0.729571 7.43532 0.845208C7.27206 0.960846 7.14826 1.12383 7.08065 1.31212L5.66665 5.31745H1.70531C1.50483 5.31763 1.30924 5.37947 1.14509 5.49458C0.980939 5.60969 0.856159 5.7725 0.787672 5.96093C0.719185 6.14936 0.710306 6.35429 0.762238 6.54794C0.81417 6.74158 0.9244 6.91457 1.07798 7.04345L4.43198 9.82278L3.02465 14.0455C2.95858 14.2421 2.95684 14.4547 3.01969 14.6524C3.08253 14.8501 3.2067 15.0226 3.37418 15.145C3.54167 15.2674 3.74378 15.3333 3.95123 15.3332C4.15868 15.333 4.36069 15.2668 4.52798 15.1441L7.99998 12.6001L11.4713 15.1455C11.6384 15.2679 11.8401 15.334 12.0473 15.3343C12.2544 15.3345 12.4563 15.2689 12.6237 15.1469C12.7912 15.0249 12.9154 14.8529 12.9786 14.6556C13.0418 14.4583 13.0407 14.246 12.9753 14.0495L11.5673 9.82412L14.9286 7.03812C15.0802 6.90809 15.1885 6.73484 15.2389 6.54158C15.2893 6.34833 15.2794 6.14429 15.2106 5.95678V5.95678ZM10.366 9.09012C10.2625 9.17584 10.1873 9.29084 10.1503 9.42004C10.1133 9.54924 10.1162 9.6866 10.1586 9.81412L11.1913 12.9121C11.2026 12.9457 11.2028 12.982 11.1921 13.0157C11.1814 13.0494 11.1602 13.0789 11.1316 13.0997C11.103 13.1206 11.0685 13.1318 11.0331 13.1318C10.9976 13.1317 10.9632 13.1204 10.9346 13.0995L8.39331 11.2341C8.27895 11.1502 8.14081 11.105 7.99898 11.105C7.85715 11.105 7.71901 11.1502 7.60465 11.2341L5.06665 13.0961C5.03816 13.1169 5.00379 13.1282 4.96849 13.1282C4.9332 13.1283 4.8988 13.1171 4.87026 13.0964C4.84172 13.0756 4.8205 13.0463 4.80967 13.0127C4.79883 12.9791 4.79894 12.943 4.80998 12.9095L5.84198 9.81145C5.8845 9.684 5.88752 9.54668 5.85064 9.41748C5.81376 9.28829 5.73871 9.17325 5.63531 9.08745L3.04998 6.94612C3.02347 6.92429 3.00435 6.8948 2.99523 6.8617C2.98612 6.82859 2.98745 6.79347 2.99905 6.76115C3.01065 6.72883 3.03195 6.70088 3.06004 6.68112C3.08813 6.66137 3.12164 6.65077 3.15598 6.65078H6.13931C6.27731 6.65075 6.41189 6.60789 6.52449 6.52812C6.63709 6.44836 6.72217 6.33562 6.76798 6.20545L7.84265 3.16012C7.85405 3.12748 7.87532 3.09921 7.90351 3.0792C7.9317 3.05919 7.96541 3.04844 7.99998 3.04844C8.03455 3.04844 8.06826 3.05919 8.09645 3.0792C8.12464 3.09921 8.14591 3.12748 8.15731 3.16012L9.23131 6.20545C9.27713 6.33562 9.3622 6.44836 9.47481 6.52812C9.58741 6.60789 9.72199 6.65075 9.85998 6.65078H12.8433C12.8777 6.65077 12.9112 6.66137 12.9393 6.68112C12.9673 6.70088 12.9886 6.72883 13.0002 6.76115C13.0118 6.79347 13.0132 6.82859 13.0041 6.8617C12.9949 6.8948 12.9758 6.92429 12.9493 6.94612L10.366 9.09012Z" fill="#212B3D"/>
</svg>
