<svg width="16" height="16" viewBox="0 0 16 16" fill="none" xmlns="http://www.w3.org/2000/svg">
<path d="M15.7033 5.81948C15.6321 5.62815 15.5042 5.4631 15.3367 5.34636C15.1692 5.22962 14.9701 5.16676 14.766 5.16615H10.708C10.6389 5.1662 10.5715 5.1448 10.5152 5.10492C10.4588 5.06503 10.4162 5.00862 10.3933 4.94348L8.93663 0.814817C8.86528 0.623991 8.73735 0.459511 8.56995 0.343388C8.40256 0.227264 8.20369 0.165039 7.99996 0.165039C7.79623 0.165039 7.59737 0.227264 7.42997 0.343388C7.26258 0.459511 7.13465 0.623991 7.0633 0.814817L7.05996 0.825484L5.60663 4.94348C5.58374 5.00851 5.54125 5.06485 5.48502 5.10472C5.42878 5.1446 5.36157 5.16606 5.29263 5.16615H1.2333C1.02784 5.166 0.827325 5.22913 0.659018 5.34696C0.490712 5.4648 0.362785 5.63161 0.292637 5.82472C0.222488 6.01783 0.213523 6.22786 0.26696 6.42624C0.320397 6.62463 0.433643 6.80174 0.591296 6.93348L4.0473 9.80015C4.09899 9.84305 4.13652 9.90057 4.15496 9.96517C4.1734 10.0298 4.17189 10.0984 4.15063 10.1621L2.69863 14.5161C2.63153 14.7175 2.6302 14.9349 2.69485 15.137C2.75949 15.3391 2.88675 15.5154 3.05823 15.6404C3.2297 15.7655 3.43649 15.8327 3.64869 15.8324C3.8609 15.8321 4.0675 15.7643 4.23863 15.6388L7.80263 13.0255C7.85978 12.9836 7.92878 12.961 7.99963 12.961C8.07048 12.961 8.13948 12.9836 8.19663 13.0255L11.7593 15.6381C11.9304 15.7641 12.137 15.8322 12.3494 15.8328C12.5618 15.8333 12.7689 15.7663 12.9406 15.6413C13.1123 15.5163 13.2398 15.3398 13.3045 15.1376C13.3692 14.9353 13.3679 14.7176 13.3006 14.5161L11.8486 10.1595C11.8274 10.0958 11.8259 10.0271 11.8443 9.9625C11.8627 9.8979 11.9003 9.84038 11.952 9.79748L15.4146 6.92682C15.5703 6.79395 15.6814 6.61654 15.733 6.41852C15.7846 6.2205 15.7743 6.01142 15.7033 5.81948V5.81948Z" fill="#212B3D"/>
</svg>
