<svg width="19" height="18" viewBox="0 0 19 18" fill="none" xmlns="http://www.w3.org/2000/svg">
  <path fill-rule="evenodd" clip-rule="evenodd"
        d="M2.39519 0.541564C1.64846 0.613816 1.13035 1.15299 1.04143 1.95035C1.01609 2.17764 1.01521 15.822 1.04051 16.0823C1.06301 16.3137 1.11433 16.4978 1.20361 16.6673C1.4397 17.1157 1.88021 17.3955 2.4502 17.4591C2.67934 17.4846 16.2789 17.4859 16.5652 17.4604C16.8105 17.4386 16.9918 17.3893 17.1677 17.2966C17.6156 17.0608 17.8954 16.62 17.959 16.0503C17.9845 15.8212 17.9858 2.22167 17.9602 1.93534C17.9384 1.69005 17.8891 1.50876 17.7965 1.33283C17.5607 0.88495 17.1199 0.605104 16.5502 0.541582C16.3449 0.518704 2.63171 0.518686 2.39519 0.541564ZM2.38119 1.53747C2.20801 1.59237 2.13893 1.65728 2.06311 1.83634L2.02119 1.93534V9.01834V16.1013L2.06851 16.2023C2.12156 16.3154 2.19003 16.3755 2.33619 16.4374L2.43519 16.4793H9.51819H16.6012L16.7021 16.432C16.8152 16.379 16.8754 16.3105 16.9373 16.1643L16.9792 16.0653V8.98234V1.89934L16.9319 1.79841C16.8788 1.6853 16.8104 1.62515 16.6642 1.56326L16.5652 1.52134L9.50919 1.51799C3.85258 1.51529 2.43892 1.51916 2.38119 1.53747ZM6.59319 2.84564C4.84883 2.95988 3.41826 4.30166 3.19191 6.03576C3.09856 6.75097 3.21783 7.48506 3.5317 8.12707C4.19323 9.48024 5.58847 10.2886 7.0885 10.1877C9.30665 10.0385 10.8914 7.96026 10.4468 5.78365C10.078 3.9783 8.43416 2.72505 6.59319 2.84564ZM6.15219 3.90517C5.67022 4.03524 5.25957 4.27725 4.90835 4.6382C4.5982 4.95698 4.41487 5.25801 4.27907 5.67151C4.17696 5.9825 4.14818 6.16824 4.14818 6.51634C4.14818 6.86685 4.17788 7.05814 4.27988 7.36473C4.42237 7.79301 4.62948 8.12365 4.95841 8.44797C5.37774 8.86143 5.91842 9.12072 6.52619 9.19985C6.86962 9.24456 7.3552 9.19416 7.69792 9.07826C7.85623 9.02471 8.15498 8.88341 8.2833 8.80135L8.37143 8.74501L7.40758 7.77918C6.76023 7.13046 6.42988 6.78674 6.40147 6.73234L6.35919 6.65134L6.35426 5.26084L6.34933 3.87034L6.30926 3.87196C6.28723 3.87286 6.21654 3.8878 6.15219 3.90517ZM7.32219 5.08991V6.30948L8.19312 7.18027L9.06405 8.05107L9.12889 7.94971C9.51203 7.35076 9.63573 6.55535 9.45544 5.84969C9.23593 4.99044 8.61886 4.30661 7.7732 3.98538C7.65094 3.93894 7.39898 3.87034 7.35068 3.87034C7.32496 3.87034 7.32219 3.9893 7.32219 5.08991ZM12.521 3.93154C12.3613 3.98858 12.2319 4.1542 12.2084 4.33164C12.1829 4.52396 12.2958 4.73263 12.4784 4.83035C12.5509 4.86921 12.5558 4.86936 13.8997 4.87429C15.4092 4.87982 15.3488 4.88444 15.4992 4.75205C15.6164 4.64889 15.6626 4.53004 15.6524 4.35713C15.6463 4.25104 15.6344 4.20559 15.5984 4.14934C15.5352 4.05068 15.4641 3.98721 15.3682 3.9438C15.289 3.90794 15.2573 3.90713 13.9372 3.90753C12.8694 3.90783 12.5734 3.91286 12.521 3.93154ZM12.509 6.41768C12.349 6.48772 12.2312 6.64378 12.2084 6.81564C12.1803 7.02727 12.3154 7.25005 12.5178 7.32576C12.6128 7.36131 12.6527 7.36234 13.9347 7.36234C15.3975 7.36234 15.3482 7.3661 15.491 7.2439C15.5311 7.20954 15.5858 7.13691 15.6124 7.08251C15.6558 6.99382 15.6599 6.96879 15.6525 6.84023C15.6452 6.71468 15.6368 6.68597 15.5844 6.60933C15.5516 6.56119 15.4843 6.49425 15.435 6.46058L15.3453 6.39934L13.9572 6.39531C12.771 6.39187 12.5604 6.39513 12.509 6.41768ZM15.3021 9.72142C15.2607 9.72943 15.2 9.74948 15.1671 9.76597C15.1341 9.78246 14.4491 10.4531 13.6449 11.2563L12.1825 12.7167L11.4309 11.9687C11.0129 11.5528 10.6392 11.1959 10.5892 11.1649C10.3054 10.9891 9.92047 10.9708 9.60819 11.1184C9.47677 11.1805 9.43276 11.2226 7.94735 12.7058C6.55357 14.0975 6.41843 14.2376 6.38585 14.3245C6.30253 14.5469 6.38313 14.7864 6.58399 14.9132C6.71627 14.9967 6.92745 15.0039 7.07444 14.93C7.10675 14.9137 7.79125 14.2434 8.59555 13.4404L10.0579 11.9804L10.8275 12.7471C11.5578 13.4746 11.6041 13.5171 11.7322 13.578C12.0382 13.7233 12.4056 13.7103 12.6988 13.5438C12.7557 13.5115 13.2993 12.9817 14.292 11.991C15.9459 10.3404 15.8779 10.4173 15.8783 10.1973C15.8786 10.0074 15.7793 9.8456 15.6149 9.76795C15.5047 9.71593 15.406 9.70124 15.3021 9.72142Z"
        fill="#878D96"/>
</svg>
