<svg width="18" height="19" viewBox="0 0 18 19" fill="none" xmlns="http://www.w3.org/2000/svg">
  <path fill-rule="evenodd" clip-rule="evenodd"
        d="M9.15 2.02037C8.30866 2.33031 4.04027 3.93471 4.002 3.95537C3.9122 4.00388 3.83568 4.0872 3.79169 4.1844L3.75 4.27653V5.64453V7.01253L3.793 7.10771C3.87818 7.29617 4.07688 7.41324 4.2803 7.39479C4.4099 7.38304 4.50564 7.33424 4.6001 7.23175C4.73066 7.09011 4.731 7.08705 4.731 6.02634C4.731 5.14346 4.73275 5.09236 4.7625 5.10408C4.77983 5.1109 5.11395 5.23665 5.505 5.38353C5.89605 5.53041 6.23018 5.65615 6.2475 5.66298C6.27697 5.67457 6.279 5.73859 6.279 6.65177C6.279 7.3386 6.28512 7.64631 6.29965 7.68934C6.311 7.72299 6.3434 7.78536 6.37165 7.82793L6.423 7.90533L6.42332 8.40393C6.42376 9.05436 6.46125 9.31969 6.60323 9.67712C6.97137 10.6038 7.72417 11.2423 8.69734 11.4532C8.85295 11.4869 8.936 11.4927 9.258 11.4927C9.58 11.4927 9.66306 11.4869 9.81867 11.4532C11.0329 11.1901 11.9283 10.2172 12.0746 9.00199C12.0847 8.91811 12.093 8.64878 12.093 8.40349V7.95753L12.1611 7.88943C12.3058 7.74469 12.2989 7.8017 12.309 6.67332L12.318 5.66811L13.4428 5.24629C14.0614 5.01431 14.5978 4.80355 14.6347 4.77793C14.7217 4.71767 14.8068 4.58398 14.827 4.47586C14.8607 4.29552 14.7779 4.0903 14.6301 3.9879C14.5904 3.96039 13.4468 3.52166 11.99 2.97509C9.26178 1.95143 9.30116 1.96468 9.15 2.02037ZM7.503 3.68436C6.51795 4.05392 5.69654 4.36312 5.67766 4.37148C5.65188 4.38291 6.09659 4.55673 7.45966 5.06802C8.45864 5.44276 9.2841 5.74938 9.294 5.74938C9.3039 5.74938 10.1296 5.44267 11.1289 5.06782C12.8905 4.40703 12.9441 4.38557 12.8887 4.36296C12.8573 4.35013 12.0558 4.0487 11.1078 3.69309C10.1597 3.33747 9.36375 3.03886 9.339 3.02949C9.30115 3.01516 9.00967 3.11913 7.503 3.68436ZM7.251 6.61442C7.251 6.92744 7.25516 7.18353 7.26025 7.18353C7.26533 7.18353 7.72001 7.32123 8.27063 7.48953C8.82127 7.65783 9.28178 7.79553 9.294 7.79553C9.30622 7.79553 9.76673 7.65783 10.3174 7.48953C10.868 7.32123 11.3227 7.18353 11.3277 7.18353C11.3328 7.18353 11.337 6.92838 11.337 6.61653C11.337 6.26137 11.3305 6.04953 11.3195 6.04953C11.3099 6.04953 10.8671 6.21241 10.3355 6.41147C9.42214 6.75351 9.36343 6.77298 9.26848 6.76562C9.19466 6.75988 8.92205 6.66549 8.241 6.40989C7.73115 6.21851 7.29982 6.0582 7.2825 6.05363C7.25298 6.04585 7.251 6.08126 7.251 6.61442ZM7.40069 8.59163C7.41635 9.09968 7.48482 9.34396 7.7087 9.6903C8.077 10.2601 8.80798 10.6031 9.465 10.5145C10.3458 10.3957 11.0047 9.73263 11.1024 8.86653C11.1278 8.64153 11.1268 8.28153 11.1007 8.28153C11.0896 8.28153 10.6959 8.39898 10.226 8.54253C9.68671 8.70726 9.34273 8.80353 9.29341 8.80353C9.24403 8.80353 8.8883 8.70388 8.32762 8.533C7.83944 8.38422 7.42875 8.25849 7.415 8.25361C7.39397 8.24616 7.39169 8.30007 7.40069 8.59163ZM8.73897 12.359C7.41154 12.5196 6.22012 13.2446 5.47111 14.3475C5.00231 15.0379 4.74554 15.768 4.6754 16.6101C4.64203 17.0108 4.67059 17.1621 4.80523 17.2978C5.03 17.5242 5.39414 17.4821 5.56705 17.2095C5.6242 17.1194 5.63032 17.0875 5.64864 16.7843C5.6755 16.3399 5.74888 15.9943 5.89468 15.6255C6.10863 15.0844 6.44528 14.6027 6.87345 14.225C6.96725 14.1423 7.05667 14.0677 7.07217 14.0592C7.09433 14.0471 7.28986 14.2549 7.99017 15.0349C8.47957 15.58 8.92142 16.0639 8.97202 16.1102C9.02263 16.1565 9.09647 16.2041 9.1361 16.2159C9.2918 16.2626 9.47721 16.2298 9.59766 16.1344C9.61975 16.1168 10.0374 15.657 10.5258 15.1125C11.0143 14.568 11.4319 14.1036 11.4539 14.0804L11.494 14.0384L11.6586 14.1764C12.3019 14.7162 12.7421 15.489 12.8944 16.346C12.9093 16.4299 12.9291 16.6295 12.9384 16.7896C12.9572 17.1127 12.9723 17.1665 13.0768 17.2824C13.3113 17.5426 13.7302 17.4766 13.8818 17.1555C13.9155 17.084 13.9197 17.045 13.9176 16.8225C13.906 15.5745 13.297 14.2896 12.3214 13.4544C11.5999 12.8368 10.7598 12.4672 9.83015 12.3584C9.5518 12.3259 9.01066 12.3262 8.73897 12.359ZM9.015 13.3143C8.98035 13.3185 8.88315 13.3303 8.799 13.3406C8.5463 13.3713 7.989 13.5181 7.989 13.5539C7.989 13.5647 9.14725 14.8628 9.25618 14.9741L9.29686 15.0156L9.9431 14.2956C10.2985 13.8996 10.5918 13.5682 10.5948 13.5591C10.6063 13.5248 10.1405 13.3929 9.84696 13.3473C9.67504 13.3206 9.13866 13.2994 9.015 13.3143Z"
        fill="#878D96"/>
</svg>
