<svg width="16" height="16" viewBox="0 0 16 16" fill="none" xmlns="http://www.w3.org/2000/svg">
<path d="M14.3634 0.166748H1.63671C1.24805 0.167804 0.875612 0.322666 0.600787 0.597491C0.325962 0.872316 0.1711 1.24476 0.170044 1.63341V14.3641C0.171278 14.7533 0.326655 15.1261 0.602162 15.401C0.877668 15.6759 1.25086 15.8304 1.64004 15.8307H14.3667C14.7553 15.8295 15.1277 15.6746 15.4024 15.3998C15.6772 15.125 15.8321 14.7527 15.8334 14.3641V1.63608C15.833 1.24638 15.678 0.872756 15.4024 0.59726C15.1268 0.321764 14.7531 0.166925 14.3634 0.166748V0.166748ZM14.1634 14.1667H1.83338V1.83341H14.1667L14.1634 14.1667Z" fill="#212B3D"/>
<path d="M4.18209 8.83341H11.8181C12.0391 8.83341 12.2511 8.74562 12.4073 8.58934C12.5636 8.43306 12.6514 8.2211 12.6514 8.00008C12.6514 7.77907 12.5636 7.56711 12.4073 7.41083C12.2511 7.25455 12.0391 7.16675 11.8181 7.16675H4.18209C3.96107 7.16675 3.74911 7.25455 3.59283 7.41083C3.43655 7.56711 3.34875 7.77907 3.34875 8.00008C3.34875 8.2211 3.43655 8.43306 3.59283 8.58934C3.74911 8.74562 3.96107 8.83341 4.18209 8.83341V8.83341Z" fill="#212B3D"/>
</svg>
