<svg width="16" height="16" viewBox="0 0 16 16" fill="none" xmlns="http://www.w3.org/2000/svg">
<path d="M7.99996 0.166748C6.45068 0.166748 4.93618 0.626165 3.648 1.4869C2.35981 2.34764 1.35579 3.57104 0.762907 5.00239C0.17002 6.43375 0.0148939 8.00877 0.317145 9.52829C0.619396 11.0478 1.36545 12.4436 2.46096 13.5391C3.55647 14.6346 4.95224 15.3806 6.47176 15.6829C7.99127 15.9852 9.5663 15.83 10.9977 15.2371C12.429 14.6443 13.6524 13.6402 14.5131 12.352C15.3739 11.0639 15.8333 9.54937 15.8333 8.00008C15.831 5.92326 15.005 3.93215 13.5364 2.46361C12.0679 0.995074 10.0768 0.169042 7.99996 0.166748V0.166748ZM7.99996 14.1667C6.78031 14.1667 5.58805 13.8051 4.57395 13.1275C3.55984 12.4499 2.76945 11.4868 2.30271 10.36C1.83597 9.23315 1.71384 7.99324 1.95179 6.79702C2.18973 5.60081 2.77705 4.50201 3.63947 3.63959C4.5019 2.77717 5.60069 2.18985 6.79691 1.95191C7.99312 1.71396 9.23303 1.83608 10.3598 2.30282C11.4867 2.76956 12.4498 3.55996 13.1274 4.57407C13.805 5.58817 14.1666 6.78043 14.1666 8.00008C14.1649 9.63504 13.5146 11.2025 12.3585 12.3586C11.2024 13.5147 9.63492 14.165 7.99996 14.1667V14.1667Z" fill="#212B3D"/>
<path d="M4.18197 7.16675C3.96095 7.16675 3.74899 7.25455 3.59271 7.41083C3.43643 7.56711 3.34863 7.77907 3.34863 8.00008C3.34863 8.2211 3.43643 8.43306 3.59271 8.58934C3.74899 8.74562 3.96095 8.83341 4.18197 8.83341H11.818C12.039 8.83341 12.2509 8.74562 12.4072 8.58934C12.5635 8.43306 12.6513 8.2211 12.6513 8.00008C12.6513 7.77907 12.5635 7.56711 12.4072 7.41083C12.2509 7.25455 12.039 7.16675 11.818 7.16675H4.18197Z" fill="#212B3D"/>
</svg>
