<svg width="16" height="16" viewBox="0 0 16 16" fill="none" xmlns="http://www.w3.org/2000/svg">
<path d="M15.6507 9.05867L7.26267 0.666667C6.81846 0.267862 6.2514 0.032668 5.65533 0L1.33333 0C0.979711 0 0.640573 0.140476 0.390524 0.390524C0.140476 0.640573 0 0.979711 0 1.33333L0.00466667 5.65733C0.0265915 6.2558 0.263244 6.82637 0.671333 7.26467L9.05733 15.6507C9.15865 15.7579 9.28022 15.844 9.41502 15.904C9.54982 15.9639 9.69517 15.9966 9.84267 16C9.92245 15.9998 10.0019 15.99 10.0793 15.9707C10.2607 15.921 10.4257 15.8244 10.5576 15.6904C10.6896 15.5565 10.7838 15.3901 10.8307 15.208L11.8 12.024C11.816 11.9718 11.8445 11.9243 11.8831 11.8857C11.9217 11.8471 11.9691 11.8186 12.0213 11.8027L15.204 10.8313C15.3881 10.7886 15.5567 10.6959 15.6915 10.5635C15.8263 10.431 15.9219 10.264 15.9678 10.0807C16.0137 9.89741 16.0081 9.70501 15.9517 9.52469C15.8953 9.34436 15.7902 9.1831 15.648 9.05867H15.6507ZM3.99533 4.99467C3.79755 4.99467 3.60421 4.93602 3.43976 4.82614C3.27531 4.71626 3.14714 4.56008 3.07145 4.37735C2.99577 4.19462 2.97596 3.99356 3.01455 3.79958C3.05313 3.6056 3.14837 3.42741 3.28823 3.28756C3.42808 3.14771 3.60626 3.05247 3.80024 3.01388C3.99422 2.9753 4.19529 2.9951 4.37802 3.07079C4.56074 3.14647 4.71692 3.27465 4.8268 3.4391C4.93668 3.60355 4.99533 3.79689 4.99533 3.99467C4.99533 4.25988 4.88998 4.51424 4.70244 4.70177C4.5149 4.88931 4.26055 4.99467 3.99533 4.99467V4.99467Z" fill="#212B3D"/>
</svg>
