<svg width="18" height="19" viewBox="0 0 18 19" fill="none" xmlns="http://www.w3.org/2000/svg">
  <g clip-path="url(#clip0_1814_10176)">
    <path fill-rule="evenodd" clip-rule="evenodd"
          d="M4.23086 1.2632C3.00972 1.3541 2.00883 2.30245 1.84521 3.52364C1.81722 3.7325 1.83232 4.20797 1.87282 4.39324C2.11116 5.48364 2.9613 6.28868 4.05086 6.45575C4.26299 6.48828 4.60994 6.48786 4.82991 6.45483C5.84522 6.30234 6.68091 5.5604 6.9594 4.56424C7.08252 4.12382 7.07844 3.59112 6.9485 3.14271C6.71788 2.34691 6.12467 1.70766 5.34417 1.41388C5.01134 1.2886 4.6133 1.23473 4.23086 1.2632ZM8.60705 1.26198C8.34402 1.30673 8.16233 1.57871 8.21759 1.84493C8.25423 2.02147 8.40669 2.17685 8.57966 2.21394C8.64204 2.22732 9.83046 2.23324 12.4571 2.23324H16.2445L16.3481 2.27201C16.4879 2.32432 16.6228 2.45916 16.6751 2.59898L16.7139 2.70259V7.32724C16.7139 11.9331 16.7137 11.9523 16.6773 12.0497C16.6284 12.1804 16.5199 12.2998 16.3937 12.3617L16.2909 12.4122L12.9609 12.4212L9.63086 12.4302L9.54986 12.4723C9.37045 12.5655 9.27536 12.7196 9.27536 12.9171C9.27536 13.1103 9.38638 13.2808 9.56625 13.364L9.64886 13.4022L12.8439 13.4075C14.9987 13.411 16.1087 13.4065 16.2534 13.3936C16.6556 13.3577 16.9616 13.2174 17.2358 12.9431C17.4997 12.6792 17.6464 12.3684 17.6848 11.9918C17.7112 11.7332 17.7113 2.92142 17.6849 2.66439C17.6149 1.98239 17.1454 1.44707 16.4753 1.2852C16.3534 1.25575 16.0947 1.25346 12.5199 1.25037C10.4161 1.24853 8.65535 1.25375 8.60705 1.26198ZM4.22186 2.244C3.52835 2.37175 3.05814 2.7826 2.86001 3.43391C2.81708 3.57509 2.81183 3.62149 2.81156 3.86224C2.8113 4.0854 2.81811 4.15722 2.85083 4.27624C3.01307 4.86635 3.46715 5.3136 4.05086 5.45821C4.27676 5.51419 4.59813 5.5143 4.82486 5.45846C5.15615 5.3769 5.49428 5.16258 5.71073 4.89695C5.82873 4.75214 5.97295 4.46682 6.02448 4.27624C6.08073 4.06812 6.08097 3.67086 6.02493 3.46624C5.82753 2.74547 5.22386 2.2635 4.49186 2.24226C4.36811 2.23866 4.24661 2.23945 4.22186 2.244ZM4.14086 6.58152C4.11116 6.5856 4.01396 6.59808 3.92486 6.60924C3.55056 6.65611 3.14616 6.78346 2.7782 6.97028C1.76495 7.48474 1.05747 8.41302 0.828856 9.52805C0.761266 9.8577 0.744922 10.2601 0.751258 11.4402L0.756856 12.4842L0.799858 12.5794C0.824626 12.6342 0.876592 12.7043 0.922366 12.7446C1.04995 12.8569 1.11725 12.8712 1.51606 12.8712C1.70735 12.8712 1.86413 12.8733 1.86447 12.8757C1.86481 12.8782 1.97693 13.9946 2.11361 15.3565C2.34469 17.659 2.36514 17.8389 2.40503 17.9187C2.45541 18.0196 2.541 18.0996 2.65494 18.1523C2.73641 18.19 2.74634 18.1902 4.43786 18.1902C6.12593 18.1902 6.13947 18.19 6.21986 18.1526C6.33704 18.0981 6.41325 18.0272 6.46568 17.9237C6.50982 17.8366 6.52177 17.732 6.75296 15.4105C6.88564 14.0783 6.99854 12.9619 7.00385 12.9297L7.01349 12.8712H7.36046C7.75837 12.8712 7.82582 12.8568 7.95335 12.7446C7.99912 12.7043 8.05109 12.6342 8.07585 12.5794L8.11886 12.4842L8.11828 11.2242C8.11778 10.1126 8.11396 9.93904 8.08581 9.75015C7.9595 8.90274 7.57524 8.15877 6.96444 7.57902C6.42781 7.0697 5.76437 6.74222 5.0136 6.61608C4.85207 6.58893 4.25787 6.56541 4.14086 6.58152ZM3.75386 7.64195C3.14182 7.81031 2.65096 8.14197 2.27492 8.64124C2.04699 8.94387 1.87964 9.3139 1.78952 9.71451C1.75137 9.88412 1.74923 9.93803 1.74261 10.8957L1.73566 11.8992L2.08326 11.8996C2.38226 11.9 2.4411 11.9047 2.50403 11.9333C2.60897 11.9809 2.69533 12.0629 2.74469 12.1618C2.78457 12.2416 2.80502 12.4215 3.03611 14.7239C3.17278 16.0859 3.2849 17.2023 3.28524 17.2047C3.28559 17.2072 3.8035 17.2092 4.43616 17.2092H5.58647L5.59743 17.1237C5.60346 17.0767 5.71391 15.9771 5.84288 14.6802C5.97183 13.3833 6.08887 12.2815 6.10295 12.2318C6.13585 12.1154 6.23125 12.0047 6.34944 11.9458C6.4403 11.9006 6.45269 11.8992 6.79038 11.8992H7.13786L7.13753 10.9857C7.13714 9.88394 7.12295 9.74153 6.97231 9.32524C6.70488 8.58625 6.09974 7.98248 5.36032 7.71687C5.24786 7.67648 4.96572 7.59724 4.93435 7.59724C4.92859 7.59724 3.92912 7.59855 3.92912 7.59855L5.76852 6.9628L5.625 7.0124L5.25 7.14201L4.84882 7.28067L4.41389 7.431L3.92912 7.59855C3.91688 7.59929 3.83801 7.61882 3.75386 7.64195Z"
          fill="#878D96"/>
  </g>
  <defs>
    <clipPath id="clip0_1814_10176">
      <rect width="18" height="18" fill="white" transform="translate(0 0.5)"/>
    </clipPath>
  </defs>
</svg>
