<svg width="24" height="24" viewBox="0 0 24 24" fill="none" xmlns="http://www.w3.org/2000/svg">
<g clip-path="url(#clip0_967_5217)">
<path d="M24 9.41153C24.0615 9.18032 24.0554 8.93632 23.9825 8.70844C23.9096 8.48057 23.7729 8.27837 23.5886 8.12582C21.6882 6.43753 19.475 5.13869 17.0743 4.30296V2.70868C17.0726 2.54845 17.027 2.39176 16.9424 2.25571C16.8577 2.11967 16.7373 2.0095 16.5943 1.93725C14.1062 0.661629 11.3503 -0.00366211 8.55428 -0.00366211C5.75826 -0.00366211 3.00237 0.661629 0.514286 1.93725C0.364859 2.00468 0.237402 2.11277 0.146465 2.24918C0.0555282 2.38558 0.00477537 2.54481 1.57317e-08 2.70868V7.40582C-9.26829e-05 9.14779 0.409485 10.8654 1.19566 12.4198C1.98183 13.9743 3.12255 15.3221 4.52571 16.3544C5.19179 18.8336 6.60421 21.048 8.57143 22.6972C9.525 23.5221 10.7393 23.9835 12 24.0001C12.3923 23.9958 12.7831 23.9498 13.1657 23.863C15.4781 23.3399 17.5985 22.1818 19.2885 20.5191C20.9785 18.8564 22.1708 16.7551 22.7314 14.4515L24 9.41153ZM20.2114 13.8172C19.7556 15.6569 18.8004 17.3348 17.4513 18.6659C16.1021 19.9969 14.4113 20.9293 12.5657 21.3601C12.1466 21.4537 11.7114 21.4482 11.2947 21.3441C10.8781 21.2399 10.4915 21.0399 10.1657 20.7601C8.73568 19.5077 7.68067 17.8835 7.11782 16.0679C6.55496 14.2522 6.50626 12.3161 6.97714 10.4744L7.98857 6.51439C8.00609 6.43347 8.04863 6.36012 8.11017 6.30474C8.17171 6.24935 8.24912 6.21474 8.33143 6.20582C10.5557 5.77038 12.8486 5.83034 15.0471 6.38144C17.2455 6.93254 19.2956 7.96124 21.0514 9.39439C21.1179 9.44545 21.168 9.51489 21.1954 9.59411C21.2228 9.67334 21.2264 9.75886 21.2057 9.8401L20.2114 13.8172Z" fill="#212B3D"/>
<path d="M12 12.6516C11.7246 12.65 11.4569 12.5613 11.2351 12.398C11.0134 12.2348 10.849 12.0055 10.7657 11.743C10.7449 11.6621 10.7017 11.5886 10.641 11.531C10.5804 11.4734 10.5048 11.434 10.4228 11.4173C10.3421 11.3933 10.2563 11.3918 10.1747 11.4129C10.0931 11.4341 10.0189 11.4771 9.95998 11.5373C9.71216 11.7367 9.39924 11.8371 9.08169 11.8192C8.76415 11.8013 8.46451 11.6663 8.24069 11.4403C8.01686 11.2144 7.88473 10.9135 7.86982 10.5958C7.85492 10.2781 7.95829 9.96611 8.15998 9.72019C8.53098 9.33107 8.99821 9.04688 9.51436 8.89639C10.0305 8.7459 10.5773 8.73445 11.0993 8.86321C11.6212 8.99197 12.1 9.25636 12.4869 9.62962C12.8739 10.0029 13.1553 10.4717 13.3028 10.9888C13.3995 11.3161 13.3639 11.6683 13.2036 11.9697C13.0433 12.271 12.7712 12.4974 12.4457 12.6002L12 12.6516Z" fill="#212B3D"/>
<path d="M18.8572 14.3657C18.5818 14.3641 18.3141 14.2754 18.0923 14.1121C17.8705 13.9489 17.7062 13.7196 17.6229 13.4572C17.5987 13.3793 17.555 13.3089 17.496 13.2526C17.437 13.1963 17.3646 13.1559 17.2857 13.1353C17.2068 13.1147 17.124 13.1146 17.045 13.1349C16.966 13.1552 16.8935 13.1953 16.8343 13.2514C16.5932 13.4922 16.2665 13.6275 15.9257 13.6275C15.585 13.6275 15.2582 13.4922 15.0172 13.2514C14.8959 13.1332 14.7995 12.992 14.7336 12.8359C14.6678 12.6799 14.6339 12.5122 14.6339 12.3429C14.6339 12.1735 14.6678 12.0059 14.7336 11.8498C14.7995 11.6938 14.8959 11.5525 15.0172 11.4343C15.3882 11.0452 15.8554 10.761 16.3716 10.6105C16.8877 10.46 17.4345 10.4486 17.9564 10.5773C18.4784 10.7061 18.9571 10.9705 19.3441 11.3437C19.7311 11.717 20.0125 12.1859 20.16 12.7029C20.2567 13.0302 20.2211 13.3824 20.0608 13.6838C19.9005 13.9851 19.6284 14.2115 19.3029 14.3143C19.158 14.3549 19.0075 14.3723 18.8572 14.3657V14.3657Z" fill="#212B3D"/>
</g>
<defs>
<clipPath id="clip0_967_5217">
<rect width="24" height="24" fill="white"/>
</clipPath>
</defs>
</svg>
