<svg width="20" height="20" viewBox="0 0 20 20" fill="none" xmlns="http://www.w3.org/2000/svg">
<path d="M7.96907 16.095C7.27718 16.095 6.56503 16.0389 5.8486 15.9266C4.58677 15.7286 3.30944 15.0686 2.94799 14.871L2 14.3527L3.02636 14.0152C4.1483 13.6463 4.83079 13.4174 5.67563 13.059C4.82969 12.6493 4.17772 11.9124 3.86388 10.9598L3.62511 10.2349L3.82091 10.2648C3.63524 10.0777 3.48864 9.88775 3.37499 9.71502C2.97082 9.10113 2.75683 8.35102 2.80236 7.7082L2.84728 7.07551L3.22606 7.22224C3.06628 6.92048 2.9508 6.59822 2.88293 6.26046C2.71752 5.43673 2.85595 4.56162 3.27282 3.79636L3.60277 3.19065L4.04405 3.72068C5.43967 5.39718 7.20736 6.39168 9.30536 6.68282C9.21967 6.09212 9.28388 5.52206 9.4964 5.01107C9.74384 4.41611 10.184 3.9116 10.769 3.55198C11.4186 3.15269 12.2065 2.95921 12.9873 3.00718C13.8158 3.05809 14.568 3.36851 15.1654 3.90549C15.4572 3.82969 15.6721 3.74876 15.9627 3.63938C16.1375 3.57359 16.3357 3.49888 16.5838 3.41343L17.4978 3.09849L16.9017 4.80087C16.941 4.79758 16.9816 4.79477 17.0239 4.79294L18 4.74875L17.4231 5.53719C17.39 5.58236 17.3816 5.59518 17.3699 5.61288C17.3234 5.68294 17.2655 5.7701 16.4736 6.82747C16.2754 7.09224 16.1764 7.43708 16.1948 7.79865C16.265 9.17266 16.0965 10.4158 15.6935 11.4934C15.3124 12.513 14.7218 13.3877 13.9384 14.0934C12.9689 14.9664 11.7327 15.5642 10.264 15.8699C9.54352 16.0198 8.76985 16.095 7.96907 16.095V16.095Z" fill="#212B3D"/>
</svg>
