<svg width="18" height="16" viewBox="0 0 18 16" fill="none" xmlns="http://www.w3.org/2000/svg">
<path fill-rule="evenodd" clip-rule="evenodd" d="M1.79132 0.128124C1.22949 0.248508 0.765123 0.672768 0.596337 1.2199C0.528981 1.4382 0.519477 1.67623 0.525417 2.99626C0.530961 4.23241 0.531483 4.24822 0.569643 4.32826C0.614877 4.42316 0.676041 4.49055 0.778497 4.55836L0.852405 4.60726H9.00003H17.1477L17.2216 4.55836C17.324 4.49055 17.3852 4.42316 17.4304 4.32826C17.4686 4.24814 17.4691 4.23338 17.4745 2.96026C17.4779 2.15887 17.4729 1.59426 17.4611 1.46387C17.4309 1.13038 17.3404 0.889074 17.1601 0.661878C16.9224 0.362286 16.6046 0.174672 16.2388 0.117918C16.1487 0.103932 14.061 0.0986941 9.01458 0.0997381C2.78494 0.101016 1.90166 0.10449 1.79132 0.128124ZM1.99659 1.08844C1.82563 1.11739 1.64633 1.25681 1.56332 1.4254L1.52103 1.51126L1.51612 2.57776L1.51121 3.64426H8.99962H16.488L16.4872 2.55976C16.4864 1.40074 16.4872 1.41203 16.3955 1.27638C16.3337 1.18512 16.231 1.12088 16.1043 1.09433C16.0142 1.07545 14.668 1.07134 9.03603 1.07275C5.20968 1.07372 2.04194 1.08077 1.99659 1.08844ZM1.58481 6.11271C1.46795 6.1711 1.38207 6.26614 1.3379 6.38595C1.30426 6.47721 1.30581 13.4594 1.33952 13.6793C1.43015 14.2703 1.67627 14.7578 2.08962 15.1649C2.49156 15.5607 3.04414 15.8198 3.62183 15.8831C3.86616 15.9099 14.2059 15.9099 14.4502 15.8831C15.6012 15.7569 16.5005 14.9196 16.7179 13.7717C16.7468 13.6193 16.749 13.3448 16.749 10.0073C16.749 6.55452 16.7477 6.40454 16.7161 6.34104C16.6337 6.17539 16.4479 6.05675 16.2704 6.05644C16.0792 6.0561 15.8749 6.1988 15.8112 6.37711C15.7921 6.43079 15.7874 7.09121 15.7867 9.88126C15.7861 12.1172 15.7792 13.3759 15.7672 13.4813C15.7402 13.7168 15.7054 13.8371 15.6053 14.0393C15.3807 14.4933 14.9648 14.803 14.454 14.8965C14.2503 14.9339 3.79535 14.9334 3.60903 14.896C2.97727 14.7694 2.51237 14.3396 2.34272 13.7254L2.29516 13.5533L2.28609 9.98026C2.27725 6.49199 2.27621 6.40559 2.24217 6.33701C2.16102 6.17344 1.97645 6.05675 1.79841 6.05644C1.72141 6.0563 1.67126 6.06951 1.58481 6.11271ZM8.8813 6.86207C8.83085 6.8801 8.75795 6.92023 8.71931 6.95122C8.68066 6.98222 8.1372 7.52051 7.51165 8.14743C6.2555 9.40628 6.28176 9.37537 6.28301 9.59326C6.28412 9.78966 6.3687 9.93343 6.5372 10.0254C6.61678 10.0688 6.6544 10.0778 6.75903 10.0781C6.98266 10.0788 6.97775 10.0827 7.80661 9.25603L8.54946 8.51522L8.55424 10.6562L8.55903 12.7973L8.59824 12.8705C8.65018 12.9675 8.75919 13.0638 8.86132 13.1028C8.98862 13.1514 9.1683 13.1358 9.28056 13.0664C9.38251 13.0034 9.47683 12.8873 9.5032 12.7923C9.51555 12.7479 9.52187 12.0147 9.52192 10.6199L9.52203 8.51465L10.2652 9.25574C11.0947 10.0831 11.0896 10.0791 11.313 10.0777C11.4934 10.0767 11.6214 10.0049 11.7217 9.84857C11.7697 9.77369 11.7792 9.73987 11.785 9.62287C11.7907 9.5072 11.7852 9.4716 11.7504 9.39958C11.6918 9.27835 9.35127 6.93252 9.23718 6.88073C9.12439 6.82952 8.99182 6.82258 8.8813 6.86207Z" fill="black"/>
</svg>
