<svg width="18" height="18" viewBox="0 0 18 18" fill="none" xmlns="http://www.w3.org/2000/svg" >
<path fill-rule="evenodd" clip-rule="evenodd" d="M7.36066 0.00583441C7.10421 0.0318469 6.79495 0.14613 6.57465 0.296304C6.34642 0.451884 6.13954 0.674549 5.99801 0.916947C5.90211 1.08118 5.81258 1.30952 5.76988 1.49876C5.72532 1.69624 5.72407 1.71615 5.72083 2.28474L5.71782 2.81076L0.91583 2.81506L0.854597 2.83749C0.701482 2.89355 0.568284 3.03769 0.520698 3.19881C0.498654 3.27348 0.493219 3.41395 0.509247 3.49514C0.547243 3.68759 0.69382 3.85418 0.877559 3.91374C0.920721 3.92772 0.989173 3.92877 2.01612 3.93117L3.10876 3.93373V10.0391C3.10876 14.3597 3.11118 16.1708 3.11705 16.2346C3.13364 16.4151 3.18022 16.6173 3.24231 16.7786C3.49284 17.4291 4.02067 17.8751 4.67021 17.9851C4.75438 17.9993 4.96574 18 9.49618 18C14.0751 18 14.2372 17.9995 14.326 17.9847C14.6428 17.9318 14.9216 17.8053 15.1769 17.5986C15.2651 17.5271 15.4248 17.3591 15.4933 17.2655C15.7134 16.9651 15.8483 16.6072 15.8833 16.231C15.8887 16.1727 15.8913 14.2025 15.8913 10.0396V3.93373L16.9839 3.93117C18.0093 3.92878 18.0793 3.92771 18.122 3.91379C18.3056 3.85389 18.4536 3.68616 18.4908 3.49591C18.5068 3.4138 18.5014 3.27351 18.4793 3.19881C18.4317 3.03769 18.2985 2.89355 18.1454 2.83749L18.0842 2.81506L13.2812 2.81076V2.33307C13.2812 1.86175 13.2771 1.75581 13.2536 1.6143C13.2019 1.30275 13.0706 0.991172 12.8833 0.735388C12.8147 0.641827 12.655 0.47377 12.5668 0.402343C12.3632 0.237438 12.1418 0.122024 11.9072 0.0585524C11.6778 -0.00355727 11.8843 0.00153469 9.53445 0.00011523C8.37675 -0.000586248 7.39855 0.00198866 7.36066 0.00583441ZM7.41342 1.12812C7.35361 1.1389 7.25182 1.17562 7.19227 1.20789C7.01442 1.30425 6.87493 1.47088 6.8081 1.66683C6.76317 1.79854 6.76483 1.77532 6.76182 2.31371L6.75903 2.81094H12.2402L12.2401 2.3426C12.2401 2.07168 12.2369 1.85293 12.2325 1.82367C12.1872 1.523 11.9814 1.26368 11.7082 1.16309C11.5825 1.1168 11.6987 1.11906 9.48944 1.1201C8.36913 1.12063 7.43492 1.12424 7.41342 1.12812ZM4.14973 10.0324C4.14973 15.5639 4.15085 16.1374 4.16184 16.1951C4.19592 16.3739 4.26281 16.5093 4.37898 16.6346C4.48404 16.7479 4.57701 16.8054 4.74293 16.8598L4.7965 16.8774L9.45791 16.8799C12.892 16.8818 14.1354 16.88 14.1804 16.8731C14.315 16.8526 14.4506 16.7885 14.5598 16.6939C14.6921 16.5793 14.7777 16.4374 14.8292 16.2473L14.8462 16.1844L14.8503 3.9333H4.14973V10.0324ZM9.32336 7.05297C9.23279 7.07855 9.16576 7.12145 9.09185 7.20113C9.04055 7.25644 9.0196 7.28654 8.99406 7.34166C8.93442 7.47039 8.93926 7.19963 8.93926 10.4075C8.93926 13.6144 8.93445 13.3437 8.99374 13.4734C9.01928 13.5293 9.03925 13.5581 9.09185 13.6148C9.14731 13.6746 9.16946 13.692 9.23023 13.7236C9.31299 13.7666 9.36428 13.7788 9.46349 13.7788C9.58761 13.7788 9.68901 13.7399 9.7862 13.6551C9.87246 13.5799 9.94414 13.4547 9.96586 13.3414C9.98099 13.2624 9.98116 7.55399 9.96603 7.4737C9.92869 7.27547 9.75937 7.08999 9.57812 7.04878C9.50335 7.03178 9.39188 7.03361 9.32336 7.05297Z" fill="currentColor"/>
<path fill-rule="evenodd" clip-rule="evenodd" d="M8.98628 6.57576C9.2206 6.34145 9.6005 6.34145 9.83481 6.57576L12.2452 8.98618C12.4795 9.22049 12.4795 9.60039 12.2452 9.83471C12.0109 10.069 11.631 10.069 11.3967 9.83471L8.98628 7.42429C8.75197 7.18997 8.75197 6.81007 8.98628 6.57576Z" fill="currentColor"/>
<path fill-rule="evenodd" clip-rule="evenodd" d="M9.83481 6.57576C10.0691 6.81007 10.0689 7.18997 9.83458 7.42429L7.42417 9.8347C7.18985 10.069 6.80995 10.069 6.57564 9.83471C6.34132 9.60039 6.34132 9.22049 6.57564 8.98618L8.98628 6.57576C9.2206 6.34145 9.6005 6.34145 9.83481 6.57576Z" fill="currentColor"/>
<defs>
<clipPath id="clip0_10001_1465">
<rect width="18" height="18" fill="white" transform="translate(0.5)"/>
</clipPath>
</defs>
</svg>
