<svg width="16" height="16" viewBox="0 0 16 16" fill="none" xmlns="http://www.w3.org/2000/svg">
<path d="M13 6.33328H12.5V4.49994C12.4997 3.41969 12.1108 2.37559 11.4045 1.55827C10.6981 0.740956 9.72138 0.204963 8.65257 0.0481634C7.58376 -0.108636 6.49421 0.124219 5.58287 0.704209C4.67152 1.2842 3.99919 2.17263 3.68863 3.20728C3.65724 3.31211 3.64681 3.42211 3.65793 3.53098C3.66906 3.63985 3.70152 3.74546 3.75345 3.84178C3.80539 3.93811 3.8758 4.02326 3.96064 4.09238C4.04549 4.16149 4.14312 4.21322 4.24796 4.24461C4.3528 4.27599 4.46279 4.28642 4.57166 4.2753C4.68053 4.26418 4.78614 4.23172 4.88247 4.17978C4.97879 4.12784 5.06395 4.05744 5.13306 3.97259C5.20218 3.88774 5.25391 3.79011 5.28529 3.68528C5.48109 3.03401 5.90455 2.47486 6.47839 2.10989C7.05223 1.74493 7.73817 1.59848 8.41102 1.69728C9.08387 1.79608 9.69876 2.13355 10.1435 2.64807C10.5881 3.1626 10.833 3.81988 10.8333 4.49994V5.99994C10.8333 6.08835 10.7982 6.17313 10.7357 6.23564C10.6731 6.29816 10.5884 6.33328 10.5 6.33328H2.99996C2.64634 6.33328 2.3072 6.47375 2.05715 6.7238C1.8071 6.97385 1.66663 7.31299 1.66663 7.66661V14.6666C1.66663 15.0202 1.8071 15.3594 2.05715 15.6094C2.3072 15.8595 2.64634 15.9999 2.99996 15.9999H13C13.3536 15.9999 13.6927 15.8595 13.9428 15.6094C14.1928 15.3594 14.3333 15.0202 14.3333 14.6666V7.66661C14.3333 7.31299 14.1928 6.97385 13.9428 6.7238C13.6927 6.47375 13.3536 6.33328 13 6.33328ZM7.99996 12.3333C7.73625 12.3333 7.47846 12.2551 7.2592 12.1086C7.03993 11.9621 6.86904 11.7538 6.76812 11.5102C6.6672 11.2666 6.6408 10.9985 6.69225 10.7398C6.74369 10.4812 6.87068 10.2436 7.05715 10.0571C7.24362 9.87066 7.4812 9.74368 7.73984 9.69223C7.99848 9.64078 8.26657 9.66719 8.5102 9.7681C8.75384 9.86902 8.96208 10.0399 9.10859 10.2592C9.25509 10.4784 9.33329 10.7362 9.33329 10.9999C9.33329 11.3536 9.19282 11.6927 8.94277 11.9428C8.69272 12.1928 8.35358 12.3333 7.99996 12.3333Z" fill="#212B3D"/>
</svg>
