<svg width="18" height="18" viewBox="0 0 18 18" fill="none" xmlns="http://www.w3.org/2000/svg">
  <path fill-rule="evenodd" clip-rule="evenodd" d="M9.03128 10.9986C8.84052 10.9692 8.66689 10.8077 8.62782 10.6233C8.61897 10.5816 8.61751 10.0183 8.6174 6.60051L8.61728 2.62615L7.32308 3.91906C6.61127 4.63015 6.01227 5.22386 5.99197 5.23836C5.79206 5.38096 5.52233 5.35566 5.34962 5.17826C5.19183 5.01616 5.16665 4.75996 5.29018 4.57356C5.31859 4.53066 5.68537 4.16046 7.07421 2.77294C8.7085 1.14016 8.82577 1.02461 8.873 1.00043C8.94834 0.961826 9.01864 0.944526 9.10108 0.944026C9.19377 0.943526 9.24089 0.953826 9.32288 0.992826L9.39128 1.02533L11.1559 2.79043L12.9206 4.55556L12.9507 4.61676C12.9909 4.69836 13.0043 4.76516 13 4.86156C12.9942 4.99066 12.9503 5.09276 12.8628 5.18116C12.7683 5.27646 12.667 5.32166 12.5341 5.32756C12.4376 5.33176 12.3707 5.31836 12.2893 5.27816L12.2281 5.24796L10.9159 3.93706L9.60368 2.62611L9.60349 6.55716C9.60337 8.82816 9.60056 10.5157 9.59682 10.5532C9.58878 10.6337 9.5689 10.698 9.53375 10.7573C9.47249 10.8604 9.3778 10.938 9.2662 10.9765C9.21572 10.9939 9.19019 10.9983 9.12855 10.9999C9.08694 11.001 9.04316 11.0005 9.03128 10.9986ZM0.372299 13.5914C0.213575 13.6366 0.0839896 13.7636 0.034936 13.922L0.0182104 13.9759V14.6887C0.0182104 15.4573 0.0185416 15.4655 0.0587752 15.6931C0.210702 16.5529 0.785385 17.3062 1.58061 17.6882C1.86405 17.8243 2.13846 17.9035 2.46981 17.9446C2.56962 17.957 2.85727 17.9575 9.01461 17.9575C15.1743 17.9575 15.4596 17.957 15.5594 17.9446C15.8952 17.9029 16.1647 17.8251 16.4512 17.6871C16.9824 17.4313 17.4079 17.0242 17.6887 16.5031C17.8616 16.1822 17.9642 15.843 18.0054 15.4555C18.0153 15.3622 18.0177 15.2344 18.0197 14.6743C18.0211 14.2767 18.0194 13.9989 18.0155 13.9903C18.0119 13.9824 18.0035 13.9547 17.9969 13.9288C17.978 13.8542 17.9343 13.7824 17.8669 13.7156C17.8182 13.6672 17.7957 13.651 17.7401 13.6244C17.703 13.6065 17.6554 13.5884 17.6345 13.5841C17.5717 13.5713 17.4555 13.5744 17.3919 13.5907C17.2353 13.6308 17.0977 13.7666 17.0489 13.9291C17.0328 13.983 17.0327 13.9847 17.0277 14.6959C17.0244 15.159 17.0199 15.4244 17.0148 15.4535C16.954 15.7977 16.8352 16.0689 16.6384 16.3123C16.5871 16.3759 16.4652 16.5009 16.3982 16.5587C16.2099 16.7213 15.9453 16.857 15.693 16.9205C15.6413 16.9335 15.5601 16.9502 15.5126 16.9576C15.4286 16.9708 15.2486 16.9711 9.01461 16.9711C2.891 16.9711 2.59929 16.9706 2.52021 16.9583C2.41323 16.9416 2.25748 16.9024 2.16892 16.8698C2.06154 16.8303 1.89237 16.7445 1.79661 16.6809C1.42821 16.4361 1.15921 16.0572 1.05459 15.6357C1.00457 15.4342 1.00604 15.4604 1.00103 14.6815C0.996064 13.9085 0.998721 13.9536 0.952274 13.8552C0.891844 13.7272 0.769689 13.6247 0.637331 13.5907C0.56176 13.5714 0.441318 13.5717 0.372299 13.5914ZM0.0180664 14.6743C0.0180664 15.0466 0.0189376 15.1978 0.0200104 15.0104C0.021076 14.823 0.021076 14.5184 0.0200104 14.3336C0.0189376 14.1488 0.0180664 14.3021 0.0180664 14.6743Z" fill="#2F463F"/>
  </svg>
