<svg xmlns="http://www.w3.org/2000/svg" width="12" height="12" viewBox="0 0 12 12" fill="none">
  <path fill-rule="evenodd" clip-rule="evenodd"
        d="M3.62862 1.50204C2.81413 1.54575 2.08729 1.99481 1.68254 2.70436C1.3846 3.22666 1.2989 3.85541 1.44504 4.44676C1.64762 5.26651 2.2769 5.92148 3.08668 6.15542C3.29795 6.21645 3.47311 6.24286 3.69886 6.24771C3.92806 6.25264 4.1165 6.23171 4.33468 6.17708C5.08609 5.98893 5.70693 5.43115 5.97772 4.70092C6.04969 4.50684 6.09299 4.31725 6.11635 4.09396C6.12467 4.01436 6.12474 3.73695 6.11645 3.65716C6.06432 3.15528 5.88733 2.73172 5.56786 2.34436C5.51192 2.27652 5.33212 2.09876 5.26204 2.04199C4.97518 1.80962 4.66718 1.65439 4.32468 1.56958C4.10084 1.51415 3.85231 1.49003 3.62862 1.50204ZM8.13482 1.50211C7.9196 1.51354 7.71328 1.55285 7.50807 1.62152C7.24168 1.71068 7.00008 1.84246 6.78185 2.01767C6.71096 2.07459 6.60807 2.16791 6.57778 2.20276C6.53559 2.25131 6.51631 2.31033 6.51976 2.38036C6.52228 2.43134 6.52345 2.4347 6.58248 2.56044C6.86363 3.1593 6.94464 3.84605 6.81093 4.49716C6.75995 4.74543 6.68282 4.97587 6.57134 5.21292C6.52569 5.31001 6.51867 5.33263 6.51874 5.38244C6.5188 5.42669 6.52672 5.46093 6.54584 5.49973C6.56219 5.53291 6.65168 5.62411 6.73948 5.69709C7.11019 6.00522 7.52903 6.18319 8.01265 6.23811C8.1048 6.24858 8.38077 6.25003 8.47228 6.24054C9.06702 6.17883 9.58205 5.92483 9.98773 5.49316C10.3232 5.13621 10.5436 4.66962 10.6056 4.18516C10.6251 4.03255 10.6305 3.82187 10.6185 3.68356C10.5685 3.11018 10.3308 2.59686 9.92929 2.19535C9.52828 1.79433 9.00755 1.55312 8.44348 1.50712C8.35593 1.49998 8.21727 1.49772 8.13482 1.50211ZM3.55948 6.50352C3.3083 6.51753 3.07672 6.55188 2.84428 6.60961C1.77198 6.87593 0.866675 7.60835 0.379657 8.60356C0.158593 9.0553 0.0337551 9.53766 0.00511345 10.0508C-0.00188975 10.1762 -0.000891347 10.2732 0.00777745 10.31C0.0209535 10.3659 0.0564254 10.4183 0.103485 10.4513C0.142278 10.4786 0.175139 10.4916 0.219779 10.4974C0.244835 10.5007 1.41249 10.5018 3.77548 10.5009L7.29388 10.4996L7.32543 10.4888C7.42021 10.4566 7.48388 10.38 7.49783 10.2815C7.50323 10.2434 7.49617 10.0277 7.48588 9.91636C7.41146 9.1107 7.10019 8.38474 6.56692 7.77316C6.50004 7.69646 6.35468 7.54906 6.27148 7.47358C5.64513 6.90535 4.87218 6.57392 4.02028 6.5083C3.93079 6.50141 3.64958 6.49849 3.55948 6.50352ZM8.05983 6.50404C7.75097 6.52007 7.44911 6.57391 7.14268 6.66764C7.03887 6.69939 7.00875 6.7143 6.96988 6.75316C6.88837 6.83468 6.87073 6.94588 6.92282 7.04983C6.93288 7.06989 6.9551 7.09831 6.98874 7.1341C7.18937 7.34765 7.31224 7.49686 7.44579 7.68916C7.57687 7.87791 7.66685 8.02923 7.77116 8.23636C8.00484 8.70041 8.15131 9.18179 8.21515 9.69556C8.23324 9.84113 8.24154 9.9536 8.24686 10.1252C8.24948 10.2096 8.254 10.2896 8.25691 10.3028C8.27522 10.3857 8.34374 10.4599 8.42874 10.4888L8.46028 10.4996L10.1019 10.5009C11.1972 10.5019 11.7559 10.5007 11.7808 10.4974C11.8854 10.4837 11.9695 10.4086 11.9935 10.3074C12.0068 10.2513 11.9984 10.0189 11.9758 9.81796C11.8709 8.88446 11.4082 8.01573 10.6878 7.3996C10.3667 7.12497 10.0098 6.91077 9.61468 6.75546C9.1277 6.56405 8.5873 6.47667 8.05983 6.50404Z"
        fill="white"/>
</svg>
