<svg width="16" height="16" viewBox="0 0 16 16" fill="none" xmlns="http://www.w3.org/2000/svg">

<path d="M14.3333 0.666504H1.66667C1.22464 0.666504 0.800716 0.842099 0.488155 1.15466C0.175595 1.46722 0 1.89114 0 2.33317L0 13.6665C0 14.1085 0.175595 14.5325 0.488155 14.845C0.800716 15.1576 1.22464 15.3332 1.66667 15.3332H14.3333C14.5522 15.3332 14.7689 15.2901 14.9711 15.2063C15.1733 15.1225 15.3571 14.9998 15.5118 14.845C15.6666 14.6903 15.7894 14.5065 15.8731 14.3043C15.9569 14.1021 16 13.8854 16 13.6665V2.33317C16 2.1143 15.9569 1.89757 15.8731 1.69536C15.7894 1.49316 15.6666 1.30942 15.5118 1.15466C15.3571 0.999895 15.1733 0.877129 14.9711 0.793371C14.7689 0.709614 14.5522 0.666504 14.3333 0.666504ZM11.6667 6.1665H10.3333C10.1124 6.16686 9.90067 6.25477 9.74447 6.41097C9.58826 6.56718 9.50035 6.77893 9.5 6.99984V8.99984C9.50035 9.22074 9.58826 9.4325 9.74447 9.5887C9.90067 9.74491 10.1124 9.83282 10.3333 9.83317H11.6667C11.8876 9.83282 12.0993 9.74491 12.2555 9.5887C12.4117 9.4325 12.4996 9.22074 12.5 8.99984C12.4998 8.86649 12.5522 8.73845 12.6458 8.64348C12.7394 8.5485 12.8667 8.49426 13 8.4925C13.0653 8.49171 13.1301 8.50388 13.1907 8.52831C13.2513 8.55274 13.3065 8.58894 13.353 8.63482C13.3995 8.6807 13.4364 8.73535 13.4616 8.7956C13.4869 8.85585 13.4999 8.92051 13.5 8.98584C13.5012 9.2276 13.4547 9.46723 13.3632 9.691C13.2717 9.91477 13.1369 10.1183 12.9666 10.2899C12.7963 10.4615 12.5938 10.5978 12.3708 10.691C12.1477 10.7843 11.9084 10.8326 11.6667 10.8332H10.3333C9.84721 10.8328 9.3811 10.6395 9.03736 10.2958C8.69362 9.95207 8.50035 9.48596 8.5 8.99984V6.99984C8.50035 6.51372 8.69362 6.04761 9.03736 5.70387C9.3811 5.36013 9.84721 5.16686 10.3333 5.1665H11.6667C12.1528 5.16686 12.6189 5.36013 12.9626 5.70387C13.3064 6.04761 13.4996 6.51372 13.5 6.99984C13.5004 7.13355 13.4481 7.26205 13.3546 7.35759C13.2611 7.45313 13.1337 7.50805 13 7.5105C12.9349 7.51156 12.8702 7.49969 12.8097 7.47556C12.7492 7.45144 12.6941 7.41554 12.6476 7.36996C12.6011 7.32438 12.5641 7.27002 12.5388 7.21003C12.5134 7.15005 12.5003 7.08562 12.5 7.0205V6.99984C12.4996 6.77893 12.4117 6.56718 12.2555 6.41097C12.0993 6.25477 11.8876 6.16686 11.6667 6.1665V6.1665ZM5.66667 6.1665H4.33333C4.11243 6.16686 3.90067 6.25477 3.74447 6.41097C3.58826 6.56718 3.50035 6.77893 3.5 6.99984V8.99984C3.50035 9.22074 3.58826 9.4325 3.74447 9.5887C3.90067 9.74491 4.11243 9.83282 4.33333 9.83317H5.66667C5.88757 9.83282 6.09933 9.74491 6.25553 9.5887C6.41174 9.4325 6.49965 9.22074 6.5 8.99984C6.49981 8.86649 6.5522 8.73845 6.6458 8.64348C6.7394 8.5485 6.86667 8.49426 7 8.4925C7.06532 8.49171 7.13015 8.50388 7.19073 8.52831C7.25132 8.55274 7.30646 8.58894 7.35296 8.63482C7.39946 8.6807 7.4364 8.73535 7.46164 8.7956C7.48688 8.85585 7.49992 8.92051 7.5 8.98584C7.50123 9.2276 7.45475 9.46723 7.36322 9.691C7.2717 9.91477 7.13692 10.1183 6.96662 10.2899C6.79632 10.4615 6.59383 10.5978 6.37077 10.691C6.1477 10.7843 5.90843 10.8326 5.66667 10.8332H4.33333C3.84721 10.8328 3.3811 10.6395 3.03736 10.2958C2.69362 9.95207 2.50035 9.48596 2.5 8.99984V6.99984C2.50035 6.51372 2.69362 6.04761 3.03736 5.70387C3.3811 5.36013 3.84721 5.16686 4.33333 5.1665H5.66667C6.15279 5.16686 6.6189 5.36013 6.96264 5.70387C7.30638 6.04761 7.49965 6.51372 7.5 6.99984C7.50037 7.13355 7.44815 7.26205 7.3546 7.35759C7.26106 7.45313 7.13369 7.50805 7 7.5105C6.93489 7.51156 6.87021 7.49969 6.80973 7.47556C6.74924 7.45144 6.69414 7.41554 6.64763 7.36996C6.60112 7.32438 6.56412 7.27002 6.53878 7.21003C6.51344 7.15005 6.50026 7.08562 6.5 7.0205V6.99984C6.49965 6.77893 6.41174 6.56718 6.25553 6.41097C6.09933 6.25477 5.88757 6.16686 5.66667 6.1665Z" fill="#212B3D"/>






</svg>
