<svg width="19" height="18" viewBox="0 0 19 18" fill="none" xmlns="http://www.w3.org/2000/svg">
<path fill-rule="evenodd" clip-rule="evenodd" d="M16.2034 2.13124C16.1139 2.14084 16.0344 2.17308 15.9649 2.22798C15.9335 2.25279 14.5888 3.54078 13.2643 4.81467L13.0145 5.05499L12.9799 5.03751C12.9609 5.02789 12.8838 4.99342 12.8086 4.96092C11.7215 4.49118 10.5836 4.25558 9.40057 4.25526C8.18625 4.25492 6.89903 4.59238 5.56636 5.26045C4.15208 5.96943 2.72476 7.05467 1.57359 8.29629C1.36833 8.51767 1.28597 8.62986 1.2023 8.80201C0.902701 9.41844 1.00439 10.1353 1.46425 10.6487C2.15888 11.4242 2.9281 12.1198 3.75818 12.723C3.97445 12.8801 4.24796 13.0679 4.42598 13.1815C4.4646 13.2062 4.49618 13.2276 4.49618 13.2291C4.49618 13.2306 4.06575 13.6451 3.53966 14.1502C2.90282 14.7616 2.57422 15.0819 2.55644 15.1087C2.49296 15.2043 2.46983 15.2892 2.47485 15.408C2.48088 15.5508 2.53624 15.6627 2.64846 15.759C2.7371 15.835 2.83565 15.8697 2.96258 15.8695C3.0756 15.8693 3.16583 15.8404 3.24787 15.7781C3.26816 15.7626 3.78753 15.2673 4.40204 14.6774C5.22215 13.8901 5.52944 13.5994 5.55739 13.5844C5.62491 13.5481 5.68044 13.4971 5.72486 13.4303C5.76211 13.3743 5.86365 13.2744 6.67617 12.4942C7.27765 11.9166 7.60333 11.6088 7.63758 11.5857C7.69265 11.5484 7.76035 11.4817 7.78342 11.442C7.80459 11.4055 11.479 7.88076 11.5306 7.84745C11.5893 7.80949 11.6339 7.76709 11.6734 7.71175C11.6953 7.68107 11.9831 7.40008 12.5204 6.88484C12.968 6.45559 13.4087 6.03234 13.4998 5.94428C13.5909 5.85621 14.3231 5.15334 15.127 4.38235C15.9309 3.61136 16.6075 2.95873 16.6306 2.93208C16.7226 2.82601 16.7643 2.68306 16.7434 2.54516C16.7038 2.28332 16.4683 2.10282 16.2034 2.13124ZM9.05019 5.24237C8.07463 5.30917 7.10026 5.5912 6.05499 6.10933C5.00924 6.6277 4.01318 7.32256 3.04196 8.21125C2.7774 8.45333 2.22749 9.01467 2.13682 9.1352C2.09646 9.18885 2.05317 9.27767 2.03237 9.34951C2.01795 9.39932 2.01578 9.4228 2.01578 9.52921C2.01578 9.67118 2.02798 9.73048 2.07781 9.83079C2.11669 9.90907 2.15116 9.95268 2.3175 10.1341C2.65912 10.5066 3.0747 10.9092 3.46658 11.2471C3.98317 11.6926 4.60606 12.1496 5.16791 12.4954L5.22404 12.5299L5.24305 12.5128C5.25351 12.5033 5.58789 12.1833 5.98612 11.8016C6.38436 11.4199 6.71645 11.1017 6.7241 11.0945C6.73779 11.0816 6.73711 11.0795 6.68309 10.9677C6.36034 10.2996 6.28343 9.52846 6.46649 8.79602C6.63789 8.11029 7.02603 7.50752 7.58216 7.06343C8.04165 6.69651 8.60502 6.45849 9.18347 6.38688C9.46561 6.35194 9.81705 6.3574 10.0906 6.40095C10.4422 6.45694 10.8103 6.58051 11.1055 6.74161L11.2023 6.79443L11.727 6.29042L12.2516 5.78641L12.1917 5.76207C12.1587 5.74868 12.0746 5.71697 12.0047 5.69159C11.3801 5.46483 10.7564 5.32457 10.1005 5.26339C9.81097 5.23637 9.29001 5.22595 9.05019 5.24237ZM14.8858 6.31084C14.7326 6.34491 14.5938 6.47084 14.5346 6.62947C14.5082 6.70021 14.5039 6.82147 14.5247 6.90396C14.5482 6.99672 14.5965 7.08144 14.6581 7.13776C14.6705 7.14907 14.7583 7.21693 14.8534 7.28856C15.25 7.5875 15.5679 7.85131 15.9262 8.17873C16.2028 8.43147 16.768 9.00817 16.8632 9.13467C16.9034 9.18819 16.9469 9.27699 16.9666 9.34567C16.9864 9.41502 16.994 9.56687 16.9814 9.64477C16.9646 9.74903 16.9202 9.85399 16.8591 9.93417C16.8087 10.0003 16.6211 10.2017 16.4122 10.4138C14.7539 12.098 12.7314 13.3036 10.9222 13.6866C10.4367 13.7893 10.0388 13.8309 9.53979 13.8309C8.83027 13.831 8.24468 13.7489 7.60659 13.5598L7.46619 13.5182L7.36539 13.5187C7.25353 13.5193 7.22089 13.5273 7.13501 13.5753C7.0154 13.6422 6.93764 13.7427 6.90034 13.8787C6.88273 13.9429 6.87973 14.0455 6.8937 14.1057C6.9151 14.1979 6.9885 14.3204 7.05412 14.3735C7.12925 14.4342 7.16224 14.4485 7.36457 14.5079C7.90346 14.6659 8.45503 14.7605 9.05019 14.797C9.24055 14.8086 9.85583 14.8088 10.0186 14.7972C10.6072 14.7553 11.1112 14.6659 11.689 14.5009C12.8088 14.1811 13.969 13.6055 15.091 12.8132C15.8096 12.3058 16.4943 11.7239 17.1142 11.094C17.3529 10.8514 17.5683 10.6175 17.6367 10.5264C18.0894 9.92378 18.0756 9.08244 17.6032 8.49522C17.4636 8.32161 16.9266 7.77233 16.621 7.49041C16.2422 7.14103 15.8459 6.81111 15.446 6.5122C15.2564 6.37045 15.223 6.34905 15.151 6.3233C15.0857 6.29994 14.9611 6.29409 14.8858 6.31084ZM9.42204 7.34409C8.69056 7.40501 8.05248 7.79509 7.6732 8.41321C7.61959 8.50058 7.5235 8.69773 7.48898 8.79121C7.33211 9.21588 7.30352 9.69008 7.4093 10.1124C7.42959 10.1934 7.47397 10.3384 7.48242 10.3513C7.48604 10.3568 8.00402 9.86433 8.96997 8.93703C10.3892 7.5746 10.4512 7.51396 10.4351 7.50558C10.3734 7.47359 10.1441 7.40508 10.0171 7.38068C9.84 7.34666 9.58178 7.33078 9.42204 7.34409ZM12.076 9.05016C11.8915 9.08389 11.7347 9.22763 11.6897 9.40426C11.681 9.43826 11.6744 9.49844 11.6713 9.57241C11.6562 9.9263 11.5944 10.1844 11.4557 10.4724C11.2423 10.9155 10.8999 11.2613 10.4614 11.4768C10.167 11.6214 9.92105 11.6839 9.58138 11.7002C9.39904 11.709 9.37021 11.7142 9.28779 11.7539C9.08936 11.8492 8.97937 12.0668 9.02038 12.2828C9.05656 12.4734 9.20911 12.6303 9.39597 12.6692C9.50331 12.6916 9.8393 12.6715 10.0724 12.6287C11.1296 12.435 12.0322 11.6934 12.4254 10.6954C12.5704 10.3274 12.6415 9.97014 12.6425 9.60481C12.643 9.44927 12.6417 9.43154 12.627 9.38521C12.5811 9.24027 12.4547 9.11294 12.3118 9.06769C12.248 9.04751 12.1361 9.03918 12.076 9.05016Z" fill="#878D96"/>
</svg>
