<svg width="16" height="16" viewBox="0 0 16 16" fill="none" xmlns="http://www.w3.org/2000/svg">

<path d="M15.1666 7.16536H13.8333C13.7891 7.16536 13.7467 7.14781 13.7154 7.11655C13.6842 7.08529 13.6666 7.0429 13.6666 6.9987V5.66536C13.6666 5.44435 13.5788 5.23239 13.4225 5.07611C13.2663 4.91983 13.0543 4.83203 12.8333 4.83203C12.6123 4.83203 12.4003 4.91983 12.244 5.07611C12.0878 5.23239 12 5.44435 12 5.66536V6.9987C12 7.0429 11.9824 7.08529 11.9511 7.11655C11.9199 7.14781 11.8775 7.16536 11.8333 7.16536H10.5C10.2789 7.16536 10.067 7.25316 9.9107 7.40944C9.75442 7.56572 9.66663 7.77768 9.66663 7.9987C9.66663 8.21971 9.75442 8.43167 9.9107 8.58795C10.067 8.74423 10.2789 8.83203 10.5 8.83203H11.8333C11.8775 8.83203 11.9199 8.84959 11.9511 8.88085C11.9824 8.9121 12 8.95449 12 8.9987V10.332C12 10.553 12.0878 10.765 12.244 10.9213C12.4003 11.0776 12.6123 11.1654 12.8333 11.1654C13.0543 11.1654 13.2663 11.0776 13.4225 10.9213C13.5788 10.765 13.6666 10.553 13.6666 10.332V8.9987C13.6666 8.95449 13.6842 8.9121 13.7154 8.88085C13.7467 8.84959 13.7891 8.83203 13.8333 8.83203H15.1666C15.3876 8.83203 15.5996 8.74423 15.7559 8.58795C15.9122 8.43167 16 8.21971 16 7.9987C16 7.77768 15.9122 7.56572 15.7559 7.40944C15.5996 7.25316 15.3876 7.16536 15.1666 7.16536Z" fill="#212B3D"/>
<path d="M7.52867 1.52722L3.57733 5.47856C3.56185 5.49405 3.54345 5.50633 3.5232 5.51468C3.50295 5.52304 3.48124 5.5273 3.45933 5.52722H1.33333C0.979711 5.52722 0.640573 5.6677 0.390524 5.91775C0.140476 6.1678 0 6.50693 0 6.86056L0 9.13656C0 9.49018 0.140476 9.82932 0.390524 10.0794C0.640573 10.3294 0.979711 10.4699 1.33333 10.4699H3.45933C3.48128 10.4699 3.503 10.4743 3.52325 10.4828C3.5435 10.4913 3.56188 10.5036 3.57733 10.5192L7.528 14.4699C7.62112 14.5632 7.73983 14.6269 7.86912 14.6528C7.99841 14.6787 8.13248 14.6656 8.25436 14.6153C8.37624 14.565 8.48047 14.4797 8.55386 14.3701C8.62725 14.2606 8.66651 14.1317 8.66667 13.9999V1.99989C8.6669 1.86794 8.62798 1.73889 8.55482 1.62908C8.48167 1.51927 8.37757 1.43364 8.25572 1.38303C8.13387 1.33241 7.99973 1.3191 7.87031 1.34477C7.74088 1.37044 7.62198 1.43394 7.52867 1.52722Z" fill="#212B3D"/>






</svg>
