<svg width="16" height="16" viewBox="0 0 16 16" fill="none" xmlns="http://www.w3.org/2000/svg">
<path d="M9.19998 1.52749L5.24531 5.47883C5.22983 5.49433 5.21143 5.5066 5.19118 5.51496C5.17093 5.52331 5.14922 5.52757 5.12731 5.52749H3.66665C3.31302 5.52749 2.97389 5.66797 2.72384 5.91802C2.47379 6.16807 2.33331 6.50721 2.33331 6.86083V9.13683C2.33331 9.49045 2.47379 9.82959 2.72384 10.0796C2.97389 10.3297 3.31302 10.4702 3.66665 10.4702H5.12731C5.14926 10.4702 5.17098 10.4746 5.19123 10.4831C5.21148 10.4915 5.22986 10.5039 5.24531 10.5195L9.19598 14.4702C9.28917 14.5631 9.40776 14.6263 9.53683 14.6519C9.66589 14.6776 9.79966 14.6644 9.92126 14.6142C10.0429 14.5639 10.1469 14.4788 10.2202 14.3695C10.2935 14.2603 10.3329 14.1317 10.3333 14.0002V2.00016C10.3326 1.86917 10.2934 1.74127 10.2205 1.63245C10.1475 1.52363 10.0442 1.43871 9.92327 1.38828C9.80237 1.33786 9.66929 1.32417 9.54065 1.34893C9.41202 1.37369 9.29353 1.4358 9.19998 1.52749V1.52749Z" fill="#212B3D"/>
<path d="M12.426 5C12.3641 4.93802 12.2907 4.88882 12.2098 4.85523C12.1289 4.82163 12.0422 4.80429 11.9547 4.8042C11.8671 4.80411 11.7804 4.82126 11.6994 4.85469C11.6185 4.88811 11.545 4.93715 11.483 4.999C11.421 5.06085 11.3718 5.13431 11.3382 5.21517C11.3046 5.29604 11.2873 5.38273 11.2872 5.47029C11.2871 5.55786 11.3042 5.64459 11.3377 5.72552C11.3711 5.80646 11.4201 5.88002 11.482 5.942C12.0266 6.4891 12.3324 7.22967 12.3324 8.00167C12.3324 8.77366 12.0266 9.51423 11.482 10.0613C11.4139 10.1218 11.3589 10.1955 11.3204 10.278C11.2819 10.3604 11.2607 10.4499 11.2581 10.5409C11.2556 10.6319 11.2716 10.7225 11.3054 10.807C11.3391 10.8915 11.3898 10.9683 11.4543 11.0325C11.5188 11.0967 11.5958 11.147 11.6805 11.1803C11.7652 11.2136 11.8559 11.2292 11.9468 11.2262C12.0378 11.2232 12.1272 11.2015 12.2095 11.1626C12.2918 11.1237 12.3652 11.0684 12.4253 11C13.2181 10.2029 13.6632 9.12439 13.6633 8.00014C13.6634 6.87589 13.2186 5.79729 12.426 5V5Z" fill="#212B3D"/>
</svg>
