<svg width="16" height="16" viewBox="0 0 16 16" fill="none" xmlns="http://www.w3.org/2000/svg">

<path d="M6.86667 1.52749L2.91333 5.47883C2.89785 5.49432 2.87945 5.5066 2.8592 5.51496C2.83895 5.52331 2.81724 5.52757 2.79533 5.52749H1.33333C0.979711 5.52749 0.640573 5.66797 0.390524 5.91802C0.140476 6.16807 0 6.50721 0 6.86083L0 9.13683C0 9.49045 0.140476 9.82959 0.390524 10.0796C0.640573 10.3297 0.979711 10.4702 1.33333 10.4702H2.79533C2.81728 10.4702 2.839 10.4746 2.85925 10.4831C2.8795 10.4915 2.89788 10.5039 2.91333 10.5195L6.86667 14.4702C6.96005 14.5617 7.0783 14.6238 7.20669 14.6486C7.33508 14.6735 7.46794 14.66 7.58874 14.6099C7.70954 14.5598 7.81294 14.4753 7.88606 14.3669C7.95919 14.2585 7.99881 14.1309 8 14.0002V2.00016C7.99933 1.86917 7.96008 1.74127 7.88715 1.63245C7.81423 1.52363 7.71086 1.43871 7.58996 1.38828C7.46906 1.33786 7.33598 1.32417 7.20734 1.34893C7.07871 1.37369 6.96022 1.4358 6.86667 1.52749V1.52749Z" fill="#212B3D"/>
<path d="M11.7267 3.31068C11.6009 3.18924 11.4325 3.12204 11.2577 3.12356C11.0829 3.12508 10.9157 3.19519 10.7921 3.3188C10.6685 3.4424 10.5984 3.60961 10.5969 3.78441C10.5954 3.95921 10.6626 4.12761 10.784 4.25334C11.2762 4.74518 11.6667 5.32919 11.9331 5.97201C12.1995 6.61482 12.3367 7.30384 12.3367 7.99968C12.3367 8.69551 12.1995 9.38453 11.9331 10.0273C11.6667 10.6702 11.2762 11.2542 10.784 11.746C10.6626 11.8717 10.5954 12.0401 10.5969 12.2149C10.5984 12.3897 10.6685 12.557 10.7921 12.6806C10.9157 12.8042 11.0829 12.8743 11.2577 12.8758C11.4325 12.8773 11.6009 12.8101 11.7267 12.6887C12.3427 12.0731 12.8315 11.3421 13.1649 10.5375C13.4984 9.73299 13.67 8.8706 13.67 7.99968C13.67 7.12875 13.4984 6.26637 13.1649 5.4618C12.8315 4.65724 12.3427 3.92627 11.7267 3.31068V3.31068Z" fill="#212B3D"/>
<path d="M13.3607 1.62269C13.2349 1.50125 13.0665 1.43405 12.8917 1.43557C12.7169 1.43709 12.5497 1.5072 12.4261 1.63081C12.3025 1.75441 12.2324 1.92162 12.2309 2.09642C12.2294 2.27122 12.2966 2.43962 12.418 2.56535C13.8564 4.00776 14.6641 5.96167 14.6641 7.99869C14.6641 10.0357 13.8564 11.9896 12.418 13.432C12.3543 13.4935 12.3035 13.5671 12.2686 13.6484C12.2337 13.7298 12.2153 13.8172 12.2145 13.9058C12.2137 13.9943 12.2306 14.0821 12.2641 14.164C12.2976 14.2459 12.3471 14.3204 12.4097 14.383C12.4723 14.4455 12.5468 14.495 12.6287 14.5286C12.7106 14.5621 12.7984 14.579 12.8869 14.5782C12.9755 14.5774 13.0629 14.559 13.1443 14.5241C13.2256 14.4891 13.2992 14.4384 13.3607 14.3747C15.0488 12.6822 15.9969 10.3892 15.9969 7.99869C15.9969 5.60817 15.0488 3.31522 13.3607 1.62269V1.62269Z" fill="#212B3D"/>
<path d="M10.094 5C10.0321 4.93802 9.95869 4.88882 9.87782 4.85523C9.79696 4.82163 9.71027 4.80429 9.6227 4.8042C9.53514 4.80411 9.44841 4.82126 9.36748 4.85469C9.28654 4.88811 9.21298 4.93715 9.151 4.999C9.08901 5.06085 9.03982 5.13431 9.00622 5.21517C8.97263 5.29604 8.95529 5.38273 8.95519 5.47029C8.9551 5.55786 8.97226 5.64459 9.00568 5.72552C9.03911 5.80646 9.08814 5.88002 9.15 5.942C9.69466 6.4891 10.0004 7.22967 10.0004 8.00167C10.0004 8.77366 9.69466 9.51423 9.15 10.0613C9.08193 10.1218 9.02695 10.1955 8.98845 10.278C8.94996 10.3604 8.92877 10.4499 8.92617 10.5409C8.92358 10.6319 8.93965 10.7225 8.97339 10.807C9.00712 10.8915 9.05781 10.9683 9.12234 11.0325C9.18686 11.0967 9.26384 11.147 9.34855 11.1803C9.43325 11.2136 9.52388 11.2292 9.61485 11.2262C9.70583 11.2232 9.79521 11.2015 9.8775 11.1626C9.95979 11.1237 10.0332 11.0684 10.0933 11C10.8861 10.2029 11.3312 9.12439 11.3313 8.00014C11.3315 6.87589 10.8866 5.79729 10.094 5V5Z" fill="#212B3D"/>






</svg>
