<svg width="16" height="16" viewBox="0 0 16 16" fill="none" xmlns="http://www.w3.org/2000/svg">
<g clip-path="url(#clip0_539_3352)">
<path d="M16 7.99984C16 7.8904 15.9785 7.78204 15.9366 7.68093C15.8947 7.57983 15.8333 7.48796 15.756 7.41058C15.6786 7.3332 15.5867 7.27182 15.4856 7.22994C15.3845 7.18806 15.2761 7.1665 15.1667 7.1665H11.1667C10.9457 7.1665 10.7337 7.2543 10.5775 7.41058C10.4212 7.56686 10.3334 7.77882 10.3334 7.99984C10.3334 8.22085 10.4212 8.43281 10.5775 8.58909C10.7337 8.74537 10.9457 8.83317 11.1667 8.83317H15.1667C15.2761 8.83317 15.3845 8.81162 15.4856 8.76974C15.5867 8.72786 15.6786 8.66647 15.756 8.58909C15.8333 8.51171 15.8947 8.41984 15.9366 8.31874C15.9785 8.21764 16 8.10927 16 7.99984V7.99984Z" fill="#212B3D"/>
<path d="M7.52867 1.52722L3.57733 5.47856C3.56185 5.49405 3.54345 5.50633 3.5232 5.51468C3.50295 5.52304 3.48124 5.5273 3.45933 5.52722H1.33333C0.979711 5.52722 0.640573 5.6677 0.390524 5.91775C0.140476 6.1678 0 6.50693 0 6.86056L0 9.13656C0 9.49018 0.140476 9.82932 0.390524 10.0794C0.640573 10.3294 0.979711 10.4699 1.33333 10.4699H3.45933C3.48128 10.4699 3.503 10.4743 3.52325 10.4828C3.5435 10.4913 3.56188 10.5036 3.57733 10.5192L7.528 14.4699C7.62112 14.5632 7.73983 14.6269 7.86912 14.6528C7.99841 14.6787 8.13248 14.6656 8.25436 14.6153C8.37624 14.565 8.48047 14.4797 8.55386 14.3701C8.62725 14.2606 8.66651 14.1317 8.66667 13.9999V1.99989C8.6669 1.86794 8.62798 1.73889 8.55482 1.62908C8.48167 1.51927 8.37757 1.43364 8.25572 1.38303C8.13387 1.33241 7.99973 1.3191 7.87031 1.34477C7.74088 1.37044 7.62198 1.43394 7.52867 1.52722Z" fill="#212B3D"/>
</g>
<defs>
<clipPath id="clip0_539_3352">
<rect width="16" height="16" fill="white"/>
</clipPath>
</defs>
</svg>
