<svg width="16" height="16" viewBox="0 0 16 16" fill="none" xmlns="http://www.w3.org/2000/svg">
<path d="M8.02802 1.5274L4.07735 5.47874C4.046 5.50991 4.00357 5.52741 3.95935 5.5274H2.50002C2.1464 5.5274 1.80726 5.66788 1.55721 5.91793C1.30716 6.16798 1.16669 6.50712 1.16669 6.86074V9.13674C1.16669 9.49036 1.30716 9.8295 1.55721 10.0795C1.80726 10.3296 2.1464 10.4701 2.50002 10.4701H3.95935C4.00365 10.4703 4.04606 10.488 4.07735 10.5194L8.02802 14.4701C8.12114 14.5634 8.23985 14.6271 8.36914 14.653C8.49843 14.6788 8.6325 14.6658 8.75438 14.6155C8.87626 14.5652 8.98049 14.4799 9.05388 14.3703C9.12727 14.2608 9.16653 14.1319 9.16669 14.0001V2.00007C9.16706 1.86799 9.12818 1.73877 9.05499 1.62881C8.98181 1.51886 8.87761 1.43312 8.75561 1.38248C8.63362 1.33185 8.49934 1.31858 8.3698 1.34439C8.24026 1.37019 8.1213 1.43389 8.02802 1.5274V1.5274Z" fill="#212B3D"/>
<path d="M12.89 3.31068C12.7643 3.18924 12.5959 3.12204 12.4211 3.12356C12.2463 3.12508 12.0791 3.19519 11.9555 3.3188C11.8319 3.4424 11.7617 3.60961 11.7602 3.78441C11.7587 3.95921 11.8259 4.12761 11.9473 4.25334C12.4396 4.74518 12.83 5.32919 13.0965 5.97201C13.3629 6.61482 13.5 7.30384 13.5 7.99968C13.5 8.69551 13.3629 9.38453 13.0965 10.0273C12.83 10.6702 12.4396 11.2542 11.9473 11.746C11.8259 11.8717 11.7587 12.0401 11.7602 12.2149C11.7617 12.3897 11.8319 12.557 11.9555 12.6806C12.0791 12.8042 12.2463 12.8743 12.4211 12.8758C12.5959 12.8773 12.7643 12.8101 12.89 12.6887C13.5061 12.0731 13.9948 11.3421 14.3282 10.5375C14.6617 9.73299 14.8333 8.8706 14.8333 7.99968C14.8333 7.12875 14.6617 6.26637 14.3282 5.4618C13.9948 4.65724 13.5061 3.92627 12.89 3.31068V3.31068Z" fill="#212B3D"/>
<path d="M11.2574 5.00001C11.1969 4.93294 11.1234 4.87886 11.0414 4.84105C10.9594 4.80323 10.8706 4.78247 10.7803 4.78003C10.69 4.77759 10.6002 4.79351 10.5163 4.82683C10.4323 4.86015 10.356 4.91018 10.292 4.97388C10.228 5.03758 10.1776 5.11362 10.1439 5.19739C10.1101 5.28115 10.0937 5.3709 10.0957 5.46119C10.0977 5.55147 10.1181 5.64041 10.1555 5.72261C10.1929 5.8048 10.2466 5.87854 10.3134 5.93935C10.858 6.48645 11.1638 7.22701 11.1638 7.99901C11.1638 8.77101 10.858 9.51158 10.3134 10.0587C10.2483 10.1199 10.1962 10.1935 10.1601 10.2753C10.1241 10.357 10.1048 10.4451 10.1035 10.5345C10.1022 10.6238 10.1188 10.7124 10.1524 10.7952C10.186 10.878 10.2359 10.9531 10.2992 11.0162C10.3624 11.0793 10.4377 11.1291 10.5205 11.1625C10.6033 11.196 10.6921 11.2124 10.7814 11.2109C10.8707 11.2094 10.9588 11.1899 11.0404 11.1537C11.1221 11.1175 11.1956 11.0652 11.2567 11C12.0498 10.2031 12.4951 9.1245 12.4953 8.00015C12.4954 6.8758 12.0503 5.79713 11.2574 5.00001V5.00001Z" fill="#212B3D"/>
</svg>
