<svg width="24" height="22" viewBox="0 0 24 22" fill="none" xmlns="http://www.w3.org/2000/svg">
  <path fill-rule="evenodd" clip-rule="evenodd"
        d="M15.135 0.906749C14.8712 0.950549 14.6995 1.0011 14.4819 1.09896C14.3409 1.16241 13.8836 1.45176 8.955 4.59633L6.465 6.18501L4.575 6.20091L2.685 6.21681L2.42079 6.2988C1.4424 6.60228 0.753602 7.37376 0.584102 8.35593C0.544052 8.58795 0.538712 8.92563 0.547082 10.6911C0.557912 12.9711 0.548552 12.8532 0.758822 13.3633C0.990422 13.9252 1.54581 14.4805 2.10672 14.7109C2.60565 14.9159 2.52555 14.909 4.61565 14.9278L6.5163 14.945L3.76065 17.2397C2.24505 18.5017 0.932732 19.6018 0.844382 19.6844C0.652712 19.8636 0.577532 20.0003 0.552302 20.2153C0.528842 20.4154 0.572942 20.583 0.697922 20.7688C0.841442 20.9823 1.02819 21.0857 1.302 21.1033C1.49349 21.1156 1.54497 21.1073 1.68417 21.0422C1.79487 20.9904 2.95737 20.039 5.415 17.9889C7.3785 16.3509 9.05334 14.9555 9.13689 14.8879C9.31827 14.7412 17.6559 7.79304 18.0457 7.4637C18.1946 7.33791 19.4315 6.30612 20.7944 5.17083C23.5925 2.83992 23.4432 2.98647 23.4432 2.57001C23.4432 2.37702 23.4305 2.32188 23.3541 2.18238C23.1496 1.80915 22.6691 1.65024 22.3034 1.83495C22.2218 1.8762 21.2573 2.65863 20.16 3.57372L18.165 5.23752L18.1459 4.16625C18.1291 3.22416 18.1195 3.06789 18.0662 2.87001C17.9669 2.50155 17.8889 2.32398 17.7004 2.03784C17.2853 1.40784 16.6069 0.982769 15.8708 0.891509C15.5604 0.853049 15.4438 0.855449 15.135 0.906749ZM15.2072 2.56494C15.1315 2.59557 15.01 2.66136 14.9372 2.71113C14.7851 2.81526 7.20879 7.6485 7.05 7.74273C6.94725 7.80369 6.90219 7.80534 4.935 7.82001L2.925 7.83501L2.75556 7.91445C2.55954 8.00634 2.37204 8.18217 2.27373 8.36628L2.205 8.49501L2.19669 10.5092C2.18856 12.479 2.18976 12.5271 2.25006 12.6883C2.33235 12.9082 2.56083 13.1373 2.77953 13.2191C2.93874 13.2787 3.00225 13.28 5.72814 13.28H8.51403L12.5059 9.95751L16.4978 6.63501L16.4914 4.92501C16.4851 3.24852 16.4837 3.21228 16.4209 3.07635C16.3322 2.88468 16.1573 2.69994 15.9769 2.60757C15.7726 2.5029 15.4103 2.48286 15.2072 2.56494ZM17.0497 11.4015C16.8097 11.4798 16.6583 11.6068 16.5272 11.84C16.492 11.9025 16.4825 12.4094 16.47 14.885L16.455 17.855L16.376 18.0236C16.2234 18.349 15.9935 18.5281 15.646 18.5923C15.4431 18.6299 15.2294 18.5932 15.046 18.4894C14.9795 18.4517 14.0822 17.8835 13.052 17.2267C12.0218 16.57 11.1193 16.0123 11.0464 15.9874C10.8765 15.9295 10.6364 15.9526 10.4524 16.0445C9.96345 16.2887 9.85662 16.9745 10.25 17.3442C10.3589 17.4466 14.1011 19.8471 14.3544 19.977C14.7155 20.1623 15.2005 20.2571 15.6554 20.2314C16.7706 20.1683 17.6962 19.4098 18.0064 18.305L18.0738 18.065L18.083 15.0615C18.0921 12.0849 18.0916 12.0566 18.03 11.8918C17.9615 11.7089 17.769 11.5058 17.5954 11.4332C17.4425 11.3694 17.1929 11.3548 17.0497 11.4015Z"
        fill="black"/>
</svg>
