<svg width="16" height="16" viewBox="0 0 16 16" fill="none" xmlns="http://www.w3.org/2000/svg">
    <path d="M9.78465 4.03882C9.81582 4.00746 9.83332 3.96504 9.83331 3.92082V2.50149C9.83329 2.36965 9.79417 2.24079 9.72091 2.13118C9.64766 2.02157 9.54355 1.93615 9.42175 1.8857C9.29995 1.83525 9.16593 1.82205 9.03663 1.84776C8.90732 1.87348 8.78855 1.93695 8.69531 2.03015L4.74398 5.98149C4.7285 5.99698 4.7101 6.00926 4.68984 6.01761C4.66959 6.02597 4.64789 6.03023 4.62598 6.03015H3.16665C2.81302 6.03015 2.47389 6.17063 2.22384 6.42068C1.97379 6.67073 1.83331 7.00986 1.83331 7.36349V9.63949C1.83335 9.92605 1.92571 10.205 2.0967 10.4349C2.2677 10.6649 2.50823 10.8336 2.78265 10.9162C2.81153 10.9248 2.84222 10.9255 2.87145 10.9181C2.90069 10.9107 2.92736 10.8955 2.94865 10.8742L9.78465 4.03882Z" fill="#212B3D"/>
    <path d="M15.8046 1.13954C15.9296 1.01452 15.9998 0.844981 15.9998 0.668205C15.9998 0.491429 15.9296 0.32189 15.8046 0.196872C15.6788 0.0734989 15.5096 0.00439453 15.3333 0.00439453C15.1571 0.00439453 14.9878 0.0734989 14.862 0.196872L0.195313 14.8635C0.0703323 14.9886 0.00012207 15.1581 0.00012207 15.3349C0.00012207 15.5116 0.0703323 15.6812 0.195313 15.8062C0.225208 15.836 0.257791 15.863 0.292646 15.8869C0.420961 15.9738 0.575544 16.0133 0.729818 15.9985C0.884091 15.9838 1.02842 15.9158 1.13798 15.8062L5.21531 11.7289C5.24667 11.6977 5.28909 11.6802 5.33331 11.6802C5.37753 11.6802 5.41996 11.6977 5.45131 11.7289L8.69465 14.9729C8.78785 15.0663 8.90668 15.13 9.03609 15.1558C9.16551 15.1817 9.29968 15.1685 9.42162 15.118C9.54356 15.0676 9.64777 14.982 9.72106 14.8723C9.79435 14.7625 9.83342 14.6335 9.83331 14.5015V7.18021C9.83331 7.13599 9.8508 7.09356 9.88198 7.06221L15.8046 1.13954Z" fill="#212B3D"/>
</svg>
