<svg width="15" height="16" viewBox="0 0 15 16" fill="none" xmlns="http://www.w3.org/2000/svg">
<path d="M11.0405 13.0514L9.65763 4.57144C9.62466 4.34373 9.54589 4.12506 9.42607 3.92864C9.30625 3.73221 9.14787 3.5621 8.96049 3.42859C8.77866 3.2944 8.57132 3.19882 8.3512 3.14772C8.13107 3.09662 7.90283 3.09108 7.68049 3.13144L1.9662 4.08002C1.73603 4.11308 1.51491 4.19232 1.31612 4.31297C1.11734 4.43363 0.94499 4.59322 0.809427 4.78215C0.673864 4.97109 0.577883 5.18547 0.527249 5.41243C0.476614 5.63938 0.47237 5.87423 0.514772 6.10287L1.93191 14.5714C1.96782 14.7984 2.0487 15.016 2.16981 15.2113C2.29091 15.4066 2.44981 15.5757 2.63717 15.7088C2.82453 15.8418 3.03658 15.9362 3.26088 15.9862C3.48517 16.0362 3.7172 16.0409 3.94334 16L9.65763 15.0514C10.1054 14.968 10.5021 14.711 10.7611 14.3364C11.0202 13.9617 11.1206 13.4998 11.0405 13.0514ZM6.70906 12.1372L4.70906 12.4686H4.56049C4.34547 12.468 4.13854 12.3866 3.98071 12.2406C3.82289 12.0946 3.72571 11.8946 3.70845 11.6803C3.69119 11.4659 3.75511 11.253 3.88753 11.0836C4.01995 10.9142 4.2112 10.8007 4.42334 10.7657L6.42334 10.4343C6.64273 10.4048 6.86496 10.4624 7.04231 10.5949C7.21966 10.7274 7.338 10.9241 7.37191 11.1429C7.40965 11.3619 7.36196 11.5872 7.23865 11.7721C7.11533 11.9571 6.9258 12.0877 6.70906 12.1372ZM6.9262 7.93144L3.85191 8.44573H3.70334C3.48833 8.44514 3.28139 8.36377 3.12357 8.21775C2.96575 8.07172 2.86857 7.87172 2.85131 7.6574C2.83405 7.44308 2.89797 7.2301 3.03039 7.0607C3.1628 6.89131 3.35405 6.77786 3.5662 6.74287L6.64049 6.22859C6.86478 6.1907 7.09494 6.24346 7.28034 6.37528C7.46573 6.50709 7.59117 6.70715 7.62906 6.93144C7.66694 7.15574 7.61418 7.3859 7.48237 7.5713C7.35056 7.75669 7.1505 7.88213 6.9262 7.92002V7.93144Z" fill="#5B6577"/>
<path d="M12.9949 12.0114C12.8823 12.007 12.7717 11.9804 12.6694 11.9332C12.5671 11.886 12.4751 11.8191 12.3987 11.7363C12.3223 11.6535 12.2629 11.5565 12.224 11.4507C12.1851 11.345 12.1675 11.2326 12.1721 11.12L12.5149 2.32C12.5165 2.28247 12.5106 2.24501 12.4976 2.20976C12.4847 2.17451 12.4649 2.14216 12.4394 2.11456C12.4139 2.08696 12.3833 2.06465 12.3492 2.04892C12.3151 2.03318 12.2782 2.02433 12.2407 2.02286L5.38351 1.71429C5.15618 1.71429 4.93816 1.62398 4.77742 1.46323C4.61667 1.30249 4.52637 1.08447 4.52637 0.857143C4.52637 0.629814 4.61667 0.411797 4.77742 0.251051C4.93816 0.0903059 5.15618 3.38746e-09 5.38351 0L12.5492 0.285714C12.7789 0.294545 13.0046 0.348572 13.2134 0.444706C13.4222 0.54084 13.6099 0.677194 13.766 0.845968C13.922 1.01474 14.0432 1.21262 14.1227 1.42829C14.2022 1.64396 14.2384 1.87319 14.2292 2.10286L13.8749 11.2457C13.8495 11.4598 13.7453 11.6568 13.5826 11.7983C13.42 11.9398 13.2105 12.0158 12.9949 12.0114Z" fill="#5B6577"/>
</svg>
