<svg viewBox="0 0 18 18" fill="currentColor" aria-hidden="true">
  <path fill-rule="evenodd" d="M1.465.613A1.674 1.674 0 0 0 .02 1.969l-.016.08-.002 1.44C-.001 5.098-.004 4.986.05 5.095c.067.136.2.24.341.267.05.01 1.051.01 8.609.01 7.525 0 8.56 0 8.609-.01a.506.506 0 0 0 .377-.362.305.305 0 0 1 .015-.054c.003-.008.006-.579.006-1.407 0-1.497 0-1.515-.037-1.698a1.5 1.5 0 0 0-.816-1.073 1.629 1.629 0 0 0-.44-.143L16.637.61 9.079.608c-4.156 0-7.582.002-7.614.005Zm.043.99a.678.678 0 0 0-.284.144.676.676 0 0 0-.19.26c-.05.114-.048.049-.048 1.272v1.106h16.028l-.002-1.175-.002-1.176-.017-.053a.537.537 0 0 0-.37-.37l-.052-.016-7.506-.001c-6.607-.001-7.512 0-7.557.01ZM.003 3.532c0 .78.001 1.1.002.711V2.825c0-.391-.002-.073-.002.707Zm1.167 3.43a.448.448 0 0 0-.27.144.421.421 0 0 0-.092.123c-.057.114-.052-.265-.05 3.904.002 3.52.003 3.744.014 3.832.052.38.13.639.283.944.138.275.274.462.5.687.225.226.413.362.688.5.316.16.603.243.983.286.122.014 11.426.014 11.548 0a2.73 2.73 0 0 0 .983-.285 2.44 2.44 0 0 0 .688-.5c.226-.226.362-.413.5-.688.152-.301.233-.573.283-.944.011-.087.012-.329.014-3.832.002-4.168.007-3.79-.05-3.904a.415.415 0 0 0-.095-.126.447.447 0 0 0-.22-.13.643.643 0 0 0-.252 0 .516.516 0 0 0-.35.346c-.013.041-.014.194-.018 3.784-.004 4.062-.001 3.75-.04 3.93a1.72 1.72 0 0 1-1.522 1.365c-.146.016-11.244.016-11.39 0a1.719 1.719 0 0 1-1.523-1.364c-.038-.18-.035.13-.04-3.931-.003-3.59-.004-3.743-.017-3.784a.517.517 0 0 0-.347-.345.634.634 0 0 0-.208-.011Zm7.744.843a.51.51 0 0 0-.354.346c-.008.025-.01.491-.013 2.308l-.004 2.277-.803-.828c-.637-.658-.814-.835-.855-.863a.483.483 0 0 0-.62.073.435.435 0 0 0-.136.316.53.53 0 0 0 .008.134.52.52 0 0 0 .09.19c.03.038 2.289 2.37 2.43 2.51a.57.57 0 0 0 .152.123c.08.04.135.054.227.054.116 0 .208-.029.292-.093.06-.045 2.505-2.57 2.54-2.623a.499.499 0 0 0 .054-.438.492.492 0 0 0-.779-.21c-.02.017-.39.396-.822.841l-.785.81-.003-2.268c-.004-2.155-.005-2.269-.017-2.31a.464.464 0 0 0-.13-.216.4.4 0 0 0-.127-.096.582.582 0 0 0-.111-.04.58.58 0 0 0-.234.003Z" clip-rule="evenodd"/>
</svg>
