<svg viewBox="0 0 19 18" fill="currentColor" aria-hidden="true">
  <path fill-rule="evenodd" d="M7.36.006c-.256.026-.565.14-.785.29a1.974 1.974 0 0 0-.577.62 2.23 2.23 0 0 0-.228.583c-.045.197-.046.217-.05.786l-.002.526-2.401.002-2.401.002-.061.022A.57.57 0 0 0 .52 3.2a.773.773 0 0 0-.012.296.562.562 0 0 0 .369.419c.043.014.111.015 1.138.017l1.093.003v6.105c0 4.32.002 6.132.008 6.196.017.18.063.382.125.544.25.65.779 1.096 1.428 1.206.084.014.296.015 4.826.015 4.58 0 4.741 0 4.83-.015a1.79 1.79 0 0 0 .85-.386 2.39 2.39 0 0 0 .317-.334c.22-.3.355-.658.39-1.034.006-.058.008-2.029.008-6.191V3.934l1.093-.003c1.025-.002 1.095-.003 1.138-.017a.565.565 0 0 0 .369-.418.775.775 0 0 0-.012-.297.57.57 0 0 0-.334-.362l-.06-.022-2.402-.002-2.402-.002v-.478c0-.471-.004-.577-.027-.719a2.094 2.094 0 0 0-.37-.879 2.388 2.388 0 0 0-.317-.333 1.788 1.788 0 0 0-.66-.343c-.23-.063-.023-.057-2.373-.059C8.377 0 7.4.002 7.361.006Zm.053 1.122a.91.91 0 0 0-.22.08.829.829 0 0 0-.385.459c-.045.132-.043.108-.046.647l-.003.497h5.481v-.468c0-.271-.003-.49-.008-.52a.84.84 0 0 0-.524-.66c-.126-.046-.01-.044-2.219-.043-1.12 0-2.054.004-2.076.008ZM4.15 10.032c0 5.532 0 6.105.012 6.163a.841.841 0 0 0 .58.665l.054.017 4.662.003c3.434.002 4.677 0 4.722-.007a.768.768 0 0 0 .38-.18.858.858 0 0 0 .27-.446l.016-.063.002-6.125.002-6.126H4.15v6.1ZM7.418 7.05a.534.534 0 0 0-.28.194.652.652 0 0 0-.104.23c-.015.081-.015 5.79 0 5.868a.595.595 0 0 0 .18.314.465.465 0 0 0 .323.124c.099 0 .15-.012.233-.055a.567.567 0 0 0 .28-.38c.01-.053.01-.424.01-2.963l-.003-2.903-.016-.051a.609.609 0 0 0-.253-.327.531.531 0 0 0-.37-.05Zm3.905.004a.472.472 0 0 0-.231.148.465.465 0 0 0-.098.14c-.06.13-.055-.141-.055 3.067 0 3.206-.005 2.936.055 3.065a.456.456 0 0 0 .098.142.41.41 0 0 0 .138.109.428.428 0 0 0 .233.055.465.465 0 0 0 .323-.124.596.596 0 0 0 .18-.314c.015-.079.015-5.787 0-5.867-.037-.199-.207-.384-.388-.425a.6.6 0 0 0-.255.004Z" clip-rule="evenodd"/>
</svg>
