<svg xmlns="http://www.w3.org/2000/svg" viewBox="0 0 16 16" fill="currentColor" aria-hidden="true">
  <path d="M16 4.857A.857.857 0 0 0 15.143 4H12a.286.286 0 0 1-.286-.286 3.714 3.714 0 1 0-7.428 0A.286.286 0 0 1 4 4H.857a.857.857 0 0 0 0 1.714H2A.286.286 0 0 1 2.286 6v8.286A1.714 1.714 0 0 0 4 16h8a1.714 1.714 0 0 0 1.714-1.714V6A.286.286 0 0 1 14 5.714h1.143A.857.857 0 0 0 16 4.857ZM6 3.714a2 2 0 1 1 4 0A.286.286 0 0 1 9.714 4H6.286A.286.286 0 0 1 6 3.714Zm.571 8.857a.857.857 0 1 1-1.714 0V8a.857.857 0 0 1 1.714 0v4.571Zm4.858 0a.857.857 0 1 1-1.715 0V8a.857.857 0 1 1 1.715 0v4.571Z"/>
</svg>
