<svg viewBox="0 0 19 18" fill="currentColor" aria-hidden="true">
  <path fill-rule="evenodd" d="M14.658.54a3.112 3.112 0 0 0-1.778.755c-.02.017-2.388 2.382-5.262 5.256-3.348 3.346-5.236 5.24-5.253 5.265a.529.529 0 0 0-.042.08c-.009.02-.302 1.153-.651 2.515l-.636 2.477v.097c0 .09.002.102.02.153.087.236.324.37.565.319.128-.027 4.964-1.272 4.995-1.286a.574.574 0 0 0 .076-.043 4703.09 4703.09 0 0 0 10.51-10.505c.395-.447.659-1.025.739-1.62.04-.302.033-.659-.02-.954A3.055 3.055 0 0 0 15.508.591c-.2-.04-.323-.052-.565-.055-.12-.001-.249 0-.285.004Zm.12.973a2.114 2.114 0 0 0-1.267.53l-.052.049 1.475 1.475L16.41 5.04l.059-.066c.362-.41.549-.948.519-1.494a2.083 2.083 0 0 0-.424-1.155 2.282 2.282 0 0 0-.541-.495 2.1 2.1 0 0 0-1.246-.318Zm-6.66 5.921L3.47 12.082l1.474 1.474 1.474 1.474 4.65-4.65 4.649-4.649-1.473-1.472c-.81-.81-1.474-1.473-1.476-1.473-.002 0-2.095 2.092-4.65 4.648Zm-5.084 5.6-.418 1.633c-.23.896-.416 1.63-.415 1.631.002.002 3.15-.803 3.236-.827l.03-.009-1.216-1.217c-.67-.669-1.217-1.214-1.217-1.212Z" clip-rule="evenodd"/>
</svg>
