<svg xmlns="http://www.w3.org/2000/svg" viewBox="0 0 16 16" fill="currentColor" aria-hidden="true">
  <path d="M14.667 12H5.333A1.334 1.334 0 0 1 4 10.667V1.333A1.333 1.333 0 0 1 5.333 0h9.334A1.333 1.333 0 0 1 16 1.333v9.334A1.334 1.334 0 0 1 14.667 12Zm-9.334-1.667a.333.333 0 0 0 .334.334h8.666a.34.34 0 0 0 .334-.334V1.667a.333.333 0 0 0-.334-.334H5.667a.333.333 0 0 0-.334.334v8.666ZM2 16h-.667A1.334 1.334 0 0 1 0 14.667V14a.667.667 0 1 1 1.333 0v.333a.333.333 0 0 0 .334.334H2A.667.667 0 1 1 2 16ZM.667 11.333A.667.667 0 0 1 0 10.667V9.333a.667.667 0 1 1 1.333 0v1.334a.667.667 0 0 1-.666.666ZM.667 6.667A.667.667 0 0 1 0 6V4.667a.667.667 0 0 1 1.333 0V6a.667.667 0 0 1-.666.667ZM6.667 16H5.333a.667.667 0 0 1 0-1.333h1.334a.667.667 0 0 1 0 1.333ZM11.333 16H10a.667.667 0 0 1 0-1.333h1.333a.667.667 0 0 1 0 1.333Z"/>
</svg>
