<svg viewBox="0 0 16 16" fill="currentColor" aria-hidden="true">
  <g clip-path="url(#a)">
    <path d="M17.837 8.116a1.833 1.833 0 0 0-1.753-2.367h-3.72a.832.832 0 0 1-.751-1.192l.952-1.995a1.616 1.616 0 0 0-.28-1.54 1.642 1.642 0 0 0-2.618.089L6.407 5.73a.835.835 0 0 1-.68.352.31.31 0 0 0-.31.31v7.542a.334.334 0 0 0 .188.3c2.467 1.194 3.286 1.352 5.295 1.352.231 0 1.547-.013 2.027-.013 1.787 0 2.976-1.037 3.638-3.186L17.83 8.14l.006-.025ZM4.417 6.082H4.4a1 1 0 0 0-.983-.833h-1a.333.333 0 0 0-.333.333v9.334a.333.333 0 0 0 .333.333h1a1 1 0 0 0 1-1V6.082Z"/>
  </g>
  <defs>
    <clipPath id="a">
      <path d="M0 0h16v16H0z"/>
    </clipPath>
  </defs>
</svg>
