<svg xmlns="http://www.w3.org/2000/svg" viewBox="0 0 16 16" fill="currentColor" aria-hidden="true">
  <path d="M8 13.333a5.005 5.005 0 0 1-5-5V6.667a.667.667 0 0 0-1.333 0v1.666a6.343 6.343 0 0 0 5.521 6.282.166.166 0 0 1 .145.165v.553a.667.667 0 1 0 1.334 0v-.553a.166.166 0 0 1 .145-.165 6.289 6.289 0 0 0 2.573-.934.165.165 0 0 0 .076-.122.166.166 0 0 0-.048-.136l-.727-.728a.167.167 0 0 0-.2-.026A4.966 4.966 0 0 1 8 13.333Z"/>
  <path d="M4.285 6.298A.167.167 0 0 0 4 6.415v1.918a4 4 0 0 0 5.647 3.645.168.168 0 0 0 .094-.12.167.167 0 0 0-.044-.147L4.285 6.298ZM15.805 14.867l-2.635-2.634a.165.165 0 0 1-.017-.215 6.302 6.302 0 0 0 1.18-3.684V6.667a.667.667 0 1 0-1.333 0v1.667a4.974 4.974 0 0 1-.771 2.667.166.166 0 0 1-.256.028l-.486-.484a.168.168 0 0 1-.026-.2c.355-.61.541-1.305.54-2.011V4.001a4 4 0 0 0-7.838-1.128.167.167 0 0 1-.278.071L1.138.201a.675.675 0 0 0-.943 0 .667.667 0 0 0 0 .942L14.862 15.81l.005.005a.667.667 0 0 0 .933-.95l.005.002Z"/>
</svg>
