<svg xmlns="http://www.w3.org/2000/svg" viewBox="0 0 24 24" fill="currentColor" aria-hidden="true">
  <g clip-path="url(#a)">
    <path d="M19.423 3.566 12.566.137a1.286 1.286 0 0 0-1.852 1.149v13.148a.446.446 0 0 1-.188.36.48.48 0 0 1-.377 0 4.834 4.834 0 0 0-1.578-.223 4.714 4.714 0 1 0 4.715 4.715V7.492a.43.43 0 0 1 .205-.378.497.497 0 0 1 .412 0L18.29 9.31a1.251 1.251 0 0 0 1.235 0 1.268 1.268 0 0 0 .617-1.097V4.783a1.285 1.285 0 0 0-.72-1.217Z"/>
  </g>
  <defs>
    <clipPath id="a">
      <path d="M0 0h24v24H0z"/>
    </clipPath>
  </defs>
</svg>
