<svg viewBox="0 0 25 25" fill="currentColor" aria-hidden="true">
  <path stroke="#fff" stroke-linecap="round" stroke-linejoin="round" stroke-width="2" d="M5.5 1.5v2M3.5 5.5h-2M3.5 19.5h-2M19.5 1.5v2M5.5 21.5v2M19.5 21.5v2M23.5 5.5h-2M23.5 19.5h-2M5.5 5.5h14v14h-14v-14Z"/>
  <path fill-rule="evenodd" d="M5.5 5.5h14v14h-14v-14Zm3.75 3.75v4.5h1.5V10.5a.75.75 0 0 1 .75-.75h1.25v-.5h-3.5Zm5 .5V9A1.25 1.25 0 0 0 13 7.75H9A1.25 1.25 0 0 0 7.75 9v5A1.25 1.25 0 0 0 9 15.25h1.75v1.25c0 .414.336.75.75.75h5a.75.75 0 0 0 .75-.75v-6a.75.75 0 0 0-.75-.75h-2.25Zm-.75 1.5h-1.25v4.5h3.5v-4.5H13.5Z" clip-rule="evenodd"/>
</svg>
