<svg xmlns="http://www.w3.org/2000/svg" viewBox="0 0 25 25" fill="currentColor" aria-hidden="true">
  <g clip-path="url(#a)">
    <path stroke="#fff" stroke-linecap="round" stroke-linejoin="round" stroke-width="1.5" d="M22 3.5H3.5a2 2 0 0 0-2 2V20a2 2 0 0 0 2 2H22a2 2 0 0 0 2-2V5.5a2 2 0 0 0-2-2ZM1.5 8H24M1.5 15H24M9 8v14M16.5 8v14"/>
    <path fill-rule="evenodd" d="M2 8.438h7v13.28H2V8.439ZM3.5 11.5a.75.75 0 0 1 .75-.75h2a.75.75 0 0 1 0 1.5h-2a.75.75 0 0 1-.75-.75Zm.75 6.25a.75.75 0 0 0 0 1.5h2a.75.75 0 0 0 0-1.5h-2Z" clip-rule="evenodd"/>
  </g>
  <defs>
    <clipPath id="a">
      <path d="M0 0h24.5v24.5H0z" transform="translate(.5 .5)"/>
    </clipPath>
  </defs>
</svg>
