<svg viewBox="0 0 25 25" fill="currentColor" aria-hidden="true">
  <g stroke="#fff" stroke-linecap="round" stroke-linejoin="round" stroke-width="2" clip-path="url(#a)">
    <path d="M12.396 20.867a5.28 5.28 0 0 0 1.425 1.82M16.655 23.84a5.3 5.3 0 0 0 2.291-.3M21.384 21.687a5.1 5.1 0 0 0 .908-2.123M11.32 4.259a5.15 5.15 0 0 0-1.558-1.853M6.729 1.369a5.146 5.146 0 0 0-2.364.516M2.033 4.085a5.261 5.261 0 0 0-.638 2.335M16.383 11.864h-15M13.519 9.001l2.864 2.863-2.864 2.864"/>
    <path d="M21.362 9.617a2.25 2.25 0 1 0 0 4.5 2.25 2.25 0 0 0 0-4.5v0Z"/>
  </g>
  <defs>
    <clipPath id="a">
      <path d="M0 0h24v24H0z" transform="translate(.5 .5)"/>
    </clipPath>
  </defs>
</svg>
