<svg viewBox="0 0 25 25" fill="currentColor" aria-hidden="true">
  <g clip-path="url(#a)">
    <path d="M12.5.5A12 12 0 0 0 2.267 18.77L.554 23.342a.857.857 0 0 0 .957 1.143l5.988-1.09a11.829 11.829 0 0 0 5 1.104 12 12 0 0 0 0-24ZM8.213 12.59a1.714 1.714 0 0 1-1.715 1.624h-.09a1.714 1.714 0 1 1 1.805-1.625Zm6 0a1.714 1.714 0 0 1-1.715 1.624h-.09a1.713 1.713 0 0 1-1.624-1.807 1.714 1.714 0 0 1 2.986-1.054 1.697 1.697 0 0 1 .443 1.236Zm6 0a1.714 1.714 0 0 1-1.715 1.624h-.092a1.713 1.713 0 0 1-1.051-2.987 1.73 1.73 0 0 1 1.234-.441 1.713 1.713 0 0 1 1.624 1.803Z"/>
  </g>
  <defs>
    <clipPath id="a">
      <path d="M0 0h24v24H0z" transform="translate(.5 .5)"/>
    </clipPath>
  </defs>
</svg>
