<svg xmlns="http://www.w3.org/2000/svg" viewBox="0 0 25 25" fill="currentColor" aria-hidden="true">
  <g clip-path="url(#a)">
    <path fill-rule="evenodd" d="M17.5 4.5v10h6a1 1 0 0 1 1 1v5a1 1 0 0 1-1 1h-21a1 1 0 0 1-1-1v-9a1 1 0 0 1 1-1h6v-6a1 1 0 0 1 1-1h7a1 1 0 0 1 1 1Zm-6.25 2a.75.75 0 0 1 .75-.75h.5A1.25 1.25 0 0 1 13.75 7v2.75H14a.75.75 0 0 1 0 1.5h-2a.75.75 0 0 1 0-1.5h.25v-2.5H12a.75.75 0 0 1-.75-.75Z" clip-rule="evenodd"/>
  </g>
  <defs>
    <clipPath id="a">
      <path d="M0 0h24v24H0z" transform="translate(.5 .5)"/>
    </clipPath>
  </defs>
</svg>
