<svg xmlns="http://www.w3.org/2000/svg" viewBox="0 0 25 25" fill="currentColor" aria-hidden="true">
  <g clip-path="url(#a)">
    <path stroke="#fff" stroke-linecap="round" stroke-linejoin="round" stroke-width="1.5" d="M23.75 6.5v14.25a2.25 2.25 0 0 1-4.5 0V3.5a1.5 1.5 0 0 0-1.5-1.5h-15a1.5 1.5 0 0 0-1.5 1.5v17.25A2.25 2.25 0 0 0 3.5 23h18"/>
    <path fill-rule="evenodd" d="M19.5 2.5h-18v20h18v-20ZM5 14.75a.75.75 0 0 0 0 1.5h10.5a.75.75 0 0 0 0-1.5H5Zm-.75 3.75a.75.75 0 0 1 .75-.75h6a.75.75 0 0 1 0 1.5H5a.75.75 0 0 1-.75-.75ZM5 5a.75.75 0 0 0-.75.75v6c0 .414.336.75.75.75h10.5a.75.75 0 0 0 .75-.75v-6A.75.75 0 0 0 15.5 5H5Zm.75 6V6.5h9V11h-9Z" clip-rule="evenodd"/>
  </g>
  <defs>
    <clipPath id="a">
      <path d="M0 0h24v24H0z" transform="translate(.5 .5)"/>
    </clipPath>
  </defs>
</svg>
