<svg viewBox="0 0 24 25" fill="currentColor" aria-hidden="true">
  <g clip-path="url(#a)">
    <path stroke="#fff" stroke-linecap="round" stroke-linejoin="round" stroke-width="2" d="M4.5 8.75v-3a1.5 1.5 0 0 1 3 0v3M4.5 7.25h3"/>
    <path fill-rule="evenodd" d="M9.659 8.659A2.25 2.25 0 0 1 11.25 8h10.5A2.25 2.25 0 0 1 24 10.25v7.5A2.25 2.25 0 0 1 21.75 20H21v3.75a.75.75 0 0 1-1.28.53L15.44 20h-4.19A2.25 2.25 0 0 1 9 17.75v-7.5c0-.597.237-1.169.659-1.591ZM16.5 10.25a.75.75 0 0 1 .75.75v.75h2.25a.75.75 0 0 1 0 1.5h-.985a11.65 11.65 0 0 1-1.073 2 3.181 3.181 0 0 0 2.109 1.002.75.75 0 1 1-.102 1.496 4.682 4.682 0 0 1-2.969-1.335c-.756.74-1.746 1.337-2.98 1.337a.75.75 0 0 1 0-1.5c.925 0 1.729-.59 2.389-1.418a7.366 7.366 0 0 0 .362-.498 9.49 9.49 0 0 0 .618-1.084H13.5a.75.75 0 0 1 0-1.5h2.25V11a.75.75 0 0 1 .75-.75Z" clip-rule="evenodd"/>
    <path stroke="#fff" stroke-linecap="round" stroke-linejoin="round" stroke-width="2" d="m6.75 13.25-3 3v-4.5h-1.5a1.5 1.5 0 0 1-1.5-1.5v-7.5a1.5 1.5 0 0 1 1.5-1.5h10.5a1.5 1.5 0 0 1 1.5 1.5v3"/>
  </g>
  <defs>
    <clipPath id="a">
      <path d="M0 0h24v24H0z" transform="translate(0 .5)"/>
    </clipPath>
  </defs>
</svg>
