<svg viewBox="0 0 25 25" fill="currentColor" aria-hidden="true">
  <path stroke="#fff" stroke-linecap="round" stroke-linejoin="round" stroke-width="2" d="m24.009 9.5-11.25-8.25L1.509 9.5M3.759 13.25a3 3 0 1 0 6 0 3 3 0 0 0-6 0ZM8.259 18.006a4.5 4.5 0 0 0-6 4.244M23.259 22.25a4.5 4.5 0 0 0-6-4.244M15.759 13.25a3 3 0 1 0 6 0 3 3 0 0 0-6 0Z"/>
  <path stroke="#fff" stroke-linecap="round" stroke-linejoin="round" stroke-width="2" d="M10.509 18.5a2.25 2.25 0 1 0 4.5 0 2.25 2.25 0 0 0-4.5 0Z"/>
  <path stroke="#fff" stroke-linecap="round" stroke-linejoin="round" stroke-width="2" d="M16.656 23.75a4.5 4.5 0 0 0-7.793 0"/>
</svg>
