<svg xmlns="http://www.w3.org/2000/svg" viewBox="0 0 16 16" fill="currentColor" aria-hidden="true">
  <path d="M15.11 3.719a1 1 0 0 0 0-1.414L13.694.89a1.001 1.001 0 0 0-1.414 0L8.118 5.054a.167.167 0 0 1-.236 0L3.719.891a1 1 0 0 0-1.414 0L.89 2.305a1 1 0 0 0 0 1.414l4.163 4.163a.168.168 0 0 1 0 .236L.891 12.281a1 1 0 0 0 0 1.414l1.414 1.414a.999.999 0 0 0 1.414 0l4.163-4.163a.167.167 0 0 1 .236 0l4.163 4.163a1 1 0 0 0 1.414 0l1.414-1.414a1 1 0 0 0 0-1.414l-4.163-4.163a.168.168 0 0 1 0-.236l4.163-4.163Z"/>
</svg>
