<svg xmlns="http://www.w3.org/2000/svg" viewBox="0 0 16 16" fill="currentColor" aria-hidden="true">
  <path d="M15.703 5.82a1.003 1.003 0 0 0-.937-.654h-4.058a.333.333 0 0 1-.315-.223L8.937.815a1 1 0 0 0-1.874 0l-.003.01-1.453 4.118a.333.333 0 0 1-.314.223h-4.06a1 1 0 0 0-.642 1.767L4.047 9.8a.333.333 0 0 1 .104.362l-1.452 4.354a1 1 0 0 0 1.54 1.123l3.564-2.614a.333.333 0 0 1 .394 0l3.562 2.613a1 1 0 0 0 1.542-1.122l-1.452-4.357a.334.334 0 0 1 .103-.362l3.463-2.87a1 1 0 0 0 .288-1.108Z"/>
</svg>
