<svg viewBox="0 0 16 16" fill="currentColor" aria-hidden="true">
  <g clip-path="url(#a)">
    <path d="M14.333.667H1.667A1.667 1.667 0 0 0 0 2.333v11.334a1.667 1.667 0 0 0 1.667 1.666h12.666A1.666 1.666 0 0 0 16 13.666V2.333A1.666 1.666 0 0 0 14.333.667Zm-2.666 5.5h-1.334A.835.835 0 0 0 9.5 7v2a.835.835 0 0 0 .833.833h1.334A.834.834 0 0 0 12.5 9a.507.507 0 0 1 .69-.472.494.494 0 0 1 .31.458 1.839 1.839 0 0 1-1.833 1.847h-1.334A1.835 1.835 0 0 1 8.5 9V7a1.835 1.835 0 0 1 1.833-1.833h1.334A1.835 1.835 0 0 1 13.5 7a.51.51 0 0 1-.69.476.492.492 0 0 1-.31-.455V7a.835.835 0 0 0-.833-.833Zm-6 0H4.333A.835.835 0 0 0 3.5 7v2a.835.835 0 0 0 .833.833h1.334A.835.835 0 0 0 6.5 9a.507.507 0 0 1 .69-.472.494.494 0 0 1 .31.458 1.838 1.838 0 0 1-1.833 1.847H4.333A1.835 1.835 0 0 1 2.5 9V7a1.835 1.835 0 0 1 1.833-1.833h1.334A1.835 1.835 0 0 1 7.5 7a.51.51 0 0 1-.69.476.492.492 0 0 1-.31-.455V7a.835.835 0 0 0-.833-.833Z"/>
  </g>
  <defs>
    <clipPath id="a">
      <path d="M0 0h16v16H0z"/>
    </clipPath>
  </defs>
</svg>
