<svg viewBox="0 0 16 16" fill="currentColor" aria-hidden="true">
  <g clip-path="url(#a)">
    <path d="M9.785 4.039a.167.167 0 0 0 .048-.118V2.5a.667.667 0 0 0-1.138-.47L4.744 5.98a.166.166 0 0 1-.118.05h-1.46a1.333 1.333 0 0 0-1.333 1.332V9.64a1.333 1.333 0 0 0 .95 1.277.167.167 0 0 0 .166-.042L9.785 4.04ZM15.805 1.14a.667.667 0 0 0 0-.943.673.673 0 0 0-.943 0L.195 14.863a.667.667 0 0 0 .943.943l4.077-4.077a.167.167 0 0 1 .236 0l3.244 3.244a.667.667 0 0 0 1.138-.472v-7.32c0-.045.018-.087.049-.119l5.923-5.922Z"/>
  </g>
  <defs>
    <clipPath id="a">
      <path d="M0 0h16v16H0z"/>
    </clipPath>
  </defs>
</svg>
