<svg width="24" height="24" viewBox="0 0 24 24" fill="none" xmlns="http://www.w3.org/2000/svg">
<g clip-path="url(#clip0_460_437)">
<path d="M7.61801 15.3449L16.284 6.67889C16.4719 6.48331 16.6969 6.32717 16.9459 6.21962C17.1949 6.11207 17.4628 6.05527 17.734 6.05254C18.0052 6.04982 18.2742 6.10123 18.5253 6.20376C18.7764 6.30628 19.0045 6.45787 19.1962 6.64965C19.388 6.84143 19.5396 7.06953 19.6421 7.32062C19.7447 7.5717 19.7961 7.84072 19.7934 8.11191C19.7906 8.38311 19.7338 8.65104 19.6263 8.90002C19.5187 9.14899 19.3626 9.37401 19.167 9.56189L7.46101 21.3049C6.69612 22.0696 5.65877 22.4992 4.57715 22.4991C3.49554 22.499 2.45826 22.0693 1.69351 21.3044C0.928754 20.5395 0.499174 19.5022 0.499268 18.4205C0.499361 17.3389 0.929122 16.3016 1.69401 15.5369L13.928 3.30489C14.9793 2.25344 16.4053 1.66269 17.8922 1.6626C19.379 1.6625 20.8051 2.25308 21.8565 3.30439C22.908 4.35571 23.4987 5.78166 23.4988 7.26854C23.4989 8.75542 22.9083 10.1814 21.857 11.2329L13.192 19.8999" stroke="#212B3D" stroke-width="1.5" stroke-linecap="round" stroke-linejoin="round"/>
</g>
<defs>
<clipPath id="clip0_460_437">
<rect width="24" height="24" fill="white"/>
</clipPath>
</defs>
</svg>
