<svg width="24" height="24" viewBox="0 0 24 24" fill="none" xmlns="http://www.w3.org/2000/svg">

<path d="M9.5 0.515869V3.51587M4.5 16.5159H1.5C1.23478 16.5159 0.98043 16.4105 0.792893 16.223C0.605357 16.0354 0.5 15.7811 0.5 15.5159V5.51587C0.5 5.25065 0.605357 4.9963 0.792893 4.80876C0.98043 4.62123 1.23478 4.51587 1.5 4.51587H7C7 4.51587 6.96281 4.69438 6.93898 4.80876M12 4.51587H17.5C17.7652 4.51587 18.0196 4.62123 18.2071 4.80876C18.3946 4.9963 18.5 5.25065 18.5 5.51587V12.9839M5.714 17.5159L4 23.5159" stroke="#212B3D" stroke-width="1.5" stroke-linecap="round" stroke-linejoin="round"/>
<path d="M9.5 17.3529V21.0159M12 4.51587C12 4.25065 11.8946 3.9963 11.7071 3.80876C11.5196 3.62123 11.2652 3.51587 11 3.51587H8C7.73478 3.51587 7.48043 3.62123 7.29289 3.80876C7.10536 3.9963 7 4.25065 7 4.51587C7 4.78109 7.10536 5.03544 7.29289 5.22298C7.48043 5.41051 7.73478 5.51587 8 5.51587H11C11.2652 5.51587 11.5196 5.41051 11.7071 5.22298C11.8946 5.03544 12 4.78109 12 4.51587ZM9.969 15.5159H5.5C5.23478 15.5159 4.98043 15.6212 4.79289 15.8088C4.60536 15.9963 4.5 16.2507 4.5 16.5159V17.0159C4.5 17.1485 4.55268 17.2757 4.64645 17.3694C4.74021 17.4632 4.86739 17.5159 5 17.5159H7.531L9.969 15.5159ZM16.5 14.5729L9.5 17.3529L16.5 19.8229L23.5 17.3529L16.5 14.5729Z" stroke="#212B3D" stroke-width="1.5" stroke-linecap="round" stroke-linejoin="round"/>
<path d="M12.5 18.4119V21.5659C12.4994 21.7163 12.5439 21.8634 12.6279 21.9883C12.7119 22.1131 12.8314 22.2098 12.971 22.2659L16.221 23.4659C16.4 23.5378 16.6 23.5378 16.779 23.4659L20.029 22.2659C20.1686 22.2098 20.2881 22.1131 20.3721 21.9883C20.4561 21.8634 20.5006 21.7163 20.5 21.5659V18.4119" stroke="#212B3D" stroke-width="1.5" stroke-linecap="round" stroke-linejoin="round"/>






</svg>
