<svg width="10" height="12" viewBox="0 0 10 12" fill="none" xmlns="http://www.w3.org/2000/svg">
  <path
    d="M1.2175 0.456507L5.6855 2.24301C5.77828 2.28007 5.85783 2.34409 5.91389 2.42679C5.96994 2.50949 5.99994 2.6071 6 2.70701V11.131C5.99987 11.2126 5.97975 11.293 5.94142 11.365C5.90308 11.4371 5.84768 11.4987 5.78006 11.5444C5.71245 11.5901 5.63466 11.6186 5.55351 11.6273C5.47236 11.6361 5.3903 11.6248 5.3145 11.5945L1.3145 9.99451C1.2218 9.95747 1.1423 9.89353 1.08625 9.81093C1.0302 9.72832 1.00016 9.63083 1 9.53101V0.869507C1 0.736899 1.05268 0.609722 1.14645 0.515953C1.24021 0.422185 1.36739 0.369507 1.5 0.369507H8.5C8.63261 0.369507 8.75979 0.422185 8.85355 0.515953C8.94732 0.609722 9 0.736899 9 0.869507V9.36951C9 9.50212 8.94732 9.62929 8.85355 9.72306C8.75979 9.81683 8.63261 9.86951 8.5 9.86951H7.5"
    stroke="#495465" stroke-width="1.2" stroke-linecap="round" stroke-linejoin="round"/>
  <path
    d="M1.27612 0.422485L7.09412 1.54099C7.20833 1.56285 7.31135 1.62383 7.38545 1.71345C7.45955 1.80306 7.5001 1.9157 7.50012 2.03199V10.3695C7.50012 10.5021 7.44744 10.6293 7.35368 10.723C7.25991 10.8168 7.13273 10.8695 7.00012 10.8695H6.00012"
    stroke="#495465" stroke-width="1.2" stroke-linecap="round" stroke-linejoin="round"/>
</svg>
