<svg width="24" height="24" viewBox="0 0 24 24" fill="none" xmlns="http://www.w3.org/2000/svg">
<path d="M3.5 3.00098H20.5V15.001H3.5V3.00098Z" stroke="#212B3D" stroke-width="2" stroke-linecap="round" stroke-linejoin="round"/>
<path d="M4.40902 15C4.2311 14.9995 4.05612 15.0454 3.9013 15.1331C3.74648 15.2207 3.61715 15.3472 3.52602 15.5L1.14102 19.5C1.05249 19.6533 1.00623 19.8273 1.00697 20.0043C1.0077 20.1813 1.0554 20.3549 1.14519 20.5074C1.23498 20.66 1.36364 20.7859 1.51804 20.8725C1.67244 20.959 1.84704 21.003 2.02402 21H21.976C22.153 21.003 22.3276 20.959 22.482 20.8725C22.6364 20.7859 22.7651 20.66 22.8548 20.5074C22.9446 20.3549 22.9923 20.1813 22.9931 20.0043C22.9938 19.8273 22.9475 19.6533 22.859 19.5L20.474 15.5C20.3829 15.3472 20.2536 15.2207 20.0987 15.1331C19.9439 15.0454 19.7689 14.9995 19.591 15" stroke="#212B3D" stroke-width="2" stroke-linecap="round" stroke-linejoin="round"/>
<path d="M9.5 19.001H14.5" stroke="#212B3D" stroke-width="2" stroke-linecap="round" stroke-linejoin="round"/>
<path d="M12 6.69992C12 6.69992 12.92 5.40892 15.983 5.27592C16.0501 5.27364 16.1169 5.28489 16.1796 5.30899C16.2422 5.3331 16.2994 5.36956 16.3476 5.41622C16.3958 5.46288 16.4342 5.51877 16.4604 5.58057C16.4866 5.64237 16.5 5.70881 16.5 5.77592V11.0759C16.5 11.2072 16.4484 11.3331 16.3564 11.4267C16.2643 11.5202 16.1392 11.5738 16.008 11.5759C12.925 11.6999 12 12.9999 12 12.9999V6.69992ZM12 6.69992C12 6.69992 11.08 5.40892 8.017 5.27592C7.94992 5.27364 7.88307 5.28489 7.82043 5.30899C7.7578 5.3331 7.70065 5.36956 7.6524 5.41622C7.60416 5.46288 7.5658 5.51877 7.53962 5.58057C7.51344 5.64237 7.49996 5.70881 7.5 5.77592V11.0759C7.49998 11.2072 7.55156 11.3331 7.64361 11.4267C7.73565 11.5202 7.86078 11.5738 7.992 11.5759C11.075 11.6999 12 12.9999 12 12.9999" stroke="#212B3D" stroke-width="2" stroke-linecap="round" stroke-linejoin="round"/>
</svg>
