<svg width="24" height="24" viewBox="0 0 24 24" fill="none" xmlns="http://www.w3.org/2000/svg">

<path d="M5.5 19.751H2.5C1.96957 19.751 1.46086 19.5403 1.08579 19.1652C0.710714 18.7901 0.5 18.2814 0.5 17.751V2.75098C0.5 2.22054 0.710714 1.71184 1.08579 1.33676C1.46086 0.96169 1.96957 0.750977 2.5 0.750977H9.5C10.0304 0.750977 10.5391 0.96169 10.9142 1.33676C11.2893 1.71184 11.5 2.22054 11.5 2.75098V6.75098" stroke="#212B3D" stroke-width="1.5" stroke-linecap="round" stroke-linejoin="round"/>
<path d="M0.5 3.75098H11.5" stroke="#212B3D" stroke-width="1.5" stroke-linecap="round" stroke-linejoin="round"/>
<path d="M0.5 16.751H5.5" stroke="#212B3D" stroke-width="1.5" stroke-linecap="round" stroke-linejoin="round"/>
<path d="M15.5 11.251C15.5 11.251 17.216 8.67101 22.981 8.52401C23.1161 8.5216 23.2466 8.5729 23.3439 8.66664C23.4412 8.76039 23.4974 8.88891 23.5 9.02401V20.024C23.5 20.1566 23.4473 20.2838 23.3536 20.3776C23.2598 20.4713 23.1326 20.524 23 20.524C17.217 20.665 15.5 23.252 15.5 23.252V11.252C15.5 11.252 13.784 8.67201 8.019 8.52501C7.8839 8.5226 7.75337 8.5739 7.65606 8.66764C7.55876 8.76139 7.50263 8.88991 7.5 9.02501V20.025C7.5 20.1576 7.55268 20.2848 7.64645 20.3786C7.74021 20.4723 7.86739 20.525 8 20.525C13.783 20.666 15.5 23.253 15.5 23.253" stroke="#212B3D" stroke-width="1.5" stroke-linecap="round" stroke-linejoin="round"/>






</svg>
