<svg width="24" height="24" viewBox="0 0 24 24" fill="none" xmlns="http://www.w3.org/2000/svg">

<path d="M10.5 23.5V20C10.5 19.6022 10.658 19.2206 10.9393 18.9393C11.2206 18.658 11.6022 18.5 12 18.5C12.3978 18.5 12.7794 18.658 13.0607 18.9393C13.342 19.2206 13.5 19.6022 13.5 20V23.5" stroke="#212B3D" stroke-width="2" stroke-linecap="round" stroke-linejoin="round"/>
<path d="M8.5 16.5H5.5V13.5C5.5 13.1022 5.65804 12.7206 5.93934 12.4393C6.22064 12.158 6.60218 12 7 12C7.39782 12 7.77936 12.158 8.06066 12.4393C8.34196 12.7206 8.5 13.1022 8.5 13.5V16.5Z" stroke="#212B3D" stroke-width="2" stroke-linecap="round" stroke-linejoin="round"/>
<path d="M8.5 10H5.5V7C5.5 6.60218 5.65804 6.22064 5.93934 5.93934C6.22064 5.65804 6.60218 5.5 7 5.5C7.39782 5.5 7.77936 5.65804 8.06066 5.93934C8.34196 6.22064 8.5 6.60218 8.5 7V10Z" stroke="#212B3D" stroke-width="2" stroke-linecap="round" stroke-linejoin="round"/>
<path d="M13.5 16.5H10.5V13.5C10.5 13.1022 10.658 12.7206 10.9393 12.4393C11.2206 12.158 11.6022 12 12 12C12.3978 12 12.7794 12.158 13.0607 12.4393C13.342 12.7206 13.5 13.1022 13.5 13.5V16.5Z" stroke="#212B3D" stroke-width="2" stroke-linecap="round" stroke-linejoin="round"/>
<path d="M13.5 10H10.5V7C10.5 6.60218 10.658 6.22064 10.9393 5.93934C11.2206 5.65804 11.6022 5.5 12 5.5C12.3978 5.5 12.7794 5.65804 13.0607 5.93934C13.342 6.22064 13.5 6.60218 13.5 7V10Z" stroke="#212B3D" stroke-width="2" stroke-linecap="round" stroke-linejoin="round"/>
<path d="M18.5 16.5H15.5V13.5C15.5 13.1022 15.658 12.7206 15.9393 12.4393C16.2206 12.158 16.6022 12 17 12C17.3978 12 17.7794 12.158 18.0607 12.4393C18.342 12.7206 18.5 13.1022 18.5 13.5V16.5Z" stroke="#212B3D" stroke-width="2" stroke-linecap="round" stroke-linejoin="round"/>
<path d="M18.5 10H15.5V7C15.5 6.60218 15.658 6.22064 15.9393 5.93934C16.2206 5.65804 16.6022 5.5 17 5.5C17.3978 5.5 17.7794 5.65804 18.0607 5.93934C18.342 6.22064 18.5 6.60218 18.5 7V10Z" stroke="#212B3D" stroke-width="2" stroke-linecap="round" stroke-linejoin="round"/>
<path d="M20.5 3.8C20.5001 3.60247 20.4416 3.40935 20.332 3.245L18.8 0.945005C18.7084 0.807666 18.5842 0.69515 18.4385 0.617501C18.2928 0.539852 18.1301 0.499485 17.965 0.500005H6.03501C5.86991 0.499485 5.70725 0.539852 5.56155 0.617501C5.41585 0.69515 5.29164 0.807666 5.20001 0.945005L3.66501 3.245C3.55648 3.40969 3.49908 3.60278 3.50001 3.8V22.5C3.50001 22.7652 3.60537 23.0196 3.7929 23.2071C3.98044 23.3946 4.23479 23.5 4.50001 23.5H19.5C19.7652 23.5 20.0196 23.3946 20.2071 23.2071C20.3947 23.0196 20.5 22.7652 20.5 22.5V3.8Z" stroke="#212B3D" stroke-width="2" stroke-linecap="round" stroke-linejoin="round"/>
<path d="M3.547 3.5H20.453" stroke="#212B3D" stroke-width="2" stroke-linecap="round" stroke-linejoin="round"/>






</svg>
