<svg width="24" height="24" viewBox="0 0 24 24" fill="none" xmlns="http://www.w3.org/2000/svg">
<path d="M6 13.2231L8.45 16.7001C8.54293 16.8389 8.66768 16.9536 8.81385 17.0344C8.96002 17.1153 9.12339 17.1601 9.29037 17.1651C9.45735 17.1701 9.6231 17.1351 9.77384 17.0631C9.92458 16.9911 10.0559 16.8841 10.157 16.7511L18 6.82812" stroke="#212B3D" stroke-width="1.5" stroke-linecap="round" stroke-linejoin="round"/>
<path d="M0.75 11.999C0.75 14.9827 1.93526 17.8442 4.04505 19.954C6.15483 22.0638 9.01631 23.249 12 23.249C14.9837 23.249 17.8452 22.0638 19.955 19.954C22.0647 17.8442 23.25 14.9827 23.25 11.999C23.25 9.01534 22.0647 6.15386 19.955 4.04407C17.8452 1.93429 14.9837 0.749023 12 0.749023C9.01631 0.749023 6.15483 1.93429 4.04505 4.04407C1.93526 6.15386 0.75 9.01534 0.75 11.999V11.999Z" stroke="#212B3D" stroke-width="1.5" stroke-linecap="round" stroke-linejoin="round"/>
</svg>
