<svg width="24" height="24" viewBox="0 0 24 24" fill="none" xmlns="http://www.w3.org/2000/svg">
<g clip-path="url(#clip0_608_11163)">
<path d="M12 23.25V14.25" stroke="#212B3D" stroke-width="1.5" stroke-linecap="round" stroke-linejoin="round"/>
<path d="M8.25 18L12 14.25L15.75 18" stroke="#212B3D" stroke-width="1.5" stroke-linecap="round" stroke-linejoin="round"/>
<path d="M17.25 15.75H18.375C19.1398 15.7513 19.8942 15.5726 20.5773 15.2284C21.2603 14.8842 21.8527 14.3841 22.3067 13.7685C22.7606 13.153 23.0634 12.4393 23.1905 11.685C23.3176 10.9308 23.2654 10.1573 23.0382 9.42695C22.811 8.69662 22.4152 8.03 21.8827 7.48097C21.3502 6.93194 20.6959 6.51591 19.9729 6.2665C19.2498 6.0171 18.4783 5.94132 17.7205 6.0453C16.9628 6.14928 16.2401 6.43009 15.611 6.86504C15.3598 5.52801 14.7498 4.28446 13.8461 3.26756C12.9425 2.25065 11.7792 1.49868 10.481 1.09217C9.18271 0.685667 7.79834 0.639928 6.47609 0.959857C5.15383 1.27979 3.9435 1.95333 2.97468 2.90837C2.00586 3.86341 1.31505 5.06398 0.976219 6.38152C0.637388 7.69905 0.663297 9.08394 1.05117 10.3879C1.43904 11.6918 2.17428 12.8657 3.17814 13.7838C4.182 14.702 5.41668 15.3298 6.74998 15.6" stroke="#212B3D" stroke-width="1.5" stroke-linecap="round" stroke-linejoin="round"/>
</g>
<defs>
<clipPath id="clip0_608_11163">
<rect width="24" height="24" fill="white"/>
</clipPath>
</defs>
</svg>
