<svg width="17" height="16" viewBox="0 0 17 16" fill="none" xmlns="http://www.w3.org/2000/svg">
<path fill-rule="evenodd" clip-rule="evenodd" d="M5.55588 0.504214C4.57764 0.61327 3.6559 0.996246 2.88376 1.61447C2.67233 1.78375 2.27582 2.18121 2.1036 2.3965C1.68547 2.91917 1.32844 3.61196 1.15761 4.23207C1.09398 4.46308 1.03537 4.75844 1.00206 5.01607C0.968173 5.27826 0.963565 5.91612 0.993741 6.16807C1.12128 7.23257 1.51225 8.14637 2.18144 8.94407C2.95806 9.86981 4.05443 10.4976 5.25188 10.7022C5.63968 10.7685 5.73048 10.764 5.85712 10.6722C5.96336 10.5953 6.01001 10.5108 6.01728 10.3821C6.02491 10.247 6.01817 10.2191 5.95476 10.1234C5.87689 10.0058 5.79937 9.9694 5.55104 9.93361C4.59595 9.79601 3.78424 9.40533 3.10899 8.75828C2.51828 8.19225 2.1112 7.49332 1.90787 6.69607C1.60648 5.51436 1.82134 4.23754 2.49078 3.23207C2.67516 2.95514 2.8074 2.79437 3.05083 2.55127C3.39304 2.20946 3.72387 1.96765 4.13398 1.75957C5.66342 0.98351 7.44424 1.15405 8.80388 2.20677C8.98236 2.34497 9.30364 2.65745 9.46324 2.84807C9.89841 3.36785 10.2239 4.0421 10.3708 4.72807C10.4259 4.98543 10.5205 5.09951 10.7119 5.13948C10.8359 5.16535 10.9116 5.14362 11.0883 5.03149C11.3749 4.8497 11.6887 4.72116 12.0078 4.65485C12.2425 4.60609 12.6831 4.59489 12.9292 4.63143C13.4911 4.71489 13.9916 4.96113 14.4097 5.35977C15.0542 5.97434 15.354 6.92557 15.1783 7.79826C14.9632 8.86636 14.1742 9.67033 13.0999 9.91602C12.9279 9.95537 12.9051 9.9565 12.0919 9.96631C11.34 9.9754 11.2537 9.97913 11.1959 10.005C11.0538 10.0687 10.9482 10.2268 10.9482 10.3761C10.9482 10.5253 11.0537 10.6833 11.1959 10.7472C11.2528 10.7727 11.323 10.7765 11.8279 10.7812C12.6495 10.7888 13.0284 10.762 13.3879 10.6709C14.101 10.4902 14.7835 10.0608 15.2256 9.51487C15.9449 8.62674 16.1962 7.51162 15.9218 6.42527C15.6732 5.44101 14.9963 4.61002 14.0759 4.15919C13.1682 3.71458 12.1228 3.68105 11.2063 4.06713C11.124 4.10178 11.0546 4.12788 11.0522 4.12511C11.0497 4.12234 11.0209 4.04087 10.988 3.94407C10.7099 3.12437 10.1774 2.33209 9.51588 1.75402C8.71004 1.04977 7.74241 0.625014 6.66788 0.50383C6.41328 0.475126 5.81497 0.475318 5.55588 0.504214ZM8.36592 9.04756C8.27403 9.08033 8.1934 9.15295 8.14388 9.24762L8.09988 9.33172V11.7416V14.1514L7.23188 13.2846C6.57268 12.6263 6.34657 12.41 6.29188 12.3853C6.1992 12.3434 6.05169 12.342 5.96353 12.382C5.7667 12.4714 5.67196 12.7198 5.76056 12.9142C5.78454 12.9667 6.10339 13.2942 7.04616 14.2343C8.39104 15.5755 8.335 15.5257 8.49988 15.5257C8.66476 15.5257 8.60873 15.5755 9.95361 14.2343C10.8964 13.2942 11.2152 12.9667 11.2392 12.9142C11.3278 12.7198 11.2339 12.4744 11.0359 12.3825C10.9484 12.3419 10.8012 12.3432 10.7079 12.3853C10.6532 12.41 10.4271 12.6263 9.76788 13.2846L8.89988 14.1514V11.7416V9.33172L8.8552 9.24618C8.76006 9.06407 8.55414 8.98047 8.36592 9.04756Z" fill="#424444"/>
</svg>
