<svg width="24" height="24" viewBox="0 0 24 24" fill="none" xmlns="http://www.w3.org/2000/svg">
<path d="M7.5 20.25H2.25C1.85218 20.25 1.47064 20.092 1.18934 19.8107C0.908035 19.5294 0.75 19.1478 0.75 18.75V2.25C0.75 1.85218 0.908035 1.47064 1.18934 1.18934C1.47064 0.908035 1.85218 0.75 2.25 0.75H12.879C13.2765 0.750085 13.6578 0.907982 13.939 1.189L16.811 4.061C17.092 4.3422 17.2499 4.72345 17.25 5.121V7.5" stroke="#212B3D" stroke-width="2" stroke-linecap="round" stroke-linejoin="round"/>
<path d="M10.514 15.75C10.514 17.1424 11.0671 18.4777 12.0517 19.4623C13.0362 20.4469 14.3716 21 15.764 21C17.1564 21 18.4917 20.4469 19.4763 19.4623C20.4609 18.4777 21.014 17.1424 21.014 15.75C21.014 14.3576 20.4609 13.0223 19.4763 12.0377C18.4917 11.0531 17.1564 10.5 15.764 10.5C14.3716 10.5 13.0362 11.0531 12.0517 12.0377C11.0671 13.0223 10.514 14.3576 10.514 15.75V15.75Z" stroke="#212B3D" stroke-width="2" stroke-linecap="round" stroke-linejoin="round"/>
<path d="M23.25 23.2499L19.476 19.4619" stroke="#212B3D" stroke-width="2" stroke-linecap="round" stroke-linejoin="round"/>
</svg>
