<svg width="16" height="16" viewBox="0 0 16 16" fill="none" xmlns="http://www.w3.org/2000/svg">

<path d="M13.1984 0.199951H8.39837C8.08011 0.199951 7.77489 0.326379 7.54985 0.551423C7.3248 0.776467 7.19837 1.08169 7.19837 1.39995C7.19837 1.71821 7.3248 2.02344 7.54985 2.24848C7.77489 2.47352 8.08011 2.59995 8.39837 2.59995H13.1984C13.3049 2.59995 13.407 2.64226 13.4823 2.71758C13.5577 2.79289 13.6 2.89504 13.6 3.00155V9.79835C13.6 9.90486 13.5577 10.007 13.4823 10.0823C13.407 10.1576 13.3049 10.2 13.1984 10.2H4.09757L5.24797 9.04795C5.44403 8.81793 5.54607 8.52239 5.5337 8.2204C5.52133 7.91841 5.39545 7.63221 5.18123 7.419C4.967 7.20578 4.68021 7.08126 4.37817 7.07031C4.07612 7.05937 3.78107 7.1628 3.55197 7.35995L0.351973 10.56C0.240511 10.6713 0.152084 10.8034 0.0917523 10.9489C0.0314203 11.0945 0.000366211 11.2504 0.000366211 11.408C0.000366211 11.5655 0.0314203 11.7214 0.0917523 11.867C0.152084 12.0125 0.240511 12.1446 0.351973 12.256L3.55197 15.456C3.66183 15.5739 3.79431 15.6684 3.94151 15.734C4.08871 15.7996 4.24761 15.8349 4.40874 15.8377C4.56986 15.8405 4.72991 15.8109 4.87933 15.7505C5.02875 15.6902 5.16448 15.6004 5.27843 15.4864C5.39238 15.3725 5.48222 15.2367 5.54257 15.0873C5.60292 14.9379 5.63256 14.7778 5.62972 14.6167C5.62688 14.4556 5.59161 14.2967 5.52602 14.1495C5.46044 14.0023 5.36587 13.8698 5.24797 13.76L4.09757 12.608H13.1984C13.5668 12.6075 13.9316 12.5345 14.2718 12.3931C14.6121 12.2516 14.9211 12.0445 15.1813 11.7836C15.4415 11.5227 15.6477 11.2131 15.7882 10.8724C15.9286 10.5318 16.0006 10.1668 16 9.79835V3.00155C15.9991 2.25878 15.7037 1.54667 15.1785 1.02146C14.6532 0.496238 13.9411 0.200798 13.1984 0.199951V0.199951Z" fill="#212B3D"/>






</svg>
