<svg xmlns="http://www.w3.org/2000/svg" width="18" height="18" viewBox="0 0 18 18" fill="none">
    <path fill-rule="evenodd" clip-rule="evenodd" d="M16.4465 9.07595C16.4293 9.18385 16.3896 9.25788 16.3022 9.34527C16.233 9.41444 16.1974 9.43717 16.104 9.47209C16.069 9.48517 15.9452 9.48559 11.6905 9.48738L7.3131 9.48921L8.24631 10.4234L9.17952 11.3575L9.21295 11.4259C9.28692 11.5773 9.28396 11.742 9.20467 11.8867C9.16489 11.9594 9.0702 12.0491 8.99399 12.0864C8.85305 12.1553 8.6975 12.1555 8.55479 12.0869L8.49359 12.0575L7.10337 10.6671C5.74668 9.31026 5.71253 9.27544 5.6868 9.22274C5.64889 9.1451 5.63601 9.08845 5.63601 8.99954C5.63601 8.91063 5.6489 8.85398 5.68681 8.77634C5.71254 8.72365 5.74688 8.68863 7.09978 7.33537C8.61196 5.82279 8.5103 5.91918 8.63399 5.88073C8.6779 5.86708 8.70413 5.86394 8.77439 5.86394C8.87369 5.86394 8.93541 5.87913 9.01559 5.9233C9.07689 5.95707 9.17093 6.05113 9.20458 6.11234C9.28395 6.25671 9.28695 6.42168 9.21295 6.57314L9.17952 6.64154L8.24631 7.5757L7.3131 8.50987L11.6905 8.5117C15.9452 8.51349 16.069 8.51392 16.104 8.52699C16.1974 8.56191 16.233 8.58464 16.3022 8.65381C16.376 8.72765 16.405 8.77359 16.4308 8.85771C16.4476 8.91289 16.4554 9.0201 16.4465 9.07595ZM2.52777 16.6526C2.50987 16.7437 2.47118 16.821 2.40941 16.8891C2.21504 17.1035 1.89959 17.1116 1.6954 16.9075C1.64651 16.8587 1.6309 16.8371 1.60429 16.7815C1.58663 16.7445 1.56781 16.6965 1.56248 16.6747C1.54801 16.6156 1.54801 1.38348 1.56248 1.32434C1.56781 1.30256 1.58663 1.25454 1.60429 1.21763C1.6621 1.09683 1.78563 0.994343 1.91279 0.961691C2.16953 0.895761 2.42764 1.03461 2.51226 1.28418L2.53199 1.34234L2.53301 8.98154C2.53358 13.2859 2.53129 16.6347 2.52777 16.6526Z" fill="#343A3F"/>
</svg>