<svg width="24" height="24" viewBox="0 0 24 24" fill="none" xmlns="http://www.w3.org/2000/svg">
<path d="M6.75 9.00002L10.044 13.611C10.1796 13.8009 10.3569 13.9571 10.5623 14.0677C10.7677 14.1783 10.9958 14.2403 11.2289 14.249C11.462 14.2577 11.694 14.2128 11.9071 14.1178C12.1202 14.0228 12.3086 13.8802 12.458 13.701L23.25 0.749023" stroke="#212B3D" stroke-width="1.5" stroke-linecap="round" stroke-linejoin="round"/>
<path d="M21.75 10.5V20.25C21.75 21.0456 21.4339 21.8087 20.8713 22.3713C20.3087 22.9339 19.5456 23.25 18.75 23.25H3.75C2.95435 23.25 2.19129 22.9339 1.62868 22.3713C1.06607 21.8087 0.75 21.0456 0.75 20.25V5.25C0.75 4.45435 1.06607 3.69129 1.62868 3.12868C2.19129 2.56607 2.95435 2.25 3.75 2.25H16.5" stroke="#212B3D" stroke-width="1.5" stroke-linecap="round" stroke-linejoin="round"/>
</svg>
