<svg width="24" height="24" viewBox="0 0 24 24" fill="none" xmlns="http://www.w3.org/2000/svg">
<path d="M6.75 9.00002L10.044 13.611C10.1796 13.8009 10.3569 13.9571 10.5623 14.0677C10.7677 14.1783 10.9958 14.2403 11.2289 14.249C11.462 14.2577 11.694 14.2128 11.9071 14.1178C12.1202 14.0228 12.3086 13.8802 12.458 13.701L23.25 0.749023" stroke="#212B3D" stroke-width="1.5" stroke-linecap="round" stroke-linejoin="round"/>
<path d="M16.783 3.82392C14.644 2.5002 12.1005 1.98942 9.61628 2.38473C7.13209 2.78004 4.87274 4.0551 3.2503 5.97738C1.62785 7.89965 0.750403 10.3411 0.777974 12.8564C0.805545 15.3717 1.7363 17.7933 3.40049 19.6795C5.06468 21.5658 7.35143 22.791 9.84369 23.1317C12.336 23.4725 14.8677 22.9061 16.9771 21.5358C19.0866 20.1655 20.6332 18.0827 21.335 15.6671C22.0367 13.2515 21.8469 10.6642 20.8 8.37692" stroke="#212B3D" stroke-width="1.5" stroke-linecap="round" stroke-linejoin="round"/>
</svg>
