<svg width="24" height="24" viewBox="0 0 24 24" fill="none" xmlns="http://www.w3.org/2000/svg">
<path d="M17.168 15C16.6476 15.9114 15.8955 16.669 14.9879 17.1959C14.0803 17.7228 13.0495 18.0004 12 18.0004C10.9505 18.0004 9.9197 17.7228 9.01209 17.1959C8.10448 16.669 7.35235 15.9114 6.832 15H3C2.60218 15 2.22064 15.158 1.93934 15.4393C1.65804 15.7206 1.5 16.1022 1.5 16.5V21C1.5 21.3978 1.65804 21.7794 1.93934 22.0607C2.22064 22.342 2.60218 22.5 3 22.5H21C21.3978 22.5 21.7794 22.342 22.0607 22.0607C22.342 21.7794 22.5 21.3978 22.5 21V16.5C22.5 16.1022 22.342 15.7206 22.0607 15.4393C21.7794 15.158 21.3978 15 21 15H17.168Z" stroke="#212B3D" stroke-width="2" stroke-linecap="round" stroke-linejoin="round"/>
<path d="M12 12V1.5" stroke="#212B3D" stroke-width="2" stroke-linecap="round" stroke-linejoin="round"/>
<path d="M8.25 9L12 12L15.75 9" stroke="#212B3D" stroke-width="2" stroke-linecap="round" stroke-linejoin="round"/>
</svg>
