<svg width="18" height="18" viewBox="0 0 18 18" fill="none" xmlns="http://www.w3.org/2000/svg">
<path d="M12.5 1.5H2.5C1.94772 1.5 1.5 1.94772 1.5 2.5V12.5C1.5 13.0523 1.94772 13.5 2.5 13.5H12.5C13.0523 13.5 13.5 13.0523 13.5 12.5V2.5C13.5 1.94772 13.0523 1.5 12.5 1.5Z" stroke="#8E97A2" stroke-width="2" stroke-linecap="round" stroke-linejoin="round"/>
<path d="M15.5 4.5C15.7652 4.5 16.0196 4.60536 16.2071 4.79289C16.3946 4.98043 16.5 5.23478 16.5 5.5V15.5C16.5 15.7652 16.3946 16.0196 16.2071 16.2071C16.0196 16.3946 15.7652 16.5 15.5 16.5H5.5C5.23478 16.5 4.98043 16.3946 4.79289 16.2071C4.60536 16.0196 4.5 15.7652 4.5 15.5" stroke="#8E97A2" stroke-width="2" stroke-linecap="round" stroke-linejoin="round"/>
</svg>
