<svg width="24" height="24" viewBox="0 0 24 24" fill="none" xmlns="http://www.w3.org/2000/svg">
<path d="M12.712 16.386L9 16.916L9.53 13.2L19.076 3.65403C19.2852 3.4451 19.5335 3.27942 19.8067 3.16644C20.0799 3.05347 20.3728 2.99542 20.6684 2.99561C20.9641 2.99579 21.2568 3.05421 21.5299 3.16753C21.803 3.28084 22.0511 3.44684 22.26 3.65603C22.4689 3.86523 22.6346 4.11353 22.7476 4.38676C22.8606 4.65998 22.9186 4.95279 22.9184 5.24845C22.9182 5.54411 22.8598 5.83684 22.7465 6.10992C22.6332 6.38301 22.4672 6.6311 22.258 6.84003L12.712 16.386Z" stroke="#212B3D" stroke-width="1.5" stroke-linecap="round" stroke-linejoin="round"/>
<path d="M5.25 15H2.25C1.85218 15 1.47064 15.158 1.18934 15.4393C0.908035 15.7206 0.75 16.1022 0.75 16.5V19.5C0.75 19.8978 0.908035 20.2794 1.18934 20.5607C1.47064 20.842 1.85218 21 2.25 21H21.75C22.1478 21 22.5294 20.842 22.8107 20.5607C23.092 20.2794 23.25 19.8978 23.25 19.5V16.5C23.25 16.1022 23.092 15.7206 22.8107 15.4393C22.5294 15.158 22.1478 15 21.75 15H18.75" stroke="#212B3D" stroke-width="1.5" stroke-linecap="round" stroke-linejoin="round"/>
</svg>
