<svg width="24" height="24" viewBox="0 0 24 24" fill="none" xmlns="http://www.w3.org/2000/svg">
<path d="M15.311 20.0609C15.1012 20.2709 14.8339 20.4138 14.5428 20.4718C14.2518 20.5297 13.9501 20.5 13.6759 20.3864C13.4017 20.2728 13.1674 20.0805 13.0026 19.8337C12.8378 19.5869 12.7499 19.2967 12.75 18.9999V16.7499H2.25C1.85218 16.7499 1.47064 16.5919 1.18934 16.3106C0.908035 16.0293 0.75 15.6478 0.75 15.2499V9.24995C0.75 8.85212 0.908035 8.47059 1.18934 8.18929C1.47064 7.90798 1.85218 7.74995 2.25 7.74995H12.75V5.49995C12.7499 5.20318 12.8378 4.91304 13.0026 4.66624C13.1674 4.41944 13.4017 4.22707 13.6759 4.11349C13.9501 3.9999 14.2518 3.97019 14.5428 4.02813C14.8339 4.08606 15.1012 4.22903 15.311 4.43895L22.061 11.3179C22.3422 11.5992 22.5002 11.9807 22.5002 12.3784C22.5002 12.7762 22.3422 13.1577 22.061 13.4389L15.311 20.0609Z" stroke="#212B3D" stroke-width="2" stroke-linecap="round" stroke-linejoin="round"/>
</svg>
