<svg width="24" height="24" viewBox="0 0 24 24" fill="none" xmlns="http://www.w3.org/2000/svg">

<path d="M23.5 17.4861C23.5 17.8839 23.342 18.2654 23.0607 18.5467C22.7794 18.828 22.3978 18.9861 22 18.9861H5C4.60218 18.9861 4.22064 18.828 3.93934 18.5467C3.65804 18.2654 3.5 17.8839 3.5 17.4861V3.48608C3.5 3.2891 3.5388 3.09405 3.61418 2.91206C3.68956 2.73007 3.80005 2.56471 3.93934 2.42542C4.22064 2.14412 4.60218 1.98608 5 1.98608H22C22.3978 1.98608 22.7794 2.14412 23.0607 2.42542C23.342 2.70673 23.5 3.08826 23.5 3.48608V17.4861Z" stroke="#212B3D" stroke-width="1.5" stroke-linecap="round" stroke-linejoin="round"/>
<path d="M23 2.48608L13.5 11.4861L4 2.48608" stroke="#212B3D" stroke-width="1.5" stroke-linecap="round" stroke-linejoin="round"/>
<path d="M3.5 6.00806H1.5C1.23478 6.00806 0.98043 6.11341 0.792893 6.30095C0.605357 6.48849 0.5 6.74284 0.5 7.00806V21.0081C0.5 21.2733 0.605357 21.5276 0.792893 21.7152C0.98043 21.9027 1.23478 22.0081 1.5 22.0081H18.5C18.7652 22.0081 19.0196 21.9027 19.2071 21.7152C19.3946 21.5276 19.5 21.2733 19.5 21.0081V19.0081" stroke="#212B3D" stroke-width="1.5" stroke-linecap="round" stroke-linejoin="round"/>






</svg>
