<svg width="24" height="24" viewBox="0 0 24 24" fill="none" xmlns="http://www.w3.org/2000/svg">
<path d="M12.75 6.83706C12.7497 6.53571 12.6585 6.24146 12.4885 5.99264C12.3185 5.74383 12.0775 5.55198 11.7969 5.44211C11.5163 5.33225 11.2091 5.30944 10.9154 5.37668C10.6216 5.44392 10.3549 5.59807 10.15 5.81906L4.68903 11.7331C4.4335 12.0101 4.29163 12.3732 4.29163 12.7501C4.29163 13.127 4.4335 13.49 4.68903 13.7671L10.148 19.6811C10.3529 19.9021 10.6196 20.0562 10.9134 20.1234C11.2071 20.1907 11.5143 20.1679 11.7949 20.058C12.0755 19.9481 12.3165 19.7563 12.4865 19.5075C12.6565 19.2587 12.7477 18.9644 12.748 18.6631V15.7501H15.748C17.7372 15.7501 19.6448 16.5402 21.0513 17.9468C22.4579 19.3533 23.248 21.2609 23.248 23.2501V17.2501C23.248 15.2609 22.4579 13.3533 21.0513 11.9468C19.6448 10.5402 17.7372 9.75006 15.748 9.75006H12.748L12.75 6.83706Z" stroke="#212B3D" stroke-width="2" stroke-linecap="round" stroke-linejoin="round"/>
<path d="M6.60602 5.81909L1.14802 11.7331C0.892488 12.0101 0.75061 12.3732 0.75061 12.7501C0.75061 13.127 0.892488 13.4901 1.14802 13.7671L6.60602 19.6811" stroke="#212B3D" stroke-width="2" stroke-linecap="round" stroke-linejoin="round"/>
</svg>
