<svg width="24" height="24" viewBox="0 0 24 24" fill="none" xmlns="http://www.w3.org/2000/svg">
<path d="M9.70902 6.83706C9.70865 6.53571 9.61753 6.24146 9.44753 5.99264C9.27752 5.74383 9.03651 5.55198 8.7559 5.44211C8.47529 5.33225 8.1681 5.30944 7.87434 5.37668C7.58059 5.44392 7.3139 5.59807 7.10902 5.81906L1.64802 11.7331C1.39249 12.0101 1.25061 12.3732 1.25061 12.7501C1.25061 13.127 1.39249 13.49 1.64802 13.7671L7.10602 19.6811C7.3109 19.9021 7.57759 20.0562 7.87134 20.1234C8.1651 20.1907 8.47229 20.1679 8.7529 20.058C9.03351 19.9481 9.27452 19.7563 9.44453 19.5075C9.61453 19.2587 9.70566 18.9644 9.70602 18.6631V15.7501H15.706C17.6951 15.7501 19.6028 16.5402 21.0093 17.9468C22.4158 19.3533 23.206 21.2609 23.206 23.2501V17.2501C23.206 15.2609 22.4158 13.3533 21.0093 11.9468C19.6028 10.5402 17.6951 9.75006 15.706 9.75006H9.70602L9.70902 6.83706Z" stroke="#212B3D" stroke-width="1.5" stroke-linecap="round" stroke-linejoin="round"/>
</svg>
