<svg width="24" height="24" viewBox="0 0 24 24" fill="none" xmlns="http://www.w3.org/2000/svg">
<path d="M16.5 5.25C16.5 6.04565 16.8161 6.80871 17.3787 7.37132C17.9413 7.93393 18.7044 8.25 19.5 8.25C20.2956 8.25 21.0587 7.93393 21.6213 7.37132C22.1839 6.80871 22.5 6.04565 22.5 5.25C22.5 4.45435 22.1839 3.69129 21.6213 3.12868C21.0587 2.56607 20.2956 2.25 19.5 2.25C18.7044 2.25 17.9413 2.56607 17.3787 3.12868C16.8161 3.69129 16.5 4.45435 16.5 5.25V5.25Z" stroke="#212B3D" stroke-width="1.5" stroke-linecap="round" stroke-linejoin="round"/>
<path d="M17.812 20.25L18 21.75H21L21.75 15.75H23.25V13.5C23.25 12.8036 23.0561 12.1209 22.6899 11.5285C22.3238 10.9361 21.7999 10.4573 21.1771 10.1459C20.5542 9.83445 19.8568 9.70261 19.1632 9.76515C18.4696 9.8277 17.8071 10.0821 17.25 10.5" stroke="#212B3D" stroke-width="1.5" stroke-linecap="round" stroke-linejoin="round"/>
<path d="M1.5 5.25C1.5 6.04565 1.81607 6.80871 2.37868 7.37132C2.94129 7.93393 3.70435 8.25 4.5 8.25C5.29565 8.25 6.05871 7.93393 6.62132 7.37132C7.18393 6.80871 7.5 6.04565 7.5 5.25C7.5 4.45435 7.18393 3.69129 6.62132 3.12868C6.05871 2.56607 5.29565 2.25 4.5 2.25C3.70435 2.25 2.94129 2.56607 2.37868 3.12868C1.81607 3.69129 1.5 4.45435 1.5 5.25V5.25Z" stroke="#212B3D" stroke-width="1.5" stroke-linecap="round" stroke-linejoin="round"/>
<path d="M6.188 20.25L6 21.75H3L2.25 15.75H0.75V13.5C0.75 12.8036 0.94393 12.1209 1.31006 11.5285C1.67619 10.9361 2.20005 10.4573 2.82295 10.1459C3.44585 9.83445 4.14317 9.70261 4.83677 9.76515C5.53038 9.8277 6.19286 10.0821 6.75 10.5" stroke="#212B3D" stroke-width="1.5" stroke-linecap="round" stroke-linejoin="round"/>
<path d="M9.75 9C9.75 9.59674 9.98705 10.169 10.409 10.591C10.831 11.0129 11.4033 11.25 12 11.25C12.5967 11.25 13.169 11.0129 13.591 10.591C14.0129 10.169 14.25 9.59674 14.25 9C14.25 8.40326 14.0129 7.83097 13.591 7.40901C13.169 6.98705 12.5967 6.75 12 6.75C11.4033 6.75 10.831 6.98705 10.409 7.40901C9.98705 7.83097 9.75 8.40326 9.75 9V9Z" stroke="#212B3D" stroke-width="1.5" stroke-linecap="round" stroke-linejoin="round"/>
<path d="M12 12.75C11.0054 12.75 10.0516 13.1451 9.34835 13.8483C8.64509 14.5516 8.25 15.5054 8.25 16.5V17.25H9.75L10.5 21.75H12" stroke="#212B3D" stroke-width="1.5" stroke-linecap="round" stroke-linejoin="round"/>
<path d="M12 12.75C12.9946 12.75 13.9484 13.1451 14.6517 13.8483C15.3549 14.5516 15.75 15.5054 15.75 16.5V17.25H14.25L13.5 21.75H12" stroke="#212B3D" stroke-width="1.5" stroke-linecap="round" stroke-linejoin="round"/>
</svg>
