<svg width="24" height="24" viewBox="0 0 24 24" fill="none" xmlns="http://www.w3.org/2000/svg">
<g clip-path="url(#clip0_539_2234)">
<path d="M2.25903 3.75C2.25903 4.54565 2.5751 5.30871 3.13771 5.87132C3.70032 6.43393 4.46338 6.75 5.25903 6.75C6.05468 6.75 6.81774 6.43393 7.38035 5.87132C7.94296 5.30871 8.25903 4.54565 8.25903 3.75C8.25903 2.95435 7.94296 2.19129 7.38035 1.62868C6.81774 1.06607 6.05468 0.75 5.25903 0.75C4.46338 0.75 3.70032 1.06607 3.13771 1.62868C2.5751 2.19129 2.25903 2.95435 2.25903 3.75V3.75Z" stroke="#212B3D" stroke-width="1.5" stroke-linecap="round" stroke-linejoin="round"/>
<path d="M5.25903 8.25V14.25" stroke="#212B3D" stroke-width="1.5" stroke-linecap="round" stroke-linejoin="round"/>
<path d="M7.50903 23.25L8.25903 15.75H9.75903V12.75C9.75903 11.5565 9.28493 10.4119 8.44101 9.56802C7.5971 8.72411 6.45251 8.25 5.25903 8.25C4.06556 8.25 2.92097 8.72411 2.07705 9.56802C1.23314 10.4119 0.759033 11.5565 0.759033 12.75V15.75H2.25903L3.00903 23.25H7.50903Z" stroke="#212B3D" stroke-width="1.5" stroke-linecap="round" stroke-linejoin="round"/>
<path d="M12.009 10.5C12.009 11.0967 12.2461 11.669 12.668 12.091C13.09 12.5129 13.6623 12.75 14.259 12.75C14.8558 12.75 15.4281 12.5129 15.85 12.091C16.272 11.669 16.509 11.0967 16.509 10.5C16.509 9.90326 16.272 9.33097 15.85 8.90901C15.4281 8.48705 14.8558 8.25 14.259 8.25C13.6623 8.25 13.09 8.48705 12.668 8.90901C12.2461 9.33097 12.009 9.90326 12.009 10.5V10.5Z" stroke="#212B3D" stroke-width="1.5" stroke-linecap="round" stroke-linejoin="round"/>
<path d="M13.057 14.4471C13.6213 14.2566 14.2228 14.2032 14.8118 14.2912C15.4008 14.3793 15.9604 14.6063 16.4443 14.9535C16.9281 15.3007 17.3224 15.7581 17.5945 16.2878C17.8666 16.8176 18.0087 17.4045 18.009 18.0001V18.7501H16.509L15.759 23.2501H12.759L12.383 20.9941" stroke="#212B3D" stroke-width="1.5" stroke-linecap="round" stroke-linejoin="round"/>
<path d="M22.69 1.33907C22.5126 1.1527 22.2991 1.00432 22.0626 0.902931C21.826 0.801546 21.5714 0.749268 21.314 0.749268C21.0567 0.749268 20.802 0.801546 20.5655 0.902931C20.329 1.00432 20.1155 1.1527 19.938 1.33907L18.759 2.55807L17.581 1.33907C17.4036 1.1527 17.1901 1.00432 16.9536 0.902931C16.717 0.801546 16.4624 0.749268 16.205 0.749268C15.9477 0.749268 15.693 0.801546 15.4565 0.902931C15.22 1.00432 15.0065 1.1527 14.829 1.33907C14.4632 1.72229 14.259 2.23174 14.259 2.76157C14.259 3.29139 14.4632 3.80085 14.829 4.18407L18.341 7.81507C18.395 7.87174 18.4599 7.91685 18.5319 7.94767C18.6038 7.9785 18.6813 7.99439 18.7595 7.99439C18.8378 7.99439 18.9152 7.9785 18.9872 7.94767C19.0591 7.91685 19.1241 7.87174 19.178 7.81507L22.69 4.18407C23.0554 3.80061 23.2593 3.29125 23.2593 2.76157C23.2593 2.23189 23.0554 1.72252 22.69 1.33907V1.33907Z" stroke="#212B3D" stroke-width="1.5" stroke-linecap="round" stroke-linejoin="round"/>
</g>
<defs>
<clipPath id="clip0_539_2234">
<rect width="24" height="24" fill="white"/>
</clipPath>
</defs>
</svg>
