<svg width="24" height="24" viewBox="0 0 24 24" fill="none" xmlns="http://www.w3.org/2000/svg">
<g clip-path="url(#clip0_608_11438)">
<path d="M5.24701 23.248H2.24701C1.84918 23.248 1.46765 23.09 1.18635 22.8087C0.905045 22.5274 0.747009 22.1459 0.747009 21.748V2.24805C0.747009 1.85022 0.905045 1.46869 1.18635 1.18739C1.46765 0.906082 1.84918 0.748047 2.24701 0.748047H12.876C13.073 0.747958 13.2681 0.786681 13.4502 0.862006C13.6322 0.93733 13.7977 1.04778 13.937 1.18705L19.808 7.05905C20.089 7.34025 20.2469 7.7215 20.247 8.11905V12.748" stroke="#212B3D" stroke-width="1.5" stroke-linecap="round" stroke-linejoin="round"/>
<path d="M20.247 8.24805H14.247C13.8492 8.24805 13.4677 8.09001 13.1863 7.80871C12.905 7.5274 12.747 7.14587 12.747 6.74805V0.748047" stroke="#212B3D" stroke-width="1.5" stroke-linecap="round" stroke-linejoin="round"/>
<path d="M8.24701 23.248C9.04266 23.248 9.80572 22.932 10.3683 22.3694C10.9309 21.8068 11.247 21.0437 11.247 20.248V18.748C11.247 17.9524 10.9309 17.1893 10.3683 16.6267C9.80572 16.0641 9.04266 15.748 8.24701 15.748V23.248Z" stroke="#212B3D" stroke-width="1.5" stroke-linecap="round" stroke-linejoin="round"/>
<path d="M15.747 15.748C15.3492 15.748 14.9677 15.9061 14.6863 16.1874C14.405 16.4687 14.247 16.8502 14.247 17.248V21.748C14.247 22.1459 14.405 22.5274 14.6863 22.8087C14.9677 23.09 15.3492 23.248 15.747 23.248C16.1448 23.248 16.5264 23.09 16.8077 22.8087C17.089 22.5274 17.247 22.1459 17.247 21.748V17.248C17.247 16.8502 17.089 16.4687 16.8077 16.1874C16.5264 15.9061 16.1448 15.748 15.747 15.748V15.748Z" stroke="#212B3D" stroke-width="1.5" stroke-linecap="round" stroke-linejoin="round"/>
<path d="M23.247 15.748C22.4514 15.748 21.6883 16.0641 21.1257 16.6267C20.5631 17.1893 20.247 17.9524 20.247 18.748V20.248C20.247 21.0437 20.5631 21.8068 21.1257 22.3694C21.6883 22.932 22.4514 23.248 23.247 23.248" stroke="#212B3D" stroke-width="1.5" stroke-linecap="round" stroke-linejoin="round"/>
</g>
<defs>
<clipPath id="clip0_608_11438">
<rect width="24" height="24" fill="white"/>
</clipPath>
</defs>
</svg>
