<svg width="24" height="24" viewBox="0 0 24 24" fill="none" xmlns="http://www.w3.org/2000/svg">
<path d="M8.25 23.25V15.75" stroke="#212B3D" stroke-width="1.5" stroke-linecap="round" stroke-linejoin="round"/>
<path d="M8.25 15.75H9C9.59674 15.75 10.169 15.9871 10.591 16.409C11.0129 16.831 11.25 17.4033 11.25 18C11.25 18.5967 11.0129 19.169 10.591 19.591C10.169 20.0129 9.59674 20.25 9 20.25H8.25" stroke="#212B3D" stroke-width="1.5" stroke-linecap="round" stroke-linejoin="round"/>
<path d="M17.25 15.75H15.75C15.3522 15.75 14.9706 15.908 14.6893 16.1893C14.408 16.4706 14.25 16.8522 14.25 17.25C14.25 19.5 17.25 19.5 17.25 21.75C17.25 22.1478 17.092 22.5294 16.8107 22.8107C16.5294 23.092 16.1478 23.25 15.75 23.25H14.25" stroke="#212B3D" stroke-width="1.5" stroke-linecap="round" stroke-linejoin="round"/>
<path d="M20.25 23.25C21.0456 23.25 21.8087 22.9339 22.3713 22.3713C22.9339 21.8087 23.25 21.0456 23.25 20.25V18.75C23.25 17.9544 22.9339 17.1913 22.3713 16.6287C21.8087 16.0661 21.0456 15.75 20.25 15.75V23.25Z" stroke="#212B3D" stroke-width="1.5" stroke-linecap="round" stroke-linejoin="round"/>
<path d="M5.25 23.25H2.25C1.85218 23.25 1.47064 23.092 1.18934 22.8107C0.908035 22.5294 0.75 22.1478 0.75 21.75V2.25C0.75 1.85218 0.908035 1.47064 1.18934 1.18934C1.47064 0.908035 1.85218 0.75 2.25 0.75H12.879C13.2765 0.750085 13.6578 0.907982 13.939 1.189L19.811 7.061C20.092 7.3422 20.2499 7.72345 20.25 8.121V12.75" stroke="#212B3D" stroke-width="1.5" stroke-linecap="round" stroke-linejoin="round"/>
<path d="M20.25 8.25H14.25C13.8522 8.25 13.4706 8.09196 13.1893 7.81066C12.908 7.52936 12.75 7.14782 12.75 6.75V0.75" stroke="#212B3D" stroke-width="1.5" stroke-linecap="round" stroke-linejoin="round"/>
</svg>
