
<svg width="24" height="24" viewBox="0 0 24 24" fill="none" xmlns="http://www.w3.org/2000/svg">
<g>
<path opacity="1" d="M18.6473+23.25C17.5589+23.25+2.25+23.25+2.25+23.25C1.85218+23.25+1.47064+23.092+1.18934+22.8107C0.908035+22.5294+0.75+22.1478+0.75+21.75L0.75+2.25C0.75+1.85218+0.908035+1.47064+1.18934+1.18934C1.47064+0.908035+1.85218+0.75+2.25+0.75L12.879+0.75C13.2765+0.750085+13.6578+0.907982+13.939+1.189L19.811+7.061C20.092+7.3422+20.2499+7.72345+20.25+8.121C20.25+8.121+20.25+20.6109+20.25+21.4644C20.25+22.3179+19.7356+23.25+18.6473+23.25Z" stroke-width="1.5" stroke="#212b3d" stroke-linecap="round" stroke-linejoin="round" fill="none"/>
<path stroke="#212b3d" fill="none" stroke-width="1.5" d="M20.25+8.25L14.25+8.25C13.8522+8.25+13.4706+8.09196+13.1893+7.81066C12.908+7.52936+12.75+7.14782+12.75+6.75L12.75+0.75" opacity="1" stroke-linecap="round" stroke-linejoin="round"/>
<path fill="none" d="M0+0L24+0L24+0L24+24L24+24L0+24L0+24L0+0L0+0Z" opacity="1"/>
</g>
</svg>
