<svg width="24" height="24" viewBox="0 0 24 24" fill="none" xmlns="http://www.w3.org/2000/svg">

<path d="M3.75098 23.2539H2.25098C1.85315 23.2539 1.47162 23.0959 1.19032 22.8146C0.909012 22.5333 0.750977 22.1517 0.750977 21.7539V2.25391C0.750977 1.85608 0.909012 1.47455 1.19032 1.19325C1.47162 0.911942 1.85315 0.753906 2.25098 0.753906H12.88C13.077 0.753817 13.2721 0.792541 13.4541 0.867865C13.6362 0.94319 13.8016 1.05364 13.941 1.19291L19.812 7.06391C19.9512 7.20326 20.0617 7.36869 20.137 7.55074C20.2123 7.73279 20.2511 7.92789 20.251 8.12491V12.7539" stroke="#212B3D" stroke-width="1.5" stroke-linecap="round" stroke-linejoin="round"/>
<path d="M20.251 8.25391H14.251C13.8532 8.25391 13.4716 8.09587 13.1903 7.81457C12.909 7.53326 12.751 7.15173 12.751 6.75391V0.753906" stroke="#212B3D" stroke-width="1.5" stroke-linecap="round" stroke-linejoin="round"/>
<path d="M6.75098 15.7539L9.75098 23.2539" stroke="#212B3D" stroke-width="1.5" stroke-linecap="round" stroke-linejoin="round"/>
<path d="M9.75098 15.7539L6.75098 23.2539" stroke="#212B3D" stroke-width="1.5" stroke-linecap="round" stroke-linejoin="round"/>
<path d="M20.251 15.7539V21.7539C20.251 22.1517 20.409 22.5333 20.6903 22.8146C20.9716 23.0959 21.3532 23.2539 21.751 23.2539H23.251" stroke="#212B3D" stroke-width="1.5" stroke-linecap="round" stroke-linejoin="round"/>
<path d="M17.251 23.2539V15.7539L15.001 19.5039L12.751 15.7539V23.2539" stroke="#212B3D" stroke-width="1.5" stroke-linecap="round" stroke-linejoin="round"/>






</svg>
