<svg width="24" height="24" viewBox="0 0 24 24" fill="none" xmlns="http://www.w3.org/2000/svg">
<g clip-path="url(#clip0_608_11435)">
<path d="M11.249 15.7481H13.141C13.264 15.7474 13.3852 15.777 13.494 15.8342C13.6028 15.8915 13.6958 15.9746 13.765 16.0762C13.8341 16.1778 13.8772 16.2949 13.8905 16.4171C13.9037 16.5393 13.8868 16.6629 13.841 16.7771L11.66 22.2201C11.6142 22.3341 11.5972 22.4577 11.6105 22.5798C11.6237 22.702 11.6668 22.8191 11.736 22.9206C11.8052 23.0222 11.8983 23.1052 12.0071 23.1623C12.1159 23.2194 12.2371 23.2489 12.36 23.2481H14.252" stroke="#212B3D" stroke-width="1.5" stroke-linecap="round" stroke-linejoin="round"/>
<path d="M17.249 23.248V15.748" stroke="#212B3D" stroke-width="1.5" stroke-linecap="round" stroke-linejoin="round"/>
<path d="M20.249 23.248V15.748" stroke="#212B3D" stroke-width="1.5" stroke-linecap="round" stroke-linejoin="round"/>
<path d="M20.249 15.748H21C21.5968 15.748 22.1691 15.9851 22.591 16.4071C23.013 16.829 23.25 17.4013 23.25 17.998C23.25 18.5948 23.013 19.1671 22.591 19.589C22.1691 20.011 21.5968 20.248 21 20.248H20.25" stroke="#212B3D" stroke-width="1.5" stroke-linecap="round" stroke-linejoin="round"/>
<path d="M8.24902 23.248H2.24902C1.8512 23.248 1.46967 23.09 1.18836 22.8087C0.907059 22.5274 0.749023 22.1459 0.749023 21.748V2.24805C0.749023 1.85022 0.907059 1.46869 1.18836 1.18739C1.46967 0.906082 1.8512 0.748047 2.24902 0.748047H12.877C13.074 0.747958 13.2691 0.786681 13.4512 0.862006C13.6332 0.93733 13.7987 1.04778 13.938 1.18705L19.809 7.05905C20.0904 7.34008 20.2487 7.72136 20.249 8.11905V12.748" stroke="#212B3D" stroke-width="1.5" stroke-linecap="round" stroke-linejoin="round"/>
<path d="M20.249 8.24805H14.249C13.8512 8.24805 13.4697 8.09001 13.1884 7.80871C12.9071 7.5274 12.749 7.14587 12.749 6.74805V0.748047" stroke="#212B3D" stroke-width="1.5" stroke-linecap="round" stroke-linejoin="round"/>
</g>
<defs>
<clipPath id="clip0_608_11435">
<rect width="24" height="24" fill="white"/>
</clipPath>
</defs>
</svg>
