<svg width="24" height="24" viewBox="0 0 24 24" fill="none" xmlns="http://www.w3.org/2000/svg">

<path d="M5.24597 23.248H2.24597C1.84815 23.248 1.46662 23.09 1.18531 22.8087C0.904007 22.5274 0.745972 22.1459 0.745972 21.748V2.24805C0.745972 1.85022 0.904007 1.46869 1.18531 1.18739C1.46662 0.906082 1.84815 0.748047 2.24597 0.748047H12.875C13.0721 0.748089 13.2672 0.78697 13.4493 0.862467C13.6313 0.937965 13.7967 1.0486 13.936 1.18805L19.807 7.05905C19.9462 7.1984 20.0567 7.36383 20.132 7.54588C20.2073 7.72793 20.2461 7.92303 20.246 8.12005V12.748" stroke="#212B3D" stroke-width="2" stroke-linecap="round" stroke-linejoin="round"/>
<path d="M20.246 8.24805H14.246C13.8481 8.24805 13.4666 8.09001 13.1853 7.80871C12.904 7.5274 12.746 7.14587 12.746 6.74805V0.748047" stroke="#212B3D" stroke-width="2" stroke-linecap="round" stroke-linejoin="round"/>
<path d="M8.24597 23.248V15.748" stroke="#212B3D" stroke-width="2" stroke-linecap="round" stroke-linejoin="round"/>
<path d="M8.24597 15.748H8.99997C9.59671 15.748 10.169 15.9851 10.591 16.4071C11.0129 16.829 11.25 17.4013 11.25 17.998C11.25 18.5948 11.0129 19.1671 10.591 19.589C10.169 20.011 9.59671 20.248 8.99997 20.248H8.24997" stroke="#212B3D" stroke-width="2" stroke-linecap="round" stroke-linejoin="round"/>
<path d="M14.246 23.248C15.0416 23.248 15.8047 22.932 16.3673 22.3694C16.9299 21.8068 17.246 21.0437 17.246 20.248V18.748C17.246 17.9524 16.9299 17.1893 16.3673 16.6267C15.8047 16.0641 15.0416 15.748 14.246 15.748V23.248Z" stroke="#212B3D" stroke-width="2" stroke-linecap="round" stroke-linejoin="round"/>
<path d="M20.246 23.248V17.248C20.246 16.8502 20.404 16.4687 20.6853 16.1874C20.9666 15.9061 21.3481 15.748 21.746 15.748H23.246" stroke="#212B3D" stroke-width="2" stroke-linecap="round" stroke-linejoin="round"/>
<path d="M20.246 20.248H22.496" stroke="#212B3D" stroke-width="2" stroke-linecap="round" stroke-linejoin="round"/>






</svg>
