<svg width="24" height="24" viewBox="0 0 24 24" fill="none" xmlns="http://www.w3.org/2000/svg">
<path fill-rule="evenodd" clip-rule="evenodd" d="M12.75 5.25C12.75 4.83579 13.0858 4.5 13.5 4.5H23.25C23.6642 4.5 24 4.83579 24 5.25C24 5.66421 23.6642 6 23.25 6H13.5C13.0858 6 12.75 5.66421 12.75 5.25Z" fill="black"/>
<path fill-rule="evenodd" clip-rule="evenodd" d="M12.75 0.750047C12.75 0.335833 13.0858 4.68493e-05 13.5 4.68493e-05H23.25C23.6642 4.68493e-05 24 0.335833 24 0.750047C24 1.16426 23.6642 1.50005 23.25 1.50005H13.5C13.0858 1.50005 12.75 1.16426 12.75 0.750047Z" fill="black"/>
<path fill-rule="evenodd" clip-rule="evenodd" d="M12.75 9.75C12.75 9.33579 13.0858 9 13.5 9H23.25C23.6642 9 24 9.33579 24 9.75C24 10.1642 23.6642 10.5 23.25 10.5H13.5C13.0858 10.5 12.75 10.1642 12.75 9.75Z" fill="black"/>
<path fill-rule="evenodd" clip-rule="evenodd" d="M0 14.25C0 13.8358 0.335786 13.5 0.75 13.5H23.25C23.6642 13.5 24 13.8358 24 14.25C24 14.6642 23.6642 15 23.25 15H0.75C0.335786 15 0 14.6642 0 14.25Z" fill="black"/>
<path fill-rule="evenodd" clip-rule="evenodd" d="M0 18.75C0 18.3358 0.335786 18 0.75 18H23.25C23.6642 18 24 18.3358 24 18.75C24 19.1642 23.6642 19.5 23.25 19.5H0.75C0.335786 19.5 0 19.1642 0 18.75Z" fill="black"/>
<path fill-rule="evenodd" clip-rule="evenodd" d="M0 23.25C0 22.8358 0.335786 22.5 0.75 22.5H17.25C17.6642 22.5 18 22.8358 18 23.25C18 23.6642 17.6642 24 17.25 24H0.75C0.335786 24 0 23.6642 0 23.25Z" fill="black"/>
<path fill-rule="evenodd" clip-rule="evenodd" d="M0 0.75C0 0.335786 0.335786 0 0.75 0H9.75C10.1642 0 10.5 0.335786 10.5 0.75V9.75C10.5 10.1642 10.1642 10.5 9.75 10.5H0.75C0.335786 10.5 0 10.1642 0 9.75V0.75ZM1.5 1.5V9H9V1.5H1.5Z" fill="black"/>
</svg>
