<svg width="24" height="24" viewBox="0 0 24 24" fill="none" xmlns="http://www.w3.org/2000/svg">
<g clip-path="url(#clip0_460_514)">
<path d="M13.964 19.367L17.786 15.546C18.0526 15.2789 18.4145 15.1287 18.7919 15.1284C19.1693 15.1282 19.5314 15.2778 19.7985 15.5445C20.0655 15.8112 20.2157 16.173 20.216 16.5504C20.2163 16.9278 20.0666 17.2899 19.8 17.557L15.358 22C15.0953 22.2706 14.7814 22.4862 14.4345 22.6344C14.0877 22.7826 13.7149 22.8603 13.3378 22.8631C12.9606 22.8659 12.5867 22.7936 12.2378 22.6506C11.8888 22.5076 11.5718 22.2966 11.3051 22.0299C11.0384 21.7632 10.8274 21.4462 10.6844 21.0972C10.5413 20.7482 10.4691 20.3743 10.4719 19.9972C10.4747 19.62 10.5524 19.2472 10.7006 18.9004C10.8487 18.5536 11.0644 18.2397 11.335 17.977L16.2 13.1C17.0003 12.2997 18.0857 11.8501 19.2175 11.8501C19.7779 11.8501 20.3328 11.9605 20.8505 12.1749C21.3683 12.3894 21.8387 12.7037 22.235 13.1C22.6312 13.4963 22.9456 13.9667 23.16 14.4844C23.3745 15.0022 23.4849 15.5571 23.4849 16.1175C23.4849 16.6779 23.3745 17.2328 23.16 17.7505C22.9456 18.2683 22.6312 18.7387 22.235 19.135L17.987 23.39" stroke="#212B3D" stroke-width="1.5" stroke-linecap="round" stroke-linejoin="round"/>
<path d="M8.51001 23.5H1.51001C1.24479 23.5 0.990439 23.3946 0.802903 23.2071C0.615367 23.0196 0.51001 22.7652 0.51001 22.5V1.5C0.51001 1.23478 0.615367 0.98043 0.802903 0.792893C0.990439 0.605357 1.24479 0.5 1.51001 0.5H14.8C15.0652 0.500057 15.3195 0.605451 15.507 0.793L19.217 4.5C19.4046 4.68749 19.51 4.9418 19.51 5.207V9" stroke="#212B3D" stroke-width="1.5" stroke-linecap="round" stroke-linejoin="round"/>
<path d="M9.01001 17H5.01001C4.74479 17 4.49044 16.8946 4.3029 16.7071C4.11537 16.5196 4.01001 16.2652 4.01001 16V10C4.01001 9.73478 4.11537 9.48043 4.3029 9.29289C4.49044 9.10536 4.74479 9 5.01001 9H7.01001L7.73301 7.553C7.816 7.38692 7.94359 7.24722 8.10148 7.14955C8.25938 7.05188 8.44135 7.0001 8.62701 7H11.391C11.5768 6.99991 11.759 7.05161 11.9171 7.14929C12.0752 7.24697 12.2029 7.38677 12.286 7.553L13.01 9H15.01C15.2752 9 15.5296 9.10536 15.7171 9.29289C15.9047 9.48043 16.01 9.73478 16.01 10V10.5" stroke="#212B3D" stroke-width="1.5" stroke-linecap="round" stroke-linejoin="round"/>
<path d="M10.01 14.5C11.1146 14.5 12.01 13.6046 12.01 12.5C12.01 11.3954 11.1146 10.5 10.01 10.5C8.90544 10.5 8.01001 11.3954 8.01001 12.5C8.01001 13.6046 8.90544 14.5 10.01 14.5Z" stroke="#212B3D" stroke-width="1.5" stroke-linecap="round" stroke-linejoin="round"/>
</g>
<defs>
<clipPath id="clip0_460_514">
<rect width="24" height="24" fill="white"/>
</clipPath>
</defs>
</svg>
