<svg width="24" height="24" viewBox="0 0 24 24" fill="none" xmlns="http://www.w3.org/2000/svg">

<path d="M8.23998 18.5H3.50598C2.71033 18.5 1.94727 18.1839 1.38466 17.6213C0.822052 17.0587 0.505981 16.2956 0.505981 15.5V3.5C0.505981 2.70435 0.822052 1.94129 1.38466 1.37868C1.94727 0.81607 2.71033 0.5 3.50598 0.5H15.506C16.3016 0.5 17.0647 0.81607 17.6273 1.37868C18.1899 1.94129 18.506 2.70435 18.506 3.5V9.25" stroke="#212B3D" stroke-width="1.5" stroke-linecap="round" stroke-linejoin="round"/>
<path d="M13.968 19.4769L17.79 15.6549C18.06 15.4047 18.4165 15.2689 18.7846 15.2761C19.1526 15.2832 19.5036 15.4326 19.7638 15.6931C20.024 15.9535 20.1731 16.3046 20.1798 16.6727C20.1866 17.0408 20.0504 17.3971 19.8 17.6669L15.36 22.1059C14.8238 22.6265 14.1044 22.9152 13.3572 22.9097C12.6099 22.9042 11.8948 22.6049 11.3664 22.0765C10.838 21.5481 10.5387 20.833 10.5332 20.0857C10.5277 19.3385 10.8164 18.6191 11.337 18.0829L16.208 13.2129C17.0114 12.4288 18.0916 11.993 19.2142 11.9998C20.3368 12.0067 21.4115 12.4557 22.2054 13.2495C22.9992 14.0434 23.4482 15.1181 23.4551 16.2407C23.4619 17.3634 23.0261 18.4435 22.242 19.2469L17.991 23.4999" stroke="#212B3D" stroke-width="1.5" stroke-linecap="round" stroke-linejoin="round"/>
<path d="M11.511 15.5H4.51099C4.51103 14.3994 4.87424 13.3295 5.54428 12.4564C6.21432 11.5832 7.15375 10.9555 8.21687 10.6706C9.28 10.3858 10.4074 10.4596 11.4243 10.8808C12.4411 11.302 13.2906 12.0469 13.841 13" stroke="#212B3D" stroke-width="1.5" stroke-linecap="round" stroke-linejoin="round"/>
<path d="M13.148 9.14395C12.7486 8.48833 12.5494 7.73026 12.575 6.96295V6.07095C12.575 5.66793 12.4956 5.26885 12.3414 4.8965C12.1872 4.52415 11.9611 4.18583 11.6761 3.90084C11.3911 3.61586 11.0528 3.3898 10.6805 3.23557C10.3081 3.08134 9.90904 3.00195 9.50601 3.00195C9.10299 3.00195 8.70391 3.08134 8.33156 3.23557C7.95921 3.3898 7.62089 3.61586 7.3359 3.90084C7.05092 4.18583 6.82486 4.52415 6.67063 4.8965C6.5164 5.26885 6.43701 5.66793 6.43701 6.07095V6.96295C6.46264 7.73026 6.26348 8.48833 5.86401 9.14395" stroke="#212B3D" stroke-width="1.5" stroke-linecap="round" stroke-linejoin="round"/>
<path d="M6.43695 6.5779C7.01943 6.57689 7.5949 6.45074 8.12439 6.20799C8.65388 5.96524 9.12503 5.61156 9.50595 5.1709C9.88683 5.61162 10.358 5.96533 10.8875 6.20808C11.417 6.45083 11.9925 6.57695 12.575 6.5779" stroke="#212B3D" stroke-width="1.5" stroke-linecap="round" stroke-linejoin="round"/>
<path d="M12.211 6.56104C12.1782 7.25641 11.8789 7.91246 11.3752 8.39298C10.8715 8.87351 10.2021 9.1416 9.50596 9.1416C8.80982 9.1416 8.14041 8.87351 7.63672 8.39298C7.13302 7.91246 6.83372 7.25641 6.80096 6.56104" stroke="#212B3D" stroke-width="1.5" stroke-linecap="round" stroke-linejoin="round"/>






</svg>
