<svg width="24" height="25" viewBox="0 0 24 25" fill="none" xmlns="http://www.w3.org/2000/svg">
<g clip-path="url(#clip0_14200_304379)">
<path d="M22.4769 22.25C22.4769 22.6478 22.3189 23.0294 22.0376 23.3107C21.7563 23.592 21.3748 23.75 20.9769 23.75H3.02295C2.62512 23.75 2.24359 23.592 1.96229 23.3107C1.68098 23.0294 1.52295 22.6478 1.52295 22.25V2.75C1.52295 2.35218 1.68098 1.97064 1.96229 1.68934C2.24359 1.40804 2.62512 1.25 3.02295 1.25H18.0229C18.4141 1.25004 18.7899 1.4029 19.0699 1.676L22.0249 4.559C22.1681 4.69882 22.2819 4.86587 22.3595 5.05032C22.4371 5.23476 22.4771 5.43288 22.4769 5.633V22.25Z" stroke="#212B3D" stroke-width="1.5" stroke-linecap="round" stroke-linejoin="round"/>
<path d="M8.27295 10.25C9.51559 10.25 10.5229 9.24264 10.5229 8C10.5229 6.75736 9.51559 5.75 8.27295 5.75C7.03031 5.75 6.02295 6.75736 6.02295 8C6.02295 9.24264 7.03031 10.25 8.27295 10.25Z" stroke="#212B3D" stroke-width="1.5" stroke-linecap="round" stroke-linejoin="round"/>
<path d="M18.8129 18.6997L14.8879 12.8117C14.7968 12.6745 14.6734 12.5617 14.5287 12.483C14.384 12.4044 14.2222 12.3623 14.0575 12.3604C13.8928 12.3585 13.7301 12.3969 13.5836 12.4723C13.4371 12.5476 13.3112 12.6576 13.2169 12.7927L10.5259 16.6377L8.85795 15.2997C8.74846 15.212 8.62191 15.148 8.48634 15.1118C8.35078 15.0756 8.20917 15.0681 8.07052 15.0896C7.93188 15.1112 7.79924 15.1613 7.68103 15.2369C7.56283 15.3125 7.46166 15.4119 7.38395 15.5287L5.27295 18.6997" stroke="#212B3D" stroke-width="1.5" stroke-linecap="round" stroke-linejoin="round"/>
</g>
<defs>
<clipPath id="clip0_14200_304379">
<rect width="24" height="24" fill="white" transform="translate(0 0.5)"/>
</clipPath>
</defs>
</svg>
