<svg width="24" height="24" viewBox="0 0 24 24" fill="none" xmlns="http://www.w3.org/2000/svg">

<path d="M8.23998 18.5H3.50598C2.71033 18.5 1.94727 18.1839 1.38466 17.6213C0.822052 17.0587 0.505981 16.2956 0.505981 15.5V3.5C0.505981 2.70435 0.822052 1.94129 1.38466 1.37868C1.94727 0.81607 2.71033 0.5 3.50598 0.5H15.506C16.3016 0.5 17.0647 0.81607 17.6273 1.37868C18.1899 1.94129 18.506 2.70435 18.506 3.5V9.25" stroke="#212B3D" stroke-width="2" stroke-linecap="round" stroke-linejoin="round"/>
<path d="M13.968 19.4769L17.79 15.6549C18.06 15.4047 18.4165 15.2689 18.7846 15.2761C19.1526 15.2832 19.5036 15.4326 19.7638 15.6931C20.024 15.9535 20.1731 16.3046 20.1798 16.6727C20.1866 17.0408 20.0504 17.3971 19.8 17.6669L15.36 22.1059C14.8238 22.6265 14.1044 22.9152 13.3572 22.9097C12.6099 22.9042 11.8948 22.6049 11.3664 22.0765C10.838 21.5481 10.5387 20.833 10.5332 20.0857C10.5277 19.3385 10.8164 18.6191 11.337 18.0829L16.208 13.2129C17.0114 12.4288 18.0916 11.993 19.2142 11.9998C20.3368 12.0067 21.4115 12.4557 22.2054 13.2495C22.9992 14.0434 23.4482 15.1181 23.4551 16.2407C23.4619 17.3634 23.0261 18.4435 22.242 19.2469L17.991 23.4999" stroke="#212B3D" stroke-width="2" stroke-linecap="round" stroke-linejoin="round"/>
<path d="M13.534 12.537C12.9098 11.6883 12.0336 11.0584 11.0302 10.7373C10.0269 10.4161 8.94776 10.4201 7.9468 10.7486C6.94585 11.0771 6.07424 11.7134 5.45634 12.5666C4.83844 13.4199 4.50583 14.4465 4.50598 15.5H10.531" stroke="#212B3D" stroke-width="2" stroke-linecap="round" stroke-linejoin="round"/>
<path d="M6.92096 4.47705C7.38542 4.95891 7.9423 5.34214 8.55828 5.60382C9.17426 5.86551 9.8367 6.00027 10.506 6.00005C11.1844 6.00025 11.8557 5.8621 12.479 5.59405" stroke="#212B3D" stroke-width="2" stroke-linecap="round" stroke-linejoin="round"/>
<path d="M9.50598 9C11.1628 9 12.506 7.65685 12.506 6C12.506 4.34315 11.1628 3 9.50598 3C7.84913 3 6.50598 4.34315 6.50598 6C6.50598 7.65685 7.84913 9 9.50598 9Z" stroke="#212B3D" stroke-width="2" stroke-linecap="round" stroke-linejoin="round"/>






</svg>
