<svg width="24" height="24" viewBox="0 0 24 24" fill="none" xmlns="http://www.w3.org/2000/svg">

<path d="M17.828 19.7849V14.3849C17.828 14.0078 17.9778 13.6461 18.2445 13.3794C18.5112 13.1127 18.8729 12.9629 19.25 12.9629C19.6272 12.9629 19.9889 13.1127 20.2555 13.3794C20.5222 13.6461 20.672 14.0078 20.672 14.3849V20.6639C20.6581 21.4091 20.3522 22.119 19.8203 22.6411C19.2884 23.1631 18.5728 23.4556 17.8275 23.4556C17.0822 23.4556 16.3667 23.1631 15.8348 22.6411C15.3028 22.119 14.997 21.4091 14.983 20.6639V13.7699C14.983 12.6383 15.4326 11.5529 16.2328 10.7527C17.033 9.95249 18.1184 9.50293 19.25 9.50293C20.3817 9.50293 21.467 9.95249 22.2673 10.7527C23.0675 11.5529 23.517 12.6383 23.517 13.7699V19.7849" stroke="#212B3D" stroke-width="1.5" stroke-linecap="round" stroke-linejoin="round"/>
<path d="M6.48303 11.4971C7.5876 11.4971 8.48303 10.6016 8.48303 9.49707C8.48303 8.3925 7.5876 7.49707 6.48303 7.49707C5.37846 7.49707 4.48303 8.3925 4.48303 9.49707C4.48303 10.6016 5.37846 11.4971 6.48303 11.4971Z" stroke="#212B3D" stroke-width="1.5" stroke-linecap="round" stroke-linejoin="round"/>
<path d="M12.553 13.2089L11.907 12.1749C11.8621 12.103 11.7996 12.0437 11.7254 12.0026C11.6512 11.9615 11.5678 11.9399 11.483 11.9399C11.3982 11.9399 11.3148 11.9615 11.2406 12.0026C11.1665 12.0437 11.104 12.103 11.059 12.1749L8.42003 16.3999L7.34403 14.6749C7.29909 14.603 7.23659 14.5437 7.16242 14.5026C7.08825 14.4615 7.00484 14.4399 6.92003 14.4399C6.83523 14.4399 6.75182 14.4615 6.67765 14.5026C6.60348 14.5437 6.54098 14.603 6.49603 14.6749L3.48303 19.4999H12.412" stroke="#212B3D" stroke-width="1.5" stroke-linecap="round" stroke-linejoin="round"/>
<path d="M12.553 23.5H1.48303C1.21782 23.5 0.963462 23.3946 0.775925 23.2071C0.588389 23.0196 0.483032 22.7652 0.483032 22.5V1.5C0.483032 1.23478 0.588389 0.98043 0.775925 0.792894C0.963462 0.605357 1.21782 0.5 1.48303 0.5H14.776C15.0411 0.499792 15.2954 0.604818 15.483 0.792L19.19 4.5C19.3776 4.68749 19.483 4.94181 19.483 5.207V6.497" stroke="#212B3D" stroke-width="1.5" stroke-linecap="round" stroke-linejoin="round"/>






</svg>
