<svg width="24" height="24" viewBox="0 0 24 24" fill="none" xmlns="http://www.w3.org/2000/svg">

<path d="M17.811 19.782V14.382C17.811 14.1953 17.8478 14.0103 17.9193 13.8378C17.9907 13.6653 18.0955 13.5085 18.2275 13.3765C18.3596 13.2444 18.5163 13.1397 18.6888 13.0682C18.8614 12.9968 19.0463 12.96 19.233 12.96C19.4198 12.96 19.6047 12.9968 19.7772 13.0682C19.9497 13.1397 20.1065 13.2444 20.2385 13.3765C20.3706 13.5085 20.4753 13.6653 20.5468 13.8378C20.6182 14.0103 20.655 14.1953 20.655 14.382V20.66C20.6621 21.038 20.5938 21.4137 20.454 21.765C20.3142 22.1163 20.1058 22.4363 19.841 22.7061C19.5762 22.976 19.2602 23.1903 18.9116 23.3366C18.5629 23.483 18.1886 23.5583 17.8105 23.5583C17.4324 23.5583 17.0581 23.483 16.7095 23.3366C16.3608 23.1903 16.0449 22.976 15.78 22.7061C15.5152 22.4363 15.3068 22.1163 15.167 21.765C15.0273 21.4137 14.9589 21.038 14.966 20.66V13.767C14.966 13.2066 15.0764 12.6518 15.2908 12.1341C15.5053 11.6164 15.8196 11.146 16.2158 10.7498C16.612 10.3535 17.0824 10.0392 17.6001 9.82481C18.1178 9.61037 18.6727 9.5 19.233 9.5C19.7934 9.5 20.3482 9.61037 20.8659 9.82481C21.3836 10.0392 21.854 10.3535 22.2502 10.7498C22.6465 11.146 22.9608 11.6164 23.1752 12.1341C23.3896 12.6518 23.5 13.2066 23.5 13.767V19.782" stroke="#212B3D" stroke-width="1.5" stroke-linecap="round" stroke-linejoin="round"/>
<path d="M12 20H2C1.60218 20 1.22064 19.842 0.93934 19.5607C0.658035 19.2794 0.5 18.8978 0.5 18.5V2C0.5 1.60218 0.658035 1.22064 0.93934 0.93934C1.22064 0.658035 1.60218 0.5 2 0.5H12.629C13.0265 0.500085 13.4078 0.657982 13.689 0.939L16.561 3.811C16.842 4.0922 16.9999 4.47345 17 4.871V7" stroke="#212B3D" stroke-width="1.5" stroke-linecap="round" stroke-linejoin="round"/>






</svg>
