<svg width="24" height="24" viewBox="0 0 24 24" fill="none" xmlns="http://www.w3.org/2000/svg">

<path d="M1.5 9.7439L12 0.743896L22.5 9.7439" stroke="#212B3D" stroke-width="2" stroke-linecap="round" stroke-linejoin="round"/>
<path d="M12 5.2439L3.377 12.6099C3.15289 12.818 3.01782 13.1046 3 13.4099V22.2649C3.00079 22.524 3.10408 22.7723 3.28732 22.9556C3.47056 23.1388 3.71886 23.2421 3.978 23.2429H9.75V16.2329C9.75026 16.1032 9.80184 15.9789 9.89346 15.8871C9.98508 15.7953 10.1093 15.7434 10.239 15.7429H13.761C13.8907 15.7434 14.0149 15.7953 14.1065 15.8871C14.1982 15.9789 14.2497 16.1032 14.25 16.2329V23.2429H20.022C20.281 23.2421 20.5291 23.139 20.7123 22.9559C20.8955 22.7729 20.9989 22.5249 21 22.2659V13.4109C20.9822 13.1056 20.8471 12.819 20.623 12.6109L12 5.2439Z" stroke="#212B3D" stroke-width="2" stroke-linecap="round" stroke-linejoin="round"/>






</svg>
