<svg width="24" height="24" viewBox="0 0 24 24" fill="none" xmlns="http://www.w3.org/2000/svg">
<g clip-path="url(#clip0_315_1135)">
<path d="M3.75305 13.9441V22.1941H9.75305V16.1941C9.75305 15.7963 9.91109 15.4147 10.1924 15.1334C10.4737 14.8521 10.8552 14.6941 11.2531 14.6941H12.7531C13.1509 14.6941 13.5324 14.8521 13.8137 15.1334C14.095 15.4147 14.2531 15.7963 14.2531 16.1941V22.1941H20.2531V13.9441" stroke="#212B3D" stroke-width="1.5" stroke-linecap="round" stroke-linejoin="round"/>
<path d="M0.753052 12.4441L10.9421 2.25511C11.0814 2.11572 11.2468 2.00514 11.4288 1.9297C11.6109 1.85426 11.806 1.81543 12.0031 1.81543C12.2001 1.81543 12.3952 1.85426 12.5773 1.9297C12.7594 2.00514 12.9248 2.11572 13.0641 2.25511L23.2531 12.4441" stroke="#212B3D" stroke-width="1.5" stroke-linecap="round" stroke-linejoin="round"/>
</g>
<defs>
<clipPath id="clip0_315_1135">
<rect width="24" height="24" fill="white"/>
</clipPath>
</defs>
</svg>
