<svg width="24" height="24" viewBox="0 0 24 24" fill="none" xmlns="http://www.w3.org/2000/svg">
<path d="M10.082 9.5C9.6636 9.02938 9.15049 8.65248 8.57627 8.39398C8.00206 8.13548 7.37971 8.00122 6.75 8H5.25C4.05653 8 2.91193 8.47411 2.06802 9.31802C1.22411 10.1619 0.75 11.3065 0.75 12.5C0.75 13.6935 1.22411 14.8381 2.06802 15.682C2.91193 16.5259 4.05653 17 5.25 17H6.75C7.37967 16.9985 8.00194 16.8642 8.57612 16.6057C9.15029 16.3472 9.66344 15.9704 10.082 15.5" stroke="#212B3D" stroke-width="1.5" stroke-linecap="round" stroke-linejoin="round"/>
<path d="M13.918 9.5C14.3363 9.02933 14.8494 8.65239 15.4237 8.39389C15.9979 8.13539 16.6202 8.00116 17.25 8H18.75C19.9434 8 21.088 8.47411 21.9319 9.31802C22.7759 10.1619 23.25 11.3065 23.25 12.5C23.25 13.6935 22.7759 14.8381 21.9319 15.682C21.088 16.5259 19.9434 17 18.75 17H17.25C16.6203 16.9987 15.998 16.8643 15.4238 16.6058C14.8496 16.3474 14.3364 15.9705 13.918 15.5" stroke="#212B3D" stroke-width="1.5" stroke-linecap="round" stroke-linejoin="round"/>
<path d="M6.75 12.499H17.25" stroke="#212B3D" stroke-width="1.5" stroke-linecap="round" stroke-linejoin="round"/>
</svg>
