<svg width="17" height="16" viewBox="0 0 17 16" fill="none" xmlns="http://www.w3.org/2000/svg">
<path fill-rule="evenodd" clip-rule="evenodd" d="M9.39187 0.526772C9.04843 0.601268 8.76734 0.765236 8.54472 1.02098C8.50325 1.0686 7.74005 2.14093 6.84872 3.40396C5.95738 4.66696 5.19829 5.73352 5.16186 5.77408C5.08544 5.85912 4.95442 5.94239 4.82339 5.98917C4.73882 6.01935 4.68605 6.02221 4.10656 6.02805L3.48101 6.03436L3.4707 5.90109C3.43797 5.47765 3.20098 5.12228 2.8281 4.93746C2.59837 4.82359 2.60054 4.82381 1.7001 4.82381H0.892096L0.80152 4.86829C0.701873 4.91722 0.617025 5.00149 0.561057 5.10709C0.507809 5.20759 0.508001 5.43279 0.561441 5.53581C0.614001 5.63714 0.714865 5.73559 0.810513 5.77888C0.891088 5.81535 0.901408 5.81591 1.6415 5.82381L2.3909 5.83181L2.4295 5.87671L2.4681 5.9216V9.88781V13.854L2.4295 13.8989L2.39091 13.9438L1.6415 13.9518C0.918656 13.9595 0.889472 13.961 0.818145 13.994C0.716625 14.0409 0.617889 14.1341 0.567009 14.2308C0.530017 14.3011 0.524385 14.3308 0.524385 14.4558C0.524385 14.5808 0.530017 14.6105 0.567009 14.6808C0.617889 14.7776 0.716625 14.8707 0.818145 14.9176C0.889728 14.9507 0.915585 14.952 1.6281 14.9568C2.3961 14.9621 2.53018 14.9543 2.70402 14.8945C2.93576 14.8147 3.18544 14.6074 3.31632 14.3859C3.4187 14.2127 3.46114 14.052 3.47174 13.7972L3.48053 13.5865L3.78632 13.746C5.66918 14.7282 7.2081 15.1971 9.2121 15.3993C10.1894 15.4979 11.7122 15.5341 12.0609 15.4672C13.2842 15.2322 14.4532 14.1065 15.379 12.2718C15.9281 11.1836 16.2896 10.0454 16.4384 8.93581C16.4876 8.56866 16.4922 7.8265 16.4471 7.52781C16.3712 7.02546 16.2357 6.62216 16.0519 6.35154C15.8503 6.05468 15.5265 5.83527 15.1668 5.75186C14.957 5.7032 14.6878 5.69608 13.051 5.69596C11.5813 5.69583 11.3924 5.69301 11.315 5.67002C11.0461 5.59024 10.8344 5.38104 10.7537 5.11548C10.6891 4.90271 10.6981 4.85338 11.0345 3.58381C11.1989 2.96341 11.3443 2.38418 11.3576 2.29663C11.4264 1.843 11.267 1.36655 10.9282 1.01368C10.7136 0.790196 10.4333 0.62794 10.1161 0.5437C9.92274 0.49234 9.58678 0.4845 9.39187 0.526772ZM9.5561 1.51788C9.4695 1.54626 9.38378 1.60018 9.32 1.66642C9.28325 1.70458 8.52962 2.76119 7.64525 4.01444C6.76088 5.26767 5.99203 6.34735 5.9367 6.41372C5.69842 6.69952 5.30398 6.92288 4.9001 7.00069C4.80762 7.0185 4.63056 7.02381 4.1281 7.02381H3.4761L3.47656 9.73181L3.47702 12.4398L3.80056 12.6155C5.49966 13.538 6.72448 13.9921 8.20158 14.2472C9.16424 14.4134 10.0268 14.4833 11.1481 14.4861C11.9432 14.488 11.946 14.4877 12.2121 14.3793C12.5414 14.2453 12.8387 14.0322 13.1971 13.6732C13.5393 13.3304 13.781 13.0239 14.0559 12.5838C14.9694 11.1219 15.5484 9.22741 15.474 7.94381C15.4414 7.38168 15.3116 6.96092 15.1274 6.82088C14.9775 6.7069 15.094 6.7136 13.0761 6.70285C11.7865 6.69599 11.2376 6.68781 11.1824 6.67466C10.7932 6.58191 10.5122 6.42989 10.2579 6.17444C9.90339 5.81844 9.71512 5.36805 9.71667 4.87981C9.71698 4.78741 9.72706 4.65781 9.73909 4.59181C9.75114 4.52581 9.89496 3.96476 10.0587 3.34501C10.2225 2.72528 10.3609 2.18056 10.3663 2.13455C10.3918 1.91799 10.2468 1.69026 10.0086 1.57252C9.90008 1.51888 9.87426 1.51272 9.74226 1.50895C9.66187 1.50666 9.5781 1.51068 9.5561 1.51788Z" fill="#1A1A1E"/>
</svg>
