<svg width="24" height="24" viewBox="0 0 24 24" fill="none" xmlns="http://www.w3.org/2000/svg">
<g clip-path="url(#clip0_471_1865)">
<path d="M20.25 19.511L21.75 22.511L23.25 19.511V9.76099C23.25 9.36316 23.092 8.98163 22.8107 8.70033C22.5294 8.41902 22.1478 8.26099 21.75 8.26099C21.3522 8.26099 20.9706 8.41902 20.6893 8.70033C20.408 8.98163 20.25 9.36316 20.25 9.76099V19.511Z" stroke="#212B3D" stroke-width="1.5" stroke-linecap="round" stroke-linejoin="round"/>
<path d="M12.75 5.26099H15.75C16.1478 5.26099 16.5294 5.41902 16.8107 5.70033C17.092 5.98163 17.25 6.36316 17.25 6.76099V21.011C17.25 21.4088 17.092 21.7903 16.8107 22.0716C16.5294 22.353 16.1478 22.511 15.75 22.511H2.25C1.85218 22.511 1.47064 22.353 1.18934 22.0716C0.908035 21.7903 0.75 21.4088 0.75 21.011V6.76099C0.75 6.36316 0.908035 5.98163 1.18934 5.70033C1.47064 5.41902 1.85218 5.26099 2.25 5.26099H5.25C5.25 4.26642 5.64509 3.3126 6.34835 2.60934C7.05161 1.90607 8.00544 1.51099 9 1.51099C9.99456 1.51099 10.9484 1.90607 11.6517 2.60934C12.3549 3.3126 12.75 4.26642 12.75 5.26099V5.26099Z" stroke="#212B3D" stroke-width="1.5" stroke-linecap="round" stroke-linejoin="round"/>
<path d="M9 4.51099C9.07417 4.51099 9.14667 4.53298 9.20834 4.57418C9.27001 4.61539 9.31807 4.67396 9.34645 4.74248C9.37484 4.811 9.38226 4.8864 9.36779 4.95915C9.35332 5.03189 9.31761 5.09871 9.26517 5.15115C9.21272 5.2036 9.1459 5.23931 9.07316 5.25378C9.00042 5.26825 8.92502 5.26082 8.85649 5.23244C8.78797 5.20406 8.7294 5.15599 8.6882 5.09433C8.64699 5.03266 8.625 4.96015 8.625 4.88599C8.625 4.78653 8.66451 4.69115 8.73483 4.62082C8.80516 4.55049 8.90054 4.51099 9 4.51099" stroke="#212B3D" stroke-width="1.5" stroke-linecap="round" stroke-linejoin="round"/>
</g>
<defs>
<clipPath id="clip0_471_1865">
<rect width="24" height="24" fill="white"/>
</clipPath>
</defs>
</svg>
