<svg width="11" height="15" viewBox="0 0 11 15" fill="none" xmlns="http://www.w3.org/2000/svg">
  <path
    d="M10.0814 5.2832C10.0814 7.77843 8.34754 9.21373 7.04821 10.6035C6.27026 11.4358 5.64778 14.1504 5.64778 14.1504C5.64778 14.1504 5.02708 11.4376 4.2509 10.6077C2.95038 9.21846 1.21419 7.78079 1.21419 5.2832C1.21419 4.10734 1.6813 2.97964 2.51276 2.14818C3.34422 1.31672 4.47192 0.849609 5.64778 0.849609C6.82364 0.849609 7.95135 1.31672 8.78281 2.14818C9.61427 2.97964 10.0814 4.10734 10.0814 5.2832Z"
    stroke="black" stroke-width="0.8125" stroke-linecap="round" stroke-linejoin="round"/>
  <path
    d="M3.87434 5.2832C3.87434 5.75355 4.06119 6.20463 4.39377 6.53721C4.72636 6.8698 5.17744 7.05664 5.64778 7.05664C6.11813 7.05664 6.56921 6.8698 6.90179 6.53721C7.23437 6.20463 7.42122 5.75355 7.42122 5.2832C7.42122 4.81286 7.23437 4.36178 6.90179 4.02919C6.56921 3.69661 6.11813 3.50977 5.64778 3.50977C5.17744 3.50977 4.72636 3.69661 4.39377 4.02919C4.06119 4.36178 3.87434 4.81286 3.87434 5.2832Z"
    stroke="black" stroke-width="0.8125" stroke-linecap="round" stroke-linejoin="round"/>
</svg>
