<svg width="24" height="24" viewBox="0 0 24 24" fill="none" xmlns="http://www.w3.org/2000/svg">
<path d="M12 21.8441L2.41202 11.8441C1.56935 11.0021 1.01318 9.91615 0.82238 8.74029C0.631579 7.56443 0.815836 6.35834 1.34902 5.29309V5.29309C1.75108 4.48921 2.33839 3.79237 3.06257 3.25998C3.78674 2.72759 4.62706 2.37489 5.51427 2.23094C6.40149 2.08699 7.31021 2.15592 8.16557 2.43204C9.02092 2.70815 9.79843 3.18356 10.434 3.81909L12 5.38409L13.566 3.81909C14.2016 3.18356 14.9791 2.70815 15.8345 2.43204C16.6898 2.15592 17.5985 2.08699 18.4858 2.23094C19.373 2.37489 20.2133 2.72759 20.9375 3.25998C21.6617 3.79237 22.249 4.48921 22.651 5.29309C23.1835 6.35793 23.3674 7.5633 23.1768 8.73849C22.9862 9.91368 22.4307 10.9991 21.589 11.8411L12 21.8441Z" stroke="#212B3D" stroke-width="1.5" stroke-linecap="round" stroke-linejoin="round"/>
</svg>
