<svg width="24" height="24" viewBox="0 0 24 24" fill="none" xmlns="http://www.w3.org/2000/svg">
<path d="M11.247 17.25C11.247 18.8413 11.8792 20.3674 13.0044 21.4926C14.1296 22.6179 15.6557 23.25 17.247 23.25C18.8383 23.25 20.3644 22.6179 21.4897 21.4926C22.6149 20.3674 23.247 18.8413 23.247 17.25C23.247 15.6587 22.6149 14.1326 21.4897 13.0074C20.3644 11.8821 18.8383 11.25 17.247 11.25C15.6557 11.25 14.1296 11.8821 13.0044 13.0074C11.8792 14.1326 11.247 15.6587 11.247 17.25Z" stroke="#212B3D" stroke-width="1.5" stroke-linecap="round" stroke-linejoin="round"/>
<path d="M19.497 15L14.997 19.5" stroke="#212B3D" stroke-width="1.5" stroke-linecap="round" stroke-linejoin="round"/>
<path d="M14.997 15L19.497 19.5" stroke="#212B3D" stroke-width="1.5" stroke-linecap="round" stroke-linejoin="round"/>
<path d="M8.22299 16.4999L2.41199 10.4349C1.56989 9.59295 1.01408 8.50739 0.823291 7.33198C0.632506 6.15658 0.816425 4.95094 1.34899 3.88588V3.88588C1.75098 3.08191 2.33829 2.38499 3.06251 1.85256C3.78673 1.32014 4.62712 0.967463 5.5144 0.823603C6.40168 0.679743 7.31045 0.74882 8.1658 1.02514C9.02114 1.30146 9.79857 1.77711 10.434 2.41288L12 3.97788L13.566 2.41288C14.2014 1.77711 14.9788 1.30146 15.8342 1.02514C16.6895 0.74882 17.5983 0.679743 18.4856 0.823603C19.3729 0.967463 20.2133 1.32014 20.9375 1.85256C21.6617 2.38499 22.249 3.08191 22.651 3.88588V3.88588C23.048 4.68039 23.2531 5.55696 23.2498 6.44514C23.2465 7.33333 23.0349 8.20835 22.632 8.99988" stroke="#212B3D" stroke-width="1.5" stroke-linecap="round" stroke-linejoin="round"/>
</svg>
