<svg width="12" height="12" viewBox="0 0 12 12" fill="none" xmlns="http://www.w3.org/2000/svg">
  <path
    d="M7.5 1.875C7.5 2.27282 7.65804 2.65436 7.93934 2.93566C8.22064 3.21696 8.60218 3.375 9 3.375C9.39782 3.375 9.77936 3.21696 10.0607 2.93566C10.342 2.65436 10.5 2.27282 10.5 1.875C10.5 1.47718 10.342 1.09564 10.0607 0.81434C9.77936 0.533035 9.39782 0.375 9 0.375C8.60218 0.375 8.22064 0.533035 7.93934 0.81434C7.65804 1.09564 7.5 1.47718 7.5 1.875V1.875Z"
    stroke="#495465" stroke-width="1.2" stroke-linecap="round" stroke-linejoin="round"/>
  <path
    d="M7.5 7.875L7.875 11.625H10.125L10.5 7.875H11.625V6.75C11.6245 6.17625 11.4361 5.61846 11.0886 5.16196C10.741 4.70546 10.2535 4.3754 9.70056 4.22228C9.14763 4.06916 8.55975 4.10142 8.02689 4.31411C7.49403 4.5268 7.04552 4.90822 6.75 5.4"
    stroke="#495465" stroke-width="1.2" stroke-linecap="round" stroke-linejoin="round"/>
  <path
    d="M4.5 11.625L4.875 9.375H6.375L5.25 6C4.875 4.875 4.4105 4.125 3.375 4.125C2.3395 4.125 1.875 4.875 1.5 6L0.375 9.375H1.875L2.25 11.625H4.5Z"
    stroke="#495465" stroke-width="1.2" stroke-linecap="round" stroke-linejoin="round"/>
  <path
    d="M1.875 1.875C1.875 2.27282 2.03304 2.65436 2.31434 2.93566C2.59564 3.21696 2.97718 3.375 3.375 3.375C3.77282 3.375 4.15436 3.21696 4.43566 2.93566C4.71696 2.65436 4.875 2.27282 4.875 1.875C4.875 1.47718 4.71696 1.09564 4.43566 0.81434C4.15436 0.533035 3.77282 0.375 3.375 0.375C2.97718 0.375 2.59564 0.533035 2.31434 0.81434C2.03304 1.09564 1.875 1.47718 1.875 1.875V1.875Z"
    stroke="#495465" stroke-width="1.2" stroke-linecap="round" stroke-linejoin="round"/>
</svg>
