<svg width="23" height="15" viewBox="0 0 23 15" fill="none" xmlns="http://www.w3.org/2000/svg">
  <path
    d="M3.8375 1H12.35C12.35 1 15.1875 1 15.1875 3.8375V10.9312C15.1875 10.9312 15.1875 13.7688 12.35 13.7688H3.8375C3.8375 13.7688 1 13.7687 1 10.9312V3.8375C1 3.8375 1 1 3.8375 1Z"
    stroke="black" stroke-width="1.3" stroke-linecap="round" stroke-linejoin="round"/>
  <path
    d="M18.025 10.222L21.255 11.8365C21.3632 11.8905 21.4833 11.916 21.6041 11.9105C21.7248 11.905 21.8422 11.8688 21.945 11.8052C22.0478 11.7416 22.1326 11.6528 22.1915 11.5472C22.2503 11.4416 22.2812 11.3228 22.2812 11.2019V3.56617C22.2813 3.44527 22.2505 3.32636 22.1916 3.22076C22.1328 3.11515 22.0479 3.02636 21.945 2.96284C21.8422 2.89932 21.7248 2.86318 21.604 2.85786C21.4832 2.85255 21.3631 2.87823 21.255 2.93246L18.025 4.547"
    stroke="black" stroke-width="1.3" stroke-linecap="round" stroke-linejoin="round"/>
</svg>
