<svg width="17" height="16" viewBox="0 0 17 16" fill="none" xmlns="http://www.w3.org/2000/svg">
<path fill-rule="evenodd" clip-rule="evenodd" d="M2.0378 0.504742C1.52223 0.616598 1.10652 1.03733 1.00335 1.55173C0.982105 1.65767 0.979753 2.26365 0.983625 6.63202L0.988009 11.592L1.02569 11.704C1.18179 12.1679 1.5067 12.4893 1.95875 12.6269C2.07217 12.6614 2.1046 12.6629 2.94801 12.6713L3.82001 12.68L3.82801 13.968L3.83601 15.256L3.8719 15.3137C3.9239 15.3973 3.98702 15.4565 4.06001 15.49C4.14577 15.5293 4.3138 15.5301 4.38863 15.4914C4.41908 15.4757 5.28092 14.835 6.30383 14.0677L8.16364 12.6725L11.5438 12.6682L14.924 12.6639L15.041 12.6276C15.4963 12.4864 15.8168 12.1691 15.9742 11.7038L16.012 11.592L16.0164 6.63202C16.0203 2.26365 16.0179 1.65767 15.9967 1.55173C15.8927 1.03357 15.4722 0.611158 14.9538 0.50407C14.8513 0.482902 14.0781 0.480182 8.48868 0.481286C3.14108 0.482358 2.1239 0.48607 2.0378 0.504742ZM2.13073 1.31748C2.01406 1.36553 1.93612 1.42629 1.87727 1.51514C1.77145 1.6749 1.77943 1.23948 1.78393 6.60039L1.78801 11.464L1.82951 11.552C1.88246 11.6642 1.98779 11.7696 2.10001 11.8225L2.18801 11.864L3.26001 11.872C4.4558 11.8809 4.38459 11.8739 4.50534 11.9947C4.62647 12.1158 4.6195 12.0427 4.62435 13.2438L4.62867 14.3197L6.20035 13.1406C7.06476 12.4921 7.80441 11.9432 7.84401 11.9208L7.91601 11.88L11.364 11.872L14.812 11.864L14.9 11.8225C15.0122 11.7696 15.1176 11.6642 15.1705 11.552L15.212 11.464V6.57602V1.68802L15.1696 1.59765C15.1157 1.48258 15.0174 1.38434 14.9024 1.33039L14.812 1.28802L8.51601 1.28437L2.22001 1.28071L2.13073 1.31748Z" fill="#70707B"/>
</svg>
