<svg width="24" height="24" viewBox="0 0 24 24" fill="none" xmlns="http://www.w3.org/2000/svg">
<path d="M1.723 13.0331C1.43707 13.1404 1.19071 13.3324 1.01684 13.5835C0.842967 13.8346 0.749873 14.1327 0.75 14.4381V20.0631C0.750889 20.3677 0.844455 20.6647 1.01826 20.9148C1.19206 21.1649 1.43787 21.3561 1.723 21.4631L6.223 23.1501C6.56277 23.2776 6.93723 23.2776 7.277 23.1501L11.777 21.4631C12.0621 21.3561 12.3079 21.1649 12.4817 20.9148C12.6555 20.6647 12.7491 20.3677 12.75 20.0631V14.4381C12.7501 14.1327 12.657 13.8346 12.4832 13.5835C12.3093 13.3324 12.0629 13.1404 11.777 13.0331L7.277 11.3461C6.93723 11.2186 6.56277 11.2186 6.223 11.3461L1.723 13.0331Z" stroke="#212B3D" stroke-width="2" stroke-linecap="round" stroke-linejoin="round"/>
<path d="M1.008 13.5969L6.75 15.7499L12.492 13.5969" stroke="#212B3D" stroke-width="2" stroke-linecap="round" stroke-linejoin="round"/>
<path d="M6.75 15.75V23.25" stroke="#212B3D" stroke-width="2" stroke-linecap="round" stroke-linejoin="round"/>
<path d="M22.95 3.8501L14.25 6.7501L5.54999 3.8501" stroke="#212B3D" stroke-width="2" stroke-linecap="round" stroke-linejoin="round"/>
<path d="M14.25 6.75V10.5" stroke="#212B3D" stroke-width="2" stroke-linecap="round" stroke-linejoin="round"/>
<path d="M5.25 8.25V4.75C5.25003 4.43514 5.34914 4.12827 5.53328 3.87287C5.71743 3.61747 5.97727 3.42649 6.276 3.327L13.776 0.826997C14.0836 0.724009 14.4164 0.724009 14.724 0.826997L22.224 3.327C22.5227 3.42649 22.7826 3.61747 22.9667 3.87287C23.1509 4.12827 23.25 4.43514 23.25 4.75V13.25C23.25 13.5649 23.1509 13.8717 22.9667 14.1271C22.7826 14.3825 22.5227 14.5735 22.224 14.673L15.75 16.831" stroke="#212B3D" stroke-width="2" stroke-linecap="round" stroke-linejoin="round"/>
</svg>
