<svg width="18" height="18" viewBox="0 0 18 18" fill="none" xmlns="http://www.w3.org/2000/svg">
<path fill-rule="evenodd" clip-rule="evenodd" d="M10.3113 0.993016C10.2198 0.974876 10.1255 0.978079 10.0354 1.00234L3.59139 3.14314H10.8171V1.62327C10.8172 1.52439 10.795 1.42684 10.7523 1.33824C10.7096 1.24964 10.6476 1.17238 10.5711 1.11249C10.4946 1.05261 10.4057 1.01172 10.3113 0.993016ZM11.7712 3.14314V1.62348C11.7712 1.3734 11.7151 1.12659 11.6072 0.902512C11.4992 0.678401 11.3424 0.482983 11.1489 0.331512C10.9554 0.18004 10.7305 0.0766125 10.4918 0.0293024C10.253 -0.0180079 10.0069 -0.00792104 9.77257 0.0587757C9.76606 0.0606272 9.7596 0.0626209 9.75317 0.0647547L2.05606 2.62186C1.72791 2.71781 1.43872 2.92061 1.23196 3.20001C1.02297 3.48241 0.909733 3.8275 0.909577 4.18242V15.9869C0.909541 16.237 0.965677 16.4838 1.07361 16.7079C1.18156 16.932 2.11454 16.5017 2.11454 16.5017H2.40861H2.8539H3.2667C2.61836 16.5017 2.61836 17.4832 3.2667 17.4832H12.6192C13.0376 17.4832 13.439 17.3122 13.7349 17.0078C14.0308 16.7034 14.197 16.2905 14.197 15.86L14.197 4.76628C14.197 4.33579 14.0307 3.92294 13.7348 3.61855C13.5785 3.45769 13.3256 3.33407 13.0602 3.25327C12.8234 3.18117 12.5765 3.14314 12.3792 3.14314H11.7712ZM2.11454 16.5017H12.6192C12.7846 16.5017 12.9433 16.4341 13.0603 16.3138C13.1772 16.1935 13.243 16.0302 13.243 15.86L13.3106 6.50522C13.3106 5.82772 14.197 5.82772 14.197 6.50522L14.197 4.76628C14.197 4.59609 14.197 3.49663 13.0602 4.31252C12.9432 4.19218 12.7846 4.12457 12.6191 4.12457H1.86624C1.86452 4.14389 1.86365 4.16334 1.86364 4.18287V15.9871C1.86362 16.086 1.88581 16.1835 1.92849 16.2721C1.97116 16.3607 2.03317 16.438 2.10966 16.4979C2.1113 16.4992 2.11293 16.5004 2.11454 16.5017Z" fill="#878D96"/>
<path fill-rule="evenodd" clip-rule="evenodd" d="M5.99748 7.57659C6.18394 7.57659 6.35319 7.68869 6.43035 7.86331L8.40362 12.329C8.51228 12.5749 8.40658 12.8649 8.16751 12.9767C7.92845 13.0885 7.64655 12.9797 7.53789 12.7338L7.35862 12.4417L8.11249 11.6701L7.69201 10.7186L7.1113 11.3135L5.99748 9.24772L4.45708 12.7338C4.34842 12.9797 4.06653 13.0885 3.82746 12.9767C3.5884 12.8649 3.48269 12.5749 3.59136 12.329L5.56462 7.86331C5.64178 7.68869 5.81103 7.57659 5.99748 7.57659Z" fill="#878D96"/>
<path fill-rule="evenodd" clip-rule="evenodd" d="M4.08699 11.3135C4.08699 11.0434 4.29987 10.8244 4.56248 10.8244H7.43238L6.8891 11.3641L6.62813 11.8026C6.36553 11.8026 4.56248 11.8027 4.56248 11.8027C4.29987 11.8027 4.08699 11.5837 4.08699 11.3135Z" fill="#878D96"/>
<path fill-rule="evenodd" clip-rule="evenodd" d="M9.67909 10.0665L10.1286 9.60638H11.4864C11.749 9.60638 11.9619 9.82537 11.9619 10.0955C11.9619 10.3656 11.749 10.5846 11.4864 10.5846H9.173L9.67909 10.0665Z" fill="#878D96"/>
<path fill-rule="evenodd" clip-rule="evenodd" d="M10.7778 8.94185V9.60638V9.27412V8.94185V11.3134C10.7778 11.5836 10.5649 11.8026 10.3023 11.8026C10.0397 11.8026 9.8268 11.5836 9.8268 11.3134V9.91534L10.7778 8.94185Z" fill="#878D96"/>
<path fill-rule="evenodd" clip-rule="evenodd" d="M15.484 1.62348C15.4238 1.6294 15.3825 1.64257 15.3167 1.67675C15.2715 1.70023 14.848 2.13273 7.6728 9.47528L0.076741 17.2489L0.0485588 17.3084C-0.0669623 17.552 0.0305622 17.84 0.267604 17.9552C0.41091 18.0249 0.590895 18.0124 0.719072 17.924C0.757346 17.8976 2.51978 16.0969 8.34377 10.1354C14.7777 3.54959 15.9225 2.37441 15.9442 2.33581C15.9884 2.25695 16 2.2069 16 2.09454C16 2.01719 15.9973 1.98855 15.9872 1.95817C15.9653 1.89231 15.9284 1.82746 15.8857 1.77973C15.7775 1.65892 15.6455 1.60758 15.484 1.62348Z" fill="#878D96"/>
</svg>
