<svg width="24" height="24" viewBox="0 0 24 24" fill="none" xmlns="http://www.w3.org/2000/svg">
<g clip-path="url(#clip0_460_649)">
<path d="M7.89899 19.111L11.962 23.485L16.043 19.092" stroke="#212B3D" stroke-width="1.5" stroke-linecap="round" stroke-linejoin="round"/>
<path d="M11.829 4.455C11.9422 4.47501 12.0579 4.47501 12.171 4.455L22.084 2.731C22.1417 2.72057 22.1938 2.69022 22.2314 2.64526C22.2689 2.6003 22.2895 2.54358 22.2895 2.485C22.2895 2.42642 22.2689 2.36971 22.2314 2.32475C22.1938 2.27979 22.1417 2.24944 22.084 2.239L12.171 0.515003C12.0579 0.494999 11.9422 0.494999 11.829 0.515003L1.91603 2.239C1.85839 2.24944 1.80624 2.27979 1.76869 2.32475C1.73114 2.36971 1.71057 2.42642 1.71057 2.485C1.71057 2.54358 1.73114 2.6003 1.76869 2.64526C1.80624 2.69022 1.85839 2.72057 1.91603 2.731L11.829 4.455Z" stroke="#212B3D" stroke-width="1.5" stroke-linecap="round" stroke-linejoin="round"/>
<path d="M1.99999 8.48511C1.1829 9.8587 0.677012 11.3948 0.517993 12.9851C0.51375 13.0492 0.522705 13.1134 0.544303 13.1739C0.565902 13.2343 0.599685 13.2897 0.643559 13.3366C0.687433 13.3835 0.740464 13.4208 0.799366 13.4464C0.858269 13.4719 0.92179 13.4851 0.985993 13.4851H2.98599C3.05498 13.4853 3.12326 13.4712 3.18654 13.4438C3.24982 13.4163 3.30673 13.376 3.35369 13.3255C3.40065 13.275 3.43665 13.2153 3.45942 13.1501C3.48219 13.085 3.49124 13.0159 3.48599 12.9471C3.31968 11.3697 2.81265 9.84726 1.99999 8.48511V8.48511Z" stroke="#212B3D" stroke-width="1.5" stroke-linecap="round" stroke-linejoin="round"/>
<path d="M2 2.74609V8.48509" stroke="#212B3D" stroke-width="1.5" stroke-linecap="round" stroke-linejoin="round"/>
<path d="M6 10.4851V3.44214" stroke="#212B3D" stroke-width="1.5" stroke-linecap="round" stroke-linejoin="round"/>
<path d="M18 3.44214V10.4851" stroke="#212B3D" stroke-width="1.5" stroke-linecap="round" stroke-linejoin="round"/>
<path d="M6 7.48511C9.8947 8.78309 14.1053 8.78309 18 7.48511" stroke="#212B3D" stroke-width="1.5" stroke-linecap="round" stroke-linejoin="round"/>
<path d="M10.48 14.885C10.8844 15.2702 11.4215 15.485 11.98 15.485C12.5385 15.485 13.0756 15.2702 13.48 14.885" stroke="#212B3D" stroke-width="1.5" stroke-linecap="round" stroke-linejoin="round"/>
<path d="M11 10.985C10.8941 10.8191 10.7452 10.6849 10.5691 10.5969C10.393 10.5089 10.1963 10.4702 10 10.485C9.80369 10.4702 9.60702 10.5089 9.43094 10.5969C9.25485 10.6849 9.10592 10.8191 9 10.985" stroke="#212B3D" stroke-width="1.5" stroke-linecap="round" stroke-linejoin="round"/>
<path d="M15 10.985C14.8941 10.8191 14.7452 10.6849 14.5691 10.5969C14.393 10.5089 14.1963 10.4702 14 10.485C13.8037 10.4702 13.607 10.5089 13.4309 10.5969C13.2548 10.6849 13.1059 10.8191 13 10.985" stroke="#212B3D" stroke-width="1.5" stroke-linecap="round" stroke-linejoin="round"/>
<path d="M5.98 10.4851C5.106 10.9221 5.38 12.8851 6.459 13.3741C6.60856 13.4418 6.73915 13.5452 6.83926 13.6753C6.93937 13.8055 7.0059 13.9582 7.033 14.1201C7.476 16.7641 10.588 18.4851 11.98 18.4851C13.372 18.4851 16.48 16.7641 16.927 14.1201C16.9541 13.9582 17.0206 13.8055 17.1207 13.6753C17.2208 13.5452 17.3514 13.4418 17.501 13.3741C18.582 12.8841 18.853 10.9221 17.98 10.4851" stroke="#212B3D" stroke-width="1.5" stroke-linecap="round" stroke-linejoin="round"/>
<path d="M16.043 19.092L21 20.737L21.018 20.743C21.6216 20.9671 22.1623 21.3333 22.5943 21.8106C23.0264 22.2878 23.337 22.8622 23.5 23.485" stroke="#212B3D" stroke-width="1.5" stroke-linecap="round" stroke-linejoin="round"/>
<path d="M7.9 19.1111L3 20.7371L2.982 20.7431C2.37845 20.9671 1.83776 21.3333 1.40572 21.8106C0.973678 22.2879 0.663004 22.8623 0.5 23.4851" stroke="#212B3D" stroke-width="1.5" stroke-linecap="round" stroke-linejoin="round"/>
</g>
<defs>
<clipPath id="clip0_460_649">
<rect width="24" height="24" fill="white"/>
</clipPath>
</defs>
</svg>
