<svg width="24" height="24" viewBox="0 0 24 24" fill="none" xmlns="http://www.w3.org/2000/svg">

<path d="M16.043 19.1001L12.328 23.1001C12.2812 23.1504 12.2246 23.1905 12.1616 23.2179C12.0986 23.2453 12.0307 23.2594 11.962 23.2594C11.8933 23.2594 11.8254 23.2453 11.7624 23.2179C11.6995 23.1905 11.6428 23.1504 11.596 23.1001L7.90002 19.1191" stroke="#212B3D" stroke-width="2" stroke-linecap="round" stroke-linejoin="round"/>
<path d="M12.171 4.46306L22.084 2.73906C22.1423 2.72921 22.1951 2.69905 22.2333 2.65393C22.2714 2.60881 22.2923 2.55164 22.2923 2.49256C22.2923 2.43349 22.2714 2.37632 22.2333 2.3312C22.1951 2.28608 22.1423 2.25592 22.084 2.24606L12.171 0.522064C12.0578 0.503062 11.9422 0.503062 11.829 0.522064L1.91602 2.24606C1.85777 2.25592 1.80489 2.28608 1.76676 2.3312C1.72862 2.37632 1.7077 2.43349 1.7077 2.49256C1.7077 2.55164 1.72862 2.60881 1.76676 2.65393C1.80489 2.69905 1.85777 2.72921 1.91602 2.73906L11.829 4.46306C11.9422 4.48207 12.0578 4.48207 12.171 4.46306Z" stroke="#212B3D" stroke-width="2" stroke-linecap="round" stroke-linejoin="round"/>
<path d="M1.99998 8.49219C1.1865 9.86046 0.681099 11.3896 0.518977 12.9732C0.51642 13.0404 0.527462 13.1075 0.551442 13.1704C0.575422 13.2332 0.611846 13.2906 0.658533 13.3391C0.705219 13.3875 0.761207 13.4261 0.823142 13.4524C0.885078 13.4787 0.951686 13.4922 1.01898 13.4922H2.97998C3.04727 13.4922 3.11388 13.4787 3.17581 13.4524C3.23775 13.4261 3.29373 13.3875 3.34042 13.3391C3.38711 13.2906 3.42353 13.2332 3.44751 13.1704C3.47149 13.1075 3.48253 13.0404 3.47998 12.9732C3.31816 11.3897 2.8131 9.86055 1.99998 8.49219V8.49219Z" stroke="#212B3D" stroke-width="2" stroke-linecap="round" stroke-linejoin="round"/>
<path d="M2 2.75293V8.49193" stroke="#212B3D" stroke-width="2" stroke-linecap="round" stroke-linejoin="round"/>
<path d="M6 10.492V3.44897" stroke="#212B3D" stroke-width="2" stroke-linecap="round" stroke-linejoin="round"/>
<path d="M18 3.44897V10.492" stroke="#212B3D" stroke-width="2" stroke-linecap="round" stroke-linejoin="round"/>
<path d="M6 7.49219C9.89454 8.79118 14.1055 8.79118 18 7.49219" stroke="#212B3D" stroke-width="2" stroke-linecap="round" stroke-linejoin="round"/>
<path d="M10.5 14.9922C10.9043 15.3776 11.4414 15.5926 12 15.5926C12.5586 15.5926 13.0957 15.3776 13.5 14.9922" stroke="#212B3D" stroke-width="2" stroke-linecap="round" stroke-linejoin="round"/>
<path d="M11 10.9921C10.8941 10.8262 10.7452 10.692 10.5691 10.604C10.393 10.5159 10.1963 10.4773 10 10.4921C9.80369 10.4773 9.60702 10.5159 9.43094 10.604C9.25485 10.692 9.10592 10.8262 9 10.9921" stroke="#212B3D" stroke-width="2" stroke-linecap="round" stroke-linejoin="round"/>
<path d="M15 10.9921C14.8941 10.8262 14.7452 10.692 14.5691 10.604C14.393 10.5159 14.1963 10.4773 14 10.4921C13.8037 10.4773 13.607 10.5159 13.4309 10.604C13.2548 10.692 13.1059 10.8262 13 10.9921" stroke="#212B3D" stroke-width="2" stroke-linecap="round" stroke-linejoin="round"/>
<path d="M6.019 10.4922C5.148 10.9292 5.419 12.8922 6.496 13.3812C6.64531 13.4492 6.77559 13.5529 6.87534 13.6832C6.97509 13.8135 7.04126 13.9663 7.068 14.1282C7.51 16.7712 10.613 18.4922 12 18.4922C13.387 18.4922 16.49 16.7712 16.932 14.1282C16.9587 13.9663 17.0249 13.8135 17.1247 13.6832C17.2244 13.5529 17.3547 13.4492 17.504 13.3812C18.582 12.8912 18.852 10.9292 17.981 10.4922" stroke="#212B3D" stroke-width="2" stroke-linecap="round" stroke-linejoin="round"/>
<path d="M23.5 23.4921C23.3367 22.8682 23.0253 22.2928 22.5921 21.815C22.159 21.3371 21.617 20.9708 21.012 20.7471L16.043 19.1001" stroke="#212B3D" stroke-width="2" stroke-linecap="round" stroke-linejoin="round"/>
<path d="M7.9 19.1191L2.988 20.7471C2.38307 20.9708 1.84104 21.3371 1.4079 21.815C0.974767 22.2929 0.663322 22.8682 0.5 23.4921" stroke="#212B3D" stroke-width="2" stroke-linecap="round" stroke-linejoin="round"/>
<path d="M5.707 12.5291C5.51966 13.9757 4.77608 15.2925 3.634 16.2001C3.56155 16.2414 3.50059 16.3003 3.45669 16.3712C3.4128 16.4422 3.38735 16.523 3.38268 16.6063C3.37801 16.6896 3.39426 16.7727 3.42995 16.8481C3.46563 16.9236 3.51962 16.9888 3.587 17.0381C4.41679 17.6842 5.4493 18.0142 6.5 17.9691" stroke="#212B3D" stroke-width="2" stroke-linecap="round" stroke-linejoin="round"/>
<path d="M18.293 12.5291C18.4803 13.9757 19.2239 15.2925 20.366 16.2001C20.4385 16.2414 20.4994 16.3003 20.5433 16.3712C20.5872 16.4422 20.6126 16.523 20.6173 16.6063C20.622 16.6896 20.6057 16.7727 20.5701 16.8481C20.5344 16.9236 20.4804 16.9888 20.413 17.0381C19.5832 17.6842 18.5507 18.0142 17.5 17.9691" stroke="#212B3D" stroke-width="2" stroke-linecap="round" stroke-linejoin="round"/>






</svg>
