<svg width="24" height="24" viewBox="0 0 24 24" fill="none" xmlns="http://www.w3.org/2000/svg">
<path d="M14.25 14.25V20.518C14.25 20.8769 14.1793 21.2322 14.0419 21.5637C13.9046 21.8952 13.7033 22.1965 13.4495 22.4502C13.1957 22.7039 12.8944 22.9051 12.5628 23.0423C12.2312 23.1796 11.8759 23.2501 11.517 23.25H4.983C4.62414 23.2501 4.26878 23.1796 3.9372 23.0423C3.60563 22.9051 3.30433 22.7039 3.05054 22.4502C2.79674 22.1965 2.59542 21.8952 2.45806 21.5637C2.3207 21.2322 2.25 20.8769 2.25 20.518V4.983C2.24987 4.62406 2.32047 4.26861 2.45777 3.93697C2.59507 3.60533 2.79638 3.30399 3.05018 3.05018C3.30399 2.79638 3.60533 2.59507 3.93697 2.45777C4.26861 2.32047 4.62406 2.24987 4.983 2.25H9" stroke="#212B3D" stroke-width="2" stroke-linecap="round" stroke-linejoin="round"/>
<path d="M2.25 18.75H14.25" stroke="#212B3D" stroke-width="2" stroke-linecap="round" stroke-linejoin="round"/>
<path d="M11.25 3.948V9.748C11.25 10.1458 11.408 10.5274 11.6893 10.8087C11.9706 11.09 12.3522 11.248 12.75 11.248H18.75C19.1478 11.248 19.5294 11.09 19.8107 10.8087C20.092 10.5274 20.25 10.1458 20.25 9.748V3.948" stroke="#212B3D" stroke-width="2" stroke-linecap="round" stroke-linejoin="round"/>
<path d="M9.75 5.26011L14.268 1.30711C14.6781 0.947823 15.2048 0.749756 15.75 0.749756C16.2952 0.749756 16.8219 0.947823 17.232 1.30711L21.75 5.26011" stroke="#212B3D" stroke-width="2" stroke-linecap="round" stroke-linejoin="round"/>
<path d="M17.25 11.25H14.25V8.25C14.25 7.85218 14.408 7.47064 14.6893 7.18934C14.9706 6.90804 15.3522 6.75 15.75 6.75C16.1478 6.75 16.5294 6.90804 16.8107 7.18934C17.092 7.47064 17.25 7.85218 17.25 8.25V11.25Z" stroke="#212B3D" stroke-width="2" stroke-linecap="round" stroke-linejoin="round"/>
</svg>
