<svg width="24" height="24" viewBox="0 0 24 24" fill="none" xmlns="http://www.w3.org/2000/svg">
<path d="M21 23.25H5.25C4.65326 23.25 4.08097 23.0129 3.65901 22.591C3.23705 22.169 3 21.5967 3 21" stroke="#212B3D" stroke-width="2" stroke-linecap="round" stroke-linejoin="round"/>
<path d="M6 0.75C5.20435 0.75 4.44129 1.06607 3.87868 1.62868C3.31607 2.19129 3 2.95435 3 3.75V21C3 20.4033 3.23705 19.831 3.65901 19.409C4.08097 18.9871 4.65326 18.75 5.25 18.75H20.25C20.4489 18.75 20.6397 18.671 20.7803 18.5303C20.921 18.3897 21 18.1989 21 18V1.5C21 1.30109 20.921 1.11032 20.7803 0.96967C20.6397 0.829018 20.4489 0.75 20.25 0.75H6Z" stroke="#212B3D" stroke-width="2" stroke-linecap="round" stroke-linejoin="round"/>
<path d="M19.5 23.25V18.75" stroke="#212B3D" stroke-width="2" stroke-linecap="round" stroke-linejoin="round"/>
<path d="M11.748 13.6809L14.159 11.2999C14.4403 11.0187 14.8217 10.8607 15.2195 10.8607C15.6172 10.8607 15.9987 11.0187 16.28 11.2999L16.811 11.8309C17.0922 12.1122 17.2502 12.4937 17.2502 12.8914C17.2502 13.2892 17.0922 13.6706 16.811 13.9519L16.351 14.4119C16.1683 14.5961 15.941 14.7298 15.6913 14.7999C15.4415 14.87 15.1778 14.8742 14.926 14.8119L14.054 14.5939C12.3863 14.1776 10.8632 13.3155 9.64779 12.1001C8.43236 10.8847 7.57034 9.3616 7.15399 7.69391L6.93999 6.82391C6.87731 6.57265 6.88074 6.30944 6.94996 6.05989C7.01918 5.81035 7.15183 5.58298 7.33499 5.39991L7.79499 4.93991C8.07628 4.65871 8.45774 4.50073 8.85549 4.50073C9.25324 4.50073 9.6347 4.65871 9.91599 4.93991L10.447 5.46991C10.7282 5.7512 10.8862 6.13267 10.8862 6.53041C10.8862 6.92816 10.7282 7.30962 10.447 7.59091L8.06099 9.99091" stroke="#212B3D" stroke-width="2" stroke-linecap="round" stroke-linejoin="round"/>
</svg>
