<svg width="24" height="24" viewBox="0 0 24 24" fill="none" xmlns="http://www.w3.org/2000/svg">
<path d="M0.818023 11.471L1.90002 12.554C2.1786 12.8326 2.50935 13.0536 2.87335 13.2044C3.23736 13.3552 3.62751 13.4328 4.02152 13.4328C4.41553 13.4328 4.80568 13.3552 5.16969 13.2044C5.5337 13.0536 5.86444 12.8326 6.14302 12.554L7.73402 10.963C7.87341 10.8237 7.98399 10.6583 8.05943 10.4762C8.13487 10.2941 8.1737 10.099 8.1737 9.90195C8.1737 9.70489 8.13487 9.50976 8.05943 9.32771C7.98399 9.14566 7.87341 8.98025 7.73402 8.84095L4.64002 5.74695C4.48856 5.59416 4.306 5.47574 4.10474 5.39973C3.90348 5.32371 3.68821 5.29188 3.47356 5.3064C3.25891 5.32091 3.0499 5.38142 2.8607 5.48384C2.6715 5.58625 2.50654 5.72817 2.37702 5.89995C-0.863977 10.3 1.10002 14.934 5.08302 18.918C9.06602 22.902 13.703 24.864 18.105 21.623C18.2765 21.4931 18.418 21.3278 18.5199 21.1384C18.6219 20.949 18.6819 20.7399 18.696 20.5253C18.71 20.3106 18.6777 20.0955 18.6013 19.8944C18.5249 19.6933 18.4061 19.5111 18.253 19.36L15.159 16.266C14.8777 15.9847 14.4963 15.8268 14.0985 15.8268C13.7008 15.8268 13.3193 15.9847 13.038 16.266L11.446 17.857C11.1674 18.1355 10.9464 18.4663 10.7956 18.8303C10.6448 19.1943 10.5672 19.5844 10.5672 19.9785C10.5672 20.3725 10.6448 20.7626 10.7956 21.1266C10.9464 21.4906 11.1674 21.8214 11.446 22.1L12.546 23.194" stroke="#212B3D" stroke-width="2" stroke-linecap="round" stroke-linejoin="round"/>
<path d="M12.75 6C12.75 6.68944 12.8858 7.37213 13.1496 8.00909C13.4135 8.64605 13.8002 9.2248 14.2877 9.71231C14.7752 10.1998 15.354 10.5865 15.9909 10.8504C16.6279 11.1142 17.3106 11.25 18 11.25C18.6894 11.25 19.3721 11.1142 20.0091 10.8504C20.646 10.5865 21.2248 10.1998 21.7123 9.71231C22.1998 9.2248 22.5865 8.64605 22.8504 8.00909C23.1142 7.37213 23.25 6.68944 23.25 6C23.25 5.31056 23.1142 4.62787 22.8504 3.99091C22.5865 3.35395 22.1998 2.7752 21.7123 2.28769C21.2248 1.80018 20.646 1.41347 20.0091 1.14963C19.3721 0.885795 18.6894 0.75 18 0.75C17.3106 0.75 16.6279 0.885795 15.9909 1.14963C15.354 1.41347 14.7752 1.80018 14.2877 2.28769C13.8002 2.7752 13.4135 3.35395 13.1496 3.99091C12.8858 4.62787 12.75 5.31056 12.75 6V6Z" stroke="#212B3D" stroke-width="2" stroke-linecap="round" stroke-linejoin="round"/>
<path d="M18 3.75V8.25" stroke="#212B3D" stroke-width="2" stroke-linecap="round" stroke-linejoin="round"/>
<path d="M15.75 6H20.25" stroke="#212B3D" stroke-width="2" stroke-linecap="round" stroke-linejoin="round"/>
</svg>
