<svg width="24" height="24" viewBox="0 0 24 24" fill="none" xmlns="http://www.w3.org/2000/svg">
<g clip-path="url(#clip0_655_20767)">
<path d="M15.04 22.3901L15.052 22.3971C16.1141 23.0733 17.3751 23.3671 18.6267 23.2298C19.8783 23.0925 21.0456 22.5325 21.936 21.6421L22.71 20.8681C23.0557 20.522 23.2498 20.0528 23.2498 19.5636C23.2498 19.0744 23.0557 18.6052 22.71 18.2591L19.449 15.0001C19.1028 14.6544 18.6336 14.4603 18.1445 14.4603C17.6553 14.4603 17.1861 14.6544 16.84 15.0001V15.0001C16.6688 15.1715 16.4655 15.3075 16.2418 15.4002C16.018 15.493 15.7782 15.5407 15.536 15.5407C15.2937 15.5407 15.0539 15.493 14.8302 15.4002C14.6064 15.3075 14.4031 15.1715 14.232 15.0001L9.01396 9.78112C8.66827 9.43499 8.4741 8.9658 8.4741 8.47662C8.4741 7.98743 8.66827 7.51824 9.01396 7.17212V7.17212C9.18534 7.00095 9.3213 6.79768 9.41406 6.57393C9.50682 6.35018 9.55456 6.11033 9.55456 5.86812C9.55456 5.6259 9.50682 5.38606 9.41406 5.16231C9.3213 4.93856 9.18534 4.73528 9.01396 4.56412L5.75396 1.30012C5.40783 0.954425 4.93865 0.760254 4.44946 0.760254C3.96027 0.760254 3.49109 0.954425 3.14496 1.30012L2.37096 2.07412C1.48079 2.9645 0.920772 4.13176 0.783331 5.38328C0.64589 6.63479 0.939236 7.89577 1.61496 8.95812L1.62296 8.97012C5.19637 14.2599 9.75093 18.8155 15.04 22.3901V22.3901Z" stroke="#212B3D" stroke-width="1.5" stroke-linecap="round" stroke-linejoin="round"/>
</g>
<defs>
<clipPath id="clip0_655_20767">
<rect width="24" height="24" fill="white"/>
</clipPath>
</defs>
</svg>
