<svg width="24" height="24" viewBox="0 0 24 24" fill="none" xmlns="http://www.w3.org/2000/svg">
<path d="M0.818023 10.7211L1.90002 11.8001C2.46261 12.3625 3.22553 12.6785 4.02102 12.6785C4.81652 12.6785 5.57944 12.3625 6.14202 11.8001L7.73302 10.2091C7.87241 10.0698 7.98299 9.90439 8.05843 9.72234C8.13387 9.54029 8.1727 9.34516 8.1727 9.1481C8.1727 8.95103 8.13387 8.7559 8.05843 8.57385C7.98299 8.3918 7.87241 8.2264 7.73302 8.0871L4.64002 5.0001C4.4889 4.84703 4.30663 4.72826 4.10556 4.65183C3.9045 4.5754 3.68935 4.54312 3.47471 4.55715C3.26008 4.57119 3.05097 4.63123 2.86157 4.73319C2.67217 4.83515 2.50692 4.97665 2.37702 5.1481C-0.863977 9.5471 1.10002 14.1841 5.08302 18.1681C9.06602 22.1521 13.703 24.1141 18.106 20.8731C18.2774 20.7431 18.4188 20.5778 18.5207 20.3884C18.6226 20.1989 18.6825 19.9898 18.6964 19.7752C18.7104 19.5605 18.678 19.3454 18.6015 19.1444C18.525 18.9434 18.4061 18.7611 18.253 18.6101L15.159 15.5161C15.0197 15.3767 14.8543 15.2661 14.6723 15.1907C14.4902 15.1152 14.2951 15.0764 14.098 15.0764C13.901 15.0764 13.7058 15.1152 13.5238 15.1907C13.3417 15.2661 13.1763 15.3767 13.037 15.5161L11.447 17.1071C11.1684 17.3857 10.9474 17.7164 10.7966 18.0804C10.6458 18.4444 10.5682 18.8346 10.5682 19.2286C10.5682 19.6226 10.6458 20.0128 10.7966 20.3768C10.9474 20.7408 11.1684 21.0715 11.447 21.3501L12.541 22.4441" stroke="#212B3D" stroke-width="2" stroke-linecap="round" stroke-linejoin="round"/>
<path d="M12.7531 3.75C13.0531 2.85 13.4161 1.5 15.0741 1.5C15.3602 1.5 15.6436 1.55636 15.9079 1.66587C16.1723 1.77537 16.4125 1.93588 16.6148 2.13821C16.8172 2.34055 16.9777 2.58076 17.0872 2.84513C17.1967 3.1095 17.2531 3.39285 17.2531 3.679V3.679C17.2529 4.20409 17.0443 4.70764 16.6731 5.079L12.7531 9H17.2531" stroke="#212B3D" stroke-width="2" stroke-linecap="round" stroke-linejoin="round"/>
<path d="M23.2501 7.5H19.5031L23.2501 1.5V9" stroke="#212B3D" stroke-width="2" stroke-linecap="round" stroke-linejoin="round"/>
</svg>
