<svg width="24" height="25" viewBox="0 0 24 25" fill="none" xmlns="http://www.w3.org/2000/svg">

<path d="M20.25 1.24609H0.75V20.7461H20.25V1.24609Z" stroke="#B9BEC4" stroke-width="2" stroke-linecap="round" stroke-linejoin="round"/>
<path d="M3.75 23.7461H21.75C22.1478 23.7461 22.5294 23.5881 22.8107 23.3068C23.092 23.0254 23.25 22.6439 23.25 22.2461V4.24609" stroke="#B9BEC4" stroke-width="2" stroke-linecap="round" stroke-linejoin="round"/>
<path d="M5.25 8.74609V14.7461C5.25 15.1439 5.40804 15.5254 5.68934 15.8068C5.97065 16.0881 6.35218 16.2461 6.75 16.2461H14.25C14.6478 16.2461 15.0294 16.0881 15.3107 15.8068C15.592 15.5254 15.75 15.1439 15.75 14.7461V8.74609" stroke="#B9BEC4" stroke-width="2" stroke-linecap="round" stroke-linejoin="round"/>
<path d="M5.25 8.74609C5.25 8.34827 5.40804 7.96674 5.68934 7.68543C5.97065 7.40413 6.35218 7.24609 6.75 7.24609H14.25C14.6478 7.24609 15.0294 7.40413 15.3107 7.68543C15.592 7.96674 15.75 8.34827 15.75 8.74609L11.295 11.5191C11.0566 11.6681 10.7811 11.7471 10.5 11.7471C10.2189 11.7471 9.9434 11.6681 9.705 11.5191L5.25 8.74609Z" stroke="#B9BEC4" stroke-width="2" stroke-linecap="round" stroke-linejoin="round"/>






</svg>
