<svg width="25" height="24" viewBox="0 0 25 24" fill="none" xmlns="http://www.w3.org/2000/svg">

<path d="M13.3971 2.02388L14.8071 5.12988H17.5501C17.6886 5.12479 17.8253 5.16253 17.9416 5.23797C18.0579 5.31342 18.1481 5.42288 18.2 5.55146C18.2518 5.68003 18.2627 5.82146 18.2312 5.95646C18.1997 6.09147 18.1274 6.21348 18.0241 6.30588L15.6501 8.59988L16.9701 11.6369C17.0286 11.7759 17.0419 11.9299 17.0081 12.0769C16.9743 12.2239 16.8951 12.3566 16.7818 12.4561C16.6684 12.5557 16.5266 12.617 16.3765 12.6315C16.2263 12.646 16.0754 12.6129 15.9451 12.5369L12.7501 10.7359L9.56006 12.5359C9.42977 12.6115 9.279 12.6443 9.12906 12.6297C8.97912 12.615 8.83757 12.5536 8.7244 12.4541C8.61124 12.3547 8.53218 12.2222 8.49838 12.0754C8.46459 11.9285 8.47777 11.7748 8.53606 11.6359L9.85606 8.59988L7.47306 6.30588C7.36889 6.21357 7.29591 6.09124 7.26415 5.95573C7.23239 5.82022 7.24343 5.6782 7.29575 5.54922C7.34806 5.42024 7.43908 5.31066 7.55626 5.23556C7.67344 5.16046 7.81102 5.12354 7.95006 5.12988H10.6911L12.1041 2.02388C12.1652 1.90507 12.2578 1.80539 12.3719 1.7358C12.4859 1.66621 12.617 1.62939 12.7506 1.62939C12.8842 1.62939 13.0152 1.66621 13.1292 1.7358C13.2433 1.80539 13.336 1.90507 13.3971 2.02388Z" stroke="#B9BEC4" stroke-width="2" stroke-linecap="round" stroke-linejoin="round"/>
<path d="M8.57403 18.833L8.94303 21.433C8.95251 21.498 8.94909 21.5643 8.93296 21.6279C8.91683 21.6916 8.88831 21.7515 8.84902 21.8042C8.80974 21.8568 8.76046 21.9012 8.70401 21.9348C8.64756 21.9684 8.58504 21.9906 8.52003 22L5.92603 22.37" stroke="#B9BEC4" stroke-width="2" stroke-linecap="round" stroke-linejoin="round"/>
<path d="M6.27298 16.833L6.03698 18.79C6.02096 18.9211 5.9537 19.0406 5.8499 19.1223C5.7461 19.204 5.61419 19.2413 5.48298 19.226L3.53198 18.989" stroke="#B9BEC4" stroke-width="2" stroke-linecap="round" stroke-linejoin="round"/>
<path d="M4.71198 13.9668L4.07798 15.5468C4.02861 15.6693 3.93275 15.7674 3.81133 15.8195C3.68991 15.8716 3.55281 15.8735 3.42998 15.8248L1.85498 15.1888" stroke="#B9BEC4" stroke-width="2" stroke-linecap="round" stroke-linejoin="round"/>
<path d="M4.035 11.0469L3.14 12.2469C3.1006 12.2994 3.05125 12.3437 2.99475 12.3771C2.93825 12.4106 2.87571 12.4326 2.81071 12.4418C2.74571 12.4511 2.67952 12.4475 2.61591 12.4312C2.5523 12.4149 2.49253 12.3863 2.44 12.3469L1.25 11.4439" stroke="#B9BEC4" stroke-width="2" stroke-linecap="round" stroke-linejoin="round"/>
<path d="M2.53601 8.12988V9.62988" stroke="#B9BEC4" stroke-width="2" stroke-linecap="round" stroke-linejoin="round"/>
<path d="M19.574 22.37L16.98 22C16.8489 21.9809 16.7307 21.9106 16.6514 21.8045C16.5721 21.6984 16.5381 21.5651 16.557 21.434L16.926 18.834" stroke="#B9BEC4" stroke-width="2" stroke-linecap="round" stroke-linejoin="round"/>
<path d="M21.968 18.989L20.017 19.226C19.8858 19.2413 19.7539 19.204 19.6501 19.1223C19.5463 19.0406 19.479 18.9211 19.463 18.79L19.227 16.833" stroke="#B9BEC4" stroke-width="2" stroke-linecap="round" stroke-linejoin="round"/>
<path d="M23.65 15.1888L22.075 15.8248C21.9522 15.8735 21.8151 15.8716 21.6937 15.8195C21.5723 15.7674 21.4764 15.6693 21.427 15.5468L20.793 13.9668" stroke="#B9BEC4" stroke-width="2" stroke-linecap="round" stroke-linejoin="round"/>
<path d="M24.25 11.4439L23.058 12.3439C22.9519 12.4235 22.8185 12.4577 22.6872 12.4389C22.556 12.4202 22.4375 12.35 22.358 12.2439L21.463 11.0439" stroke="#B9BEC4" stroke-width="2" stroke-linecap="round" stroke-linejoin="round"/>
<path d="M22.964 9.62988V8.12988" stroke="#B9BEC4" stroke-width="2" stroke-linecap="round" stroke-linejoin="round"/>






</svg>
