<svg width="25" height="25" viewBox="0 0 25 25" fill="none" xmlns="http://www.w3.org/2000/svg">

<path d="M12.2605 20.7319C12.5953 21.4361 13.082 22.0573 13.6855 22.5509" stroke="#B9BEC4" stroke-width="2" stroke-linecap="round" stroke-linejoin="round"/>
<path d="M16.5195 23.7048C17.2959 23.7745 18.0782 23.6721 18.8105 23.4048" stroke="#B9BEC4" stroke-width="2" stroke-linecap="round" stroke-linejoin="round"/>
<path d="M21.2485 21.5517C21.7095 20.9228 22.0201 20.1965 22.1565 19.4287" stroke="#B9BEC4" stroke-width="2" stroke-linecap="round" stroke-linejoin="round"/>
<path d="M11.1845 4.12351C10.8198 3.39084 10.2857 2.75563 9.62651 2.27051" stroke="#B9BEC4" stroke-width="2" stroke-linecap="round" stroke-linejoin="round"/>
<path d="M6.59351 1.23372C5.77569 1.21538 4.96529 1.39227 4.22951 1.74972" stroke="#B9BEC4" stroke-width="2" stroke-linecap="round" stroke-linejoin="round"/>
<path d="M1.89752 3.94971C1.50626 4.66787 1.28781 5.46736 1.25952 6.28471" stroke="#B9BEC4" stroke-width="2" stroke-linecap="round" stroke-linejoin="round"/>
<path d="M16.2475 11.7285L1.2475 11.7285" stroke="#B9BEC4" stroke-width="2" stroke-linecap="round" stroke-linejoin="round"/>
<path d="M13.3835 8.86572L16.2475 11.7287L13.3835 14.5927" stroke="#B9BEC4" stroke-width="2" stroke-linecap="round" stroke-linejoin="round"/>
<path d="M21.4975 9.47852C21.202 9.47852 20.9094 9.53671 20.6365 9.64979C20.3635 9.76286 20.1154 9.92859 19.9065 10.1375C19.6976 10.3465 19.5318 10.5945 19.4188 10.8675C19.3057 11.1405 19.2475 11.433 19.2475 11.7285C19.2475 12.024 19.3057 12.3166 19.4188 12.5896C19.5318 12.8625 19.6976 13.1106 19.9065 13.3195C20.1154 13.5284 20.3635 13.6942 20.6365 13.8072C20.9094 13.9203 21.202 13.9785 21.4975 13.9785C21.793 13.9785 22.0856 13.9203 22.3585 13.8072C22.6315 13.6942 22.8796 13.5284 23.0885 13.3195C23.2974 13.1106 23.4632 12.8625 23.5762 12.5896C23.6893 12.3166 23.7475 12.024 23.7475 11.7285C23.7475 11.433 23.6893 11.1405 23.5762 10.8675C23.4632 10.5945 23.2974 10.3465 23.0885 10.1375C22.8796 9.92859 22.6315 9.76286 22.3585 9.64979C22.0856 9.53671 21.793 9.47852 21.4975 9.47852V9.47852Z" stroke="#B9BEC4" stroke-width="2" stroke-linecap="round" stroke-linejoin="round"/>






</svg>
