<svg width="23" height="23" viewBox="0 0 23 23" fill="none" xmlns="http://www.w3.org/2000/svg">
  <path
    d="M12.3401 1.00002C10.5717 0.997466 8.83502 1.46859 7.31002 2.36452C5.78503 3.26044 4.52737 4.5485 3.66756 6.09504C2.80775 7.64158 2.37712 9.39024 2.42036 11.1595C2.4636 12.9289 2.97913 14.6544 3.91345 16.157L1 22.2813L7.11797 19.3643C8.42272 20.1765 9.89812 20.6744 11.4279 20.8187C12.9576 20.963 14.5 20.7497 15.9334 20.1956C17.3667 19.6417 18.6519 18.7619 19.6878 17.6261C20.7236 16.4901 21.4816 15.129 21.9023 13.6498C22.3229 12.1707 22.3945 10.614 22.1116 9.1024C21.8286 7.59081 21.1987 6.16565 20.2717 4.93922C19.3446 3.7128 18.1456 2.71862 16.7692 2.03503C15.3928 1.35144 13.8766 0.997135 12.3401 1.00002Z"
    stroke="#70707B" stroke-width="1.3" stroke-linecap="round" stroke-linejoin="round"/>

</svg>
