<svg width="24" height="25" viewBox="0 0 24 25" fill="none" xmlns="http://www.w3.org/2000/svg">
<path d="M5.223 19.8182C6.48663 19.8182 7.511 18.7938 7.511 17.5302C7.511 16.2666 6.48663 15.2422 5.223 15.2422C3.95937 15.2422 2.935 16.2666 2.935 17.5302C2.935 18.7938 3.95937 19.8182 5.223 19.8182Z" stroke="#B9BEC4" stroke-width="2" stroke-linecap="round" stroke-linejoin="round"/>
<path d="M1.78998 23.2499C2.18503 22.7121 2.7024 22.2759 3.29934 21.9775C3.89628 21.6792 4.55565 21.5271 5.22298 21.5339C5.89022 21.5268 6.54956 21.6787 7.1464 21.9771C7.74323 22.2755 8.26037 22.7118 8.65498 23.2499" stroke="#B9BEC4" stroke-width="2" stroke-linecap="round" stroke-linejoin="round"/>
<path d="M18.777 19.8182C20.0406 19.8182 21.065 18.7938 21.065 17.5302C21.065 16.2666 20.0406 15.2422 18.777 15.2422C17.5133 15.2422 16.489 16.2666 16.489 17.5302C16.489 18.7938 17.5133 19.8182 18.777 19.8182Z" stroke="#B9BEC4" stroke-width="2" stroke-linecap="round" stroke-linejoin="round"/>
<path d="M15.345 23.2502C15.7447 22.7174 16.2629 22.2849 16.8587 21.9871C17.4545 21.6892 18.1114 21.5342 18.7775 21.5342C19.4435 21.5342 20.1005 21.6892 20.6962 21.9871C21.292 22.2849 21.8103 22.7174 22.21 23.2502" stroke="#B9BEC4" stroke-width="2" stroke-linecap="round" stroke-linejoin="round"/>
<path d="M20.77 3.25C20.77 2.85218 20.612 2.47064 20.3306 2.18934C20.0493 1.90804 19.6678 1.75 19.27 1.75H4.17499C3.77716 1.75 3.39563 1.90804 3.11433 2.18934C2.83302 2.47064 2.67499 2.85218 2.67499 3.25V9.767C2.67499 9.96449 2.71398 10.16 2.78974 10.3424C2.8655 10.5248 2.97652 10.6904 3.11645 10.8298C3.25637 10.9692 3.42244 11.0795 3.60512 11.1545C3.7878 11.2296 3.9835 11.2678 4.18099 11.267L10.223 11.25L13.723 14.25V11.25L19.263 11.267C19.4606 11.2679 19.6564 11.2298 19.8392 11.1548C20.022 11.0799 20.1881 10.9695 20.3282 10.8301C20.4682 10.6908 20.5793 10.5251 20.6551 10.3426C20.731 10.1602 20.77 9.96457 20.77 9.767V3.25Z" stroke="#B9BEC4" stroke-width="2" stroke-linecap="round" stroke-linejoin="round"/>
</svg>
