<svg width="25" height="25" viewBox="0 0 25 25" fill="none" xmlns="http://www.w3.org/2000/svg">
<g clip-path="url(#clip0_3778_26990)">
<path d="M18.5 4.6441C20.065 4.39258 21.6469 4.26086 23.232 4.2501C23.3682 4.248 23.4997 4.29975 23.598 4.3941C23.6457 4.44035 23.6837 4.49566 23.7098 4.55679C23.7359 4.61792 23.7496 4.68363 23.75 4.7501V20.5181C23.7487 20.6503 23.6956 20.7767 23.6021 20.8702C23.5086 20.9637 23.3822 21.0168 23.25 21.0181C14.957 21.1211 12.5 23.7501 12.5 23.7501V6.9821C12.5 6.9821 10.045 4.3561 1.768 4.2501C1.6311 4.24747 1.49876 4.29926 1.4 4.3941C1.35264 4.44052 1.31498 4.4959 1.28923 4.55702C1.26348 4.61814 1.25014 4.68377 1.25 4.7501V20.5181C1.2513 20.6503 1.3044 20.7767 1.39789 20.8702C1.49137 20.9637 1.6178 21.0168 1.75 21.0181C10.043 21.1211 12.5 23.7501 12.5 23.7501" stroke="#B9BEC4" stroke-width="1.5" stroke-linecap="round" stroke-linejoin="round"/>
<path d="M12.5 23.257C12.658 21.9609 13.232 20.7511 14.136 19.809C15.2992 18.5542 16.8246 17.6933 18.5 17.346V1.74298C18.4985 1.66256 18.4768 1.58381 18.437 1.51393C18.3971 1.44405 18.3404 1.38527 18.272 1.34298C18.1992 1.29722 18.1174 1.26765 18.0322 1.25626C17.9469 1.24487 17.8603 1.25194 17.778 1.27698C16.3748 1.68018 15.113 2.46909 14.136 3.55398C13.2324 4.49555 12.6584 5.70464 12.5 6.99998" stroke="#B9BEC4" stroke-width="1.5" stroke-linecap="round" stroke-linejoin="round"/>
</g>
<defs>
<clipPath id="clip0_3778_26990">
<rect width="24" height="24" fill="white" transform="translate(0.5 0.5)"/>
</clipPath>
</defs>
</svg>
