<svg width="25" height="25" viewBox="0 0 25 25" fill="none" xmlns="http://www.w3.org/2000/svg">

<path d="M18.75 3.37282C17.0521 1.99902 14.9341 1.24951 12.75 1.24951C10.5659 1.24951 8.44794 1.99902 6.75 3.37282" stroke="#B9BEC4" stroke-width="1.5" stroke-linecap="round" stroke-linejoin="round"/>
<path d="M9.25 6.98765C10.2406 6.18655 11.476 5.74951 12.75 5.74951C14.024 5.74951 15.2594 6.18655 16.25 6.98765" stroke="#B9BEC4" stroke-width="1.5" stroke-linecap="round" stroke-linejoin="round"/>
<path d="M1.5 14.375C1.5 15.0712 1.77656 15.7389 2.26884 16.2312C2.76113 16.7234 3.42881 17 4.125 17C4.82119 17 5.48887 16.7234 5.98116 16.2312C6.47344 15.7389 6.75 15.0712 6.75 14.375C6.75 13.6788 6.47344 13.0111 5.98116 12.5188C5.48887 12.0266 4.82119 11.75 4.125 11.75C3.42881 11.75 2.76113 12.0266 2.26884 12.5188C1.77656 13.0111 1.5 13.6788 1.5 14.375V14.375Z" stroke="#B9BEC4" stroke-width="1.5" stroke-linecap="round" stroke-linejoin="round"/>
<path d="M8.264 20.4828C7.99881 19.8632 7.59783 19.3111 7.09067 18.8672C6.5835 18.4233 5.98311 18.099 5.33383 17.9183C4.68454 17.7375 4.00295 17.7049 3.33938 17.8229C2.67581 17.9408 2.04721 18.2063 1.5 18.5998" stroke="#B9BEC4" stroke-width="1.5" stroke-linecap="round" stroke-linejoin="round"/>
<path d="M18.75 14.375C18.75 14.7197 18.8179 15.0611 18.9498 15.3795C19.0817 15.698 19.2751 15.9874 19.5188 16.2312C19.7626 16.4749 20.052 16.6683 20.3705 16.8002C20.6889 16.9321 21.0303 17 21.375 17C21.7197 17 22.0611 16.9321 22.3795 16.8002C22.698 16.6683 22.9874 16.4749 23.2312 16.2312C23.4749 15.9874 23.6683 15.698 23.8002 15.3795C23.9321 15.0611 24 14.7197 24 14.375C24 14.0303 23.9321 13.6889 23.8002 13.3705C23.6683 13.052 23.4749 12.7626 23.2312 12.5188C22.9874 12.2751 22.698 12.0817 22.3795 11.9498C22.0611 11.8179 21.7197 11.75 21.375 11.75C21.0303 11.75 20.6889 11.8179 20.3705 11.9498C20.052 12.0817 19.7626 12.2751 19.5188 12.5188C19.2751 12.7626 19.0817 13.052 18.9498 13.3705C18.8179 13.6889 18.75 14.0303 18.75 14.375V14.375Z" stroke="#B9BEC4" stroke-width="1.5" stroke-linecap="round" stroke-linejoin="round"/>
<path d="M17.236 20.4828C17.5012 19.8632 17.9022 19.3111 18.4094 18.8672C18.9165 18.4233 19.5169 18.099 20.1662 17.9183C20.8155 17.7375 21.4971 17.7049 22.1606 17.8229C22.8242 17.9408 23.4528 18.2063 24 18.5998" stroke="#B9BEC4" stroke-width="1.5" stroke-linecap="round" stroke-linejoin="round"/>
<path d="M9.375 13.625C9.375 14.5201 9.73058 15.3785 10.3635 16.0115C10.9965 16.6444 11.8549 17 12.75 17C13.6451 17 14.5035 16.6444 15.1365 16.0115C15.7694 15.3785 16.125 14.5201 16.125 13.625C16.125 12.7299 15.7694 11.8715 15.1365 11.2385C14.5035 10.6056 13.6451 10.25 12.75 10.25C11.8549 10.25 10.9965 10.6056 10.3635 11.2385C9.73058 11.8715 9.375 12.7299 9.375 13.625V13.625Z" stroke="#B9BEC4" stroke-width="1.5" stroke-linecap="round" stroke-linejoin="round"/>
<path d="M18.75 23.7496C18.5546 22.2969 17.8388 20.9643 16.7354 19.9993C15.632 19.0343 14.2159 18.5024 12.75 18.5024C11.2841 18.5024 9.86805 19.0343 8.76462 19.9993C7.66118 20.9643 6.94535 22.2969 6.75 23.7496" stroke="#B9BEC4" stroke-width="1.5" stroke-linecap="round" stroke-linejoin="round"/>






</svg>
