<svg width="25" height="25" viewBox="0 0 25 25" fill="none" xmlns="http://www.w3.org/2000/svg">

<path d="M18.784 8.58418L22.497 4.87118C22.7782 4.58989 22.9362 4.20843 22.9362 3.81068C22.9362 3.41293 22.7782 3.03147 22.497 2.75018L21.436 1.68918C21.1547 1.40797 20.7732 1.25 20.3755 1.25C19.9777 1.25 19.5963 1.40797 19.315 1.68918L15.602 5.40018M9.23798 11.7662L15.602 5.40218L18.784 8.58418L12.42 14.9482L9.23798 11.7662ZM22.497 4.87118L23.557 5.93218C23.8382 6.21347 23.9962 6.59493 23.9962 6.99268C23.9962 7.39043 23.8382 7.77189 23.557 8.05318L18.784 12.8262L22.497 4.87118Z" stroke="#B9BEC4" stroke-width="1.5" stroke-linecap="round" stroke-linejoin="round"/>
<path d="M4.497 19.2503H3.75C3.15326 19.2503 2.58097 19.4873 2.15901 19.9093C1.73705 20.3312 1.5 20.9035 1.5 21.5003C1.5 22.097 1.73705 22.6693 2.15901 23.0912C2.58097 23.5132 3.15326 23.7503 3.75 23.7503H19.5M10.829 16.5393C9.951 17.4173 6.587 17.5993 6.587 17.5993C6.587 17.5993 6.769 14.2353 7.647 13.3573C8.06896 12.9353 8.64126 12.6982 9.238 12.6982C9.83474 12.6982 10.407 12.9353 10.829 13.3573C11.251 13.7792 11.488 14.3515 11.488 14.9483C11.488 15.545 11.251 16.1173 10.829 16.5393V16.5393Z" stroke="#B9BEC4" stroke-width="1.5" stroke-linecap="round" stroke-linejoin="round"/>






</svg>
