<svg width="25" height="25" viewBox="0 0 25 25" fill="none" xmlns="http://www.w3.org/2000/svg">
  <path d="M5.44899 9.28292C5.25115 9.399 5.08256 9.5589 4.9562 9.75034C4.82983 9.94178 4.74906 10.1597 4.72008 10.3872C4.69111 10.6147 4.71471 10.8459 4.78906 11.0629C4.86342 11.2799 4.98655 11.477 5.14899 11.6389L13.362 19.8519C13.524 20.0144 13.721 20.1375 13.938 20.2118C14.155 20.2862 14.3862 20.3098 14.6137 20.2808C14.8413 20.2519 15.0591 20.1711 15.2506 20.0447C15.442 19.9183 15.6019 19.7498 15.718 19.5519C16.6908 17.8783 16.9809 15.894 16.528 14.0119L23.057 9.85692C23.2465 9.73638 23.4066 9.57481 23.5253 9.38415C23.644 9.19348 23.7184 8.97859 23.743 8.75533C23.7676 8.53207 23.7417 8.30614 23.6673 8.09422C23.5928 7.88229 23.4718 7.68979 23.313 7.53092L17.47 1.68792C17.3112 1.5291 17.1187 1.40797 16.9069 1.33347C16.695 1.25896 16.4691 1.23299 16.2458 1.25747C16.0226 1.28194 15.8077 1.35624 15.617 1.47488C15.4262 1.59352 15.2646 1.75346 15.144 1.94292L10.989 8.47292C9.1069 8.01998 7.12263 8.3101 5.44899 9.28292V9.28292Z" stroke="#B9BEC4" stroke-width="2" stroke-linecap="round" stroke-linejoin="round"/>
  <path d="M9.253 15.7458L1.25 23.7488" stroke="#B9BEC4" stroke-width="2" stroke-linecap="round" stroke-linejoin="round"/>
</svg>
