<svg width="24" height="25" viewBox="0 0 24 25" fill="none" xmlns="http://www.w3.org/2000/svg">
<path d="M6.59998 20.3008C7.02172 20.3071 7.4408 20.369 7.84638 20.4848L10.7536 21.3152C11.1821 21.4377 11.6255 21.4999 12.0712 21.5H15.9792C17.1691 21.5 18.3167 21.058 19.1992 20.2598C20.0816 19.4616 20.6362 18.364 20.7552 17.18L20.9952 13.1C21.0376 12.2672 20.7896 11.4454 20.2935 10.7751C19.7975 10.1048 19.0841 9.62756 18.2752 9.4248L17.1112 9.1704C16.851 9.10589 16.62 8.95615 16.4548 8.74505C16.2897 8.53394 16.2 8.27363 16.2 8.0056V5.3C16.2 4.82261 16.0103 4.36477 15.6728 4.02721C15.3352 3.68964 14.8774 3.5 14.4 3.5C13.9226 3.5 13.4647 3.68964 13.1272 4.02721C12.7896 4.36477 12.6 4.82261 12.6 5.3V6.5432C12.6 8.1345 11.9678 9.66062 10.8426 10.7858C9.7174 11.9111 8.19127 12.5432 6.59998 12.5432V20.3008Z" stroke="#B9BEC4" stroke-width="2" stroke-linecap="round" stroke-linejoin="round"/>
<path d="M3 10.7H6.6V21.5H3V10.7Z" stroke="#B9BEC4" stroke-width="2" stroke-linecap="round" stroke-linejoin="round"/>
</svg>
