<svg width="24" height="25" viewBox="0 0 24 25" fill="none" xmlns="http://www.w3.org/2000/svg">
<path d="M9.40399 15.9618C9.40399 16.871 9.58306 17.7712 9.93097 18.6111C10.2789 19.4511 10.7888 20.2143 11.4317 20.8571C12.0746 21.5 12.8377 22.0099 13.6777 22.3578C14.5176 22.7058 15.4178 22.8848 16.327 22.8848C17.2361 22.8848 18.1364 22.7058 18.9763 22.3578C19.8162 22.0099 20.5794 21.5 21.2223 20.8571C21.8652 20.2143 22.3751 19.4511 22.723 18.6111C23.0709 17.7712 23.25 16.871 23.25 15.9618C23.25 15.0527 23.0709 14.1524 22.723 13.3125C22.3751 12.4726 21.8652 11.7094 21.2223 11.0665C20.5794 10.4237 19.8162 9.91371 18.9763 9.5658C18.1364 9.21789 17.2361 9.03882 16.327 9.03882C15.4178 9.03882 14.5176 9.21789 13.6777 9.5658C12.8377 9.91371 12.0746 10.4237 11.4317 11.0665C10.7888 11.7094 10.2789 12.4726 9.93097 13.3125C9.58306 14.1524 9.40399 15.0527 9.40399 15.9618V15.9618Z" stroke="#B9BEC4" stroke-width="2" stroke-linecap="round" stroke-linejoin="round"/>
<path d="M9.245 2.51093C9.20464 2.39538 9.12935 2.29525 9.02955 2.22439C8.92975 2.15354 8.81039 2.11548 8.688 2.11548C8.56561 2.11548 8.44625 2.15354 8.34645 2.22439C8.24665 2.29525 8.17136 2.39538 8.131 2.51093L0.881002 14.9999C0.574001 15.5279 0.825002 15.9609 1.439 15.9609H15.939C16.553 15.9609 16.804 15.5279 16.497 14.9999L9.245 2.51093Z" stroke="#B9BEC4" stroke-width="2" stroke-linecap="round" stroke-linejoin="round"/>
</svg>
