<svg width="25" height="25" viewBox="0 0 25 25" fill="none" xmlns="http://www.w3.org/2000/svg">

<path d="M24.009 9.5L12.759 1.25L1.50897 9.5" stroke="#B9BEC4" stroke-width="1.5" stroke-linecap="round" stroke-linejoin="round"/>
<path d="M3.75897 13.25C3.75897 14.0456 4.07504 14.8087 4.63765 15.3713C5.20026 15.9339 5.96332 16.25 6.75897 16.25C7.55462 16.25 8.31768 15.9339 8.88029 15.3713C9.4429 14.8087 9.75897 14.0456 9.75897 13.25C9.75897 12.4544 9.4429 11.6913 8.88029 11.1287C8.31768 10.5661 7.55462 10.25 6.75897 10.25C5.96332 10.25 5.20026 10.5661 4.63765 11.1287C4.07504 11.6913 3.75897 12.4544 3.75897 13.25Z" stroke="#B9BEC4" stroke-width="1.5" stroke-linecap="round" stroke-linejoin="round"/>
<path d="M8.25897 18.0059C7.58012 17.7659 6.85359 17.6923 6.1404 17.7913C5.42721 17.8902 4.74818 18.1589 4.16034 18.5747C3.5725 18.9905 3.09302 19.5413 2.76217 20.1808C2.43132 20.8203 2.25875 21.5299 2.25897 22.2499" stroke="#B9BEC4" stroke-width="1.5" stroke-linecap="round" stroke-linejoin="round"/>
<path d="M23.259 22.2499C23.2592 21.5299 23.0866 20.8203 22.7558 20.1808C22.4249 19.5413 21.9454 18.9905 21.3576 18.5747C20.7698 18.1589 20.0907 17.8902 19.3775 17.7913C18.6643 17.6923 17.9378 17.7659 17.259 18.0059" stroke="#B9BEC4" stroke-width="1.5" stroke-linecap="round" stroke-linejoin="round"/>
<path d="M15.759 13.25C15.759 14.0456 16.075 14.8087 16.6377 15.3713C17.2003 15.9339 17.9633 16.25 18.759 16.25C19.5546 16.25 20.3177 15.9339 20.8803 15.3713C21.4429 14.8087 21.759 14.0456 21.759 13.25C21.759 12.4544 21.4429 11.6913 20.8803 11.1287C20.3177 10.5661 19.5546 10.25 18.759 10.25C17.9633 10.25 17.2003 10.5661 16.6377 11.1287C16.075 11.6913 15.759 12.4544 15.759 13.25Z" stroke="#B9BEC4" stroke-width="1.5" stroke-linecap="round" stroke-linejoin="round"/>
<path d="M10.509 18.5C10.509 19.0967 10.746 19.669 11.168 20.091C11.5899 20.5129 12.1622 20.75 12.759 20.75C13.3557 20.75 13.928 20.5129 14.35 20.091C14.7719 19.669 15.009 19.0967 15.009 18.5C15.009 17.9033 14.7719 17.331 14.35 16.909C13.928 16.4871 13.3557 16.25 12.759 16.25C12.1622 16.25 11.5899 16.4871 11.168 16.909C10.746 17.331 10.509 17.9033 10.509 18.5Z" stroke="#B9BEC4" stroke-width="1.5" stroke-linecap="round" stroke-linejoin="round"/>
<path d="M16.656 23.7499C16.2609 23.0661 15.6929 22.4983 15.0089 22.1036C14.325 21.7088 13.5492 21.501 12.7595 21.501C11.9698 21.501 11.194 21.7088 10.51 22.1036C9.82605 22.4983 9.25802 23.0661 8.86298 23.7499" stroke="#B9BEC4" stroke-width="1.5" stroke-linecap="round" stroke-linejoin="round"/>






</svg>
