<svg width="27" height="27" viewBox="0 0 27 27" fill="none" xmlns="http://www.w3.org/2000/svg">
<path d="M13.4994 1.5C11.3665 1.50024 9.2722 2.06895 7.43215 3.14757C5.59211 4.22619 4.0728 5.77575 3.03066 7.6367C1.98851 9.49765 1.4612 11.6027 1.503 13.7352C1.54481 15.8677 2.15422 17.9505 3.2685 19.7691L1.55421 24.3429C1.50579 24.4725 1.48946 24.6119 1.50662 24.7492C1.52377 24.8864 1.57391 25.0175 1.65275 25.1312C1.73158 25.2449 1.83676 25.3379 1.95932 25.4021C2.08187 25.4663 2.21814 25.4999 2.3565 25.5C2.40825 25.5005 2.45993 25.4959 2.51079 25.4863L8.49879 24.396C10.065 25.1247 11.7719 25.5016 13.4994 25.5C16.682 25.5 19.7342 24.2357 21.9846 21.9853C24.2351 19.7348 25.4994 16.6826 25.4994 13.5C25.4994 10.3174 24.2351 7.26516 21.9846 5.01472C19.7342 2.76428 16.682 1.5 13.4994 1.5V1.5ZM9.21364 13.5891C9.19078 14.0282 9.00013 14.4416 8.68108 14.7441C8.36203 15.0466 7.93898 15.2149 7.49936 15.2143H7.4085C7.07022 15.1959 6.74497 15.0777 6.47382 14.8746C6.20267 14.6715 5.99778 14.3926 5.88502 14.0731C5.77225 13.7537 5.75667 13.408 5.84023 13.0797C5.9238 12.7513 6.10277 12.4552 6.35455 12.2285C6.60633 12.0018 6.91962 11.8548 7.25487 11.8061C7.59013 11.7573 7.93231 11.809 8.23821 11.9546C8.54412 12.1002 8.80003 12.3331 8.97364 12.624C9.14724 12.915 9.23076 13.2508 9.21364 13.5891V13.5891ZM15.2136 13.5891C15.1908 14.0282 15.0001 14.4416 14.6811 14.7441C14.362 15.0466 13.939 15.2149 13.4994 15.2143H13.4085C13.1831 15.2027 12.9622 15.1467 12.7586 15.0495C12.5549 14.9523 12.3724 14.8159 12.2216 14.648C12.0707 14.4801 11.9545 14.2841 11.8796 14.0712C11.8047 13.8583 11.7726 13.6328 11.7851 13.4074C11.8033 13.069 11.9214 12.7436 12.1245 12.4723C12.3276 12.201 12.6066 11.996 12.9262 11.8831C13.2458 11.7703 13.5916 11.7548 13.92 11.8384C14.2484 11.9221 14.5447 12.1012 14.7714 12.3531C14.9235 12.5195 15.0409 12.7144 15.1168 12.9266C15.1928 13.1389 15.2257 13.3641 15.2136 13.5891ZM21.2136 13.5891C21.1908 14.0282 21.0001 14.4416 20.6811 14.7441C20.362 15.0466 19.939 15.2149 19.4994 15.2143H19.4068C19.1816 15.2025 18.9609 15.1463 18.7574 15.049C18.5539 14.9517 18.3716 14.8153 18.2209 14.6474C18.0703 14.4796 17.9542 14.2836 17.8794 14.0709C17.8047 13.8581 17.7726 13.6326 17.7851 13.4074C17.8129 12.9543 18.0178 12.5303 18.3556 12.2269C18.6933 11.9235 19.1367 11.7651 19.5902 11.7857C19.8153 11.7973 20.0359 11.8532 20.2393 11.9502C20.4428 12.0472 20.6251 12.1833 20.7759 12.3508C20.9267 12.5183 21.043 12.7139 21.1181 12.9264C21.1932 13.1389 21.2257 13.3641 21.2136 13.5891Z" stroke="#B9BEC4" stroke-width="1.5" stroke-linecap="round" stroke-linejoin="round"/>
</svg>
