<svg width="24" height="25" viewBox="0 0 24 25" fill="none" xmlns="http://www.w3.org/2000/svg">
<path d="M3.375 8.375C3.375 9.46902 3.8096 10.5182 4.58318 11.2918C5.35677 12.0654 6.40598 12.5 7.5 12.5C8.59402 12.5 9.64323 12.0654 10.4168 11.2918C11.1904 10.5182 11.625 9.46902 11.625 8.375C11.625 7.28098 11.1904 6.23177 10.4168 5.45818C9.64323 4.6846 8.59402 4.25 7.5 4.25C6.40598 4.25 5.35677 4.6846 4.58318 5.45818C3.8096 6.23177 3.375 7.28098 3.375 8.375V8.375Z" stroke="#B9BEC4" stroke-width="1.5" stroke-linecap="round" stroke-linejoin="round"/>
<path d="M0.75 20.75C0.75 18.9598 1.46116 17.2429 2.72703 15.977C3.9929 14.7112 5.70979 14 7.5 14C9.29021 14 11.0071 14.7112 12.273 15.977C13.5388 17.2429 14.25 18.9598 14.25 20.75" stroke="#B9BEC4" stroke-width="1.5" stroke-linecap="round" stroke-linejoin="round"/>
<path d="M14.251 4.91605C14.8739 4.51133 15.5944 4.28232 16.3367 4.25318C17.0789 4.22404 17.8152 4.39585 18.4679 4.75049C19.1206 5.10512 19.6654 5.62941 20.0448 6.268C20.4242 6.90659 20.6241 7.63578 20.6235 8.37858C20.6229 9.12138 20.4216 9.85022 20.0411 10.4882C19.6606 11.1261 19.1149 11.6494 18.4616 12.0029C17.8083 12.3564 17.0717 12.527 16.3295 12.4965C15.5873 12.4661 14.8672 12.2358 14.245 11.83" stroke="#B9BEC4" stroke-width="1.5" stroke-linecap="round" stroke-linejoin="round"/>
<path d="M15 14.167C15.9886 13.943 17.0148 13.9444 18.0028 14.1708C18.9908 14.3973 19.9151 14.8432 20.7074 15.4754C21.4997 16.1076 22.1396 16.9099 22.5798 17.823C23.0199 18.736 23.249 19.7364 23.25 20.75" stroke="#B9BEC4" stroke-width="1.5" stroke-linecap="round" stroke-linejoin="round"/>
</svg>
