<svg width="25" height="25" viewBox="0 0 25 25" fill="none" xmlns="http://www.w3.org/2000/svg">

<path d="M5.5 1.5V3.5" stroke="#B9BEC4" stroke-width="1.5" stroke-linecap="round" stroke-linejoin="round"/>
<path d="M3.5 5.5H1.5" stroke="#B9BEC4" stroke-width="1.5" stroke-linecap="round" stroke-linejoin="round"/>
<path d="M3.5 19.5H1.5" stroke="#B9BEC4" stroke-width="1.5" stroke-linecap="round" stroke-linejoin="round"/>
<path d="M19.5 1.5V3.5" stroke="#B9BEC4" stroke-width="1.5" stroke-linecap="round" stroke-linejoin="round"/>
<path d="M5.5 21.5V23.5" stroke="#B9BEC4" stroke-width="1.5" stroke-linecap="round" stroke-linejoin="round"/>
<path d="M19.5 21.5V23.5" stroke="#B9BEC4" stroke-width="1.5" stroke-linecap="round" stroke-linejoin="round"/>
<path d="M23.5 5.5H21.5" stroke="#B9BEC4" stroke-width="1.5" stroke-linecap="round" stroke-linejoin="round"/>
<path d="M23.5 19.5H21.5" stroke="#B9BEC4" stroke-width="1.5" stroke-linecap="round" stroke-linejoin="round"/>
<path d="M5.5 5.5H19.5V19.5H5.5V5.5Z" stroke="#B9BEC4" stroke-width="1.5" stroke-linecap="round" stroke-linejoin="round"/>
<path d="M11.5 14.5H9C8.86739 14.5 8.74021 14.4473 8.64645 14.3536C8.55268 14.2598 8.5 14.1326 8.5 14V9C8.5 8.86739 8.55268 8.74021 8.64645 8.64645C8.74021 8.55268 8.86739 8.5 9 8.5H13C13.1326 8.5 13.2598 8.55268 13.3536 8.64645C13.4473 8.74021 13.5 8.86739 13.5 9V10.5" stroke="#B9BEC4" stroke-width="1.5" stroke-linecap="round" stroke-linejoin="round"/>
<path d="M11.5 10.5H16.5V16.5H11.5V10.5Z" stroke="#B9BEC4" stroke-width="1.5" stroke-linecap="round" stroke-linejoin="round"/>






</svg>
