<svg width="18" height="18" viewBox="0 0 18 18" fill="none" xmlns="http://www.w3.org/2000/svg">
<path fill-rule="evenodd" clip-rule="evenodd" d="M6.96985 0.00740522C6.78567 0.0296604 6.61923 0.0789012 6.44785 0.161838C5.9731 0.39159 5.64001 0.854212 5.56909 1.38232C5.56351 1.4239 5.55887 1.46358 5.5588 1.47052C5.55866 1.48243 5.51857 1.48312 4.81885 1.48312C4.11574 1.48312 4.07477 1.48382 3.99265 1.49736C3.80161 1.52885 3.62793 1.60032 3.47116 1.71196C3.31385 1.82399 3.15826 2.01056 3.08213 2.17846L3.06115 2.22472H2.08866C1.25312 2.22472 1.10577 2.22626 1.0424 2.23572C0.723478 2.28331 0.437228 2.45452 0.245694 2.71224C0.115215 2.88782 0.0382689 3.07633 0.0111969 3.28672C0.00123208 3.36418 0.000317677 4.07422 0.00234088 10.1519C0.00440008 16.3484 0.00558808 16.9354 0.0161721 16.9847C0.0465129 17.1262 0.0742761 17.2104 0.124611 17.3136C0.239746 17.5498 0.428271 17.742 0.663366 17.8631C0.778342 17.9222 0.862928 17.9513 1.01545 17.984C1.06477 17.9946 1.59269 17.9958 7.10665 17.9978C12.5342 17.9999 13.1526 17.999 13.2302 17.9889C13.7801 17.9177 14.2014 17.4999 14.2865 16.9415C14.2939 16.893 14.2959 16.5929 14.2959 15.4943C14.2959 14.1708 14.2953 14.1062 14.2826 14.0616C14.2373 13.9018 14.1219 13.7802 13.9639 13.7257C13.9145 13.7087 13.8957 13.7061 13.8207 13.706C13.6809 13.7058 13.5886 13.7406 13.4923 13.8297C13.4108 13.9052 13.3598 13.9931 13.3421 14.0887C13.3371 14.1155 13.3347 14.5722 13.3347 15.4547C13.3347 16.3815 13.3323 16.7933 13.3268 16.823C13.3085 16.9221 13.2368 17.0003 13.14 17.0268C13.1148 17.0337 11.8167 17.0351 7.13185 17.0335L1.15585 17.0315L1.11624 17.0129C1.06561 16.9892 1.01099 16.9346 0.987236 16.8839L0.968653 16.8443V10.1123V3.38032L0.988006 3.33902C1.01132 3.28929 1.06358 3.23565 1.11265 3.21112L1.14865 3.19312L2.05293 3.19121L2.95721 3.1893L2.96178 3.37481C2.96644 3.564 2.97505 3.64406 3.00203 3.74907C3.1126 4.17938 3.45505 4.52062 3.88493 4.62887C4.03949 4.66779 3.83703 4.66552 7.14708 4.66552C9.86817 4.66552 10.2128 4.66429 10.2809 4.65438C10.5421 4.61637 10.7685 4.50568 10.9577 4.32352C11.1241 4.16324 11.232 3.9808 11.2924 3.75734C11.3229 3.64477 11.3331 3.54468 11.3331 3.35839V3.18935L12.2385 3.19124L13.1439 3.19312L13.1834 3.21179C13.236 3.23657 13.2815 3.28338 13.3088 3.34072L13.331 3.38752L13.3347 4.76272L13.3383 6.13792L13.3535 6.18237C13.379 6.25663 13.4201 6.32144 13.4788 6.38018C13.5236 6.42497 13.5466 6.44135 13.6017 6.46778C13.6832 6.50689 13.7234 6.51592 13.8163 6.51592C13.9579 6.51592 14.0536 6.47544 14.1565 6.372C14.2069 6.32131 14.2242 6.29792 14.2476 6.24887C14.2995 6.1398 14.2959 6.25405 14.2959 4.72672C14.2959 3.24404 14.2971 3.2965 14.2593 3.14632C14.1582 2.74422 13.8556 2.41711 13.4638 2.28658C13.4225 2.27281 13.3562 2.25418 13.3167 2.24519L13.2447 2.22882L12.2411 2.22497L11.2376 2.22112L11.204 2.15632C11.0403 1.84 10.7539 1.60665 10.4259 1.52236C10.286 1.48643 10.3196 1.48784 9.50448 1.48355L8.73791 1.47952L8.72929 1.40181C8.69223 1.06732 8.53859 0.741906 8.29975 0.49208C8.06198 0.243371 7.76171 0.0831276 7.41625 0.0206028C7.32219 0.00357482 7.06456 -0.00404278 6.96985 0.00740522ZM7.05265 0.96939C6.79475 1.0107 6.58607 1.20816 6.53402 1.46015C6.52129 1.52177 6.51948 1.64835 6.5305 1.70632C6.55643 1.84275 6.61607 1.95089 6.71971 2.04932C6.83888 2.16253 6.97802 2.21752 7.14532 2.21752C7.26628 2.21752 7.3822 2.18757 7.4679 2.13419C7.67515 2.00509 7.78792 1.79067 7.77406 1.55205C7.76392 1.37736 7.68882 1.23014 7.54697 1.10688C7.49388 1.06075 7.38127 1.00124 7.31185 0.982624C7.26895 0.971125 7.09674 0.962327 7.05265 0.96939ZM4.09023 2.46373C4.03462 2.48508 3.96757 2.55257 3.94502 2.60992L3.92803 2.65312L3.92794 3.07432L3.92785 3.49552L3.94456 3.5369C3.96643 3.59105 4.01994 3.64893 4.073 3.6758L4.11505 3.69712H7.14625H10.1775L10.2185 3.67789C10.2708 3.65337 10.3209 3.60325 10.3454 3.55093L10.3647 3.50992V3.07432V2.63872L10.3454 2.59771C10.3209 2.54538 10.2708 2.49526 10.2185 2.47074L10.1775 2.45152L9.33452 2.44963L8.49159 2.44774L8.46705 2.48563C8.39004 2.60458 8.22979 2.77244 8.10385 2.86608C7.89409 3.02205 7.67382 3.11633 7.40545 3.16501C7.30413 3.18339 7.06707 3.1869 6.94783 3.17178C6.61024 3.12901 6.30029 2.98111 6.04205 2.7396C5.98795 2.689 5.89766 2.5826 5.84191 2.50372L5.80246 2.44792L4.96596 2.44829C4.13502 2.44867 4.12919 2.44877 4.09023 2.46373ZM16.0239 5.94755C15.6802 5.98318 15.3675 6.10802 15.0915 6.3198C15.0144 6.37889 10.4942 10.8943 10.4551 10.9511C10.4402 10.9729 10.4222 11.0018 10.4153 11.0154C10.3939 11.057 9.64173 13.6996 9.63438 13.759C9.62318 13.8494 9.64158 13.9555 9.68246 14.0363C9.72006 14.1107 9.77859 14.173 9.84821 14.218C9.94251 14.2789 10.0572 14.3081 10.1678 14.2927C10.1921 14.2893 10.8522 14.104 11.5128 13.9167C12.1459 13.7372 12.7795 13.5559 12.854 13.5315C12.9756 13.4915 12.8326 13.6299 15.2686 11.1935C16.5045 9.95733 17.5385 8.91838 17.5662 8.88472C17.7907 8.61239 17.9235 8.30884 17.9725 7.95592C17.9868 7.85317 17.9848 7.58373 17.969 7.48072C17.89 6.96452 17.6118 6.52489 17.1831 6.23874C16.9623 6.09137 16.7276 6.00214 16.4422 5.95696C16.3611 5.94413 16.1111 5.93851 16.0239 5.94755ZM16.0599 6.91615C15.9361 6.93792 15.8026 6.99333 15.7068 7.06264C15.6832 7.07974 14.6781 8.07909 13.4732 9.28342L11.2826 11.4731L11.0492 12.2902C10.9208 12.7397 10.8174 13.1091 10.8174 13.1091C10.8174 13.1091 11.1864 13.0059 11.6352 12.8777L12.4512 12.6445L14.6214 10.4748C15.8151 9.28148 16.814 8.27758 16.8414 8.24392C16.8959 8.17673 16.9598 8.05662 16.9847 7.97433C17.0997 7.59422 16.9273 7.18223 16.5769 6.99992C16.4205 6.91855 16.2256 6.88698 16.0599 6.91615Z" fill="#878D96"/>
<path fill-rule="evenodd" clip-rule="evenodd" d="M7.21901 5.94755C7.19921 5.949 7.12793 5.95369 7.06061 5.95797C6.74968 5.97778 6.37694 6.04281 6.06701 6.13129C5.03998 6.42453 4.15045 7.02022 3.48234 7.86218C2.92257 8.56761 2.55846 9.43634 2.44574 10.3354C2.41635 10.5697 2.40946 10.6909 2.40946 10.9726C2.40946 11.2543 2.41635 11.3754 2.44574 11.6098C2.55879 12.5115 2.92117 13.3751 3.48495 14.0866C4.30982 15.1275 5.49531 15.7985 6.79781 15.9618C7.03214 15.9912 7.15333 15.9981 7.43501 15.9981C7.71668 15.9981 7.83787 15.9912 8.07221 15.9618C8.5768 15.8986 8.8046 15.8787 9.2667 15.6667C9.60003 15.4667 9.2667 14.5333 8.60003 14.8469C8.8573 14.7173 9.25881 14.515 9.25881 14.515L9.84821 14.218L10.5 14L11.5128 13.9167C11.7088 13.6461 10.3627 13.8034 10.5 13.5C10.7469 12.9543 10.7664 12.2285 10.8174 11.6098C10.829 11.4697 11.8019 9.47512 12.2385 9.92138C12.1738 9.13908 11.6667 8.2 11.6667 8.2C11.275 7.51651 10.8198 7.16766 10.1536 6.74069C9.45642 6.29381 8.68243 6.03095 7.85701 5.96075C7.73895 5.95071 7.30009 5.94163 7.21901 5.94755ZM7.11101 6.94059C6.31584 7.00534 5.56154 7.30008 4.94021 7.78884C4.70131 7.97676 4.44968 8.22715 4.2623 8.46338C3.81228 9.03073 3.51898 9.72286 3.42474 10.4398C3.38175 10.7668 3.38177 11.1791 3.42477 11.5054C3.47557 11.8907 3.58347 12.2688 3.74789 12.6374C4.1416 13.5202 4.88747 14.2661 5.77017 14.6597C6.3109 14.9008 6.84614 15.0151 7.43501 15.0151C7.84139 15.0151 8.21024 14.9618 8.60003 14.8469C9.08748 14.6013 9.84821 14.218 9.84821 14.218C10.1352 14.0038 10.3956 13.7508 10.6185 13.4674C11.0327 12.9408 10.8461 12.4477 10.9577 11.7858C11.042 11.2857 11.9197 9.7885 12.1256 9.31369L12.0174 9L11.9407 8.79801L11.8578 8.6L11.7666 8.4L11.6667 8.2C11.9334 8.66667 11.2 9.2 10.8667 8.86667C10.8667 8.86667 10.4942 8.27589 10.099 7.9303C9.48866 7.39661 8.73927 7.05908 7.94261 6.95905C7.71093 6.92996 7.34215 6.92177 7.11101 6.94059ZM9.37181 9.15922C9.29115 9.16853 9.21355 9.19687 9.14726 9.24128C9.1282 9.25404 8.54486 9.83178 7.85094 10.5252L6.58927 11.7858L6.18054 11.3786C5.95574 11.1546 5.75618 10.9608 5.73707 10.9478C5.64039 10.8825 5.54449 10.8566 5.42174 10.8628C5.30071 10.8689 5.21118 10.9064 5.11957 10.9893C4.94083 11.151 4.90999 11.4383 5.05045 11.6329C5.06839 11.6578 5.35467 11.9491 5.68664 12.2803C6.34252 12.9346 6.32734 12.921 6.44501 12.9575C6.51552 12.9793 6.65492 12.9809 6.72221 12.9607C6.78754 12.941 6.8565 12.902 6.91467 12.8517C6.94346 12.8268 7.60569 12.167 8.3863 11.3855C9.3184 10.4523 9.81541 9.94975 9.8342 9.92138C9.9843 9.69474 9.92264 9.39432 9.69394 9.23806C9.60545 9.1776 9.47961 9.1468 9.37181 9.15922Z" fill="#878D96"/>
</svg>
