<svg width="24" height="25" viewBox="0 0 24 25" fill="none" xmlns="http://www.w3.org/2000/svg">
<g clip-path="url(#clip0_14200_304645)">
<path d="M9.425 20.075L7.5 22V18H1.5C1.23478 18 0.98043 17.8946 0.792893 17.7071C0.605357 17.5196 0.5 17.2652 0.5 17V2C0.5 1.73478 0.605357 1.48043 0.792893 1.29289C0.98043 1.10536 1.23478 1 1.5 1H19.5C19.7652 1 20.0196 1.10536 20.2071 1.29289C20.3946 1.48043 20.5 1.73478 20.5 2V9" stroke="#212B3D" stroke-width="1.5" stroke-linecap="round" stroke-linejoin="round"/>
<path d="M11.5 19C11.5 19.2652 11.6054 19.5196 11.7929 19.7071C11.9804 19.8946 12.2348 20 12.5 20H16.5L20.5 24V20H22.5C22.7652 20 23.0196 19.8946 23.2071 19.7071C23.3946 19.5196 23.5 19.2652 23.5 19V12C23.5 11.7348 23.3946 11.4804 23.2071 11.2929C23.0196 11.1054 22.7652 11 22.5 11H12.5C12.2348 11 11.9804 11.1054 11.7929 11.2929C11.6054 11.4804 11.5 11.7348 11.5 12V19Z" stroke="#212B3D" stroke-width="1.5" stroke-linecap="round" stroke-linejoin="round"/>
<path d="M7.5 6.50048C7.50009 6.13385 7.60096 5.7743 7.79158 5.46112C7.9822 5.14795 8.25524 4.89319 8.58085 4.7247C8.90647 4.55621 9.27214 4.48046 9.63789 4.50574C10.0036 4.53102 10.3554 4.65634 10.6548 4.86803C10.9541 5.07971 11.1895 5.3696 11.3352 5.70603C11.481 6.04245 11.5314 6.41246 11.4811 6.77561C11.4307 7.13877 11.2815 7.4811 11.0498 7.76519C10.818 8.04928 10.5126 8.26421 10.167 8.38648C9.97194 8.45537 9.80304 8.58305 9.68358 8.75194C9.56413 8.92083 9.49998 9.12261 9.5 9.32948V10.0005" stroke="#212B3D" stroke-width="1.5" stroke-linecap="round" stroke-linejoin="round"/>
<path d="M17.5 15V13" stroke="#212B3D" stroke-width="1.5" stroke-linecap="round" stroke-linejoin="round"/>
<path d="M9.5 12.5C9.36193 12.5 9.25 12.3881 9.25 12.25C9.25 12.1119 9.36193 12 9.5 12" stroke="#212B3D" stroke-width="1.5"/>
<path d="M9.5 12.5C9.63807 12.5 9.75 12.3881 9.75 12.25C9.75 12.1119 9.63807 12 9.5 12" stroke="#212B3D" stroke-width="1.5"/>
<path d="M17.5 17.5C17.3619 17.5 17.25 17.3881 17.25 17.25C17.25 17.1119 17.3619 17 17.5 17" stroke="#212B3D"/>
<path d="M17.5 17.5C17.6381 17.5 17.75 17.3881 17.75 17.25C17.75 17.1119 17.6381 17 17.5 17" stroke="#212B3D"/>
</g>
<defs>
<clipPath id="clip0_14200_304645">
<rect width="24" height="24" fill="white" transform="translate(0 0.5)"/>
</clipPath>
</defs>
</svg>
