<svg width="24" height="24" viewBox="0 0 24 24" fill="none" xmlns="http://www.w3.org/2000/svg">
<g clip-path="url(#clip0_539_2914)">
<path d="M12.729 1.19989L16.075 7.82889L22.515 8.46689C22.6683 8.47963 22.8147 8.53604 22.937 8.62943C23.0592 8.72282 23.1522 8.84928 23.2048 8.99385C23.2574 9.13842 23.2675 9.29503 23.2338 9.44515C23.2002 9.59526 23.1243 9.7326 23.015 9.84089L17.715 15.0939L19.68 22.2319C19.7202 22.3833 19.7158 22.5431 19.6673 22.6921C19.6189 22.841 19.5284 22.9728 19.4068 23.0716C19.2852 23.1704 19.1377 23.2319 18.982 23.2488C18.8262 23.2657 18.6689 23.2373 18.529 23.1669L12 19.9339L5.47998 23.1629C5.34003 23.2333 5.18273 23.2617 5.02699 23.2448C4.87126 23.2279 4.72373 23.1664 4.60214 23.0676C4.48055 22.9688 4.39009 22.837 4.34163 22.6881C4.29317 22.5391 4.28878 22.3793 4.32898 22.2279L6.29398 15.0899L0.989983 9.83689C0.880715 9.7286 0.804766 9.59126 0.771127 9.44115C0.737489 9.29103 0.747571 9.13442 0.800179 8.98985C0.852787 8.84528 0.945717 8.71882 1.06797 8.62543C1.19022 8.53204 1.33667 8.47564 1.48998 8.46289L7.92998 7.82489L11.271 1.19989C11.3397 1.06569 11.4441 0.953066 11.5727 0.874417C11.7014 0.795767 11.8492 0.75415 12 0.75415C12.1508 0.75415 12.2986 0.795767 12.4272 0.874417C12.5558 0.953066 12.6603 1.06569 12.729 1.19989V1.19989Z" stroke="#212B3D" stroke-width="1.5" stroke-linecap="round" stroke-linejoin="round"/>
</g>
<defs>
<clipPath id="clip0_539_2914">
<rect width="24" height="24" fill="white"/>
</clipPath>
</defs>
</svg>
