<svg width="26" height="26" viewBox="0 0 26 26" fill="none" xmlns="http://www.w3.org/2000/svg">
<path d="M9.34783 25H1.52174C1.38337 25 1.25066 24.945 1.15281 24.8472C1.05497 24.7493 1 24.6166 1 24.4782V15.0869C1 14.9486 1.05497 14.8158 1.15281 14.718C1.25066 14.6202 1.38337 14.5652 1.52174 14.5652H8.30435" stroke="#212B3D" stroke-width="1.5" stroke-linecap="round" stroke-linejoin="round"/>
<path d="M17.6956 14.5652H24.4782C24.6166 14.5652 24.7493 14.6202 24.8472 14.718C24.945 14.8158 25 14.9486 25 15.0869V24.4782C25 24.6166 24.945 24.7493 24.8472 24.8472C24.7493 24.945 24.6166 25 24.4782 25H16.6522" stroke="#212B3D" stroke-width="1.5" stroke-linecap="round" stroke-linejoin="round"/>
<path d="M19.7826 16.6521H22.913V18.7391H19.7826V16.6521Z" stroke="#212B3D" stroke-width="1.5" stroke-linecap="round" stroke-linejoin="round"/>
<path d="M22.913 22.9131H19.7826V21.3479C19.7826 21.2095 19.8376 21.0768 19.9354 20.979C20.0333 20.8811 20.166 20.8262 20.3043 20.8262H22.3913C22.5297 20.8262 22.6624 20.8811 22.7602 20.979C22.8581 21.0768 22.913 21.2095 22.913 21.3479V22.9131Z" stroke="#212B3D" stroke-width="1.5" stroke-linecap="round" stroke-linejoin="round"/>
<path d="M3.08698 16.6521H6.21741V18.7391H3.08698V16.6521Z" stroke="#212B3D" stroke-width="1.5" stroke-linecap="round" stroke-linejoin="round"/>
<path d="M3.08698 20.8262H6.21741V22.9131H3.08698V20.8262Z" stroke="#212B3D" stroke-width="1.5" stroke-linecap="round" stroke-linejoin="round"/>
<path d="M14.5652 20.3042C14.5652 19.8891 14.4003 19.491 14.1067 19.1975C13.8132 18.9039 13.4151 18.739 13 18.739C12.5848 18.739 12.1867 18.9039 11.8932 19.1975C11.5997 19.491 11.4348 19.8891 11.4348 20.3042V24.9999H14.5652V20.3042Z" stroke="#212B3D" stroke-width="1.5" stroke-linecap="round" stroke-linejoin="round"/>
<path d="M12.4783 7.29002V4.13037" stroke="#212B3D" stroke-width="1.5" stroke-linecap="round" stroke-linejoin="round"/>
<path d="M12.4783 1H16.6522C16.7906 1 16.9233 1.05497 17.0211 1.15281C17.119 1.25066 17.1739 1.38337 17.1739 1.52174V3.6087C17.1739 3.74707 17.119 3.87978 17.0211 3.97762C16.9233 4.07547 16.7906 4.13043 16.6522 4.13043H12.4783V1Z" stroke="#212B3D" stroke-width="1.5" stroke-linecap="round" stroke-linejoin="round"/>
<path d="M11.4348 11.9566C11.4348 12.3717 11.5997 12.7698 11.8932 13.0634C12.1867 13.3569 12.5848 13.5218 13 13.5218C13.4151 13.5218 13.8132 13.3569 14.1067 13.0634C14.4003 12.7698 14.5652 12.3717 14.5652 11.9566C14.5652 11.5415 14.4003 11.1433 14.1067 10.8498C13.8132 10.5563 13.4151 10.3914 13 10.3914C12.5848 10.3914 12.1867 10.5563 11.8932 10.8498C11.5997 11.1433 11.4348 11.5415 11.4348 11.9566V11.9566Z" stroke="#212B3D" stroke-width="1.5" stroke-linecap="round" stroke-linejoin="round"/>
<path d="M17.6956 11.9566C17.6956 10.7113 17.2009 9.51692 16.3203 8.63631C15.4397 7.75571 14.2453 7.26099 13 7.26099C11.7546 7.26099 10.5603 7.75571 9.67965 8.63631C8.79904 9.51692 8.30432 10.7113 8.30432 11.9566V25.0001H17.6956V11.9566Z" stroke="#212B3D" stroke-width="1.5" stroke-linecap="round" stroke-linejoin="round"/>
</svg>
