<svg width="24" height="24" viewBox="0 0 24 24" fill="none" xmlns="http://www.w3.org/2000/svg">
<path d="M2.25 3.75C2.25 4.54565 2.56607 5.30871 3.12868 5.87132C3.69129 6.43393 4.45435 6.75 5.25 6.75C6.04565 6.75 6.80871 6.43393 7.37132 5.87132C7.93393 5.30871 8.25 4.54565 8.25 3.75C8.25 2.95435 7.93393 2.19129 7.37132 1.62868C6.80871 1.06607 6.04565 0.75 5.25 0.75C4.45435 0.75 3.69129 1.06607 3.12868 1.62868C2.56607 2.19129 2.25 2.95435 2.25 3.75V3.75Z" stroke="#212B3D" stroke-width="2" stroke-linecap="round" stroke-linejoin="round"/>
<path d="M7.5 23.25L8.25 15.75H9.75V12.75C9.75 11.5565 9.27589 10.4119 8.43198 9.56802C7.58807 8.72411 6.44347 8.25 5.25 8.25C4.05653 8.25 2.91193 8.72411 2.06802 9.56802C1.22411 10.4119 0.75 11.5565 0.75 12.75V15.75H2.25L3 23.25H7.5Z" stroke="#212B3D" stroke-width="2" stroke-linecap="round" stroke-linejoin="round"/>
<path d="M12.75 16.5H21.75C22.1478 16.5 22.5294 16.342 22.8107 16.0607C23.092 15.7794 23.25 15.3978 23.25 15V2.25C23.25 1.85218 23.092 1.47064 22.8107 1.18934C22.5294 0.908035 22.1478 0.75 21.75 0.75H11.25" stroke="#212B3D" stroke-width="2" stroke-linecap="round" stroke-linejoin="round"/>
</svg>
