<svg width="24" height="24" viewBox="0 0 24 24" fill="none" xmlns="http://www.w3.org/2000/svg">
<g clip-path="url(#clip0_453_1132)">
<path d="M14.75 16.5H21.75C22.1478 16.5 22.5294 16.342 22.8107 16.0607C23.092 15.7794 23.25 15.3978 23.25 15V2.25C23.25 1.85218 23.092 1.47064 22.8107 1.18934C22.5294 0.908035 22.1478 0.75 21.75 0.75H11.25" stroke="#212B3D" stroke-width="1.5" stroke-linecap="round" stroke-linejoin="round"/>
<path d="M8.75 23.25L9.5 18.75H12.5L10.25 12C9.5 9.75 8.571 8.25 6.5 8.25C4.429 8.25 3.5 9.75 2.75 12L0.5 18.75H3.5L4.25 23.25H8.75Z" stroke="#212B3D" stroke-width="1.5" stroke-linecap="round" stroke-linejoin="round"/>
<path d="M3.5 3.75C3.5 4.54565 3.81607 5.30871 4.37868 5.87132C4.94129 6.43393 5.70435 6.75 6.5 6.75C7.29565 6.75 8.05871 6.43393 8.62132 5.87132C9.18393 5.30871 9.5 4.54565 9.5 3.75C9.5 2.95435 9.18393 2.19129 8.62132 1.62868C8.05871 1.06607 7.29565 0.75 6.5 0.75C5.70435 0.75 4.94129 1.06607 4.37868 1.62868C3.81607 2.19129 3.5 2.95435 3.5 3.75V3.75Z" stroke="#212B3D" stroke-width="1.5" stroke-linecap="round" stroke-linejoin="round"/>
</g>
<defs>
<clipPath id="clip0_453_1132">
<rect width="24" height="24" fill="white"/>
</clipPath>
</defs>
</svg>
