<svg width="24" height="24" viewBox="0 0 24 24" fill="none" xmlns="http://www.w3.org/2000/svg">

  <path
    d="M0.988992 13.767C0.83359 13.6727 0.706317 13.5384 0.620424 13.3782C0.534531 13.2179 0.493157 13.0376 0.500611 12.856C0.508065 12.6743 0.564073 12.498 0.662805 12.3453C0.761537 12.1927 0.899383 12.0693 1.06199 11.988L23.5 0.5L18.073 22.713C18.0334 22.8726 17.9562 23.0204 17.8478 23.1441C17.7394 23.2678 17.603 23.3638 17.45 23.424C17.2961 23.4855 17.1299 23.5101 16.9648 23.4959C16.7996 23.4816 16.6401 23.4289 16.499 23.342L0.988992 13.767Z"
    stroke="#212B3D" stroke-width="2" stroke-linecap="round" stroke-linejoin="round"/>
  <path
    d="M11.481 20.245L8.376 23.35C8.30425 23.4218 8.2128 23.4708 8.11322 23.4906C8.01364 23.5105 7.91042 23.5003 7.81661 23.4614C7.72281 23.4226 7.64266 23.3567 7.58629 23.2723C7.52993 23.1878 7.4999 23.0885 7.5 22.987V17.787L23.5 0.5"
    stroke="#212B3D" stroke-width="2" stroke-linecap="round" stroke-linejoin="round"/>


</svg>
