<svg width="24" height="24" viewBox="0 0 24 24" fill="none" xmlns="http://www.w3.org/2000/svg">
<path d="M1.5 11.25C1.5 12.2446 1.89509 13.1984 2.59835 13.9017C3.30161 14.6049 4.25544 15 5.25 15C6.24456 15 7.19839 14.6049 7.90165 13.9017C8.60491 13.1984 9 12.2446 9 11.25C9 10.2554 8.60491 9.30161 7.90165 8.59835C7.19839 7.89509 6.24456 7.5 5.25 7.5C4.25544 7.5 3.30161 7.89509 2.59835 8.59835C1.89509 9.30161 1.5 10.2554 1.5 11.25V11.25Z" stroke="#212B3D" stroke-width="1.5" stroke-linecap="round" stroke-linejoin="round"/>
<path d="M15 6C15 6.99456 15.3951 7.94839 16.0983 8.65165C16.8016 9.35491 17.7554 9.75 18.75 9.75C19.7446 9.75 20.6984 9.35491 21.4017 8.65165C22.1049 7.94839 22.5 6.99456 22.5 6C22.5 5.00544 22.1049 4.05161 21.4017 3.34835C20.6984 2.64509 19.7446 2.25 18.75 2.25C17.7554 2.25 16.8016 2.64509 16.0983 3.34835C15.3951 4.05161 15 5.00544 15 6Z" stroke="#212B3D" stroke-width="1.5" stroke-linecap="round" stroke-linejoin="round"/>
<path d="M15 18C15 18.9946 15.3951 19.9484 16.0983 20.6517C16.8016 21.3549 17.7554 21.75 18.75 21.75C19.7446 21.75 20.6984 21.3549 21.4017 20.6517C22.1049 19.9484 22.5 18.9946 22.5 18C22.5 17.0054 22.1049 16.0516 21.4017 15.3483C20.6984 14.6451 19.7446 14.25 18.75 14.25C17.7554 14.25 16.8016 14.6451 16.0983 15.3483C15.3951 16.0516 15 17.0054 15 18Z" stroke="#212B3D" stroke-width="1.5" stroke-linecap="round" stroke-linejoin="round"/>
<path d="M8.74597 9.89111L15.254 7.36011" stroke="#212B3D" stroke-width="1.5" stroke-linecap="round" stroke-linejoin="round"/>
<path d="M8.60498 12.928L15.395 16.323" stroke="#212B3D" stroke-width="1.5" stroke-linecap="round" stroke-linejoin="round"/>
</svg>
