<svg width="24" height="24" viewBox="0 0 24 24" fill="none" xmlns="http://www.w3.org/2000/svg">

<path d="M16.358 14.6998L9.72699 17.3368L16.394 19.6898C16.6095 19.7659 16.8445 19.7659 17.06 19.6898L23.1 17.5588C23.148 17.5418 23.1896 17.5106 23.2194 17.4694C23.2491 17.4281 23.2656 17.3788 23.2666 17.3279C23.2676 17.277 23.253 17.2271 23.2248 17.1847C23.1967 17.1424 23.1563 17.1096 23.109 17.0908L17.1 14.6998C16.8618 14.6046 16.5962 14.6046 16.358 14.6998V14.6998Z" stroke="#212B3D" stroke-width="1.5" stroke-linecap="round" stroke-linejoin="round"/>
<path d="M9.72699 17.3369V20.9999" stroke="#212B3D" stroke-width="1.5" stroke-linecap="round" stroke-linejoin="round"/>
<path d="M12.727 18.3999V21.5499C12.7262 21.7004 12.7707 21.8476 12.8547 21.9724C12.9387 22.0972 13.0583 22.1939 13.198 22.2499L16.448 23.4499C16.6267 23.5219 16.8263 23.5219 17.005 23.4499L20.255 22.2499C20.3949 22.1942 20.5148 22.0976 20.599 21.9727C20.6832 21.8479 20.7278 21.7005 20.727 21.5499V18.3999" stroke="#212B3D" stroke-width="1.5" stroke-linecap="round" stroke-linejoin="round"/>
<path d="M12.8279 9.09987C12.2694 8.18158 11.9913 7.12008 12.0279 6.04587V4.79987C12.0513 4.22106 11.9575 3.64349 11.7521 3.10184C11.5467 2.56018 11.234 2.06561 10.8327 1.64781C10.4315 1.23002 9.94991 0.897606 9.41698 0.670535C8.88405 0.443464 8.31074 0.326416 7.73145 0.326416C7.15216 0.326416 6.57885 0.443464 6.04592 0.670535C5.51299 0.897606 5.03144 1.23002 4.63017 1.64781C4.2289 2.06561 3.91618 2.56018 3.7108 3.10184C3.50541 3.64349 3.41158 4.22106 3.43495 4.79987V6.04587C3.47158 7.12008 3.19352 8.18158 2.63495 9.09987" stroke="#212B3D" stroke-width="1.5" stroke-linecap="round" stroke-linejoin="round"/>
<path d="M3.43298 5.50587C4.24906 5.50559 5.05551 5.32959 5.79749 4.98982C6.53948 4.65006 7.1996 4.15451 7.73298 3.53687C8.26653 4.15431 8.92669 4.64972 9.66864 4.98946C10.4106 5.3292 11.217 5.50533 12.033 5.50587" stroke="#212B3D" stroke-width="1.5" stroke-linecap="round" stroke-linejoin="round"/>
<path d="M11.516 5.48389C11.4686 6.4562 11.0489 7.37301 10.344 8.04438C9.63912 8.71575 8.70296 9.09023 7.72949 9.09023C6.75603 9.09023 5.81986 8.71575 5.11495 8.04438C4.41004 7.37301 3.99041 6.4562 3.94299 5.48389" stroke="#212B3D" stroke-width="1.5" stroke-linecap="round" stroke-linejoin="round"/>
<path d="M6.72699 17.4999H0.72699C0.726966 16.0634 1.1689 14.6616 1.99281 13.4849C2.81672 12.3082 3.98271 11.4134 5.33257 10.922C6.68242 10.4306 8.15076 10.3665 9.53834 10.7382C10.9259 11.1099 12.1655 11.8995 13.089 12.9999" stroke="#212B3D" stroke-width="1.5" stroke-linecap="round" stroke-linejoin="round"/>






</svg>
