<svg width="24" height="24" viewBox="0 0 24 24" fill="none" xmlns="http://www.w3.org/2000/svg">

<path d="M16.343 14.7L9.71198 17.337L16.379 19.69C16.5945 19.7661 16.8295 19.7661 17.045 19.69L23.083 17.559C23.1309 17.542 23.1726 17.5108 23.2023 17.4696C23.2321 17.4283 23.2486 17.3789 23.2496 17.3281C23.2505 17.2772 23.236 17.2273 23.2078 17.1849C23.1797 17.1425 23.1392 17.1098 23.092 17.091L17.081 14.7C16.844 14.6059 16.58 14.6059 16.343 14.7Z" stroke="#212B3D" stroke-width="1.5" stroke-linecap="round" stroke-linejoin="round"/>
<path d="M9.71198 17.3369V20.9999" stroke="#212B3D" stroke-width="1.5" stroke-linecap="round" stroke-linejoin="round"/>
<path d="M12.712 18.3999V21.5499C12.7112 21.7005 12.7558 21.8479 12.84 21.9727C12.9242 22.0976 13.0441 22.1942 13.184 22.2499L16.434 23.4499C16.6127 23.5219 16.8123 23.5219 16.991 23.4499L20.241 22.2499C20.3807 22.1939 20.5003 22.0972 20.5843 21.9724C20.6682 21.8476 20.7128 21.7004 20.712 21.5499V18.3999" stroke="#212B3D" stroke-width="1.5" stroke-linecap="round" stroke-linejoin="round"/>
<path d="M3.46198 4.75C3.46198 5.87717 3.90974 6.95817 4.70677 7.7552C5.5038 8.55223 6.58481 9 7.71198 9C8.83915 9 9.92015 8.55223 10.7172 7.7552C11.5142 6.95817 11.962 5.87717 11.962 4.75C11.962 3.62283 11.5142 2.54183 10.7172 1.7448C9.92015 0.947767 8.83915 0.5 7.71198 0.5C6.58481 0.5 5.5038 0.947767 4.70677 1.7448C3.90974 2.54183 3.46198 3.62283 3.46198 4.75V4.75Z" stroke="#212B3D" stroke-width="1.5" stroke-linecap="round" stroke-linejoin="round"/>
<path d="M0.711975 17.4999C0.711951 16.0634 1.15388 14.6616 1.97779 13.4849C2.8017 12.3082 3.9677 11.4134 5.31755 10.922C6.6674 10.4306 8.13575 10.3665 9.52333 10.7382C10.9109 11.1099 12.1505 11.8995 13.074 12.9999" stroke="#212B3D" stroke-width="1.5" stroke-linecap="round" stroke-linejoin="round"/>






</svg>
