<svg width="24" height="24" viewBox="0 0 24 24" fill="none" xmlns="http://www.w3.org/2000/svg">

<path d="M16.324 14.7L9.69299 17.337L16.36 19.69C16.5755 19.7661 16.8105 19.7661 17.026 19.69L23.064 17.559C23.112 17.542 23.1536 17.5108 23.1834 17.4696C23.2131 17.4283 23.2296 17.3789 23.2306 17.3281C23.2316 17.2772 23.217 17.2273 23.1888 17.1849C23.1607 17.1425 23.1203 17.1098 23.073 17.091L17.062 14.7C16.825 14.6059 16.561 14.6059 16.324 14.7Z" stroke="#212B3D" stroke-width="2" stroke-linecap="round" stroke-linejoin="round"/>
<path d="M9.69299 17.3369V20.9999" stroke="#212B3D" stroke-width="2" stroke-linecap="round" stroke-linejoin="round"/>
<path d="M12.693 18.3999V21.5499C12.6922 21.7005 12.7368 21.8479 12.821 21.9727C12.9052 22.0976 13.0251 22.1942 13.165 22.2499L16.415 23.4499C16.5937 23.5219 16.7933 23.5219 16.972 23.4499L20.222 22.2499C20.3617 22.1939 20.4813 22.0972 20.5653 21.9724C20.6493 21.8476 20.6938 21.7004 20.693 21.5499V18.3999" stroke="#212B3D" stroke-width="2" stroke-linecap="round" stroke-linejoin="round"/>
<path d="M2.48401 2.2229C3.02601 2.78504 3.6758 3.23214 4.39451 3.53746C5.11323 3.84278 5.88613 4.00006 6.66701 3.9999C7.45784 4.00008 8.24042 3.83914 8.96701 3.5269" stroke="#212B3D" stroke-width="2" stroke-linecap="round" stroke-linejoin="round"/>
<path d="M2 4C2 4.45963 2.09053 4.91475 2.26642 5.33939C2.44231 5.76403 2.70012 6.14987 3.02513 6.47487C3.35013 6.79988 3.73597 7.05769 4.16061 7.23358C4.58525 7.40947 5.04037 7.5 5.5 7.5C5.95963 7.5 6.41475 7.40947 6.83939 7.23358C7.26403 7.05769 7.64987 6.79988 7.97487 6.47487C8.29988 6.14987 8.55769 5.76403 8.73358 5.33939C8.90947 4.91475 9 4.45963 9 4C9 3.54037 8.90947 3.08525 8.73358 2.66061C8.55769 2.23597 8.29988 1.85013 7.97487 1.52513C7.64987 1.20012 7.26403 0.942313 6.83939 0.766422C6.41475 0.59053 5.95963 0.5 5.5 0.5C5.04037 0.5 4.58525 0.59053 4.16061 0.766422C3.73597 0.942313 3.35013 1.20012 3.02513 1.52513C2.70012 1.85013 2.44231 2.23597 2.26642 2.66061C2.09053 3.08525 2 3.54037 2 4V4Z" stroke="#212B3D" stroke-width="2" stroke-linecap="round" stroke-linejoin="round"/>
<path d="M10.5 14C10.5 12.6739 9.97322 11.4021 9.03553 10.4645C8.09785 9.52678 6.82608 9 5.5 9C4.17392 9 2.90215 9.52678 1.96447 10.4645C1.02678 11.4021 0.5 12.6739 0.5 14V17.5H3L3.5 23.5H7.5L7.625 22" stroke="#212B3D" stroke-width="2" stroke-linecap="round" stroke-linejoin="round"/>






</svg>
