<svg width="24" height="24" viewBox="0 0 24 24" fill="none" xmlns="http://www.w3.org/2000/svg">
  <path
    d="M12 0.75C14.0422 0.75 16.0007 1.56125 17.4448 3.00528C18.8888 4.44931 19.7001 6.40783 19.7001 8.45C19.7001 11.95 14.489 20.115 12.639 22.904C12.5685 23.0096 12.473 23.0962 12.3611 23.1561C12.2491 23.2159 12.124 23.2473 11.997 23.2473C11.8701 23.2473 11.745 23.2159 11.633 23.1561C11.5211 23.0962 11.4256 23.0096 11.355 22.904C9.50805 20.117 4.30005 11.953 4.30005 8.453C4.29966 7.44157 4.49853 6.43997 4.88532 5.50542C5.2721 4.57086 5.83922 3.72167 6.55427 3.00634C7.26932 2.29101 8.11829 1.72356 9.05269 1.33641C9.9871 0.949266 10.9886 0.75 12 0.75V0.75Z"
    stroke="#212B3D" stroke-width="1.5" stroke-linecap="round" stroke-linejoin="round"/>
  <path
    d="M10.5001 6.75198C10.3776 6.54243 10.2024 6.36862 9.99184 6.24783C9.78131 6.12703 9.54282 6.06348 9.3001 6.06348C9.05738 6.06348 8.81889 6.12703 8.60835 6.24783C8.39782 6.36862 8.22259 6.54243 8.1001 6.75198"
    stroke="#212B3D" stroke-width="1.5" stroke-linecap="round" stroke-linejoin="round"/>
  <path
    d="M13.5 6.75198C13.6225 6.54243 13.7977 6.36862 14.0083 6.24783C14.2188 6.12703 14.4573 6.06348 14.7 6.06348C14.9427 6.06348 15.1812 6.12703 15.3917 6.24783C15.6023 6.36862 15.7775 6.54243 15.9 6.75198"
    stroke="#212B3D" stroke-width="1.5" stroke-linecap="round" stroke-linejoin="round"/>
  <path
    d="M8.51709 10.519C8.8245 11.185 9.31621 11.749 9.93407 12.1443C10.5519 12.5396 11.2701 12.7497 12.0036 12.7497C12.7371 12.7497 13.4552 12.5396 14.0731 12.1443C14.691 11.749 15.1827 11.185 15.4901 10.519"
    stroke="#212B3D" stroke-width="1.5" stroke-linecap="round" stroke-linejoin="round"/>
</svg>
