<svg viewBox="0 0 16 17" fill="none" xmlns="http://www.w3.org/2000/svg">
<path fill-rule="evenodd" clip-rule="evenodd" d="M6.93629 4.08914C6.86056 4.11108 6.78399 4.17626 6.74599 4.25112C6.72619 4.29013 6.11869 5.98377 5.39599 8.01479C4.67329 10.0458 4.07881 11.7076 4.07494 11.7078C4.07105 11.7079 3.8203 11.1137 3.51771 10.3874C3.21511 9.66097 2.95489 9.04954 2.93944 9.0286C2.8828 8.95181 2.77753 8.90026 2.67713 8.90012C2.48249 8.89985 2.31965 9.09572 2.36044 9.28105C2.36733 9.3124 2.69729 10.1167 3.09369 11.0683C3.63525 12.3684 3.82415 12.8099 3.85365 12.8444C3.94181 12.9474 4.10202 12.9843 4.22207 12.9294C4.30249 12.8926 4.36025 12.8354 4.39509 12.7581C4.40998 12.7251 5.05494 10.9215 5.82834 8.75005C6.60173 6.57865 7.24177 4.7845 7.25064 4.76305L7.26677 4.72405L10.3304 4.72393L13.394 4.72381L13.454 4.69582C13.5203 4.66489 13.5972 4.5873 13.6231 4.52516C13.6426 4.47856 13.6479 4.39094 13.6353 4.32205C13.6183 4.2287 13.5112 4.1154 13.4147 4.0886C13.3573 4.07266 6.99137 4.07318 6.93629 4.08914ZM7.83791 7.51226C7.77575 7.54121 7.71585 7.59981 7.67951 7.66721C7.64937 7.72311 7.65012 7.8815 7.68083 7.94605C7.69625 7.97845 8.05691 8.34794 8.79071 9.08309L9.87775 10.1721L8.79007 11.2611C8.19185 11.86 7.69305 12.3687 7.68161 12.3915C7.67019 12.4143 7.65816 12.4662 7.65491 12.5069C7.64647 12.6119 7.67483 12.6897 7.74831 12.7632C7.84075 12.8557 7.96195 12.883 8.09086 12.8406C8.14495 12.8228 8.24334 12.7279 9.24499 11.7277L10.34 10.6344L11.429 11.7214C12.1641 12.4551 12.5336 12.8158 12.566 12.8312C12.6008 12.8478 12.6404 12.8541 12.71 12.8541C12.793 12.8541 12.8136 12.8496 12.8617 12.8213C12.9264 12.7833 12.9747 12.7299 13.0056 12.6621C13.0359 12.5955 13.0348 12.4745 13.0033 12.4041C12.9844 12.3621 12.7357 12.1066 11.8906 11.2611L10.8021 10.1721L11.8899 9.08309C12.4881 8.48412 12.9871 7.9752 12.9986 7.95215C13.0303 7.88887 13.0359 7.76027 13.0099 7.69217C12.9448 7.52155 12.7371 7.43464 12.572 7.50884C12.5301 7.52766 12.2734 7.77752 11.429 8.62152L10.3399 9.70993L9.25096 8.62147C8.40544 7.77634 8.14992 7.5276 8.10799 7.5088C8.03095 7.47425 7.91639 7.47572 7.83791 7.51226Z" fill="#878D96"/>
</svg>
