<svg width="24" height="24" viewBox="0 0 24 24" fill="none" xmlns="http://www.w3.org/2000/svg">
<path d="M10.901 5.05298V8.39998L7.517 9.56898L4.133 8.39998V5.05298" stroke="#212B3D" stroke-width="1.5" stroke-linecap="round" stroke-linejoin="round"/>
<path d="M14.284 3.619L7.517 0.75L0.75 3.619L7.517 6.487L14.284 3.619Z" stroke="#212B3D" stroke-width="1.5" stroke-linecap="round" stroke-linejoin="round"/>
<path d="M0.75 3.6189V7.4439" stroke="#212B3D" stroke-width="1.5" stroke-linecap="round" stroke-linejoin="round"/>
<path d="M22.15 14.6499V9.8829C22.15 9.6885 22.0727 9.50206 21.9353 9.36459C21.7978 9.22713 21.6114 9.1499 21.417 9.1499H14.083C13.8886 9.1499 13.7021 9.22713 13.5647 9.36459C13.4272 9.50206 13.35 9.6885 13.35 9.8829V14.6499H22.15Z" stroke="#212B3D" stroke-width="1.5" stroke-linecap="round" stroke-linejoin="round"/>
<path d="M23.187 16.9189C23.2367 17.0305 23.2577 17.1528 23.248 17.2746C23.2384 17.3964 23.1985 17.5139 23.1319 17.6163C23.0654 17.7188 22.9742 17.8029 22.8668 17.8612C22.7594 17.9195 22.6392 17.95 22.517 17.9499H12.983C12.8608 17.95 12.7406 17.9195 12.6332 17.8612C12.5258 17.8029 12.4347 17.7188 12.3681 17.6163C12.3015 17.5139 12.2616 17.3964 12.252 17.2746C12.2424 17.1528 12.2633 17.0305 12.313 16.9189L13.35 14.6499H22.15L23.187 16.9189Z" stroke="#212B3D" stroke-width="1.5" stroke-linecap="round" stroke-linejoin="round"/>
<path d="M10.65 15.183C10.65 14.9885 10.5727 14.8021 10.4353 14.6646C10.2978 14.5272 10.1114 14.45 9.91698 14.45H2.58298C2.38857 14.45 2.20213 14.5272 2.06467 14.6646C1.9272 14.8021 1.84998 14.9885 1.84998 15.183V19.95H10.65" stroke="#212B3D" stroke-width="1.5" stroke-linecap="round" stroke-linejoin="round"/>
<path d="M11.687 22.219C11.7367 22.3306 11.7577 22.4529 11.748 22.5747C11.7384 22.6965 11.6985 22.8139 11.6319 22.9164C11.5654 23.0188 11.4742 23.103 11.3668 23.1613C11.2594 23.2195 11.1392 23.25 11.017 23.25H1.483C1.36083 23.25 1.24057 23.2195 1.13318 23.1613C1.02578 23.103 0.934651 23.0188 0.868075 22.9164C0.801499 22.8139 0.761587 22.6965 0.75197 22.5747C0.742352 22.4529 0.763333 22.3306 0.813005 22.219L1.85 19.95H10.65L11.687 22.219Z" stroke="#212B3D" stroke-width="1.5" stroke-linecap="round" stroke-linejoin="round"/>
</svg>
