<svg xmlns="http://www.w3.org/2000/svg" width="19" height="19" viewBox="0 0 19 19" fill="none">
  <path fill-rule="evenodd" clip-rule="evenodd" d="M4.46007 1.04073C3.99135 1.07139 3.56853 1.18327 3.12807 1.39321C2.01273 1.9248 1.24752 2.96639 1.06692 4.19881C1.02847 4.4612 1.02847 4.96243 1.06692 5.22481C1.22295 6.28951 1.82314 7.228 2.71452 7.80108L2.87234 7.90253L2.68969 8.02295C1.80107 8.60883 1.22181 9.52453 1.06699 10.5881C1.03326 10.8199 1.02869 11.3061 1.05799 11.5429C1.13631 12.1755 1.38678 12.7954 1.77299 13.3123C1.90025 13.4826 2.191 13.7854 2.37207 13.9363C2.78697 14.2819 3.34115 14.5564 3.87507 14.6807C4.24578 14.767 4.3804 14.7738 5.70748 14.7734C6.92115 14.773 6.95514 14.7721 7.03407 14.7364C7.40674 14.5679 7.42265 14.0452 7.06107 13.8497C6.98973 13.8112 6.97715 13.8107 5.70207 13.8003C4.35541 13.7892 4.3402 13.7884 4.01692 13.7046C3.47404 13.5639 2.93059 13.2025 2.57966 12.7488C1.96656 11.9561 1.84269 10.9119 2.25244 9.99028C2.39736 9.66433 2.55369 9.44092 2.82232 9.17581C3.21315 8.79011 3.65592 8.55732 4.23507 8.43304C4.29585 8.41999 5.26879 8.41033 7.23207 8.40327L10.1391 8.39281L10.2417 8.3424C10.4213 8.25421 10.5146 8.10571 10.5154 7.90681C10.516 7.7494 10.4674 7.64049 10.3509 7.53794C10.1978 7.40314 10.4068 7.41181 7.31267 7.41181C5.41498 7.41181 4.48995 7.40562 4.38643 7.39219C4.0566 7.34946 3.7606 7.25547 3.45563 7.09662C3.20449 6.96583 3.01249 6.82429 2.80603 6.61785C2.13191 5.94373 1.86463 4.98484 2.09398 4.06333C2.36668 2.9676 3.28047 2.16406 4.40607 2.03019C4.53016 2.01543 5.8164 2.01145 9.09507 2.0157L13.6131 2.02155L13.8058 2.06958C14.1767 2.16197 14.4491 2.28061 14.7347 2.47407C15.3398 2.88413 15.7217 3.46024 15.8838 4.20781C15.9306 4.42396 15.9304 4.99647 15.8833 5.21581C15.7606 5.78757 15.538 6.20583 15.1304 6.63047C14.9698 6.79774 14.9155 6.90169 14.9155 7.04163C14.9155 7.18795 14.9464 7.27334 15.0348 7.37169C15.1482 7.49785 15.2633 7.54465 15.4334 7.53373C15.5995 7.52307 15.6913 7.46671 15.8924 7.25223C16.8527 6.22772 17.1587 4.80428 16.6998 3.49681C16.3511 2.5032 15.6057 1.71341 14.6347 1.30881C14.2545 1.15039 13.8944 1.06951 13.4411 1.04077C13.0979 1.01899 4.79303 1.01895 4.46007 1.04073ZM4.5145 3.98467C3.96064 4.13351 3.7747 4.83567 4.18146 5.24242C4.4785 5.53947 4.94756 5.53755 5.24706 5.23804C5.53908 4.94601 5.53825 4.47677 5.24519 4.18371C5.13139 4.06992 5.04854 4.02198 4.89783 3.98272C4.77001 3.94944 4.64323 3.95007 4.5145 3.98467ZM8.26935 4.25211C8.17239 4.28685 8.0787 4.36683 8.01507 4.46916C7.96591 4.54819 7.96107 4.56997 7.96107 4.71181C7.96107 4.85378 7.96591 4.87545 8.01544 4.95561C8.07889 5.05822 8.19485 5.15256 8.29002 5.17899C8.33471 5.19141 9.18303 5.19765 10.8334 5.19771C13.6322 5.19783 13.4106 5.20957 13.5672 5.05295C13.7574 4.86276 13.7619 4.56997 13.5776 4.38031C13.4216 4.2198 13.7038 4.2353 10.8591 4.23098C8.74819 4.22776 8.32774 4.2312 8.26935 4.25211ZM12.9471 8.48478C12.5734 8.51322 12.2633 8.56608 11.9422 8.65606C10.3051 9.11487 9.03063 10.4294 8.61981 12.0828C8.5184 12.491 8.50234 12.6454 8.50198 13.2168C8.50161 13.7827 8.509 13.8659 8.59359 14.2491C8.85653 15.4404 9.57788 16.493 10.5945 17.1689C11.2279 17.59 11.9162 17.844 12.6681 17.9339C12.897 17.9613 13.4676 17.9713 13.6542 17.9511C14.4761 17.8624 15.2036 17.6057 15.8414 17.1795C16.126 16.9893 16.288 16.8596 16.5183 16.6374C16.7968 16.3688 16.983 16.1379 17.0178 16.018C17.1389 15.6014 16.6987 15.2456 16.3182 15.4526C16.2713 15.4782 16.1904 15.5485 16.1385 15.609C15.7658 16.0429 15.3996 16.3368 14.9389 16.5717C13.8758 17.1136 12.668 17.1266 11.5881 16.6076C11.2155 16.4286 10.937 16.2357 10.6272 15.9423C10.036 15.3823 9.6648 14.6791 9.50678 13.8198C9.46176 13.575 9.46156 12.8735 9.50647 12.6318C9.58452 12.2117 9.68664 11.8963 9.8553 11.5545C10.2443 10.7659 10.9461 10.0985 11.7333 9.76837C12.9461 9.25977 14.2671 9.38742 15.3501 10.1179C15.7726 10.4029 16.1927 10.85 16.4608 11.2998C16.5641 11.4733 16.6461 11.632 16.6461 11.6586C16.6461 11.6704 16.2994 11.6784 15.6502 11.6817L14.6544 11.6868L14.5805 11.7357C14.4128 11.8467 14.3397 11.9727 14.3387 12.1525C14.3379 12.3015 14.3936 12.4307 14.4986 12.5231C14.6485 12.6551 14.5798 12.6498 16.1511 12.6498C17.7223 12.6498 17.6537 12.6551 17.8036 12.5231C17.8493 12.4828 17.9013 12.4128 17.9261 12.358L17.9691 12.2628V10.5618C17.9691 8.87374 17.9688 8.8602 17.9314 8.77981C17.8754 8.65932 17.8081 8.58939 17.695 8.53402C17.4476 8.41301 17.1678 8.50881 17.0403 8.75816L16.9971 8.84281L16.9916 9.58576L16.9862 10.3287L16.9128 10.2359C16.7941 10.0856 16.5587 9.83935 16.3907 9.68944C15.6692 9.04594 14.7763 8.6381 13.8291 8.51946C13.6218 8.49349 13.1014 8.47302 12.9471 8.48478ZM4.47702 10.3787C4.11762 10.5106 3.90966 10.8538 3.96969 11.2161C4.06939 11.8178 4.81836 12.0591 5.2437 11.6264C5.64025 11.2231 5.47766 10.557 4.93836 10.3756C4.8226 10.3367 4.5872 10.3383 4.47702 10.3787Z" fill="#0C1F22"/>
</svg>
