<svg width="24" height="24" viewBox="0 0 24 24" fill="none" xmlns="http://www.w3.org/2000/svg">
<path d="M13.5 22C15.4284 22 17.3134 21.4282 18.9168 20.3568C20.5202 19.2855 21.7699 17.7627 22.5078 15.9812C23.2458 14.1996 23.4389 12.2392 23.0627 10.3479C22.6865 8.45656 21.7579 6.71928 20.3943 5.35571C19.0307 3.99215 17.2934 3.06355 15.4021 2.68735C13.5108 2.31114 11.5504 2.50422 9.76884 3.24218C7.98726 3.98013 6.46452 5.22982 5.39317 6.83319C4.32183 8.43657 3.75 10.3216 3.75 12.25V13" stroke="#212B3D" stroke-width="1.5" stroke-linecap="round" stroke-linejoin="round"/>
<path d="M0.75 9.99707L3.75 12.9971L6.75 9.99707" stroke="#212B3D" stroke-width="1.5" stroke-linecap="round" stroke-linejoin="round"/>
<path d="M12.75 6.24707V12.9971H18" stroke="#212B3D" stroke-width="1.5" stroke-linecap="round" stroke-linejoin="round"/>
</svg>
