<svg width="24" height="24" viewBox="0 0 24 24" fill="none" xmlns="http://www.w3.org/2000/svg">
<path d="M18.362 7.00007C17.2808 5.69048 15.8219 4.74645 14.1842 4.29684C12.5466 3.84722 10.8101 3.91394 9.21183 4.48787C7.61353 5.0618 6.23128 6.11498 5.25377 7.50366C4.27626 8.89234 3.75111 10.5488 3.75 12.2471V14.5001" stroke="#212B3D" stroke-width="1.5" stroke-linecap="round" stroke-linejoin="round"/>
<path d="M6 17.9081C7.13379 19.1095 8.60214 19.9428 10.2149 20.3003C11.8277 20.6577 13.5107 20.5227 15.0459 19.9128C16.5811 19.303 17.8979 18.2462 18.8257 16.8795C19.7535 15.5128 20.2497 13.899 20.25 12.2471V10.7471" stroke="#212B3D" stroke-width="1.5" stroke-linecap="round" stroke-linejoin="round"/>
<path d="M0.75 11.4971L3.75 14.4971L6.75 11.4971" stroke="#212B3D" stroke-width="1.5" stroke-linecap="round" stroke-linejoin="round"/>
<path d="M23.25 13.7471L20.25 10.7471L17.25 13.7471" stroke="#212B3D" stroke-width="1.5" stroke-linecap="round" stroke-linejoin="round"/>
</svg>
