<svg width="14" height="14" viewBox="0 0 14 14" fill="none" xmlns="http://www.w3.org/2000/svg">
  <path
    d="M10.9055 8.52141C11.5988 8.52141 12.1608 7.95938 12.1608 7.26607C12.1608 6.57277 11.5988 6.01074 10.9055 6.01074C10.2122 6.01074 9.65015 6.57277 9.65015 7.26607C9.65015 7.95938 10.2122 8.52141 10.9055 8.52141Z"
    stroke="white" stroke-width="0.8" stroke-linecap="round" stroke-linejoin="round"/>
  <path
    d="M12.956 10.0881C12.5449 9.55648 11.9432 9.20559 11.278 9.10958C10.6129 9.01356 9.93653 9.17995 9.39185 9.57356"
    stroke="white" stroke-width="0.8" stroke-linecap="round" stroke-linejoin="round"/>
  <path
    d="M3.09347 8.52141C3.78677 8.52141 4.3488 7.95938 4.3488 7.26607C4.3488 6.57277 3.78677 6.01074 3.09347 6.01074C2.40017 6.01074 1.83813 6.57277 1.83813 7.26607C1.83813 7.95938 2.40017 8.52141 3.09347 8.52141Z"
    stroke="white" stroke-width="0.8" stroke-linecap="round" stroke-linejoin="round"/>
  <path
    d="M1.04272 10.0873C1.45406 9.55571 2.05593 9.20477 2.72121 9.10866C3.38648 9.01255 4.06307 9.17878 4.60806 9.57225"
    stroke="white" stroke-width="0.8" stroke-linecap="round" stroke-linejoin="round"/>
  <path
    d="M9.91585 11.2438C9.91585 10.4703 9.60856 9.7284 9.06158 9.18142C8.5146 8.63444 7.77273 8.32715 6.99919 8.32715C6.22564 8.32715 5.48377 8.63444 4.93679 9.18142C4.38981 9.7284 4.08252 10.4703 4.08252 11.2438"
    stroke="white" stroke-width="0.8" stroke-linecap="round" stroke-linejoin="round"/>
  <path
    d="M6.96984 7.53148C7.92184 7.53148 8.69359 6.75974 8.69359 5.80773C8.69359 4.85573 7.92184 4.08398 6.96984 4.08398C6.01784 4.08398 5.24609 4.85573 5.24609 5.80773C5.24609 6.75974 6.01784 7.53148 6.96984 7.53148Z"
    stroke="white" stroke-width="0.8" stroke-linecap="round" stroke-linejoin="round"/>
</svg>
