<svg width="24" height="24" viewBox="0 0 24 24" fill="none" xmlns="http://www.w3.org/2000/svg">
<path d="M0.75 17.2511C0.75076 16.1352 1.02804 15.0369 1.55706 14.0543C2.08607 13.0718 2.85033 12.2356 3.78149 11.6207C4.71265 11.0057 5.7817 10.6311 6.89305 10.5303C8.00439 10.4295 9.12339 10.6057 10.15 11.0431" stroke="#212B3D" stroke-width="2" stroke-linecap="round" stroke-linejoin="round"/>
<path d="M3.375 4.87598C3.375 5.96999 3.8096 7.0192 4.58318 7.79279C5.35677 8.56638 6.40598 9.00098 7.5 9.00098C8.59402 9.00098 9.64323 8.56638 10.4168 7.79279C11.1904 7.0192 11.625 5.96999 11.625 4.87598C11.625 3.78196 11.1904 2.73275 10.4168 1.95916C9.64323 1.18557 8.59402 0.750977 7.5 0.750977C6.40598 0.750977 5.35677 1.18557 4.58318 1.95916C3.8096 2.73275 3.375 3.78196 3.375 4.87598V4.87598Z" stroke="#212B3D" stroke-width="2" stroke-linecap="round" stroke-linejoin="round"/>
<path d="M11.25 17.249C11.25 18.8403 11.8821 20.3664 13.0074 21.4917C14.1326 22.6169 15.6587 23.249 17.25 23.249C18.8413 23.249 20.3674 22.6169 21.4926 21.4917C22.6179 20.3664 23.25 18.8403 23.25 17.249C23.25 15.6577 22.6179 14.1316 21.4926 13.0064C20.3674 11.8812 18.8413 11.249 17.25 11.249C15.6587 11.249 14.1326 11.8812 13.0074 13.0064C11.8821 14.1316 11.25 15.6577 11.25 17.249V17.249Z" stroke="#212B3D" stroke-width="2" stroke-linecap="round" stroke-linejoin="round"/>
<path d="M13.008 21.4899L21.492 13.0059" stroke="#212B3D" stroke-width="2" stroke-linecap="round" stroke-linejoin="round"/>
</svg>
