<svg width="24" height="24" viewBox="0 0 24 24" fill="none" xmlns="http://www.w3.org/2000/svg">
<path d="M11.25 17.25C11.25 18.8413 11.8821 20.3674 13.0074 21.4926C14.1326 22.6179 15.6587 23.25 17.25 23.25C18.8413 23.25 20.3674 22.6179 21.4926 21.4926C22.6179 20.3674 23.25 18.8413 23.25 17.25C23.25 15.6587 22.6179 14.1326 21.4926 13.0074C20.3674 11.8821 18.8413 11.25 17.25 11.25C15.6587 11.25 14.1326 11.8821 13.0074 13.0074C11.8821 14.1326 11.25 15.6587 11.25 17.25Z" stroke="#212B3D" stroke-width="2" stroke-linecap="round" stroke-linejoin="round"/>
<path d="M17.25 14.25V20.25" stroke="#212B3D" stroke-width="2" stroke-linecap="round" stroke-linejoin="round"/>
<path d="M14.25 17.25H20.25" stroke="#212B3D" stroke-width="2" stroke-linecap="round" stroke-linejoin="round"/>
<path d="M10.782 10.5129C9.66897 9.5313 8.23405 8.99285 6.75 8.99994C5.2805 8.98842 3.85788 9.5166 2.75194 10.4843C1.64599 11.452 0.933647 12.7919 0.75 14.2499" stroke="#212B3D" stroke-width="2" stroke-linecap="round" stroke-linejoin="round"/>
<path d="M3.375 4.125C3.375 5.02011 3.73058 5.87855 4.36351 6.51149C4.99645 7.14442 5.85489 7.5 6.75 7.5C7.64511 7.5 8.50355 7.14442 9.13649 6.51149C9.76942 5.87855 10.125 5.02011 10.125 4.125C10.125 3.22989 9.76942 2.37145 9.13649 1.73851C8.50355 1.10558 7.64511 0.75 6.75 0.75C5.85489 0.75 4.99645 1.10558 4.36351 1.73851C3.73058 2.37145 3.375 3.22989 3.375 4.125V4.125Z" stroke="#212B3D" stroke-width="2" stroke-linecap="round" stroke-linejoin="round"/>
<path d="M13.875 3.375C13.875 4.07119 14.1516 4.73887 14.6438 5.23116C15.1361 5.72344 15.8038 6 16.5 6C17.1962 6 17.8639 5.72344 18.3562 5.23116C18.8484 4.73887 19.125 4.07119 19.125 3.375C19.125 2.67881 18.8484 2.01113 18.3562 1.51884C17.8639 1.02656 17.1962 0.75 16.5 0.75C15.8038 0.75 15.1361 1.02656 14.6438 1.51884C14.1516 2.01113 13.875 2.67881 13.875 3.375V3.375Z" stroke="#212B3D" stroke-width="2" stroke-linecap="round" stroke-linejoin="round"/>
<path d="M20.4 8.9999C20.042 8.38019 19.5413 7.85481 18.9396 7.46738C18.3378 7.07994 17.6523 6.84162 16.94 6.7722C16.2277 6.70278 15.5091 6.80425 14.8439 7.06821C14.1786 7.33216 13.5859 7.75098 13.115 8.2899" stroke="#212B3D" stroke-width="2" stroke-linecap="round" stroke-linejoin="round"/>
</svg>
