<svg width="18" height="16" viewBox="0 0 18 16" fill="none" xmlns="http://www.w3.org/2000/svg">
  <path
    d="M3.25 5.25C3.25 5.97935 3.53973 6.67882 4.05546 7.19454C4.57118 7.71027 5.27065 8 6 8C6.72935 8 7.42882 7.71027 7.94454 7.19454C8.46027 6.67882 8.75 5.97935 8.75 5.25C8.75 4.52065 8.46027 3.82118 7.94454 3.30546C7.42882 2.78973 6.72935 2.5 6 2.5C5.27065 2.5 4.57118 2.78973 4.05546 3.30546C3.53973 3.82118 3.25 4.52065 3.25 5.25V5.25Z"
    stroke="#8E97A2" stroke-width="1.5" stroke-linecap="round" stroke-linejoin="round"/>
  <path
    d="M1.5 13.5C1.5 12.3065 1.97411 11.1619 2.81802 10.318C3.66193 9.47411 4.80653 9 6 9C7.19347 9 8.33807 9.47411 9.18198 10.318C10.0259 11.1619 10.5 12.3065 10.5 13.5"
    stroke="#8E97A2" stroke-width="1.5" stroke-linecap="round" stroke-linejoin="round"/>
  <path
    d="M10.5006 2.94397C10.9159 2.67416 11.3963 2.52148 11.8911 2.50206C12.3859 2.48263 12.8768 2.59717 13.3119 2.8336C13.747 3.07002 14.1102 3.41955 14.3632 3.84527C14.6161 4.271 14.7494 4.75713 14.749 5.25233C14.7485 5.74753 14.6144 6.23342 14.3607 6.65871C14.1071 7.08399 13.7432 7.43289 13.3077 7.66856C12.8722 7.90422 12.3811 8.01792 11.8863 7.99763C11.3915 7.97735 10.9114 7.82383 10.4966 7.5533"
    stroke="#8E97A2" stroke-width="1.5" stroke-linecap="round" stroke-linejoin="round"/>
  <path
    d="M11 9.11128C11.659 8.96197 12.3432 8.96284 13.0019 9.11383C13.6605 9.26482 14.2768 9.56205 14.805 9.98352C15.3331 10.405 15.7597 10.9399 16.0532 11.5486C16.3466 12.1573 16.4993 12.8242 16.5 13.4999"
    stroke="#8E97A2" stroke-width="1.5" stroke-linecap="round" stroke-linejoin="round"/>
</svg>
