<svg width="24" height="24" viewBox="0 0 24 24" fill="none" xmlns="http://www.w3.org/2000/svg">
<path d="M17.25 20.25C17.1758 20.25 17.1033 20.272 17.0417 20.3132C16.98 20.3544 16.9319 20.413 16.9035 20.4815C16.8752 20.55 16.8677 20.6254 16.8822 20.6982C16.8967 20.7709 16.9324 20.8377 16.9848 20.8902C17.0373 20.9426 17.1041 20.9783 17.1768 20.9928C17.2496 21.0073 17.325 20.9998 17.3935 20.9715C17.462 20.9431 17.5206 20.895 17.5618 20.8333C17.603 20.7717 17.625 20.6992 17.625 20.625C17.6251 20.5757 17.6155 20.5269 17.5967 20.4813C17.5779 20.4358 17.5503 20.3944 17.5155 20.3595C17.4806 20.3247 17.4392 20.2971 17.3937 20.2783C17.3481 20.2595 17.2993 20.2499 17.25 20.25" stroke="#212B3D" stroke-width="2" stroke-linecap="round" stroke-linejoin="round"/>
<path d="M17.25 18V15" stroke="#212B3D" stroke-width="2" stroke-linecap="round" stroke-linejoin="round"/>
<path d="M23.062 20.682C23.1974 20.9525 23.2614 21.2531 23.2478 21.5553C23.2343 21.8575 23.1437 22.1512 22.9847 22.4086C22.8257 22.6659 22.6035 22.8783 22.3392 23.0256C22.075 23.1728 21.7775 23.2501 21.475 23.25H13.024C12.7215 23.2501 12.424 23.1728 12.1598 23.0256C11.8955 22.8783 11.6733 22.6659 11.5143 22.4086C11.3553 22.1512 11.2647 21.8575 11.2512 21.5553C11.2376 21.2531 11.3016 20.9525 11.437 20.682L15.663 12.23C15.8104 11.9354 16.0369 11.6877 16.3171 11.5146C16.5973 11.3415 16.9201 11.2498 17.2495 11.2498C17.5789 11.2498 17.9017 11.3415 18.1819 11.5146C18.4621 11.6877 18.6886 11.9354 18.836 12.23L23.062 20.682Z" stroke="#212B3D" stroke-width="2" stroke-linecap="round" stroke-linejoin="round"/>
<path d="M3.375 4.875C3.375 5.96902 3.8096 7.01823 4.58318 7.79182C5.35677 8.5654 6.40598 9 7.5 9C8.59402 9 9.64323 8.5654 10.4168 7.79182C11.1904 7.01823 11.625 5.96902 11.625 4.875C11.625 3.78098 11.1904 2.73177 10.4168 1.95818C9.64323 1.1846 8.59402 0.75 7.5 0.75C6.40598 0.75 5.35677 1.1846 4.58318 1.95818C3.8096 2.73177 3.375 3.78098 3.375 4.875V4.875Z" stroke="#212B3D" stroke-width="2" stroke-linecap="round" stroke-linejoin="round"/>
<path d="M12.21 12.425C11.261 11.4959 10.0587 10.8678 8.75406 10.6195C7.44941 10.3711 6.10047 10.5135 4.87645 11.0289C3.65244 11.5442 2.60786 12.4095 1.87376 13.5163C1.13965 14.623 0.748723 15.9219 0.750003 17.25" stroke="#212B3D" stroke-width="2" stroke-linecap="round" stroke-linejoin="round"/>
</svg>
