<svg width="24" height="24" viewBox="0 0 24 24" fill="none" xmlns="http://www.w3.org/2000/svg">

<path d="M2.78302 21L21.533 3" stroke="#212B3D" stroke-width="2" stroke-linecap="round" stroke-linejoin="round"/>
<path d="M8.96399 19.0509C9.9468 19.3561 10.9709 19.5076 12 19.4999C16.1 19.5689 20.258 16.6869 22.824 13.8629C23.0991 13.5575 23.2514 13.161 23.2514 12.7499C23.2514 12.3388 23.0991 11.9423 22.824 11.6369C21.8944 10.6171 20.8645 9.69344 19.75 8.87988" stroke="#212B3D" stroke-width="2" stroke-linecap="round" stroke-linejoin="round"/>
<path d="M14.413 6.28195C13.624 6.0856 12.8131 5.99083 12 5.99995C7.96901 5.93295 3.80001 8.75195 1.17901 11.635C0.903894 11.9404 0.751648 12.3369 0.751648 12.748C0.751648 13.159 0.903894 13.5555 1.17901 13.861C1.97594 14.7333 2.84575 15.5363 3.77901 16.261" stroke="#212B3D" stroke-width="2" stroke-linecap="round" stroke-linejoin="round"/>
<path d="M8.25 12.75C8.24987 12.2575 8.34678 11.7698 8.53518 11.3148C8.72359 10.8598 8.99981 10.4463 9.34806 10.0981C9.6963 9.74981 10.1098 9.47359 10.5648 9.28518C11.0198 9.09678 11.5075 8.99987 12 9" stroke="#212B3D" stroke-width="2" stroke-linecap="round" stroke-linejoin="round"/>
<path d="M15.75 12.749C15.7501 13.2416 15.6532 13.7293 15.4648 14.1844C15.2764 14.6395 15.0002 15.053 14.652 15.4013C14.3038 15.7496 13.8903 16.026 13.4353 16.2145C12.9803 16.403 12.4925 16.5 12 16.5" stroke="#212B3D" stroke-width="2" stroke-linecap="round" stroke-linejoin="round"/>






</svg>
